<svg xmlns="http://www.w3.org/2000/svg" viewBox="0 0 245.15 391.56"><defs><style>.cls-1,.cls-2,.cls-5{fill:none;stroke:#17306d;stroke-linejoin:round;}.cls-1,.cls-5{stroke-linecap:round;}.cls-1{stroke-width:2.34px;}.cls-2{stroke-width:1.17px;}.cls-3{font-size:16.41px;font-family:FilsonPro-Regular, Filson Pro;}.cls-3,.cls-6,.cls-7{fill:#17306d;}.cls-4{letter-spacing:-0.01em;}.cls-5{stroke-width:3.52px;stroke-dasharray:0.59 5.86;}.cls-7{opacity:0.5;}</style></defs><g id="Layer_2" data-name="Layer 2"><g id="Layer_1-2" data-name="Layer 1"><path class="cls-1" d="M116.7,348.71H59.17a9.81,9.81,0,0,1-9.78-9.85V232.48a11.25,11.25,0,0,0-11.23-11.24v3.52a7.72,7.72,0,0,1,7.72,7.72V338.94a13.29,13.29,0,0,0,13.29,13.28H174.24a13.29,13.29,0,0,0,13.28-13.28V232.48a7.72,7.72,0,0,1,7.72-7.72v-3.52A11.25,11.25,0,0,0,184,232.48V338.86a9.81,9.81,0,0,1-9.77,9.85Z"/><path class="cls-1" d="M49.39,247.89c6.12,0,6.12,7,12.24,7s6.12-7,12.24-7,6.11,7,12.23,7,6.12-7,12.24-7,6.12,7,12.23,7,6.12-7,12.24-7,6.11,7,12.23,7,6.12-7,12.24-7,6.12,7,12.24,7,6.12-7,12.24-7,6.13,7,12.25,7"/><line class="cls-1" x1="38.16" y1="221.24" x2="195.24" y2="221.24"/><path class="cls-2" d="M120.19,296.41a2.53,2.53,0,1,1,2.52-2.52A2.52,2.52,0,0,1,120.19,296.41Z"/><path class="cls-2" d="M84.64,295.52a3.63,3.63,0,1,1,3.63-3.63A3.62,3.62,0,0,1,84.64,295.52Z"/><path class="cls-2" d="M97.25,320.42a3.64,3.64,0,1,1,3.64-3.63A3.64,3.64,0,0,1,97.25,320.42Z"/><circle class="cls-2" cx="90.91" cy="287.38" r="1.49"/><path class="cls-2" d="M163.76,316.33a3.79,3.79,0,1,1,3.78-3.78A3.79,3.79,0,0,1,163.76,316.33Z"/><path class="cls-2" d="M162.27,325a2.65,2.65,0,1,1,2.64-2.65A2.65,2.65,0,0,1,162.27,325Z"/><path class="cls-2" d="M169.41,333.71a1.87,1.87,0,1,1,1.87-1.87A1.87,1.87,0,0,1,169.41,333.71Z"/><path class="cls-2" d="M158,279.68a3.08,3.08,0,1,1,3.07-3.07A3.08,3.08,0,0,1,158,279.68Z"/><path class="cls-1" d="M45.88,259.86l-23.43-5.93h0a4.57,4.57,0,0,1,1.07-9H45.88"/><path class="cls-1" d="M187.52,259.86,211,253.93h0a4.57,4.57,0,0,0-1.07-9H187.52"/><text class="cls-3" transform="translate(17.95 14.86)">mosto<tspan x="-2.86" y="19.69">filt</tspan><tspan class="cls-4" x="18.78" y="19.69">r</tspan><tspan x="24.63" y="19.69">ato</tspan></text><text class="cls-3" transform="translate(173.04 24.7)">luppolo</text><path class="cls-5" d="M42.5,118.63c0,13.19,51.21,38.22,53.54,92"/><polygon class="cls-6" points="80.6 200.16 82.98 197.57 95.72 209.33 106.52 195.76 109.27 197.96 96.12 214.48 80.6 200.16"/><path class="cls-5" d="M190.85,118.63c0,13.19-51.21,38.22-53.54,92"/><polygon class="cls-6" points="124.08 197.96 126.83 195.76 137.62 209.33 150.36 197.57 152.75 200.16 137.22 214.47 124.08 197.96"/><polyline class="cls-1" points="77.53 384.23 85.81 374.53 147.6 374.53 155.88 384.23"/><line class="cls-1" x1="155.88" y1="384.23" x2="77.53" y2="384.23"/><polyline class="cls-1" points="83.8 376.87 63.14 352.57 106.59 352.57 104.27 356.25 79.84 359.08 85.81 374.53"/><polyline class="cls-1" points="155.88 384.23 155.88 390.39 77.53 390.39 77.53 384.23"/><polyline class="cls-1" points="149.6 376.87 170.26 352.57 126.81 352.57 129.14 356.25 153.56 359.08 147.6 374.53"/><path class="cls-1" d="M132.93,369s3.92-.21,5.89-7.29c2.75,9.27-1.58,12.84-1.58,12.84"/><path class="cls-1" d="M124.34,369.51c1.15-5.47-4.83-12.37-4.83-12.37s1.06,10.39-1.56,13"/><path class="cls-1" d="M132.43,372.18c.5-6.33-3.08-13.06-3.08-13.06-.89,7.71-7.74,13.06-7.74,13.06"/><path class="cls-1" d="M102.4,369s-3.93-.21-5.9-7.29c-2.74,9.27,1.58,12.84,1.58,12.84"/><path class="cls-1" d="M111,369.51a10,10,0,0,1,3.48-7.43s.86,5.45,3.48,8.08"/><path class="cls-1" d="M102.9,372.18c-.5-6.33,3.08-13.06,3.08-13.06.89,7.71,7.74,13.06,7.74,13.06"/><line class="cls-1" x1="45.88" y1="390.39" x2="187.52" y2="390.39"/><path class="cls-7" d="M169.36,106.49c5.44-17.27,14.55-27.28,14.55-27.28,2.47,1.74,4.93,3.22,12,3.77,7.6.6,11.77-3.59,11.77-3.59a41,41,0,0,0-5.85-4.23s.95.58,4.61-.61a20.15,20.15,0,0,0,9.18-6.78,17.13,17.13,0,0,0-9-2.52,8.93,8.93,0,0,0,2.17-.13,8,8,0,0,0,1.8-.69c4.53-2.39,5-6.05,5-6.05a10.69,10.69,0,0,0-5.2-2.39h0s1.05.12,2.56-1.45a7.44,7.44,0,0,0,2-3.95,6.69,6.69,0,0,0-4.28-1c-2.29.28-3,1.38-3,1.38a13.68,13.68,0,0,0,.15-6.92,13.07,13.07,0,0,0-5.6,1.65,4.4,4.4,0,0,0,.37-3.41,6.78,6.78,0,0,0-2.34-3.8,7.46,7.46,0,0,0-3.19,3.21c-1,1.95-.55,3-.55,3a10.8,10.8,0,0,0-4-4.32s-3.42,1.6-4.29,6.72a8.16,8.16,0,0,0-.09,2,14.46,14.46,0,0,0,.53,3.63h0c-.54-3.63,1.09,1.66-5-6.81,0,0-4.16,4.28-3.7,10,.33,4.09,1.46,4.91,1.46,4.91a39.16,39.16,0,0,0-6.82-5s-2.71,5.22.25,12.15c2.34,5.46,4.6,7.85,6.77,9.56a80.55,80.55,0,0,0-14.92,27.72"/><path class="cls-1" d="M201.83,75.16s.95.58,4.61-.61a14.16,14.16,0,0,0,8-6.78s-5.68-2.69-9.07-2.59-7.74,3.21-7.74,3.21,3.42-4.3,1.43-11.58c-7.63.42-10.69,5-10.69,5s1.62-5,.65-8.25-5.34-7.69-5.34-7.69-4.16,4.28-3.7,10c.33,4.09,1.46,4.91,1.46,4.91"/><path class="cls-1" d="M186.51,74s3.29-1.62,9.12-1.12c5.21.44,12.05,6.56,12.05,6.56s-4.17,4.19-11.77,3.59-9.87-2.26-12.55-4.16-5.53-3.9-8.49-10.83-.25-12.15-.25-12.15,8,4.48,10.11,9.22C187.05,70.36,186.51,74,186.51,74Z"/><path class="cls-1" d="M196.58,44.68s-.5-1,.55-3a7.46,7.46,0,0,1,3.19-3.21,6.78,6.78,0,0,1,2.34,3.8,4.4,4.4,0,0,1-.37,3.41"/><path class="cls-1" d="M206.63,65.25a9.28,9.28,0,0,0,2.21-.13,8,8,0,0,0,1.8-.69c4.53-2.39,5-6.05,5-6.05a10.33,10.33,0,0,0-6.17-2.45,17.54,17.54,0,0,0-4.1.74s4.17-6.55,2.53-12.61c-6.44.36-10.37,5.63-10.37,5.63a17.61,17.61,0,0,0-.6-4.18,10.46,10.46,0,0,0-4.38-5.15s-3.42,1.6-4.29,6.72a8.16,8.16,0,0,0-.09,2,14.46,14.46,0,0,0,.53,3.63"/><path class="cls-1" d="M210.42,56s1.05.12,2.56-1.45a7.44,7.44,0,0,0,2-3.95,6.69,6.69,0,0,0-4.28-1c-2.29.28-3,1.38-3,1.38"/><path class="cls-1" d="M180.71,78.09c.08-.18-9,9.91-14.45,27.18"/><path class="cls-1" d="M184.69,79.87c.08-.18-9,9.91-14.45,27.18"/><path class="cls-7" d="M57.7,85.59a15.2,15.2,0,0,1-30.4,0C27.3,72.84,42.5,53,42.5,44.2,42.5,53,57.7,72.84,57.7,85.59Z"/><path class="cls-1" d="M51,83.11a8.91,8.91,0,0,1-3.77,9.28"/><path class="cls-1" d="M57.7,85.59a15.2,15.2,0,0,1-30.4,0C27.3,72.84,42.5,53,42.5,44.2,42.5,53,57.7,72.84,57.7,85.59Z"/></g></g></svg>