<svg xmlns="http://www.w3.org/2000/svg" xmlns:xlink="http://www.w3.org/1999/xlink" viewBox="0 0 237.7 324.36"><defs><style>.cls-1,.cls-4,.cls-5,.cls-8{fill:none;}.cls-11,.cls-2,.cls-6{fill:#17306d;}.cls-3,.cls-4,.cls-5,.cls-8{stroke:#17306d;stroke-linecap:round;stroke-linejoin:round;}.cls-3,.cls-4,.cls-8{stroke-width:2.34px;}.cls-12,.cls-3{fill:url(#USGS_22_Gravel_Beach_4);}.cls-5{stroke-width:1.17px;}.cls-6{font-size:16.41px;font-family:FilsonPro-Regular, Filson Pro;}.cls-7{letter-spacing:-0.01em;}.cls-8{stroke-dasharray:0.57 5.74;}.cls-9{letter-spacing:-0.01em;}.cls-10{letter-spacing:-0.01em;}.cls-11{opacity:0.5;}</style><pattern id="USGS_22_Gravel_Beach_4" data-name="USGS 22 Gravel Beach 4" width="72" height="72" patternTransform="translate(-180 7.55) scale(0.99)" patternUnits="userSpaceOnUse" viewBox="0 0 72 72"><rect class="cls-1" width="72" height="72"/><path class="cls-2" d="M72.25,58a.35.35,0,0,1-.25-.6.38.38,0,0,1,.5,0,.35.35,0,0,1-.25.6Z"/><path class="cls-2" d="M20.75,3.22a.39.39,0,0,1-.25-.1.36.36,0,0,1,0-.5.36.36,0,0,1,.6.25.39.39,0,0,1-.1.25A.39.39,0,0,1,20.75,3.22Z"/><path class="cls-2" d="M19.75,8.47a.34.34,0,0,1-.35-.35.33.33,0,0,1,.11-.25.37.37,0,0,1,.49,0,.36.36,0,0,1,.1.25.39.39,0,0,1-.1.25A.37.37,0,0,1,19.75,8.47Z"/><path class="cls-2" d="M20,10.72a.35.35,0,0,1-.25-.6.37.37,0,0,1,.5,0,.35.35,0,0,1-.25.6Z"/><path class="cls-2" d="M15,10.72a.34.34,0,0,1-.35-.35.37.37,0,0,1,.1-.25.38.38,0,0,1,.5,0,.35.35,0,0,1-.25.6Z"/><path class="cls-2" d="M22.5,20.22a.35.35,0,0,1-.25-.6.36.36,0,0,1,.6.25.34.34,0,0,1-.35.35Z"/><path class="cls-2" d="M15,23.22a.34.34,0,0,1-.35-.35.33.33,0,0,1,.11-.25.37.37,0,0,1,.49,0,.36.36,0,0,1,.1.25.34.34,0,0,1-.35.35Z"/><path class="cls-2" d="M13.75,24.22a.35.35,0,0,1-.25-.6.36.36,0,0,1,.6.25.39.39,0,0,1-.1.25A.37.37,0,0,1,13.75,24.22Z"/><path class="cls-2" d="M23.75,27.22a.34.34,0,0,1-.35-.35.33.33,0,0,1,.11-.25.37.37,0,0,1,.49,0,.39.39,0,0,1,.1.25.35.35,0,0,1-.1.24A.36.36,0,0,1,23.75,27.22Z"/><path class="cls-2" d="M30.5,26a.35.35,0,0,1-.25-.6.36.36,0,0,1,.6.25.34.34,0,0,1-.35.35Z"/><path class="cls-2" d="M31,23.47a.34.34,0,0,1-.35-.35.33.33,0,0,1,.11-.25.35.35,0,0,1,.59.25.39.39,0,0,1-.1.25A.37.37,0,0,1,31,23.47Z"/><path class="cls-2" d="M29,18.47a.35.35,0,0,1-.25-.6.36.36,0,0,1,.6.25.34.34,0,0,1-.35.35Z"/><path class="cls-2" d="M33.75,20a.35.35,0,0,1-.25-.6.36.36,0,0,1,.6.25.34.34,0,0,1-.35.35Z"/><path class="cls-2" d="M31.25,15a.35.35,0,0,1-.25-.6.36.36,0,0,1,.6.25.34.34,0,0,1-.35.35Z"/><path class="cls-2" d="M31.5,12a.35.35,0,0,1-.25-.6.37.37,0,0,1,.5,0,.35.35,0,0,1-.25.6Z"/><path class="cls-2" d="M32,7.22a.35.35,0,0,1-.25-.6.36.36,0,0,1,.6.25.34.34,0,0,1-.35.35Z"/><path class="cls-2" d="M31.75,3.22a.39.39,0,0,1-.25-.1.39.39,0,0,1-.1-.25.33.33,0,0,1,.11-.25.35.35,0,0,1,.59.25.39.39,0,0,1-.1.25A.39.39,0,0,1,31.75,3.22Z"/><path class="cls-2" d="M33.75,1.47a.36.36,0,0,1-.25-.11.33.33,0,0,1-.1-.24.33.33,0,0,1,.11-.25.36.36,0,0,1,.49,0,.36.36,0,0,1,.1.25.34.34,0,0,1-.11.25A.35.35,0,0,1,33.75,1.47Z"/><path class="cls-2" d="M41.25,7.22a.39.39,0,0,1-.25-.1.35.35,0,0,1-.1-.25.39.39,0,0,1,.1-.25.35.35,0,0,1,.49,0,.36.36,0,0,1,.11.25.34.34,0,0,1-.35.35Z"/><path class="cls-2" d="M45.25,7a.39.39,0,0,1-.25-.1.36.36,0,0,1,0-.5.36.36,0,0,1,.6.25.34.34,0,0,1-.35.35Z"/><path class="cls-2" d="M42.25,13.72a.34.34,0,0,1-.35-.35.33.33,0,0,1,.11-.25.35.35,0,0,1,.59.25.34.34,0,0,1-.35.35Z"/><path class="cls-2" d="M46.75,14.47a.34.34,0,0,1-.35-.35.33.33,0,0,1,.11-.25.36.36,0,0,1,.49,0,.39.39,0,0,1,.1.25.33.33,0,0,1-.1.24A.36.36,0,0,1,46.75,14.47Z"/><path class="cls-2" d="M46.75,16.47a.34.34,0,0,1-.35-.35.33.33,0,0,1,.11-.25.36.36,0,0,1,.49,0,.39.39,0,0,1,.1.25.37.37,0,0,1-.1.24A.36.36,0,0,1,46.75,16.47Z"/><path class="cls-2" d="M38.75,21a.35.35,0,0,1-.25-.6.36.36,0,0,1,.49,0,.34.34,0,0,1,.11.25.34.34,0,0,1-.35.35Z"/><path class="cls-2" d="M50,13.72a.39.39,0,0,1-.25-.1.36.36,0,0,1,0-.5.37.37,0,0,1,.5,0,.35.35,0,0,1-.25.6Z"/><path class="cls-2" d="M52,12.22a.36.36,0,0,1-.25-.11.35.35,0,0,1-.1-.24.33.33,0,0,1,.11-.25.37.37,0,0,1,.49,0,.36.36,0,0,1,.1.25.34.34,0,0,1-.35.35Z"/><path class="cls-2" d="M54.5,11.22a.36.36,0,0,1-.25-.11.35.35,0,0,1-.1-.24.33.33,0,0,1,.11-.25.35.35,0,0,1,.59.25.34.34,0,0,1-.35.35Z"/><path class="cls-2" d="M56.25,1A.39.39,0,0,1,56,.87a.39.39,0,0,1-.1-.25A.39.39,0,0,1,56,.37a.36.36,0,0,1,.5,0,.35.35,0,0,1,.1.24.39.39,0,0,1-.1.25A.39.39,0,0,1,56.25,1Z"/><path class="cls-2" d="M67.75,3.22a.39.39,0,0,1-.25-.1.39.39,0,0,1-.1-.25.33.33,0,0,1,.11-.25.37.37,0,0,1,.49,0,.36.36,0,0,1,.1.25.39.39,0,0,1-.1.25A.37.37,0,0,1,67.75,3.22Z"/><path class="cls-2" d="M67.75,10.47a.36.36,0,0,1-.25-.11.35.35,0,0,1-.1-.24.39.39,0,0,1,.1-.25.37.37,0,0,1,.5,0,.39.39,0,0,1,.1.25.34.34,0,0,1-.11.25A.35.35,0,0,1,67.75,10.47Z"/><path class="cls-2" d="M64,12.47a.35.35,0,0,1-.25-.6.36.36,0,0,1,.6.25.34.34,0,0,1-.35.35Z"/><path class="cls-2" d="M65,16a.34.34,0,0,1-.35-.35.37.37,0,0,1,.1-.25.38.38,0,0,1,.5,0A.35.35,0,0,1,65,16Z"/><path class="cls-2" d="M63.75,20a.36.36,0,0,1-.25-.11.35.35,0,0,1-.1-.24.39.39,0,0,1,.1-.25.37.37,0,0,1,.5,0,.39.39,0,0,1,.1.25.34.34,0,0,1-.11.25A.35.35,0,0,1,63.75,20Z"/><path class="cls-2" d="M66,20a.34.34,0,0,1-.35-.35.33.33,0,0,1,.11-.25.37.37,0,0,1,.49,0,.36.36,0,0,1,.1.25A.34.34,0,0,1,66,20Z"/><path class="cls-2" d="M67.75,21.47a.35.35,0,0,1-.25-.6.37.37,0,0,1,.5,0,.35.35,0,0,1-.25.6Z"/><path class="cls-2" d="M6.75,52.47a.35.35,0,0,1-.25-.6.38.38,0,0,1,.5,0,.35.35,0,0,1-.25.6Z"/><path class="cls-2" d="M7,54.72a.35.35,0,0,1-.25-.6.37.37,0,0,1,.5,0,.35.35,0,0,1-.25.6Z"/><path class="cls-2" d="M2,54.72a.39.39,0,0,1-.25-.1.36.36,0,0,1,0-.5.38.38,0,0,1,.5,0,.36.36,0,0,1,0,.5A.39.39,0,0,1,2,54.72Z"/><path class="cls-2" d="M9.5,64.22a.35.35,0,0,1-.25-.6.36.36,0,0,1,.6.25.34.34,0,0,1-.35.35Z"/><path class="cls-2" d="M.75,68.22a.39.39,0,0,1-.25-.1.36.36,0,0,1,0-.5.38.38,0,0,1,.5,0,.36.36,0,0,1,0,.5A.39.39,0,0,1,.75,68.22Z"/><path class="cls-2" d="M10.75,71.22a.35.35,0,0,1-.25-.6.38.38,0,0,1,.5,0,.35.35,0,0,1-.25.6Z"/><path class="cls-2" d="M18,67.47a.34.34,0,0,1-.35-.35.37.37,0,0,1,.1-.25.37.37,0,0,1,.49,0,.36.36,0,0,1,.11.25.34.34,0,0,1-.35.35Z"/><path class="cls-2" d="M16,62.47a.35.35,0,0,1-.25-.6.37.37,0,0,1,.5,0,.35.35,0,0,1-.25.6Z"/><path class="cls-2" d="M19.25,58a.34.34,0,0,1-.35-.35.33.33,0,0,1,.11-.25.37.37,0,0,1,.49,0,.36.36,0,0,1,.1.25.34.34,0,0,1-.35.35Z"/><path class="cls-2" d="M18.5,56a.34.34,0,0,1-.35-.35.33.33,0,0,1,.11-.25.37.37,0,0,1,.49,0,.36.36,0,0,1,.1.25.34.34,0,0,1-.35.35Z"/><path class="cls-2" d="M16,55a.34.34,0,0,1-.35-.35.33.33,0,0,1,.11-.25.37.37,0,0,1,.49,0,.36.36,0,0,1,.1.25A.34.34,0,0,1,16,55Z"/><path class="cls-2" d="M19,51.22a.34.34,0,0,1-.35-.35.33.33,0,0,1,.11-.25.37.37,0,0,1,.49,0,.36.36,0,0,1,.1.25.34.34,0,0,1-.35.35Z"/><path class="cls-2" d="M18.75,47.22a.35.35,0,0,1-.25-.6.38.38,0,0,1,.5,0,.35.35,0,0,1-.25.6Z"/><path class="cls-2" d="M16,47.47a.35.35,0,0,1-.25-.6.37.37,0,0,1,.5,0,.35.35,0,0,1-.25.6Z"/><path class="cls-2" d="M32.25,51a.34.34,0,0,1-.35-.35.33.33,0,0,1,.11-.25.35.35,0,0,1,.59.25.34.34,0,0,1-.35.35Z"/><path class="cls-2" d="M27,54.47a.35.35,0,0,1-.25-.6.37.37,0,0,1,.5,0,.35.35,0,0,1-.25.6Z"/><path class="cls-2" d="M31.75,56a.35.35,0,0,1-.25-.6.37.37,0,0,1,.5,0,.35.35,0,0,1-.25.6Z"/><path class="cls-2" d="M31.75,57.72a.35.35,0,0,1-.24-.1.35.35,0,0,1,0-.5.37.37,0,0,1,.5,0,.36.36,0,0,1,.1.25.34.34,0,0,1-.35.35Z"/><path class="cls-2" d="M33.75,58.47a.35.35,0,0,1-.25-.6.37.37,0,0,1,.5,0,.35.35,0,0,1-.25.6Z"/><path class="cls-2" d="M25.75,65a.35.35,0,0,1-.25-.6.36.36,0,0,1,.6.25.34.34,0,0,1-.35.35Z"/><path class="cls-2" d="M35.75,56.47a.35.35,0,0,1-.25-.6.36.36,0,0,1,.6.25.34.34,0,0,1-.35.35Z"/><path class="cls-2" d="M39,56.22a.35.35,0,0,1-.24-.1.36.36,0,0,1-.11-.25.39.39,0,0,1,.1-.25.37.37,0,0,1,.5,0,.35.35,0,0,1-.25.6Z"/><path class="cls-2" d="M41.5,51a.35.35,0,0,1-.25-.6.37.37,0,0,1,.5,0,.35.35,0,0,1-.25.6Z"/><path class="cls-2" d="M43.25,45a.36.36,0,0,1-.25-.11.35.35,0,0,1-.1-.24.39.39,0,0,1,.1-.25.37.37,0,0,1,.5,0,.35.35,0,0,1-.25.6Z"/><path class="cls-2" d="M50.75,50.72a.39.39,0,0,1-.25-.1.36.36,0,0,1-.1-.25.39.39,0,0,1,.1-.25.36.36,0,0,1,.5,0,.35.35,0,0,1-.25.6Z"/><path class="cls-2" d="M51.75,46.72a.36.36,0,0,1-.25-.11.35.35,0,0,1-.1-.24.33.33,0,0,1,.11-.25.37.37,0,0,1,.49,0,.36.36,0,0,1,.1.25.34.34,0,0,1-.35.35Z"/><path class="cls-2" d="M54.75,47.22a.33.33,0,0,1-.25-.11.35.35,0,0,1-.1-.24.37.37,0,0,1,.1-.25.36.36,0,0,1,.49,0,.34.34,0,0,1,.11.25.34.34,0,0,1-.35.35Z"/><path class="cls-2" d="M54.75,54.47a.33.33,0,0,1-.25-.11.35.35,0,0,1-.1-.24.33.33,0,0,1,.11-.25.37.37,0,0,1,.49,0,.36.36,0,0,1,.1.25.34.34,0,0,1-.35.35Z"/><path class="cls-2" d="M51,56.47a.35.35,0,0,1-.25-.6.37.37,0,0,1,.5,0,.35.35,0,0,1,.1.25.39.39,0,0,1-.1.25A.37.37,0,0,1,51,56.47Z"/><path class="cls-2" d="M50.75,64a.34.34,0,0,1-.35-.35.31.31,0,0,1,.1-.24.34.34,0,0,1,.49,0,.36.36,0,0,1,.11.25.39.39,0,0,1-.1.25A.37.37,0,0,1,50.75,64Z"/><path class="cls-2" d="M53,64a.34.34,0,0,1-.35-.35.33.33,0,0,1,.11-.25.36.36,0,0,1,.49,0,.31.31,0,0,1,.1.24A.34.34,0,0,1,53,64Z"/><path class="cls-2" d="M55.75,63.22a.35.35,0,0,1-.25-.6.36.36,0,0,1,.6.25.34.34,0,0,1-.35.35Z"/><path class="cls-2" d="M58,61.72a.36.36,0,0,1-.25-.11.35.35,0,0,1-.1-.24.39.39,0,0,1,.1-.25.37.37,0,0,1,.5,0,.37.37,0,0,1,.1.25.34.34,0,0,1-.35.35Z"/><path class="cls-2" d="M20.75,27.22a.35.35,0,0,1-.25-.6.36.36,0,0,1,.6.25.34.34,0,0,1-.35.35Z"/><path class="cls-2" d="M22.5,24.22a.35.35,0,0,1-.25-.6.37.37,0,0,1,.5,0,.35.35,0,0,1-.25.6Z"/><path class="cls-2" d="M38.75,25a.35.35,0,0,1-.25-.6.37.37,0,0,1,.5,0,.35.35,0,0,1-.25.6Z"/><path class="cls-2" d="M46,29.22a.39.39,0,0,1-.25-.1.35.35,0,0,1,0-.49.34.34,0,0,1,.49,0,.36.36,0,0,1,.11.25.34.34,0,0,1-.35.35Z"/><path class="cls-2" d="M55,28.22a.35.35,0,0,1-.25-.6.37.37,0,0,1,.5,0,.35.35,0,0,1-.25.6Z"/><path class="cls-2" d="M51,25.47a.35.35,0,0,1-.25-.6.37.37,0,0,1,.5,0,.35.35,0,0,1,.1.25.34.34,0,0,1-.35.35Z"/><path class="cls-2" d="M51.75,29.72a.37.37,0,0,1-.25-.1.36.36,0,0,1,0-.5.36.36,0,0,1,.6.25.34.34,0,0,1-.35.35Z"/><path class="cls-2" d="M62.25,35.72a.34.34,0,0,1-.35-.35.33.33,0,0,1,.11-.25.36.36,0,0,1,.49,0,.31.31,0,0,1,.1.24.34.34,0,0,1-.35.35Z"/><path class="cls-2" d="M56.5,39.22a.35.35,0,0,1-.25-.6.36.36,0,0,1,.6.25.34.34,0,0,1-.35.35Z"/><path class="cls-2" d="M48,37.47a.35.35,0,0,1-.24-.1.36.36,0,0,1-.11-.25.39.39,0,0,1,.1-.25.36.36,0,0,1,.5,0,.33.33,0,0,1,.1.24.34.34,0,0,1-.35.35Z"/><path class="cls-2" d="M47.75,41.47a.33.33,0,0,1-.25-.11.35.35,0,0,1-.1-.24.39.39,0,0,1,.1-.25.38.38,0,0,1,.5,0,.35.35,0,0,1-.25.6Z"/><path class="cls-2" d="M53.25,45.22a.34.34,0,0,1-.25-.11.31.31,0,0,1-.1-.24.34.34,0,0,1,.11-.25.37.37,0,0,1,.49,0,.35.35,0,0,1-.25.6Z"/><path class="cls-2" d="M62,48.22a.34.34,0,0,1-.35-.35.33.33,0,0,1,.11-.25.36.36,0,0,1,.49,0,.31.31,0,0,1,.1.24.34.34,0,0,1-.35.35Z"/><path class="cls-2" d="M64.75,52a.34.34,0,0,1-.35-.35.33.33,0,0,1,.11-.25.37.37,0,0,1,.49,0,.36.36,0,0,1,.1.25.34.34,0,0,1-.35.35Z"/><path class="cls-2" d="M69.25,45.22a.35.35,0,0,1-.25-.6.37.37,0,0,1,.5,0,.35.35,0,0,1-.25.6Z"/><path class="cls-2" d="M59.75,39.22a.33.33,0,0,1-.25-.11.35.35,0,0,1-.1-.24.34.34,0,0,1,.11-.25.36.36,0,0,1,.49,0,.36.36,0,0,1,0,.5A.37.37,0,0,1,59.75,39.22Z"/><path class="cls-2" d="M32.25,47.22a.35.35,0,0,1-.25-.6.36.36,0,0,1,.6.25.34.34,0,0,1-.35.35Z"/><path class="cls-2" d="M26,38a.35.35,0,0,1-.25-.6.36.36,0,0,1,.6.25A.34.34,0,0,1,26,38Z"/><path class="cls-2" d="M29.5,35.72a.35.35,0,0,1-.24-.1.36.36,0,0,1-.11-.25.33.33,0,0,1,.11-.25.37.37,0,0,1,.49,0,.36.36,0,0,1,.1.25.34.34,0,0,1-.35.35Z"/><path class="cls-2" d="M10.25,29.72a.35.35,0,0,1-.25-.6.37.37,0,0,1,.49,0,.33.33,0,0,1,.11.25.34.34,0,0,1-.35.35Z"/><path class="cls-2" d="M5.75,31.72a.35.35,0,0,1-.25-.6.36.36,0,0,1,.49,0,.33.33,0,0,1,.11.25.37.37,0,0,1-.1.25A.39.39,0,0,1,5.75,31.72Z"/><path class="cls-2" d="M2.25,35.47a.39.39,0,0,1-.25-.1.36.36,0,0,1,0-.5.37.37,0,0,1,.5,0,.35.35,0,0,1,.1.25.33.33,0,0,1-.1.24A.36.36,0,0,1,2.25,35.47Z"/><path class="cls-2" d="M16.75,42.22a.34.34,0,0,1-.35-.35.33.33,0,0,1,.11-.25.35.35,0,0,1,.59.25.39.39,0,0,1-.1.25A.37.37,0,0,1,16.75,42.22Z"/><path class="cls-2" d="M12.5,36.22a.34.34,0,0,1-.35-.35.33.33,0,0,1,.11-.25.37.37,0,0,1,.49,0,.36.36,0,0,1,.1.25.39.39,0,0,1-.1.25A.37.37,0,0,1,12.5,36.22Z"/><path class="cls-2" d="M26.25,30.47a.35.35,0,0,1-.25-.6.37.37,0,0,1,.5,0,.35.35,0,0,1-.25.6Z"/><path class="cls-2" d="M39,31a.35.35,0,0,1-.25-.6.37.37,0,0,1,.5,0,.36.36,0,0,1,0,.5A.37.37,0,0,1,39,31Z"/><path class="cls-2" d="M38,33a.35.35,0,0,1-.25-.6.37.37,0,0,1,.5,0A.35.35,0,0,1,38,33Z"/><path class="cls-2" d="M27.75,42.22a.35.35,0,0,1-.25-.6.37.37,0,0,1,.5,0,.35.35,0,0,1-.25.6Z"/><path class="cls-2" d="M6.25,20.72a.35.35,0,0,1-.25-.6.37.37,0,0,1,.5,0,.35.35,0,0,1-.25.6Z"/><path class="cls-2" d="M9.5,19a.35.35,0,0,1-.25-.6.36.36,0,0,1,.6.25A.34.34,0,0,1,9.5,19Z"/><path class="cls-2" d="M11.5,23.72a.34.34,0,0,1-.35-.35.33.33,0,0,1,.11-.25.37.37,0,0,1,.49,0,.36.36,0,0,1,.1.25.39.39,0,0,1-.1.25A.37.37,0,0,1,11.5,23.72Z"/><path class="cls-2" d="M2.75,26a.39.39,0,0,1-.25-.1.36.36,0,0,1,0-.5.38.38,0,0,1,.5,0,.36.36,0,0,1,0,.5A.39.39,0,0,1,2.75,26Z"/><path class="cls-2" d="M64,29.72a.35.35,0,0,1-.24-.1.36.36,0,0,1-.11-.25.39.39,0,0,1,.1-.25.36.36,0,0,1,.6.25.34.34,0,0,1-.35.35Z"/><path class="cls-2" d="M69.25,30a.34.34,0,0,1-.35-.35.34.34,0,0,1,.11-.25.37.37,0,0,1,.49,0,.36.36,0,0,1,.1.25.39.39,0,0,1-.1.25A.37.37,0,0,1,69.25,30Z"/><path class="cls-2" d="M1.25,9.22A.39.39,0,0,1,1,9.12a.36.36,0,0,1,0-.5.38.38,0,0,1,.5,0,.36.36,0,0,1,0,.5A.39.39,0,0,1,1.25,9.22Z"/><path class="cls-2" d="M16.25,6.22a.34.34,0,0,1-.35-.35.37.37,0,0,1,.1-.25.38.38,0,0,1,.5,0,.35.35,0,0,1-.25.6Z"/><path class="cls-2" d="M3.5,6.22a.35.35,0,0,1-.25-.6.36.36,0,0,1,.6.25.34.34,0,0,1-.35.35Z"/><path class="cls-2" d="M12.5,14.47a.35.35,0,0,1-.25-.6.36.36,0,0,1,.6.25.34.34,0,0,1-.35.35Z"/><path class="cls-2" d="M18.25,19.47a.34.34,0,0,1-.35-.35.37.37,0,0,1,.1-.25.36.36,0,0,1,.6.25.34.34,0,0,1-.35.35Z"/><path class="cls-2" d="M21,37.22a.34.34,0,0,1-.35-.35.37.37,0,0,1,.1-.25.37.37,0,0,1,.49,0,.36.36,0,0,1,.11.25.34.34,0,0,1-.35.35Z"/><path class="cls-2" d="M.5,44.47a.39.39,0,0,1-.25-.1.39.39,0,0,1-.1-.25.33.33,0,0,1,.11-.25.37.37,0,0,1,.49,0,.36.36,0,0,1,.1.25.39.39,0,0,1-.1.25A.39.39,0,0,1,.5,44.47Z"/><path class="cls-2" d="M67.75,66.22a.34.34,0,0,1-.35-.35.33.33,0,0,1,.11-.25.37.37,0,0,1,.49,0,.36.36,0,0,1,.1.25.34.34,0,0,1-.35.35Z"/><path class="cls-2" d="M59.5,70a.39.39,0,0,1-.25-.1.35.35,0,0,1-.1-.25.39.39,0,0,1,.1-.25.37.37,0,0,1,.5,0,.36.36,0,0,1,.1.25.37.37,0,0,1-.1.25A.39.39,0,0,1,59.5,70Z"/><path class="cls-2" d="M40.25,68.22a.35.35,0,0,1-.25-.6.37.37,0,0,1,.5,0,.36.36,0,0,1,0,.5A.37.37,0,0,1,40.25,68.22Z"/><path class="cls-2" d="M4.25,60.22a.35.35,0,0,1-.25-.6.36.36,0,0,1,.6.25.34.34,0,0,1-.35.35Z"/><path class="cls-2" d="M26.25,59.72a.35.35,0,0,1-.25-.6.36.36,0,0,1,.6.25.34.34,0,0,1-.35.35Z"/><path class="cls-2" d="M37,48.72a.34.34,0,0,1-.35-.35.37.37,0,0,1,.1-.25.37.37,0,0,1,.5,0,.36.36,0,0,1,0,.5A.37.37,0,0,1,37,48.72Z"/><path class="cls-2" d="M8.5,40.47a.35.35,0,0,1-.25-.6.36.36,0,0,1,.6.25.34.34,0,0,1-.35.35Z"/><path class="cls-2" d="M52,38.22a.36.36,0,0,1-.25-.11.35.35,0,0,1-.1-.24.33.33,0,0,1,.11-.25.37.37,0,0,1,.49,0,.36.36,0,0,1,.1.25.34.34,0,0,1-.35.35Z"/><path class="cls-2" d="M60.5,46.22a.34.34,0,0,1-.35-.35.33.33,0,0,1,.11-.25.37.37,0,0,1,.49,0,.36.36,0,0,1,.1.25.34.34,0,0,1-.35.35Z"/><path class="cls-2" d="M51,66.47a.35.35,0,0,1-.25-.6.37.37,0,0,1,.5,0,.39.39,0,0,1,.1.25.35.35,0,0,1-.1.25A.39.39,0,0,1,51,66.47Z"/><path class="cls-2" d="M39.75,38a.35.35,0,0,1-.25-.6.36.36,0,0,1,.6.25.34.34,0,0,1-.35.35Z"/><path class="cls-2" d="M27.25,13.72a.35.35,0,0,1-.25-.6.36.36,0,0,1,.6.25.34.34,0,0,1-.35.35Z"/><path class="cls-2" d="M19.5,26.72a.34.34,0,0,1-.35-.35.37.37,0,0,1,.1-.25.37.37,0,0,1,.49,0,.36.36,0,0,1,.11.25.34.34,0,0,1-.35.35Z"/><path class="cls-2" d="M11.5,2a.39.39,0,0,1-.25-.1.39.39,0,0,1-.1-.25.39.39,0,0,1,.1-.25.38.38,0,0,1,.5,0,.39.39,0,0,1,.1.25.39.39,0,0,1-.1.25A.39.39,0,0,1,11.5,2Z"/><path class="cls-2" d="M55,4a.34.34,0,0,1-.35-.35.33.33,0,0,1,.11-.25.37.37,0,0,1,.49,0,.36.36,0,0,1,.1.25A.34.34,0,0,1,55,4Z"/><path class="cls-2" d="M47,70a.39.39,0,0,1-.25-.1.37.37,0,0,1-.1-.25.39.39,0,0,1,.1-.25.36.36,0,0,1,.6.25A.34.34,0,0,1,47,70Z"/><path class="cls-2" d="M4.5,40.47a.34.34,0,0,1-.35-.35.33.33,0,0,1,.11-.25.37.37,0,0,1,.49,0,.36.36,0,0,1,.1.25.34.34,0,0,1-.35.35Z"/><path class="cls-2" d="M68.5,13.47a.35.35,0,0,1-.25-.6.37.37,0,0,1,.5,0,.36.36,0,0,1,0,.5A.39.39,0,0,1,68.5,13.47Z"/><path class="cls-2" d="M23,14.22a.35.35,0,0,1-.25-.6.36.36,0,0,1,.6.25.34.34,0,0,1-.35.35Z"/><path class="cls-2" d="M20.25,17.47a.35.35,0,0,1-.25-.6.37.37,0,0,1,.5,0,.35.35,0,0,1-.25.6Z"/><path class="cls-2" d="M14.5,17.47a.34.34,0,0,1-.35-.35.33.33,0,0,1,.11-.25.37.37,0,0,1,.49,0,.36.36,0,0,1,.1.25.34.34,0,0,1-.35.35Z"/><path class="cls-2" d="M5.75,12a.35.35,0,0,1-.25-.6.36.36,0,0,1,.49,0,.33.33,0,0,1,.11.25.34.34,0,0,1-.35.35Z"/><path class="cls-2" d="M6.75,3a.37.37,0,0,1-.24-.1.36.36,0,0,1-.11-.25.39.39,0,0,1,.1-.25.36.36,0,0,1,.6.25.39.39,0,0,1-.1.25A.39.39,0,0,1,6.75,3Z"/><path class="cls-2" d="M9.75,8.47a.35.35,0,0,1-.25-.6.36.36,0,0,1,.6.25.34.34,0,0,1-.35.35Z"/><path class="cls-2" d="M14,8.47a.34.34,0,0,1-.35-.35.33.33,0,0,1,.11-.25.37.37,0,0,1,.49,0,.36.36,0,0,1,.1.25.34.34,0,0,1-.35.35Z"/><path class="cls-2" d="M25.5,7.22a.35.35,0,0,1-.25-.6.36.36,0,0,1,.6.25.34.34,0,0,1-.35.35Z"/><path class="cls-2" d="M36.75,7.72a.35.35,0,0,1-.25-.6.37.37,0,0,1,.5,0,.35.35,0,0,1-.25.6Z"/><path class="cls-2" d="M37.25,4.47a.34.34,0,0,1-.35-.35A.33.33,0,0,1,37,3.87a.35.35,0,0,1,.59.25.34.34,0,0,1-.35.35Z"/><path class="cls-2" d="M43,2.47a.39.39,0,0,1-.25-.1.39.39,0,0,1-.1-.25.39.39,0,0,1,.1-.25.37.37,0,0,1,.5,0,.39.39,0,0,1,.1.25.39.39,0,0,1-.1.25A.42.42,0,0,1,43,2.47Z"/><path class="cls-2" d="M49.25,8.47a.39.39,0,0,1-.25-.1.36.36,0,0,1,0-.5.37.37,0,0,1,.5,0,.35.35,0,0,1-.25.6Z"/><path class="cls-2" d="M45.75,9.47a.35.35,0,0,1-.25-.6.37.37,0,0,1,.5,0,.36.36,0,0,1,0,.5A.37.37,0,0,1,45.75,9.47Z"/><path class="cls-2" d="M35.5,11.22a.34.34,0,0,1-.35-.35.37.37,0,0,1,.1-.25.36.36,0,0,1,.6.25.34.34,0,0,1-.35.35Z"/><path class="cls-2" d="M39,15.22a.35.35,0,0,1-.25-.6.36.36,0,0,1,.6.25.34.34,0,0,1-.35.35Z"/><path class="cls-2" d="M24.5,18.22a.35.35,0,0,1-.25-.6.36.36,0,0,1,.6.25.34.34,0,0,1-.35.35Z"/><path class="cls-2" d="M8,27.47a.35.35,0,0,1-.25-.6.36.36,0,0,1,.6.25.34.34,0,0,1-.35.35Z"/><path class="cls-2" d="M15.75,32a.35.35,0,0,1-.25-.6.38.38,0,0,1,.5,0,.35.35,0,0,1-.25.6Z"/><path class="cls-2" d="M10.25,33.72a.34.34,0,0,1-.35-.35.33.33,0,0,1,.11-.25.37.37,0,0,1,.49,0,.36.36,0,0,1,.1.25.37.37,0,0,1-.1.25A.39.39,0,0,1,10.25,33.72Z"/><path class="cls-2" d="M5,37.22a.35.35,0,0,1-.25-.6.38.38,0,0,1,.5,0,.37.37,0,0,1,.1.25.34.34,0,0,1-.35.35Z"/><path class="cls-2" d="M3,20.72a.39.39,0,0,1-.25-.1.36.36,0,0,1,0-.5.38.38,0,0,1,.5,0,.36.36,0,0,1,0,.5A.39.39,0,0,1,3,20.72Z"/><path class="cls-2" d="M20.25,31a.34.34,0,0,1-.35-.35.33.33,0,0,1,.11-.25.35.35,0,0,1,.59.25.34.34,0,0,1-.35.35Z"/><path class="cls-2" d="M17.25,35.72a.35.35,0,0,1-.25-.6.37.37,0,0,1,.5,0,.35.35,0,0,1-.25.6Z"/><path class="cls-2" d="M15.75,39.22a.34.34,0,0,1-.35-.35.33.33,0,0,1,.11-.25.37.37,0,0,1,.49,0,.36.36,0,0,1,.1.25.39.39,0,0,1-.1.25A.37.37,0,0,1,15.75,39.22Z"/><path class="cls-2" d="M12.5,41.47a.34.34,0,0,1-.35-.35.33.33,0,0,1,.11-.25.37.37,0,0,1,.49,0,.36.36,0,0,1,.1.25.34.34,0,0,1-.35.35Z"/><path class="cls-2" d="M12.5,46.72a.34.34,0,0,1-.35-.35.33.33,0,0,1,.11-.25.37.37,0,0,1,.49,0,.36.36,0,0,1,.1.25.34.34,0,0,1-.35.35Z"/><path class="cls-2" d="M5.5,48.72a.35.35,0,0,1-.25-.6.38.38,0,0,1,.5,0,.35.35,0,0,1-.25.6Z"/><path class="cls-2" d="M10.75,54.72a.35.35,0,0,1-.25-.6.38.38,0,0,1,.5,0,.35.35,0,0,1-.25.6Z"/><path class="cls-2" d="M15.25,58.72a.35.35,0,0,1-.25-.6.37.37,0,0,1,.5,0,.35.35,0,0,1-.25.6Z"/><path class="cls-2" d="M5.75,63.72a.35.35,0,0,1-.25-.6.38.38,0,0,1,.5,0,.36.36,0,0,1,.1.25.34.34,0,0,1-.35.35Z"/><path class="cls-2" d="M2,62.22a.39.39,0,0,1-.25-.1.36.36,0,0,1,0-.5.37.37,0,0,1,.49,0,.34.34,0,0,1,.11.25.39.39,0,0,1-.1.25A.39.39,0,0,1,2,62.22Z"/><path class="cls-2" d="M8.75,68.22a.35.35,0,0,1-.25-.6.36.36,0,0,1,.6.25.39.39,0,0,1-.1.25A.37.37,0,0,1,8.75,68.22Z"/><path class="cls-2" d="M13.25,69.72a.35.35,0,0,1-.25-.6.38.38,0,0,1,.5,0,.35.35,0,0,1-.25.6Z"/><path class="cls-2" d="M21.25,68.72a.34.34,0,0,1-.35-.35.33.33,0,0,1,.11-.25.35.35,0,0,1,.59.25.34.34,0,0,1-.35.35Z"/><path class="cls-2" d="M22.75,66a.35.35,0,0,1-.25-.6.37.37,0,0,1,.5,0,.36.36,0,0,1,0,.5A.37.37,0,0,1,22.75,66Z"/><path class="cls-2" d="M22,60.22a.35.35,0,0,1-.25-.6.38.38,0,0,1,.5,0,.36.36,0,0,1,0,.5A.37.37,0,0,1,22,60.22Z"/><path class="cls-2" d="M24,57.72a.34.34,0,0,1-.35-.35.37.37,0,0,1,.1-.25.38.38,0,0,1,.5,0,.37.37,0,0,1,.1.25.39.39,0,0,1-.1.25A.37.37,0,0,1,24,57.72Z"/><path class="cls-2" d="M26,48a.35.35,0,0,1-.25-.6.37.37,0,0,1,.5,0A.35.35,0,0,1,26,48Z"/><path class="cls-2" d="M25.5,43.72a.35.35,0,0,1-.25-.6.37.37,0,0,1,.5,0,.35.35,0,0,1-.25.6Z"/><path class="cls-2" d="M32,31.22a.34.34,0,0,1-.35-.35.33.33,0,0,1,.11-.25.35.35,0,0,1,.59.25.34.34,0,0,1-.35.35Z"/><path class="cls-2" d="M34,28a.34.34,0,0,1-.35-.35.35.35,0,0,1,.1-.25.37.37,0,0,1,.5,0,.36.36,0,0,1,0,.5A.37.37,0,0,1,34,28Z"/><path class="cls-2" d="M41.5,26a.35.35,0,0,1-.25-.6.37.37,0,0,1,.5,0,.35.35,0,0,1-.25.6Z"/><path class="cls-2" d="M42.75,21a.36.36,0,0,1-.25-.11.33.33,0,0,1-.1-.24.39.39,0,0,1,.1-.25.37.37,0,0,1,.5,0,.39.39,0,0,1,.1.25.34.34,0,0,1-.11.25A.35.35,0,0,1,42.75,21Z"/><path class="cls-2" d="M36.25,19.47a.39.39,0,0,1-.25-.1.36.36,0,0,1-.1-.25.31.31,0,0,1,.1-.24.35.35,0,0,1,.5,0,.35.35,0,0,1-.25.6Z"/><path class="cls-2" d="M27.5,22.47a.35.35,0,0,1-.25-.6.37.37,0,0,1,.5,0,.35.35,0,0,1-.25.6Z"/><path class="cls-2" d="M51.75,22.22a.33.33,0,0,1-.25-.11.35.35,0,0,1-.1-.24.39.39,0,0,1,.1-.25.36.36,0,0,1,.6.25.39.39,0,0,1-.1.25A.37.37,0,0,1,51.75,22.22Z"/><path class="cls-2" d="M43,18a.37.37,0,0,1-.25-.1.36.36,0,0,1,0-.5.38.38,0,0,1,.5,0A.35.35,0,0,1,43,18Z"/><path class="cls-2" d="M50.25,18.22a.37.37,0,0,1-.25-.1.36.36,0,0,1,0-.5.36.36,0,0,1,.6.25.34.34,0,0,1-.35.35Z"/><path class="cls-2" d="M59.25,17.47a.34.34,0,0,1-.35-.35.33.33,0,0,1,.11-.25.37.37,0,0,1,.49,0,.36.36,0,0,1,.1.25.34.34,0,0,1-.35.35Z"/><path class="cls-2" d="M58,14.22a.37.37,0,0,1-.25-.1.36.36,0,0,1,0-.5.36.36,0,0,1,.6.25.34.34,0,0,1-.35.35Z"/><path class="cls-2" d="M61.25,11.22a.34.34,0,0,1-.35-.35.33.33,0,0,1,.11-.25.36.36,0,0,1,.49,0,.31.31,0,0,1,.1.24.34.34,0,0,1-.35.35Z"/><path class="cls-2" d="M58.5,7.72a.39.39,0,0,1-.25-.1.35.35,0,0,1-.1-.25.31.31,0,0,1,.1-.24.35.35,0,0,1,.6.24.34.34,0,0,1-.35.35Z"/><path class="cls-2" d="M59.75,5a.34.34,0,0,1-.25-.11.35.35,0,0,1-.1-.24.33.33,0,0,1,.11-.25.37.37,0,0,1,.49,0,.36.36,0,0,1,.1.25.34.34,0,0,1-.35.35Z"/><path class="cls-2" d="M67.25,6.22a.39.39,0,0,1-.25-.1.36.36,0,0,1-.1-.25.37.37,0,0,1,.1-.25.38.38,0,0,1,.5,0,.35.35,0,0,1-.25.6Z"/><path class="cls-2" d="M70.5,8.72a.39.39,0,0,1-.25-.1.36.36,0,0,1-.1-.25.37.37,0,0,1,.1-.25.37.37,0,0,1,.49,0,.36.36,0,0,1,.11.25.34.34,0,0,1-.35.35Z"/><path class="cls-2" d="M65.5,10a.34.34,0,0,1-.35-.35.37.37,0,0,1,.1-.25.38.38,0,0,1,.5,0,.35.35,0,0,1-.25.6Z"/><path class="cls-2" d="M60,24a.35.35,0,0,1-.25-.6.37.37,0,0,1,.5,0A.35.35,0,0,1,60,24Z"/><path class="cls-2" d="M55.25,24a.35.35,0,0,1-.25-.6.38.38,0,0,1,.5,0,.35.35,0,0,1-.25.6Z"/><path class="cls-2" d="M55.25,19a.34.34,0,0,1-.25-.11.35.35,0,0,1-.1-.24.33.33,0,0,1,.11-.25.37.37,0,0,1,.49,0,.36.36,0,0,1,.1.25.34.34,0,0,1-.35.35Z"/><path class="cls-2" d="M64.75,26a.34.34,0,0,1-.35-.35.33.33,0,0,1,.11-.25.37.37,0,0,1,.49,0,.36.36,0,0,1,.1.25.34.34,0,0,1-.35.35Z"/><path class="cls-2" d="M57.5,31a.33.33,0,0,1-.25-.11.35.35,0,0,1-.1-.24.33.33,0,0,1,.11-.25.37.37,0,0,1,.49,0,.36.36,0,0,1,.1.25.34.34,0,0,1-.35.35Z"/><path class="cls-2" d="M52.5,33a.36.36,0,0,1-.25-.11.35.35,0,0,1-.1-.24.33.33,0,0,1,.11-.25.37.37,0,0,1,.49,0,.36.36,0,0,1,.1.25.34.34,0,0,1-.35.35Z"/><path class="cls-2" d="M47.25,34a.36.36,0,0,1-.25-.11.35.35,0,0,1-.1-.24.33.33,0,0,1,.11-.25.37.37,0,0,1,.49,0,.36.36,0,0,1,.1.25.34.34,0,0,1-.35.35Z"/><path class="cls-2" d="M44,39.47a.36.36,0,0,1-.25-.11.35.35,0,0,1-.1-.24.39.39,0,0,1,.1-.25.37.37,0,0,1,.5,0,.37.37,0,0,1,.1.25.33.33,0,0,1-.11.25A.35.35,0,0,1,44,39.47Z"/><path class="cls-2" d="M33.75,41.72a.35.35,0,0,1-.25-.6.37.37,0,0,1,.5,0,.35.35,0,0,1-.25.6Z"/><path class="cls-2" d="M40.5,48.22a.35.35,0,0,1-.25-.6.36.36,0,0,1,.49,0,.34.34,0,0,1,.11.25.34.34,0,0,1-.35.35Z"/><path class="cls-2" d="M45.5,52.47a.34.34,0,0,1-.35-.35.33.33,0,0,1,.11-.25.35.35,0,0,1,.59.25.34.34,0,0,1-.35.35Z"/><path class="cls-2" d="M46.25,57a.35.35,0,0,1-.25-.6.35.35,0,0,1,.49,0,.36.36,0,0,1,.11.25.34.34,0,0,1-.35.35Z"/><path class="cls-2" d="M41.75,59.72a.35.35,0,0,1-.24-.1.36.36,0,0,1-.11-.25.39.39,0,0,1,.1-.25.37.37,0,0,1,.5,0,.35.35,0,0,1-.25.6Z"/><path class="cls-2" d="M39.75,63a.35.35,0,0,1-.25-.6.37.37,0,0,1,.5,0,.36.36,0,0,1,0,.5A.37.37,0,0,1,39.75,63Z"/><path class="cls-2" d="M35.75,63a.34.34,0,0,1-.35-.35.33.33,0,0,1,.11-.25.35.35,0,0,1,.59.25.34.34,0,0,1-.35.35Z"/><path class="cls-2" d="M36.25,53a.39.39,0,0,1-.25-.1.35.35,0,0,1-.1-.25.39.39,0,0,1,.1-.25.36.36,0,0,1,.5,0,.31.31,0,0,1,.1.24.34.34,0,0,1-.35.35Z"/><path class="cls-2" d="M29.75,63.72a.35.35,0,0,1-.24-.1.36.36,0,0,1-.11-.25.33.33,0,0,1,.11-.25.37.37,0,0,1,.49,0,.36.36,0,0,1,.1.25.34.34,0,0,1-.35.35Z"/><path class="cls-2" d="M31.25,68.72a.35.35,0,0,1-.25-.6.37.37,0,0,1,.5,0,.35.35,0,0,1-.25.6Z"/><path class="cls-2" d="M36.75,71.22a.39.39,0,0,1-.25-.1.37.37,0,0,1-.1-.25.33.33,0,0,1,.11-.25.37.37,0,0,1,.49,0,.36.36,0,0,1,.1.25.37.37,0,0,1-.1.25A.39.39,0,0,1,36.75,71.22Z"/><path class="cls-2" d="M62.75,57.22a.34.34,0,0,1-.35-.35.33.33,0,0,1,.11-.25.37.37,0,0,1,.49,0,.36.36,0,0,1,.1.25.34.34,0,0,1-.35.35Z"/><path class="cls-2" d="M59.75,51a.33.33,0,0,1-.25-.11.35.35,0,0,1-.1-.24.35.35,0,0,1,.59-.25.36.36,0,0,1,.11.25.39.39,0,0,1-.1.25A.37.37,0,0,1,59.75,51Z"/><path class="cls-2" d="M54.25,50.72a.39.39,0,0,1-.25-.1.37.37,0,0,1-.1-.25.35.35,0,0,1,.7,0,.35.35,0,0,1-.1.24A.34.34,0,0,1,54.25,50.72Z"/><path class="cls-2" d="M54.5,42a.36.36,0,0,1-.25-.11.33.33,0,0,1-.1-.24.39.39,0,0,1,.1-.25.37.37,0,0,1,.5,0,.39.39,0,0,1,.1.25.34.34,0,0,1-.11.25A.35.35,0,0,1,54.5,42Z"/><path class="cls-2" d="M62.25,42.47a.35.35,0,0,1-.25-.6.37.37,0,0,1,.5,0,.35.35,0,0,1-.25.6Z"/><path class="cls-2" d="M66.75,47.72a.35.35,0,0,1-.24-.1.36.36,0,0,1-.11-.25.39.39,0,0,1,.1-.25.36.36,0,0,1,.49,0,.32.32,0,0,1,.11.25.34.34,0,0,1-.35.35Z"/><path class="cls-2" d="M69.25,54.47a.35.35,0,0,1-.24-.1.36.36,0,0,1-.11-.25.39.39,0,0,1,.1-.25.36.36,0,0,1,.6.25.34.34,0,0,1-.35.35Z"/><path class="cls-2" d="M63.25,62a.35.35,0,0,1-.24-.1.36.36,0,0,1-.11-.25.39.39,0,0,1,.1-.25.36.36,0,0,1,.49,0,.32.32,0,0,1,.11.25.34.34,0,0,1-.35.35Z"/><path class="cls-2" d="M70,61.22a.34.34,0,0,1-.35-.35.33.33,0,0,1,.11-.25.37.37,0,0,1,.49,0,.36.36,0,0,1,.1.25.34.34,0,0,1-.35.35Z"/><path class="cls-2" d="M64.5,65.72a.35.35,0,0,1-.25-.6.36.36,0,0,1,.5,0,.35.35,0,0,1,.1.24.34.34,0,0,1-.35.35Z"/><path class="cls-2" d="M65.5,68.47a.35.35,0,0,1-.25-.6.37.37,0,0,1,.5,0,.35.35,0,0,1-.25.6Z"/><path class="cls-2" d="M62.25,70.47a.34.34,0,0,1-.35-.35.34.34,0,0,1,.11-.25.36.36,0,0,1,.49,0,.31.31,0,0,1,.1.24.34.34,0,0,1-.35.35Z"/><path class="cls-2" d="M52.5,70a.36.36,0,0,1-.25-.1.36.36,0,0,1,0-.5.36.36,0,0,1,.6.25.39.39,0,0,1-.1.25A.37.37,0,0,1,52.5,70Z"/><path class="cls-2" d="M44.5,66.72a.34.34,0,0,1-.25-.11.35.35,0,0,1-.1-.24.33.33,0,0,1,.11-.25.37.37,0,0,1,.49,0,.36.36,0,0,1,.1.25.34.34,0,0,1-.35.35Z"/><path class="cls-2" d="M28.25,71.47a.39.39,0,0,1-.25-.1.36.36,0,0,1-.1-.25.33.33,0,0,1,.11-.25.35.35,0,0,1,.59.25.33.33,0,0,1-.11.25A.35.35,0,0,1,28.25,71.47Z"/><path class="cls-2" d="M2.75,29.72a.39.39,0,0,1-.25-.1.36.36,0,0,1,0-.5.38.38,0,0,1,.5,0,.36.36,0,0,1,0,.5A.39.39,0,0,1,2.75,29.72Z"/><path class="cls-2" d="M13,5.22a.36.36,0,0,1-.25-.11.31.31,0,0,1-.1-.24.37.37,0,0,1,.1-.25.36.36,0,0,1,.6.25.33.33,0,0,1-.11.25A.35.35,0,0,1,13,5.22Z"/><path class="cls-2" d="M70,34.72a.34.34,0,0,1-.35-.35.33.33,0,0,1,.11-.25.37.37,0,0,1,.49,0,.36.36,0,0,1,.1.25.34.34,0,0,1-.35.35Z"/><path class="cls-2" d="M71,41.47a.35.35,0,0,1-.25-.6.37.37,0,0,1,.5,0,.35.35,0,0,1-.25.6Z"/><path class="cls-2" d="M.75,52a.39.39,0,0,1-.25-.1.39.39,0,0,1-.1-.25.33.33,0,0,1,.11-.25.37.37,0,0,1,.49,0,.36.36,0,0,1,.1.25.39.39,0,0,1-.1.25A.39.39,0,0,1,.75,52Z"/><path class="cls-2" d="M71.75,23.72a.35.35,0,0,1-.25-.6.38.38,0,0,1,.5,0,.35.35,0,0,1-.25.6Z"/><path class="cls-2" d="M68.75,26.72a.35.35,0,0,1-.25-.6.37.37,0,0,1,.5,0,.39.39,0,0,1,.1.25.35.35,0,0,1-.1.25A.39.39,0,0,1,68.75,26.72Z"/><path class="cls-2" d="M68.25,60.47a.34.34,0,0,1-.35-.35.37.37,0,0,1,.1-.25.38.38,0,0,1,.5,0,.35.35,0,0,1-.25.6Z"/><path class="cls-2" d="M71.25,68.47a.35.35,0,0,1-.25-.6.37.37,0,0,1,.5,0,.39.39,0,0,1,.1.25.35.35,0,0,1-.1.25A.39.39,0,0,1,71.25,68.47Z"/><path class="cls-2" d="M.25,58a.39.39,0,0,1-.25-.1.36.36,0,0,1,0-.5.38.38,0,0,1,.5,0,.36.36,0,0,1,0,.5A.39.39,0,0,1,.25,58Z"/><path class="cls-2" d="M2.5,71.47a.39.39,0,0,1-.25-.1.36.36,0,0,1,0-.5.36.36,0,0,1,.6.25.39.39,0,0,1-.1.25A.39.39,0,0,1,2.5,71.47Z"/><path class="cls-2" d="M70,24.22a.34.34,0,0,1-.35-.35.33.33,0,0,1,.11-.25.37.37,0,0,1,.49,0,.36.36,0,0,1,.1.25.34.34,0,0,1-.35.35Z"/><path class="cls-2" d="M1,17a.39.39,0,0,1-.25-.1.36.36,0,0,1,0-.5.38.38,0,0,1,.5,0,.36.36,0,0,1,0,.5A.39.39,0,0,1,1,17Z"/><path class="cls-2" d="M17.75,13.27a.65.65,0,0,1-.65-.65.66.66,0,0,1,.19-.46.68.68,0,0,1,.92,0,.65.65,0,0,1-.46,1.11Z"/><path class="cls-2" d="M29,11.27a.66.66,0,0,1-.46-.19.68.68,0,0,1-.19-.46.66.66,0,0,1,.19-.46.67.67,0,0,1,.92,0,.66.66,0,0,1,.19.46.65.65,0,0,1-.65.65Z"/><path class="cls-2" d="M29,3.77a.65.65,0,0,1-.65-.65.64.64,0,0,1,.19-.46.68.68,0,0,1,.92,0,.65.65,0,0,1,0,.92A.68.68,0,0,1,29,3.77Z"/><path class="cls-2" d="M40,10.77a.65.65,0,0,1-.65-.65.66.66,0,0,1,.19-.46.68.68,0,0,1,.92,0,.63.63,0,0,1,.19.46.68.68,0,0,1-.19.46A.66.66,0,0,1,40,10.77Z"/><path class="cls-2" d="M44.75,12.27a.61.61,0,0,1-.46-.2.64.64,0,0,1-.19-.45.66.66,0,0,1,.19-.46.68.68,0,0,1,.92,0,.63.63,0,0,1,.19.46.61.61,0,0,1-.2.46A.6.6,0,0,1,44.75,12.27Z"/><path class="cls-2" d="M47,23.27a.65.65,0,0,1-.46-1.11.68.68,0,0,1,.92,0A.65.65,0,0,1,47,23.27Z"/><path class="cls-2" d="M54.5,7.27A.64.64,0,0,1,54,7.08a.65.65,0,0,1,0-.92.68.68,0,0,1,.92,0,.64.64,0,0,1,.19.46.66.66,0,0,1-.19.46A.64.64,0,0,1,54.5,7.27Z"/><path class="cls-2" d="M63.75,7a.65.65,0,0,1-.46-1.11.68.68,0,0,1,.92,0A.65.65,0,0,1,63.75,7Z"/><path class="cls-2" d="M64.75,3a.66.66,0,0,1-.46-.19.68.68,0,0,1-.19-.46.66.66,0,0,1,.19-.46.68.68,0,0,1,.92,0,.68.68,0,0,1,.19.46.63.63,0,0,1-.18.45A.67.67,0,0,1,64.75,3Z"/><path class="cls-2" d="M69.25,18.52a.65.65,0,0,1-.46-1.11.67.67,0,0,1,.92,0,.65.65,0,0,1-.46,1.11Z"/><path class="cls-2" d="M7.75,47.52a.64.64,0,0,1-.46-.19.68.68,0,0,1-.19-.46.66.66,0,0,1,.19-.46.68.68,0,0,1,.92,0,.66.66,0,0,1,.19.46.68.68,0,0,1-.19.46A.64.64,0,0,1,7.75,47.52Z"/><path class="cls-2" d="M4.75,57.27a.64.64,0,0,1-.46-.19.65.65,0,0,1,0-.92.67.67,0,0,1,.92,0,.65.65,0,0,1,0,.92A.64.64,0,0,1,4.75,57.27Z"/><path class="cls-2" d="M2,67.52a.66.66,0,0,1-.46-.19.68.68,0,0,1-.19-.46.66.66,0,0,1,.19-.46.68.68,0,0,1,.92,0,.66.66,0,0,1,.19.46.68.68,0,0,1-.19.46A.66.66,0,0,1,2,67.52Z"/><path class="cls-2" d="M17.5,70.27a.66.66,0,0,1-.46-.19.68.68,0,0,1-.19-.46.66.66,0,0,1,.19-.46.68.68,0,0,1,.92,0,.66.66,0,0,1,.19.46.68.68,0,0,1-.19.46A.66.66,0,0,1,17.5,70.27Z"/><path class="cls-2" d="M19,62.77a.65.65,0,0,1-.65-.65.64.64,0,0,1,.19-.46.67.67,0,0,1,.92,0,.66.66,0,0,1,.19.46.68.68,0,0,1-.19.46A.66.66,0,0,1,19,62.77Z"/><path class="cls-2" d="M20.75,45.77a.65.65,0,0,1-.65-.65.64.64,0,0,1,.19-.46.67.67,0,0,1,.92,0,.66.66,0,0,1,.19.46.68.68,0,0,1-.19.46A.64.64,0,0,1,20.75,45.77Z"/><path class="cls-2" d="M28.25,51.52a.65.65,0,0,1-.46-1.11.67.67,0,0,1,.92,0,.66.66,0,0,1,.19.46.68.68,0,0,1-.19.46A.64.64,0,0,1,28.25,51.52Z"/><path class="cls-2" d="M33.75,60.77a.65.65,0,0,1-.65-.65.64.64,0,0,1,.19-.46.68.68,0,0,1,.92,0,.63.63,0,0,1,.19.46.64.64,0,0,1-.19.46A.66.66,0,0,1,33.75,60.77Z"/><path class="cls-2" d="M34,67.27a.64.64,0,0,1-.46-.19.65.65,0,0,1,0-.92.67.67,0,0,1,.92,0,.65.65,0,0,1,0,.92A.66.66,0,0,1,34,67.27Z"/><path class="cls-2" d="M41.5,55.52A.65.65,0,0,1,41,54.41a.68.68,0,0,1,.92,0,.65.65,0,0,1-.46,1.11Z"/><path class="cls-2" d="M52,60.27a.65.65,0,0,1-.46-1.11.68.68,0,0,1,.92,0A.65.65,0,0,1,52,60.27Z"/><path class="cls-2" d="M54.75,65.77a.66.66,0,0,1-.46-.19.68.68,0,0,1-.19-.46.64.64,0,0,1,.19-.46.68.68,0,0,1,.92,0,.64.64,0,0,1,.19.46.68.68,0,0,1-.19.46A.66.66,0,0,1,54.75,65.77Z"/><path class="cls-2" d="M25,25a.66.66,0,0,1-.46-.19.68.68,0,0,1-.19-.46.66.66,0,0,1,.19-.46.68.68,0,0,1,.92,0,.66.66,0,0,1,.19.46.68.68,0,0,1-.19.46A.66.66,0,0,1,25,25Z"/><path class="cls-2" d="M35,23.77a.64.64,0,0,1-.46-.19.65.65,0,0,1,0-.92.68.68,0,0,1,.92,0A.65.65,0,0,1,35,23.77Z"/><path class="cls-2" d="M44.75,30a.65.65,0,0,1-.46-1.11.68.68,0,0,1,.92,0,.63.63,0,0,1,.19.46.61.61,0,0,1-.2.46A.62.62,0,0,1,44.75,30Z"/><path class="cls-2" d="M51.75,43.52a.65.65,0,0,1-.46-1.11.67.67,0,0,1,.92,0,.64.64,0,0,1,.19.46.65.65,0,0,1-.65.65Z"/><path class="cls-2" d="M66.75,52.27a.65.65,0,0,1-.65-.65.61.61,0,0,1,.2-.46.68.68,0,0,1,.91,0,.65.65,0,0,1-.46,1.11Z"/><path class="cls-2" d="M47,48.27a.65.65,0,0,1-.46-1.11.68.68,0,0,1,.92,0A.65.65,0,0,1,47,48.27Z"/><path class="cls-2" d="M36.75,45a.66.66,0,0,1-.46-.19.68.68,0,0,1-.19-.46.66.66,0,0,1,.19-.46.68.68,0,0,1,.92,0,.66.66,0,0,1,.19.46.68.68,0,0,1-.19.46A.66.66,0,0,1,36.75,45Z"/><path class="cls-2" d="M16.75,29a.65.65,0,0,1-.46-1.11.68.68,0,0,1,.92,0,.65.65,0,0,1,0,.92A.64.64,0,0,1,16.75,29Z"/><path class="cls-2" d="M11,37.27a.65.65,0,0,1-.65-.65.64.64,0,0,1,.19-.46.67.67,0,0,1,.92,0A.65.65,0,0,1,11,37.27Z"/><path class="cls-2" d="M67.25,31.27a.66.66,0,0,1-.46-.19.68.68,0,0,1-.19-.46.66.66,0,0,1,.19-.46.68.68,0,0,1,.92,0,.64.64,0,0,1,.19.46.65.65,0,0,1-.65.65Z"/><path class="cls-2" d="M7,16.27a.61.61,0,0,1-.46-.2.62.62,0,0,1-.19-.45.66.66,0,0,1,.19-.46.67.67,0,0,1,.92,0,.65.65,0,0,1,0,.92A.64.64,0,0,1,7,16.27Z"/><path class="cls-2" d="M8.25,5.77a.68.68,0,0,1-.46-.19.66.66,0,0,1-.19-.46.64.64,0,0,1,.19-.46.67.67,0,0,1,.92,0,.64.64,0,0,1,.19.46.65.65,0,0,1-.65.65Z"/><path class="cls-2" d="M3.25,3a.66.66,0,0,1-.46-.19.68.68,0,0,1-.19-.46.66.66,0,0,1,.19-.46.68.68,0,0,1,.92,0,.66.66,0,0,1,.19.46.68.68,0,0,1-.19.46A.66.66,0,0,1,3.25,3Z"/><path class="cls-2" d="M66.25,37.77a.65.65,0,0,1-.46-1.11.68.68,0,0,1,.92,0,.64.64,0,0,1,.19.46.66.66,0,0,1-.19.46A.64.64,0,0,1,66.25,37.77Z"/><path class="cls-2" d="M43.75,63.52a.66.66,0,0,1-.46-.19.68.68,0,0,1-.19-.46.66.66,0,0,1,.19-.46.67.67,0,0,1,.92,0,.66.66,0,0,1,.19.46.68.68,0,0,1-.19.46A.66.66,0,0,1,43.75,63.52Z"/><path class="cls-2" d="M25.5,70.52a.66.66,0,0,1-.46-.19.68.68,0,0,1-.19-.46.66.66,0,0,1,.19-.46.67.67,0,0,1,.92,0,.66.66,0,0,1,.19.46.68.68,0,0,1-.19.46A.66.66,0,0,1,25.5,70.52Z"/><path class="cls-2" d="M21.75,42.27a.66.66,0,0,1-.46-.19.65.65,0,0,1,0-.92.68.68,0,0,1,.92,0,.65.65,0,0,1-.46,1.11Z"/><path class="cls-2" d="M23.75,29.52a.66.66,0,0,1-.46-.19.68.68,0,0,1-.19-.46.66.66,0,0,1,.19-.46.67.67,0,0,1,.92,0,.64.64,0,0,1,.19.46.65.65,0,0,1-.65.65Z"/><path class="cls-2" d="M41.25,35a.65.65,0,0,1-.46-1.11.68.68,0,0,1,.92,0,.66.66,0,0,1,.19.46.68.68,0,0,1-.19.46A.66.66,0,0,1,41.25,35Z"/><path class="cls-2" d="M67.25,44.27a.66.66,0,0,1-.46-.19.68.68,0,0,1-.19-.46.66.66,0,0,1,.19-.46.68.68,0,0,1,.92,0,.64.64,0,0,1,.19.46.65.65,0,0,1-.65.65Z"/><path class="cls-2" d="M53,15.52a.65.65,0,0,1-.46-1.11.68.68,0,0,1,.92,0,.66.66,0,0,1,.19.46.68.68,0,0,1-.19.46A.66.66,0,0,1,53,15.52Z"/><path class="cls-2" d="M33.75,16.52a.66.66,0,0,1-.46-.19.68.68,0,0,1-.19-.46.64.64,0,0,1,.19-.46.68.68,0,0,1,.92,0,.64.64,0,0,1,.19.46.65.65,0,0,1-.65.65Z"/><path class="cls-2" d="M12.5,19.77A.65.65,0,0,1,12,18.66a.67.67,0,0,1,.92,0,.65.65,0,0,1-.46,1.11Z"/><path class="cls-2" d="M49.25,5a.65.65,0,0,1-.46-1.11.68.68,0,0,1,.92,0A.65.65,0,0,1,49.25,5Z"/><path class="cls-2" d="M58.75,21.27a.65.65,0,0,1-.46-1.11.68.68,0,0,1,.92,0,.64.64,0,0,1,.19.46.65.65,0,0,1-.65.65Z"/><path class="cls-2" d="M67.25,57.77a.66.66,0,0,1-.46-.19.68.68,0,0,1-.19-.46.66.66,0,0,1,.19-.46.68.68,0,0,1,.92,0,.64.64,0,0,1,.19.46.65.65,0,0,1-.65.65Z"/><path class="cls-2" d="M5,70.27a.64.64,0,0,1-.46-.19.65.65,0,0,1,0-.92.67.67,0,0,1,.92,0,.65.65,0,0,1,0,.92A.64.64,0,0,1,5,70.27Z"/><path class="cls-2" d="M2.5,13.77a.61.61,0,0,1-.46-.2.62.62,0,0,1-.19-.45A.66.66,0,0,1,2,12.66a.67.67,0,0,1,.92,0,.65.65,0,0,1,0,.92A.64.64,0,0,1,2.5,13.77Z"/><path class="cls-2" d="M16.25,3.77a.65.65,0,0,1-.46-1.11.68.68,0,0,1,.92,0,.65.65,0,0,1-.46,1.11Z"/><path class="cls-2" d="M40.25,5a.65.65,0,0,1-.46-1.11.68.68,0,0,1,.92,0,.64.64,0,0,1,.19.46.65.65,0,0,1-.65.65Z"/><path class="cls-2" d="M2.5,32.52A.64.64,0,0,1,2,32.33a.65.65,0,0,1,0-.92.68.68,0,0,1,.92,0,.65.65,0,0,1-.46,1.11Z"/><path class="cls-2" d="M7.25,25.52a.64.64,0,0,1-.46-.19.65.65,0,0,1,0-.92.68.68,0,0,1,.92,0,.64.64,0,0,1,.19.46.66.66,0,0,1-.19.46A.64.64,0,0,1,7.25,25.52Z"/><path class="cls-2" d="M3.75,47.27a.66.66,0,0,1-.46-.19.68.68,0,0,1-.19-.46.66.66,0,0,1,.19-.46.67.67,0,0,1,.92,0,.66.66,0,0,1,.19.46.68.68,0,0,1-.19.46A.64.64,0,0,1,3.75,47.27Z"/><path class="cls-2" d="M10.75,51a.66.66,0,0,1-.46-.19.68.68,0,0,1-.19-.46.64.64,0,0,1,.19-.46.68.68,0,0,1,.92,0,.66.66,0,0,1,.19.46.68.68,0,0,1-.19.46A.66.66,0,0,1,10.75,51Z"/><path class="cls-2" d="M9.75,60.27a.64.64,0,0,1-.46-.19.65.65,0,0,1,0-.92.68.68,0,0,1,.92,0,.65.65,0,0,1,0,.92A.64.64,0,0,1,9.75,60.27Z"/><path class="cls-2" d="M13.25,66.27a.66.66,0,0,1-.46-.19.68.68,0,0,1-.19-.46.64.64,0,0,1,.19-.46.67.67,0,0,1,.92,0,.66.66,0,0,1,.19.46.68.68,0,0,1-.19.46A.66.66,0,0,1,13.25,66.27Z"/><path class="cls-2" d="M21.75,53.77a.66.66,0,0,1-.46-.19.64.64,0,0,1-.19-.46.6.6,0,0,1,.2-.46.65.65,0,0,1,1.1.46.68.68,0,0,1-.19.46A.66.66,0,0,1,21.75,53.77Z"/><path class="cls-2" d="M31,38a.66.66,0,0,1-.46-.19.68.68,0,0,1-.19-.46.66.66,0,0,1,.19-.46.68.68,0,0,1,.92,0,.66.66,0,0,1,.19.46.68.68,0,0,1-.19.46A.66.66,0,0,1,31,38Z"/><path class="cls-2" d="M25.75,34.52a.65.65,0,0,1-.46-1.11.67.67,0,0,1,.92,0,.65.65,0,0,1-.46,1.11Z"/><path class="cls-2" d="M37,29a.66.66,0,0,1-.46-.19.68.68,0,0,1-.19-.46.66.66,0,0,1,.19-.46.68.68,0,0,1,.92,0,.66.66,0,0,1,.19.46.68.68,0,0,1-.19.46A.66.66,0,0,1,37,29Z"/><path class="cls-2" d="M61.5,17a.66.66,0,0,1-.46-.19.68.68,0,0,1-.19-.46.66.66,0,0,1,.19-.46.68.68,0,0,1,.92,0,.64.64,0,0,1,.19.46.65.65,0,0,1-.65.65Z"/><path class="cls-2" d="M61,27.52a.64.64,0,0,1-.46-.19.68.68,0,0,1-.19-.46.66.66,0,0,1,.19-.46.68.68,0,0,1,.92,0,.65.65,0,0,1,0,.92A.64.64,0,0,1,61,27.52Z"/><path class="cls-2" d="M58.5,57.52a.66.66,0,0,1-.46-.19.68.68,0,0,1-.19-.46.66.66,0,0,1,.19-.46.68.68,0,0,1,.92,0,.66.66,0,0,1,.19.46.68.68,0,0,1-.19.46A.66.66,0,0,1,58.5,57.52Z"/><path class="cls-2" d="M59,44.77a.64.64,0,0,1-.46-.19.65.65,0,0,1,0-.92.68.68,0,0,1,.92,0,.65.65,0,0,1,0,.92A.64.64,0,0,1,59,44.77Z"/><path class="cls-2" d="M55.5,36a.66.66,0,0,1-.46-.19.68.68,0,0,1-.19-.46.66.66,0,0,1,.19-.46.68.68,0,0,1,.92,0,.66.66,0,0,1,.19.46.68.68,0,0,1-.19.46A.66.66,0,0,1,55.5,36Z"/><path class="cls-2" d="M69,71a.68.68,0,0,1-.46-.19.65.65,0,0,1,0-.92.69.69,0,0,1,.92,0A.65.65,0,0,1,69,71Z"/><path class="cls-2" d="M60.5,66.27A.65.65,0,0,1,60,65.16a.67.67,0,0,1,.92,0,.64.64,0,0,1,.19.46.65.65,0,0,1-.65.65Z"/><path class="cls-2" d="M44.25,71.77a.65.65,0,0,1-.46-1.11.68.68,0,0,1,.92,0,.65.65,0,0,1-.46,1.11Z"/><path class="cls-2" d="M24.25,1.52A.65.65,0,0,1,23.6.87a.64.64,0,0,1,.19-.46.67.67,0,0,1,.92,0,.66.66,0,0,1,.19.46.68.68,0,0,1-.19.46A.64.64,0,0,1,24.25,1.52Z"/><path class="cls-2" d="M-.25,23.72a.39.39,0,0,1-.25-.1.39.39,0,0,1-.1-.25.39.39,0,0,1,.1-.25.38.38,0,0,1,.5,0,.39.39,0,0,1,.1.25.39.39,0,0,1-.1.25A.39.39,0,0,1-.25,23.72Z"/></pattern></defs><g id="Layer_2" data-name="Layer 2"><g id="Layer_1-2" data-name="Layer 1"><path class="cls-3" d="M57.27,102.76S83.33,126.28,88.5,186h0c2.11-2.08,3.52-5,7.44-5,6.12,0,6.12,7,12.24,7s6.11-7,12.23-7a7,7,0,0,1,1.16.09l0-.19c-10.11-70.14-54.77-100.6-54.77-100.6"/><path class="cls-4" d="M60.23,154.38v5.86A7.72,7.72,0,0,1,68,168V272.08a13.28,13.28,0,0,0,13.29,13.28H196.31a13.28,13.28,0,0,0,13.29-13.28V168a7.72,7.72,0,0,1,7.72-7.72v-5.86"/><line class="cls-4" x1="115.77" y1="154.38" x2="217.32" y2="154.38"/><line class="cls-4" x1="60.23" y1="154.38" x2="83.3" y2="154.38"/><circle class="cls-5" cx="142.26" cy="227.03" r="2.52"/><circle class="cls-5" cx="106.72" cy="225.03" r="3.63"/><circle class="cls-5" cx="119.33" cy="249.93" r="3.63"/><circle class="cls-5" cx="112.99" cy="220.52" r="1.49"/><circle class="cls-5" cx="185.83" cy="245.69" r="3.79"/><circle class="cls-5" cx="184.34" cy="255.49" r="2.64"/><circle class="cls-5" cx="191.49" cy="264.98" r="1.87"/><circle class="cls-5" cx="180.07" cy="209.75" r="3.07"/><path class="cls-4" d="M68,193l-23.43-5.94h0a4.57,4.57,0,0,1,1.07-9H68"/><path class="cls-4" d="M209.6,193,233,187.07h0a4.57,4.57,0,0,0-1.07-9H209.6"/><text class="cls-6" transform="translate(147.21 61.64)">a<tspan class="cls-7" x="10.55" y="0">c</tspan><tspan x="19.05" y="0">qua</tspan></text><line class="cls-4" x1="172.23" y1="76.09" x2="172.23" y2="76.39"/><line class="cls-8" x1="172.23" y1="82.13" x2="172.23" y2="167.7"/><line class="cls-4" x1="172.23" y1="170.57" x2="172.23" y2="170.87"/><polygon class="cls-2" points="162.64 163.1 164.36 161.5 172.22 169.97 180.09 161.5 181.81 163.1 172.22 173.41 162.64 163.1"/><path class="cls-4" d="M73.5,181.33c4.18,1.35,4.85,6.73,10.21,6.73,6.11,0,6.11-7,12.23-7s6.12,7,12.24,7,6.11-7,12.23-7,6.12,7,12.24,7,6.11-7,12.23-7,6.12,7,12.24,7,6.12-7,12.24-7,6.11,7,12.23,7,6.13-7,12.25-7c5.29,0,6,5.25,10,6.68"/><text class="cls-6" transform="translate(20.74 13.95)">zu<tspan class="cls-9" x="19.03" y="0">c</tspan><tspan x="27.51" y="0">che</tspan><tspan class="cls-10" x="55.83" y="0">r</tspan><tspan x="61.65" y="0">o</tspan></text><path class="cls-11" d="M182.6,33.49a10.38,10.38,0,1,1-20.75,0c0-8.7,10.38-22.24,10.38-28.26C172.23,11.25,182.6,24.79,182.6,33.49Z"/><path class="cls-5" d="M178.05,31.8a6.09,6.09,0,0,1-2.57,6.33"/><path class="cls-4" d="M182.6,33.49a10.38,10.38,0,1,1-20.75,0c0-8.7,10.38-22.24,10.38-28.26C172.23,11.25,182.6,24.79,182.6,33.49Z"/><polyline class="cls-4" points="99.6 317.03 107.88 307.33 169.67 307.33 177.95 317.03"/><line class="cls-4" x1="177.95" y1="317.03" x2="99.6" y2="317.03"/><polyline class="cls-4" points="105.88 309.67 85.22 285.36 128.66 285.36 126.34 289.05 101.92 291.88 107.88 307.33"/><polyline class="cls-4" points="177.95 317.03 177.95 323.19 99.6 323.19 99.6 317.03"/><polyline class="cls-4" points="171.67 309.67 192.34 285.36 148.89 285.36 151.21 289.05 175.63 291.88 169.67 307.33"/><path class="cls-2" d="M155,301a3.42,3.42,0,0,0,.84-.33,4.88,4.88,0,0,0,.87-.58,6.8,6.8,0,0,0,1.4-1.65,11.49,11.49,0,0,0,1-2l.37-1.09.31-1.12h0l0-.06a1.16,1.16,0,0,1,2.23,0l.45,1.71c.11.59.23,1.17.32,1.76a18.2,18.2,0,0,1,.15,3.62,12.82,12.82,0,0,1-.74,3.64,10.46,10.46,0,0,1-.83,1.72,6.71,6.71,0,0,1-1.31,1.62,1.17,1.17,0,0,1-1.58-1.73l.09-.08a4.82,4.82,0,0,0,.79-1,7.76,7.76,0,0,0,.64-1.33,10.45,10.45,0,0,0,.6-3,15.79,15.79,0,0,0-.13-3.14l-.29-1.57-.4-1.57H162l-.44,1.23-.51,1.21a13.42,13.42,0,0,1-1.37,2.3,8.92,8.92,0,0,1-1.93,1.95,6.88,6.88,0,0,1-1.24.71,4.45,4.45,0,0,1-1.49.39.81.81,0,0,1-.24-1.61Z"/><path class="cls-2" d="M153.89,304.93a20.78,20.78,0,0,0-1-6.44,31,31,0,0,0-1.12-3.1,28.21,28.21,0,0,0-1.42-2.92h0l2.2-.42a17.72,17.72,0,0,1-1.16,4,19.21,19.21,0,0,1-2,3.56,25.09,25.09,0,0,1-5.47,5.79.51.51,0,0,1-.72-.1.5.5,0,0,1,.07-.68l0,0a23.2,23.2,0,0,0,2.57-2.76,24.06,24.06,0,0,0,2.11-3.12,18.83,18.83,0,0,0,1.5-3.38,15.44,15.44,0,0,0,.71-3.54h0a1.17,1.17,0,0,1,1.28-1,1.15,1.15,0,0,1,.92.63h0a30,30,0,0,1,1.29,3.3,32.87,32.87,0,0,1,.91,3.37,21.86,21.86,0,0,1,.46,7,.61.61,0,0,1-.68.55.62.62,0,0,1-.55-.63Z"/><path class="cls-2" d="M124.43,302.53a4.46,4.46,0,0,1-1.47-.38,7.05,7.05,0,0,1-1.23-.69,8.88,8.88,0,0,1-1.94-1.93,14.88,14.88,0,0,1-1.38-2.28l-.52-1.21-.44-1.23h2.25l-.41,1.57L119,298a15.07,15.07,0,0,0-.13,3.14,10.45,10.45,0,0,0,.6,3,8.54,8.54,0,0,0,.63,1.33,5.17,5.17,0,0,0,.8,1l.09.09a1.17,1.17,0,0,1-1.59,1.72,6.9,6.9,0,0,1-1.3-1.62,10.46,10.46,0,0,1-.83-1.72,12.82,12.82,0,0,1-.74-3.64,17.48,17.48,0,0,1,.15-3.62c.09-.59.21-1.17.32-1.76l.44-1.71a1.17,1.17,0,0,1,1.42-.83,1.14,1.14,0,0,1,.82.8l0,.05h0l.3,1.13.36,1.09a12,12,0,0,0,1,2,7.14,7.14,0,0,0,1.41,1.67,5.12,5.12,0,0,0,.87.59,3.5,3.5,0,0,0,.87.34l.13,0a.74.74,0,0,1,.58.88A.75.75,0,0,1,124.43,302.53Z"/><path class="cls-2" d="M132.34,302.31a10.2,10.2,0,0,1,.9-4.45,10.9,10.9,0,0,1,1.14-2,10.18,10.18,0,0,1,1.57-1.75h0a1,1,0,0,1,1.34.15,1,1,0,0,1,.19.46,20.27,20.27,0,0,0,.41,2.09,20.9,20.9,0,0,0,.6,2.05,10.77,10.77,0,0,0,2,3.61h-1a8.86,8.86,0,0,0,.71-2.78c.12-1,.22-2.08.24-3.15s0-2.16,0-3.24l-.15-3.24h0v-.13a1.27,1.27,0,0,1,1.19-1.32,1.3,1.3,0,0,1,1.06.49,27.7,27.7,0,0,1,2,3,25.76,25.76,0,0,1,1.59,3.2,16.15,16.15,0,0,1,1,3.47,9.82,9.82,0,0,1-.08,3.7.68.68,0,0,1-.82.5.69.69,0,0,1-.52-.75v0a8.3,8.3,0,0,0-.22-3.09,14.05,14.05,0,0,0-1.17-3,22.92,22.92,0,0,0-1.71-2.79,27.06,27.06,0,0,0-2-2.53l2.23-1h0a35.84,35.84,0,0,1,.13,6.87,21.15,21.15,0,0,1-.55,3.48,6.05,6.05,0,0,1-1.94,3.27l-.13.11a.58.58,0,0,1-.82-.1h0a12.11,12.11,0,0,1-2.56-4,21.94,21.94,0,0,1-.8-2.18c-.23-.74-.42-1.46-.59-2.26l1.55.61h0a8.7,8.7,0,0,0-1.31,1.33,9,9,0,0,0-1,1.62,8.8,8.8,0,0,0-1,3.73v0a.73.73,0,0,1-.76.69A.72.72,0,0,1,132.34,302.31Z"/><path class="cls-2" d="M124.36,305a22.15,22.15,0,0,1,.45-7c.25-1.14.56-2.26.92-3.37a30,30,0,0,1,1.29-3.3h0a1.16,1.16,0,0,1,2.19.39v0a15.4,15.4,0,0,0,.73,3.53,18.83,18.83,0,0,0,1.52,3.37,24.53,24.53,0,0,0,2.12,3.09,23.86,23.86,0,0,0,2.57,2.74l0,0a.6.6,0,0,1,.05.85.62.62,0,0,1-.82.08,24.66,24.66,0,0,1-3-2.71,25.52,25.52,0,0,1-2.5-3.14A19.77,19.77,0,0,1,128,296a17.4,17.4,0,0,1-1.14-4l2.2.42h0a28.21,28.21,0,0,0-1.42,2.92,31,31,0,0,0-1.12,3.1,20.2,20.2,0,0,0-1,6.44v0a.62.62,0,0,1-1.23.08Z"/><line class="cls-4" x1="67.95" y1="323.19" x2="209.6" y2="323.19"/><path class="cls-4" d="M80.87,93l2.26-2.26c.8-.75,1.59-1.51,2.38-2.3C97.27,76.68,103.68,64,99.84,60.19S83.53,63,71.78,74.7,53.53,99,57.27,102.76L21.68,67.17c-3.74-3.74,2.75-16.3,14.51-28.06S60.5,20.86,64.25,24.6L99.84,60.19"/><path class="cls-11" d="M66.83,80.33l6.66,5.43L80.87,93c.8-.74,3.85-3.77,4.64-4.56C97.27,76.68,103.68,64,99.84,60.19S83.53,63,71.78,74.7"/><path class="cls-12" d="M66.83,80.33C58.11,89.9,54.49,100,57.27,102.76c0,0,26.06,23.52,31.23,83.23h0c2.11-2.08,3.52-5,7.44-5,6.12,0,6.12,7,12.24,7s6.11-7,12.23-7a7,7,0,0,1,1.16.09l0-.19c-10.11-70.14-54.77-100.6-54.77-100.6"/><path class="cls-4" d="M217.32,154.38h0a13.43,13.43,0,0,0-13.43,13.43v104a7.76,7.76,0,0,1-7.75,7.76H81.42a7.76,7.76,0,0,1-7.76-7.76v-104a13.43,13.43,0,0,0-13.43-13.43h0"/></g></g></svg>