<svg xmlns="http://www.w3.org/2000/svg" viewBox="0 0 162.25 368.24"><defs><style>.cls-1,.cls-2{fill:none;stroke:#17306d;stroke-linecap:round;stroke-linejoin:round;}.cls-1{stroke-width:2.34px;}.cls-2{stroke-width:1.17px;}.cls-3,.cls-4{fill:#17306d;}.cls-3{opacity:0.5;}</style></defs><g id="Layer_2" data-name="Layer 2"><g id="Layer_1-2" data-name="Layer 1"><path class="cls-1" d="M161.08,30.17c0,9-35.8,16.32-80,16.32s-80-7.31-80-16.32"/><path class="cls-1" d="M75.54,181.69c-23.73-.39-44.1-3.2-55.12-7.23"/><path class="cls-1" d="M141.83,174.46c-11.46,4.19-33,7.07-58,7.26"/><path class="cls-1" d="M141.83,174.46s13.95-4.19,14.07-13.69c.06-5.1,0-124.83,0-124.83"/><path class="cls-1" d="M20.42,174.46s-14-4.19-14.07-13.69c-.06-5.1-.06-40.22,0-66h0c0-19.64,0-58.77,0-58.77"/><line class="cls-1" x1="1.17" y1="30.17" x2="1.17" y2="17.49"/><line class="cls-1" x1="161.08" y1="30.17" x2="161.08" y2="17.49"/><path class="cls-1" d="M83.82,157.07a9.79,9.79,0,1,1-8.24,0"/><path class="cls-1" d="M78.07,165.36h3.26c1,0,1.81-.39,1.85-.87l1.35-15.75c.09-1-1-1.77-2.45-1.77H77.32c-1.43,0-2.54.81-2.45,1.77l1.35,15.75C76.26,165,77.09,165.36,78.07,165.36Z"/><polyline class="cls-1" points="84.54 174.46 82.5 196.31 76.91 196.31 74.86 174.46"/><ellipse class="cls-1" cx="81.13" cy="17.49" rx="79.96" ry="16.32"/><path class="cls-2" d="M89.12,227.5c0,1-4.05,1.85-9,1.85s-9-.83-9-1.85"/><path class="cls-1" d="M87.49,235.15l1.18-2.43a11.14,11.14,0,0,0,.45-3.11V227.5c0-1-4.05-1.84-9-1.84s-9,.83-9,1.84v2.11a11.14,11.14,0,0,0,.45,3.11l1.18,2.43c0,3.38-2,27.25-3.64,30.21l-7.7,14a16.07,16.07,0,0,0-1.85,7.47v69.31a12.58,12.58,0,0,0,1.39,5.73l.76,1.46c0,2.06,8.18,3.73,18.26,3.73s18.25-1.67,18.25-3.73l.76-1.46a12.58,12.58,0,0,0,1.39-5.73V286.84a16,16,0,0,0-1.85-7.47l-7.69-14C89.11,262.4,87.49,238.53,87.49,235.15Z"/><path class="cls-3" d="M70.63,255c-.66,4.63-1.38,8.53-2,9.63l-7.69,14a16.08,16.08,0,0,0-1.85,7.48v69.3a12.55,12.55,0,0,0,1.39,5.73l.76,1.47c0,2,8.17,3.72,18.25,3.72s18.26-1.67,18.26-3.72l.76-1.47a12.55,12.55,0,0,0,1.39-5.73v-69.3a16.08,16.08,0,0,0-1.85-7.48l-7.7-14c-.61-1.09-1.16-4.94-1.61-9.54"/><path class="cls-2" d="M84,235.82c-.88.06-1.82.09-2.8.09s-1.91,0-2.79-.09"/><rect class="cls-3" x="78.08" y="196.31" width="3.64" height="57.92"/><ellipse class="cls-4" cx="80.09" cy="255.1" rx="9.03" ry="2.15"/></g></g></svg>