<svg xmlns="http://www.w3.org/2000/svg" viewBox="0 0 309.61 167.82"><defs><style>.cls-1,.cls-7{fill:#17306d;}.cls-1{opacity:0.5;}.cls-2,.cls-3,.cls-4,.cls-5,.cls-6{fill:none;stroke-linecap:round;stroke-linejoin:round;}.cls-2,.cls-3,.cls-5,.cls-6{stroke:#17306d;}.cls-2{stroke-width:2.34px;}.cls-3,.cls-4{stroke-width:1.17px;}.cls-4{stroke:#fff;}.cls-5{stroke-width:1.76px;}.cls-6{stroke-width:2px;}.cls-7{font-size:18px;font-family:FilsonPro-Regular, Filson Pro;}</style></defs><g id="Layer_2" data-name="Layer 2"><g id="Layer_1-2" data-name="Layer 1"><path class="cls-1" d="M107.44,77.29c-.54,6.82-.68,13.77-.72,17.51a6.57,6.57,0,0,1-2.23,4.87c-.58.51-1.17.92-1.51,1.19-3.44,2.8-12.36,2.12-12.25,7.31.06,2.83,2.75-.53,3.92,1.13,2.45,3.47-6.61,6.86-9.77,8.23-1.67.74-16-3.27-30.84-3.55-31-.59-42.81,4-43.78,7.14L6.2,125.5c-2.94,3,2.85,13.47,12.94,23.4s20.66,15.55,23.6,12.56l41.84-37.05,28.74-24.84V83.8c0-24.69,6.59-29.64,6.59-29.64a24.69,24.69,0,0,0,.18-2.64l0-1.47C109.85,55.44,108.18,67.9,107.44,77.29Z"/><ellipse class="cls-2" cx="97.52" cy="69.8" rx="10.89" ry="36.75" transform="translate(-20.63 90.36) rotate(-45.46)"/><path class="cls-2" d="M71.33,44,2,125.24c-3.31,3.37,3.21,15.17,14.58,26.36s23.27,17.52,26.59,14.15l80.51-70.17"/><path class="cls-3" d="M20.55,147.6a59.66,59.66,0,0,0,13,10A20.76,20.76,0,0,0,36.71,159"/><path class="cls-3" d="M10,134.16a44.21,44.21,0,0,0,4.52,6.78"/><path class="cls-3" d="M9.67,128.92c2.39-2.43,11,2.14,19.17,10.21s12.91,16.58,10.52,19"/><path class="cls-4" d="M85.47,124.42c-4.74,3.39-19.48,5.85-36.94,5.85-21.28,0-38.53-3.67-38.53-8.19s17.25-8.2,38.53-8.2c12.44,0,23.51,1.26,30.56,3.2.72.21,4.4,1.27,8.93-1.79"/><path class="cls-3" d="M117.73,32.82c1.38-.13,3,5.24,3.67,12s0,12.34-1.33,12.48"/><path class="cls-5" d="M128.31,34l-3.44-1.28a14.93,14.93,0,0,0-4.28-.2l-2.86.27c-1.38.13-2,5.72-1.33,12.48s2.29,12.14,3.67,12l2.86-.28a15,15,0,0,0,4.16-1l3.14-1.91c4.59-.44,37.22-.84,41.44,1l20,8.62a21.81,21.81,0,0,0,10.38,1.54l94-9a17.08,17.08,0,0,0,7.59-2.63l1.89-1.22c2.79-.27,4-11.57,2.69-25.24s-4.63-24.54-7.42-24.27L298.7,2.1a17.16,17.16,0,0,0-8-1.15l-94,9a21.93,21.93,0,0,0-9.9,3.48l-18,12.25C165.06,28.3,132.9,33.59,128.31,34Z"/><path class="cls-3" d="M129.68,38.75c.2,1.19.36,2.46.49,3.78s.2,2.6.24,3.79"/><path class="cls-3" d="M299,6.9s2.81,5.77,4.27,18.29"/><path class="cls-3" d="M303.87,31.21c.19,2.78.25,5.24.23,7.31"/><path class="cls-3" d="M119.91,54.16a47.19,47.19,0,0,0-.1-9.07A45.68,45.68,0,0,0,118.13,36"/><line class="cls-6" x1="72.46" y1="166.65" x2="130.05" y2="166.65"/><line class="cls-6" x1="113.07" y1="125.82" x2="72.46" y2="166.44"/><path class="cls-6" d="M95.19,143.71a32.21,32.21,0,0,1,9.56,22.94"/><text class="cls-7" transform="translate(116.88 152.64)">45°</text></g></g></svg>