<svg id="Layer_1" data-name="Layer 1" xmlns="http://www.w3.org/2000/svg" xmlns:xlink="http://www.w3.org/1999/xlink" viewBox="0 0 324.444 324.36"><defs><pattern id="USGS_22_Gravel_Beach_4" data-name="USGS 22 Gravel Beach 4" width="72" height="72" patternTransform="translate(-74.12 -350.25) scale(0.99)" patternUnits="userSpaceOnUse" viewBox="0 0 72 72"><rect width="72" height="72" style="fill:none"/><rect width="72" height="72" style="fill:none"/><rect width="72" height="72" style="fill:none"/><path d="M72.25,58a.35.35,0,0,1-.25-.6.38.38,0,0,1,.5,0,.35.35,0,0,1-.25.6Z" style="fill:#fff"/><path d="M20.75,3.22a.391.391,0,0,1-.25-.1.347.347,0,1,1,.506-.474.339.339,0,0,1-.24.574Z" style="fill:#fff"/><path d="M19.75,8.47a.34.34,0,0,1-.35-.33h0V8.12a.332.332,0,0,1,.11-.25.369.369,0,0,1,.49,0,.363.363,0,0,1,.1.25.391.391,0,0,1-.1.25A.369.369,0,0,1,19.75,8.47Z" style="fill:#fff"/><path d="M20,10.72a.35.35,0,0,1-.25-.6.369.369,0,0,1,.5,0,.35.35,0,0,1-.25.6Z" style="fill:#fff"/><path d="M15,10.72a.34.34,0,0,1-.35-.33h0v-.02a.369.369,0,0,1,.1-.25.38.38,0,0,1,.5,0,.35.35,0,0,1-.25.6Z" style="fill:#fff"/><path d="M22.5,20.22a.35.35,0,0,1-.25-.6.36.36,0,0,1,.6.25.34.34,0,0,1-.33.35H22.5Z" style="fill:#fff"/><path d="M15,23.22a.34.34,0,0,1-.35-.33h0v-.02a.332.332,0,0,1,.11-.25.369.369,0,0,1,.49,0,.363.363,0,0,1,.1.25.34.34,0,0,1-.33.35H15Z" style="fill:#fff"/><path d="M13.75,24.22a.35.35,0,0,1-.25-.6.36.36,0,0,1,.6.25.391.391,0,0,1-.1.25A.369.369,0,0,1,13.75,24.22Z" style="fill:#fff"/><path d="M23.75,27.22a.34.34,0,0,1-.35-.33h0v-.02a.332.332,0,0,1,.11-.25.369.369,0,0,1,.49,0,.391.391,0,0,1,.1.25.348.348,0,0,1-.1.24A.358.358,0,0,1,23.75,27.22Z" style="fill:#fff"/><path d="M30.5,26a.35.35,0,0,1-.25-.6.36.36,0,0,1,.6.25.34.34,0,0,1-.33.35H30.5Z" style="fill:#fff"/><path d="M31,23.47a.34.34,0,0,1-.35-.33h0v-.02a.332.332,0,0,1,.11-.25.35.35,0,0,1,.59.25.391.391,0,0,1-.1.25A.369.369,0,0,1,31,23.47Z" style="fill:#fff"/><path d="M29,18.47a.35.35,0,0,1-.25-.6.36.36,0,0,1,.6.25.34.34,0,0,1-.33.35H29Z" style="fill:#fff"/><path d="M33.75,20a.35.35,0,0,1-.25-.6.36.36,0,0,1,.6.25.34.34,0,0,1-.33.35h-.02Z" style="fill:#fff"/><path d="M31.25,15a.35.35,0,0,1-.25-.6.36.36,0,0,1,.6.25.34.34,0,0,1-.33.35h-.02Z" style="fill:#fff"/><path d="M31.5,12a.35.35,0,0,1-.25-.6.369.369,0,0,1,.5,0,.35.35,0,0,1-.25.6Z" style="fill:#fff"/><path d="M32,7.22a.35.35,0,0,1-.25-.6.36.36,0,0,1,.6.25.34.34,0,0,1-.33.35H32Z" style="fill:#fff"/><path d="M31.75,3.22a.342.342,0,0,1-.35-.334V2.87a.332.332,0,0,1,.11-.25.35.35,0,0,1,.59.25.342.342,0,0,1-.334.35Z" style="fill:#fff"/><path d="M33.75,1.47a.358.358,0,0,1-.25-.11.338.338,0,0,1,0-.479L33.51.87a.345.345,0,0,1,.59.25.339.339,0,0,1-.11.25A.348.348,0,0,1,33.75,1.47Z" style="fill:#fff"/><path d="M41.25,7.22a.391.391,0,0,1-.25-.1.354.354,0,0,1-.1-.25.391.391,0,0,1,.1-.25.351.351,0,0,1,.49,0,.358.358,0,0,1,.11.25.34.34,0,0,1-.33.35h-.02Z" style="fill:#fff"/><path d="M45.25,7A.391.391,0,0,1,45,6.9a.347.347,0,0,1,.506-.474A.339.339,0,0,1,45.27,7h-.02Z" style="fill:#fff"/><path d="M42.25,13.72a.34.34,0,0,1-.35-.33h0v-.02a.332.332,0,0,1,.11-.25.35.35,0,0,1,.59.25.34.34,0,0,1-.33.35h-.02Z" style="fill:#fff"/><path d="M46.75,14.47a.34.34,0,0,1-.35-.33h0v-.02a.332.332,0,0,1,.11-.25.361.361,0,0,1,.49,0,.391.391,0,0,1,.1.25.329.329,0,0,1-.1.24A.358.358,0,0,1,46.75,14.47Z" style="fill:#fff"/><path d="M46.75,16.47a.34.34,0,0,1-.35-.33h0v-.02a.332.332,0,0,1,.11-.25.361.361,0,0,1,.49,0,.391.391,0,0,1,.1.25.371.371,0,0,1-.1.24A.358.358,0,0,1,46.75,16.47Z" style="fill:#fff"/><path d="M38.75,21a.35.35,0,0,1-.25-.6.361.361,0,0,1,.49,0,.347.347,0,0,1-.22.6Z" style="fill:#fff"/><path d="M50,13.72a.391.391,0,0,1-.25-.1.359.359,0,0,1,0-.5.369.369,0,0,1,.5,0,.35.35,0,0,1-.25.6Z" style="fill:#fff"/><path d="M52,12.22a.358.358,0,0,1-.25-.11.348.348,0,0,1-.1-.24.332.332,0,0,1,.11-.25.369.369,0,0,1,.49,0,.363.363,0,0,1,.1.25.34.34,0,0,1-.33.35H52Z" style="fill:#fff"/><path d="M54.5,11.22a.358.358,0,0,1-.25-.11.348.348,0,0,1-.1-.24.332.332,0,0,1,.11-.25.35.35,0,0,1,.59.25.34.34,0,0,1-.33.35H54.5Z" style="fill:#fff"/><path d="M56.25,1A.376.376,0,0,1,56,.37a.359.359,0,0,1,.5,0,.348.348,0,0,1,.1.24A.417.417,0,0,1,56.25,1Z" style="fill:#fff"/><path d="M67.75,3.22a.342.342,0,0,1-.35-.334V2.87a.332.332,0,0,1,.11-.25.369.369,0,0,1,.49,0,.363.363,0,0,1,.1.25.391.391,0,0,1-.1.25A.369.369,0,0,1,67.75,3.22Z" style="fill:#fff"/><path d="M67.75,10.47a.358.358,0,0,1-.25-.11.348.348,0,0,1-.1-.24.391.391,0,0,1,.1-.25.369.369,0,0,1,.5,0,.391.391,0,0,1,.1.25.339.339,0,0,1-.11.25A.348.348,0,0,1,67.75,10.47Z" style="fill:#fff"/><path d="M64,12.47a.35.35,0,0,1-.25-.6.36.36,0,0,1,.6.25.34.34,0,0,1-.33.35H64Z" style="fill:#fff"/><path d="M65,16a.34.34,0,0,1-.35-.33h0v-.02a.369.369,0,0,1,.1-.25.38.38,0,0,1,.5,0A.35.35,0,0,1,65,16Z" style="fill:#fff"/><path d="M63.75,20a.358.358,0,0,1-.25-.11.348.348,0,0,1-.1-.24.391.391,0,0,1,.1-.25.369.369,0,0,1,.5,0,.391.391,0,0,1,.1.25.339.339,0,0,1-.11.25A.348.348,0,0,1,63.75,20Z" style="fill:#fff"/><path d="M66,20a.34.34,0,0,1-.35-.33h0v-.02a.332.332,0,0,1,.11-.25.369.369,0,0,1,.49,0,.363.363,0,0,1,.1.25.34.34,0,0,1-.33.35H66Z" style="fill:#fff"/><path d="M67.75,21.47a.35.35,0,0,1-.25-.6.369.369,0,0,1,.5,0,.35.35,0,0,1-.25.6Z" style="fill:#fff"/><path d="M6.75,52.47a.35.35,0,0,1-.25-.6.38.38,0,0,1,.5,0,.35.35,0,0,1-.25.6Z" style="fill:#fff"/><path d="M7,54.72a.35.35,0,0,1-.25-.6.369.369,0,0,1,.5,0,.35.35,0,0,1-.25.6Z" style="fill:#fff"/><path d="M2,54.72a.391.391,0,0,1-.25-.1.359.359,0,0,1,0-.5.38.38,0,0,1,.5,0,.359.359,0,0,1,0,.5A.391.391,0,0,1,2,54.72Z" style="fill:#fff"/><path d="M9.5,64.22a.35.35,0,0,1-.25-.6.36.36,0,0,1,.6.25.34.34,0,0,1-.33.35H9.5Z" style="fill:#fff"/><path d="M.75,68.22a.391.391,0,0,1-.25-.1.359.359,0,0,1,0-.5.38.38,0,0,1,.5,0,.359.359,0,0,1,0,.5A.391.391,0,0,1,.75,68.22Z" style="fill:#fff"/><path d="M10.75,71.22a.35.35,0,0,1-.25-.6.38.38,0,0,1,.5,0,.35.35,0,0,1-.25.6Z" style="fill:#fff"/><path d="M18,67.47a.34.34,0,0,1-.35-.33h0v-.02a.345.345,0,0,1,.59-.25.358.358,0,0,1,.11.25.34.34,0,0,1-.33.35H18Z" style="fill:#fff"/><path d="M16,62.47a.35.35,0,0,1-.25-.6.369.369,0,0,1,.5,0,.35.35,0,0,1-.25.6Z" style="fill:#fff"/><path d="M19.25,58a.34.34,0,0,1-.35-.33h0v-.02a.332.332,0,0,1,.11-.25.369.369,0,0,1,.49,0,.363.363,0,0,1,.1.25.34.34,0,0,1-.33.35h-.02Z" style="fill:#fff"/><path d="M18.5,56a.34.34,0,0,1-.35-.33h0v-.02a.332.332,0,0,1,.11-.25.369.369,0,0,1,.49,0,.363.363,0,0,1,.1.25.34.34,0,0,1-.33.35H18.5Z" style="fill:#fff"/><path d="M16,55a.34.34,0,0,1-.35-.33h0v-.02a.332.332,0,0,1,.11-.25.369.369,0,0,1,.49,0,.363.363,0,0,1,.1.25.34.34,0,0,1-.33.35H16Z" style="fill:#fff"/><path d="M19,51.22a.34.34,0,0,1-.35-.33h0v-.02a.332.332,0,0,1,.11-.25.369.369,0,0,1,.49,0,.363.363,0,0,1,.1.25.34.34,0,0,1-.33.35H19Z" style="fill:#fff"/><path d="M18.75,47.22a.35.35,0,0,1-.25-.6.38.38,0,0,1,.5,0,.35.35,0,0,1-.25.6Z" style="fill:#fff"/><path d="M16,47.47a.35.35,0,0,1-.25-.6.369.369,0,0,1,.5,0,.35.35,0,0,1-.25.6Z" style="fill:#fff"/><path d="M32.25,51a.34.34,0,0,1-.35-.33h0v-.02a.332.332,0,0,1,.11-.25.35.35,0,0,1,.59.25.34.34,0,0,1-.33.35h-.02Z" style="fill:#fff"/><path d="M27,54.47a.35.35,0,0,1-.25-.6.369.369,0,0,1,.5,0,.35.35,0,0,1-.25.6Z" style="fill:#fff"/><path d="M31.75,56a.35.35,0,0,1-.25-.6.369.369,0,0,1,.5,0,.35.35,0,0,1-.25.6Z" style="fill:#fff"/><path d="M31.75,57.72a.35.35,0,0,1-.245-.6l.005,0a.369.369,0,0,1,.5,0,.363.363,0,0,1,.1.25.34.34,0,0,1-.33.35h-.03Z" style="fill:#fff"/><path d="M33.75,58.47a.35.35,0,0,1-.25-.6.369.369,0,0,1,.5,0,.35.35,0,0,1-.25.6Z" style="fill:#fff"/><path d="M25.75,65a.35.35,0,0,1-.25-.6.36.36,0,0,1,.6.25.34.34,0,0,1-.33.35h-.02Z" style="fill:#fff"/><path d="M35.75,56.47a.35.35,0,0,1-.25-.6.36.36,0,0,1,.6.25.34.34,0,0,1-.33.35h-.02Z" style="fill:#fff"/><path d="M39,56.22a.348.348,0,0,1-.24-.1.358.358,0,0,1-.11-.25.391.391,0,0,1,.1-.25.369.369,0,0,1,.5,0,.35.35,0,0,1-.25.6Z" style="fill:#fff"/><path d="M41.5,51a.35.35,0,0,1-.25-.6.369.369,0,0,1,.5,0,.35.35,0,0,1-.25.6Z" style="fill:#fff"/><path d="M43.25,45a.358.358,0,0,1-.25-.11.348.348,0,0,1-.1-.24.391.391,0,0,1,.1-.25.369.369,0,0,1,.5,0,.35.35,0,0,1-.25.6Z" style="fill:#fff"/><path d="M50.75,50.72a.391.391,0,0,1-.25-.1.363.363,0,0,1-.1-.25.391.391,0,0,1,.1-.25.359.359,0,0,1,.5,0,.35.35,0,0,1-.25.6Z" style="fill:#fff"/><path d="M51.75,46.72a.358.358,0,0,1-.25-.11.348.348,0,0,1-.1-.24.332.332,0,0,1,.11-.25.369.369,0,0,1,.49,0,.363.363,0,0,1,.1.25.34.34,0,0,1-.33.35h-.02Z" style="fill:#fff"/><path d="M54.75,47.22a.332.332,0,0,1-.25-.11.348.348,0,0,1-.1-.24.369.369,0,0,1,.1-.25.361.361,0,0,1,.49,0,.347.347,0,0,1-.22.6Z" style="fill:#fff"/><path d="M54.75,54.47a.332.332,0,0,1-.25-.11.348.348,0,0,1-.1-.24.332.332,0,0,1,.11-.25.369.369,0,0,1,.49,0,.363.363,0,0,1,.1.25.34.34,0,0,1-.33.35h-.02Z" style="fill:#fff"/><path d="M51,56.47a.35.35,0,0,1-.25-.6.369.369,0,0,1,.5,0,.354.354,0,0,1,.1.25.391.391,0,0,1-.1.25A.369.369,0,0,1,51,56.47Z" style="fill:#fff"/><path d="M50.75,64a.34.34,0,0,1-.35-.33h0v-.02a.31.31,0,0,1,.1-.24.341.341,0,0,1,.481-.009l.009.009a.358.358,0,0,1,.11.25.391.391,0,0,1-.1.25A.368.368,0,0,1,50.75,64Z" style="fill:#fff"/><path d="M53,64a.34.34,0,0,1-.35-.33h0v-.02a.332.332,0,0,1,.11-.25.361.361,0,0,1,.49,0,.31.31,0,0,1,.1.24.341.341,0,0,1-.319.36Z" style="fill:#fff"/><path d="M55.75,63.22a.35.35,0,0,1-.25-.6.36.36,0,0,1,.6.25.34.34,0,0,1-.33.35h-.02Z" style="fill:#fff"/><path d="M58,61.72a.358.358,0,0,1-.25-.11.348.348,0,0,1-.1-.24.391.391,0,0,1,.1-.25.35.35,0,0,1,.6.25.34.34,0,0,1-.33.35H58Z" style="fill:#fff"/><path d="M20.75,27.22a.35.35,0,0,1-.25-.6.36.36,0,0,1,.6.25.34.34,0,0,1-.33.35h-.02Z" style="fill:#fff"/><path d="M22.5,24.22a.35.35,0,0,1-.25-.6.369.369,0,0,1,.5,0,.35.35,0,0,1-.25.6Z" style="fill:#fff"/><path d="M38.75,25a.35.35,0,0,1-.25-.6.369.369,0,0,1,.5,0,.35.35,0,0,1-.25.6Z" style="fill:#fff"/><path d="M46,29.22a.391.391,0,0,1-.25-.1.351.351,0,0,1,0-.49.341.341,0,0,1,.481-.009l.009.009a.358.358,0,0,1,.11.25.34.34,0,0,1-.33.35H46Z" style="fill:#fff"/><path d="M55,28.22a.35.35,0,0,1-.25-.6.369.369,0,0,1,.5,0,.35.35,0,0,1-.25.6Z" style="fill:#fff"/><path d="M51,25.47a.35.35,0,0,1-.25-.6.369.369,0,0,1,.5,0,.354.354,0,0,1,.1.25.34.34,0,0,1-.33.35H51Z" style="fill:#fff"/><path d="M51.75,29.72a.369.369,0,0,1-.25-.1.347.347,0,0,1,.506-.474.339.339,0,0,1-.236.574h-.02Z" style="fill:#fff"/><path d="M62.25,35.72a.34.34,0,0,1-.35-.33h0v-.02a.332.332,0,0,1,.11-.25.361.361,0,0,1,.49,0,.31.31,0,0,1,.1.24.34.34,0,0,1-.33.35h-.02Z" style="fill:#fff"/><path d="M56.5,39.22a.35.35,0,0,1-.25-.6.36.36,0,0,1,.6.25.34.34,0,0,1-.33.35H56.5Z" style="fill:#fff"/><path d="M48,37.47a.348.348,0,0,1-.24-.1.358.358,0,0,1-.11-.25.391.391,0,0,1,.1-.25.359.359,0,0,1,.5,0,.329.329,0,0,1,.1.24.34.34,0,0,1-.33.35H48Z" style="fill:#fff"/><path d="M47.75,41.47a.332.332,0,0,1-.25-.11.348.348,0,0,1-.1-.24.391.391,0,0,1,.1-.25.38.38,0,0,1,.5,0,.35.35,0,0,1-.25.6Z" style="fill:#fff"/><path d="M53.25,45.22a.339.339,0,0,1-.25-.11.31.31,0,0,1-.1-.24.339.339,0,0,1,.11-.25.369.369,0,0,1,.49,0,.35.35,0,0,1-.25.6Z" style="fill:#fff"/><path d="M62,48.22a.34.34,0,0,1-.35-.33h0v-.02a.332.332,0,0,1,.11-.25.361.361,0,0,1,.49,0,.31.31,0,0,1,.1.24.34.34,0,0,1-.33.35H62Z" style="fill:#fff"/><path d="M64.75,52a.34.34,0,0,1-.35-.33h0v-.02a.332.332,0,0,1,.11-.25.369.369,0,0,1,.49,0,.363.363,0,0,1,.1.25.34.34,0,0,1-.33.35h-.02Z" style="fill:#fff"/><path d="M69.25,45.22a.35.35,0,0,1-.25-.6.369.369,0,0,1,.5,0,.35.35,0,0,1-.25.6Z" style="fill:#fff"/><path d="M59.75,39.22a.332.332,0,0,1-.25-.11.348.348,0,0,1-.1-.24.339.339,0,0,1,.11-.25.35.35,0,1,1,.49.5A.369.369,0,0,1,59.75,39.22Z" style="fill:#fff"/><path d="M32.25,47.22a.35.35,0,0,1-.25-.6.36.36,0,0,1,.6.25.34.34,0,0,1-.33.35h-.02Z" style="fill:#fff"/><path d="M26,38a.35.35,0,0,1-.25-.6.36.36,0,0,1,.6.25.34.34,0,0,1-.33.35H26Z" style="fill:#fff"/><path d="M29.5,35.72a.348.348,0,0,1-.24-.1.358.358,0,0,1-.11-.25.332.332,0,0,1,.11-.25.369.369,0,0,1,.49,0,.363.363,0,0,1,.1.25.34.34,0,0,1-.33.35H29.5Z" style="fill:#fff"/><path d="M10.25,29.72a.35.35,0,0,1-.25-.6.369.369,0,0,1,.49,0,.332.332,0,0,1,.11.25.34.34,0,0,1-.33.35h-.02Z" style="fill:#fff"/><path d="M5.75,31.72a.35.35,0,0,1-.25-.6.361.361,0,0,1,.49,0,.332.332,0,0,1,.11.25.369.369,0,0,1-.1.25A.391.391,0,0,1,5.75,31.72Z" style="fill:#fff"/><path d="M2.25,35.47a.391.391,0,0,1-.25-.1.359.359,0,0,1,0-.5.369.369,0,0,1,.5,0,.354.354,0,0,1,.1.25.329.329,0,0,1-.1.24A.358.358,0,0,1,2.25,35.47Z" style="fill:#fff"/><path d="M16.75,42.22a.34.34,0,0,1-.35-.33h0v-.02a.332.332,0,0,1,.11-.25.35.35,0,0,1,.59.25.391.391,0,0,1-.1.25A.369.369,0,0,1,16.75,42.22Z" style="fill:#fff"/><path d="M12.5,36.22a.34.34,0,0,1-.35-.33h0v-.02a.332.332,0,0,1,.11-.25.369.369,0,0,1,.49,0,.363.363,0,0,1,.1.25.391.391,0,0,1-.1.25A.369.369,0,0,1,12.5,36.22Z" style="fill:#fff"/><path d="M26.25,30.47a.35.35,0,0,1-.25-.6.369.369,0,0,1,.5,0,.35.35,0,0,1-.25.6Z" style="fill:#fff"/><path d="M39,31a.35.35,0,0,1-.25-.6.369.369,0,0,1,.5,0,.359.359,0,0,1,0,.5A.369.369,0,0,1,39,31Z" style="fill:#fff"/><path d="M38,33a.35.35,0,0,1-.25-.6.369.369,0,0,1,.5,0A.35.35,0,0,1,38,33Z" style="fill:#fff"/><path d="M27.75,42.22a.35.35,0,0,1-.25-.6.369.369,0,0,1,.5,0,.35.35,0,0,1-.25.6Z" style="fill:#fff"/><path d="M6.25,20.72a.35.35,0,0,1-.25-.6.369.369,0,0,1,.5,0,.35.35,0,0,1-.25.6Z" style="fill:#fff"/><path d="M9.5,19a.35.35,0,0,1-.25-.6.36.36,0,0,1,.6.25.34.34,0,0,1-.33.35H9.5Z" style="fill:#fff"/><path d="M11.5,23.72a.34.34,0,0,1-.35-.33h0v-.02a.332.332,0,0,1,.11-.25.369.369,0,0,1,.49,0,.363.363,0,0,1,.1.25.391.391,0,0,1-.1.25A.369.369,0,0,1,11.5,23.72Z" style="fill:#fff"/><path d="M2.75,26a.391.391,0,0,1-.25-.1.359.359,0,0,1,0-.5.38.38,0,0,1,.5,0,.359.359,0,0,1,0,.5A.391.391,0,0,1,2.75,26Z" style="fill:#fff"/><path d="M64,29.72a.348.348,0,0,1-.24-.1.358.358,0,0,1-.11-.25.391.391,0,0,1,.1-.25.36.36,0,0,1,.6.25.34.34,0,0,1-.33.35H64Z" style="fill:#fff"/><path d="M69.25,30a.34.34,0,0,1-.35-.33h0v-.02a.339.339,0,0,1,.11-.25.369.369,0,0,1,.49,0,.363.363,0,0,1,.1.25.391.391,0,0,1-.1.25A.369.369,0,0,1,69.25,30Z" style="fill:#fff"/><path d="M1.25,9.22A.391.391,0,0,1,1,9.12a.359.359,0,0,1,0-.5.38.38,0,0,1,.5,0,.359.359,0,0,1,0,.5A.391.391,0,0,1,1.25,9.22Z" style="fill:#fff"/><path d="M16.25,6.22a.34.34,0,0,1-.35-.33h0V5.87a.369.369,0,0,1,.1-.25.38.38,0,0,1,.5,0,.35.35,0,0,1-.25.6Z" style="fill:#fff"/><path d="M3.5,6.22a.35.35,0,0,1-.25-.6.36.36,0,0,1,.6.25.34.34,0,0,1-.33.35H3.5Z" style="fill:#fff"/><path d="M12.5,14.47a.35.35,0,0,1-.25-.6.36.36,0,0,1,.6.25.34.34,0,0,1-.33.35H12.5Z" style="fill:#fff"/><path d="M18.25,19.47a.34.34,0,0,1-.35-.33h0v-.02a.369.369,0,0,1,.1-.25.36.36,0,0,1,.6.25.34.34,0,0,1-.33.35h-.02Z" style="fill:#fff"/><path d="M21,37.22a.34.34,0,0,1-.35-.33h0v-.02a.345.345,0,0,1,.59-.25.358.358,0,0,1,.11.25.34.34,0,0,1-.33.35H21Z" style="fill:#fff"/><path d="M.5,44.47a.391.391,0,0,1-.25-.1.391.391,0,0,1-.1-.25.332.332,0,0,1,.11-.25.369.369,0,0,1,.49,0,.363.363,0,0,1,.1.25.391.391,0,0,1-.1.25A.391.391,0,0,1,.5,44.47Z" style="fill:#fff"/><path d="M67.75,66.22a.34.34,0,0,1-.35-.33h0v-.02a.332.332,0,0,1,.11-.25.369.369,0,0,1,.49,0,.363.363,0,0,1,.1.25.34.34,0,0,1-.33.35h-.02Z" style="fill:#fff"/><path d="M59.5,70a.391.391,0,0,1-.25-.1.354.354,0,0,1-.1-.25.391.391,0,0,1,.1-.25.369.369,0,0,1,.5,0,.363.363,0,0,1,.1.25.369.369,0,0,1-.1.25A.391.391,0,0,1,59.5,70Z" style="fill:#fff"/><path d="M40.25,68.22a.35.35,0,0,1-.25-.6.369.369,0,0,1,.5,0,.359.359,0,0,1,0,.5A.369.369,0,0,1,40.25,68.22Z" style="fill:#fff"/><path d="M4.25,60.22a.35.35,0,0,1-.25-.6.36.36,0,0,1,.6.25.34.34,0,0,1-.33.35H4.25Z" style="fill:#fff"/><path d="M26.25,59.72a.35.35,0,0,1-.25-.6.36.36,0,0,1,.6.25.34.34,0,0,1-.33.35h-.02Z" style="fill:#fff"/><path d="M37,48.72a.34.34,0,0,1-.35-.33h0v-.02a.35.35,0,0,1,.6-.25.359.359,0,0,1,0,.5A.369.369,0,0,1,37,48.72Z" style="fill:#fff"/><path d="M8.5,40.47a.35.35,0,0,1-.25-.6.36.36,0,0,1,.6.25.34.34,0,0,1-.33.35H8.5Z" style="fill:#fff"/><path d="M52,38.22a.358.358,0,0,1-.25-.11.348.348,0,0,1-.1-.24.332.332,0,0,1,.11-.25.369.369,0,0,1,.49,0,.363.363,0,0,1,.1.25.34.34,0,0,1-.33.35H52Z" style="fill:#fff"/><path d="M60.5,46.22a.34.34,0,0,1-.35-.33h0v-.02a.332.332,0,0,1,.11-.25.369.369,0,0,1,.49,0,.363.363,0,0,1,.1.25.34.34,0,0,1-.33.35H60.5Z" style="fill:#fff"/><path d="M51,66.47a.35.35,0,0,1-.25-.6.369.369,0,0,1,.5,0,.391.391,0,0,1,.1.25.354.354,0,0,1-.1.25A.391.391,0,0,1,51,66.47Z" style="fill:#fff"/><path d="M39.75,38a.35.35,0,0,1-.25-.6.36.36,0,0,1,.6.25.34.34,0,0,1-.33.35h-.02Z" style="fill:#fff"/><path d="M27.25,13.72a.35.35,0,0,1-.25-.6.36.36,0,0,1,.6.25.34.34,0,0,1-.33.35h-.02Z" style="fill:#fff"/><path d="M19.5,26.72a.34.34,0,0,1-.35-.33h0v-.02a.345.345,0,0,1,.59-.25.358.358,0,0,1,.11.25.34.34,0,0,1-.33.35H19.5Z" style="fill:#fff"/><path d="M11.5,2a.354.354,0,0,1-.25-.6.38.38,0,0,1,.5,0,.35.35,0,0,1-.25.6Z" style="fill:#fff"/><path d="M55,4a.34.34,0,0,1-.35-.33h0V3.65a.332.332,0,0,1,.11-.25.369.369,0,0,1,.49,0,.363.363,0,0,1,.1.25.34.34,0,0,1-.33.35H55Z" style="fill:#fff"/><path d="M47,70a.391.391,0,0,1-.25-.1.369.369,0,0,1-.1-.25.391.391,0,0,1,.1-.25.36.36,0,0,1,.6.25.34.34,0,0,1-.33.35H47Z" style="fill:#fff"/><path d="M4.5,40.47a.34.34,0,0,1-.35-.33h0v-.02a.332.332,0,0,1,.11-.25.369.369,0,0,1,.49,0,.363.363,0,0,1,.1.25.34.34,0,0,1-.33.35H4.5Z" style="fill:#fff"/><path d="M68.5,13.47a.35.35,0,0,1-.25-.6.369.369,0,0,1,.5,0,.359.359,0,0,1,0,.5A.391.391,0,0,1,68.5,13.47Z" style="fill:#fff"/><path d="M23,14.22a.35.35,0,0,1-.25-.6.36.36,0,0,1,.6.25.34.34,0,0,1-.33.35H23Z" style="fill:#fff"/><path d="M20.25,17.47a.35.35,0,0,1-.25-.6.369.369,0,0,1,.5,0,.35.35,0,0,1-.25.6Z" style="fill:#fff"/><path d="M14.5,17.47a.34.34,0,0,1-.35-.33h0v-.02a.332.332,0,0,1,.11-.25.369.369,0,0,1,.49,0,.363.363,0,0,1,.1.25.34.34,0,0,1-.33.35H14.5Z" style="fill:#fff"/><path d="M5.75,12a.35.35,0,0,1-.25-.6.361.361,0,0,1,.49,0,.332.332,0,0,1,.11.25.34.34,0,0,1-.33.35H5.75Z" style="fill:#fff"/><path d="M6.75,3a.371.371,0,0,1-.24-.1.358.358,0,0,1-.11-.25.391.391,0,0,1,.1-.25.36.36,0,0,1,.6.25A.342.342,0,0,1,6.766,3Z" style="fill:#fff"/><path d="M9.75,8.47a.35.35,0,0,1-.25-.6.36.36,0,0,1,.6.25.34.34,0,0,1-.33.35H9.75Z" style="fill:#fff"/><path d="M14,8.47a.34.34,0,0,1-.35-.33h0V8.12a.332.332,0,0,1,.11-.25.369.369,0,0,1,.49,0,.363.363,0,0,1,.1.25.34.34,0,0,1-.33.35H14Z" style="fill:#fff"/><path d="M25.5,7.22a.35.35,0,0,1-.25-.6.36.36,0,0,1,.6.25.34.34,0,0,1-.33.35H25.5Z" style="fill:#fff"/><path d="M36.75,7.72a.35.35,0,0,1-.25-.6.369.369,0,0,1,.5,0,.35.35,0,0,1-.25.6Z" style="fill:#fff"/><path d="M37.25,4.47a.34.34,0,0,1-.35-.33h0V4.12a.329.329,0,0,1,.1-.25.35.35,0,0,1,.59.25.34.34,0,0,1-.33.35h-.01Z" style="fill:#fff"/><path d="M43,2.47a.354.354,0,0,1-.25-.6.369.369,0,0,1,.5,0,.361.361,0,0,1,0,.5A.419.419,0,0,1,43,2.47Z" style="fill:#fff"/><path d="M49.25,8.47a.391.391,0,0,1-.25-.1.359.359,0,0,1,0-.5.369.369,0,0,1,.5,0,.35.35,0,0,1-.25.6Z" style="fill:#fff"/><path d="M45.75,9.47a.35.35,0,0,1-.25-.6.369.369,0,0,1,.5,0,.359.359,0,0,1,0,.5A.369.369,0,0,1,45.75,9.47Z" style="fill:#fff"/><path d="M35.5,11.22a.34.34,0,0,1-.35-.33h0v-.02a.369.369,0,0,1,.1-.25.36.36,0,0,1,.6.25.34.34,0,0,1-.33.35H35.5Z" style="fill:#fff"/><path d="M39,15.22a.35.35,0,0,1-.25-.6.36.36,0,0,1,.6.25.34.34,0,0,1-.33.35H39Z" style="fill:#fff"/><path d="M24.5,18.22a.35.35,0,0,1-.25-.6.36.36,0,0,1,.6.25.34.34,0,0,1-.33.35H24.5Z" style="fill:#fff"/><path d="M8,27.47a.35.35,0,0,1-.25-.6.36.36,0,0,1,.6.25.34.34,0,0,1-.33.35H8Z" style="fill:#fff"/><path d="M15.75,32a.35.35,0,0,1-.25-.6.38.38,0,0,1,.5,0,.35.35,0,0,1-.25.6Z" style="fill:#fff"/><path d="M10.25,33.72a.34.34,0,0,1-.35-.33h0v-.02a.332.332,0,0,1,.11-.25.369.369,0,0,1,.49,0,.363.363,0,0,1,.1.25.369.369,0,0,1-.1.25A.391.391,0,0,1,10.25,33.72Z" style="fill:#fff"/><path d="M5,37.22a.35.35,0,0,1-.25-.6.38.38,0,0,1,.5,0,.369.369,0,0,1,.1.25.34.34,0,0,1-.33.35H5Z" style="fill:#fff"/><path d="M3,20.72a.391.391,0,0,1-.25-.1.359.359,0,0,1,0-.5.38.38,0,0,1,.5,0,.359.359,0,0,1,0,.5A.391.391,0,0,1,3,20.72Z" style="fill:#fff"/><path d="M20.25,31a.34.34,0,0,1-.35-.33h0v-.02a.332.332,0,0,1,.11-.25.35.35,0,0,1,.59.25.34.34,0,0,1-.33.35h-.02Z" style="fill:#fff"/><path d="M17.25,35.72a.35.35,0,0,1-.25-.6.369.369,0,0,1,.5,0,.35.35,0,0,1-.25.6Z" style="fill:#fff"/><path d="M15.75,39.22a.34.34,0,0,1-.35-.33h0v-.02a.332.332,0,0,1,.11-.25.369.369,0,0,1,.49,0,.363.363,0,0,1,.1.25.391.391,0,0,1-.1.25A.369.369,0,0,1,15.75,39.22Z" style="fill:#fff"/><path d="M12.5,41.47a.34.34,0,0,1-.35-.33h0v-.02a.332.332,0,0,1,.11-.25.369.369,0,0,1,.49,0,.363.363,0,0,1,.1.25.34.34,0,0,1-.33.35H12.5Z" style="fill:#fff"/><path d="M12.5,46.72a.34.34,0,0,1-.35-.33h0v-.02a.332.332,0,0,1,.11-.25.369.369,0,0,1,.49,0,.363.363,0,0,1,.1.25.34.34,0,0,1-.33.35H12.5Z" style="fill:#fff"/><path d="M5.5,48.72a.35.35,0,0,1-.25-.6.38.38,0,0,1,.5,0,.35.35,0,0,1-.25.6Z" style="fill:#fff"/><path d="M10.75,54.72a.35.35,0,0,1-.25-.6.38.38,0,0,1,.5,0,.35.35,0,0,1-.25.6Z" style="fill:#fff"/><path d="M15.25,58.72a.35.35,0,0,1-.25-.6.369.369,0,0,1,.5,0,.35.35,0,0,1-.25.6Z" style="fill:#fff"/><path d="M5.75,63.72a.35.35,0,0,1-.25-.6.38.38,0,0,1,.5,0,.363.363,0,0,1,.1.25.34.34,0,0,1-.33.35H5.75Z" style="fill:#fff"/><path d="M2,62.22a.391.391,0,0,1-.25-.1.359.359,0,0,1,0-.5.369.369,0,0,1,.49,0,.339.339,0,0,1,.11.25.391.391,0,0,1-.1.25A.391.391,0,0,1,2,62.22Z" style="fill:#fff"/><path d="M8.75,68.22a.35.35,0,0,1-.25-.6.36.36,0,0,1,.6.25.391.391,0,0,1-.1.25A.369.369,0,0,1,8.75,68.22Z" style="fill:#fff"/><path d="M13.25,69.72a.35.35,0,0,1-.25-.6.38.38,0,0,1,.5,0,.35.35,0,0,1-.25.6Z" style="fill:#fff"/><path d="M21.25,68.72a.34.34,0,0,1-.35-.33h0v-.02a.332.332,0,0,1,.11-.25.35.35,0,0,1,.59.25.34.34,0,0,1-.33.35h-.02Z" style="fill:#fff"/><path d="M22.75,66a.35.35,0,0,1-.25-.6.369.369,0,0,1,.5,0,.359.359,0,0,1,0,.5A.369.369,0,0,1,22.75,66Z" style="fill:#fff"/><path d="M22,60.22a.35.35,0,0,1-.25-.6.38.38,0,0,1,.5,0,.359.359,0,0,1,0,.5A.369.369,0,0,1,22,60.22Z" style="fill:#fff"/><path d="M24,57.72a.34.34,0,0,1-.35-.33h0v-.02a.369.369,0,0,1,.1-.25.38.38,0,0,1,.5,0,.369.369,0,0,1,.1.25.391.391,0,0,1-.1.25A.369.369,0,0,1,24,57.72Z" style="fill:#fff"/><path d="M26,48a.35.35,0,0,1-.25-.6.369.369,0,0,1,.5,0A.35.35,0,0,1,26,48Z" style="fill:#fff"/><path d="M25.5,43.72a.35.35,0,0,1-.25-.6.369.369,0,0,1,.5,0,.35.35,0,0,1-.25.6Z" style="fill:#fff"/><path d="M32,31.22a.34.34,0,0,1-.35-.33h0v-.02a.332.332,0,0,1,.11-.25.35.35,0,0,1,.59.25.34.34,0,0,1-.33.35H32Z" style="fill:#fff"/><path d="M34,28a.34.34,0,0,1-.35-.33h0v-.02a.354.354,0,0,1,.1-.25.369.369,0,0,1,.5,0,.359.359,0,0,1,0,.5A.369.369,0,0,1,34,28Z" style="fill:#fff"/><path d="M41.5,26a.35.35,0,0,1-.25-.6.369.369,0,0,1,.5,0,.35.35,0,0,1-.25.6Z" style="fill:#fff"/><path d="M42.75,21a.358.358,0,0,1-.25-.11.329.329,0,0,1-.1-.24.391.391,0,0,1,.1-.25.369.369,0,0,1,.5,0,.391.391,0,0,1,.1.25.339.339,0,0,1-.11.25A.348.348,0,0,1,42.75,21Z" style="fill:#fff"/><path d="M36.25,19.47a.391.391,0,0,1-.25-.1.363.363,0,0,1-.1-.25.31.31,0,0,1,.1-.24.35.35,0,0,1,.495,0h0l.005,0a.35.35,0,0,1-.25.6Z" style="fill:#fff"/><path d="M27.5,22.47a.35.35,0,0,1-.25-.6.369.369,0,0,1,.5,0,.35.35,0,0,1-.25.6Z" style="fill:#fff"/><path d="M51.75,22.22a.332.332,0,0,1-.25-.11.348.348,0,0,1-.1-.24.391.391,0,0,1,.1-.25.36.36,0,0,1,.6.25.391.391,0,0,1-.1.25A.369.369,0,0,1,51.75,22.22Z" style="fill:#fff"/><path d="M43,18a.369.369,0,0,1-.25-.1.359.359,0,0,1,0-.5.38.38,0,0,1,.5,0A.35.35,0,0,1,43,18Z" style="fill:#fff"/><path d="M50.25,18.22a.369.369,0,0,1-.25-.1.347.347,0,0,1,.506-.474.339.339,0,0,1-.236.574h-.02Z" style="fill:#fff"/><path d="M59.25,17.47a.34.34,0,0,1-.35-.33h0v-.02a.332.332,0,0,1,.11-.25.369.369,0,0,1,.49,0,.363.363,0,0,1,.1.25.34.34,0,0,1-.33.35h-.02Z" style="fill:#fff"/><path d="M58,14.22a.369.369,0,0,1-.25-.1.347.347,0,0,1,.506-.474.339.339,0,0,1-.236.574H58Z" style="fill:#fff"/><path d="M61.25,11.22a.34.34,0,0,1-.35-.33h0v-.02a.332.332,0,0,1,.11-.25.361.361,0,0,1,.49,0,.31.31,0,0,1,.1.24.34.34,0,0,1-.33.35h-.02Z" style="fill:#fff"/><path d="M58.5,7.72a.391.391,0,0,1-.25-.1.354.354,0,0,1-.1-.25.31.31,0,0,1,.1-.24.35.35,0,0,1,.6.24.34.34,0,0,1-.33.35H58.5Z" style="fill:#fff"/><path d="M59.75,5a.339.339,0,0,1-.25-.11.348.348,0,0,1-.1-.24.332.332,0,0,1,.11-.25.369.369,0,0,1,.49,0,.363.363,0,0,1,.1.25.34.34,0,0,1-.33.35h-.02Z" style="fill:#fff"/><path d="M67.25,6.22a.391.391,0,0,1-.25-.1.363.363,0,0,1-.1-.25.369.369,0,0,1,.1-.25.38.38,0,0,1,.5,0,.35.35,0,0,1-.25.6Z" style="fill:#fff"/><path d="M70.5,8.72a.391.391,0,0,1-.25-.1.363.363,0,0,1-.1-.25.345.345,0,0,1,.59-.25.358.358,0,0,1,.11.25.34.34,0,0,1-.33.35H70.5Z" style="fill:#fff"/><path d="M65.5,10a.34.34,0,0,1-.35-.33h0V9.65a.369.369,0,0,1,.1-.25.38.38,0,0,1,.5,0,.35.35,0,0,1-.25.6Z" style="fill:#fff"/><path d="M60,24a.35.35,0,0,1-.25-.6.369.369,0,0,1,.5,0A.35.35,0,0,1,60,24Z" style="fill:#fff"/><path d="M55.25,24a.35.35,0,0,1-.25-.6.38.38,0,0,1,.5,0,.35.35,0,0,1-.25.6Z" style="fill:#fff"/><path d="M55.25,19a.339.339,0,0,1-.25-.11.348.348,0,0,1-.1-.24.332.332,0,0,1,.11-.25.369.369,0,0,1,.49,0,.363.363,0,0,1,.1.25.34.34,0,0,1-.33.35h-.02Z" style="fill:#fff"/><path d="M64.75,26a.34.34,0,0,1-.35-.33h0v-.02a.332.332,0,0,1,.11-.25.369.369,0,0,1,.49,0,.363.363,0,0,1,.1.25.34.34,0,0,1-.33.35h-.02Z" style="fill:#fff"/><path d="M57.5,31a.332.332,0,0,1-.25-.11.348.348,0,0,1-.1-.24.332.332,0,0,1,.11-.25.369.369,0,0,1,.49,0,.363.363,0,0,1,.1.25.34.34,0,0,1-.33.35H57.5Z" style="fill:#fff"/><path d="M52.5,33a.358.358,0,0,1-.25-.11.348.348,0,0,1-.1-.24.332.332,0,0,1,.11-.25.369.369,0,0,1,.49,0,.363.363,0,0,1,.1.25.34.34,0,0,1-.33.35H52.5Z" style="fill:#fff"/><path d="M47.25,34a.358.358,0,0,1-.25-.11.348.348,0,0,1-.1-.24.332.332,0,0,1,.11-.25.369.369,0,0,1,.49,0,.363.363,0,0,1,.1.25.34.34,0,0,1-.33.35h-.02Z" style="fill:#fff"/><path d="M44,39.47a.358.358,0,0,1-.25-.11.348.348,0,0,1-.1-.24.391.391,0,0,1,.1-.25.35.35,0,0,1,.6.25.332.332,0,0,1-.11.25A.348.348,0,0,1,44,39.47Z" style="fill:#fff"/><path d="M33.75,41.72a.35.35,0,0,1-.25-.6.369.369,0,0,1,.5,0,.35.35,0,0,1-.25.6Z" style="fill:#fff"/><path d="M40.5,48.22a.35.35,0,0,1-.25-.6.361.361,0,0,1,.49,0,.347.347,0,0,1-.22.6Z" style="fill:#fff"/><path d="M45.5,52.47a.34.34,0,0,1-.35-.33h0v-.02a.332.332,0,0,1,.11-.25.35.35,0,0,1,.59.25.34.34,0,0,1-.33.35H45.5Z" style="fill:#fff"/><path d="M46.25,57a.35.35,0,1,1-.01-.7.354.354,0,0,1,.25.1.358.358,0,0,1,.11.25.34.34,0,0,1-.33.35h-.02Z" style="fill:#fff"/><path d="M41.75,59.72a.348.348,0,0,1-.24-.1.358.358,0,0,1-.11-.25.391.391,0,0,1,.1-.25.369.369,0,0,1,.5,0,.35.35,0,0,1-.25.6Z" style="fill:#fff"/><path d="M39.75,63a.35.35,0,0,1-.25-.6.369.369,0,0,1,.5,0,.359.359,0,0,1,0,.5A.369.369,0,0,1,39.75,63Z" style="fill:#fff"/><path d="M35.75,63a.34.34,0,0,1-.35-.33h0v-.02a.332.332,0,0,1,.11-.25.35.35,0,0,1,.59.25.34.34,0,0,1-.33.35h-.02Z" style="fill:#fff"/><path d="M36.25,53a.391.391,0,0,1-.25-.1.354.354,0,0,1-.1-.25.391.391,0,0,1,.1-.25.359.359,0,0,1,.5,0,.31.31,0,0,1,.1.24.34.34,0,0,1-.33.35h-.02Z" style="fill:#fff"/><path d="M29.75,63.72a.348.348,0,0,1-.24-.1.358.358,0,0,1-.11-.25.332.332,0,0,1,.11-.25.369.369,0,0,1,.49,0,.363.363,0,0,1,.1.25.34.34,0,0,1-.33.35h-.02Z" style="fill:#fff"/><path d="M31.25,68.72a.35.35,0,0,1-.25-.6.369.369,0,0,1,.5,0,.35.35,0,0,1-.25.6Z" style="fill:#fff"/><path d="M36.75,71.22a.391.391,0,0,1-.25-.1.369.369,0,0,1-.1-.25.332.332,0,0,1,.11-.25.369.369,0,0,1,.49,0,.363.363,0,0,1,.1.25.369.369,0,0,1-.1.25A.391.391,0,0,1,36.75,71.22Z" style="fill:#fff"/><path d="M62.75,57.22a.34.34,0,0,1-.35-.33h0v-.02a.332.332,0,0,1,.11-.25.369.369,0,0,1,.49,0,.363.363,0,0,1,.1.25.34.34,0,0,1-.33.35h-.02Z" style="fill:#fff"/><path d="M59.75,51a.332.332,0,0,1-.25-.11.347.347,0,0,1,.49-.49.358.358,0,0,1,.11.25.391.391,0,0,1-.1.25A.369.369,0,0,1,59.75,51Z" style="fill:#fff"/><path d="M54.25,50.72a.391.391,0,0,1-.25-.1.369.369,0,0,1-.1-.25.35.35,0,0,1,.7-.01.354.354,0,0,1-.1.25A.339.339,0,0,1,54.25,50.72Z" style="fill:#fff"/><path d="M54.5,42a.358.358,0,0,1-.25-.11.329.329,0,0,1-.1-.24.391.391,0,0,1,.1-.25.369.369,0,0,1,.5,0,.391.391,0,0,1,.1.25.339.339,0,0,1-.11.25A.348.348,0,0,1,54.5,42Z" style="fill:#fff"/><path d="M62.25,42.47a.35.35,0,0,1-.25-.6.369.369,0,0,1,.5,0,.35.35,0,0,1-.25.6Z" style="fill:#fff"/><path d="M66.75,47.72a.348.348,0,0,1-.24-.1.358.358,0,0,1-.11-.25.391.391,0,0,1,.1-.25.361.361,0,0,1,.49,0,.319.319,0,0,1,.11.25.34.34,0,0,1-.33.35h-.02Z" style="fill:#fff"/><path d="M69.25,54.47a.348.348,0,0,1-.24-.1.358.358,0,0,1-.11-.25.391.391,0,0,1,.1-.25.36.36,0,0,1,.6.25.34.34,0,0,1-.33.35h-.02Z" style="fill:#fff"/><path d="M63.25,62a.348.348,0,0,1-.24-.1.358.358,0,0,1-.11-.25.391.391,0,0,1,.1-.25.361.361,0,0,1,.49,0,.319.319,0,0,1,.11.25.34.34,0,0,1-.33.35h-.02Z" style="fill:#fff"/><path d="M70,61.22a.34.34,0,0,1-.35-.33h0v-.02a.332.332,0,0,1,.11-.25.369.369,0,0,1,.49,0,.363.363,0,0,1,.1.25.34.34,0,0,1-.33.35H70Z" style="fill:#fff"/><path d="M64.5,65.72a.35.35,0,0,1-.25-.6.359.359,0,0,1,.5,0,.348.348,0,0,1,.1.24.34.34,0,0,1-.33.35H64.5Z" style="fill:#fff"/><path d="M65.5,68.47a.35.35,0,0,1-.25-.6.369.369,0,0,1,.5,0,.35.35,0,0,1-.25.6Z" style="fill:#fff"/><path d="M62.25,70.47a.34.34,0,0,1-.35-.33h0v-.02a.339.339,0,0,1,.11-.25.361.361,0,0,1,.49,0,.31.31,0,0,1,.1.24.34.34,0,0,1-.33.35h-.02Z" style="fill:#fff"/><path d="M52.5,70a.35.35,0,0,1-.25-.6.36.36,0,0,1,.6.25.391.391,0,0,1-.1.25A.369.369,0,0,1,52.5,70Z" style="fill:#fff"/><path d="M44.5,66.72a.339.339,0,0,1-.25-.11.348.348,0,0,1-.1-.24.332.332,0,0,1,.11-.25.369.369,0,0,1,.49,0,.363.363,0,0,1,.1.25.34.34,0,0,1-.33.35H44.5Z" style="fill:#fff"/><path d="M28.25,71.47a.391.391,0,0,1-.25-.1.363.363,0,0,1-.1-.25.332.332,0,0,1,.11-.25.35.35,0,0,1,.59.25.332.332,0,0,1-.11.25A.348.348,0,0,1,28.25,71.47Z" style="fill:#fff"/><path d="M2.75,29.72a.391.391,0,0,1-.25-.1.359.359,0,0,1,0-.5.38.38,0,0,1,.5,0,.359.359,0,0,1,0,.5A.391.391,0,0,1,2.75,29.72Z" style="fill:#fff"/><path d="M13,5.22a.358.358,0,0,1-.25-.11.31.31,0,0,1-.1-.24.369.369,0,0,1,.1-.25.36.36,0,0,1,.6.25.332.332,0,0,1-.11.25A.348.348,0,0,1,13,5.22Z" style="fill:#fff"/><path d="M70,34.72a.34.34,0,0,1-.35-.33h0v-.02a.332.332,0,0,1,.11-.25.369.369,0,0,1,.49,0,.363.363,0,0,1,.1.25.34.34,0,0,1-.33.35H70Z" style="fill:#fff"/><path d="M71,41.47a.35.35,0,0,1-.25-.6.369.369,0,0,1,.5,0,.35.35,0,0,1-.25.6Z" style="fill:#fff"/><path d="M.75,52a.391.391,0,0,1-.25-.1.391.391,0,0,1-.1-.25.332.332,0,0,1,.11-.25.369.369,0,0,1,.49,0,.363.363,0,0,1,.1.25.391.391,0,0,1-.1.25A.391.391,0,0,1,.75,52Z" style="fill:#fff"/><path d="M71.75,23.72a.35.35,0,0,1-.25-.6.38.38,0,0,1,.5,0,.35.35,0,0,1-.25.6Z" style="fill:#fff"/><path d="M68.75,26.72a.35.35,0,0,1-.25-.6.369.369,0,0,1,.5,0,.391.391,0,0,1,.1.25.354.354,0,0,1-.1.25A.391.391,0,0,1,68.75,26.72Z" style="fill:#fff"/><path d="M68.25,60.47a.34.34,0,0,1-.35-.33h0v-.02a.369.369,0,0,1,.1-.25.38.38,0,0,1,.5,0,.35.35,0,0,1-.25.6Z" style="fill:#fff"/><path d="M71.25,68.47a.35.35,0,0,1-.25-.6.369.369,0,0,1,.5,0,.391.391,0,0,1,.1.25.354.354,0,0,1-.1.25A.391.391,0,0,1,71.25,68.47Z" style="fill:#fff"/><path d="M.25,58A.391.391,0,0,1,0,57.9a.359.359,0,0,1,0-.5.38.38,0,0,1,.5,0,.359.359,0,0,1,0,.5A.391.391,0,0,1,.25,58Z" style="fill:#fff"/><path d="M2.5,71.47a.391.391,0,0,1-.25-.1.347.347,0,1,1,.6-.25.391.391,0,0,1-.1.25A.391.391,0,0,1,2.5,71.47Z" style="fill:#fff"/><path d="M70,24.22a.34.34,0,0,1-.35-.33h0v-.02a.332.332,0,0,1,.11-.25.369.369,0,0,1,.49,0,.363.363,0,0,1,.1.25.34.34,0,0,1-.33.35H70Z" style="fill:#fff"/><path d="M1,17a.391.391,0,0,1-.25-.1.359.359,0,0,1,0-.5.38.38,0,0,1,.5,0,.359.359,0,0,1,0,.5A.391.391,0,0,1,1,17Z" style="fill:#fff"/><path d="M17.75,13.27a.65.65,0,0,1-.65-.65h0a.661.661,0,0,1,.19-.46.68.68,0,0,1,.92,0,.65.65,0,0,1-.46,1.11Z" style="fill:#fff"/><path d="M29,11.27a.661.661,0,0,1-.46-.19.681.681,0,0,1-.19-.46.661.661,0,0,1,.19-.46.67.67,0,0,1,.92,0,.661.661,0,0,1,.19.46A.65.65,0,0,1,29,11.27Z" style="fill:#fff"/><path d="M29,3.77a.65.65,0,0,1-.65-.65h0a.639.639,0,0,1,.19-.46.68.68,0,0,1,.92,0,.649.649,0,0,1,0,.919h0A.682.682,0,0,1,29,3.77Z" style="fill:#fff"/><path d="M40,10.77a.65.65,0,0,1-.65-.65h0a.661.661,0,0,1,.19-.46.68.68,0,0,1,.92,0,.631.631,0,0,1,.19.46.681.681,0,0,1-.19.46A.661.661,0,0,1,40,10.77Z" style="fill:#fff"/><path d="M44.75,12.27a.61.61,0,0,1-.46-.2.64.64,0,0,1-.19-.45.661.661,0,0,1,.19-.46.68.68,0,0,1,.92,0,.631.631,0,0,1,.19.46.61.61,0,0,1-.2.46A.6.6,0,0,1,44.75,12.27Z" style="fill:#fff"/><path d="M47,23.27a.65.65,0,0,1-.46-1.11.68.68,0,0,1,.92,0A.65.65,0,0,1,47,23.27Z" style="fill:#fff"/><path d="M54.5,7.27a.641.641,0,0,1-.5-.19.649.649,0,0,1,0-.919h0a.68.68,0,0,1,.92,0,.639.639,0,0,1,.19.46.661.661,0,0,1-.19.46A.641.641,0,0,1,54.5,7.27Z" style="fill:#fff"/><path d="M63.75,7a.65.65,0,0,1-.46-1.11.68.68,0,0,1,.92,0A.65.65,0,0,1,63.75,7Z" style="fill:#fff"/><path d="M64.75,3a.661.661,0,0,1-.46-.19.681.681,0,0,1-.19-.46.661.661,0,0,1,.19-.46.65.65,0,0,1,1.11.46.63.63,0,0,1-.18.45A.67.67,0,0,1,64.75,3Z" style="fill:#fff"/><path d="M69.25,18.52a.65.65,0,0,1-.46-1.11.67.67,0,0,1,.92,0,.65.65,0,0,1-.46,1.11Z" style="fill:#fff"/><path d="M7.75,47.52a.639.639,0,0,1-.46-.19.681.681,0,0,1-.19-.46.661.661,0,0,1,.19-.46.68.68,0,0,1,.92,0,.661.661,0,0,1,.19.46.681.681,0,0,1-.19.46A.639.639,0,0,1,7.75,47.52Z" style="fill:#fff"/><path d="M4.75,57.27a.639.639,0,0,1-.46-.19.649.649,0,0,1,0-.919h0a.67.67,0,0,1,.92,0,.649.649,0,0,1,0,.919h0A.639.639,0,0,1,4.75,57.27Z" style="fill:#fff"/><path d="M2,67.52a.661.661,0,0,1-.46-.19.681.681,0,0,1-.19-.46.661.661,0,0,1,.19-.46.68.68,0,0,1,.92,0,.661.661,0,0,1,.19.46.681.681,0,0,1-.19.46A.661.661,0,0,1,2,67.52Z" style="fill:#fff"/><path d="M17.5,70.27a.661.661,0,0,1-.46-.19.681.681,0,0,1-.19-.46.661.661,0,0,1,.19-.46.68.68,0,0,1,.92,0,.661.661,0,0,1,.19.46.681.681,0,0,1-.19.46A.661.661,0,0,1,17.5,70.27Z" style="fill:#fff"/><path d="M19,62.77a.65.65,0,0,1-.65-.65h0a.639.639,0,0,1,.19-.46.67.67,0,0,1,.92,0,.661.661,0,0,1,.19.46.681.681,0,0,1-.19.46A.661.661,0,0,1,19,62.77Z" style="fill:#fff"/><path d="M20.75,45.77a.65.65,0,0,1-.65-.65h0a.639.639,0,0,1,.19-.46.67.67,0,0,1,.92,0,.661.661,0,0,1,.19.46.681.681,0,0,1-.19.46A.639.639,0,0,1,20.75,45.77Z" style="fill:#fff"/><path d="M28.25,51.52a.65.65,0,0,1-.46-1.11.67.67,0,0,1,.92,0,.661.661,0,0,1,.19.46.681.681,0,0,1-.19.46A.639.639,0,0,1,28.25,51.52Z" style="fill:#fff"/><path d="M33.75,60.77a.65.65,0,0,1-.65-.65h0a.639.639,0,0,1,.19-.46.68.68,0,0,1,.92,0,.631.631,0,0,1,.19.46.639.639,0,0,1-.19.46A.661.661,0,0,1,33.75,60.77Z" style="fill:#fff"/><path d="M34,67.27a.639.639,0,0,1-.46-.19.649.649,0,0,1,0-.919h0a.67.67,0,0,1,.92,0,.649.649,0,0,1,0,.919h0A.661.661,0,0,1,34,67.27Z" style="fill:#fff"/><path d="M41.5,55.52a.65.65,0,0,1-.5-1.11.68.68,0,0,1,.92,0,.65.65,0,0,1-.46,1.11Z" style="fill:#fff"/><path d="M52,60.27a.65.65,0,0,1-.46-1.11.68.68,0,0,1,.92,0A.65.65,0,0,1,52,60.27Z" style="fill:#fff"/><path d="M54.75,65.77a.661.661,0,0,1-.46-.19.681.681,0,0,1-.19-.46.639.639,0,0,1,.19-.46.68.68,0,0,1,.92,0,.639.639,0,0,1,.19.46.681.681,0,0,1-.19.46A.661.661,0,0,1,54.75,65.77Z" style="fill:#fff"/><path d="M25,25a.661.661,0,0,1-.46-.19.681.681,0,0,1-.19-.46.661.661,0,0,1,.19-.46.68.68,0,0,1,.92,0,.661.661,0,0,1,.19.46.681.681,0,0,1-.19.46A.661.661,0,0,1,25,25Z" style="fill:#fff"/><path d="M35,23.77a.639.639,0,0,1-.46-.19.649.649,0,0,1,0-.919h0a.68.68,0,0,1,.92,0A.65.65,0,0,1,35,23.77Z" style="fill:#fff"/><path d="M44.75,30a.65.65,0,0,1-.46-1.11.68.68,0,0,1,.92,0,.631.631,0,0,1,.19.46.61.61,0,0,1-.2.46A.621.621,0,0,1,44.75,30Z" style="fill:#fff"/><path d="M51.75,43.52a.65.65,0,0,1-.46-1.11.67.67,0,0,1,.92,0,.639.639,0,0,1,.19.46.65.65,0,0,1-.65.65Z" style="fill:#fff"/><path d="M66.75,52.27a.65.65,0,0,1-.65-.65h0a.61.61,0,0,1,.2-.46.68.68,0,0,1,.91,0,.65.65,0,0,1-.46,1.11Z" style="fill:#fff"/><path d="M47,48.27a.65.65,0,0,1-.46-1.11.68.68,0,0,1,.92,0A.65.65,0,0,1,47,48.27Z" style="fill:#fff"/><path d="M36.75,45a.661.661,0,0,1-.46-.19.681.681,0,0,1-.19-.46.661.661,0,0,1,.19-.46.68.68,0,0,1,.92,0,.661.661,0,0,1,.19.46.681.681,0,0,1-.19.46A.661.661,0,0,1,36.75,45Z" style="fill:#fff"/><path d="M16.75,29a.65.65,0,0,1-.46-1.11.68.68,0,0,1,.92,0,.649.649,0,0,1,0,.919h0A.64.64,0,0,1,16.75,29Z" style="fill:#fff"/><path d="M11,37.27a.65.65,0,0,1-.65-.65h0a.639.639,0,0,1,.19-.46.67.67,0,0,1,.92,0A.65.65,0,0,1,11,37.27Z" style="fill:#fff"/><path d="M67.25,31.27a.661.661,0,0,1-.46-.19.681.681,0,0,1-.19-.46.661.661,0,0,1,.19-.46.68.68,0,0,1,.92,0,.639.639,0,0,1,.19.46.65.65,0,0,1-.65.65Z" style="fill:#fff"/><path d="M7,16.27a.61.61,0,0,1-.46-.2.621.621,0,0,1-.19-.45.661.661,0,0,1,.19-.46.67.67,0,0,1,.92,0,.649.649,0,0,1,0,.919h0A.64.64,0,0,1,7,16.27Z" style="fill:#fff"/><path d="M8.25,5.77a.681.681,0,0,1-.46-.19.661.661,0,0,1-.19-.46.639.639,0,0,1,.19-.46.67.67,0,0,1,.92,0,.639.639,0,0,1,.19.46.65.65,0,0,1-.65.65Z" style="fill:#fff"/><path d="M3.25,3a.661.661,0,0,1-.46-.19.681.681,0,0,1-.19-.46.661.661,0,0,1,.19-.46.68.68,0,0,1,.92,0,.661.661,0,0,1,.19.46.681.681,0,0,1-.19.46A.661.661,0,0,1,3.25,3Z" style="fill:#fff"/><path d="M66.25,37.77a.65.65,0,0,1-.46-1.11.68.68,0,0,1,.92,0,.639.639,0,0,1,.19.46.661.661,0,0,1-.19.46A.639.639,0,0,1,66.25,37.77Z" style="fill:#fff"/><path d="M43.75,63.52a.661.661,0,0,1-.46-.19.681.681,0,0,1-.19-.46.661.661,0,0,1,.19-.46.67.67,0,0,1,.92,0,.661.661,0,0,1,.19.46.681.681,0,0,1-.19.46A.661.661,0,0,1,43.75,63.52Z" style="fill:#fff"/><path d="M25.5,70.52a.661.661,0,0,1-.46-.19.681.681,0,0,1-.19-.46.661.661,0,0,1,.19-.46.67.67,0,0,1,.92,0,.661.661,0,0,1,.19.46.681.681,0,0,1-.19.46A.661.661,0,0,1,25.5,70.52Z" style="fill:#fff"/><path d="M21.75,42.27a.661.661,0,0,1-.46-.19.649.649,0,0,1,0-.919h0a.68.68,0,0,1,.92,0,.65.65,0,0,1-.46,1.11Z" style="fill:#fff"/><path d="M23.75,29.52a.661.661,0,0,1-.46-.19.681.681,0,0,1-.19-.46.661.661,0,0,1,.19-.46.67.67,0,0,1,.92,0,.639.639,0,0,1,.19.46A.65.65,0,0,1,23.75,29.52Z" style="fill:#fff"/><path d="M41.25,35a.65.65,0,0,1-.46-1.11.68.68,0,0,1,.92,0,.661.661,0,0,1,.19.46.681.681,0,0,1-.19.46A.661.661,0,0,1,41.25,35Z" style="fill:#fff"/><path d="M67.25,44.27a.661.661,0,0,1-.46-.19.681.681,0,0,1-.19-.46.661.661,0,0,1,.19-.46.68.68,0,0,1,.92,0,.639.639,0,0,1,.19.46.65.65,0,0,1-.65.65Z" style="fill:#fff"/><path d="M53,15.52a.65.65,0,0,1-.46-1.11.68.68,0,0,1,.92,0,.661.661,0,0,1,.19.46.681.681,0,0,1-.19.46A.661.661,0,0,1,53,15.52Z" style="fill:#fff"/><path d="M33.75,16.52a.661.661,0,0,1-.46-.19.681.681,0,0,1-.19-.46.639.639,0,0,1,.19-.46.68.68,0,0,1,.92,0,.639.639,0,0,1,.19.46.65.65,0,0,1-.65.65Z" style="fill:#fff"/><path d="M12.5,19.77a.65.65,0,0,1-.5-1.11.67.67,0,0,1,.92,0,.65.65,0,0,1-.46,1.11Z" style="fill:#fff"/><path d="M49.25,5a.65.65,0,0,1-.46-1.11.68.68,0,0,1,.92,0A.65.65,0,0,1,49.25,5Z" style="fill:#fff"/><path d="M58.75,21.27a.65.65,0,0,1-.46-1.11.68.68,0,0,1,.92,0,.639.639,0,0,1,.19.46.65.65,0,0,1-.65.65Z" style="fill:#fff"/><path d="M67.25,57.77a.661.661,0,0,1-.46-.19.681.681,0,0,1-.19-.46.661.661,0,0,1,.19-.46.68.68,0,0,1,.92,0,.639.639,0,0,1,.19.46.65.65,0,0,1-.65.65Z" style="fill:#fff"/><path d="M5,70.27a.639.639,0,0,1-.46-.19.649.649,0,0,1,0-.919h0a.67.67,0,0,1,.92,0,.649.649,0,0,1,0,.919h0A.639.639,0,0,1,5,70.27Z" style="fill:#fff"/><path d="M2.5,13.77a.61.61,0,0,1-.46-.2.621.621,0,0,1-.19-.45A.662.662,0,0,1,2,12.66a.67.67,0,0,1,.92,0,.649.649,0,0,1,0,.919h0A.636.636,0,0,1,2.5,13.77Z" style="fill:#fff"/><path d="M16.25,3.77a.65.65,0,0,1-.46-1.11.68.68,0,0,1,.92,0,.65.65,0,0,1-.46,1.11Z" style="fill:#fff"/><path d="M40.25,5a.65.65,0,0,1-.46-1.11.68.68,0,0,1,.92,0,.639.639,0,0,1,.19.46.65.65,0,0,1-.65.65Z" style="fill:#fff"/><path d="M2.5,32.52a.641.641,0,0,1-.5-.19.649.649,0,0,1,0-.919H2a.68.68,0,0,1,.92,0,.65.65,0,0,1-.46,1.11Z" style="fill:#fff"/><path d="M7.25,25.52a.639.639,0,0,1-.46-.19.649.649,0,0,1,0-.919h0a.68.68,0,0,1,.92,0,.639.639,0,0,1,.19.46.661.661,0,0,1-.19.46A.636.636,0,0,1,7.25,25.52Z" style="fill:#fff"/><path d="M3.75,47.27a.661.661,0,0,1-.46-.19.681.681,0,0,1-.19-.46.661.661,0,0,1,.19-.46.67.67,0,0,1,.92,0,.661.661,0,0,1,.19.46.681.681,0,0,1-.19.46A.639.639,0,0,1,3.75,47.27Z" style="fill:#fff"/><path d="M10.75,51a.661.661,0,0,1-.46-.19.681.681,0,0,1-.19-.46.639.639,0,0,1,.19-.46.68.68,0,0,1,.92,0,.661.661,0,0,1,.19.46.681.681,0,0,1-.19.46A.661.661,0,0,1,10.75,51Z" style="fill:#fff"/><path d="M9.75,60.27a.639.639,0,0,1-.46-.19.649.649,0,0,1,0-.919h0a.68.68,0,0,1,.92,0,.649.649,0,0,1,0,.919h0A.639.639,0,0,1,9.75,60.27Z" style="fill:#fff"/><path d="M13.25,66.27a.661.661,0,0,1-.46-.19.681.681,0,0,1-.19-.46.639.639,0,0,1,.19-.46.67.67,0,0,1,.92,0,.661.661,0,0,1,.19.46.681.681,0,0,1-.19.46A.661.661,0,0,1,13.25,66.27Z" style="fill:#fff"/><path d="M21.75,53.77a.661.661,0,0,1-.46-.19.639.639,0,0,1-.19-.46.6.6,0,0,1,.2-.46.65.65,0,0,1,1.1.46.681.681,0,0,1-.19.46A.661.661,0,0,1,21.75,53.77Z" style="fill:#fff"/><path d="M31,38a.661.661,0,0,1-.46-.19.681.681,0,0,1-.19-.46.661.661,0,0,1,.19-.46.68.68,0,0,1,.92,0,.661.661,0,0,1,.19.46.681.681,0,0,1-.19.46A.661.661,0,0,1,31,38Z" style="fill:#fff"/><path d="M25.75,34.52a.65.65,0,0,1-.46-1.11.67.67,0,0,1,.92,0,.65.65,0,0,1-.46,1.11Z" style="fill:#fff"/><path d="M37,29a.661.661,0,0,1-.46-.19.681.681,0,0,1-.19-.46.661.661,0,0,1,.19-.46.68.68,0,0,1,.92,0,.661.661,0,0,1,.19.46.681.681,0,0,1-.19.46A.661.661,0,0,1,37,29Z" style="fill:#fff"/><path d="M61.5,17a.661.661,0,0,1-.46-.19.681.681,0,0,1-.19-.46.661.661,0,0,1,.19-.46.68.68,0,0,1,.92,0,.639.639,0,0,1,.19.46A.65.65,0,0,1,61.5,17Z" style="fill:#fff"/><path d="M61,27.52a.639.639,0,0,1-.46-.19.681.681,0,0,1-.19-.46.661.661,0,0,1,.19-.46.68.68,0,0,1,.92,0,.649.649,0,0,1,0,.919h0A.64.64,0,0,1,61,27.52Z" style="fill:#fff"/><path d="M58.5,57.52a.661.661,0,0,1-.46-.19.681.681,0,0,1-.19-.46.661.661,0,0,1,.19-.46.68.68,0,0,1,.92,0,.661.661,0,0,1,.19.46.681.681,0,0,1-.19.46A.661.661,0,0,1,58.5,57.52Z" style="fill:#fff"/><path d="M59,44.77a.639.639,0,0,1-.46-.19.649.649,0,0,1,0-.919h0a.68.68,0,0,1,.92,0,.649.649,0,0,1,0,.919h0A.639.639,0,0,1,59,44.77Z" style="fill:#fff"/><path d="M55.5,36a.661.661,0,0,1-.46-.19.681.681,0,0,1-.19-.46.661.661,0,0,1,.19-.46.68.68,0,0,1,.92,0,.661.661,0,0,1,.19.46.681.681,0,0,1-.19.46A.661.661,0,0,1,55.5,36Z" style="fill:#fff"/><path d="M69,71a.681.681,0,0,1-.46-.19.649.649,0,0,1,0-.919h0a.691.691,0,0,1,.92,0A.65.65,0,0,1,69,71Z" style="fill:#fff"/><path d="M60.5,66.27a.65.65,0,0,1-.5-1.11.67.67,0,0,1,.92,0,.639.639,0,0,1,.19.46.65.65,0,0,1-.65.65h.04Z" style="fill:#fff"/><path d="M44.25,71.77a.65.65,0,0,1-.46-1.11.68.68,0,0,1,.92,0,.65.65,0,0,1-.46,1.11Z" style="fill:#fff"/><path d="M24.25,1.52A.65.65,0,0,1,23.6.87h0a.639.639,0,0,1,.19-.46.67.67,0,0,1,.92,0,.661.661,0,0,1,.19.46.681.681,0,0,1-.19.46A.639.639,0,0,1,24.25,1.52Z" style="fill:#fff"/><path d="M-.25,23.72a.391.391,0,0,1-.25-.1.391.391,0,0,1-.1-.25.391.391,0,0,1,.1-.25.38.38,0,0,1,.5,0,.391.391,0,0,1,.1.25.391.391,0,0,1-.1.25A.391.391,0,0,1-.25,23.72Z" style="fill:#fff"/></pattern></defs><title>ammostamento</title><g id="Layer_1-2" data-name="Layer 1-2"><path d="M90.94,103.93s26.06,23.52,31.23,83.24h0c2.12-2.08,3.53-5,7.44-5,6.12,0,6.12,7,12.24,7s6.12-7,12.24-7a6.921,6.921,0,0,1,1.15.09v-.19C145.12,111.96,100.51,81.5,100.51,81.5" style="stroke:#fff;stroke-linecap:round;stroke-linejoin:round;stroke-width:2.3399999141693115px;fill:url(#USGS_22_Gravel_Beach_4)"/><path d="M93.91,155.55v5.86a7.72,7.72,0,0,1,7.721,7.719h0V273.25a13.28,13.28,0,0,0,13.28,13.28H229.98a13.29,13.29,0,0,0,13.29-13.28V169.17a7.72,7.72,0,0,1,7.72-7.72h0v-5.86" style="fill:none;stroke:#fff;stroke-linecap:round;stroke-linejoin:round;stroke-width:2.3399999141693115px"/><line x1="149.44" y1="155.55" x2="250.99" y2="155.55" style="fill:none;stroke:#fff;stroke-linecap:round;stroke-linejoin:round;stroke-width:2.3399999141693115px"/><line x1="93.91" y1="155.55" x2="116.97" y2="155.55" style="fill:none;stroke:#fff;stroke-linecap:round;stroke-linejoin:round;stroke-width:2.3399999141693115px"/><circle cx="175.94" cy="228.2" r="2.52" style="fill:none;stroke:#fff;stroke-linecap:round;stroke-linejoin:round;stroke-width:1.1699999570846558px"/><circle cx="140.39" cy="226.2" r="3.63" style="fill:none;stroke:#fff;stroke-linecap:round;stroke-linejoin:round;stroke-width:1.1699999570846558px"/><circle cx="153" cy="251.1" r="3.63" style="fill:none;stroke:#fff;stroke-linecap:round;stroke-linejoin:round;stroke-width:1.1699999570846558px"/><circle cx="146.66" cy="221.69" r="1.49" style="fill:none;stroke:#fff;stroke-linecap:round;stroke-linejoin:round;stroke-width:1.1699999570846558px"/><circle cx="219.5" cy="246.86" r="3.79" style="fill:none;stroke:#fff;stroke-linecap:round;stroke-linejoin:round;stroke-width:1.1699999570846558px"/><circle cx="218.02" cy="256.66" r="2.64" style="fill:none;stroke:#fff;stroke-linecap:round;stroke-linejoin:round;stroke-width:1.1699999570846558px"/><circle cx="225.16" cy="266.15" r="1.87" style="fill:none;stroke:#fff;stroke-linecap:round;stroke-linejoin:round;stroke-width:1.1699999570846558px"/><circle cx="213.74" cy="210.92" r="3.07" style="fill:none;stroke:#fff;stroke-linecap:round;stroke-linejoin:round;stroke-width:1.1699999570846558px"/><path d="M101.63,194.17l-23.44-5.93h0a4.57,4.57,0,0,1,1.07-9h22.37" style="fill:none;stroke:#fff;stroke-linecap:round;stroke-linejoin:round;stroke-width:2.3399999141693115px"/><path d="M243.27,194.17l23.43-5.93h0a4.57,4.57,0,0,0-1.07-9H243.27" style="fill:none;stroke:#fff;stroke-linecap:round;stroke-linejoin:round;stroke-width:2.3399999141693115px"/><line x1="205.9" y1="77.26" x2="205.9" y2="77.56" style="fill:none;stroke:#fff;stroke-linecap:round;stroke-linejoin:round;stroke-width:2.3399999141693115px"/><line x1="205.9" y1="83.3" x2="205.9" y2="168.87" style="fill:none;stroke:#fff;stroke-linecap:round;stroke-linejoin:round;stroke-width:2.3399999141693115px;stroke-dasharray:0.5699999928474426,5.739999771118164"/><line x1="205.9" y1="171.74" x2="205.9" y2="172.03" style="fill:none;stroke:#fff;stroke-linecap:round;stroke-linejoin:round;stroke-width:2.3399999141693115px"/><polygon points="196.31 164.27 198.03 162.67 205.9 171.13 213.76 162.67 215.48 164.27 205.9 174.58 196.31 164.27" style="fill:#fff"/><path d="M107.17,182.5c4.19,1.35,4.85,6.73,10.21,6.73,6.12,0,6.12-7,12.23-7s6.12,7,12.24,7,6.12-7,12.24-7,6.11,7,12.23,7,6.11-7,12.23-7,6.12,7,12.24,7,6.12-7,12.24-7,6.12,7,12.23,7,6.13-7,12.25-7c5.29,0,6,5.25,10.05,6.68" style="fill:none;stroke:#fff;stroke-linecap:round;stroke-linejoin:round;stroke-width:2.3399999141693115px"/><path d="M68.007,15.11V5.776h1.415V7.085a3.322,3.322,0,0,1,1.169-1.1,3.282,3.282,0,0,1,1.661-.418,3.076,3.076,0,0,1,1.7.43,2.316,2.316,0,0,1,.937,1.2,3.349,3.349,0,0,1,2.883-1.635,2.841,2.841,0,0,1,2.135.769A3.289,3.289,0,0,1,80.655,8.7v6.41H79.081V9.23a4.313,4.313,0,0,0-.154-1.366,1.319,1.319,0,0,0-.558-.673,1.743,1.743,0,0,0-.949-.255,2.218,2.218,0,0,0-1.635.654,2.891,2.891,0,0,0-.65,2.1v5.42H73.553V9.045a2.666,2.666,0,0,0-.387-1.582A1.464,1.464,0,0,0,71.9,6.936a2.294,2.294,0,0,0-1.235.351,2,2,0,0,0-.822,1.029,5.781,5.781,0,0,0-.255,1.951V15.11Z" style="fill:#fff"/><path d="M89.992,13.958A5.9,5.9,0,0,1,88.3,15.013a4.9,4.9,0,0,1-1.745.308,3.392,3.392,0,0,1-2.364-.752,2.48,2.48,0,0,1-.826-1.92,2.6,2.6,0,0,1,1.129-2.162,3.827,3.827,0,0,1,1.139-.519,11.152,11.152,0,0,1,1.406-.237,14.485,14.485,0,0,0,2.821-.545c.006-.217.009-.355.009-.413a1.75,1.75,0,0,0-.448-1.362,2.648,2.648,0,0,0-1.8-.537,2.793,2.793,0,0,0-1.648.392,2.386,2.386,0,0,0-.787,1.384l-1.547-.211a3.839,3.839,0,0,1,.7-1.605,3.04,3.04,0,0,1,1.4-.939,6.2,6.2,0,0,1,2.118-.33,5.62,5.62,0,0,1,1.943.281,2.572,2.572,0,0,1,1.1.707,2.5,2.5,0,0,1,.493,1.077,9.005,9.005,0,0,1,.079,1.459V11.2a22.214,22.214,0,0,0,.1,2.79,3.5,3.5,0,0,0,.4,1.121H90.308A3.378,3.378,0,0,1,89.992,13.958Zm-.132-3.533a11.51,11.51,0,0,1-2.584.6,6.047,6.047,0,0,0-1.38.316,1.378,1.378,0,0,0-.624.515,1.4,1.4,0,0,0,.259,1.806,2.068,2.068,0,0,0,1.4.421,3.25,3.25,0,0,0,1.626-.4,2.457,2.457,0,0,0,1.046-1.1A3.815,3.815,0,0,0,89.858,11Z" style="fill:#fff"/><path d="M94.777,15.11V2.225h1.582V15.11Z" style="fill:#fff"/><path d="M103.165,13.7l.229,1.4a5.906,5.906,0,0,1-1.2.141,2.691,2.691,0,0,1-1.335-.273,1.512,1.512,0,0,1-.668-.716A5.653,5.653,0,0,1,100,12.376V7.006H98.84V5.776H100V3.464l1.573-.949V5.776h1.591v1.23h-1.591v5.458a2.743,2.743,0,0,0,.084.87.662.662,0,0,0,.272.308,1.057,1.057,0,0,0,.541.114A5.21,5.21,0,0,0,103.165,13.7Z" style="fill:#fff"/><path d="M105.023,10.443A4.813,4.813,0,0,1,106.465,6.6,4.343,4.343,0,0,1,109.4,5.565a4.189,4.189,0,0,1,3.147,1.262,4.8,4.8,0,0,1,1.221,3.484,6.183,6.183,0,0,1-.54,2.834,3.821,3.821,0,0,1-1.573,1.6,4.583,4.583,0,0,1-2.255.572,4.193,4.193,0,0,1-3.168-1.257A5.018,5.018,0,0,1,105.023,10.443Zm1.626,0a3.974,3.974,0,0,0,.782,2.684,2.6,2.6,0,0,0,3.668.261,2.572,2.572,0,0,0,.261-.261,4.064,4.064,0,0,0,.782-2.733,3.863,3.863,0,0,0-.786-2.624,2.609,2.609,0,0,0-3.682-.243,2.654,2.654,0,0,0-.243.243A3.957,3.957,0,0,0,106.649,10.443Z" style="fill:#fff"/><path d="M216.28,34.66a10.38,10.38,0,0,1-20.76.017V34.66c0-8.71,10.38-22.24,10.38-28.26C205.9,12.42,216.28,25.95,216.28,34.66Z" style="fill:#40d4db;opacity:0.5;isolation:isolate"/><path d="M216.28,34.66a10.38,10.38,0,0,1-20.76.017V34.66c0-8.71,10.38-22.24,10.38-28.26C205.9,12.42,216.28,25.95,216.28,34.66Z" style="fill:#40d4db;stroke:#505cf1;stroke-linecap:round;stroke-linejoin:round;stroke-width:2.3399999141693115px"/><polyline points="133.27 318.2 141.55 308.5 203.34 308.5 211.62 318.2" style="fill:none;stroke:#fff;stroke-linecap:round;stroke-linejoin:round;stroke-width:2.3399999141693115px"/><line x1="211.62" y1="318.2" x2="133.27" y2="318.2" style="fill:none;stroke:#fff;stroke-linecap:round;stroke-linejoin:round;stroke-width:2.3399999141693115px"/><polyline points="139.55 310.84 118.89 286.53 162.34 286.53 160.01 290.22 135.59 293.05 141.55 308.5" style="fill:none;stroke:#fff;stroke-linecap:round;stroke-linejoin:round;stroke-width:2.3399999141693115px"/><polyline points="211.62 318.2 211.62 324.36 133.27 324.36 133.27 318.2" style="fill:none;stroke:#fff;stroke-linecap:round;stroke-linejoin:round;stroke-width:2.3399999141693115px"/><polyline points="205.35 310.84 226.01 286.53 182.56 286.53 184.88 290.22 209.31 293.05 203.34 308.5" style="fill:none;stroke:#fff;stroke-linecap:round;stroke-linejoin:round;stroke-width:2.3399999141693115px"/><path d="M188.63,302.17a3.153,3.153,0,0,0,.85-.32,5.1,5.1,0,0,0,.86-.58,6.815,6.815,0,0,0,1.41-1.65,11.39,11.39,0,0,0,1-2l.37-1.09.31-1.12h0v-.06a1.16,1.16,0,0,1,2.23,0l.45,1.71c.11.59.23,1.17.32,1.76a17.394,17.394,0,0,1,.15,3.62,12.833,12.833,0,0,1-.74,3.64,10.358,10.358,0,0,1-.83,1.72,7.057,7.057,0,0,1-1.3,1.62,1.182,1.182,0,0,1-1.59-1.75l.08-.08a4.944,4.944,0,0,0,.8-1,7.987,7.987,0,0,0,.63-1.32,10.461,10.461,0,0,0,.6-3,15.675,15.675,0,0,0-.11-3.1l-.29-1.57-.4-1.57h2.25l-.43,1.23-.52,1.21a13.126,13.126,0,0,1-1.37,2.3,8.688,8.688,0,0,1-1.93,1.95,7.123,7.123,0,0,1-1.229.71,4.537,4.537,0,0,1-1.5.39.819.819,0,0,1-.89-.74.83.83,0,0,1,.649-.88Z" style="fill:#fff"/><path d="M187.56,306.1a20.857,20.857,0,0,0-1-6.45,31.381,31.381,0,0,0-1.12-3.09,27.987,27.987,0,0,0-1.42-2.92h0l2.2-.42a17.7,17.7,0,0,1-1.16,4,20.073,20.073,0,0,1-1.95,3.56,24.347,24.347,0,0,1-2.52,3.11,23.62,23.62,0,0,1-3,2.68.5.5,0,0,1-.7-.089l-.009-.011a.51.51,0,0,1,.06-.68h0a23.221,23.221,0,0,0,2.57-2.76,24.71,24.71,0,0,0,2.11-3.12,18.1,18.1,0,0,0,1.5-3.38,15.482,15.482,0,0,0,.71-3.54h0a1.18,1.18,0,0,1,1.29-1,1.147,1.147,0,0,1,.91.63h0a29.718,29.718,0,0,1,1.29,3.3,34.737,34.737,0,0,1,.92,3.37,22.111,22.111,0,0,1,.46,7,.628.628,0,0,1-.69.55.62.62,0,0,1-.55-.63Z" style="fill:#fff"/><path d="M158.12,303.7a4.441,4.441,0,0,1-1.48-.38,7.729,7.729,0,0,1-1.23-.69,8.877,8.877,0,0,1-1.93-1.93,14.227,14.227,0,0,1-1.36-2.28l-.56-1.25-.44-1.19h2.25l-.4,1.57-.29,1.62a15.855,15.855,0,0,0-.13,3.14,10.529,10.529,0,0,0,.6,3,8.151,8.151,0,0,0,.63,1.32,5.042,5.042,0,0,0,.8,1l.09.09a1.17,1.17,0,0,1,.06,1.65,1.15,1.15,0,0,1-1.624.085l-.016-.015a6.937,6.937,0,0,1-1.31-1.62,10.557,10.557,0,0,1-.83-1.72,12.9,12.9,0,0,1-.74-3.64,18.261,18.261,0,0,1,.15-3.62c.09-.59.21-1.17.32-1.76l.45-1.71a1.16,1.16,0,0,1,2.23,0v.05h0l.3,1.12.36,1.1a12.744,12.744,0,0,0,1,2,7.215,7.215,0,0,0,1.41,1.68,5.122,5.122,0,0,0,.87.59,4.009,4.009,0,0,0,.87.34h.13a.76.76,0,0,1,.58.89A.748.748,0,0,1,158.12,303.7Z" style="fill:#fff"/><path d="M166.01,303.48a10.361,10.361,0,0,1,.9-4.45,10.986,10.986,0,0,1,1.14-2,10.2,10.2,0,0,1,1.57-1.75h0a.94.94,0,0,1,1.322.14h0l.008.01a.924.924,0,0,1,.19.46c.1.67.24,1.4.41,2.08s.37,1.39.6,2.06a10.967,10.967,0,0,0,2,3.61h-1a8.836,8.836,0,0,0,.71-2.78,29.113,29.113,0,0,0,.24-3.15v-3.24l-.15-3.24h0v-.13a1.252,1.252,0,0,1,1.177-1.32h0a1.268,1.268,0,0,1,1.06.49,27.345,27.345,0,0,1,2,3,26.188,26.188,0,0,1,1.59,3.19,16.421,16.421,0,0,1,1,3.47,9.631,9.631,0,0,1-.08,3.71.68.68,0,0,1-1.33-.25h0a8.071,8.071,0,0,0-.22-3.09,13.813,13.813,0,0,0-1.17-3,22.75,22.75,0,0,0-1.71-2.79,26.77,26.77,0,0,0-2-2.53l2.24-1h0a35.762,35.762,0,0,1,.13,6.87,21.114,21.114,0,0,1-.55,3.48,6.123,6.123,0,0,1-1.93,3.27l-.14.11a.579.579,0,0,1-.813-.093h0l-.006-.006h0a12.406,12.406,0,0,1-2.56-4,21.954,21.954,0,0,1-.8-2.18c-.22-.74-.42-1.46-.58-2.26l1.54.61h0a8.3,8.3,0,0,0-1.32,1.33,9.019,9.019,0,0,0-1.05,1.62,8.651,8.651,0,0,0-1,3.73h0a.73.73,0,0,1-1.45,0Z" style="fill:#fff"/><path d="M158.03,306.17a22.17,22.17,0,0,1,.46-7,32.408,32.408,0,0,1,.91-3.37,30.273,30.273,0,0,1,1.29-3.3h0a1.16,1.16,0,0,1,1.557-.517h0l.013.007a1.182,1.182,0,0,1,.63.9h0a16.124,16.124,0,0,0,.73,3.53,19.178,19.178,0,0,0,1.52,3.37,24.527,24.527,0,0,0,2.12,3.09,23.865,23.865,0,0,0,2.57,2.73h0a.6.6,0,0,1,.053.847h0a.61.61,0,0,1-.82.07,25.505,25.505,0,0,1-5.45-5.84,19.888,19.888,0,0,1-1.94-3.57,18.009,18.009,0,0,1-1.14-4l2.2.42h0a28.188,28.188,0,0,0-1.42,2.92,31.126,31.126,0,0,0-1.12,3.09,20.617,20.617,0,0,0-1,6.45h0a.609.609,0,0,1-.587.63h-.013A.622.622,0,0,1,158.03,306.17Z" style="fill:#fff"/><line x1="101.63" y1="324.36" x2="243.27" y2="324.36" style="fill:none;stroke:#fff;stroke-linecap:round;stroke-linejoin:round;stroke-width:2.3399999141693115px"/><path d="M114.55,94.17l2.25-2.27c.8-.74,1.6-1.5,2.39-2.29,11.75-11.76,18.16-24.44,14.32-28.25s-16.3,2.81-28.06,14.51-18.25,24.3-14.51,28.06L55.35,68.34c-3.74-3.74,2.77-16.31,14.51-28.06S94.18,22.03,97.92,25.77l35.59,35.59" style="fill:none;stroke:#fff;stroke-linecap:round;stroke-linejoin:round;stroke-width:2.3399999141693115px"/><path d="M100.51,81.5l6.66,5.43,7.38,7.24c.79-.74,3.85-3.77,4.64-4.56,11.75-11.76,18.16-24.44,14.32-28.25s-16.3,2.81-28.06,14.51" style="fill:#fff;opacity:0.5;isolation:isolate"/><path d="M100.51,81.5c-8.73,9.57-12.39,19.67-9.57,22.43,0,0,26.06,23.52,31.23,83.23h0c2.12-2.08,3.53-5,7.44-5,6.12,0,6.12,7,12.24,7s6.12-7,12.24-7a6.921,6.921,0,0,1,1.15.09v-.19C145.12,111.96,100.51,81.5,100.51,81.5" style="stroke:#ffb241;stroke-miterlimit:10;fill:url(#USGS_22_Gravel_Beach_4)"/><path d="M250.99,155.55h0a13.42,13.42,0,0,0-13.42,13.42V272.98a7.759,7.759,0,0,1-7.76,7.75H115.12a7.75,7.75,0,0,1-7.76-7.74h0V168.98a13.42,13.42,0,0,0-13.41-13.43h-.01" style="fill:none;stroke:#fff;stroke-linecap:round;stroke-linejoin:round;stroke-width:2.3399999141693115px"/><path d="M211.72,32.97a6.079,6.079,0,0,1-2.6,6.33" style="fill:none;stroke:#505cf1;stroke-linecap:round;stroke-linejoin:round;stroke-width:1.1699999570846558px"/></g><path d="M185.738,65.625a5.9,5.9,0,0,1-1.692,1.055,4.9,4.9,0,0,1-1.745.308,3.392,3.392,0,0,1-2.364-.752,2.48,2.48,0,0,1-.826-1.92,2.548,2.548,0,0,1,.312-1.252,2.578,2.578,0,0,1,.817-.91,3.827,3.827,0,0,1,1.139-.519,11.152,11.152,0,0,1,1.406-.237,14.485,14.485,0,0,0,2.821-.545c.006-.217.009-.355.009-.413a1.743,1.743,0,0,0-.448-1.362,2.648,2.648,0,0,0-1.8-.537,2.8,2.8,0,0,0-1.648.392,2.392,2.392,0,0,0-.787,1.384l-1.546-.211a3.842,3.842,0,0,1,.694-1.605,3.04,3.04,0,0,1,1.4-.939,6.2,6.2,0,0,1,2.118-.33,5.62,5.62,0,0,1,1.943.281,2.572,2.572,0,0,1,1.1.707,2.5,2.5,0,0,1,.493,1.077,9.005,9.005,0,0,1,.079,1.459v2.11a22.214,22.214,0,0,0,.1,2.79,3.521,3.521,0,0,0,.4,1.121H186.06A3.381,3.381,0,0,1,185.738,65.625Zm-.132-3.533a11.51,11.51,0,0,1-2.584.6,6.047,6.047,0,0,0-1.38.316,1.378,1.378,0,0,0-.624.515,1.4,1.4,0,0,0,.26,1.806,2.058,2.058,0,0,0,1.4.421,3.25,3.25,0,0,0,1.626-.4,2.461,2.461,0,0,0,1.046-1.095,3.815,3.815,0,0,0,.255-1.582Z" style="fill:#fff"/><path d="M196.649,63.358l1.555.2a4.036,4.036,0,0,1-1.305,2.518,3.8,3.8,0,0,1-2.579.91,4.009,4.009,0,0,1-3.081-1.252,5.088,5.088,0,0,1-1.165-3.591,6.489,6.489,0,0,1,.5-2.646,3.505,3.505,0,0,1,1.525-1.7,4.532,4.532,0,0,1,2.228-.566,3.882,3.882,0,0,1,2.488.769,3.533,3.533,0,0,1,1.239,2.184l-1.538.237a2.561,2.561,0,0,0-.778-1.415,2.014,2.014,0,0,0-1.349-.474,2.456,2.456,0,0,0-1.943.857A4.064,4.064,0,0,0,191.7,62.1a4.21,4.21,0,0,0,.721,2.733,2.345,2.345,0,0,0,1.881.853,2.22,2.22,0,0,0,1.556-.571A2.844,2.844,0,0,0,196.649,63.358Z" style="fill:#fff"/><path d="M206.407,70.354v-4.57a2.83,2.83,0,0,1-1.032.861,3.041,3.041,0,0,1-1.411.343,3.732,3.732,0,0,1-2.86-1.327,5.228,5.228,0,0,1-1.2-3.639,6.241,6.241,0,0,1,.488-2.523,3.641,3.641,0,0,1,1.415-1.691,3.778,3.778,0,0,1,2.034-.576,3.127,3.127,0,0,1,2.725,1.459V57.443h1.423V70.354Zm-4.877-8.271a4.126,4.126,0,0,0,.755,2.7,2.289,2.289,0,0,0,1.811.9,2.212,2.212,0,0,0,1.74-.858,3.943,3.943,0,0,0,.73-2.6,4.353,4.353,0,0,0-.769-2.8,2.279,2.279,0,0,0-1.807-.94,2.18,2.18,0,0,0-1.744.875A4.27,4.27,0,0,0,201.53,62.083Z" style="fill:#fff"/><path d="M217.486,66.777V65.406a3.421,3.421,0,0,1-2.962,1.582,3.769,3.769,0,0,1-1.542-.317,2.529,2.529,0,0,1-1.064-.8,3,3,0,0,1-.488-1.173,8.027,8.027,0,0,1-.1-1.477V57.443h1.582v5.176a9.145,9.145,0,0,0,.1,1.67,1.642,1.642,0,0,0,.633.98,1.954,1.954,0,0,0,1.195.356,2.6,2.6,0,0,0,1.336-.364,2.025,2.025,0,0,0,.884-.994,4.97,4.97,0,0,0,.259-1.823v-5H218.9v9.334Z" style="fill:#fff"/><path d="M228.37,65.625a5.9,5.9,0,0,1-1.692,1.055,4.9,4.9,0,0,1-1.744.308,3.385,3.385,0,0,1-2.364-.752,2.479,2.479,0,0,1-.827-1.92,2.6,2.6,0,0,1,1.129-2.162,3.827,3.827,0,0,1,1.139-.519,11.152,11.152,0,0,1,1.406-.237,14.485,14.485,0,0,0,2.821-.545c.006-.217.009-.355.009-.413a1.743,1.743,0,0,0-.448-1.362,2.646,2.646,0,0,0-1.8-.537,2.793,2.793,0,0,0-1.648.392,2.385,2.385,0,0,0-.786,1.384l-1.547-.211a3.842,3.842,0,0,1,.694-1.605,3.04,3.04,0,0,1,1.4-.939,6.2,6.2,0,0,1,2.118-.33,5.614,5.614,0,0,1,1.942.281,2.582,2.582,0,0,1,1.1.707,2.493,2.493,0,0,1,.492,1.077,8.894,8.894,0,0,1,.079,1.459v2.11a22.214,22.214,0,0,0,.1,2.79,3.521,3.521,0,0,0,.4,1.121h-1.652A3.357,3.357,0,0,1,228.37,65.625Zm-.132-3.533a11.569,11.569,0,0,1-2.583.6,5.944,5.944,0,0,0-1.38.316,1.366,1.366,0,0,0-.624.515,1.4,1.4,0,0,0,.258,1.806,2.068,2.068,0,0,0,1.4.421,3.25,3.25,0,0,0,1.626-.4,2.472,2.472,0,0,0,1.046-1.095,3.831,3.831,0,0,0,.254-1.582Z" style="fill:#fff"/></svg>