<svg id="Layer_1" data-name="Layer 1" xmlns="http://www.w3.org/2000/svg" viewBox="0 0 391.556 391.56"><title>bollitura</title><g id="Layer_1-2" data-name="Layer 1-2"><path d="M195.158,349.88h-57.53a9.81,9.81,0,0,1-9.78-9.84h0V233.65a11.25,11.25,0,0,0-11.23-11.24v3.52a7.72,7.72,0,0,1,7.72,7.72h0V340.11a13.29,13.29,0,0,0,13.29,13.28H252.7a13.291,13.291,0,0,0,13.28-13.28V233.65a7.72,7.72,0,0,1,7.72-7.72h0v-3.52a11.249,11.249,0,0,0-11.24,11.24V340.03a9.81,9.81,0,0,1-9.77,9.85H195.158Z" style="fill:none;stroke:#fff;stroke-linecap:round;stroke-linejoin:round;stroke-width:2.3399999141693115px"/><path d="M127.848,249.06c6.12,0,6.12,7,12.24,7s6.12-7,12.24-7,6.11,7,12.23,7,6.12-7,12.24-7,6.12,7,12.23,7,6.12-7,12.24-7,6.11,7,12.23,7,6.12-7,12.24-7,6.12,7,12.24,7,6.12-7,12.24-7,6.13,7,12.25,7" style="fill:none;stroke:#fff;stroke-linecap:round;stroke-linejoin:round;stroke-width:2.3399999141693115px"/><line x1="116.618" y1="222.41" x2="273.698" y2="222.41" style="fill:none;stroke:#fff;stroke-linecap:round;stroke-linejoin:round;stroke-width:2.3399999141693115px"/><path d="M198.648,297.58a2.53,2.53,0,1,1,2.52-2.54v.02a2.52,2.52,0,0,1-2.52,2.52Z" style="fill:none;stroke:#fff;stroke-linejoin:round;stroke-width:1.1699999570846558px"/><path d="M163.1,296.69a3.62,3.62,0,1,1,.02,0Z" style="fill:none;stroke:#fff;stroke-linejoin:round;stroke-width:1.1699999570846558px"/><path d="M175.708,321.59a3.64,3.64,0,1,1,3.64-3.64v.01A3.641,3.641,0,0,1,175.708,321.59Z" style="fill:none;stroke:#fff;stroke-linejoin:round;stroke-width:1.1699999570846558px"/><circle cx="169.368" cy="288.55" r="1.49" style="fill:none;stroke:#fff;stroke-linejoin:round;stroke-width:1.1699999570846558px"/><path d="M242.218,317.5a3.79,3.79,0,1,1,3.78-3.8v.02A3.791,3.791,0,0,1,242.218,317.5Z" style="fill:none;stroke:#fff;stroke-linejoin:round;stroke-width:1.1699999570846558px"/><path d="M240.728,326.17a2.65,2.65,0,1,1,2.64-2.66v.01A2.652,2.652,0,0,1,240.728,326.17Z" style="fill:none;stroke:#fff;stroke-linejoin:round;stroke-width:1.1699999570846558px"/><path d="M247.868,334.88a1.87,1.87,0,1,1,1.87-1.87h0A1.87,1.87,0,0,1,247.868,334.88Z" style="fill:none;stroke:#fff;stroke-linejoin:round;stroke-width:1.1699999570846558px"/><path d="M236.458,280.85a3.08,3.08,0,1,1,3.07-3.09v.02A3.081,3.081,0,0,1,236.458,280.85Z" style="fill:none;stroke:#fff;stroke-linejoin:round;stroke-width:1.1699999570846558px"/><path d="M124.338,261.03l-23.43-5.93h0a4.57,4.57,0,0,1,1.07-9h22.36" style="fill:none;stroke:#fff;stroke-linecap:round;stroke-linejoin:round;stroke-width:2.3399999141693115px"/><path d="M265.978,261.03l23.48-5.93h0a4.57,4.57,0,0,0-1.07-9h-22.41" style="fill:none;stroke:#fff;stroke-linecap:round;stroke-linejoin:round;stroke-width:2.3399999141693115px"/><path d="M244.519,28.536V15.652H246.1V28.536Z" style="fill:#fff"/><path d="M255.57,28.536V27.165a3.415,3.415,0,0,1-2.962,1.582,3.773,3.773,0,0,1-1.543-.316,2.548,2.548,0,0,1-1.063-.8,2.978,2.978,0,0,1-.487-1.174,7.93,7.93,0,0,1-.1-1.476V19.2H251v5.176a9.145,9.145,0,0,0,.1,1.67,1.648,1.648,0,0,0,.632.98,1.955,1.955,0,0,0,1.2.356,2.6,2.6,0,0,0,1.336-.364,2.027,2.027,0,0,0,.883-.994A5,5,0,0,0,255.4,24.2v-5h1.582v9.333Z" style="fill:#fff"/><path d="M260.363,32.114V19.2h1.442v1.212a3.573,3.573,0,0,1,1.151-1.068,3.176,3.176,0,0,1,1.556-.355,3.684,3.684,0,0,1,2.109.615A3.775,3.775,0,0,1,268,21.343a6.321,6.321,0,0,1,.466,2.456,6.231,6.231,0,0,1-.514,2.579,3.907,3.907,0,0,1-3.556,2.369,2.976,2.976,0,0,1-1.418-.334,3.222,3.222,0,0,1-1.034-.843v4.544Zm1.433-8.192a4.066,4.066,0,0,0,.729,2.663,2.237,2.237,0,0,0,1.767.862,2.288,2.288,0,0,0,1.807-.893,4.229,4.229,0,0,0,.751-2.764,4.124,4.124,0,0,0-.734-2.671,2.209,2.209,0,0,0-1.754-.888,2.28,2.28,0,0,0-1.788.944,4.232,4.232,0,0,0-.774,2.747Z" style="fill:#fff"/><path d="M271.274,32.114V19.2h1.442v1.212a3.573,3.573,0,0,1,1.151-1.068,3.176,3.176,0,0,1,1.556-.355,3.684,3.684,0,0,1,2.109.615,3.763,3.763,0,0,1,1.38,1.736,6.321,6.321,0,0,1,.466,2.456,6.231,6.231,0,0,1-.514,2.579,3.908,3.908,0,0,1-3.555,2.369,2.98,2.98,0,0,1-1.419-.334,3.222,3.222,0,0,1-1.034-.843v4.544Zm1.433-8.192a4.055,4.055,0,0,0,.73,2.663,2.233,2.233,0,0,0,1.766.862,2.289,2.289,0,0,0,1.807-.893,4.229,4.229,0,0,0,.751-2.764,4.118,4.118,0,0,0-.734-2.671,2.209,2.209,0,0,0-1.754-.888,2.282,2.282,0,0,0-1.788.944A4.229,4.229,0,0,0,272.707,23.922Z" style="fill:#fff"/><path d="M281.6,23.869a4.811,4.811,0,0,1,1.441-3.84,4.343,4.343,0,0,1,2.936-1.037,4.186,4.186,0,0,1,3.146,1.261,4.8,4.8,0,0,1,1.222,3.485,6.171,6.171,0,0,1-.541,2.834,3.833,3.833,0,0,1-1.573,1.6,4.578,4.578,0,0,1-2.254.571,4.2,4.2,0,0,1-3.169-1.256A5.02,5.02,0,0,1,281.6,23.869Zm1.626,0a3.968,3.968,0,0,0,.782,2.685,2.6,2.6,0,0,0,3.668.261,2.572,2.572,0,0,0,.261-.261,4.07,4.07,0,0,0,.782-2.733,3.864,3.864,0,0,0-.787-2.624,2.607,2.607,0,0,0-3.68-.244,2.554,2.554,0,0,0-.244.244,3.955,3.955,0,0,0-.785,2.672Z" style="fill:#fff"/><path d="M293.061,28.536V15.652h1.582V28.536Z" style="fill:#fff"/><path d="M297.406,23.869a4.808,4.808,0,0,1,1.442-3.84,4.338,4.338,0,0,1,2.935-1.037,4.188,4.188,0,0,1,3.147,1.261,4.8,4.8,0,0,1,1.221,3.485,6.171,6.171,0,0,1-.541,2.834,3.816,3.816,0,0,1-1.573,1.6,4.578,4.578,0,0,1-2.254.571,4.2,4.2,0,0,1-3.169-1.256A5.02,5.02,0,0,1,297.406,23.869Zm1.626,0a3.978,3.978,0,0,0,.782,2.685,2.6,2.6,0,0,0,3.668.261,2.572,2.572,0,0,0,.261-.261,4.064,4.064,0,0,0,.782-2.733,3.852,3.852,0,0,0-.787-2.624,2.607,2.607,0,0,0-3.68-.244,2.554,2.554,0,0,0-.244.244A3.96,3.96,0,0,0,299.032,23.869Z" style="fill:#fff"/><path d="M120.958,119.8c0,13.19,51.21,38.22,53.54,92" style="fill:none;stroke:#fff;stroke-linecap:round;stroke-linejoin:round;stroke-width:3.5199999809265137px;stroke-dasharray:0.5899999737739563,5.860000133514404"/><polygon points="159.058 201.33 161.438 198.74 174.178 210.5 184.978 196.93 187.728 199.13 174.578 215.65 159.058 201.33" style="fill:#fff"/><path d="M269.308,119.8c0,13.19-51.21,38.22-53.54,92" style="fill:none;stroke:#fff;stroke-linecap:round;stroke-linejoin:round;stroke-width:3.5199999809265137px;stroke-dasharray:0.5899999737739563,5.860000133514404"/><polygon points="202.538 199.13 205.288 196.93 216.078 210.5 228.818 198.74 231.208 201.33 215.678 215.64 202.538 199.13" style="fill:#fff"/><polyline points="155.988 385.4 164.268 375.7 226.058 375.7 234.338 385.4" style="fill:none;stroke:#fff;stroke-linecap:round;stroke-linejoin:round;stroke-width:2.3399999141693115px"/><line x1="234.338" y1="385.4" x2="155.988" y2="385.4" style="fill:none;stroke:#fff;stroke-linecap:round;stroke-linejoin:round;stroke-width:2.3399999141693115px"/><polyline points="162.258 378.04 141.598 353.74 185.048 353.74 182.728 357.42 158.298 360.25 164.268 375.7" style="fill:none;stroke:#fff;stroke-linecap:round;stroke-linejoin:round;stroke-width:2.3399999141693115px"/><polyline points="234.338 385.4 234.338 391.56 155.988 391.56 155.988 385.4" style="fill:none;stroke:#fff;stroke-linecap:round;stroke-linejoin:round;stroke-width:2.3399999141693115px"/><polyline points="228.058 378.04 248.718 353.74 205.268 353.74 207.598 357.42 232.018 360.25 226.058 375.7" style="fill:none;stroke:#fff;stroke-linecap:round;stroke-linejoin:round;stroke-width:2.3399999141693115px"/><path d="M211.388,370.17s3.92-.21,5.89-7.29c2.75,9.27-1.58,12.84-1.58,12.84" style="fill:none;stroke:#fff;stroke-linecap:round;stroke-linejoin:round;stroke-width:2.3399999141693115px"/><path d="M202.8,370.68c1.15-5.47-4.83-12.37-4.83-12.37s1.06,10.39-1.56,13" style="fill:none;stroke:#fff;stroke-linecap:round;stroke-linejoin:round;stroke-width:2.3399999141693115px"/><path d="M210.888,373.35c.5-6.33-3.08-13.06-3.08-13.06-.89,7.71-7.74,13.06-7.74,13.06" style="fill:none;stroke:#fff;stroke-linecap:round;stroke-linejoin:round;stroke-width:2.3399999141693115px"/><path d="M180.858,370.17s-3.93-.21-5.9-7.29c-2.74,9.27,1.58,12.84,1.58,12.84" style="fill:none;stroke:#fff;stroke-linecap:round;stroke-linejoin:round;stroke-width:2.3399999141693115px"/><path d="M189.458,370.68a10,10,0,0,1,3.48-7.43s.86,5.45,3.48,8.08" style="fill:none;stroke:#fff;stroke-linecap:round;stroke-linejoin:round;stroke-width:2.3399999141693115px"/><path d="M181.358,373.35c-.5-6.33,3.08-13.06,3.08-13.06.89,7.71,7.74,13.06,7.74,13.06" style="fill:none;stroke:#fff;stroke-linecap:round;stroke-linejoin:round;stroke-width:2.3399999141693115px"/><line x1="124.338" y1="391.56" x2="265.978" y2="391.56" style="fill:none;stroke:#fff;stroke-linecap:round;stroke-linejoin:round;stroke-width:2.3399999141693115px"/><path d="M247.818,107.66c5.44-17.27,14.55-27.28,14.55-27.28,2.47,1.74,4.93,3.22,12,3.77,7.6.6,11.77-3.59,11.77-3.59a41.043,41.043,0,0,0-5.85-4.23s.95.58,4.61-.61a20.156,20.156,0,0,0,9.18-6.78,17.137,17.137,0,0,0-9-2.52,8.916,8.916,0,0,0,2.17-.13,8,8,0,0,0,1.8-.69c4.53-2.39,5-6.05,5-6.05a10.694,10.694,0,0,0-5.2-2.39h0s1.05.12,2.56-1.45a7.445,7.445,0,0,0,2-3.95,6.691,6.691,0,0,0-4.28-1c-2.29.28-3,1.38-3,1.38a13.685,13.685,0,0,0,.15-6.92,13.076,13.076,0,0,0-5.6,1.65,4.4,4.4,0,0,0,.37-3.41,6.787,6.787,0,0,0-2.34-3.8,7.457,7.457,0,0,0-3.19,3.21c-1,1.95-.55,3-.55,3a10.814,10.814,0,0,0-4-4.32s-3.42,1.6-4.29,6.72a8.119,8.119,0,0,0-.09,2,14.379,14.379,0,0,0,.53,3.63h0c-.54-3.63,1.09,1.66-5-6.81,0,0-4.16,4.28-3.7,10,.33,4.09,1.46,4.91,1.46,4.91a39.215,39.215,0,0,0-6.82-5s-2.71,5.22.25,12.15c2.34,5.46,4.6,7.85,6.77,9.56a80.543,80.543,0,0,0-14.92,27.72" style="fill:none;stroke:#aff150;stroke-miterlimit:10;opacity:0.5;isolation:isolate"/><path d="M280.288,76.33s.95.58,4.61-.61a14.16,14.16,0,0,0,8-6.78s-5.68-2.69-9.07-2.59-7.74,3.21-7.74,3.21,3.42-4.3,1.43-11.58c-7.63.42-10.69,5-10.69,5s1.62-5,.65-8.25-5.34-7.69-5.34-7.69-4.16,4.28-3.7,10c.33,4.09,1.46,4.91,1.46,4.91" style="fill:none;stroke:#aff150;stroke-linecap:round;stroke-linejoin:round;stroke-width:2.3399999141693115px"/><path d="M264.968,75.17s3.29-1.62,9.12-1.12c5.21.44,12.05,6.56,12.05,6.56s-4.17,4.19-11.77,3.59-9.87-2.26-12.55-4.16-5.53-3.9-8.49-10.83-.25-12.15-.25-12.15,8,4.48,10.11,9.22C265.508,71.53,264.968,75.17,264.968,75.17Z" style="fill:none;stroke:#aff150;stroke-linecap:round;stroke-linejoin:round;stroke-width:2.3399999141693115px"/><path d="M275.038,45.85s-.5-1,.55-3a7.457,7.457,0,0,1,3.19-3.21,6.787,6.787,0,0,1,2.34,3.8,4.4,4.4,0,0,1-.37,3.41" style="fill:none;stroke:#aff150;stroke-linecap:round;stroke-linejoin:round;stroke-width:2.3399999141693115px"/><path d="M285.088,66.42a9.3,9.3,0,0,0,2.21-.13,8,8,0,0,0,1.8-.69c4.53-2.39,5-6.05,5-6.05a10.335,10.335,0,0,0-6.17-2.45,17.526,17.526,0,0,0-4.1.74s4.17-6.55,2.53-12.61c-6.44.36-10.37,5.63-10.37,5.63a17.628,17.628,0,0,0-.6-4.18,10.464,10.464,0,0,0-4.38-5.15s-3.42,1.6-4.29,6.72a8.119,8.119,0,0,0-.09,2,14.425,14.425,0,0,0,.53,3.63" style="fill:none;stroke:#aff150;stroke-linecap:round;stroke-linejoin:round;stroke-width:2.3399999141693115px"/><path d="M288.878,57.17s1.05.12,2.56-1.45a7.445,7.445,0,0,0,2-3.95,6.689,6.689,0,0,0-4.28-1c-2.29.28-3,1.38-3,1.38" style="fill:none;stroke:#aff150;stroke-linecap:round;stroke-linejoin:round;stroke-width:2.3399999141693115px"/><path d="M259.168,79.26c.08-.18-9,9.91-14.45,27.18" style="fill:none;stroke:#aff150;stroke-linecap:round;stroke-linejoin:round;stroke-width:2.3399999141693115px"/><path d="M263.148,81.04c.08-.18-9,9.91-14.45,27.18" style="fill:none;stroke:#aff150;stroke-linecap:round;stroke-linejoin:round;stroke-width:2.3399999141693115px"/><path d="M136.158,86.76a15.2,15.2,0,1,1-30.4,0c0-12.75,15.2-32.59,15.2-41.39C120.958,54.17,136.158,74.01,136.158,86.76Z" style="fill:#fff;opacity:0.5;isolation:isolate"/><path d="M136.158,86.76a15.2,15.2,0,1,1-30.4,0c0-12.75,15.2-32.59,15.2-41.39C120.958,54.17,136.158,74.01,136.158,86.76Z" style="fill:#f1e050;stroke:#ffb241;stroke-linecap:round;stroke-linejoin:round;stroke-width:2.3399999141693115px"/><path d="M129.458,84.28a8.911,8.911,0,0,1-3.77,9.28" style="fill:none;stroke:#ffb241;stroke-linecap:round;stroke-linejoin:round;stroke-width:2.3399999141693115px"/></g><path d="M95.836,19.178V9.844h1.415v1.309a3.294,3.294,0,0,1,2.83-1.517,3.076,3.076,0,0,1,1.7.43,2.312,2.312,0,0,1,.936,1.2A3.352,3.352,0,0,1,105.6,9.633a2.841,2.841,0,0,1,2.135.769,3.287,3.287,0,0,1,.747,2.368v6.408H106.91V13.3a4.319,4.319,0,0,0-.154-1.367,1.316,1.316,0,0,0-.558-.672,1.743,1.743,0,0,0-.949-.255,2.207,2.207,0,0,0-1.635.655,2.887,2.887,0,0,0-.65,2.1v5.423h-1.582V13.113A2.666,2.666,0,0,0,101,11.531,1.468,1.468,0,0,0,99.729,11a2.3,2.3,0,0,0-1.234.351,2,2,0,0,0-.822,1.029,5.781,5.781,0,0,0-.255,1.951v4.843Z" style="fill:#fff"/><path d="M111.141,14.511a4.81,4.81,0,0,1,1.442-3.841,4.338,4.338,0,0,1,2.935-1.037,4.188,4.188,0,0,1,3.147,1.261,4.8,4.8,0,0,1,1.221,3.485,6.183,6.183,0,0,1-.54,2.834,3.824,3.824,0,0,1-1.574,1.6,4.569,4.569,0,0,1-2.254.572,4.193,4.193,0,0,1-3.168-1.257A5.018,5.018,0,0,1,111.141,14.511Zm1.626,0a3.978,3.978,0,0,0,.782,2.685,2.6,2.6,0,0,0,3.668.257,2.69,2.69,0,0,0,.261-.262,4.064,4.064,0,0,0,.782-2.733,3.863,3.863,0,0,0-.786-2.624,2.609,2.609,0,0,0-3.682-.243,2.654,2.654,0,0,0-.243.243A3.955,3.955,0,0,0,112.767,14.511Z" style="fill:#fff"/><path d="M122.008,16.391l1.564-.246a2.189,2.189,0,0,0,.734,1.442,2.559,2.559,0,0,0,1.683.5,2.472,2.472,0,0,0,1.617-.444,1.325,1.325,0,0,0,.528-1.042.961.961,0,0,0-.466-.843,6.78,6.78,0,0,0-1.617-.536,14.76,14.76,0,0,1-2.413-.761,2.3,2.3,0,0,1-1.367-2.14,2.414,2.414,0,0,1,.286-1.156,2.57,2.57,0,0,1,.778-.883,3.258,3.258,0,0,1,1.006-.461,4.79,4.79,0,0,1,1.367-.189,5.391,5.391,0,0,1,1.929.316,2.632,2.632,0,0,1,1.226.857,3.342,3.342,0,0,1,.545,1.446l-1.547.211a1.689,1.689,0,0,0-.611-1.125,2.234,2.234,0,0,0-1.428-.4,2.586,2.586,0,0,0-1.555.361,1.049,1.049,0,0,0-.466.844.868.868,0,0,0,.193.553,1.388,1.388,0,0,0,.607.422q.237.088,1.4.4a19.611,19.611,0,0,1,2.342.734,2.385,2.385,0,0,1,1.042.831,2.318,2.318,0,0,1,.378,1.353,2.665,2.665,0,0,1-.462,1.49,2.978,2.978,0,0,1-1.331,1.081,4.838,4.838,0,0,1-1.969.383,4.385,4.385,0,0,1-2.773-.756A3.514,3.514,0,0,1,122.008,16.391Z" style="fill:#fff"/><path d="M136,17.763l.229,1.4a5.906,5.906,0,0,1-1.2.141,2.7,2.7,0,0,1-1.336-.273,1.526,1.526,0,0,1-.668-.716,5.716,5.716,0,0,1-.193-1.868v-5.37h-1.16V9.844h1.16V7.532l1.573-.949V9.844H136v1.23h-1.6v5.458a2.8,2.8,0,0,0,.083.87.664.664,0,0,0,.273.308,1.057,1.057,0,0,0,.541.114A5.184,5.184,0,0,0,136,17.763Z" style="fill:#fff"/><path d="M137.853,14.511a4.809,4.809,0,0,1,1.441-3.841,4.338,4.338,0,0,1,2.935-1.037,4.188,4.188,0,0,1,3.147,1.261,4.8,4.8,0,0,1,1.222,3.485,6.183,6.183,0,0,1-.54,2.834,3.824,3.824,0,0,1-1.574,1.6,4.572,4.572,0,0,1-2.255.572,4.2,4.2,0,0,1-3.167-1.257A5.018,5.018,0,0,1,137.853,14.511Zm1.626,0a3.978,3.978,0,0,0,.782,2.685,2.6,2.6,0,0,0,3.668.256,2.562,2.562,0,0,0,.26-.261,4.069,4.069,0,0,0,.783-2.733,3.858,3.858,0,0,0-.786-2.624,2.609,2.609,0,0,0-3.682-.243,2.654,2.654,0,0,0-.243.243A3.955,3.955,0,0,0,139.479,14.511Z" style="fill:#fff"/><path d="M94.864,37.178v-8.1h-1.4v-1.23h1.4v-1a4.327,4.327,0,0,1,.167-1.4,2.022,2.022,0,0,1,.8-1,2.908,2.908,0,0,1,1.613-.382,7.707,7.707,0,0,1,1.476.158l-.237,1.38a5.4,5.4,0,0,0-.932-.088,1.387,1.387,0,0,0-1.019.308,1.668,1.668,0,0,0-.3,1.151v.862h1.819v1.23H96.437v8.1Z" style="fill:#fff"/><path d="M100.4,26.112V24.293h1.582v1.819Zm0,11.066V27.844h1.582v9.334Z" style="fill:#fff"/><path d="M105.25,37.178V24.293h1.583V37.178Z" style="fill:#fff"/><path d="M113.639,35.763l.229,1.4a5.906,5.906,0,0,1-1.2.141,2.7,2.7,0,0,1-1.336-.273,1.526,1.526,0,0,1-.668-.716,5.716,5.716,0,0,1-.193-1.868v-5.37h-1.16v-1.23h1.16V25.532l1.573-.949v3.261h1.591v1.23h-1.591v5.458a2.743,2.743,0,0,0,.084.87.662.662,0,0,0,.272.308,1.057,1.057,0,0,0,.541.114A5.1,5.1,0,0,0,113.639,35.763Z" style="fill:#fff"/><path d="M116.068,37.178V27.844h1.424v1.415a3.865,3.865,0,0,1,1.007-1.31,1.755,1.755,0,0,1,1.015-.316,3.089,3.089,0,0,1,1.626.509l-.54,1.468a2.269,2.269,0,0,0-1.16-.343,1.508,1.508,0,0,0-.932.312,1.691,1.691,0,0,0-.589.866,6.17,6.17,0,0,0-.264,1.846v4.887Z" style="fill:#fff"/><path d="M129.07,36.026a5.891,5.891,0,0,1-1.691,1.055,4.9,4.9,0,0,1-1.745.308,3.392,3.392,0,0,1-2.364-.752,2.48,2.48,0,0,1-.826-1.92,2.6,2.6,0,0,1,1.129-2.162,3.821,3.821,0,0,1,1.138-.519,11.152,11.152,0,0,1,1.406-.237,14.485,14.485,0,0,0,2.821-.545c.006-.217.009-.355.009-.413a1.744,1.744,0,0,0-.448-1.363,2.652,2.652,0,0,0-1.8-.536,2.8,2.8,0,0,0-1.647.391,2.389,2.389,0,0,0-.787,1.385l-1.547-.211a3.822,3.822,0,0,1,.7-1.6,3.031,3.031,0,0,1,1.4-.941,6.248,6.248,0,0,1,2.118-.329,5.591,5.591,0,0,1,1.942.281,2.561,2.561,0,0,1,1.1.707,2.493,2.493,0,0,1,.492,1.077,8.894,8.894,0,0,1,.079,1.459V33.27a22.224,22.224,0,0,0,.1,2.791,3.521,3.521,0,0,0,.4,1.121H129.4A3.382,3.382,0,0,1,129.07,36.026Zm-.132-3.533a11.646,11.646,0,0,1-2.584.6,5.924,5.924,0,0,0-1.379.316,1.375,1.375,0,0,0-.624.514,1.4,1.4,0,0,0,.259,1.806,2.056,2.056,0,0,0,1.4.422,3.261,3.261,0,0,0,1.626-.4,2.464,2.464,0,0,0,1.046-1.094,3.814,3.814,0,0,0,.254-1.582Z" style="fill:#fff"/><path d="M137.345,35.763l.228,1.4a5.837,5.837,0,0,1-1.2.141,2.7,2.7,0,0,1-1.336-.273,1.526,1.526,0,0,1-.668-.716,5.662,5.662,0,0,1-.193-1.868v-5.37h-1.16v-1.23h1.16V25.532l1.573-.949v3.261h1.591v1.23h-1.591v5.458a2.742,2.742,0,0,0,.083.87.662.662,0,0,0,.272.308,1.057,1.057,0,0,0,.541.114A5.14,5.14,0,0,0,137.345,35.763Z" style="fill:#fff"/><path d="M139.2,32.511a4.81,4.81,0,0,1,1.442-3.841,4.338,4.338,0,0,1,2.935-1.037,4.188,4.188,0,0,1,3.147,1.261,4.8,4.8,0,0,1,1.221,3.485,6.157,6.157,0,0,1-.54,2.834,3.821,3.821,0,0,1-1.573,1.6,4.572,4.572,0,0,1-2.255.572,4.193,4.193,0,0,1-3.168-1.257A5.018,5.018,0,0,1,139.2,32.511Zm1.626,0a3.978,3.978,0,0,0,.782,2.685,2.6,2.6,0,0,0,3.668.261,2.572,2.572,0,0,0,.261-.261,4.064,4.064,0,0,0,.782-2.733,3.858,3.858,0,0,0-.786-2.624,2.609,2.609,0,0,0-3.682-.243,2.654,2.654,0,0,0-.243.243,3.958,3.958,0,0,0-.78,2.672Z" style="fill:#fff"/></svg>