<svg id="Layer_1" data-name="Layer 1" xmlns="http://www.w3.org/2000/svg" viewBox="0 0 414.794 414.794"><title>inoculo</title><g id="Layer_1-2" data-name="Layer 1-2"><circle cx="102.972" cy="261.617" r="11.27" style="fill:#fff"/><path d="M40,45.5c1.21,7.85-1.21,13.14,1.1,22.27" style="fill:none;stroke:#7a4531;stroke-linecap:round;stroke-linejoin:round;stroke-width:1.7599999904632568px"/><path d="M38.822,41.067c-.16.88-1.21,3.11,0,3.77s16.5,1.18,20,.79,9.82,1.12,14.56,1.27,8.12,1.28,8-.55-1-8.11-1-8.11c-2.42-.89-9.14.29-12.21.46-4.73.31-14.96-1.23-19.67-.69C40.642,38.927,40.052,34.007,38.822,41.067Z" style="fill:none;stroke:#7a4531;stroke-linecap:round;stroke-linejoin:round;stroke-width:1.7599999904632568px"/><path d="M78.052,47.277s2.49,6.57,2.48,21.73,12.85,19.42-13.81,18.06c-17.89-.92-30.83,2.47-29.95-8,.52-6.15,3.73-10,6.12-13.66,1.64-2.55,4.3-4.75,3.54-10.6" style="fill:none;stroke:#7a4531;stroke-linecap:round;stroke-linejoin:round;stroke-width:1.7599999904632568px"/><path d="M57.332,70.727s-1.74-8.21,10.12-17.33" style="fill:none;stroke:#7a4531;stroke-linecap:round;stroke-linejoin:round;stroke-width:1.7599999904632568px"/><path d="M67.392,62.1s1.91,13.42-7.73,18.91" style="fill:none;stroke:#7a4531;stroke-linecap:round;stroke-linejoin:round;stroke-width:1.7599999904632568px"/><path d="M142.242,174.927c0,3.51-15.73,6.26-35.35,6.25h-1.35c-6.5-.36-9.3,3.21-10,3.2-1.11,0-1.63-3.59-3.58-3.76-13.48-1.19-23-3.47-23-6.21,0-3.6,16.46-6.39,36.71-6.25S142.272,171.337,142.242,174.927Z" style="fill:none;stroke:#fff;stroke-linecap:round;stroke-linejoin:round;stroke-width:1.7599999904632568px"/><path d="M142.142,189.477l-.21,30.39c0,3.59-16.46,6.39-36.71,6.25s-36.64-3.18-36.62-6.77l.32-44.94" style="fill:none;stroke:#fff;stroke-linecap:round;stroke-linejoin:round;stroke-width:1.7599999904632568px"/><line x1="142.242" y1="174.927" x2="142.202" y2="181.127" style="fill:none;stroke:#fff;stroke-linecap:round;stroke-linejoin:round;stroke-width:1.7599999904632568px"/><path d="M139.6,222.737c-1.14,3.76-16.06,6.64-34.28,6.51s-33.09-3.22-34.18-7" style="fill:none;stroke:#fff;stroke-linecap:round;stroke-linejoin:round;stroke-width:1.7599999904632568px"/><path d="M142.212,179.837l47,.34c.66,0,.92,1.18,0,2.64-1.49,2.32-5.43,5.36-8.15,5.64-4.43.47-41.69.74-41.69.74v-6.73s2.34-.31,2.82-1.34" style="fill:none;stroke:#fff;stroke-linecap:round;stroke-linejoin:round;stroke-width:1.7599999904632568px"/><line x1="183.622" y1="183.477" x2="189.172" y2="183.517" style="fill:none;stroke:#fff;stroke-linecap:round;stroke-linejoin:round;stroke-width:1.1699999570846558px"/><line x1="139.382" y1="183.157" x2="178.062" y2="183.437" style="fill:none;stroke:#fff;stroke-linecap:round;stroke-linejoin:round;stroke-width:1.1699999570846558px"/><path d="M60.1,99.127c-.09,12.8,36.38,12.11,37,57.82" style="fill:none;stroke:#fff;stroke-linecap:round;stroke-linejoin:round;stroke-width:2.3399999141693115px;stroke-dasharray:0.5899999737739563,4.690000057220459"/><polygon points="89.692 151.387 90.942 150.137 97.062 156.277 102.732 149.727 104.062 150.887 97.152 158.857 89.692 151.387" style="fill:#fff"/><path d="M157.352,99.817c-.09,12.8-38.47,11.58-39.83,57.28" style="fill:none;stroke:#fff;stroke-linecap:round;stroke-linejoin:round;stroke-width:2.3399999141693115px;stroke-dasharray:0.5899999737739563,4.690000057220459"/><polygon points="110.702 150.917 112.052 149.787 117.612 156.427 123.832 150.387 125.062 151.647 117.482 159.007 110.702 150.917" style="fill:#fff"/><path d="M372.122,271.637c-16.27,20-38.39,28.86-51.57,19.8" style="fill:none;stroke:#fff;stroke-linecap:round;stroke-linejoin:round;stroke-width:1.7599999904632568px"/><path d="M380.152,204.707c13.33,9.16,12.84,33.42-.44,56" style="fill:none;stroke:#fff;stroke-linecap:round;stroke-linejoin:round;stroke-width:1.7599999904632568px"/><line x1="337.832" y1="175.117" x2="380.152" y2="204.707" style="fill:none;stroke:#fff;stroke-miterlimit:10;stroke-width:1.7599999904632568px"/><path d="M272.632,270.927c3.75,1.86,8.58,0,11,.85s9.85,3.83,13.88,3.53l23.07,16.13" style="fill:none;stroke:#fff;stroke-linecap:round;stroke-linejoin:round;stroke-width:1.7599999904632568px"/><path d="M296.542,272.2a4.242,4.242,0,0,1-1.54-.45,5.183,5.183,0,0,1-2.06-1.88,4.217,4.217,0,0,1-.62-1.47v-.11h0c.76.56,1.51,1.16,2.22,1.79s1.36,1.33,2,2a.061.061,0,0,1,0,.08h-.09Z" style="fill:#fff"/><rect x="353.622" y="229.389" width="13.29" height="51.65" rx="1.26" transform="translate(-55.328 404.233) rotate(-55.04)" style="fill:none;stroke:#fff;stroke-linecap:round;stroke-linejoin:round;stroke-width:1.7599999904632568px"/><path d="M384.222,263.877l5.16,3.61a1,1,0,0,1,.325,1.376.872.872,0,0,1-.065.094l-6.4,9.16a1.069,1.069,0,0,1-1.48.26l-5.16-3.61" style="fill:none;stroke:#fff;stroke-linecap:round;stroke-linejoin:round;stroke-width:1.7599999904632568px"/><path d="M315,256.107s-22.08-.19-28.16,1c-17.84,3.44-22.84,14.47-23.66,31.25-.7,13.8-.4,57.85-.4,57.85" style="fill:none;stroke:#fff;stroke-linecap:round;stroke-linejoin:round;stroke-width:1.7599999904632568px"/><path d="M267.942,313.607c42.84.61,77.06,8,77,16.86-.07,9-35.92,16.06-80.07,15.75S185,338.337,185,329.327c.06-8.85,34.64-15.81,77.7-15.76" style="fill:none;stroke:#fff;stroke-miterlimit:10;stroke-width:1.7599999904632568px"/><path d="M344.7,368.937c.13-21,.24-38.47.24-38.47" style="fill:none;stroke:#fff;stroke-miterlimit:10;stroke-width:1.7599999904632568px"/><path d="M344.392,414.777c.09-11.72.18-26,.27-39.4" style="fill:none;stroke:#fff;stroke-miterlimit:10;stroke-width:1.7599999904632568px"/><path d="M184.722,367.8c.16-21,.31-38.47.31-38.47" style="fill:none;stroke:#fff;stroke-miterlimit:10;stroke-width:1.7599999904632568px"/><path d="M184.372,413.647c.08-11.73.19-26,.29-39.4" style="fill:none;stroke:#fff;stroke-miterlimit:10;stroke-width:1.7599999904632568px"/><path d="M185.222,348.517l-8.23-.06c-8.22-.06-14.91,3.67-15,11.89v1.74c-.06,8.22,6.58,12,14.8,12.1l14.06.1a3.22,3.22,0,0,0,0-6.44h0l-14.06-.1c-4.65,0-8.43-1-8.39-5.61V360.4c0-4.66,3.82-5.53,8.47-5.49l8.23.05" style="fill:none;stroke:#fff;stroke-miterlimit:10;stroke-width:1.7599999904632568px"/><path d="M344.472,349.647l8.23.06c8.22.06,14.86,3.88,14.8,12.1v1.74c-.06,8.22-6.75,11.95-15,11.89l-7.85-.06h-6.21a3.22,3.22,0,1,1,.05-6.44l14.05.1c4.65,0,8.45-.84,8.48-5.49V361.8c0-4.65-3.74-5.57-8.4-5.61l-8.22-.05" style="fill:none;stroke:#fff;stroke-miterlimit:10;stroke-width:1.7599999904632568px"/><path d="M40.332,37.247c14.16-4,18-1.69,28.15-1.77s11.64,1.1,11.88,2.76" style="fill:none;stroke:#7a4531;stroke-linecap:round;stroke-linejoin:round;stroke-width:1.7599999904632568px"/><path d="M273.062,262.917c.6-2.51,1.09-4.81.54-5.55-9.09-12.19-6-35.81,8.41-56.77,16.46-24,41.45-35.36,55.82-25.48s12.67,37.29-3.83,61.24c-14.4,21-35.33,32.31-50,28.2-2-.55-9,6.42-11.4,6.3" style="fill:none;stroke:#fff;stroke-miterlimit:10;stroke-width:1.7599999904632568px"/><path d="M273.642,260.227c1.72-4.06-3.11-8.61-3.28-9-5.25-11.69.21-34,12.48-51.81,15.44-22.47,38.16-32.6,53-25.52,16.28,7.79,14.82,37.89-.63,60.36A94.412,94.412,0,0,1,315,256.107s-12.52-.34-23.74.33a61.325,61.325,0,0,0-8.56,1.64c-4.3,1-9.67,4.84-9.67,4.84" style="fill:#fff;opacity:0.5;isolation:isolate"/><path d="M262.782,346.2c-43.19-.54-77.82-8-77.75-16.87s34.64-15.81,77.7-15.76" style="fill:#fff;opacity:0.5;isolation:isolate"/><path d="M267.942,313.607c42.84.61,77.06,8,77,16.86s-34.25,15.73-77,15.76" style="fill:#fff;opacity:0.5;isolation:isolate"/><path d="M167.172,70.187a9.82,9.82,0,0,1-19.64,0c0-8.24,9.82-21,9.82-26.74C157.352,49.147,167.172,61.947,167.172,70.187Z" style="fill:#40d4db;stroke:#505cf1;stroke-linecap:round;stroke-linejoin:round;stroke-width:1.7599999904632568px"/><path d="M275.7,269.517c-6.23,0-7.36,13.61-7.36,24.3,0,13.92-.38,52.43-.38,52.43" style="fill:none;stroke:#fff;stroke-linecap:round;stroke-linejoin:round;stroke-width:1.7599999904632568px"/><path d="M142.242,174.927c0,3.51-15.73,6.26-35.35,6.25h-1.35c-6.5-.36-9.3,3.21-10,3.2-1.11,0-1.63-3.59-3.58-3.76-13.48-1.19-23-3.47-23-6.21,0-3.6,16.46-6.39,36.71-6.25S142.272,171.337,142.242,174.927Z" style="fill:#fff;opacity:0.5;isolation:isolate"/><path d="M95.342,184.427s.7,6.25.7,13.8" style="fill:none;stroke:#fff;stroke-linecap:round;stroke-linejoin:round;stroke-width:1.1699999570846558px"/><path d="M91.132,183.007c0,3.53,1.46,4.52,1.86,9.45s1.94,8.72,3.07,8.72,3-2.43,3.77-8.07,3.06-7.49,3.06-9.79" style="fill:none;stroke:#fff;stroke-linecap:round;stroke-linejoin:round;stroke-width:1.1699999570846558px"/><path d="M105.675,267.892l-1.494-.011.068-9.521a7.723,7.723,0,0,1-1.423,1.019,10.051,10.051,0,0,1-1.578.761l.011-1.444a9.042,9.042,0,0,0,2.2-1.412,5.619,5.619,0,0,0,1.34-1.618l.963.007Z" style="fill:#fff"/><circle cx="320.552" cy="142.297" r="11.27" style="fill:#fff"/><path d="M162.862,68.587a5.752,5.752,0,0,1-2.44,6" style="fill:#40d4db;stroke:#505cf1;stroke-linecap:round;stroke-linejoin:round;stroke-width:1.7599999904632568px"/><path d="M323.86,146.993l-.01,1.435-8.043-.058a2.614,2.614,0,0,1,.181-1.035,5.459,5.459,0,0,1,1-1.612,15.339,15.339,0,0,1,1.967-1.829,16.472,16.472,0,0,0,2.7-2.558,3.091,3.091,0,0,0,.711-1.792,2,2,0,0,0-.624-1.5,2.3,2.3,0,0,0-1.652-.622,2.342,2.342,0,0,0-1.732.636,2.459,2.459,0,0,0-.668,1.789l-1.534-.17a3.788,3.788,0,0,1,1.206-2.61,4.046,4.046,0,0,1,2.77-.881,3.859,3.859,0,0,1,2.765.991,3.189,3.189,0,0,1,1,2.415,3.651,3.651,0,0,1-.309,1.434,5.54,5.54,0,0,1-1,1.479,24.285,24.285,0,0,1-2.319,2.124q-1.353,1.119-1.738,1.52a4.849,4.849,0,0,0-.636.8Z" style="fill:#fff"/></g><path d="M37.881,23.841V10.956h1.582V23.841Z" style="fill:#fff"/><path d="M42.824,12.776v-1.82h1.582v1.82Zm0,11.065V14.507h1.582v9.334Z" style="fill:#fff"/><path d="M54.1,20.835l1.635.2A3.989,3.989,0,0,1,54.3,23.259a4.854,4.854,0,0,1-5.919-.47,4.927,4.927,0,0,1-1.2-3.538A5.154,5.154,0,0,1,48.4,15.6a4.1,4.1,0,0,1,3.146-1.3,3.991,3.991,0,0,1,3.059,1.275,5.063,5.063,0,0,1,1.186,3.586c0,.093,0,.234-.008.421H48.822a3.58,3.58,0,0,0,.87,2.356,2.587,2.587,0,0,0,1.951.817,2.415,2.415,0,0,0,1.485-.457A3.029,3.029,0,0,0,54.1,20.835Zm-5.19-2.557h5.211a3.165,3.165,0,0,0-.6-1.767,2.427,2.427,0,0,0-1.96-.914,2.512,2.512,0,0,0-1.833.73A2.879,2.879,0,0,0,48.91,18.278Z" style="fill:#fff"/><path d="M61.218,23.841l-3.551-9.334h1.67l2,5.59q.325.906.6,1.881.21-.738.589-1.775L64.6,14.5h1.626L62.7,23.841Z" style="fill:#fff"/><path d="M68.534,12.776v-1.82h1.582v1.82Zm0,11.065V14.507h1.582v9.334Z" style="fill:#fff"/><path d="M76.878,22.426l.229,1.4a5.936,5.936,0,0,1-1.195.14,2.708,2.708,0,0,1-1.336-.272,1.529,1.529,0,0,1-.668-.717,5.654,5.654,0,0,1-.194-1.867V15.74h-1.16V14.507h1.16V12.2l1.573-.95v3.261h1.591v1.231H75.287V21.2a2.743,2.743,0,0,0,.084.87.66.66,0,0,0,.272.307,1.048,1.048,0,0,0,.541.115A5.046,5.046,0,0,0,76.878,22.426Z" style="fill:#fff"/><path d="M78.736,19.174a4.81,4.81,0,0,1,1.442-3.841A4.343,4.343,0,0,1,83.113,14.3a4.193,4.193,0,0,1,3.147,1.261,4.8,4.8,0,0,1,1.221,3.485,6.187,6.187,0,0,1-.54,2.835,3.839,3.839,0,0,1-1.573,1.6,4.582,4.582,0,0,1-2.255.571A4.19,4.19,0,0,1,79.945,22.8,5.021,5.021,0,0,1,78.736,19.174Zm1.626,0a3.978,3.978,0,0,0,.782,2.685,2.6,2.6,0,0,0,3.675.254,2.648,2.648,0,0,0,.254-.254,4.067,4.067,0,0,0,.782-2.734,3.855,3.855,0,0,0-.786-2.623,2.609,2.609,0,0,0-3.682-.243,2.654,2.654,0,0,0-.243.243A3.954,3.954,0,0,0,80.362,19.174Z" style="fill:#fff"/><path d="M139.381,22.69a5.9,5.9,0,0,1-1.692,1.055,4.877,4.877,0,0,1-1.745.307,3.391,3.391,0,0,1-2.364-.751,2.48,2.48,0,0,1-.826-1.921,2.559,2.559,0,0,1,.312-1.252,2.6,2.6,0,0,1,.817-.91,3.881,3.881,0,0,1,1.138-.518,11.322,11.322,0,0,1,1.407-.238,14.411,14.411,0,0,0,2.821-.545c.006-.216.009-.354.009-.413a1.747,1.747,0,0,0-.449-1.362,2.647,2.647,0,0,0-1.8-.536A2.792,2.792,0,0,0,135.36,16a2.386,2.386,0,0,0-.787,1.384l-1.547-.211a3.831,3.831,0,0,1,.695-1.6,3.042,3.042,0,0,1,1.4-.94,6.224,6.224,0,0,1,2.118-.33,5.6,5.6,0,0,1,1.943.282,2.551,2.551,0,0,1,1.1.707,2.465,2.465,0,0,1,.492,1.077,8.785,8.785,0,0,1,.08,1.459v2.1a22.224,22.224,0,0,0,.1,2.791,3.5,3.5,0,0,0,.4,1.12H139.7A3.371,3.371,0,0,1,139.381,22.69Zm-.132-3.533a11.646,11.646,0,0,1-2.584.6,5.946,5.946,0,0,0-1.38.317,1.375,1.375,0,0,0-.624.514,1.4,1.4,0,0,0,.259,1.806,2.062,2.062,0,0,0,1.4.422,3.25,3.25,0,0,0,1.626-.4,2.464,2.464,0,0,0,1.046-1.094,3.815,3.815,0,0,0,.255-1.582Z" style="fill:#fff"/><path d="M150.291,20.422l1.556.2a4.032,4.032,0,0,1-1.305,2.518,3.8,3.8,0,0,1-2.58.91,4,4,0,0,1-3.08-1.252,5.083,5.083,0,0,1-1.165-3.591,6.5,6.5,0,0,1,.5-2.645,3.492,3.492,0,0,1,1.525-1.7,4.52,4.52,0,0,1,2.228-.567,3.879,3.879,0,0,1,2.487.769,3.528,3.528,0,0,1,1.24,2.184l-1.538.238a2.561,2.561,0,0,0-.778-1.415,2.013,2.013,0,0,0-1.349-.475,2.46,2.46,0,0,0-1.943.857,4.07,4.07,0,0,0-.747,2.711,4.2,4.2,0,0,0,.721,2.734,2.345,2.345,0,0,0,1.881.852,2.216,2.216,0,0,0,1.555-.571A2.837,2.837,0,0,0,150.291,20.422Z" style="fill:#fff"/><path d="M160.051,27.418v-4.57a2.825,2.825,0,0,1-1.033.861,3.029,3.029,0,0,1-1.411.343,3.731,3.731,0,0,1-2.861-1.327,5.23,5.23,0,0,1-1.2-3.639,6.239,6.239,0,0,1,.488-2.522,3.633,3.633,0,0,1,1.415-1.692,3.778,3.778,0,0,1,2.034-.576,3.127,3.127,0,0,1,2.725,1.459V14.507h1.424V27.418Zm-4.878-8.27a4.121,4.121,0,0,0,.756,2.7,2.291,2.291,0,0,0,1.81.9,2.214,2.214,0,0,0,1.74-.857,3.941,3.941,0,0,0,.73-2.606,4.353,4.353,0,0,0-.769-2.8,2.283,2.283,0,0,0-1.806-.941,2.182,2.182,0,0,0-1.745.875,4.273,4.273,0,0,0-.716,2.729Z" style="fill:#fff"/><path d="M171.129,23.841V22.47a3.415,3.415,0,0,1-2.962,1.582,3.773,3.773,0,0,1-1.543-.316,2.532,2.532,0,0,1-1.063-.8,2.969,2.969,0,0,1-.488-1.173,8.027,8.027,0,0,1-.1-1.477V14.507h1.582v5.177a9.24,9.24,0,0,0,.1,1.67,1.654,1.654,0,0,0,.633.98,1.969,1.969,0,0,0,1.195.356,2.606,2.606,0,0,0,1.336-.365,2.027,2.027,0,0,0,.884-.993,5,5,0,0,0,.259-1.824v-5h1.582v9.334Z" style="fill:#fff"/><path d="M182.013,22.69a5.9,5.9,0,0,1-1.692,1.055,4.875,4.875,0,0,1-1.744.307,3.4,3.4,0,0,1-2.365-.751,2.482,2.482,0,0,1-.826-1.921,2.548,2.548,0,0,1,.312-1.252,2.59,2.59,0,0,1,.818-.91,3.819,3.819,0,0,1,1.138-.518,11.155,11.155,0,0,1,1.406-.238,14.411,14.411,0,0,0,2.821-.545c.006-.216.009-.354.009-.413a1.746,1.746,0,0,0-.448-1.362,2.654,2.654,0,0,0-1.8-.536,2.794,2.794,0,0,0-1.648.391,2.392,2.392,0,0,0-.787,1.384l-1.546-.211a3.83,3.83,0,0,1,.694-1.6,3.042,3.042,0,0,1,1.4-.94,6.23,6.23,0,0,1,2.119-.33,5.591,5.591,0,0,1,1.942.282,2.561,2.561,0,0,1,1.1.707,2.493,2.493,0,0,1,.492,1.077,9.005,9.005,0,0,1,.079,1.459V19.93a22.414,22.414,0,0,0,.1,2.791,3.524,3.524,0,0,0,.4,1.12h-1.653A3.346,3.346,0,0,1,182.013,22.69Zm-.132-3.533a11.646,11.646,0,0,1-2.584.6,5.946,5.946,0,0,0-1.38.317,1.375,1.375,0,0,0-.624.514,1.4,1.4,0,0,0,.26,1.806,2.061,2.061,0,0,0,1.4.422,3.25,3.25,0,0,0,1.626-.4,2.459,2.459,0,0,0,1.046-1.094,3.815,3.815,0,0,0,.255-1.582Z" style="fill:#fff"/></svg>