<svg id="Layer_1" data-name="Layer 1" xmlns="http://www.w3.org/2000/svg" xmlns:xlink="http://www.w3.org/1999/xlink" viewBox="0 0 324.204 324.223"><defs><pattern id="USGS_22_Gravel_Beach_4" data-name="USGS 22 Gravel Beach 4" width="72" height="72" patternTransform="translate(-100.503 -350.358) scale(0.99)" patternUnits="userSpaceOnUse" viewBox="0 0 72 72"><rect width="72" height="72" style="fill:none"/><rect width="72" height="72" style="fill:none"/><rect width="72" height="72" style="fill:none"/><path d="M72.25,58a.35.35,0,0,1-.25-.6.38.38,0,0,1,.5,0,.35.35,0,0,1-.25.6Z" style="fill:#fff"/><path d="M20.75,3.22a.391.391,0,0,1-.25-.1.347.347,0,1,1,.506-.474.339.339,0,0,1-.24.574Z" style="fill:#fff"/><path d="M19.75,8.47a.34.34,0,0,1-.35-.33h0V8.12a.332.332,0,0,1,.11-.25.369.369,0,0,1,.49,0,.363.363,0,0,1,.1.25.391.391,0,0,1-.1.25A.369.369,0,0,1,19.75,8.47Z" style="fill:#fff"/><path d="M20,10.72a.35.35,0,0,1-.25-.6.369.369,0,0,1,.5,0,.35.35,0,0,1-.25.6Z" style="fill:#fff"/><path d="M15,10.72a.34.34,0,0,1-.35-.33h0v-.02a.369.369,0,0,1,.1-.25.38.38,0,0,1,.5,0,.35.35,0,0,1-.25.6Z" style="fill:#fff"/><path d="M22.5,20.22a.35.35,0,0,1-.25-.6.36.36,0,0,1,.6.25.34.34,0,0,1-.33.35H22.5Z" style="fill:#fff"/><path d="M15,23.22a.34.34,0,0,1-.35-.33h0v-.02a.332.332,0,0,1,.11-.25.369.369,0,0,1,.49,0,.363.363,0,0,1,.1.25.34.34,0,0,1-.33.35H15Z" style="fill:#fff"/><path d="M13.75,24.22a.35.35,0,0,1-.25-.6.36.36,0,0,1,.6.25.391.391,0,0,1-.1.25A.369.369,0,0,1,13.75,24.22Z" style="fill:#fff"/><path d="M23.75,27.22a.34.34,0,0,1-.35-.33h0v-.02a.332.332,0,0,1,.11-.25.369.369,0,0,1,.49,0,.391.391,0,0,1,.1.25.348.348,0,0,1-.1.24A.358.358,0,0,1,23.75,27.22Z" style="fill:#fff"/><path d="M30.5,26a.35.35,0,0,1-.25-.6.36.36,0,0,1,.6.25.34.34,0,0,1-.33.35H30.5Z" style="fill:#fff"/><path d="M31,23.47a.34.34,0,0,1-.35-.33h0v-.02a.332.332,0,0,1,.11-.25.35.35,0,0,1,.59.25.391.391,0,0,1-.1.25A.369.369,0,0,1,31,23.47Z" style="fill:#fff"/><path d="M29,18.47a.35.35,0,0,1-.25-.6.36.36,0,0,1,.6.25.34.34,0,0,1-.33.35H29Z" style="fill:#fff"/><path d="M33.75,20a.35.35,0,0,1-.25-.6.36.36,0,0,1,.6.25.34.34,0,0,1-.33.35h-.02Z" style="fill:#fff"/><path d="M31.25,15a.35.35,0,0,1-.25-.6.36.36,0,0,1,.6.25.34.34,0,0,1-.33.35h-.02Z" style="fill:#fff"/><path d="M31.5,12a.35.35,0,0,1-.25-.6.369.369,0,0,1,.5,0,.35.35,0,0,1-.25.6Z" style="fill:#fff"/><path d="M32,7.22a.35.35,0,0,1-.25-.6.36.36,0,0,1,.6.25.34.34,0,0,1-.33.35H32Z" style="fill:#fff"/><path d="M31.75,3.22a.342.342,0,0,1-.35-.334V2.87a.332.332,0,0,1,.11-.25.35.35,0,0,1,.59.25.342.342,0,0,1-.334.35Z" style="fill:#fff"/><path d="M33.75,1.47a.358.358,0,0,1-.25-.11.338.338,0,0,1,0-.479L33.51.87a.345.345,0,0,1,.59.25.339.339,0,0,1-.11.25A.348.348,0,0,1,33.75,1.47Z" style="fill:#fff"/><path d="M41.25,7.22a.391.391,0,0,1-.25-.1.354.354,0,0,1-.1-.25.391.391,0,0,1,.1-.25.351.351,0,0,1,.49,0,.358.358,0,0,1,.11.25.34.34,0,0,1-.33.35h-.02Z" style="fill:#fff"/><path d="M45.25,7A.391.391,0,0,1,45,6.9a.347.347,0,0,1,.506-.474A.339.339,0,0,1,45.27,7h-.02Z" style="fill:#fff"/><path d="M42.25,13.72a.34.34,0,0,1-.35-.33h0v-.02a.332.332,0,0,1,.11-.25.35.35,0,0,1,.59.25.34.34,0,0,1-.33.35h-.02Z" style="fill:#fff"/><path d="M46.75,14.47a.34.34,0,0,1-.35-.33h0v-.02a.332.332,0,0,1,.11-.25.361.361,0,0,1,.49,0,.391.391,0,0,1,.1.25.329.329,0,0,1-.1.24A.358.358,0,0,1,46.75,14.47Z" style="fill:#fff"/><path d="M46.75,16.47a.34.34,0,0,1-.35-.33h0v-.02a.332.332,0,0,1,.11-.25.361.361,0,0,1,.49,0,.391.391,0,0,1,.1.25.371.371,0,0,1-.1.24A.358.358,0,0,1,46.75,16.47Z" style="fill:#fff"/><path d="M38.75,21a.35.35,0,0,1-.25-.6.361.361,0,0,1,.49,0,.347.347,0,0,1-.22.6Z" style="fill:#fff"/><path d="M50,13.72a.391.391,0,0,1-.25-.1.359.359,0,0,1,0-.5.369.369,0,0,1,.5,0,.35.35,0,0,1-.25.6Z" style="fill:#fff"/><path d="M52,12.22a.358.358,0,0,1-.25-.11.348.348,0,0,1-.1-.24.332.332,0,0,1,.11-.25.369.369,0,0,1,.49,0,.363.363,0,0,1,.1.25.34.34,0,0,1-.33.35H52Z" style="fill:#fff"/><path d="M54.5,11.22a.358.358,0,0,1-.25-.11.348.348,0,0,1-.1-.24.332.332,0,0,1,.11-.25.35.35,0,0,1,.59.25.34.34,0,0,1-.33.35H54.5Z" style="fill:#fff"/><path d="M56.25,1A.376.376,0,0,1,56,.37a.359.359,0,0,1,.5,0,.348.348,0,0,1,.1.24A.417.417,0,0,1,56.25,1Z" style="fill:#fff"/><path d="M67.75,3.22a.342.342,0,0,1-.35-.334V2.87a.332.332,0,0,1,.11-.25.369.369,0,0,1,.49,0,.363.363,0,0,1,.1.25.391.391,0,0,1-.1.25A.369.369,0,0,1,67.75,3.22Z" style="fill:#fff"/><path d="M67.75,10.47a.358.358,0,0,1-.25-.11.348.348,0,0,1-.1-.24.391.391,0,0,1,.1-.25.369.369,0,0,1,.5,0,.391.391,0,0,1,.1.25.339.339,0,0,1-.11.25A.348.348,0,0,1,67.75,10.47Z" style="fill:#fff"/><path d="M64,12.47a.35.35,0,0,1-.25-.6.36.36,0,0,1,.6.25.34.34,0,0,1-.33.35H64Z" style="fill:#fff"/><path d="M65,16a.34.34,0,0,1-.35-.33h0v-.02a.369.369,0,0,1,.1-.25.38.38,0,0,1,.5,0A.35.35,0,0,1,65,16Z" style="fill:#fff"/><path d="M63.75,20a.358.358,0,0,1-.25-.11.348.348,0,0,1-.1-.24.391.391,0,0,1,.1-.25.369.369,0,0,1,.5,0,.391.391,0,0,1,.1.25.339.339,0,0,1-.11.25A.348.348,0,0,1,63.75,20Z" style="fill:#fff"/><path d="M66,20a.34.34,0,0,1-.35-.33h0v-.02a.332.332,0,0,1,.11-.25.369.369,0,0,1,.49,0,.363.363,0,0,1,.1.25.34.34,0,0,1-.33.35H66Z" style="fill:#fff"/><path d="M67.75,21.47a.35.35,0,0,1-.25-.6.369.369,0,0,1,.5,0,.35.35,0,0,1-.25.6Z" style="fill:#fff"/><path d="M6.75,52.47a.35.35,0,0,1-.25-.6.38.38,0,0,1,.5,0,.35.35,0,0,1-.25.6Z" style="fill:#fff"/><path d="M7,54.72a.35.35,0,0,1-.25-.6.369.369,0,0,1,.5,0,.35.35,0,0,1-.25.6Z" style="fill:#fff"/><path d="M2,54.72a.391.391,0,0,1-.25-.1.359.359,0,0,1,0-.5.38.38,0,0,1,.5,0,.359.359,0,0,1,0,.5A.391.391,0,0,1,2,54.72Z" style="fill:#fff"/><path d="M9.5,64.22a.35.35,0,0,1-.25-.6.36.36,0,0,1,.6.25.34.34,0,0,1-.33.35H9.5Z" style="fill:#fff"/><path d="M.75,68.22a.391.391,0,0,1-.25-.1.359.359,0,0,1,0-.5.38.38,0,0,1,.5,0,.359.359,0,0,1,0,.5A.391.391,0,0,1,.75,68.22Z" style="fill:#fff"/><path d="M10.75,71.22a.35.35,0,0,1-.25-.6.38.38,0,0,1,.5,0,.35.35,0,0,1-.25.6Z" style="fill:#fff"/><path d="M18,67.47a.34.34,0,0,1-.35-.33h0v-.02a.345.345,0,0,1,.59-.25.358.358,0,0,1,.11.25.34.34,0,0,1-.33.35H18Z" style="fill:#fff"/><path d="M16,62.47a.35.35,0,0,1-.25-.6.369.369,0,0,1,.5,0,.35.35,0,0,1-.25.6Z" style="fill:#fff"/><path d="M19.25,58a.34.34,0,0,1-.35-.33h0v-.02a.332.332,0,0,1,.11-.25.369.369,0,0,1,.49,0,.363.363,0,0,1,.1.25.34.34,0,0,1-.33.35h-.02Z" style="fill:#fff"/><path d="M18.5,56a.34.34,0,0,1-.35-.33h0v-.02a.332.332,0,0,1,.11-.25.369.369,0,0,1,.49,0,.363.363,0,0,1,.1.25.34.34,0,0,1-.33.35H18.5Z" style="fill:#fff"/><path d="M16,55a.34.34,0,0,1-.35-.33h0v-.02a.332.332,0,0,1,.11-.25.369.369,0,0,1,.49,0,.363.363,0,0,1,.1.25.34.34,0,0,1-.33.35H16Z" style="fill:#fff"/><path d="M19,51.22a.34.34,0,0,1-.35-.33h0v-.02a.332.332,0,0,1,.11-.25.369.369,0,0,1,.49,0,.363.363,0,0,1,.1.25.34.34,0,0,1-.33.35H19Z" style="fill:#fff"/><path d="M18.75,47.22a.35.35,0,0,1-.25-.6.38.38,0,0,1,.5,0,.35.35,0,0,1-.25.6Z" style="fill:#fff"/><path d="M16,47.47a.35.35,0,0,1-.25-.6.369.369,0,0,1,.5,0,.35.35,0,0,1-.25.6Z" style="fill:#fff"/><path d="M32.25,51a.34.34,0,0,1-.35-.33h0v-.02a.332.332,0,0,1,.11-.25.35.35,0,0,1,.59.25.34.34,0,0,1-.33.35h-.02Z" style="fill:#fff"/><path d="M27,54.47a.35.35,0,0,1-.25-.6.369.369,0,0,1,.5,0,.35.35,0,0,1-.25.6Z" style="fill:#fff"/><path d="M31.75,56a.35.35,0,0,1-.25-.6.369.369,0,0,1,.5,0,.35.35,0,0,1-.25.6Z" style="fill:#fff"/><path d="M31.75,57.72a.35.35,0,0,1-.245-.6l.005,0a.369.369,0,0,1,.5,0,.363.363,0,0,1,.1.25.34.34,0,0,1-.33.35h-.03Z" style="fill:#fff"/><path d="M33.75,58.47a.35.35,0,0,1-.25-.6.369.369,0,0,1,.5,0,.35.35,0,0,1-.25.6Z" style="fill:#fff"/><path d="M25.75,65a.35.35,0,0,1-.25-.6.36.36,0,0,1,.6.25.34.34,0,0,1-.33.35h-.02Z" style="fill:#fff"/><path d="M35.75,56.47a.35.35,0,0,1-.25-.6.36.36,0,0,1,.6.25.34.34,0,0,1-.33.35h-.02Z" style="fill:#fff"/><path d="M39,56.22a.348.348,0,0,1-.24-.1.358.358,0,0,1-.11-.25.391.391,0,0,1,.1-.25.369.369,0,0,1,.5,0,.35.35,0,0,1-.25.6Z" style="fill:#fff"/><path d="M41.5,51a.35.35,0,0,1-.25-.6.369.369,0,0,1,.5,0,.35.35,0,0,1-.25.6Z" style="fill:#fff"/><path d="M43.25,45a.358.358,0,0,1-.25-.11.348.348,0,0,1-.1-.24.391.391,0,0,1,.1-.25.369.369,0,0,1,.5,0,.35.35,0,0,1-.25.6Z" style="fill:#fff"/><path d="M50.75,50.72a.391.391,0,0,1-.25-.1.363.363,0,0,1-.1-.25.391.391,0,0,1,.1-.25.359.359,0,0,1,.5,0,.35.35,0,0,1-.25.6Z" style="fill:#fff"/><path d="M51.75,46.72a.358.358,0,0,1-.25-.11.348.348,0,0,1-.1-.24.332.332,0,0,1,.11-.25.369.369,0,0,1,.49,0,.363.363,0,0,1,.1.25.34.34,0,0,1-.33.35h-.02Z" style="fill:#fff"/><path d="M54.75,47.22a.332.332,0,0,1-.25-.11.348.348,0,0,1-.1-.24.369.369,0,0,1,.1-.25.361.361,0,0,1,.49,0,.347.347,0,0,1-.22.6Z" style="fill:#fff"/><path d="M54.75,54.47a.332.332,0,0,1-.25-.11.348.348,0,0,1-.1-.24.332.332,0,0,1,.11-.25.369.369,0,0,1,.49,0,.363.363,0,0,1,.1.25.34.34,0,0,1-.33.35h-.02Z" style="fill:#fff"/><path d="M51,56.47a.35.35,0,0,1-.25-.6.369.369,0,0,1,.5,0,.354.354,0,0,1,.1.25.391.391,0,0,1-.1.25A.369.369,0,0,1,51,56.47Z" style="fill:#fff"/><path d="M50.75,64a.34.34,0,0,1-.35-.33h0v-.02a.31.31,0,0,1,.1-.24.341.341,0,0,1,.481-.009l.009.009a.358.358,0,0,1,.11.25.391.391,0,0,1-.1.25A.368.368,0,0,1,50.75,64Z" style="fill:#fff"/><path d="M53,64a.34.34,0,0,1-.35-.33h0v-.02a.332.332,0,0,1,.11-.25.361.361,0,0,1,.49,0,.31.31,0,0,1,.1.24.341.341,0,0,1-.319.36Z" style="fill:#fff"/><path d="M55.75,63.22a.35.35,0,0,1-.25-.6.36.36,0,0,1,.6.25.34.34,0,0,1-.33.35h-.02Z" style="fill:#fff"/><path d="M58,61.72a.358.358,0,0,1-.25-.11.348.348,0,0,1-.1-.24.391.391,0,0,1,.1-.25.35.35,0,0,1,.6.25.34.34,0,0,1-.33.35H58Z" style="fill:#fff"/><path d="M20.75,27.22a.35.35,0,0,1-.25-.6.36.36,0,0,1,.6.25.34.34,0,0,1-.33.35h-.02Z" style="fill:#fff"/><path d="M22.5,24.22a.35.35,0,0,1-.25-.6.369.369,0,0,1,.5,0,.35.35,0,0,1-.25.6Z" style="fill:#fff"/><path d="M38.75,25a.35.35,0,0,1-.25-.6.369.369,0,0,1,.5,0,.35.35,0,0,1-.25.6Z" style="fill:#fff"/><path d="M46,29.22a.391.391,0,0,1-.25-.1.351.351,0,0,1,0-.49.341.341,0,0,1,.481-.009l.009.009a.358.358,0,0,1,.11.25.34.34,0,0,1-.33.35H46Z" style="fill:#fff"/><path d="M55,28.22a.35.35,0,0,1-.25-.6.369.369,0,0,1,.5,0,.35.35,0,0,1-.25.6Z" style="fill:#fff"/><path d="M51,25.47a.35.35,0,0,1-.25-.6.369.369,0,0,1,.5,0,.354.354,0,0,1,.1.25.34.34,0,0,1-.33.35H51Z" style="fill:#fff"/><path d="M51.75,29.72a.369.369,0,0,1-.25-.1.347.347,0,0,1,.506-.474.339.339,0,0,1-.236.574h-.02Z" style="fill:#fff"/><path d="M62.25,35.72a.34.34,0,0,1-.35-.33h0v-.02a.332.332,0,0,1,.11-.25.361.361,0,0,1,.49,0,.31.31,0,0,1,.1.24.34.34,0,0,1-.33.35h-.02Z" style="fill:#fff"/><path d="M56.5,39.22a.35.35,0,0,1-.25-.6.36.36,0,0,1,.6.25.34.34,0,0,1-.33.35H56.5Z" style="fill:#fff"/><path d="M48,37.47a.348.348,0,0,1-.24-.1.358.358,0,0,1-.11-.25.391.391,0,0,1,.1-.25.359.359,0,0,1,.5,0,.329.329,0,0,1,.1.24.34.34,0,0,1-.33.35H48Z" style="fill:#fff"/><path d="M47.75,41.47a.332.332,0,0,1-.25-.11.348.348,0,0,1-.1-.24.391.391,0,0,1,.1-.25.38.38,0,0,1,.5,0,.35.35,0,0,1-.25.6Z" style="fill:#fff"/><path d="M53.25,45.22a.339.339,0,0,1-.25-.11.31.31,0,0,1-.1-.24.339.339,0,0,1,.11-.25.369.369,0,0,1,.49,0,.35.35,0,0,1-.25.6Z" style="fill:#fff"/><path d="M62,48.22a.34.34,0,0,1-.35-.33h0v-.02a.332.332,0,0,1,.11-.25.361.361,0,0,1,.49,0,.31.31,0,0,1,.1.24.34.34,0,0,1-.33.35H62Z" style="fill:#fff"/><path d="M64.75,52a.34.34,0,0,1-.35-.33h0v-.02a.332.332,0,0,1,.11-.25.369.369,0,0,1,.49,0,.363.363,0,0,1,.1.25.34.34,0,0,1-.33.35h-.02Z" style="fill:#fff"/><path d="M69.25,45.22a.35.35,0,0,1-.25-.6.369.369,0,0,1,.5,0,.35.35,0,0,1-.25.6Z" style="fill:#fff"/><path d="M59.75,39.22a.332.332,0,0,1-.25-.11.348.348,0,0,1-.1-.24.339.339,0,0,1,.11-.25.35.35,0,1,1,.49.5A.369.369,0,0,1,59.75,39.22Z" style="fill:#fff"/><path d="M32.25,47.22a.35.35,0,0,1-.25-.6.36.36,0,0,1,.6.25.34.34,0,0,1-.33.35h-.02Z" style="fill:#fff"/><path d="M26,38a.35.35,0,0,1-.25-.6.36.36,0,0,1,.6.25.34.34,0,0,1-.33.35H26Z" style="fill:#fff"/><path d="M29.5,35.72a.348.348,0,0,1-.24-.1.358.358,0,0,1-.11-.25.332.332,0,0,1,.11-.25.369.369,0,0,1,.49,0,.363.363,0,0,1,.1.25.34.34,0,0,1-.33.35H29.5Z" style="fill:#fff"/><path d="M10.25,29.72a.35.35,0,0,1-.25-.6.369.369,0,0,1,.49,0,.332.332,0,0,1,.11.25.34.34,0,0,1-.33.35h-.02Z" style="fill:#fff"/><path d="M5.75,31.72a.35.35,0,0,1-.25-.6.361.361,0,0,1,.49,0,.332.332,0,0,1,.11.25.369.369,0,0,1-.1.25A.391.391,0,0,1,5.75,31.72Z" style="fill:#fff"/><path d="M2.25,35.47a.391.391,0,0,1-.25-.1.359.359,0,0,1,0-.5.369.369,0,0,1,.5,0,.354.354,0,0,1,.1.25.329.329,0,0,1-.1.24A.358.358,0,0,1,2.25,35.47Z" style="fill:#fff"/><path d="M16.75,42.22a.34.34,0,0,1-.35-.33h0v-.02a.332.332,0,0,1,.11-.25.35.35,0,0,1,.59.25.391.391,0,0,1-.1.25A.369.369,0,0,1,16.75,42.22Z" style="fill:#fff"/><path d="M12.5,36.22a.34.34,0,0,1-.35-.33h0v-.02a.332.332,0,0,1,.11-.25.369.369,0,0,1,.49,0,.363.363,0,0,1,.1.25.391.391,0,0,1-.1.25A.369.369,0,0,1,12.5,36.22Z" style="fill:#fff"/><path d="M26.25,30.47a.35.35,0,0,1-.25-.6.369.369,0,0,1,.5,0,.35.35,0,0,1-.25.6Z" style="fill:#fff"/><path d="M39,31a.35.35,0,0,1-.25-.6.369.369,0,0,1,.5,0,.359.359,0,0,1,0,.5A.369.369,0,0,1,39,31Z" style="fill:#fff"/><path d="M38,33a.35.35,0,0,1-.25-.6.369.369,0,0,1,.5,0A.35.35,0,0,1,38,33Z" style="fill:#fff"/><path d="M27.75,42.22a.35.35,0,0,1-.25-.6.369.369,0,0,1,.5,0,.35.35,0,0,1-.25.6Z" style="fill:#fff"/><path d="M6.25,20.72a.35.35,0,0,1-.25-.6.369.369,0,0,1,.5,0,.35.35,0,0,1-.25.6Z" style="fill:#fff"/><path d="M9.5,19a.35.35,0,0,1-.25-.6.36.36,0,0,1,.6.25.34.34,0,0,1-.33.35H9.5Z" style="fill:#fff"/><path d="M11.5,23.72a.34.34,0,0,1-.35-.33h0v-.02a.332.332,0,0,1,.11-.25.369.369,0,0,1,.49,0,.363.363,0,0,1,.1.25.391.391,0,0,1-.1.25A.369.369,0,0,1,11.5,23.72Z" style="fill:#fff"/><path d="M2.75,26a.391.391,0,0,1-.25-.1.359.359,0,0,1,0-.5.38.38,0,0,1,.5,0,.359.359,0,0,1,0,.5A.391.391,0,0,1,2.75,26Z" style="fill:#fff"/><path d="M64,29.72a.348.348,0,0,1-.24-.1.358.358,0,0,1-.11-.25.391.391,0,0,1,.1-.25.36.36,0,0,1,.6.25.34.34,0,0,1-.33.35H64Z" style="fill:#fff"/><path d="M69.25,30a.34.34,0,0,1-.35-.33h0v-.02a.339.339,0,0,1,.11-.25.369.369,0,0,1,.49,0,.363.363,0,0,1,.1.25.391.391,0,0,1-.1.25A.369.369,0,0,1,69.25,30Z" style="fill:#fff"/><path d="M1.25,9.22A.391.391,0,0,1,1,9.12a.359.359,0,0,1,0-.5.38.38,0,0,1,.5,0,.359.359,0,0,1,0,.5A.391.391,0,0,1,1.25,9.22Z" style="fill:#fff"/><path d="M16.25,6.22a.34.34,0,0,1-.35-.33h0V5.87a.369.369,0,0,1,.1-.25.38.38,0,0,1,.5,0,.35.35,0,0,1-.25.6Z" style="fill:#fff"/><path d="M3.5,6.22a.35.35,0,0,1-.25-.6.36.36,0,0,1,.6.25.34.34,0,0,1-.33.35H3.5Z" style="fill:#fff"/><path d="M12.5,14.47a.35.35,0,0,1-.25-.6.36.36,0,0,1,.6.25.34.34,0,0,1-.33.35H12.5Z" style="fill:#fff"/><path d="M18.25,19.47a.34.34,0,0,1-.35-.33h0v-.02a.369.369,0,0,1,.1-.25.36.36,0,0,1,.6.25.34.34,0,0,1-.33.35h-.02Z" style="fill:#fff"/><path d="M21,37.22a.34.34,0,0,1-.35-.33h0v-.02a.345.345,0,0,1,.59-.25.358.358,0,0,1,.11.25.34.34,0,0,1-.33.35H21Z" style="fill:#fff"/><path d="M.5,44.47a.391.391,0,0,1-.25-.1.391.391,0,0,1-.1-.25.332.332,0,0,1,.11-.25.369.369,0,0,1,.49,0,.363.363,0,0,1,.1.25.391.391,0,0,1-.1.25A.391.391,0,0,1,.5,44.47Z" style="fill:#fff"/><path d="M67.75,66.22a.34.34,0,0,1-.35-.33h0v-.02a.332.332,0,0,1,.11-.25.369.369,0,0,1,.49,0,.363.363,0,0,1,.1.25.34.34,0,0,1-.33.35h-.02Z" style="fill:#fff"/><path d="M59.5,70a.391.391,0,0,1-.25-.1.354.354,0,0,1-.1-.25.391.391,0,0,1,.1-.25.369.369,0,0,1,.5,0,.363.363,0,0,1,.1.25.369.369,0,0,1-.1.25A.391.391,0,0,1,59.5,70Z" style="fill:#fff"/><path d="M40.25,68.22a.35.35,0,0,1-.25-.6.369.369,0,0,1,.5,0,.359.359,0,0,1,0,.5A.369.369,0,0,1,40.25,68.22Z" style="fill:#fff"/><path d="M4.25,60.22a.35.35,0,0,1-.25-.6.36.36,0,0,1,.6.25.34.34,0,0,1-.33.35H4.25Z" style="fill:#fff"/><path d="M26.25,59.72a.35.35,0,0,1-.25-.6.36.36,0,0,1,.6.25.34.34,0,0,1-.33.35h-.02Z" style="fill:#fff"/><path d="M37,48.72a.34.34,0,0,1-.35-.33h0v-.02a.35.35,0,0,1,.6-.25.359.359,0,0,1,0,.5A.369.369,0,0,1,37,48.72Z" style="fill:#fff"/><path d="M8.5,40.47a.35.35,0,0,1-.25-.6.36.36,0,0,1,.6.25.34.34,0,0,1-.33.35H8.5Z" style="fill:#fff"/><path d="M52,38.22a.358.358,0,0,1-.25-.11.348.348,0,0,1-.1-.24.332.332,0,0,1,.11-.25.369.369,0,0,1,.49,0,.363.363,0,0,1,.1.25.34.34,0,0,1-.33.35H52Z" style="fill:#fff"/><path d="M60.5,46.22a.34.34,0,0,1-.35-.33h0v-.02a.332.332,0,0,1,.11-.25.369.369,0,0,1,.49,0,.363.363,0,0,1,.1.25.34.34,0,0,1-.33.35H60.5Z" style="fill:#fff"/><path d="M51,66.47a.35.35,0,0,1-.25-.6.369.369,0,0,1,.5,0,.391.391,0,0,1,.1.25.354.354,0,0,1-.1.25A.391.391,0,0,1,51,66.47Z" style="fill:#fff"/><path d="M39.75,38a.35.35,0,0,1-.25-.6.36.36,0,0,1,.6.25.34.34,0,0,1-.33.35h-.02Z" style="fill:#fff"/><path d="M27.25,13.72a.35.35,0,0,1-.25-.6.36.36,0,0,1,.6.25.34.34,0,0,1-.33.35h-.02Z" style="fill:#fff"/><path d="M19.5,26.72a.34.34,0,0,1-.35-.33h0v-.02a.345.345,0,0,1,.59-.25.358.358,0,0,1,.11.25.34.34,0,0,1-.33.35H19.5Z" style="fill:#fff"/><path d="M11.5,2a.354.354,0,0,1-.25-.6.38.38,0,0,1,.5,0,.35.35,0,0,1-.25.6Z" style="fill:#fff"/><path d="M55,4a.34.34,0,0,1-.35-.33h0V3.65a.332.332,0,0,1,.11-.25.369.369,0,0,1,.49,0,.363.363,0,0,1,.1.25.34.34,0,0,1-.33.35H55Z" style="fill:#fff"/><path d="M47,70a.391.391,0,0,1-.25-.1.369.369,0,0,1-.1-.25.391.391,0,0,1,.1-.25.36.36,0,0,1,.6.25.34.34,0,0,1-.33.35H47Z" style="fill:#fff"/><path d="M4.5,40.47a.34.34,0,0,1-.35-.33h0v-.02a.332.332,0,0,1,.11-.25.369.369,0,0,1,.49,0,.363.363,0,0,1,.1.25.34.34,0,0,1-.33.35H4.5Z" style="fill:#fff"/><path d="M68.5,13.47a.35.35,0,0,1-.25-.6.369.369,0,0,1,.5,0,.359.359,0,0,1,0,.5A.391.391,0,0,1,68.5,13.47Z" style="fill:#fff"/><path d="M23,14.22a.35.35,0,0,1-.25-.6.36.36,0,0,1,.6.25.34.34,0,0,1-.33.35H23Z" style="fill:#fff"/><path d="M20.25,17.47a.35.35,0,0,1-.25-.6.369.369,0,0,1,.5,0,.35.35,0,0,1-.25.6Z" style="fill:#fff"/><path d="M14.5,17.47a.34.34,0,0,1-.35-.33h0v-.02a.332.332,0,0,1,.11-.25.369.369,0,0,1,.49,0,.363.363,0,0,1,.1.25.34.34,0,0,1-.33.35H14.5Z" style="fill:#fff"/><path d="M5.75,12a.35.35,0,0,1-.25-.6.361.361,0,0,1,.49,0,.332.332,0,0,1,.11.25.34.34,0,0,1-.33.35H5.75Z" style="fill:#fff"/><path d="M6.75,3a.371.371,0,0,1-.24-.1.358.358,0,0,1-.11-.25.391.391,0,0,1,.1-.25.36.36,0,0,1,.6.25A.342.342,0,0,1,6.766,3Z" style="fill:#fff"/><path d="M9.75,8.47a.35.35,0,0,1-.25-.6.36.36,0,0,1,.6.25.34.34,0,0,1-.33.35H9.75Z" style="fill:#fff"/><path d="M14,8.47a.34.34,0,0,1-.35-.33h0V8.12a.332.332,0,0,1,.11-.25.369.369,0,0,1,.49,0,.363.363,0,0,1,.1.25.34.34,0,0,1-.33.35H14Z" style="fill:#fff"/><path d="M25.5,7.22a.35.35,0,0,1-.25-.6.36.36,0,0,1,.6.25.34.34,0,0,1-.33.35H25.5Z" style="fill:#fff"/><path d="M36.75,7.72a.35.35,0,0,1-.25-.6.369.369,0,0,1,.5,0,.35.35,0,0,1-.25.6Z" style="fill:#fff"/><path d="M37.25,4.47a.34.34,0,0,1-.35-.33h0V4.12a.329.329,0,0,1,.1-.25.35.35,0,0,1,.59.25.34.34,0,0,1-.33.35h-.01Z" style="fill:#fff"/><path d="M43,2.47a.354.354,0,0,1-.25-.6.369.369,0,0,1,.5,0,.361.361,0,0,1,0,.5A.419.419,0,0,1,43,2.47Z" style="fill:#fff"/><path d="M49.25,8.47a.391.391,0,0,1-.25-.1.359.359,0,0,1,0-.5.369.369,0,0,1,.5,0,.35.35,0,0,1-.25.6Z" style="fill:#fff"/><path d="M45.75,9.47a.35.35,0,0,1-.25-.6.369.369,0,0,1,.5,0,.359.359,0,0,1,0,.5A.369.369,0,0,1,45.75,9.47Z" style="fill:#fff"/><path d="M35.5,11.22a.34.34,0,0,1-.35-.33h0v-.02a.369.369,0,0,1,.1-.25.36.36,0,0,1,.6.25.34.34,0,0,1-.33.35H35.5Z" style="fill:#fff"/><path d="M39,15.22a.35.35,0,0,1-.25-.6.36.36,0,0,1,.6.25.34.34,0,0,1-.33.35H39Z" style="fill:#fff"/><path d="M24.5,18.22a.35.35,0,0,1-.25-.6.36.36,0,0,1,.6.25.34.34,0,0,1-.33.35H24.5Z" style="fill:#fff"/><path d="M8,27.47a.35.35,0,0,1-.25-.6.36.36,0,0,1,.6.25.34.34,0,0,1-.33.35H8Z" style="fill:#fff"/><path d="M15.75,32a.35.35,0,0,1-.25-.6.38.38,0,0,1,.5,0,.35.35,0,0,1-.25.6Z" style="fill:#fff"/><path d="M10.25,33.72a.34.34,0,0,1-.35-.33h0v-.02a.332.332,0,0,1,.11-.25.369.369,0,0,1,.49,0,.363.363,0,0,1,.1.25.369.369,0,0,1-.1.25A.391.391,0,0,1,10.25,33.72Z" style="fill:#fff"/><path d="M5,37.22a.35.35,0,0,1-.25-.6.38.38,0,0,1,.5,0,.369.369,0,0,1,.1.25.34.34,0,0,1-.33.35H5Z" style="fill:#fff"/><path d="M3,20.72a.391.391,0,0,1-.25-.1.359.359,0,0,1,0-.5.38.38,0,0,1,.5,0,.359.359,0,0,1,0,.5A.391.391,0,0,1,3,20.72Z" style="fill:#fff"/><path d="M20.25,31a.34.34,0,0,1-.35-.33h0v-.02a.332.332,0,0,1,.11-.25.35.35,0,0,1,.59.25.34.34,0,0,1-.33.35h-.02Z" style="fill:#fff"/><path d="M17.25,35.72a.35.35,0,0,1-.25-.6.369.369,0,0,1,.5,0,.35.35,0,0,1-.25.6Z" style="fill:#fff"/><path d="M15.75,39.22a.34.34,0,0,1-.35-.33h0v-.02a.332.332,0,0,1,.11-.25.369.369,0,0,1,.49,0,.363.363,0,0,1,.1.25.391.391,0,0,1-.1.25A.369.369,0,0,1,15.75,39.22Z" style="fill:#fff"/><path d="M12.5,41.47a.34.34,0,0,1-.35-.33h0v-.02a.332.332,0,0,1,.11-.25.369.369,0,0,1,.49,0,.363.363,0,0,1,.1.25.34.34,0,0,1-.33.35H12.5Z" style="fill:#fff"/><path d="M12.5,46.72a.34.34,0,0,1-.35-.33h0v-.02a.332.332,0,0,1,.11-.25.369.369,0,0,1,.49,0,.363.363,0,0,1,.1.25.34.34,0,0,1-.33.35H12.5Z" style="fill:#fff"/><path d="M5.5,48.72a.35.35,0,0,1-.25-.6.38.38,0,0,1,.5,0,.35.35,0,0,1-.25.6Z" style="fill:#fff"/><path d="M10.75,54.72a.35.35,0,0,1-.25-.6.38.38,0,0,1,.5,0,.35.35,0,0,1-.25.6Z" style="fill:#fff"/><path d="M15.25,58.72a.35.35,0,0,1-.25-.6.369.369,0,0,1,.5,0,.35.35,0,0,1-.25.6Z" style="fill:#fff"/><path d="M5.75,63.72a.35.35,0,0,1-.25-.6.38.38,0,0,1,.5,0,.363.363,0,0,1,.1.25.34.34,0,0,1-.33.35H5.75Z" style="fill:#fff"/><path d="M2,62.22a.391.391,0,0,1-.25-.1.359.359,0,0,1,0-.5.369.369,0,0,1,.49,0,.339.339,0,0,1,.11.25.391.391,0,0,1-.1.25A.391.391,0,0,1,2,62.22Z" style="fill:#fff"/><path d="M8.75,68.22a.35.35,0,0,1-.25-.6.36.36,0,0,1,.6.25.391.391,0,0,1-.1.25A.369.369,0,0,1,8.75,68.22Z" style="fill:#fff"/><path d="M13.25,69.72a.35.35,0,0,1-.25-.6.38.38,0,0,1,.5,0,.35.35,0,0,1-.25.6Z" style="fill:#fff"/><path d="M21.25,68.72a.34.34,0,0,1-.35-.33h0v-.02a.332.332,0,0,1,.11-.25.35.35,0,0,1,.59.25.34.34,0,0,1-.33.35h-.02Z" style="fill:#fff"/><path d="M22.75,66a.35.35,0,0,1-.25-.6.369.369,0,0,1,.5,0,.359.359,0,0,1,0,.5A.369.369,0,0,1,22.75,66Z" style="fill:#fff"/><path d="M22,60.22a.35.35,0,0,1-.25-.6.38.38,0,0,1,.5,0,.359.359,0,0,1,0,.5A.369.369,0,0,1,22,60.22Z" style="fill:#fff"/><path d="M24,57.72a.34.34,0,0,1-.35-.33h0v-.02a.369.369,0,0,1,.1-.25.38.38,0,0,1,.5,0,.369.369,0,0,1,.1.25.391.391,0,0,1-.1.25A.369.369,0,0,1,24,57.72Z" style="fill:#fff"/><path d="M26,48a.35.35,0,0,1-.25-.6.369.369,0,0,1,.5,0A.35.35,0,0,1,26,48Z" style="fill:#fff"/><path d="M25.5,43.72a.35.35,0,0,1-.25-.6.369.369,0,0,1,.5,0,.35.35,0,0,1-.25.6Z" style="fill:#fff"/><path d="M32,31.22a.34.34,0,0,1-.35-.33h0v-.02a.332.332,0,0,1,.11-.25.35.35,0,0,1,.59.25.34.34,0,0,1-.33.35H32Z" style="fill:#fff"/><path d="M34,28a.34.34,0,0,1-.35-.33h0v-.02a.354.354,0,0,1,.1-.25.369.369,0,0,1,.5,0,.359.359,0,0,1,0,.5A.369.369,0,0,1,34,28Z" style="fill:#fff"/><path d="M41.5,26a.35.35,0,0,1-.25-.6.369.369,0,0,1,.5,0,.35.35,0,0,1-.25.6Z" style="fill:#fff"/><path d="M42.75,21a.358.358,0,0,1-.25-.11.329.329,0,0,1-.1-.24.391.391,0,0,1,.1-.25.369.369,0,0,1,.5,0,.391.391,0,0,1,.1.25.339.339,0,0,1-.11.25A.348.348,0,0,1,42.75,21Z" style="fill:#fff"/><path d="M36.25,19.47a.391.391,0,0,1-.25-.1.363.363,0,0,1-.1-.25.31.31,0,0,1,.1-.24.35.35,0,0,1,.495,0h0l.005,0a.35.35,0,0,1-.25.6Z" style="fill:#fff"/><path d="M27.5,22.47a.35.35,0,0,1-.25-.6.369.369,0,0,1,.5,0,.35.35,0,0,1-.25.6Z" style="fill:#fff"/><path d="M51.75,22.22a.332.332,0,0,1-.25-.11.348.348,0,0,1-.1-.24.391.391,0,0,1,.1-.25.36.36,0,0,1,.6.25.391.391,0,0,1-.1.25A.369.369,0,0,1,51.75,22.22Z" style="fill:#fff"/><path d="M43,18a.369.369,0,0,1-.25-.1.359.359,0,0,1,0-.5.38.38,0,0,1,.5,0A.35.35,0,0,1,43,18Z" style="fill:#fff"/><path d="M50.25,18.22a.369.369,0,0,1-.25-.1.347.347,0,0,1,.506-.474.339.339,0,0,1-.236.574h-.02Z" style="fill:#fff"/><path d="M59.25,17.47a.34.34,0,0,1-.35-.33h0v-.02a.332.332,0,0,1,.11-.25.369.369,0,0,1,.49,0,.363.363,0,0,1,.1.25.34.34,0,0,1-.33.35h-.02Z" style="fill:#fff"/><path d="M58,14.22a.369.369,0,0,1-.25-.1.347.347,0,0,1,.506-.474.339.339,0,0,1-.236.574H58Z" style="fill:#fff"/><path d="M61.25,11.22a.34.34,0,0,1-.35-.33h0v-.02a.332.332,0,0,1,.11-.25.361.361,0,0,1,.49,0,.31.31,0,0,1,.1.24.34.34,0,0,1-.33.35h-.02Z" style="fill:#fff"/><path d="M58.5,7.72a.391.391,0,0,1-.25-.1.354.354,0,0,1-.1-.25.31.31,0,0,1,.1-.24.35.35,0,0,1,.6.24.34.34,0,0,1-.33.35H58.5Z" style="fill:#fff"/><path d="M59.75,5a.339.339,0,0,1-.25-.11.348.348,0,0,1-.1-.24.332.332,0,0,1,.11-.25.369.369,0,0,1,.49,0,.363.363,0,0,1,.1.25.34.34,0,0,1-.33.35h-.02Z" style="fill:#fff"/><path d="M67.25,6.22a.391.391,0,0,1-.25-.1.363.363,0,0,1-.1-.25.369.369,0,0,1,.1-.25.38.38,0,0,1,.5,0,.35.35,0,0,1-.25.6Z" style="fill:#fff"/><path d="M70.5,8.72a.391.391,0,0,1-.25-.1.363.363,0,0,1-.1-.25.345.345,0,0,1,.59-.25.358.358,0,0,1,.11.25.34.34,0,0,1-.33.35H70.5Z" style="fill:#fff"/><path d="M65.5,10a.34.34,0,0,1-.35-.33h0V9.65a.369.369,0,0,1,.1-.25.38.38,0,0,1,.5,0,.35.35,0,0,1-.25.6Z" style="fill:#fff"/><path d="M60,24a.35.35,0,0,1-.25-.6.369.369,0,0,1,.5,0A.35.35,0,0,1,60,24Z" style="fill:#fff"/><path d="M55.25,24a.35.35,0,0,1-.25-.6.38.38,0,0,1,.5,0,.35.35,0,0,1-.25.6Z" style="fill:#fff"/><path d="M55.25,19a.339.339,0,0,1-.25-.11.348.348,0,0,1-.1-.24.332.332,0,0,1,.11-.25.369.369,0,0,1,.49,0,.363.363,0,0,1,.1.25.34.34,0,0,1-.33.35h-.02Z" style="fill:#fff"/><path d="M64.75,26a.34.34,0,0,1-.35-.33h0v-.02a.332.332,0,0,1,.11-.25.369.369,0,0,1,.49,0,.363.363,0,0,1,.1.25.34.34,0,0,1-.33.35h-.02Z" style="fill:#fff"/><path d="M57.5,31a.332.332,0,0,1-.25-.11.348.348,0,0,1-.1-.24.332.332,0,0,1,.11-.25.369.369,0,0,1,.49,0,.363.363,0,0,1,.1.25.34.34,0,0,1-.33.35H57.5Z" style="fill:#fff"/><path d="M52.5,33a.358.358,0,0,1-.25-.11.348.348,0,0,1-.1-.24.332.332,0,0,1,.11-.25.369.369,0,0,1,.49,0,.363.363,0,0,1,.1.25.34.34,0,0,1-.33.35H52.5Z" style="fill:#fff"/><path d="M47.25,34a.358.358,0,0,1-.25-.11.348.348,0,0,1-.1-.24.332.332,0,0,1,.11-.25.369.369,0,0,1,.49,0,.363.363,0,0,1,.1.25.34.34,0,0,1-.33.35h-.02Z" style="fill:#fff"/><path d="M44,39.47a.358.358,0,0,1-.25-.11.348.348,0,0,1-.1-.24.391.391,0,0,1,.1-.25.35.35,0,0,1,.6.25.332.332,0,0,1-.11.25A.348.348,0,0,1,44,39.47Z" style="fill:#fff"/><path d="M33.75,41.72a.35.35,0,0,1-.25-.6.369.369,0,0,1,.5,0,.35.35,0,0,1-.25.6Z" style="fill:#fff"/><path d="M40.5,48.22a.35.35,0,0,1-.25-.6.361.361,0,0,1,.49,0,.347.347,0,0,1-.22.6Z" style="fill:#fff"/><path d="M45.5,52.47a.34.34,0,0,1-.35-.33h0v-.02a.332.332,0,0,1,.11-.25.35.35,0,0,1,.59.25.34.34,0,0,1-.33.35H45.5Z" style="fill:#fff"/><path d="M46.25,57a.35.35,0,1,1-.01-.7.354.354,0,0,1,.25.1.358.358,0,0,1,.11.25.34.34,0,0,1-.33.35h-.02Z" style="fill:#fff"/><path d="M41.75,59.72a.348.348,0,0,1-.24-.1.358.358,0,0,1-.11-.25.391.391,0,0,1,.1-.25.369.369,0,0,1,.5,0,.35.35,0,0,1-.25.6Z" style="fill:#fff"/><path d="M39.75,63a.35.35,0,0,1-.25-.6.369.369,0,0,1,.5,0,.359.359,0,0,1,0,.5A.369.369,0,0,1,39.75,63Z" style="fill:#fff"/><path d="M35.75,63a.34.34,0,0,1-.35-.33h0v-.02a.332.332,0,0,1,.11-.25.35.35,0,0,1,.59.25.34.34,0,0,1-.33.35h-.02Z" style="fill:#fff"/><path d="M36.25,53a.391.391,0,0,1-.25-.1.354.354,0,0,1-.1-.25.391.391,0,0,1,.1-.25.359.359,0,0,1,.5,0,.31.31,0,0,1,.1.24.34.34,0,0,1-.33.35h-.02Z" style="fill:#fff"/><path d="M29.75,63.72a.348.348,0,0,1-.24-.1.358.358,0,0,1-.11-.25.332.332,0,0,1,.11-.25.369.369,0,0,1,.49,0,.363.363,0,0,1,.1.25.34.34,0,0,1-.33.35h-.02Z" style="fill:#fff"/><path d="M31.25,68.72a.35.35,0,0,1-.25-.6.369.369,0,0,1,.5,0,.35.35,0,0,1-.25.6Z" style="fill:#fff"/><path d="M36.75,71.22a.391.391,0,0,1-.25-.1.369.369,0,0,1-.1-.25.332.332,0,0,1,.11-.25.369.369,0,0,1,.49,0,.363.363,0,0,1,.1.25.369.369,0,0,1-.1.25A.391.391,0,0,1,36.75,71.22Z" style="fill:#fff"/><path d="M62.75,57.22a.34.34,0,0,1-.35-.33h0v-.02a.332.332,0,0,1,.11-.25.369.369,0,0,1,.49,0,.363.363,0,0,1,.1.25.34.34,0,0,1-.33.35h-.02Z" style="fill:#fff"/><path d="M59.75,51a.332.332,0,0,1-.25-.11.347.347,0,0,1,.49-.49.358.358,0,0,1,.11.25.391.391,0,0,1-.1.25A.369.369,0,0,1,59.75,51Z" style="fill:#fff"/><path d="M54.25,50.72a.391.391,0,0,1-.25-.1.369.369,0,0,1-.1-.25.35.35,0,0,1,.7-.01.354.354,0,0,1-.1.25A.339.339,0,0,1,54.25,50.72Z" style="fill:#fff"/><path d="M54.5,42a.358.358,0,0,1-.25-.11.329.329,0,0,1-.1-.24.391.391,0,0,1,.1-.25.369.369,0,0,1,.5,0,.391.391,0,0,1,.1.25.339.339,0,0,1-.11.25A.348.348,0,0,1,54.5,42Z" style="fill:#fff"/><path d="M62.25,42.47a.35.35,0,0,1-.25-.6.369.369,0,0,1,.5,0,.35.35,0,0,1-.25.6Z" style="fill:#fff"/><path d="M66.75,47.72a.348.348,0,0,1-.24-.1.358.358,0,0,1-.11-.25.391.391,0,0,1,.1-.25.361.361,0,0,1,.49,0,.319.319,0,0,1,.11.25.34.34,0,0,1-.33.35h-.02Z" style="fill:#fff"/><path d="M69.25,54.47a.348.348,0,0,1-.24-.1.358.358,0,0,1-.11-.25.391.391,0,0,1,.1-.25.36.36,0,0,1,.6.25.34.34,0,0,1-.33.35h-.02Z" style="fill:#fff"/><path d="M63.25,62a.348.348,0,0,1-.24-.1.358.358,0,0,1-.11-.25.391.391,0,0,1,.1-.25.361.361,0,0,1,.49,0,.319.319,0,0,1,.11.25.34.34,0,0,1-.33.35h-.02Z" style="fill:#fff"/><path d="M70,61.22a.34.34,0,0,1-.35-.33h0v-.02a.332.332,0,0,1,.11-.25.369.369,0,0,1,.49,0,.363.363,0,0,1,.1.25.34.34,0,0,1-.33.35H70Z" style="fill:#fff"/><path d="M64.5,65.72a.35.35,0,0,1-.25-.6.359.359,0,0,1,.5,0,.348.348,0,0,1,.1.24.34.34,0,0,1-.33.35H64.5Z" style="fill:#fff"/><path d="M65.5,68.47a.35.35,0,0,1-.25-.6.369.369,0,0,1,.5,0,.35.35,0,0,1-.25.6Z" style="fill:#fff"/><path d="M62.25,70.47a.34.34,0,0,1-.35-.33h0v-.02a.339.339,0,0,1,.11-.25.361.361,0,0,1,.49,0,.31.31,0,0,1,.1.24.34.34,0,0,1-.33.35h-.02Z" style="fill:#fff"/><path d="M52.5,70a.35.35,0,0,1-.25-.6.36.36,0,0,1,.6.25.391.391,0,0,1-.1.25A.369.369,0,0,1,52.5,70Z" style="fill:#fff"/><path d="M44.5,66.72a.339.339,0,0,1-.25-.11.348.348,0,0,1-.1-.24.332.332,0,0,1,.11-.25.369.369,0,0,1,.49,0,.363.363,0,0,1,.1.25.34.34,0,0,1-.33.35H44.5Z" style="fill:#fff"/><path d="M28.25,71.47a.391.391,0,0,1-.25-.1.363.363,0,0,1-.1-.25.332.332,0,0,1,.11-.25.35.35,0,0,1,.59.25.332.332,0,0,1-.11.25A.348.348,0,0,1,28.25,71.47Z" style="fill:#fff"/><path d="M2.75,29.72a.391.391,0,0,1-.25-.1.359.359,0,0,1,0-.5.38.38,0,0,1,.5,0,.359.359,0,0,1,0,.5A.391.391,0,0,1,2.75,29.72Z" style="fill:#fff"/><path d="M13,5.22a.358.358,0,0,1-.25-.11.31.31,0,0,1-.1-.24.369.369,0,0,1,.1-.25.36.36,0,0,1,.6.25.332.332,0,0,1-.11.25A.348.348,0,0,1,13,5.22Z" style="fill:#fff"/><path d="M70,34.72a.34.34,0,0,1-.35-.33h0v-.02a.332.332,0,0,1,.11-.25.369.369,0,0,1,.49,0,.363.363,0,0,1,.1.25.34.34,0,0,1-.33.35H70Z" style="fill:#fff"/><path d="M71,41.47a.35.35,0,0,1-.25-.6.369.369,0,0,1,.5,0,.35.35,0,0,1-.25.6Z" style="fill:#fff"/><path d="M.75,52a.391.391,0,0,1-.25-.1.391.391,0,0,1-.1-.25.332.332,0,0,1,.11-.25.369.369,0,0,1,.49,0,.363.363,0,0,1,.1.25.391.391,0,0,1-.1.25A.391.391,0,0,1,.75,52Z" style="fill:#fff"/><path d="M71.75,23.72a.35.35,0,0,1-.25-.6.38.38,0,0,1,.5,0,.35.35,0,0,1-.25.6Z" style="fill:#fff"/><path d="M68.75,26.72a.35.35,0,0,1-.25-.6.369.369,0,0,1,.5,0,.391.391,0,0,1,.1.25.354.354,0,0,1-.1.25A.391.391,0,0,1,68.75,26.72Z" style="fill:#fff"/><path d="M68.25,60.47a.34.34,0,0,1-.35-.33h0v-.02a.369.369,0,0,1,.1-.25.38.38,0,0,1,.5,0,.35.35,0,0,1-.25.6Z" style="fill:#fff"/><path d="M71.25,68.47a.35.35,0,0,1-.25-.6.369.369,0,0,1,.5,0,.391.391,0,0,1,.1.25.354.354,0,0,1-.1.25A.391.391,0,0,1,71.25,68.47Z" style="fill:#fff"/><path d="M.25,58A.391.391,0,0,1,0,57.9a.359.359,0,0,1,0-.5.38.38,0,0,1,.5,0,.359.359,0,0,1,0,.5A.391.391,0,0,1,.25,58Z" style="fill:#fff"/><path d="M2.5,71.47a.391.391,0,0,1-.25-.1.347.347,0,1,1,.6-.25.391.391,0,0,1-.1.25A.391.391,0,0,1,2.5,71.47Z" style="fill:#fff"/><path d="M70,24.22a.34.34,0,0,1-.35-.33h0v-.02a.332.332,0,0,1,.11-.25.369.369,0,0,1,.49,0,.363.363,0,0,1,.1.25.34.34,0,0,1-.33.35H70Z" style="fill:#fff"/><path d="M1,17a.391.391,0,0,1-.25-.1.359.359,0,0,1,0-.5.38.38,0,0,1,.5,0,.359.359,0,0,1,0,.5A.391.391,0,0,1,1,17Z" style="fill:#fff"/><path d="M17.75,13.27a.65.65,0,0,1-.65-.65h0a.661.661,0,0,1,.19-.46.68.68,0,0,1,.92,0,.65.65,0,0,1-.46,1.11Z" style="fill:#fff"/><path d="M29,11.27a.661.661,0,0,1-.46-.19.681.681,0,0,1-.19-.46.661.661,0,0,1,.19-.46.67.67,0,0,1,.92,0,.661.661,0,0,1,.19.46A.65.65,0,0,1,29,11.27Z" style="fill:#fff"/><path d="M29,3.77a.65.65,0,0,1-.65-.65h0a.639.639,0,0,1,.19-.46.68.68,0,0,1,.92,0,.649.649,0,0,1,0,.919h0A.682.682,0,0,1,29,3.77Z" style="fill:#fff"/><path d="M40,10.77a.65.65,0,0,1-.65-.65h0a.661.661,0,0,1,.19-.46.68.68,0,0,1,.92,0,.631.631,0,0,1,.19.46.681.681,0,0,1-.19.46A.661.661,0,0,1,40,10.77Z" style="fill:#fff"/><path d="M44.75,12.27a.61.61,0,0,1-.46-.2.64.64,0,0,1-.19-.45.661.661,0,0,1,.19-.46.68.68,0,0,1,.92,0,.631.631,0,0,1,.19.46.61.61,0,0,1-.2.46A.6.6,0,0,1,44.75,12.27Z" style="fill:#fff"/><path d="M47,23.27a.65.65,0,0,1-.46-1.11.68.68,0,0,1,.92,0A.65.65,0,0,1,47,23.27Z" style="fill:#fff"/><path d="M54.5,7.27a.641.641,0,0,1-.5-.19.649.649,0,0,1,0-.919h0a.68.68,0,0,1,.92,0,.639.639,0,0,1,.19.46.661.661,0,0,1-.19.46A.641.641,0,0,1,54.5,7.27Z" style="fill:#fff"/><path d="M63.75,7a.65.65,0,0,1-.46-1.11.68.68,0,0,1,.92,0A.65.65,0,0,1,63.75,7Z" style="fill:#fff"/><path d="M64.75,3a.661.661,0,0,1-.46-.19.681.681,0,0,1-.19-.46.661.661,0,0,1,.19-.46.65.65,0,0,1,1.11.46.63.63,0,0,1-.18.45A.67.67,0,0,1,64.75,3Z" style="fill:#fff"/><path d="M69.25,18.52a.65.65,0,0,1-.46-1.11.67.67,0,0,1,.92,0,.65.65,0,0,1-.46,1.11Z" style="fill:#fff"/><path d="M7.75,47.52a.639.639,0,0,1-.46-.19.681.681,0,0,1-.19-.46.661.661,0,0,1,.19-.46.68.68,0,0,1,.92,0,.661.661,0,0,1,.19.46.681.681,0,0,1-.19.46A.639.639,0,0,1,7.75,47.52Z" style="fill:#fff"/><path d="M4.75,57.27a.639.639,0,0,1-.46-.19.649.649,0,0,1,0-.919h0a.67.67,0,0,1,.92,0,.649.649,0,0,1,0,.919h0A.639.639,0,0,1,4.75,57.27Z" style="fill:#fff"/><path d="M2,67.52a.661.661,0,0,1-.46-.19.681.681,0,0,1-.19-.46.661.661,0,0,1,.19-.46.68.68,0,0,1,.92,0,.661.661,0,0,1,.19.46.681.681,0,0,1-.19.46A.661.661,0,0,1,2,67.52Z" style="fill:#fff"/><path d="M17.5,70.27a.661.661,0,0,1-.46-.19.681.681,0,0,1-.19-.46.661.661,0,0,1,.19-.46.68.68,0,0,1,.92,0,.661.661,0,0,1,.19.46.681.681,0,0,1-.19.46A.661.661,0,0,1,17.5,70.27Z" style="fill:#fff"/><path d="M19,62.77a.65.65,0,0,1-.65-.65h0a.639.639,0,0,1,.19-.46.67.67,0,0,1,.92,0,.661.661,0,0,1,.19.46.681.681,0,0,1-.19.46A.661.661,0,0,1,19,62.77Z" style="fill:#fff"/><path d="M20.75,45.77a.65.65,0,0,1-.65-.65h0a.639.639,0,0,1,.19-.46.67.67,0,0,1,.92,0,.661.661,0,0,1,.19.46.681.681,0,0,1-.19.46A.639.639,0,0,1,20.75,45.77Z" style="fill:#fff"/><path d="M28.25,51.52a.65.65,0,0,1-.46-1.11.67.67,0,0,1,.92,0,.661.661,0,0,1,.19.46.681.681,0,0,1-.19.46A.639.639,0,0,1,28.25,51.52Z" style="fill:#fff"/><path d="M33.75,60.77a.65.65,0,0,1-.65-.65h0a.639.639,0,0,1,.19-.46.68.68,0,0,1,.92,0,.631.631,0,0,1,.19.46.639.639,0,0,1-.19.46A.661.661,0,0,1,33.75,60.77Z" style="fill:#fff"/><path d="M34,67.27a.639.639,0,0,1-.46-.19.649.649,0,0,1,0-.919h0a.67.67,0,0,1,.92,0,.649.649,0,0,1,0,.919h0A.661.661,0,0,1,34,67.27Z" style="fill:#fff"/><path d="M41.5,55.52a.65.65,0,0,1-.5-1.11.68.68,0,0,1,.92,0,.65.65,0,0,1-.46,1.11Z" style="fill:#fff"/><path d="M52,60.27a.65.65,0,0,1-.46-1.11.68.68,0,0,1,.92,0A.65.65,0,0,1,52,60.27Z" style="fill:#fff"/><path d="M54.75,65.77a.661.661,0,0,1-.46-.19.681.681,0,0,1-.19-.46.639.639,0,0,1,.19-.46.68.68,0,0,1,.92,0,.639.639,0,0,1,.19.46.681.681,0,0,1-.19.46A.661.661,0,0,1,54.75,65.77Z" style="fill:#fff"/><path d="M25,25a.661.661,0,0,1-.46-.19.681.681,0,0,1-.19-.46.661.661,0,0,1,.19-.46.68.68,0,0,1,.92,0,.661.661,0,0,1,.19.46.681.681,0,0,1-.19.46A.661.661,0,0,1,25,25Z" style="fill:#fff"/><path d="M35,23.77a.639.639,0,0,1-.46-.19.649.649,0,0,1,0-.919h0a.68.68,0,0,1,.92,0A.65.65,0,0,1,35,23.77Z" style="fill:#fff"/><path d="M44.75,30a.65.65,0,0,1-.46-1.11.68.68,0,0,1,.92,0,.631.631,0,0,1,.19.46.61.61,0,0,1-.2.46A.621.621,0,0,1,44.75,30Z" style="fill:#fff"/><path d="M51.75,43.52a.65.65,0,0,1-.46-1.11.67.67,0,0,1,.92,0,.639.639,0,0,1,.19.46.65.65,0,0,1-.65.65Z" style="fill:#fff"/><path d="M66.75,52.27a.65.65,0,0,1-.65-.65h0a.61.61,0,0,1,.2-.46.68.68,0,0,1,.91,0,.65.65,0,0,1-.46,1.11Z" style="fill:#fff"/><path d="M47,48.27a.65.65,0,0,1-.46-1.11.68.68,0,0,1,.92,0A.65.65,0,0,1,47,48.27Z" style="fill:#fff"/><path d="M36.75,45a.661.661,0,0,1-.46-.19.681.681,0,0,1-.19-.46.661.661,0,0,1,.19-.46.68.68,0,0,1,.92,0,.661.661,0,0,1,.19.46.681.681,0,0,1-.19.46A.661.661,0,0,1,36.75,45Z" style="fill:#fff"/><path d="M16.75,29a.65.65,0,0,1-.46-1.11.68.68,0,0,1,.92,0,.649.649,0,0,1,0,.919h0A.64.64,0,0,1,16.75,29Z" style="fill:#fff"/><path d="M11,37.27a.65.65,0,0,1-.65-.65h0a.639.639,0,0,1,.19-.46.67.67,0,0,1,.92,0A.65.65,0,0,1,11,37.27Z" style="fill:#fff"/><path d="M67.25,31.27a.661.661,0,0,1-.46-.19.681.681,0,0,1-.19-.46.661.661,0,0,1,.19-.46.68.68,0,0,1,.92,0,.639.639,0,0,1,.19.46.65.65,0,0,1-.65.65Z" style="fill:#fff"/><path d="M7,16.27a.61.61,0,0,1-.46-.2.621.621,0,0,1-.19-.45.661.661,0,0,1,.19-.46.67.67,0,0,1,.92,0,.649.649,0,0,1,0,.919h0A.64.64,0,0,1,7,16.27Z" style="fill:#fff"/><path d="M8.25,5.77a.681.681,0,0,1-.46-.19.661.661,0,0,1-.19-.46.639.639,0,0,1,.19-.46.67.67,0,0,1,.92,0,.639.639,0,0,1,.19.46.65.65,0,0,1-.65.65Z" style="fill:#fff"/><path d="M3.25,3a.661.661,0,0,1-.46-.19.681.681,0,0,1-.19-.46.661.661,0,0,1,.19-.46.68.68,0,0,1,.92,0,.661.661,0,0,1,.19.46.681.681,0,0,1-.19.46A.661.661,0,0,1,3.25,3Z" style="fill:#fff"/><path d="M66.25,37.77a.65.65,0,0,1-.46-1.11.68.68,0,0,1,.92,0,.639.639,0,0,1,.19.46.661.661,0,0,1-.19.46A.639.639,0,0,1,66.25,37.77Z" style="fill:#fff"/><path d="M43.75,63.52a.661.661,0,0,1-.46-.19.681.681,0,0,1-.19-.46.661.661,0,0,1,.19-.46.67.67,0,0,1,.92,0,.661.661,0,0,1,.19.46.681.681,0,0,1-.19.46A.661.661,0,0,1,43.75,63.52Z" style="fill:#fff"/><path d="M25.5,70.52a.661.661,0,0,1-.46-.19.681.681,0,0,1-.19-.46.661.661,0,0,1,.19-.46.67.67,0,0,1,.92,0,.661.661,0,0,1,.19.46.681.681,0,0,1-.19.46A.661.661,0,0,1,25.5,70.52Z" style="fill:#fff"/><path d="M21.75,42.27a.661.661,0,0,1-.46-.19.649.649,0,0,1,0-.919h0a.68.68,0,0,1,.92,0,.65.65,0,0,1-.46,1.11Z" style="fill:#fff"/><path d="M23.75,29.52a.661.661,0,0,1-.46-.19.681.681,0,0,1-.19-.46.661.661,0,0,1,.19-.46.67.67,0,0,1,.92,0,.639.639,0,0,1,.19.46A.65.65,0,0,1,23.75,29.52Z" style="fill:#fff"/><path d="M41.25,35a.65.65,0,0,1-.46-1.11.68.68,0,0,1,.92,0,.661.661,0,0,1,.19.46.681.681,0,0,1-.19.46A.661.661,0,0,1,41.25,35Z" style="fill:#fff"/><path d="M67.25,44.27a.661.661,0,0,1-.46-.19.681.681,0,0,1-.19-.46.661.661,0,0,1,.19-.46.68.68,0,0,1,.92,0,.639.639,0,0,1,.19.46.65.65,0,0,1-.65.65Z" style="fill:#fff"/><path d="M53,15.52a.65.65,0,0,1-.46-1.11.68.68,0,0,1,.92,0,.661.661,0,0,1,.19.46.681.681,0,0,1-.19.46A.661.661,0,0,1,53,15.52Z" style="fill:#fff"/><path d="M33.75,16.52a.661.661,0,0,1-.46-.19.681.681,0,0,1-.19-.46.639.639,0,0,1,.19-.46.68.68,0,0,1,.92,0,.639.639,0,0,1,.19.46.65.65,0,0,1-.65.65Z" style="fill:#fff"/><path d="M12.5,19.77a.65.65,0,0,1-.5-1.11.67.67,0,0,1,.92,0,.65.65,0,0,1-.46,1.11Z" style="fill:#fff"/><path d="M49.25,5a.65.65,0,0,1-.46-1.11.68.68,0,0,1,.92,0A.65.65,0,0,1,49.25,5Z" style="fill:#fff"/><path d="M58.75,21.27a.65.65,0,0,1-.46-1.11.68.68,0,0,1,.92,0,.639.639,0,0,1,.19.46.65.65,0,0,1-.65.65Z" style="fill:#fff"/><path d="M67.25,57.77a.661.661,0,0,1-.46-.19.681.681,0,0,1-.19-.46.661.661,0,0,1,.19-.46.68.68,0,0,1,.92,0,.639.639,0,0,1,.19.46.65.65,0,0,1-.65.65Z" style="fill:#fff"/><path d="M5,70.27a.639.639,0,0,1-.46-.19.649.649,0,0,1,0-.919h0a.67.67,0,0,1,.92,0,.649.649,0,0,1,0,.919h0A.639.639,0,0,1,5,70.27Z" style="fill:#fff"/><path d="M2.5,13.77a.61.61,0,0,1-.46-.2.621.621,0,0,1-.19-.45A.662.662,0,0,1,2,12.66a.67.67,0,0,1,.92,0,.649.649,0,0,1,0,.919h0A.636.636,0,0,1,2.5,13.77Z" style="fill:#fff"/><path d="M16.25,3.77a.65.65,0,0,1-.46-1.11.68.68,0,0,1,.92,0,.65.65,0,0,1-.46,1.11Z" style="fill:#fff"/><path d="M40.25,5a.65.65,0,0,1-.46-1.11.68.68,0,0,1,.92,0,.639.639,0,0,1,.19.46.65.65,0,0,1-.65.65Z" style="fill:#fff"/><path d="M2.5,32.52a.641.641,0,0,1-.5-.19.649.649,0,0,1,0-.919H2a.68.68,0,0,1,.92,0,.65.65,0,0,1-.46,1.11Z" style="fill:#fff"/><path d="M7.25,25.52a.639.639,0,0,1-.46-.19.649.649,0,0,1,0-.919h0a.68.68,0,0,1,.92,0,.639.639,0,0,1,.19.46.661.661,0,0,1-.19.46A.636.636,0,0,1,7.25,25.52Z" style="fill:#fff"/><path d="M3.75,47.27a.661.661,0,0,1-.46-.19.681.681,0,0,1-.19-.46.661.661,0,0,1,.19-.46.67.67,0,0,1,.92,0,.661.661,0,0,1,.19.46.681.681,0,0,1-.19.46A.639.639,0,0,1,3.75,47.27Z" style="fill:#fff"/><path d="M10.75,51a.661.661,0,0,1-.46-.19.681.681,0,0,1-.19-.46.639.639,0,0,1,.19-.46.68.68,0,0,1,.92,0,.661.661,0,0,1,.19.46.681.681,0,0,1-.19.46A.661.661,0,0,1,10.75,51Z" style="fill:#fff"/><path d="M9.75,60.27a.639.639,0,0,1-.46-.19.649.649,0,0,1,0-.919h0a.68.68,0,0,1,.92,0,.649.649,0,0,1,0,.919h0A.639.639,0,0,1,9.75,60.27Z" style="fill:#fff"/><path d="M13.25,66.27a.661.661,0,0,1-.46-.19.681.681,0,0,1-.19-.46.639.639,0,0,1,.19-.46.67.67,0,0,1,.92,0,.661.661,0,0,1,.19.46.681.681,0,0,1-.19.46A.661.661,0,0,1,13.25,66.27Z" style="fill:#fff"/><path d="M21.75,53.77a.661.661,0,0,1-.46-.19.639.639,0,0,1-.19-.46.6.6,0,0,1,.2-.46.65.65,0,0,1,1.1.46.681.681,0,0,1-.19.46A.661.661,0,0,1,21.75,53.77Z" style="fill:#fff"/><path d="M31,38a.661.661,0,0,1-.46-.19.681.681,0,0,1-.19-.46.661.661,0,0,1,.19-.46.68.68,0,0,1,.92,0,.661.661,0,0,1,.19.46.681.681,0,0,1-.19.46A.661.661,0,0,1,31,38Z" style="fill:#fff"/><path d="M25.75,34.52a.65.65,0,0,1-.46-1.11.67.67,0,0,1,.92,0,.65.65,0,0,1-.46,1.11Z" style="fill:#fff"/><path d="M37,29a.661.661,0,0,1-.46-.19.681.681,0,0,1-.19-.46.661.661,0,0,1,.19-.46.68.68,0,0,1,.92,0,.661.661,0,0,1,.19.46.681.681,0,0,1-.19.46A.661.661,0,0,1,37,29Z" style="fill:#fff"/><path d="M61.5,17a.661.661,0,0,1-.46-.19.681.681,0,0,1-.19-.46.661.661,0,0,1,.19-.46.68.68,0,0,1,.92,0,.639.639,0,0,1,.19.46A.65.65,0,0,1,61.5,17Z" style="fill:#fff"/><path d="M61,27.52a.639.639,0,0,1-.46-.19.681.681,0,0,1-.19-.46.661.661,0,0,1,.19-.46.68.68,0,0,1,.92,0,.649.649,0,0,1,0,.919h0A.64.64,0,0,1,61,27.52Z" style="fill:#fff"/><path d="M58.5,57.52a.661.661,0,0,1-.46-.19.681.681,0,0,1-.19-.46.661.661,0,0,1,.19-.46.68.68,0,0,1,.92,0,.661.661,0,0,1,.19.46.681.681,0,0,1-.19.46A.661.661,0,0,1,58.5,57.52Z" style="fill:#fff"/><path d="M59,44.77a.639.639,0,0,1-.46-.19.649.649,0,0,1,0-.919h0a.68.68,0,0,1,.92,0,.649.649,0,0,1,0,.919h0A.639.639,0,0,1,59,44.77Z" style="fill:#fff"/><path d="M55.5,36a.661.661,0,0,1-.46-.19.681.681,0,0,1-.19-.46.661.661,0,0,1,.19-.46.68.68,0,0,1,.92,0,.661.661,0,0,1,.19.46.681.681,0,0,1-.19.46A.661.661,0,0,1,55.5,36Z" style="fill:#fff"/><path d="M69,71a.681.681,0,0,1-.46-.19.649.649,0,0,1,0-.919h0a.691.691,0,0,1,.92,0A.65.65,0,0,1,69,71Z" style="fill:#fff"/><path d="M60.5,66.27a.65.65,0,0,1-.5-1.11.67.67,0,0,1,.92,0,.639.639,0,0,1,.19.46.65.65,0,0,1-.65.65h.04Z" style="fill:#fff"/><path d="M44.25,71.77a.65.65,0,0,1-.46-1.11.68.68,0,0,1,.92,0,.65.65,0,0,1-.46,1.11Z" style="fill:#fff"/><path d="M24.25,1.52A.65.65,0,0,1,23.6.87h0a.639.639,0,0,1,.19-.46.67.67,0,0,1,.92,0,.661.661,0,0,1,.19.46.681.681,0,0,1-.19.46A.639.639,0,0,1,24.25,1.52Z" style="fill:#fff"/><path d="M-.25,23.72a.391.391,0,0,1-.25-.1.391.391,0,0,1-.1-.25.391.391,0,0,1,.1-.25.38.38,0,0,1,.5,0,.391.391,0,0,1,.1.25.391.391,0,0,1-.1.25A.391.391,0,0,1-.25,23.72Z" style="fill:#fff"/></pattern></defs><title>macinatura</title><g id="Layer_1-2" data-name="Layer 1-2"><path d="M220.427,314.889c-.94-1.15,5.93-2,5.93-2s-3.37-7.84-6.91-9.25c-10.45-4.16-8.52-6.43-12-3.41-3-2.42-6.72-5.75-7.78-6.9-1.73-1.88-5.51.74-8.61-.35s-7.64-7.93-11.09-4.75-10.16,3.9-14.3,11.19-4.56,4.05-7.93,7.14-2.38,4.38-8.42,9.94c-1.88,1.74,0,2.59,2.54,2,5.79-1.45,6.07,2.45,9.2,2.58s7.48-.93,13.56-.67,5,2.64,8.41,2.79,7.85-3.36,11.65-3.2h0c3.69.91,6.83,2.78,8.5,2.85,2.53.11,7.81-4.67,10.59-4.55,2.62,0,5.27.22,7,.3C224.327,318.679,222.287,317.169,220.427,314.889Z" style="fill:#fff;stroke:#ffb241;stroke-linecap:round;stroke-linejoin:round;stroke-width:2.3399999141693115px;opacity:0.5;isolation:isolate"/><path d="M142.6,55.549a5.781,5.781,0,0,1,3.07.34l-.68-1.4c11.44,2.53,8.76,8.92,8.76,8.92s-5.1,4.7-11.37-5.21c0,0-.4-.15.93.09S142.387,57.259,142.6,55.549Z" style="fill:#fff;opacity:0.5;isolation:isolate"/><polygon points="185.517 287.649 180.947 287.649 181.567 253.609 184.897 253.609 185.517 287.649" style="fill:url(#USGS_22_Gravel_Beach_4)"/><polyline points="159.827 219.349 136.297 138.629 230.157 138.629 206.627 219.349" style="fill:none;stroke:#fff;stroke-linecap:round;stroke-linejoin:round;stroke-width:2.3399999141693115px"/><path d="M144.147,77.519c-.56-2.41.81-6.5.81-6.5,6.85,9.5.59,12.49.59,12.49s-6.93.1-5-11.46C140.547,72.049,143.587,75.109,144.147,77.519Z" style="fill:#fff;opacity:0.5;isolation:isolate"/><line x1="144.567" y1="79.309" x2="144.887" y2="80.689" style="fill:none;stroke:#ffb241;stroke-linecap:round;stroke-linejoin:round;stroke-width:0.8799999952316284px"/><path d="M148.727,59.889c-2-1.42-3.73-5.39-3.73-5.39,11.44,2.53,8.76,8.92,8.76,8.92s-5.1,4.7-11.37-5.21C142.387,58.169,146.667,58.429,148.727,59.889Z" style="fill:none;stroke:#ffb241;stroke-linecap:round;stroke-linejoin:round;stroke-width:1.1699999570846558px"/><line x1="150.227" y1="60.909" x2="151.397" y2="61.719" style="fill:none;stroke:#ffb241;stroke-linecap:round;stroke-linejoin:round;stroke-width:1.1699999570846558px"/><path d="M145.667,55.889a5.087,5.087,0,0,0-3.08-.31,5.064,5.064,0,0,0,1.27,2.71" style="fill:none;stroke:#ffb241;stroke-linecap:round;stroke-linejoin:round;stroke-width:1.1699999570846558px"/><path d="M167.957,87.769c.39-2.44,3.2-5.71,3.2-5.71,2.75,11.39-4.17,11.83-4.17,11.83s-6.46-2.53-.3-12.51C166.667,81.339,168.347,85.329,167.957,87.769Z" style="fill:#fff;opacity:0.5;isolation:isolate"/><line x1="167.667" y1="89.589" x2="167.437" y2="90.989" style="fill:none;stroke:#ffb241;stroke-linecap:round;stroke-linejoin:round;stroke-width:1.1699999570846558px"/><path d="M136.807,45.179c4.64,9.55-4.24,13.34-4.24,13.34S127.507,50.3,136.807,45.179Z" style="fill:#fff;opacity:0.5;isolation:isolate"/><path d="M136.667,49.429a7.284,7.284,0,0,1-1.59,5.55" style="fill:none;stroke:#ffb241;stroke-linecap:round;stroke-linejoin:round;stroke-width:0.5899999737739563px"/><path d="M85.487,69.049c5.43-17.27,14.55-27.28,14.55-27.28,2.46,1.74,4.92,3.22,12,3.77,7.6.6,11.76-3.58,11.76-3.58a41.1,41.1,0,0,0-5.84-4.24s.94.58,4.6-.61a19.994,19.994,0,0,0,9.18-6.78,17.253,17.253,0,0,0-9-2.52,8.951,8.951,0,0,0,2.18-.13,7.856,7.856,0,0,0,1.79-.69c4.54-2.39,5-6.05,5-6.05a10.634,10.634,0,0,0-5.19-2.39h0s1.06.12,2.56-1.45a7.348,7.348,0,0,0,2-4,6.73,6.73,0,0,0-4.28-1c-2.29.28-3,1.38-3,1.38a13.5,13.5,0,0,0,.15-6.93,13.108,13.108,0,0,0-5.6,1.65,4.409,4.409,0,0,0,.44-3.31,6.833,6.833,0,0,0-2.35-3.8,7.506,7.506,0,0,0-3.19,3.22c-1,1.94-.55,3-.55,3a10.906,10.906,0,0,0-4.03-4.42s-3.42,1.61-4.28,6.73a8.074,8.074,0,0,0-.1,2,14.47,14.47,0,0,0,.53,3.63h0c-.54-3.65-6.15-6.84-6.15-6.84a16.8,16.8,0,0,0-2.52,10.05c.33,4.09,1.46,4.9,1.46,4.9a40.347,40.347,0,0,0-6.82-5s-2.72,5.22.25,12.15c2.33,5.46,4.59,7.86,6.76,9.56a80.728,80.728,0,0,0-14.96,27.82" style="fill:none;stroke:#ffce00;stroke-miterlimit:10;opacity:0.5;isolation:isolate"/><path d="M152.667,69.6c10.51-1.5,11.41,8.11,11.41,8.11S154.667,80.019,152.667,69.6Z" style="fill:#fff;opacity:0.5;isolation:isolate"/><path d="M156.667,71.019a7.364,7.364,0,0,1,4.8,3.21" style="fill:none;stroke:#ffb241;stroke-linecap:round;stroke-linejoin:round;stroke-width:0.5899999737739563px"/><path d="M164.507,120.649c-2.24-1.05-4.6-4.66-4.6-4.66,11.71.52,10.16,7.28,10.16,7.28s-4.22,5.5-12.09-3.19C157.977,120.079,162.267,119.6,164.507,120.649Z" style="fill:#fff;opacity:0.5;isolation:isolate"/><line x1="166.167" y1="121.439" x2="167.457" y2="122.039" style="fill:none;stroke:#ffb241;stroke-linecap:round;stroke-linejoin:round;stroke-width:1.1699999570846558px"/><path d="M183.737,128.539c-1.27-2.49-1.78-6.17,1.83-10.54,4.36,4,4.15,7.89,3.12,10.54" style="fill:#fff;opacity:0.5;isolation:isolate"/><path d="M187.007,122.009a7.867,7.867,0,0,1,.88,4.43" style="fill:none;stroke:#ffb241;stroke-linecap:round;stroke-linejoin:round;stroke-width:0.5899999737739563px"/><path d="M189.183,54.029V44.7H190.6v1.31a3.339,3.339,0,0,1,1.169-1.1,3.282,3.282,0,0,1,1.661-.418,3.066,3.066,0,0,1,1.7.431,2.307,2.307,0,0,1,.936,1.2,3.349,3.349,0,0,1,2.883-1.635,2.844,2.844,0,0,1,2.136.77,3.287,3.287,0,0,1,.747,2.368v6.407h-1.574v-5.88a4.313,4.313,0,0,0-.154-1.366,1.326,1.326,0,0,0-.557-.673,1.746,1.746,0,0,0-.95-.255,2.211,2.211,0,0,0-1.634.655,2.881,2.881,0,0,0-.651,2.1v5.423H194.73V47.965a2.666,2.666,0,0,0-.387-1.582,1.462,1.462,0,0,0-1.265-.528,2.307,2.307,0,0,0-1.236.352,2,2,0,0,0-.821,1.028,5.781,5.781,0,0,0-.255,1.951v4.843Z" style="fill:#fff"/><path d="M211.168,52.878a5.9,5.9,0,0,1-1.692,1.055,4.877,4.877,0,0,1-1.745.307,3.392,3.392,0,0,1-2.364-.752,2.475,2.475,0,0,1-.826-1.92,2.6,2.6,0,0,1,1.13-2.162,3.813,3.813,0,0,1,1.137-.518,11.322,11.322,0,0,1,1.407-.238,14.411,14.411,0,0,0,2.821-.545c.006-.216.009-.354.009-.413a1.747,1.747,0,0,0-.449-1.362,2.652,2.652,0,0,0-1.8-.536,2.8,2.8,0,0,0-1.648.391,2.392,2.392,0,0,0-.787,1.384l-1.547-.211a3.848,3.848,0,0,1,.694-1.6,3.049,3.049,0,0,1,1.4-.94,6.224,6.224,0,0,1,2.118-.33,5.591,5.591,0,0,1,1.942.282,2.551,2.551,0,0,1,1.1.707,2.465,2.465,0,0,1,.492,1.077,8.894,8.894,0,0,1,.079,1.459v2.109a22.405,22.405,0,0,0,.1,2.79,3.5,3.5,0,0,0,.4,1.121h-1.652A3.348,3.348,0,0,1,211.168,52.878Zm-.132-3.533a11.646,11.646,0,0,1-2.584.6,6,6,0,0,0-1.38.317,1.375,1.375,0,0,0-.624.514,1.4,1.4,0,0,0,.26,1.806,2.061,2.061,0,0,0,1.4.422,3.261,3.261,0,0,0,1.626-.4,2.459,2.459,0,0,0,1.046-1.094,3.815,3.815,0,0,0,.255-1.582Z" style="fill:#fff"/><path d="M215.953,54.029V41.144h1.582V54.029Z" style="fill:#fff"/><path d="M224.341,52.614l.229,1.4a5.936,5.936,0,0,1-1.195.14,2.708,2.708,0,0,1-1.336-.272,1.526,1.526,0,0,1-.668-.716,5.663,5.663,0,0,1-.194-1.868v-5.37h-1.16V44.7h1.16V42.384l1.574-.95V44.7h1.59v1.231h-1.59v5.458a2.742,2.742,0,0,0,.083.87.65.65,0,0,0,.272.307,1.048,1.048,0,0,0,.541.115A5.209,5.209,0,0,0,224.341,52.614Z" style="fill:#fff"/><path d="M226.2,49.362a4.813,4.813,0,0,1,1.441-3.841,4.348,4.348,0,0,1,2.936-1.037,4.186,4.186,0,0,1,3.146,1.262,4.8,4.8,0,0,1,1.222,3.484,6.183,6.183,0,0,1-.54,2.834,3.816,3.816,0,0,1-1.573,1.6,4.582,4.582,0,0,1-2.255.571,4.193,4.193,0,0,1-3.168-1.257A5.02,5.02,0,0,1,226.2,49.362Zm1.626,0a3.978,3.978,0,0,0,.782,2.685,2.6,2.6,0,0,0,3.675.254,2.648,2.648,0,0,0,.254-.254,4.072,4.072,0,0,0,.782-2.734,3.863,3.863,0,0,0-.786-2.624,2.61,2.61,0,0,0-3.683-.242,2.513,2.513,0,0,0-.242.242,3.963,3.963,0,0,0-.783,2.673Z" style="fill:#fff"/><rect x="155.717" y="219.349" width="55.02" height="34.26" style="fill:none;stroke:#fff;stroke-linecap:round;stroke-linejoin:round;stroke-width:2.3399999141693115px"/><path d="M218.857,311.889c.95,4,6.81,6.82,2,6.62-2.65-.11-7.36-.57-10.9-.09" style="fill:none;stroke:#ffb241;stroke-linecap:round;stroke-linejoin:round;stroke-width:2.3399999141693115px"/><path d="M220.817,314.489c1.64-1.51,5.54-1.59,5.54-1.59s-3.37-7.84-6.91-9.25c-10.45-4.16-8.52-6.43-12-3.41" style="fill:none;stroke:#ffb241;stroke-linecap:round;stroke-linejoin:round;stroke-width:2.3399999141693115px"/><path d="M162.867,103.209a5.716,5.716,0,0,1-3-.79l.46,1.49c-10.91-4.3-7.25-10.19-7.25-10.19s5.78-3.83,10.4,6.94c0,0,.38.22-.89-.23S163.347,101.559,162.867,103.209Z" style="fill:#fff;stroke:#ffb241;stroke-miterlimit:10;opacity:0.5;isolation:isolate"/><path d="M157.5,98c1.78,1.72,2.84,5.91,2.84,5.91-10.91-4.3-7.25-10.19-7.25-10.19s5.78-3.83,10.4,6.94C163.487,100.659,159.277,99.719,157.5,98Z" style="fill:none;stroke:#ffb241;stroke-linecap:round;stroke-linejoin:round;stroke-width:1.1699999570846558px"/><line x1="156.177" y1="96.719" x2="155.157" y2="95.729" style="fill:none;stroke:#ffb241;stroke-linecap:round;stroke-linejoin:round;stroke-width:1.1699999570846558px"/><path d="M159.877,102.419a4.993,4.993,0,0,0,3,.79,5,5,0,0,0-.82-2.87" style="fill:none;stroke:#ffb241;stroke-linecap:round;stroke-linejoin:round;stroke-width:1.1699999570846558px"/><path d="M179.937,101.619a5.7,5.7,0,0,1-.63,3l1.47-.54c-3.7,11.12-9.79,7.79-9.79,7.79s-4.14-5.56,6.37-10.76c0,0,.2-.39-.18.91S178.267,101.229,179.937,101.619Z" style="fill:#fff;stroke:#ffb241;stroke-miterlimit:10;opacity:0.5;isolation:isolate"/><path d="M175.027,107.259c1.63-1.86,5.75-3.15,5.75-3.15-3.7,11.12-9.79,7.79-9.79,7.79s-4.14-5.56,6.37-10.76C177.357,101.139,176.667,105.4,175.027,107.259Z" style="fill:none;stroke:#ffb241;stroke-linecap:round;stroke-linejoin:round;stroke-width:1.1699999570846558px"/><line x1="173.827" y1="108.649" x2="172.887" y2="109.719" style="fill:none;stroke:#ffb241;stroke-linecap:round;stroke-linejoin:round;stroke-width:1.1699999570846558px"/><path d="M179.307,104.649a5,5,0,0,0,.63-3,5.005,5.005,0,0,0-2.82,1" style="fill:none;stroke:#ffb241;stroke-linecap:round;stroke-linejoin:round;stroke-width:1.1699999570846558px"/><rect x="133.427" y="128.539" width="100.78" height="10.09" style="fill:none;stroke:#fff;stroke-linecap:round;stroke-linejoin:round;stroke-width:2.3399999141693115px"/><line x1="238.487" y1="234.029" x2="238.487" y2="256.499" style="fill:none;stroke:#fff;stroke-linecap:round;stroke-linejoin:round;stroke-width:2.3399999141693115px"/><path d="M167.957,87.769c.39-2.44,3.2-5.71,3.2-5.71,2.75,11.39-4.17,11.83-4.17,11.83s-6.46-2.53-.3-12.51C166.667,81.339,168.347,85.329,167.957,87.769Z" style="fill:none;stroke:#ffb241;stroke-linecap:round;stroke-linejoin:round;stroke-width:1.1699999570846558px"/><path d="M164.507,120.649c-2.24-1.05-4.6-4.66-4.6-4.66,11.71.52,10.16,7.28,10.16,7.28s-4.22,5.5-12.09-3.19C157.977,120.079,162.267,119.6,164.507,120.649Z" style="fill:none;stroke:#ffb241;stroke-linecap:round;stroke-linejoin:round;stroke-width:1.1699999570846558px"/><path d="M183.737,128.539c-1.27-2.49-1.78-6.17,1.83-10.54,4.36,4,4.15,7.89,3.12,10.54" style="fill:none;stroke:#ffb241;stroke-linecap:round;stroke-linejoin:round;stroke-width:1.1699999570846558px"/><rect x="210.737" y="234.029" width="27.75" height="6.07" style="fill:none;stroke:#fff;stroke-linecap:round;stroke-linejoin:round;stroke-width:2.3399999141693115px"/><rect x="238.487" y="256.499" width="17.21" height="5.05" style="fill:none;stroke:#fff;stroke-linecap:round;stroke-linejoin:round;stroke-width:2.3399999141693115px"/><path d="M144.147,77.519c-.56-2.41.81-6.5.81-6.5,6.85,9.5.59,12.49.59,12.49s-6.93.1-5-11.46C140.547,72.049,143.587,75.109,144.147,77.519Z" style="fill:none;stroke:#ffb241;stroke-linecap:round;stroke-linejoin:round;stroke-width:1.1699999570846558px"/><path d="M152.667,69.6c10.51-1.5,11.41,8.11,11.41,8.11S154.667,80.019,152.667,69.6Z" style="fill:none;stroke:#ffb241;stroke-linecap:round;stroke-linejoin:round;stroke-width:1.1699999570846558px"/><path d="M136.807,45.179c4.64,9.55-4.24,13.34-4.24,13.34S127.507,50.3,136.807,45.179Z" style="fill:none;stroke:#ffb241;stroke-linecap:round;stroke-linejoin:round;stroke-width:1.1699999570846558px"/><path d="M117.957,37.719s.94.58,4.6-.61a14.122,14.122,0,0,0,8-6.78s-5.69-2.69-9.08-2.59-7.74,3.21-7.74,3.21,3.43-4.3,1.44-11.58c-7.63.42-10.7,5-10.7,5s1.62-5,.66-8.25-5.34-7.69-5.34-7.69-4.13,4.27-3.69,10.03c.33,4.09,1.46,4.9,1.46,4.9" style="fill:none;stroke:#ffb241;stroke-linecap:round;stroke-linejoin:round;stroke-width:2.3399999141693115px"/><path d="M102.667,36.509s3.25-1.62,9.08-1.12c5.21.45,12.05,6.57,12.05,6.57s-4.13,4.18-11.76,3.58-9.88-2.25-12.56-4.16-5.52-3.9-8.48-10.83-.25-12.15-.25-12.15,8,4.48,10.11,9.23C103.167,32.889,102.667,36.509,102.667,36.509Z" style="fill:none;stroke:#ffb241;stroke-linecap:round;stroke-linejoin:round;stroke-width:2.3399999141693115px"/><path d="M112.667,7.239s-.5-1,.55-3a7.506,7.506,0,0,1,3.19-3.22,6.84,6.84,0,0,1,2.38,3.87,4.409,4.409,0,0,1-.38,3.41" style="fill:none;stroke:#ffb241;stroke-linecap:round;stroke-linejoin:round;stroke-width:2.3399999141693115px"/><path d="M122.757,27.809a9.3,9.3,0,0,0,2.21-.13,7.856,7.856,0,0,0,1.79-.69c4.54-2.39,5-6.05,5-6.05a10.293,10.293,0,0,0-6.17-2.45,17.692,17.692,0,0,0-4.1.74s4.18-6.55,2.52-12.61c-6.43.36-10.34,5.63-10.34,5.63a17.731,17.731,0,0,0-.6-4.18,10.524,10.524,0,0,0-4.4-5.18s-3.42,1.61-4.28,6.73a8.074,8.074,0,0,0-.1,2,14.47,14.47,0,0,0,.53,3.63" style="fill:none;stroke:#ffb241;stroke-linecap:round;stroke-linejoin:round;stroke-width:2.3399999141693115px"/><path d="M126.537,18.549s1.06.12,2.56-1.45a7.348,7.348,0,0,0,2-4,6.73,6.73,0,0,0-4.28-1c-2.29.28-3,1.38-3,1.38" style="fill:none;stroke:#ffb241;stroke-miterlimit:10;stroke-width:2.34px"/><path d="M97.287,40.659c.08-.19-9,9.9-14.45,27.18" style="fill:none;stroke:#ffb241;stroke-linecap:round;stroke-linejoin:round;stroke-width:2.3399999141693115px"/><path d="M99.927,41.889c.09-.18-9,9.91-14.44,27.18" style="fill:none;stroke:#ffb241;stroke-linecap:round;stroke-linejoin:round;stroke-width:2.3399999141693115px"/><path d="M200.367,306.669c-4.39-8.48-11.61-13.35-.71-7.82,8.71,4.42,3.32,4.82,7.75,6.75,5.78,2.51,23.93,17.56,9.13,11.57-10.63-4.29-8.78,9.37-22.55-5.25-6.16-6.53-1.62-5.51,1.87-4.23S203.287,312.339,200.367,306.669Z" style="stroke:#ffb241;stroke-miterlimit:10;fill:url(#USGS_22_Gravel_Beach_4)"/><path d="M182.387,288.979c1,0,1.11,1.67.54,2.49a8.829,8.829,0,0,1-2.37,1.8,2.467,2.467,0,0,0-1.28,2.49c.22.75,1,1.36.9,2.13s-.84,1-1.48,1.12c-2.4.61-5,.47-7.26,1.48a7.776,7.776,0,0,0-3.69,3.52c-.52-1.48.27-3.09,1.1-4.43,2.07-3.34,4.89-6.63,8.75-7.4a16.989,16.989,0,0,0,2.76-.57C181.237,291.259,181.447,288.969,182.387,288.979Z" style="stroke:#ffb241;stroke-miterlimit:10;fill:url(#USGS_22_Gravel_Beach_4)"/><path d="M179.827,321.349c-.16-.64-1.5-3.62-1.86-4.78-.83-2.65-1.67-3.89-1.77-4.75-.7-5.83,3.94-9.76,3-10.71s-8,2.27-8.5,6.63c-.2,1.89.9,3.35-.11,4.75-.77,1.06-2.41,1.62-3.2,1.1s-.43-2-.78-2.1-1.73,2-4.81,9.55c0,0,5.22-.63,9.74-1A19.538,19.538,0,0,1,179.827,321.349Z" style="stroke:#ffb241;stroke-miterlimit:10;fill:url(#USGS_22_Gravel_Beach_4)"/><ellipse cx="186.157" cy="305.399" rx="1.51" ry="8.9" style="stroke:#ffb241;stroke-miterlimit:10;fill:url(#USGS_22_Gravel_Beach_4)"/><path d="M149.337,316.5a63.02,63.02,0,0,0,5.1-5.72c.65-1,13.78-15.08,4.47,1.14-2.06,3.6.46,8.6.46,8.6s-3.09-3.67-7.49-2.06C149.267,319.419,147.847,318,149.337,316.5Z" style="stroke:#ffb241;stroke-miterlimit:10;fill:url(#USGS_22_Gravel_Beach_4)"/><path d="M188.667,319.689c6.11-1.27,12,3,14.55,3.1s7.81-4.66,10.59-4.55" style="fill:none;stroke:#ffb241;stroke-linecap:round;stroke-linejoin:round;stroke-width:2.3399999141693115px"/><path d="M211.177,302.969c-.83,0-9.82-7.74-11.55-9.63s-5.51.74-8.61-.35-7.64-7.93-11.09-4.75-10.12,3.89-14.26,11.18-4.56,4.05-7.93,7.14-2.38,4.38-8.42,9.94c-1.88,1.74,0,2.59,2.54,2,5.79-1.45,6.07,2.45,9.2,2.58s7.48-.93,13.56-.67,5,2.64,8.41,2.79,7.85-3.36,11.65-3.2" style="fill:none;stroke:#ffb241;stroke-linecap:round;stroke-linejoin:round;stroke-width:2.3399999141693115px"/></g></svg>