<svg id="Layer_1" data-name="Layer 1" xmlns="http://www.w3.org/2000/svg" xmlns:xlink="http://www.w3.org/1999/xlink" viewBox="0 0 366.151 366.151"><defs><pattern id="USGS_22_Gravel_Beach_4" data-name="USGS 22 Gravel Beach 4" width="72" height="72" patternTransform="translate(-73.19 -361.61) scale(0.99)" patternUnits="userSpaceOnUse" viewBox="0 0 72 72"><rect width="72" height="72" style="fill:none"/><rect width="72" height="72" style="fill:none"/><rect width="72" height="72" style="fill:none"/><path d="M72.25,58a.35.35,0,0,1-.25-.6.38.38,0,0,1,.5,0,.35.35,0,0,1-.25.6Z" style="fill:#fff"/><path d="M20.75,3.22a.391.391,0,0,1-.25-.1.347.347,0,1,1,.506-.474.339.339,0,0,1-.24.574Z" style="fill:#fff"/><path d="M19.75,8.47a.34.34,0,0,1-.35-.33h0V8.12a.332.332,0,0,1,.11-.25.369.369,0,0,1,.49,0,.363.363,0,0,1,.1.25.391.391,0,0,1-.1.25A.369.369,0,0,1,19.75,8.47Z" style="fill:#fff"/><path d="M20,10.72a.35.35,0,0,1-.25-.6.369.369,0,0,1,.5,0,.35.35,0,0,1-.25.6Z" style="fill:#fff"/><path d="M15,10.72a.34.34,0,0,1-.35-.33h0v-.02a.369.369,0,0,1,.1-.25.38.38,0,0,1,.5,0,.35.35,0,0,1-.25.6Z" style="fill:#fff"/><path d="M22.5,20.22a.35.35,0,0,1-.25-.6.36.36,0,0,1,.6.25.34.34,0,0,1-.33.35H22.5Z" style="fill:#fff"/><path d="M15,23.22a.34.34,0,0,1-.35-.33h0v-.02a.332.332,0,0,1,.11-.25.369.369,0,0,1,.49,0,.363.363,0,0,1,.1.25.34.34,0,0,1-.33.35H15Z" style="fill:#fff"/><path d="M13.75,24.22a.35.35,0,0,1-.25-.6.36.36,0,0,1,.6.25.391.391,0,0,1-.1.25A.369.369,0,0,1,13.75,24.22Z" style="fill:#fff"/><path d="M23.75,27.22a.34.34,0,0,1-.35-.33h0v-.02a.332.332,0,0,1,.11-.25.369.369,0,0,1,.49,0,.391.391,0,0,1,.1.25.348.348,0,0,1-.1.24A.358.358,0,0,1,23.75,27.22Z" style="fill:#fff"/><path d="M30.5,26a.35.35,0,0,1-.25-.6.36.36,0,0,1,.6.25.34.34,0,0,1-.33.35H30.5Z" style="fill:#fff"/><path d="M31,23.47a.34.34,0,0,1-.35-.33h0v-.02a.332.332,0,0,1,.11-.25.35.35,0,0,1,.59.25.391.391,0,0,1-.1.25A.369.369,0,0,1,31,23.47Z" style="fill:#fff"/><path d="M29,18.47a.35.35,0,0,1-.25-.6.36.36,0,0,1,.6.25.34.34,0,0,1-.33.35H29Z" style="fill:#fff"/><path d="M33.75,20a.35.35,0,0,1-.25-.6.36.36,0,0,1,.6.25.34.34,0,0,1-.33.35h-.02Z" style="fill:#fff"/><path d="M31.25,15a.35.35,0,0,1-.25-.6.36.36,0,0,1,.6.25.34.34,0,0,1-.33.35h-.02Z" style="fill:#fff"/><path d="M31.5,12a.35.35,0,0,1-.25-.6.369.369,0,0,1,.5,0,.35.35,0,0,1-.25.6Z" style="fill:#fff"/><path d="M32,7.22a.35.35,0,0,1-.25-.6.36.36,0,0,1,.6.25.34.34,0,0,1-.33.35H32Z" style="fill:#fff"/><path d="M31.75,3.22a.342.342,0,0,1-.35-.334V2.87a.332.332,0,0,1,.11-.25.35.35,0,0,1,.59.25.342.342,0,0,1-.334.35Z" style="fill:#fff"/><path d="M33.75,1.47a.358.358,0,0,1-.25-.11.338.338,0,0,1,0-.479L33.51.87a.345.345,0,0,1,.59.25.339.339,0,0,1-.11.25A.348.348,0,0,1,33.75,1.47Z" style="fill:#fff"/><path d="M41.25,7.22a.391.391,0,0,1-.25-.1.354.354,0,0,1-.1-.25.391.391,0,0,1,.1-.25.351.351,0,0,1,.49,0,.358.358,0,0,1,.11.25.34.34,0,0,1-.33.35h-.02Z" style="fill:#fff"/><path d="M45.25,7A.391.391,0,0,1,45,6.9a.347.347,0,0,1,.506-.474A.339.339,0,0,1,45.27,7h-.02Z" style="fill:#fff"/><path d="M42.25,13.72a.34.34,0,0,1-.35-.33h0v-.02a.332.332,0,0,1,.11-.25.35.35,0,0,1,.59.25.34.34,0,0,1-.33.35h-.02Z" style="fill:#fff"/><path d="M46.75,14.47a.34.34,0,0,1-.35-.33h0v-.02a.332.332,0,0,1,.11-.25.361.361,0,0,1,.49,0,.391.391,0,0,1,.1.25.329.329,0,0,1-.1.24A.358.358,0,0,1,46.75,14.47Z" style="fill:#fff"/><path d="M46.75,16.47a.34.34,0,0,1-.35-.33h0v-.02a.332.332,0,0,1,.11-.25.361.361,0,0,1,.49,0,.391.391,0,0,1,.1.25.371.371,0,0,1-.1.24A.358.358,0,0,1,46.75,16.47Z" style="fill:#fff"/><path d="M38.75,21a.35.35,0,0,1-.25-.6.361.361,0,0,1,.49,0,.347.347,0,0,1-.22.6Z" style="fill:#fff"/><path d="M50,13.72a.391.391,0,0,1-.25-.1.359.359,0,0,1,0-.5.369.369,0,0,1,.5,0,.35.35,0,0,1-.25.6Z" style="fill:#fff"/><path d="M52,12.22a.358.358,0,0,1-.25-.11.348.348,0,0,1-.1-.24.332.332,0,0,1,.11-.25.369.369,0,0,1,.49,0,.363.363,0,0,1,.1.25.34.34,0,0,1-.33.35H52Z" style="fill:#fff"/><path d="M54.5,11.22a.358.358,0,0,1-.25-.11.348.348,0,0,1-.1-.24.332.332,0,0,1,.11-.25.35.35,0,0,1,.59.25.34.34,0,0,1-.33.35H54.5Z" style="fill:#fff"/><path d="M56.25,1A.376.376,0,0,1,56,.37a.359.359,0,0,1,.5,0,.348.348,0,0,1,.1.24A.417.417,0,0,1,56.25,1Z" style="fill:#fff"/><path d="M67.75,3.22a.342.342,0,0,1-.35-.334V2.87a.332.332,0,0,1,.11-.25.369.369,0,0,1,.49,0,.363.363,0,0,1,.1.25.391.391,0,0,1-.1.25A.369.369,0,0,1,67.75,3.22Z" style="fill:#fff"/><path d="M67.75,10.47a.358.358,0,0,1-.25-.11.348.348,0,0,1-.1-.24.391.391,0,0,1,.1-.25.369.369,0,0,1,.5,0,.391.391,0,0,1,.1.25.339.339,0,0,1-.11.25A.348.348,0,0,1,67.75,10.47Z" style="fill:#fff"/><path d="M64,12.47a.35.35,0,0,1-.25-.6.36.36,0,0,1,.6.25.34.34,0,0,1-.33.35H64Z" style="fill:#fff"/><path d="M65,16a.34.34,0,0,1-.35-.33h0v-.02a.369.369,0,0,1,.1-.25.38.38,0,0,1,.5,0A.35.35,0,0,1,65,16Z" style="fill:#fff"/><path d="M63.75,20a.358.358,0,0,1-.25-.11.348.348,0,0,1-.1-.24.391.391,0,0,1,.1-.25.369.369,0,0,1,.5,0,.391.391,0,0,1,.1.25.339.339,0,0,1-.11.25A.348.348,0,0,1,63.75,20Z" style="fill:#fff"/><path d="M66,20a.34.34,0,0,1-.35-.33h0v-.02a.332.332,0,0,1,.11-.25.369.369,0,0,1,.49,0,.363.363,0,0,1,.1.25.34.34,0,0,1-.33.35H66Z" style="fill:#fff"/><path d="M67.75,21.47a.35.35,0,0,1-.25-.6.369.369,0,0,1,.5,0,.35.35,0,0,1-.25.6Z" style="fill:#fff"/><path d="M6.75,52.47a.35.35,0,0,1-.25-.6.38.38,0,0,1,.5,0,.35.35,0,0,1-.25.6Z" style="fill:#fff"/><path d="M7,54.72a.35.35,0,0,1-.25-.6.369.369,0,0,1,.5,0,.35.35,0,0,1-.25.6Z" style="fill:#fff"/><path d="M2,54.72a.391.391,0,0,1-.25-.1.359.359,0,0,1,0-.5.38.38,0,0,1,.5,0,.359.359,0,0,1,0,.5A.391.391,0,0,1,2,54.72Z" style="fill:#fff"/><path d="M9.5,64.22a.35.35,0,0,1-.25-.6.36.36,0,0,1,.6.25.34.34,0,0,1-.33.35H9.5Z" style="fill:#fff"/><path d="M.75,68.22a.391.391,0,0,1-.25-.1.359.359,0,0,1,0-.5.38.38,0,0,1,.5,0,.359.359,0,0,1,0,.5A.391.391,0,0,1,.75,68.22Z" style="fill:#fff"/><path d="M10.75,71.22a.35.35,0,0,1-.25-.6.38.38,0,0,1,.5,0,.35.35,0,0,1-.25.6Z" style="fill:#fff"/><path d="M18,67.47a.34.34,0,0,1-.35-.33h0v-.02a.345.345,0,0,1,.59-.25.358.358,0,0,1,.11.25.34.34,0,0,1-.33.35H18Z" style="fill:#fff"/><path d="M16,62.47a.35.35,0,0,1-.25-.6.369.369,0,0,1,.5,0,.35.35,0,0,1-.25.6Z" style="fill:#fff"/><path d="M19.25,58a.34.34,0,0,1-.35-.33h0v-.02a.332.332,0,0,1,.11-.25.369.369,0,0,1,.49,0,.363.363,0,0,1,.1.25.34.34,0,0,1-.33.35h-.02Z" style="fill:#fff"/><path d="M18.5,56a.34.34,0,0,1-.35-.33h0v-.02a.332.332,0,0,1,.11-.25.369.369,0,0,1,.49,0,.363.363,0,0,1,.1.25.34.34,0,0,1-.33.35H18.5Z" style="fill:#fff"/><path d="M16,55a.34.34,0,0,1-.35-.33h0v-.02a.332.332,0,0,1,.11-.25.369.369,0,0,1,.49,0,.363.363,0,0,1,.1.25.34.34,0,0,1-.33.35H16Z" style="fill:#fff"/><path d="M19,51.22a.34.34,0,0,1-.35-.33h0v-.02a.332.332,0,0,1,.11-.25.369.369,0,0,1,.49,0,.363.363,0,0,1,.1.25.34.34,0,0,1-.33.35H19Z" style="fill:#fff"/><path d="M18.75,47.22a.35.35,0,0,1-.25-.6.38.38,0,0,1,.5,0,.35.35,0,0,1-.25.6Z" style="fill:#fff"/><path d="M16,47.47a.35.35,0,0,1-.25-.6.369.369,0,0,1,.5,0,.35.35,0,0,1-.25.6Z" style="fill:#fff"/><path d="M32.25,51a.34.34,0,0,1-.35-.33h0v-.02a.332.332,0,0,1,.11-.25.35.35,0,0,1,.59.25.34.34,0,0,1-.33.35h-.02Z" style="fill:#fff"/><path d="M27,54.47a.35.35,0,0,1-.25-.6.369.369,0,0,1,.5,0,.35.35,0,0,1-.25.6Z" style="fill:#fff"/><path d="M31.75,56a.35.35,0,0,1-.25-.6.369.369,0,0,1,.5,0,.35.35,0,0,1-.25.6Z" style="fill:#fff"/><path d="M31.75,57.72a.35.35,0,0,1-.245-.6l.005,0a.369.369,0,0,1,.5,0,.363.363,0,0,1,.1.25.34.34,0,0,1-.33.35h-.03Z" style="fill:#fff"/><path d="M33.75,58.47a.35.35,0,0,1-.25-.6.369.369,0,0,1,.5,0,.35.35,0,0,1-.25.6Z" style="fill:#fff"/><path d="M25.75,65a.35.35,0,0,1-.25-.6.36.36,0,0,1,.6.25.34.34,0,0,1-.33.35h-.02Z" style="fill:#fff"/><path d="M35.75,56.47a.35.35,0,0,1-.25-.6.36.36,0,0,1,.6.25.34.34,0,0,1-.33.35h-.02Z" style="fill:#fff"/><path d="M39,56.22a.348.348,0,0,1-.24-.1.358.358,0,0,1-.11-.25.391.391,0,0,1,.1-.25.369.369,0,0,1,.5,0,.35.35,0,0,1-.25.6Z" style="fill:#fff"/><path d="M41.5,51a.35.35,0,0,1-.25-.6.369.369,0,0,1,.5,0,.35.35,0,0,1-.25.6Z" style="fill:#fff"/><path d="M43.25,45a.358.358,0,0,1-.25-.11.348.348,0,0,1-.1-.24.391.391,0,0,1,.1-.25.369.369,0,0,1,.5,0,.35.35,0,0,1-.25.6Z" style="fill:#fff"/><path d="M50.75,50.72a.391.391,0,0,1-.25-.1.363.363,0,0,1-.1-.25.391.391,0,0,1,.1-.25.359.359,0,0,1,.5,0,.35.35,0,0,1-.25.6Z" style="fill:#fff"/><path d="M51.75,46.72a.358.358,0,0,1-.25-.11.348.348,0,0,1-.1-.24.332.332,0,0,1,.11-.25.369.369,0,0,1,.49,0,.363.363,0,0,1,.1.25.34.34,0,0,1-.33.35h-.02Z" style="fill:#fff"/><path d="M54.75,47.22a.332.332,0,0,1-.25-.11.348.348,0,0,1-.1-.24.369.369,0,0,1,.1-.25.361.361,0,0,1,.49,0,.347.347,0,0,1-.22.6Z" style="fill:#fff"/><path d="M54.75,54.47a.332.332,0,0,1-.25-.11.348.348,0,0,1-.1-.24.332.332,0,0,1,.11-.25.369.369,0,0,1,.49,0,.363.363,0,0,1,.1.25.34.34,0,0,1-.33.35h-.02Z" style="fill:#fff"/><path d="M51,56.47a.35.35,0,0,1-.25-.6.369.369,0,0,1,.5,0,.354.354,0,0,1,.1.25.391.391,0,0,1-.1.25A.369.369,0,0,1,51,56.47Z" style="fill:#fff"/><path d="M50.75,64a.34.34,0,0,1-.35-.33h0v-.02a.31.31,0,0,1,.1-.24.341.341,0,0,1,.481-.009l.009.009a.358.358,0,0,1,.11.25.391.391,0,0,1-.1.25A.368.368,0,0,1,50.75,64Z" style="fill:#fff"/><path d="M53,64a.34.34,0,0,1-.35-.33h0v-.02a.332.332,0,0,1,.11-.25.361.361,0,0,1,.49,0,.31.31,0,0,1,.1.24.341.341,0,0,1-.319.36Z" style="fill:#fff"/><path d="M55.75,63.22a.35.35,0,0,1-.25-.6.36.36,0,0,1,.6.25.34.34,0,0,1-.33.35h-.02Z" style="fill:#fff"/><path d="M58,61.72a.358.358,0,0,1-.25-.11.348.348,0,0,1-.1-.24.391.391,0,0,1,.1-.25.35.35,0,0,1,.6.25.34.34,0,0,1-.33.35H58Z" style="fill:#fff"/><path d="M20.75,27.22a.35.35,0,0,1-.25-.6.36.36,0,0,1,.6.25.34.34,0,0,1-.33.35h-.02Z" style="fill:#fff"/><path d="M22.5,24.22a.35.35,0,0,1-.25-.6.369.369,0,0,1,.5,0,.35.35,0,0,1-.25.6Z" style="fill:#fff"/><path d="M38.75,25a.35.35,0,0,1-.25-.6.369.369,0,0,1,.5,0,.35.35,0,0,1-.25.6Z" style="fill:#fff"/><path d="M46,29.22a.391.391,0,0,1-.25-.1.351.351,0,0,1,0-.49.341.341,0,0,1,.481-.009l.009.009a.358.358,0,0,1,.11.25.34.34,0,0,1-.33.35H46Z" style="fill:#fff"/><path d="M55,28.22a.35.35,0,0,1-.25-.6.369.369,0,0,1,.5,0,.35.35,0,0,1-.25.6Z" style="fill:#fff"/><path d="M51,25.47a.35.35,0,0,1-.25-.6.369.369,0,0,1,.5,0,.354.354,0,0,1,.1.25.34.34,0,0,1-.33.35H51Z" style="fill:#fff"/><path d="M51.75,29.72a.369.369,0,0,1-.25-.1.347.347,0,0,1,.506-.474.339.339,0,0,1-.236.574h-.02Z" style="fill:#fff"/><path d="M62.25,35.72a.34.34,0,0,1-.35-.33h0v-.02a.332.332,0,0,1,.11-.25.361.361,0,0,1,.49,0,.31.31,0,0,1,.1.24.34.34,0,0,1-.33.35h-.02Z" style="fill:#fff"/><path d="M56.5,39.22a.35.35,0,0,1-.25-.6.36.36,0,0,1,.6.25.34.34,0,0,1-.33.35H56.5Z" style="fill:#fff"/><path d="M48,37.47a.348.348,0,0,1-.24-.1.358.358,0,0,1-.11-.25.391.391,0,0,1,.1-.25.359.359,0,0,1,.5,0,.329.329,0,0,1,.1.24.34.34,0,0,1-.33.35H48Z" style="fill:#fff"/><path d="M47.75,41.47a.332.332,0,0,1-.25-.11.348.348,0,0,1-.1-.24.391.391,0,0,1,.1-.25.38.38,0,0,1,.5,0,.35.35,0,0,1-.25.6Z" style="fill:#fff"/><path d="M53.25,45.22a.339.339,0,0,1-.25-.11.31.31,0,0,1-.1-.24.339.339,0,0,1,.11-.25.369.369,0,0,1,.49,0,.35.35,0,0,1-.25.6Z" style="fill:#fff"/><path d="M62,48.22a.34.34,0,0,1-.35-.33h0v-.02a.332.332,0,0,1,.11-.25.361.361,0,0,1,.49,0,.31.31,0,0,1,.1.24.34.34,0,0,1-.33.35H62Z" style="fill:#fff"/><path d="M64.75,52a.34.34,0,0,1-.35-.33h0v-.02a.332.332,0,0,1,.11-.25.369.369,0,0,1,.49,0,.363.363,0,0,1,.1.25.34.34,0,0,1-.33.35h-.02Z" style="fill:#fff"/><path d="M69.25,45.22a.35.35,0,0,1-.25-.6.369.369,0,0,1,.5,0,.35.35,0,0,1-.25.6Z" style="fill:#fff"/><path d="M59.75,39.22a.332.332,0,0,1-.25-.11.348.348,0,0,1-.1-.24.339.339,0,0,1,.11-.25.35.35,0,1,1,.49.5A.369.369,0,0,1,59.75,39.22Z" style="fill:#fff"/><path d="M32.25,47.22a.35.35,0,0,1-.25-.6.36.36,0,0,1,.6.25.34.34,0,0,1-.33.35h-.02Z" style="fill:#fff"/><path d="M26,38a.35.35,0,0,1-.25-.6.36.36,0,0,1,.6.25.34.34,0,0,1-.33.35H26Z" style="fill:#fff"/><path d="M29.5,35.72a.348.348,0,0,1-.24-.1.358.358,0,0,1-.11-.25.332.332,0,0,1,.11-.25.369.369,0,0,1,.49,0,.363.363,0,0,1,.1.25.34.34,0,0,1-.33.35H29.5Z" style="fill:#fff"/><path d="M10.25,29.72a.35.35,0,0,1-.25-.6.369.369,0,0,1,.49,0,.332.332,0,0,1,.11.25.34.34,0,0,1-.33.35h-.02Z" style="fill:#fff"/><path d="M5.75,31.72a.35.35,0,0,1-.25-.6.361.361,0,0,1,.49,0,.332.332,0,0,1,.11.25.369.369,0,0,1-.1.25A.391.391,0,0,1,5.75,31.72Z" style="fill:#fff"/><path d="M2.25,35.47a.391.391,0,0,1-.25-.1.359.359,0,0,1,0-.5.369.369,0,0,1,.5,0,.354.354,0,0,1,.1.25.329.329,0,0,1-.1.24A.358.358,0,0,1,2.25,35.47Z" style="fill:#fff"/><path d="M16.75,42.22a.34.34,0,0,1-.35-.33h0v-.02a.332.332,0,0,1,.11-.25.35.35,0,0,1,.59.25.391.391,0,0,1-.1.25A.369.369,0,0,1,16.75,42.22Z" style="fill:#fff"/><path d="M12.5,36.22a.34.34,0,0,1-.35-.33h0v-.02a.332.332,0,0,1,.11-.25.369.369,0,0,1,.49,0,.363.363,0,0,1,.1.25.391.391,0,0,1-.1.25A.369.369,0,0,1,12.5,36.22Z" style="fill:#fff"/><path d="M26.25,30.47a.35.35,0,0,1-.25-.6.369.369,0,0,1,.5,0,.35.35,0,0,1-.25.6Z" style="fill:#fff"/><path d="M39,31a.35.35,0,0,1-.25-.6.369.369,0,0,1,.5,0,.359.359,0,0,1,0,.5A.369.369,0,0,1,39,31Z" style="fill:#fff"/><path d="M38,33a.35.35,0,0,1-.25-.6.369.369,0,0,1,.5,0A.35.35,0,0,1,38,33Z" style="fill:#fff"/><path d="M27.75,42.22a.35.35,0,0,1-.25-.6.369.369,0,0,1,.5,0,.35.35,0,0,1-.25.6Z" style="fill:#fff"/><path d="M6.25,20.72a.35.35,0,0,1-.25-.6.369.369,0,0,1,.5,0,.35.35,0,0,1-.25.6Z" style="fill:#fff"/><path d="M9.5,19a.35.35,0,0,1-.25-.6.36.36,0,0,1,.6.25.34.34,0,0,1-.33.35H9.5Z" style="fill:#fff"/><path d="M11.5,23.72a.34.34,0,0,1-.35-.33h0v-.02a.332.332,0,0,1,.11-.25.369.369,0,0,1,.49,0,.363.363,0,0,1,.1.25.391.391,0,0,1-.1.25A.369.369,0,0,1,11.5,23.72Z" style="fill:#fff"/><path d="M2.75,26a.391.391,0,0,1-.25-.1.359.359,0,0,1,0-.5.38.38,0,0,1,.5,0,.359.359,0,0,1,0,.5A.391.391,0,0,1,2.75,26Z" style="fill:#fff"/><path d="M64,29.72a.348.348,0,0,1-.24-.1.358.358,0,0,1-.11-.25.391.391,0,0,1,.1-.25.36.36,0,0,1,.6.25.34.34,0,0,1-.33.35H64Z" style="fill:#fff"/><path d="M69.25,30a.34.34,0,0,1-.35-.33h0v-.02a.339.339,0,0,1,.11-.25.369.369,0,0,1,.49,0,.363.363,0,0,1,.1.25.391.391,0,0,1-.1.25A.369.369,0,0,1,69.25,30Z" style="fill:#fff"/><path d="M1.25,9.22A.391.391,0,0,1,1,9.12a.359.359,0,0,1,0-.5.38.38,0,0,1,.5,0,.359.359,0,0,1,0,.5A.391.391,0,0,1,1.25,9.22Z" style="fill:#fff"/><path d="M16.25,6.22a.34.34,0,0,1-.35-.33h0V5.87a.369.369,0,0,1,.1-.25.38.38,0,0,1,.5,0,.35.35,0,0,1-.25.6Z" style="fill:#fff"/><path d="M3.5,6.22a.35.35,0,0,1-.25-.6.36.36,0,0,1,.6.25.34.34,0,0,1-.33.35H3.5Z" style="fill:#fff"/><path d="M12.5,14.47a.35.35,0,0,1-.25-.6.36.36,0,0,1,.6.25.34.34,0,0,1-.33.35H12.5Z" style="fill:#fff"/><path d="M18.25,19.47a.34.34,0,0,1-.35-.33h0v-.02a.369.369,0,0,1,.1-.25.36.36,0,0,1,.6.25.34.34,0,0,1-.33.35h-.02Z" style="fill:#fff"/><path d="M21,37.22a.34.34,0,0,1-.35-.33h0v-.02a.345.345,0,0,1,.59-.25.358.358,0,0,1,.11.25.34.34,0,0,1-.33.35H21Z" style="fill:#fff"/><path d="M.5,44.47a.391.391,0,0,1-.25-.1.391.391,0,0,1-.1-.25.332.332,0,0,1,.11-.25.369.369,0,0,1,.49,0,.363.363,0,0,1,.1.25.391.391,0,0,1-.1.25A.391.391,0,0,1,.5,44.47Z" style="fill:#fff"/><path d="M67.75,66.22a.34.34,0,0,1-.35-.33h0v-.02a.332.332,0,0,1,.11-.25.369.369,0,0,1,.49,0,.363.363,0,0,1,.1.25.34.34,0,0,1-.33.35h-.02Z" style="fill:#fff"/><path d="M59.5,70a.391.391,0,0,1-.25-.1.354.354,0,0,1-.1-.25.391.391,0,0,1,.1-.25.369.369,0,0,1,.5,0,.363.363,0,0,1,.1.25.369.369,0,0,1-.1.25A.391.391,0,0,1,59.5,70Z" style="fill:#fff"/><path d="M40.25,68.22a.35.35,0,0,1-.25-.6.369.369,0,0,1,.5,0,.359.359,0,0,1,0,.5A.369.369,0,0,1,40.25,68.22Z" style="fill:#fff"/><path d="M4.25,60.22a.35.35,0,0,1-.25-.6.36.36,0,0,1,.6.25.34.34,0,0,1-.33.35H4.25Z" style="fill:#fff"/><path d="M26.25,59.72a.35.35,0,0,1-.25-.6.36.36,0,0,1,.6.25.34.34,0,0,1-.33.35h-.02Z" style="fill:#fff"/><path d="M37,48.72a.34.34,0,0,1-.35-.33h0v-.02a.35.35,0,0,1,.6-.25.359.359,0,0,1,0,.5A.369.369,0,0,1,37,48.72Z" style="fill:#fff"/><path d="M8.5,40.47a.35.35,0,0,1-.25-.6.36.36,0,0,1,.6.25.34.34,0,0,1-.33.35H8.5Z" style="fill:#fff"/><path d="M52,38.22a.358.358,0,0,1-.25-.11.348.348,0,0,1-.1-.24.332.332,0,0,1,.11-.25.369.369,0,0,1,.49,0,.363.363,0,0,1,.1.25.34.34,0,0,1-.33.35H52Z" style="fill:#fff"/><path d="M60.5,46.22a.34.34,0,0,1-.35-.33h0v-.02a.332.332,0,0,1,.11-.25.369.369,0,0,1,.49,0,.363.363,0,0,1,.1.25.34.34,0,0,1-.33.35H60.5Z" style="fill:#fff"/><path d="M51,66.47a.35.35,0,0,1-.25-.6.369.369,0,0,1,.5,0,.391.391,0,0,1,.1.25.354.354,0,0,1-.1.25A.391.391,0,0,1,51,66.47Z" style="fill:#fff"/><path d="M39.75,38a.35.35,0,0,1-.25-.6.36.36,0,0,1,.6.25.34.34,0,0,1-.33.35h-.02Z" style="fill:#fff"/><path d="M27.25,13.72a.35.35,0,0,1-.25-.6.36.36,0,0,1,.6.25.34.34,0,0,1-.33.35h-.02Z" style="fill:#fff"/><path d="M19.5,26.72a.34.34,0,0,1-.35-.33h0v-.02a.345.345,0,0,1,.59-.25.358.358,0,0,1,.11.25.34.34,0,0,1-.33.35H19.5Z" style="fill:#fff"/><path d="M11.5,2a.354.354,0,0,1-.25-.6.38.38,0,0,1,.5,0,.35.35,0,0,1-.25.6Z" style="fill:#fff"/><path d="M55,4a.34.34,0,0,1-.35-.33h0V3.65a.332.332,0,0,1,.11-.25.369.369,0,0,1,.49,0,.363.363,0,0,1,.1.25.34.34,0,0,1-.33.35H55Z" style="fill:#fff"/><path d="M47,70a.391.391,0,0,1-.25-.1.369.369,0,0,1-.1-.25.391.391,0,0,1,.1-.25.36.36,0,0,1,.6.25.34.34,0,0,1-.33.35H47Z" style="fill:#fff"/><path d="M4.5,40.47a.34.34,0,0,1-.35-.33h0v-.02a.332.332,0,0,1,.11-.25.369.369,0,0,1,.49,0,.363.363,0,0,1,.1.25.34.34,0,0,1-.33.35H4.5Z" style="fill:#fff"/><path d="M68.5,13.47a.35.35,0,0,1-.25-.6.369.369,0,0,1,.5,0,.359.359,0,0,1,0,.5A.391.391,0,0,1,68.5,13.47Z" style="fill:#fff"/><path d="M23,14.22a.35.35,0,0,1-.25-.6.36.36,0,0,1,.6.25.34.34,0,0,1-.33.35H23Z" style="fill:#fff"/><path d="M20.25,17.47a.35.35,0,0,1-.25-.6.369.369,0,0,1,.5,0,.35.35,0,0,1-.25.6Z" style="fill:#fff"/><path d="M14.5,17.47a.34.34,0,0,1-.35-.33h0v-.02a.332.332,0,0,1,.11-.25.369.369,0,0,1,.49,0,.363.363,0,0,1,.1.25.34.34,0,0,1-.33.35H14.5Z" style="fill:#fff"/><path d="M5.75,12a.35.35,0,0,1-.25-.6.361.361,0,0,1,.49,0,.332.332,0,0,1,.11.25.34.34,0,0,1-.33.35H5.75Z" style="fill:#fff"/><path d="M6.75,3a.371.371,0,0,1-.24-.1.358.358,0,0,1-.11-.25.391.391,0,0,1,.1-.25.36.36,0,0,1,.6.25A.342.342,0,0,1,6.766,3Z" style="fill:#fff"/><path d="M9.75,8.47a.35.35,0,0,1-.25-.6.36.36,0,0,1,.6.25.34.34,0,0,1-.33.35H9.75Z" style="fill:#fff"/><path d="M14,8.47a.34.34,0,0,1-.35-.33h0V8.12a.332.332,0,0,1,.11-.25.369.369,0,0,1,.49,0,.363.363,0,0,1,.1.25.34.34,0,0,1-.33.35H14Z" style="fill:#fff"/><path d="M25.5,7.22a.35.35,0,0,1-.25-.6.36.36,0,0,1,.6.25.34.34,0,0,1-.33.35H25.5Z" style="fill:#fff"/><path d="M36.75,7.72a.35.35,0,0,1-.25-.6.369.369,0,0,1,.5,0,.35.35,0,0,1-.25.6Z" style="fill:#fff"/><path d="M37.25,4.47a.34.34,0,0,1-.35-.33h0V4.12a.329.329,0,0,1,.1-.25.35.35,0,0,1,.59.25.34.34,0,0,1-.33.35h-.01Z" style="fill:#fff"/><path d="M43,2.47a.354.354,0,0,1-.25-.6.369.369,0,0,1,.5,0,.361.361,0,0,1,0,.5A.419.419,0,0,1,43,2.47Z" style="fill:#fff"/><path d="M49.25,8.47a.391.391,0,0,1-.25-.1.359.359,0,0,1,0-.5.369.369,0,0,1,.5,0,.35.35,0,0,1-.25.6Z" style="fill:#fff"/><path d="M45.75,9.47a.35.35,0,0,1-.25-.6.369.369,0,0,1,.5,0,.359.359,0,0,1,0,.5A.369.369,0,0,1,45.75,9.47Z" style="fill:#fff"/><path d="M35.5,11.22a.34.34,0,0,1-.35-.33h0v-.02a.369.369,0,0,1,.1-.25.36.36,0,0,1,.6.25.34.34,0,0,1-.33.35H35.5Z" style="fill:#fff"/><path d="M39,15.22a.35.35,0,0,1-.25-.6.36.36,0,0,1,.6.25.34.34,0,0,1-.33.35H39Z" style="fill:#fff"/><path d="M24.5,18.22a.35.35,0,0,1-.25-.6.36.36,0,0,1,.6.25.34.34,0,0,1-.33.35H24.5Z" style="fill:#fff"/><path d="M8,27.47a.35.35,0,0,1-.25-.6.36.36,0,0,1,.6.25.34.34,0,0,1-.33.35H8Z" style="fill:#fff"/><path d="M15.75,32a.35.35,0,0,1-.25-.6.38.38,0,0,1,.5,0,.35.35,0,0,1-.25.6Z" style="fill:#fff"/><path d="M10.25,33.72a.34.34,0,0,1-.35-.33h0v-.02a.332.332,0,0,1,.11-.25.369.369,0,0,1,.49,0,.363.363,0,0,1,.1.25.369.369,0,0,1-.1.25A.391.391,0,0,1,10.25,33.72Z" style="fill:#fff"/><path d="M5,37.22a.35.35,0,0,1-.25-.6.38.38,0,0,1,.5,0,.369.369,0,0,1,.1.25.34.34,0,0,1-.33.35H5Z" style="fill:#fff"/><path d="M3,20.72a.391.391,0,0,1-.25-.1.359.359,0,0,1,0-.5.38.38,0,0,1,.5,0,.359.359,0,0,1,0,.5A.391.391,0,0,1,3,20.72Z" style="fill:#fff"/><path d="M20.25,31a.34.34,0,0,1-.35-.33h0v-.02a.332.332,0,0,1,.11-.25.35.35,0,0,1,.59.25.34.34,0,0,1-.33.35h-.02Z" style="fill:#fff"/><path d="M17.25,35.72a.35.35,0,0,1-.25-.6.369.369,0,0,1,.5,0,.35.35,0,0,1-.25.6Z" style="fill:#fff"/><path d="M15.75,39.22a.34.34,0,0,1-.35-.33h0v-.02a.332.332,0,0,1,.11-.25.369.369,0,0,1,.49,0,.363.363,0,0,1,.1.25.391.391,0,0,1-.1.25A.369.369,0,0,1,15.75,39.22Z" style="fill:#fff"/><path d="M12.5,41.47a.34.34,0,0,1-.35-.33h0v-.02a.332.332,0,0,1,.11-.25.369.369,0,0,1,.49,0,.363.363,0,0,1,.1.25.34.34,0,0,1-.33.35H12.5Z" style="fill:#fff"/><path d="M12.5,46.72a.34.34,0,0,1-.35-.33h0v-.02a.332.332,0,0,1,.11-.25.369.369,0,0,1,.49,0,.363.363,0,0,1,.1.25.34.34,0,0,1-.33.35H12.5Z" style="fill:#fff"/><path d="M5.5,48.72a.35.35,0,0,1-.25-.6.38.38,0,0,1,.5,0,.35.35,0,0,1-.25.6Z" style="fill:#fff"/><path d="M10.75,54.72a.35.35,0,0,1-.25-.6.38.38,0,0,1,.5,0,.35.35,0,0,1-.25.6Z" style="fill:#fff"/><path d="M15.25,58.72a.35.35,0,0,1-.25-.6.369.369,0,0,1,.5,0,.35.35,0,0,1-.25.6Z" style="fill:#fff"/><path d="M5.75,63.72a.35.35,0,0,1-.25-.6.38.38,0,0,1,.5,0,.363.363,0,0,1,.1.25.34.34,0,0,1-.33.35H5.75Z" style="fill:#fff"/><path d="M2,62.22a.391.391,0,0,1-.25-.1.359.359,0,0,1,0-.5.369.369,0,0,1,.49,0,.339.339,0,0,1,.11.25.391.391,0,0,1-.1.25A.391.391,0,0,1,2,62.22Z" style="fill:#fff"/><path d="M8.75,68.22a.35.35,0,0,1-.25-.6.36.36,0,0,1,.6.25.391.391,0,0,1-.1.25A.369.369,0,0,1,8.75,68.22Z" style="fill:#fff"/><path d="M13.25,69.72a.35.35,0,0,1-.25-.6.38.38,0,0,1,.5,0,.35.35,0,0,1-.25.6Z" style="fill:#fff"/><path d="M21.25,68.72a.34.34,0,0,1-.35-.33h0v-.02a.332.332,0,0,1,.11-.25.35.35,0,0,1,.59.25.34.34,0,0,1-.33.35h-.02Z" style="fill:#fff"/><path d="M22.75,66a.35.35,0,0,1-.25-.6.369.369,0,0,1,.5,0,.359.359,0,0,1,0,.5A.369.369,0,0,1,22.75,66Z" style="fill:#fff"/><path d="M22,60.22a.35.35,0,0,1-.25-.6.38.38,0,0,1,.5,0,.359.359,0,0,1,0,.5A.369.369,0,0,1,22,60.22Z" style="fill:#fff"/><path d="M24,57.72a.34.34,0,0,1-.35-.33h0v-.02a.369.369,0,0,1,.1-.25.38.38,0,0,1,.5,0,.369.369,0,0,1,.1.25.391.391,0,0,1-.1.25A.369.369,0,0,1,24,57.72Z" style="fill:#fff"/><path d="M26,48a.35.35,0,0,1-.25-.6.369.369,0,0,1,.5,0A.35.35,0,0,1,26,48Z" style="fill:#fff"/><path d="M25.5,43.72a.35.35,0,0,1-.25-.6.369.369,0,0,1,.5,0,.35.35,0,0,1-.25.6Z" style="fill:#fff"/><path d="M32,31.22a.34.34,0,0,1-.35-.33h0v-.02a.332.332,0,0,1,.11-.25.35.35,0,0,1,.59.25.34.34,0,0,1-.33.35H32Z" style="fill:#fff"/><path d="M34,28a.34.34,0,0,1-.35-.33h0v-.02a.354.354,0,0,1,.1-.25.369.369,0,0,1,.5,0,.359.359,0,0,1,0,.5A.369.369,0,0,1,34,28Z" style="fill:#fff"/><path d="M41.5,26a.35.35,0,0,1-.25-.6.369.369,0,0,1,.5,0,.35.35,0,0,1-.25.6Z" style="fill:#fff"/><path d="M42.75,21a.358.358,0,0,1-.25-.11.329.329,0,0,1-.1-.24.391.391,0,0,1,.1-.25.369.369,0,0,1,.5,0,.391.391,0,0,1,.1.25.339.339,0,0,1-.11.25A.348.348,0,0,1,42.75,21Z" style="fill:#fff"/><path d="M36.25,19.47a.391.391,0,0,1-.25-.1.363.363,0,0,1-.1-.25.31.31,0,0,1,.1-.24.35.35,0,0,1,.495,0h0l.005,0a.35.35,0,0,1-.25.6Z" style="fill:#fff"/><path d="M27.5,22.47a.35.35,0,0,1-.25-.6.369.369,0,0,1,.5,0,.35.35,0,0,1-.25.6Z" style="fill:#fff"/><path d="M51.75,22.22a.332.332,0,0,1-.25-.11.348.348,0,0,1-.1-.24.391.391,0,0,1,.1-.25.36.36,0,0,1,.6.25.391.391,0,0,1-.1.25A.369.369,0,0,1,51.75,22.22Z" style="fill:#fff"/><path d="M43,18a.369.369,0,0,1-.25-.1.359.359,0,0,1,0-.5.38.38,0,0,1,.5,0A.35.35,0,0,1,43,18Z" style="fill:#fff"/><path d="M50.25,18.22a.369.369,0,0,1-.25-.1.347.347,0,0,1,.506-.474.339.339,0,0,1-.236.574h-.02Z" style="fill:#fff"/><path d="M59.25,17.47a.34.34,0,0,1-.35-.33h0v-.02a.332.332,0,0,1,.11-.25.369.369,0,0,1,.49,0,.363.363,0,0,1,.1.25.34.34,0,0,1-.33.35h-.02Z" style="fill:#fff"/><path d="M58,14.22a.369.369,0,0,1-.25-.1.347.347,0,0,1,.506-.474.339.339,0,0,1-.236.574H58Z" style="fill:#fff"/><path d="M61.25,11.22a.34.34,0,0,1-.35-.33h0v-.02a.332.332,0,0,1,.11-.25.361.361,0,0,1,.49,0,.31.31,0,0,1,.1.24.34.34,0,0,1-.33.35h-.02Z" style="fill:#fff"/><path d="M58.5,7.72a.391.391,0,0,1-.25-.1.354.354,0,0,1-.1-.25.31.31,0,0,1,.1-.24.35.35,0,0,1,.6.24.34.34,0,0,1-.33.35H58.5Z" style="fill:#fff"/><path d="M59.75,5a.339.339,0,0,1-.25-.11.348.348,0,0,1-.1-.24.332.332,0,0,1,.11-.25.369.369,0,0,1,.49,0,.363.363,0,0,1,.1.25.34.34,0,0,1-.33.35h-.02Z" style="fill:#fff"/><path d="M67.25,6.22a.391.391,0,0,1-.25-.1.363.363,0,0,1-.1-.25.369.369,0,0,1,.1-.25.38.38,0,0,1,.5,0,.35.35,0,0,1-.25.6Z" style="fill:#fff"/><path d="M70.5,8.72a.391.391,0,0,1-.25-.1.363.363,0,0,1-.1-.25.345.345,0,0,1,.59-.25.358.358,0,0,1,.11.25.34.34,0,0,1-.33.35H70.5Z" style="fill:#fff"/><path d="M65.5,10a.34.34,0,0,1-.35-.33h0V9.65a.369.369,0,0,1,.1-.25.38.38,0,0,1,.5,0,.35.35,0,0,1-.25.6Z" style="fill:#fff"/><path d="M60,24a.35.35,0,0,1-.25-.6.369.369,0,0,1,.5,0A.35.35,0,0,1,60,24Z" style="fill:#fff"/><path d="M55.25,24a.35.35,0,0,1-.25-.6.38.38,0,0,1,.5,0,.35.35,0,0,1-.25.6Z" style="fill:#fff"/><path d="M55.25,19a.339.339,0,0,1-.25-.11.348.348,0,0,1-.1-.24.332.332,0,0,1,.11-.25.369.369,0,0,1,.49,0,.363.363,0,0,1,.1.25.34.34,0,0,1-.33.35h-.02Z" style="fill:#fff"/><path d="M64.75,26a.34.34,0,0,1-.35-.33h0v-.02a.332.332,0,0,1,.11-.25.369.369,0,0,1,.49,0,.363.363,0,0,1,.1.25.34.34,0,0,1-.33.35h-.02Z" style="fill:#fff"/><path d="M57.5,31a.332.332,0,0,1-.25-.11.348.348,0,0,1-.1-.24.332.332,0,0,1,.11-.25.369.369,0,0,1,.49,0,.363.363,0,0,1,.1.25.34.34,0,0,1-.33.35H57.5Z" style="fill:#fff"/><path d="M52.5,33a.358.358,0,0,1-.25-.11.348.348,0,0,1-.1-.24.332.332,0,0,1,.11-.25.369.369,0,0,1,.49,0,.363.363,0,0,1,.1.25.34.34,0,0,1-.33.35H52.5Z" style="fill:#fff"/><path d="M47.25,34a.358.358,0,0,1-.25-.11.348.348,0,0,1-.1-.24.332.332,0,0,1,.11-.25.369.369,0,0,1,.49,0,.363.363,0,0,1,.1.25.34.34,0,0,1-.33.35h-.02Z" style="fill:#fff"/><path d="M44,39.47a.358.358,0,0,1-.25-.11.348.348,0,0,1-.1-.24.391.391,0,0,1,.1-.25.35.35,0,0,1,.6.25.332.332,0,0,1-.11.25A.348.348,0,0,1,44,39.47Z" style="fill:#fff"/><path d="M33.75,41.72a.35.35,0,0,1-.25-.6.369.369,0,0,1,.5,0,.35.35,0,0,1-.25.6Z" style="fill:#fff"/><path d="M40.5,48.22a.35.35,0,0,1-.25-.6.361.361,0,0,1,.49,0,.347.347,0,0,1-.22.6Z" style="fill:#fff"/><path d="M45.5,52.47a.34.34,0,0,1-.35-.33h0v-.02a.332.332,0,0,1,.11-.25.35.35,0,0,1,.59.25.34.34,0,0,1-.33.35H45.5Z" style="fill:#fff"/><path d="M46.25,57a.35.35,0,1,1-.01-.7.354.354,0,0,1,.25.1.358.358,0,0,1,.11.25.34.34,0,0,1-.33.35h-.02Z" style="fill:#fff"/><path d="M41.75,59.72a.348.348,0,0,1-.24-.1.358.358,0,0,1-.11-.25.391.391,0,0,1,.1-.25.369.369,0,0,1,.5,0,.35.35,0,0,1-.25.6Z" style="fill:#fff"/><path d="M39.75,63a.35.35,0,0,1-.25-.6.369.369,0,0,1,.5,0,.359.359,0,0,1,0,.5A.369.369,0,0,1,39.75,63Z" style="fill:#fff"/><path d="M35.75,63a.34.34,0,0,1-.35-.33h0v-.02a.332.332,0,0,1,.11-.25.35.35,0,0,1,.59.25.34.34,0,0,1-.33.35h-.02Z" style="fill:#fff"/><path d="M36.25,53a.391.391,0,0,1-.25-.1.354.354,0,0,1-.1-.25.391.391,0,0,1,.1-.25.359.359,0,0,1,.5,0,.31.31,0,0,1,.1.24.34.34,0,0,1-.33.35h-.02Z" style="fill:#fff"/><path d="M29.75,63.72a.348.348,0,0,1-.24-.1.358.358,0,0,1-.11-.25.332.332,0,0,1,.11-.25.369.369,0,0,1,.49,0,.363.363,0,0,1,.1.25.34.34,0,0,1-.33.35h-.02Z" style="fill:#fff"/><path d="M31.25,68.72a.35.35,0,0,1-.25-.6.369.369,0,0,1,.5,0,.35.35,0,0,1-.25.6Z" style="fill:#fff"/><path d="M36.75,71.22a.391.391,0,0,1-.25-.1.369.369,0,0,1-.1-.25.332.332,0,0,1,.11-.25.369.369,0,0,1,.49,0,.363.363,0,0,1,.1.25.369.369,0,0,1-.1.25A.391.391,0,0,1,36.75,71.22Z" style="fill:#fff"/><path d="M62.75,57.22a.34.34,0,0,1-.35-.33h0v-.02a.332.332,0,0,1,.11-.25.369.369,0,0,1,.49,0,.363.363,0,0,1,.1.25.34.34,0,0,1-.33.35h-.02Z" style="fill:#fff"/><path d="M59.75,51a.332.332,0,0,1-.25-.11.347.347,0,0,1,.49-.49.358.358,0,0,1,.11.25.391.391,0,0,1-.1.25A.369.369,0,0,1,59.75,51Z" style="fill:#fff"/><path d="M54.25,50.72a.391.391,0,0,1-.25-.1.369.369,0,0,1-.1-.25.35.35,0,0,1,.7-.01.354.354,0,0,1-.1.25A.339.339,0,0,1,54.25,50.72Z" style="fill:#fff"/><path d="M54.5,42a.358.358,0,0,1-.25-.11.329.329,0,0,1-.1-.24.391.391,0,0,1,.1-.25.369.369,0,0,1,.5,0,.391.391,0,0,1,.1.25.339.339,0,0,1-.11.25A.348.348,0,0,1,54.5,42Z" style="fill:#fff"/><path d="M62.25,42.47a.35.35,0,0,1-.25-.6.369.369,0,0,1,.5,0,.35.35,0,0,1-.25.6Z" style="fill:#fff"/><path d="M66.75,47.72a.348.348,0,0,1-.24-.1.358.358,0,0,1-.11-.25.391.391,0,0,1,.1-.25.361.361,0,0,1,.49,0,.319.319,0,0,1,.11.25.34.34,0,0,1-.33.35h-.02Z" style="fill:#fff"/><path d="M69.25,54.47a.348.348,0,0,1-.24-.1.358.358,0,0,1-.11-.25.391.391,0,0,1,.1-.25.36.36,0,0,1,.6.25.34.34,0,0,1-.33.35h-.02Z" style="fill:#fff"/><path d="M63.25,62a.348.348,0,0,1-.24-.1.358.358,0,0,1-.11-.25.391.391,0,0,1,.1-.25.361.361,0,0,1,.49,0,.319.319,0,0,1,.11.25.34.34,0,0,1-.33.35h-.02Z" style="fill:#fff"/><path d="M70,61.22a.34.34,0,0,1-.35-.33h0v-.02a.332.332,0,0,1,.11-.25.369.369,0,0,1,.49,0,.363.363,0,0,1,.1.25.34.34,0,0,1-.33.35H70Z" style="fill:#fff"/><path d="M64.5,65.72a.35.35,0,0,1-.25-.6.359.359,0,0,1,.5,0,.348.348,0,0,1,.1.24.34.34,0,0,1-.33.35H64.5Z" style="fill:#fff"/><path d="M65.5,68.47a.35.35,0,0,1-.25-.6.369.369,0,0,1,.5,0,.35.35,0,0,1-.25.6Z" style="fill:#fff"/><path d="M62.25,70.47a.34.34,0,0,1-.35-.33h0v-.02a.339.339,0,0,1,.11-.25.361.361,0,0,1,.49,0,.31.31,0,0,1,.1.24.34.34,0,0,1-.33.35h-.02Z" style="fill:#fff"/><path d="M52.5,70a.35.35,0,0,1-.25-.6.36.36,0,0,1,.6.25.391.391,0,0,1-.1.25A.369.369,0,0,1,52.5,70Z" style="fill:#fff"/><path d="M44.5,66.72a.339.339,0,0,1-.25-.11.348.348,0,0,1-.1-.24.332.332,0,0,1,.11-.25.369.369,0,0,1,.49,0,.363.363,0,0,1,.1.25.34.34,0,0,1-.33.35H44.5Z" style="fill:#fff"/><path d="M28.25,71.47a.391.391,0,0,1-.25-.1.363.363,0,0,1-.1-.25.332.332,0,0,1,.11-.25.35.35,0,0,1,.59.25.332.332,0,0,1-.11.25A.348.348,0,0,1,28.25,71.47Z" style="fill:#fff"/><path d="M2.75,29.72a.391.391,0,0,1-.25-.1.359.359,0,0,1,0-.5.38.38,0,0,1,.5,0,.359.359,0,0,1,0,.5A.391.391,0,0,1,2.75,29.72Z" style="fill:#fff"/><path d="M13,5.22a.358.358,0,0,1-.25-.11.31.31,0,0,1-.1-.24.369.369,0,0,1,.1-.25.36.36,0,0,1,.6.25.332.332,0,0,1-.11.25A.348.348,0,0,1,13,5.22Z" style="fill:#fff"/><path d="M70,34.72a.34.34,0,0,1-.35-.33h0v-.02a.332.332,0,0,1,.11-.25.369.369,0,0,1,.49,0,.363.363,0,0,1,.1.25.34.34,0,0,1-.33.35H70Z" style="fill:#fff"/><path d="M71,41.47a.35.35,0,0,1-.25-.6.369.369,0,0,1,.5,0,.35.35,0,0,1-.25.6Z" style="fill:#fff"/><path d="M.75,52a.391.391,0,0,1-.25-.1.391.391,0,0,1-.1-.25.332.332,0,0,1,.11-.25.369.369,0,0,1,.49,0,.363.363,0,0,1,.1.25.391.391,0,0,1-.1.25A.391.391,0,0,1,.75,52Z" style="fill:#fff"/><path d="M71.75,23.72a.35.35,0,0,1-.25-.6.38.38,0,0,1,.5,0,.35.35,0,0,1-.25.6Z" style="fill:#fff"/><path d="M68.75,26.72a.35.35,0,0,1-.25-.6.369.369,0,0,1,.5,0,.391.391,0,0,1,.1.25.354.354,0,0,1-.1.25A.391.391,0,0,1,68.75,26.72Z" style="fill:#fff"/><path d="M68.25,60.47a.34.34,0,0,1-.35-.33h0v-.02a.369.369,0,0,1,.1-.25.38.38,0,0,1,.5,0,.35.35,0,0,1-.25.6Z" style="fill:#fff"/><path d="M71.25,68.47a.35.35,0,0,1-.25-.6.369.369,0,0,1,.5,0,.391.391,0,0,1,.1.25.354.354,0,0,1-.1.25A.391.391,0,0,1,71.25,68.47Z" style="fill:#fff"/><path d="M.25,58A.391.391,0,0,1,0,57.9a.359.359,0,0,1,0-.5.38.38,0,0,1,.5,0,.359.359,0,0,1,0,.5A.391.391,0,0,1,.25,58Z" style="fill:#fff"/><path d="M2.5,71.47a.391.391,0,0,1-.25-.1.347.347,0,1,1,.6-.25.391.391,0,0,1-.1.25A.391.391,0,0,1,2.5,71.47Z" style="fill:#fff"/><path d="M70,24.22a.34.34,0,0,1-.35-.33h0v-.02a.332.332,0,0,1,.11-.25.369.369,0,0,1,.49,0,.363.363,0,0,1,.1.25.34.34,0,0,1-.33.35H70Z" style="fill:#fff"/><path d="M1,17a.391.391,0,0,1-.25-.1.359.359,0,0,1,0-.5.38.38,0,0,1,.5,0,.359.359,0,0,1,0,.5A.391.391,0,0,1,1,17Z" style="fill:#fff"/><path d="M17.75,13.27a.65.65,0,0,1-.65-.65h0a.661.661,0,0,1,.19-.46.68.68,0,0,1,.92,0,.65.65,0,0,1-.46,1.11Z" style="fill:#fff"/><path d="M29,11.27a.661.661,0,0,1-.46-.19.681.681,0,0,1-.19-.46.661.661,0,0,1,.19-.46.67.67,0,0,1,.92,0,.661.661,0,0,1,.19.46A.65.65,0,0,1,29,11.27Z" style="fill:#fff"/><path d="M29,3.77a.65.65,0,0,1-.65-.65h0a.639.639,0,0,1,.19-.46.68.68,0,0,1,.92,0,.649.649,0,0,1,0,.919h0A.682.682,0,0,1,29,3.77Z" style="fill:#fff"/><path d="M40,10.77a.65.65,0,0,1-.65-.65h0a.661.661,0,0,1,.19-.46.68.68,0,0,1,.92,0,.631.631,0,0,1,.19.46.681.681,0,0,1-.19.46A.661.661,0,0,1,40,10.77Z" style="fill:#fff"/><path d="M44.75,12.27a.61.61,0,0,1-.46-.2.64.64,0,0,1-.19-.45.661.661,0,0,1,.19-.46.68.68,0,0,1,.92,0,.631.631,0,0,1,.19.46.61.61,0,0,1-.2.46A.6.6,0,0,1,44.75,12.27Z" style="fill:#fff"/><path d="M47,23.27a.65.65,0,0,1-.46-1.11.68.68,0,0,1,.92,0A.65.65,0,0,1,47,23.27Z" style="fill:#fff"/><path d="M54.5,7.27a.641.641,0,0,1-.5-.19.649.649,0,0,1,0-.919h0a.68.68,0,0,1,.92,0,.639.639,0,0,1,.19.46.661.661,0,0,1-.19.46A.641.641,0,0,1,54.5,7.27Z" style="fill:#fff"/><path d="M63.75,7a.65.65,0,0,1-.46-1.11.68.68,0,0,1,.92,0A.65.65,0,0,1,63.75,7Z" style="fill:#fff"/><path d="M64.75,3a.661.661,0,0,1-.46-.19.681.681,0,0,1-.19-.46.661.661,0,0,1,.19-.46.65.65,0,0,1,1.11.46.63.63,0,0,1-.18.45A.67.67,0,0,1,64.75,3Z" style="fill:#fff"/><path d="M69.25,18.52a.65.65,0,0,1-.46-1.11.67.67,0,0,1,.92,0,.65.65,0,0,1-.46,1.11Z" style="fill:#fff"/><path d="M7.75,47.52a.639.639,0,0,1-.46-.19.681.681,0,0,1-.19-.46.661.661,0,0,1,.19-.46.68.68,0,0,1,.92,0,.661.661,0,0,1,.19.46.681.681,0,0,1-.19.46A.639.639,0,0,1,7.75,47.52Z" style="fill:#fff"/><path d="M4.75,57.27a.639.639,0,0,1-.46-.19.649.649,0,0,1,0-.919h0a.67.67,0,0,1,.92,0,.649.649,0,0,1,0,.919h0A.639.639,0,0,1,4.75,57.27Z" style="fill:#fff"/><path d="M2,67.52a.661.661,0,0,1-.46-.19.681.681,0,0,1-.19-.46.661.661,0,0,1,.19-.46.68.68,0,0,1,.92,0,.661.661,0,0,1,.19.46.681.681,0,0,1-.19.46A.661.661,0,0,1,2,67.52Z" style="fill:#fff"/><path d="M17.5,70.27a.661.661,0,0,1-.46-.19.681.681,0,0,1-.19-.46.661.661,0,0,1,.19-.46.68.68,0,0,1,.92,0,.661.661,0,0,1,.19.46.681.681,0,0,1-.19.46A.661.661,0,0,1,17.5,70.27Z" style="fill:#fff"/><path d="M19,62.77a.65.65,0,0,1-.65-.65h0a.639.639,0,0,1,.19-.46.67.67,0,0,1,.92,0,.661.661,0,0,1,.19.46.681.681,0,0,1-.19.46A.661.661,0,0,1,19,62.77Z" style="fill:#fff"/><path d="M20.75,45.77a.65.65,0,0,1-.65-.65h0a.639.639,0,0,1,.19-.46.67.67,0,0,1,.92,0,.661.661,0,0,1,.19.46.681.681,0,0,1-.19.46A.639.639,0,0,1,20.75,45.77Z" style="fill:#fff"/><path d="M28.25,51.52a.65.65,0,0,1-.46-1.11.67.67,0,0,1,.92,0,.661.661,0,0,1,.19.46.681.681,0,0,1-.19.46A.639.639,0,0,1,28.25,51.52Z" style="fill:#fff"/><path d="M33.75,60.77a.65.65,0,0,1-.65-.65h0a.639.639,0,0,1,.19-.46.68.68,0,0,1,.92,0,.631.631,0,0,1,.19.46.639.639,0,0,1-.19.46A.661.661,0,0,1,33.75,60.77Z" style="fill:#fff"/><path d="M34,67.27a.639.639,0,0,1-.46-.19.649.649,0,0,1,0-.919h0a.67.67,0,0,1,.92,0,.649.649,0,0,1,0,.919h0A.661.661,0,0,1,34,67.27Z" style="fill:#fff"/><path d="M41.5,55.52a.65.65,0,0,1-.5-1.11.68.68,0,0,1,.92,0,.65.65,0,0,1-.46,1.11Z" style="fill:#fff"/><path d="M52,60.27a.65.65,0,0,1-.46-1.11.68.68,0,0,1,.92,0A.65.65,0,0,1,52,60.27Z" style="fill:#fff"/><path d="M54.75,65.77a.661.661,0,0,1-.46-.19.681.681,0,0,1-.19-.46.639.639,0,0,1,.19-.46.68.68,0,0,1,.92,0,.639.639,0,0,1,.19.46.681.681,0,0,1-.19.46A.661.661,0,0,1,54.75,65.77Z" style="fill:#fff"/><path d="M25,25a.661.661,0,0,1-.46-.19.681.681,0,0,1-.19-.46.661.661,0,0,1,.19-.46.68.68,0,0,1,.92,0,.661.661,0,0,1,.19.46.681.681,0,0,1-.19.46A.661.661,0,0,1,25,25Z" style="fill:#fff"/><path d="M35,23.77a.639.639,0,0,1-.46-.19.649.649,0,0,1,0-.919h0a.68.68,0,0,1,.92,0A.65.65,0,0,1,35,23.77Z" style="fill:#fff"/><path d="M44.75,30a.65.65,0,0,1-.46-1.11.68.68,0,0,1,.92,0,.631.631,0,0,1,.19.46.61.61,0,0,1-.2.46A.621.621,0,0,1,44.75,30Z" style="fill:#fff"/><path d="M51.75,43.52a.65.65,0,0,1-.46-1.11.67.67,0,0,1,.92,0,.639.639,0,0,1,.19.46.65.65,0,0,1-.65.65Z" style="fill:#fff"/><path d="M66.75,52.27a.65.65,0,0,1-.65-.65h0a.61.61,0,0,1,.2-.46.68.68,0,0,1,.91,0,.65.65,0,0,1-.46,1.11Z" style="fill:#fff"/><path d="M47,48.27a.65.65,0,0,1-.46-1.11.68.68,0,0,1,.92,0A.65.65,0,0,1,47,48.27Z" style="fill:#fff"/><path d="M36.75,45a.661.661,0,0,1-.46-.19.681.681,0,0,1-.19-.46.661.661,0,0,1,.19-.46.68.68,0,0,1,.92,0,.661.661,0,0,1,.19.46.681.681,0,0,1-.19.46A.661.661,0,0,1,36.75,45Z" style="fill:#fff"/><path d="M16.75,29a.65.65,0,0,1-.46-1.11.68.68,0,0,1,.92,0,.649.649,0,0,1,0,.919h0A.64.64,0,0,1,16.75,29Z" style="fill:#fff"/><path d="M11,37.27a.65.65,0,0,1-.65-.65h0a.639.639,0,0,1,.19-.46.67.67,0,0,1,.92,0A.65.65,0,0,1,11,37.27Z" style="fill:#fff"/><path d="M67.25,31.27a.661.661,0,0,1-.46-.19.681.681,0,0,1-.19-.46.661.661,0,0,1,.19-.46.68.68,0,0,1,.92,0,.639.639,0,0,1,.19.46.65.65,0,0,1-.65.65Z" style="fill:#fff"/><path d="M7,16.27a.61.61,0,0,1-.46-.2.621.621,0,0,1-.19-.45.661.661,0,0,1,.19-.46.67.67,0,0,1,.92,0,.649.649,0,0,1,0,.919h0A.64.64,0,0,1,7,16.27Z" style="fill:#fff"/><path d="M8.25,5.77a.681.681,0,0,1-.46-.19.661.661,0,0,1-.19-.46.639.639,0,0,1,.19-.46.67.67,0,0,1,.92,0,.639.639,0,0,1,.19.46.65.65,0,0,1-.65.65Z" style="fill:#fff"/><path d="M3.25,3a.661.661,0,0,1-.46-.19.681.681,0,0,1-.19-.46.661.661,0,0,1,.19-.46.68.68,0,0,1,.92,0,.661.661,0,0,1,.19.46.681.681,0,0,1-.19.46A.661.661,0,0,1,3.25,3Z" style="fill:#fff"/><path d="M66.25,37.77a.65.65,0,0,1-.46-1.11.68.68,0,0,1,.92,0,.639.639,0,0,1,.19.46.661.661,0,0,1-.19.46A.639.639,0,0,1,66.25,37.77Z" style="fill:#fff"/><path d="M43.75,63.52a.661.661,0,0,1-.46-.19.681.681,0,0,1-.19-.46.661.661,0,0,1,.19-.46.67.67,0,0,1,.92,0,.661.661,0,0,1,.19.46.681.681,0,0,1-.19.46A.661.661,0,0,1,43.75,63.52Z" style="fill:#fff"/><path d="M25.5,70.52a.661.661,0,0,1-.46-.19.681.681,0,0,1-.19-.46.661.661,0,0,1,.19-.46.67.67,0,0,1,.92,0,.661.661,0,0,1,.19.46.681.681,0,0,1-.19.46A.661.661,0,0,1,25.5,70.52Z" style="fill:#fff"/><path d="M21.75,42.27a.661.661,0,0,1-.46-.19.649.649,0,0,1,0-.919h0a.68.68,0,0,1,.92,0,.65.65,0,0,1-.46,1.11Z" style="fill:#fff"/><path d="M23.75,29.52a.661.661,0,0,1-.46-.19.681.681,0,0,1-.19-.46.661.661,0,0,1,.19-.46.67.67,0,0,1,.92,0,.639.639,0,0,1,.19.46A.65.65,0,0,1,23.75,29.52Z" style="fill:#fff"/><path d="M41.25,35a.65.65,0,0,1-.46-1.11.68.68,0,0,1,.92,0,.661.661,0,0,1,.19.46.681.681,0,0,1-.19.46A.661.661,0,0,1,41.25,35Z" style="fill:#fff"/><path d="M67.25,44.27a.661.661,0,0,1-.46-.19.681.681,0,0,1-.19-.46.661.661,0,0,1,.19-.46.68.68,0,0,1,.92,0,.639.639,0,0,1,.19.46.65.65,0,0,1-.65.65Z" style="fill:#fff"/><path d="M53,15.52a.65.65,0,0,1-.46-1.11.68.68,0,0,1,.92,0,.661.661,0,0,1,.19.46.681.681,0,0,1-.19.46A.661.661,0,0,1,53,15.52Z" style="fill:#fff"/><path d="M33.75,16.52a.661.661,0,0,1-.46-.19.681.681,0,0,1-.19-.46.639.639,0,0,1,.19-.46.68.68,0,0,1,.92,0,.639.639,0,0,1,.19.46.65.65,0,0,1-.65.65Z" style="fill:#fff"/><path d="M12.5,19.77a.65.65,0,0,1-.5-1.11.67.67,0,0,1,.92,0,.65.65,0,0,1-.46,1.11Z" style="fill:#fff"/><path d="M49.25,5a.65.65,0,0,1-.46-1.11.68.68,0,0,1,.92,0A.65.65,0,0,1,49.25,5Z" style="fill:#fff"/><path d="M58.75,21.27a.65.65,0,0,1-.46-1.11.68.68,0,0,1,.92,0,.639.639,0,0,1,.19.46.65.65,0,0,1-.65.65Z" style="fill:#fff"/><path d="M67.25,57.77a.661.661,0,0,1-.46-.19.681.681,0,0,1-.19-.46.661.661,0,0,1,.19-.46.68.68,0,0,1,.92,0,.639.639,0,0,1,.19.46.65.65,0,0,1-.65.65Z" style="fill:#fff"/><path d="M5,70.27a.639.639,0,0,1-.46-.19.649.649,0,0,1,0-.919h0a.67.67,0,0,1,.92,0,.649.649,0,0,1,0,.919h0A.639.639,0,0,1,5,70.27Z" style="fill:#fff"/><path d="M2.5,13.77a.61.61,0,0,1-.46-.2.621.621,0,0,1-.19-.45A.662.662,0,0,1,2,12.66a.67.67,0,0,1,.92,0,.649.649,0,0,1,0,.919h0A.636.636,0,0,1,2.5,13.77Z" style="fill:#fff"/><path d="M16.25,3.77a.65.65,0,0,1-.46-1.11.68.68,0,0,1,.92,0,.65.65,0,0,1-.46,1.11Z" style="fill:#fff"/><path d="M40.25,5a.65.65,0,0,1-.46-1.11.68.68,0,0,1,.92,0,.639.639,0,0,1,.19.46.65.65,0,0,1-.65.65Z" style="fill:#fff"/><path d="M2.5,32.52a.641.641,0,0,1-.5-.19.649.649,0,0,1,0-.919H2a.68.68,0,0,1,.92,0,.65.65,0,0,1-.46,1.11Z" style="fill:#fff"/><path d="M7.25,25.52a.639.639,0,0,1-.46-.19.649.649,0,0,1,0-.919h0a.68.68,0,0,1,.92,0,.639.639,0,0,1,.19.46.661.661,0,0,1-.19.46A.636.636,0,0,1,7.25,25.52Z" style="fill:#fff"/><path d="M3.75,47.27a.661.661,0,0,1-.46-.19.681.681,0,0,1-.19-.46.661.661,0,0,1,.19-.46.67.67,0,0,1,.92,0,.661.661,0,0,1,.19.46.681.681,0,0,1-.19.46A.639.639,0,0,1,3.75,47.27Z" style="fill:#fff"/><path d="M10.75,51a.661.661,0,0,1-.46-.19.681.681,0,0,1-.19-.46.639.639,0,0,1,.19-.46.68.68,0,0,1,.92,0,.661.661,0,0,1,.19.46.681.681,0,0,1-.19.46A.661.661,0,0,1,10.75,51Z" style="fill:#fff"/><path d="M9.75,60.27a.639.639,0,0,1-.46-.19.649.649,0,0,1,0-.919h0a.68.68,0,0,1,.92,0,.649.649,0,0,1,0,.919h0A.639.639,0,0,1,9.75,60.27Z" style="fill:#fff"/><path d="M13.25,66.27a.661.661,0,0,1-.46-.19.681.681,0,0,1-.19-.46.639.639,0,0,1,.19-.46.67.67,0,0,1,.92,0,.661.661,0,0,1,.19.46.681.681,0,0,1-.19.46A.661.661,0,0,1,13.25,66.27Z" style="fill:#fff"/><path d="M21.75,53.77a.661.661,0,0,1-.46-.19.639.639,0,0,1-.19-.46.6.6,0,0,1,.2-.46.65.65,0,0,1,1.1.46.681.681,0,0,1-.19.46A.661.661,0,0,1,21.75,53.77Z" style="fill:#fff"/><path d="M31,38a.661.661,0,0,1-.46-.19.681.681,0,0,1-.19-.46.661.661,0,0,1,.19-.46.68.68,0,0,1,.92,0,.661.661,0,0,1,.19.46.681.681,0,0,1-.19.46A.661.661,0,0,1,31,38Z" style="fill:#fff"/><path d="M25.75,34.52a.65.65,0,0,1-.46-1.11.67.67,0,0,1,.92,0,.65.65,0,0,1-.46,1.11Z" style="fill:#fff"/><path d="M37,29a.661.661,0,0,1-.46-.19.681.681,0,0,1-.19-.46.661.661,0,0,1,.19-.46.68.68,0,0,1,.92,0,.661.661,0,0,1,.19.46.681.681,0,0,1-.19.46A.661.661,0,0,1,37,29Z" style="fill:#fff"/><path d="M61.5,17a.661.661,0,0,1-.46-.19.681.681,0,0,1-.19-.46.661.661,0,0,1,.19-.46.68.68,0,0,1,.92,0,.639.639,0,0,1,.19.46A.65.65,0,0,1,61.5,17Z" style="fill:#fff"/><path d="M61,27.52a.639.639,0,0,1-.46-.19.681.681,0,0,1-.19-.46.661.661,0,0,1,.19-.46.68.68,0,0,1,.92,0,.649.649,0,0,1,0,.919h0A.64.64,0,0,1,61,27.52Z" style="fill:#fff"/><path d="M58.5,57.52a.661.661,0,0,1-.46-.19.681.681,0,0,1-.19-.46.661.661,0,0,1,.19-.46.68.68,0,0,1,.92,0,.661.661,0,0,1,.19.46.681.681,0,0,1-.19.46A.661.661,0,0,1,58.5,57.52Z" style="fill:#fff"/><path d="M59,44.77a.639.639,0,0,1-.46-.19.649.649,0,0,1,0-.919h0a.68.68,0,0,1,.92,0,.649.649,0,0,1,0,.919h0A.639.639,0,0,1,59,44.77Z" style="fill:#fff"/><path d="M55.5,36a.661.661,0,0,1-.46-.19.681.681,0,0,1-.19-.46.661.661,0,0,1,.19-.46.68.68,0,0,1,.92,0,.661.661,0,0,1,.19.46.681.681,0,0,1-.19.46A.661.661,0,0,1,55.5,36Z" style="fill:#fff"/><path d="M69,71a.681.681,0,0,1-.46-.19.649.649,0,0,1,0-.919h0a.691.691,0,0,1,.92,0A.65.65,0,0,1,69,71Z" style="fill:#fff"/><path d="M60.5,66.27a.65.65,0,0,1-.5-1.11.67.67,0,0,1,.92,0,.639.639,0,0,1,.19.46.65.65,0,0,1-.65.65h.04Z" style="fill:#fff"/><path d="M44.25,71.77a.65.65,0,0,1-.46-1.11.68.68,0,0,1,.92,0,.65.65,0,0,1-.46,1.11Z" style="fill:#fff"/><path d="M24.25,1.52A.65.65,0,0,1,23.6.87h0a.639.639,0,0,1,.19-.46.67.67,0,0,1,.92,0,.661.661,0,0,1,.19.46.681.681,0,0,1-.19.46A.639.639,0,0,1,24.25,1.52Z" style="fill:#fff"/><path d="M-.25,23.72a.391.391,0,0,1-.25-.1.391.391,0,0,1-.1-.25.391.391,0,0,1,.1-.25.38.38,0,0,1,.5,0,.391.391,0,0,1,.1.25.391.391,0,0,1-.1.25A.391.391,0,0,1-.25,23.72Z" style="fill:#fff"/></pattern></defs><title>raffreddamento</title><g id="Layer_1-2" data-name="Layer 1-2"><path d="M101.136,195.846v100a6.7,6.7,0,0,0,6.69,6.69h144.12a6.691,6.691,0,0,0,6.68-6.69v-100h-64.37v35.34l-5.33.46v-35.8h-11.36v36.61l-5.33.49v-37.1Zm53.1,41.8a3,3,0,0,1,2.68-3.2l51.67-4.52a3,3,0,0,1,3.2,2.68h0a3,3,0,0,1-2.68,3.2h-.51a3,3,0,0,1,.51,5.88l-51.67,4.52a3,3,0,1,1-.52-5.88h.51a3,3,0,0,1-3.17-2.68Zm57.56,36.44a3,3,0,0,1-2.68,3.2l-11.71,1h0l-11.19,1a2.95,2.95,0,0,1-.51-5.87l11.71-1h0l-40,3.5a3,3,0,0,1-.52-5.88l51.67-4.52a3,3,0,1,1,.52,5.88h-.51a3,3,0,0,1,3.224,2.69Zm0-23.68h0a3,3,0,0,1-2.68,3.19l-.51.05a2.95,2.95,0,0,1,.5,5.87h-.51a3,3,0,0,1,.51,5.88l-51.67,4.52a3,3,0,1,1-.52-5.88h.51a3,3,0,0,1-.51-5.88l.51-.05a3,3,0,0,1-3.18-2.68h0a3,3,0,0,1,2.68-3.19h.51a2.95,2.95,0,0,1-.51-5.87l51.67-4.53a3,3,0,0,1,.52,5.88l-.51.05a3,3,0,0,1,3.19,2.61Z" style="fill:url(#USGS_22_Gravel_Beach_4)"/><path d="M264.906,147.516v148.64a11.74,11.74,0,0,1-11.73,11.74H106.6a11.74,11.74,0,0,1-11.74-11.74h0V147.516" style="fill:none;stroke:#fff;stroke-linecap:round;stroke-linejoin:round;stroke-width:2.3399999141693115px"/><polyline points="85.556 155.856 90.126 139.176 172.226 139.176" style="fill:none;stroke:#fff;stroke-linecap:round;stroke-linejoin:round;stroke-width:2.3399999141693115px"/><polyline points="94.856 161.366 85.556 161.366 85.556 155.856" style="fill:none;stroke:#fff;stroke-linecap:round;stroke-linejoin:round;stroke-width:2.3399999141693115px"/><line x1="142.816" y1="85.556" x2="139.036" y2="81.776" style="fill:none"/><rect x="138.276" y="80.837" width="3.1" height="7.85" transform="translate(-18.982 123.698) rotate(-45)" style="fill:#fff;opacity:0.5;isolation:isolate"/><path d="M156.914,234.45l51.673-4.521a2.951,2.951,0,0,1,3.2,2.677v0h0a2.951,2.951,0,0,1-2.677,3.2h-.005l-51.673,4.521a2.951,2.951,0,0,1-3.2-2.677v0h0a2.951,2.951,0,0,1,2.677-3.2Z" style="fill:#fff;opacity:0.5;isolation:isolate"/><path d="M156.92,240.368l51.673-4.521a2.951,2.951,0,0,1,3.2,2.677v0h0a2.949,2.949,0,0,1-2.681,3.195h0l-51.673,4.521a2.951,2.951,0,0,1-3.2-2.677v0h0a2.95,2.95,0,0,1,2.682-3.2Z" style="fill:#fff;opacity:0.5;isolation:isolate"/><path d="M156.926,246.284l51.673-4.521a2.951,2.951,0,0,1,3.2,2.677v0h0a2.951,2.951,0,0,1-2.677,3.2h-.005l-51.673,4.521a2.951,2.951,0,0,1-3.2-2.677v0h0a2.951,2.951,0,0,1,2.677-3.2Z" style="fill:#fff;opacity:0.5;isolation:isolate"/><path d="M156.923,252.222,208.6,247.7a2.949,2.949,0,0,1,3.195,2.681h0a2.949,2.949,0,0,1-2.681,3.195h0L157.437,258.1a2.951,2.951,0,0,1-3.2-2.677v0h0a2.951,2.951,0,0,1,2.681-3.2Z" style="fill:#fff;opacity:0.5;isolation:isolate"/><path d="M156.919,258.14l51.673-4.521a2.949,2.949,0,0,1,3.195,2.681h0a2.951,2.951,0,0,1-2.677,3.2h0l-51.673,4.521a2.951,2.951,0,0,1-3.2-2.677v-.005h0a2.95,2.95,0,0,1,2.678-3.2Z" style="fill:#fff;opacity:0.5;isolation:isolate"/><path d="M156.915,264.057l51.672-4.52a2.948,2.948,0,0,1,3.2,2.675v.006h0a2.951,2.951,0,0,1-2.677,3.2h0l-51.673,4.521a2.951,2.951,0,0,1-3.2-2.677v0h0a2.951,2.951,0,0,1,2.677-3.2Z" style="fill:#fff;opacity:0.5;isolation:isolate"/><path d="M156.931,269.974l51.672-4.521a2.951,2.951,0,0,1,3.2,2.677v0h0a2.951,2.951,0,0,1-2.677,3.2h0l-51.673,4.521a2.951,2.951,0,0,1-3.2-2.677v0h0a2.951,2.951,0,0,1,2.677-3.2Z" style="fill:#fff;opacity:0.5;isolation:isolate"/><path d="M197.406,272.356l11.19-1a3,3,0,0,1,3.2,2.68h0a3,3,0,0,1-2.68,3.2l-11.71,1h0l-11.19,1a3,3,0,0,1-3.19-2.68h0a3,3,0,0,1,2.68-3.19l11.71-1" style="fill:#fff;opacity:0.5;isolation:isolate"/><path d="M194.256,231.186V70.676a6,6,0,0,1,10.21-4.32l.32.31,18.89,18.89,3.78-3.78-19-19a12.175,12.175,0,0,0-1.27-1.11,11.369,11.369,0,0,0-18.24,9.06h0v161l-11.38.81V70.676h0a11.369,11.369,0,0,0-18.24-9.06,10.986,10.986,0,0,0-1.27,1.11l-19,19.05,3.78,3.78,18.87-18.89.32-.31a6,6,0,0,1,10.23,4.32v162.27" style="fill:none;stroke:#f5355f;stroke-miterlimit:10;opacity:0.5;isolation:isolate"/><line x1="223.696" y1="85.556" x2="227.476" y2="81.776" style="fill:none"/><rect x="222.755" y="83.212" width="7.85" height="3.1" transform="translate(6.457 185.113) rotate(-45)" style="fill:#fff;opacity:0.5;isolation:isolate"/><path d="M28.143,71.007a5.418,5.418,0,0,1-1.736.547,4.476,4.476,0,0,1-1.613-.126,3.1,3.1,0,0,1-1.92-1.2,2.273,2.273,0,0,1-.293-1.887,2.375,2.375,0,0,1,1.491-1.654,3.512,3.512,0,0,1,1.126-.2,10.49,10.49,0,0,1,1.3.111,13.262,13.262,0,0,0,2.618.161c.055-.191.089-.312.1-.363a1.6,1.6,0,0,0-.086-1.307,2.423,2.423,0,0,0-1.471-.885,2.55,2.55,0,0,0-1.546-.03A2.176,2.176,0,0,0,25.1,65.216l-1.32-.538a3.5,3.5,0,0,1,.979-1.261A2.783,2.783,0,0,1,26.21,62.9a5.691,5.691,0,0,1,1.948.191,5.107,5.107,0,0,1,1.653.691,2.333,2.333,0,0,1,.811.877,2.285,2.285,0,0,1,.189,1.064,8.079,8.079,0,0,1-.262,1.308L30.07,68.9a20.375,20.375,0,0,0-.547,2.491,3.242,3.242,0,0,0,.1,1.083L28.16,72.1A3.088,3.088,0,0,1,28.143,71.007Zm.688-3.155a10.591,10.591,0,0,1-2.42-.06,5.538,5.538,0,0,0-1.293-.035,1.256,1.256,0,0,0-.669.313,1.277,1.277,0,0,0-.182,1.656,1.878,1.878,0,0,0,1.143.692,2.984,2.984,0,0,0,1.53.018,2.264,2.264,0,0,0,1.174-.73,3.5,3.5,0,0,0,.585-1.341Z" style="fill:#fff"/><path d="M35.723,72.905l1.122.9a3.7,3.7,0,0,1-2.215,1.356,3.481,3.481,0,0,1-2.455-.51,3.674,3.674,0,0,1-1.822-2.442,4.664,4.664,0,0,1,.79-3.367A5.942,5.942,0,0,1,32.79,67a3.187,3.187,0,0,1,2-.611A4.138,4.138,0,0,1,36.807,67a3.539,3.539,0,0,1,1.585,1.782,3.223,3.223,0,0,1-.063,2.3l-1.318-.542a2.348,2.348,0,0,0,.061-1.479,1.849,1.849,0,0,0-.833-1.011,2.245,2.245,0,0,0-1.929-.25,3.726,3.726,0,0,0-1.871,1.771,3.862,3.862,0,0,0-.732,2.485,2.15,2.15,0,0,0,1.072,1.56,2.024,2.024,0,0,0,1.489.29A2.6,2.6,0,0,0,35.723,72.905Z" style="fill:#fff"/><path d="M36.824,82.342l2.8-3.086a2.566,2.566,0,0,1-1.225-.051,2.767,2.767,0,0,1-1.162-.632,3.406,3.406,0,0,1-1.12-2.649,4.777,4.777,0,0,1,1.419-3.192,5.687,5.687,0,0,1,1.875-1.4,3.324,3.324,0,0,1,1.991-.276,3.441,3.441,0,0,1,1.727.858,2.849,2.849,0,0,1,.946,2.654l.765-.844.962.873-7.909,8.718ZM38.6,73.771a3.761,3.761,0,0,0-1.145,2.287,2.087,2.087,0,0,0,.671,1.717,2.022,2.022,0,0,0,1.7.488A3.6,3.6,0,0,0,41.91,76.95a3.958,3.958,0,0,0,1.2-2.365,2.08,2.08,0,0,0-.643-1.742,1.987,1.987,0,0,0-1.714-.477A3.883,3.883,0,0,0,38.6,73.771Z" style="fill:#fff"/><path d="M45.41,86.49l.9-.863a3.106,3.106,0,0,1-2.9-.949,3.427,3.427,0,0,1-.763-1.212,2.3,2.3,0,0,1-.146-1.2,2.7,2.7,0,0,1,.463-1.059,7.361,7.361,0,0,1,.908-.992l3.8-3.637,1,1.038-3.4,3.257a8.39,8.39,0,0,0-1.035,1.113,1.5,1.5,0,0,0-.245,1.032,1.78,1.78,0,0,0,.518,1.009,2.364,2.364,0,0,0,1.08.646,1.841,1.841,0,0,0,1.208-.044,4.519,4.519,0,0,0,1.359-.977l3.283-3.146,1,1.039L46.3,87.418Z" style="fill:#fff"/><path d="M52.959,92.251a5.372,5.372,0,0,1-1.8-.338,4.466,4.466,0,0,1-1.368-.874,3.11,3.11,0,0,1-1.129-1.973,2.274,2.274,0,0,1,.633-1.807,2.345,2.345,0,0,1,.987-.652A2.372,2.372,0,0,1,51.4,86.5a3.559,3.559,0,0,1,1.09.356,10.536,10.536,0,0,1,1.1.712,13.223,13.223,0,0,0,2.241,1.381l.262-.273a1.607,1.607,0,0,0,.543-1.2A2.43,2.43,0,0,0,55.749,86a2.567,2.567,0,0,0-1.354-.758,2.191,2.191,0,0,0-1.388.447l-.914-1.1a3.519,3.519,0,0,1,1.463-.652,2.79,2.79,0,0,1,1.526.231,5.711,5.711,0,0,1,1.634,1.092,5.1,5.1,0,0,1,1.135,1.393,2.34,2.34,0,0,1,.3,1.159,2.277,2.277,0,0,1-.335,1.031,7.954,7.954,0,0,1-.851,1.034L55.66,91.3A20.346,20.346,0,0,0,54,93.244a3.255,3.255,0,0,0-.426,1l-1.115-1.025A3.139,3.139,0,0,1,52.959,92.251Zm2.1-2.466a10.607,10.607,0,0,1-2.114-1.2,5.486,5.486,0,0,0-1.127-.642,1.247,1.247,0,0,0-.74-.04,1.28,1.28,0,0,0-.945,1.379,1.893,1.893,0,0,0,.685,1.154,2.986,2.986,0,0,0,1.345.738,2.253,2.253,0,0,0,1.384-.09,3.518,3.518,0,0,0,1.152-.91Z" style="fill:#fff"/><path d="M58.457,97.555l3.726-6.379-1.1-.643.566-.969,1.1.643.457-.782A3.976,3.976,0,0,1,63.98,88.4a1.849,1.849,0,0,1,1.092-.416,2.636,2.636,0,0,1,1.445.441,7.052,7.052,0,0,1,1.09.8l-.822.977a4.857,4.857,0,0,0-.693-.5,1.269,1.269,0,0,0-.943-.228,1.523,1.523,0,0,0-.765.77l-.4.678,1.432.837-.566.968L63.422,91.9,59.7,98.278Z" style="fill:#fff"/><path d="M63.39,100.168l3.056-7.942,1.21.466-.462,1.2a3.505,3.505,0,0,1,1.285-.785,1.607,1.607,0,0,1,.967.063,2.816,2.816,0,0,1,1.216.966l-.943,1.07a2.075,2.075,0,0,0-.876-.67,1.376,1.376,0,0,0-.9-.04,1.547,1.547,0,0,0-.784.544,5.6,5.6,0,0,0-.828,1.484l-1.6,4.159Z" style="fill:#fff"/><path d="M75.985,100.528l1.446.407a3.638,3.638,0,0,1-1.595,1.811,4.433,4.433,0,0,1-5.279-1.234,4.5,4.5,0,0,1-.6-3.357,4.7,4.7,0,0,1,1.594-3.134,3.751,3.751,0,0,1,3.018-.744,3.641,3.641,0,0,1,2.586,1.569,4.624,4.624,0,0,1,.581,3.4c-.013.085-.035.211-.066.38l-6.283-.952a3.274,3.274,0,0,0,.464,2.245,2.366,2.366,0,0,0,1.65,1,2.2,2.2,0,0,0,1.4-.21A2.767,2.767,0,0,0,75.985,100.528ZM71.646,97.51l4.7.713a2.89,2.89,0,0,0-.3-1.677A2.214,2.214,0,0,0,74.4,95.453a2.3,2.3,0,0,0-1.754.408A2.635,2.635,0,0,0,71.646,97.51Z" style="fill:#fff"/><path d="M84.8,103.236l-.031-1.073a2.645,2.645,0,0,1-2.342,1.334,3.342,3.342,0,0,1-1.887-.507,3.694,3.694,0,0,1-1.366-1.528,5.405,5.405,0,0,1-.535-2.3A6.065,6.065,0,0,1,79,96.839a3.351,3.351,0,0,1,1.228-1.625,3.4,3.4,0,0,1,1.883-.609,2.846,2.846,0,0,1,1.379.286,2.881,2.881,0,0,1,1,.817L84.361,91.5l1.433-.042.339,11.742Zm-4.68-4.115a3.7,3.7,0,0,0,.76,2.424,2.086,2.086,0,0,0,1.649.763,2.041,2.041,0,0,0,1.584-.821,3.565,3.565,0,0,0,.592-2.378,4,4,0,0,0-.746-2.542,2.066,2.066,0,0,0-1.682-.769,2,2,0,0,0-1.583.831,3.87,3.87,0,0,0-.579,2.492Z" style="fill:#fff"/><path d="M94.985,101.986l-.188-1.057a2.646,2.646,0,0,1-2.121,1.664,3.344,3.344,0,0,1-1.94-.222,3.7,3.7,0,0,1-1.577-1.311,5.41,5.41,0,0,1-.867-2.194,6.035,6.035,0,0,1,.011-2.35,3.342,3.342,0,0,1,.975-1.788,3.4,3.4,0,0,1,1.773-.88,2.833,2.833,0,0,1,2.516.74l-.74-4.15,1.411-.252L96.3,101.75Zm-5.234-3.381a3.691,3.691,0,0,0,1.108,2.286,2.081,2.081,0,0,0,1.743.512,2.039,2.039,0,0,0,1.446-1.045,3.573,3.573,0,0,0,.236-2.439,4,4,0,0,0-1.113-2.406A2.069,2.069,0,0,0,91.394,95a2,2,0,0,0-1.443,1.055A3.864,3.864,0,0,0,89.751,98.605Z" style="fill:#fff"/><path d="M104.963,97.271a5.379,5.379,0,0,1-1.01,1.506,4.482,4.482,0,0,1-1.332.909,3.094,3.094,0,0,1-2.243.259,2.256,2.256,0,0,1-1.4-1.284,2.331,2.331,0,0,1-.209-1.155,2.379,2.379,0,0,1,.338-1.062,3.5,3.5,0,0,1,.75-.855,10.547,10.547,0,0,1,1.078-.722,13.058,13.058,0,0,0,2.137-1.508q-.114-.271-.147-.345a1.589,1.589,0,0,0-.881-.963,2.413,2.413,0,0,0-1.695.229,2.55,2.55,0,0,0-1.221.941,2.178,2.178,0,0,0-.135,1.442l-1.362.4a3.482,3.482,0,0,1-.024-1.589,2.771,2.771,0,0,1,.808-1.3,5.686,5.686,0,0,1,1.634-1.065,5.1,5.1,0,0,1,1.716-.493,2.351,2.351,0,0,1,1.177.177,2.266,2.266,0,0,1,.81.709,8.048,8.048,0,0,1,.611,1.181l.789,1.751a20.221,20.221,0,0,0,1.127,2.276,3.159,3.159,0,0,0,.75.78l-1.371.618A3.028,3.028,0,0,1,104.963,97.271Zm-1.431-2.883a10.539,10.539,0,0,1-1.92,1.462,5.437,5.437,0,0,0-1.026.778,1.249,1.249,0,0,0,.565,2.06,1.864,1.864,0,0,0,1.32-.173,2.981,2.981,0,0,0,1.2-.94,2.241,2.241,0,0,0,.459-1.3,3.513,3.513,0,0,0-.38-1.408Z" style="fill:#fff"/><path d="M5.426,74.456h.29" style="fill:none;stroke:#fff;stroke-linecap:round;stroke-linejoin:round;stroke-width:2.3399999141693115px"/><path d="M11.6,75.146c23,5.32,30.3,39.55,67.48,39.55,23.57,0,33.34-5.31,48.28-18.78" style="fill:none;stroke:#fff;stroke-linecap:round;stroke-linejoin:round;stroke-width:2.3399999141693115px;stroke-dasharray:0.5899999737739563,5.929999828338623"/><path d="M129.546,93.916l.22-.2" style="fill:none;stroke:#fff;stroke-linecap:round;stroke-linejoin:round;stroke-width:2.3399999141693115px"/><polygon points="130.446 106.016 128.116 105.816 129.086 94.306 117.526 94.176 117.556 91.836 131.626 91.996 130.446 106.016" style="fill:#fff"/><path d="M359.356,74.566h-.29" style="fill:none;stroke:#fff;stroke-linecap:round;stroke-linejoin:round;stroke-width:2.3399999141693115px"/><path d="M353.256,75.836c-21,7.07-29.18,38.86-65,38.86-24.55,0-34.13-5.76-50.17-20.49" style="fill:none;stroke:#fff;stroke-linecap:round;stroke-linejoin:round;stroke-width:2.3399999141693115px;stroke-dasharray:0.5899999737739563,5.929999828338623"/><path d="M235.916,92.186l-.22-.2" style="fill:none;stroke:#fff;stroke-linecap:round;stroke-linejoin:round;stroke-width:2.3399999141693115px"/><polygon points="350.206 66.626 348.896 68.576 358.496 74.996 351.386 84.106 353.236 85.556 361.896 74.456 350.206 66.626" style="fill:#fff"/><path d="M265.111,97.364a5.34,5.34,0,0,1-1.81.015,4.437,4.437,0,0,1-1.5-.588,3.087,3.087,0,0,1-1.475-1.7,2.248,2.248,0,0,1,.27-1.881,2.363,2.363,0,0,1,1.9-1.14,3.5,3.5,0,0,1,1.128.138,10.368,10.368,0,0,1,1.2.483,13.076,13.076,0,0,0,2.444.915c.108-.165.176-.27.2-.316a1.583,1.583,0,0,0,.3-1.268,2.4,2.4,0,0,0-1.141-1.27,2.537,2.537,0,0,0-1.463-.478,2.16,2.16,0,0,0-1.266.7l-1.1-.9a3.5,3.5,0,0,1,1.3-.914,2.775,2.775,0,0,1,1.53-.066,5.639,5.639,0,0,1,1.8.749,5.1,5.1,0,0,1,1.373,1.138,2.343,2.343,0,0,1,.515,1.07,2.267,2.267,0,0,1-.129,1.067,8.12,8.12,0,0,1-.631,1.168l-1,1.635a20.475,20.475,0,0,0-1.244,2.21,3.168,3.168,0,0,0-.22,1.058l-1.282-.783A3.032,3.032,0,0,1,265.111,97.364Zm1.573-2.8A10.451,10.451,0,0,1,264.4,93.8a5.412,5.412,0,0,0-1.219-.408,1.249,1.249,0,0,0-.728.1,1.227,1.227,0,0,0-.525.479,1.214,1.214,0,0,0-.129,1.044,1.871,1.871,0,0,0,.885.991,2.975,2.975,0,0,0,1.451.461,2.237,2.237,0,0,0,1.329-.352,3.489,3.489,0,0,0,.947-1.1Z" style="fill:#fff"/><path d="M274.472,98.778l1.289.62a3.683,3.683,0,0,1-1.85,1.807,3.466,3.466,0,0,1-2.492.049,3.657,3.657,0,0,1-2.309-1.965,4.626,4.626,0,0,1,.02-3.441,5.912,5.912,0,0,1,1.19-2.148,3.175,3.175,0,0,1,1.806-1.034,4.137,4.137,0,0,1,2.091.145,3.537,3.537,0,0,1,1.933,1.378,3.214,3.214,0,0,1,.448,2.245l-1.4-.234a2.324,2.324,0,0,0-.268-1.448,1.836,1.836,0,0,0-1.032-.8,2.239,2.239,0,0,0-1.927.186,3.711,3.711,0,0,0-1.421,2.133,3.825,3.825,0,0,0-.159,2.572,2.139,2.139,0,0,0,1.384,1.277,2.026,2.026,0,0,0,1.511-.05A2.579,2.579,0,0,0,274.472,98.778Z" style="fill:#fff"/><path d="M281.6,106.28l.485-4.137a2.6,2.6,0,0,1-1.027.67,2.775,2.775,0,0,1-1.314.161,3.405,3.405,0,0,1-2.45-1.5,4.767,4.767,0,0,1-.7-3.422,5.689,5.689,0,0,1,.709-2.233,3.322,3.322,0,0,1,1.46-1.382,3.453,3.453,0,0,1,1.9-.306,2.847,2.847,0,0,1,2.312,1.609l.133-1.13,1.289.152-1.367,11.689Zm-3.542-8a3.755,3.755,0,0,0,.4,2.528,2.093,2.093,0,0,0,1.542,1,2.022,2.022,0,0,0,1.666-.591,3.6,3.6,0,0,0,.936-2.283,3.968,3.968,0,0,0-.4-2.621,2.082,2.082,0,0,0-1.536-1.043A1.984,1.984,0,0,0,279,95.88a3.893,3.893,0,0,0-.943,2.4Z" style="fill:#fff"/><path d="M292.165,103.349l.006-1.25a3.112,3.112,0,0,1-2.707,1.429,3.462,3.462,0,0,1-1.406-.3,2.318,2.318,0,0,1-.966-.731,2.715,2.715,0,0,1-.439-1.071,7.229,7.229,0,0,1-.081-1.347l.026-5.273,1.443.008-.024,4.72a8.421,8.421,0,0,0,.08,1.522,1.509,1.509,0,0,0,.573.9,1.793,1.793,0,0,0,1.088.33,2.374,2.374,0,0,0,1.219-.327,1.839,1.839,0,0,0,.81-.9,4.544,4.544,0,0,0,.245-1.66l.023-4.56,1.443.007-.043,8.51Z" style="fill:#fff"/><path d="M302.5,100.584a5.356,5.356,0,0,1-1.277,1.294,4.449,4.449,0,0,1-1.482.642,3.1,3.1,0,0,1-2.256-.166,2.254,2.254,0,0,1-1.138-1.528,2.335,2.335,0,0,1,.011-1.177,2.373,2.373,0,0,1,.532-.98,3.517,3.517,0,0,1,.9-.7,10.621,10.621,0,0,1,1.2-.507,13.137,13.137,0,0,0,2.386-1.081c-.04-.192-.067-.316-.079-.368a1.6,1.6,0,0,0-.7-1.113,2.419,2.419,0,0,0-1.712-.093,2.546,2.546,0,0,0-1.378.695,2.186,2.186,0,0,0-.4,1.394l-1.416.14a3.5,3.5,0,0,1,.276-1.569,2.786,2.786,0,0,1,1.041-1.13,5.706,5.706,0,0,1,1.808-.741,5.1,5.1,0,0,1,1.782-.16,2.315,2.315,0,0,1,1.124.394,2.252,2.252,0,0,1,.664.852,7.87,7.87,0,0,1,.379,1.277l.448,1.87a20.435,20.435,0,0,0,.679,2.453,3.212,3.212,0,0,0,.591.909l-1.465.35A3.074,3.074,0,0,1,302.5,100.584Zm-.864-3.1a10.609,10.609,0,0,1-2.165,1.076,5.545,5.545,0,0,0-1.158.572,1.254,1.254,0,0,0,.168,2.135,1.87,1.87,0,0,0,1.333.077,2.975,2.975,0,0,0,1.357-.7,2.247,2.247,0,0,0,.7-1.193A3.478,3.478,0,0,0,301.762,98Z" style="fill:#fff"/><path d="M313.3,92.533l1.285-.63a3.68,3.68,0,0,1,.276,2.571,3.471,3.471,0,0,1-1.5,1.99,3.66,3.66,0,0,1-2.973.6,4.632,4.632,0,0,1-2.692-2.142,5.924,5.924,0,0,1-.952-2.263,3.182,3.182,0,0,1,.3-2.06,4.111,4.111,0,0,1,1.408-1.554,3.539,3.539,0,0,1,2.277-.668,3.214,3.214,0,0,1,2.041,1.036l-1.049.956a2.309,2.309,0,0,0-1.3-.684,1.829,1.829,0,0,0-1.265.318,2.235,2.235,0,0,0-1.044,1.63,3.7,3.7,0,0,0,.8,2.436,3.821,3.821,0,0,0,1.924,1.715,2.138,2.138,0,0,0,1.859-.3,2.025,2.025,0,0,0,.894-1.218A2.583,2.583,0,0,0,313.3,92.533Z" style="fill:#fff"/><path d="M320.692,88.717a5.424,5.424,0,0,1-.488,1.76,4.465,4.465,0,0,1-.987,1.289,3.108,3.108,0,0,1-2.06.959,2.265,2.265,0,0,1-1.748-.784,2.327,2.327,0,0,1-.566-1.038,2.383,2.383,0,0,1-.012-1.12,3.5,3.5,0,0,1,.446-1.056,10.379,10.379,0,0,1,.8-1.032,13.113,13.113,0,0,0,1.566-2.116c-.131-.15-.214-.244-.25-.284a1.6,1.6,0,0,0-1.146-.641,2.427,2.427,0,0,0-1.549.756,2.551,2.551,0,0,0-.869,1.285,2.187,2.187,0,0,0,.327,1.421l-1.175.817a3.525,3.525,0,0,1-.525-1.513,2.8,2.8,0,0,1,.359-1.5,5.762,5.762,0,0,1,1.226-1.535,5.118,5.118,0,0,1,1.484-1.015,2.362,2.362,0,0,1,1.181-.2,2.283,2.283,0,0,1,1,.421,8.294,8.294,0,0,1,.958.935l1.307,1.423a20.761,20.761,0,0,0,1.8,1.821,3.235,3.235,0,0,0,.964.506L321.619,89.3A3.039,3.039,0,0,1,320.692,88.717Zm-2.279-2.3a10.653,10.653,0,0,1-1.373,2,5.588,5.588,0,0,0-.736,1.068,1.265,1.265,0,0,0-.1.735,1.28,1.28,0,0,0,1.3,1.06,1.887,1.887,0,0,0,1.2-.58,2.991,2.991,0,0,0,.849-1.278,2.248,2.248,0,0,0,.028-1.386,3.51,3.51,0,0,0-.809-1.226Z" style="fill:#fff"/><path d="M323.279,87.59l-8.34-8.223,1.01-1.024,8.34,8.222Z" style="fill:#fff"/><path d="M329.832,80.874l-.766-.754a2.646,2.646,0,0,1-.766,2.58,3.334,3.334,0,0,1-1.712.939,3.692,3.692,0,0,1-2.044-.16,5.389,5.389,0,0,1-1.976-1.288,6.036,6.036,0,0,1-1.348-1.925,3.346,3.346,0,0,1-.238-2.024,3.412,3.412,0,0,1,.939-1.741,2.834,2.834,0,0,1,2.482-.85l-3-2.959,1.006-1.022,8.366,8.247Zm-6.227.265a3.7,3.7,0,0,0,2.225,1.225,2.08,2.08,0,0,0,1.719-.59,2.045,2.045,0,0,0,.577-1.687,3.57,3.57,0,0,0-1.217-2.127,4,4,0,0,0-2.3-1.321,2.069,2.069,0,0,0-1.746.608,1.991,1.991,0,0,0-.569,1.695A3.877,3.877,0,0,0,323.605,81.139Z" style="fill:#fff"/><path d="M335.953,74.165a5.359,5.359,0,0,1-.6,1.715,4.489,4.489,0,0,1-1.066,1.215,3.091,3.091,0,0,1-2.11.814,2.265,2.265,0,0,1-1.683-.894A2.319,2.319,0,0,1,330,75.946a2.344,2.344,0,0,1,.062-1.113,3.479,3.479,0,0,1,.514-1.019,10.462,10.462,0,0,1,.864-.97,13.209,13.209,0,0,0,1.695-2c-.12-.157-.2-.258-.229-.3a1.6,1.6,0,0,0-1.1-.714,2.425,2.425,0,0,0-1.588.647,2.56,2.56,0,0,0-.948,1.219,2.183,2.183,0,0,0,.23,1.433l-1.22.732a3.5,3.5,0,0,1-.421-1.536,2.773,2.773,0,0,1,.457-1.466,5.66,5.66,0,0,1,1.317-1.443,5.128,5.128,0,0,1,1.542-.908,2.339,2.339,0,0,1,1.186-.124,2.275,2.275,0,0,1,.965.486,8.027,8.027,0,0,1,.887.992l1.2,1.5a19.929,19.929,0,0,0,1.664,1.926,3.205,3.205,0,0,0,.922.569l-1.174.942A3.065,3.065,0,0,1,335.953,74.165Zm-2.109-2.436a10.589,10.589,0,0,1-1.5,1.9,5.467,5.467,0,0,0-.8,1.012,1.253,1.253,0,0,0,1.064,1.859,1.885,1.885,0,0,0,1.238-.5,2.961,2.961,0,0,0,.928-1.212,2.243,2.243,0,0,0,.119-1.375,3.465,3.465,0,0,0-.72-1.27Z" style="fill:#fff"/><line x1="94.856" y1="147.516" x2="172.236" y2="147.516" style="fill:none;stroke:#fff;stroke-linecap:round;stroke-linejoin:round;stroke-width:2.3399999141693115px"/><polyline points="274.216 155.856 269.646 139.176 194.276 139.176" style="fill:none;stroke:#fff;stroke-linecap:round;stroke-linejoin:round;stroke-width:2.3399999141693115px"/><polyline points="264.906 161.366 274.216 161.366 274.216 155.856" style="fill:none;stroke:#fff;stroke-linecap:round;stroke-linejoin:round;stroke-width:2.3399999141693115px"/><line x1="264.906" y1="147.516" x2="194.276" y2="147.516" style="fill:none;stroke:#fff;stroke-linecap:round;stroke-linejoin:round;stroke-width:2.3399999141693115px"/><line x1="188.946" y1="139.176" x2="177.566" y2="139.176" style="fill:none;stroke:#fff;stroke-linecap:round;stroke-linejoin:round;stroke-width:2.3399999141693115px"/><line x1="177.566" y1="147.516" x2="188.946" y2="147.516" style="fill:none;stroke:#fff;stroke-linecap:round;stroke-linejoin:round;stroke-width:2.3399999141693115px"/><line x1="60.116" y1="307.896" x2="306.396" y2="307.896" style="fill:none;stroke:#fff;stroke-linecap:round;stroke-linejoin:round;stroke-width:2.3399999141693115px"/><path d="M258.626,147.516V295.8a6.691,6.691,0,0,1-6.68,6.69H107.826a6.7,6.7,0,0,1-6.69-6.69V147.516" style="fill:none;stroke:#fff;stroke-linecap:round;stroke-linejoin:round;stroke-width:2.3399999141693115px"/><path d="M158.076,62.726a10.986,10.986,0,0,1,1.27-1.11" style="fill:none;stroke:#fff;stroke-linecap:round;stroke-linejoin:round;stroke-width:2.3399999141693115px"/><path d="M159.346,61.616a11.37,11.37,0,0,1,18.24,9.06" style="fill:none;stroke:#505cf1;stroke-linecap:round;stroke-linejoin:round;stroke-width:2.3399999141693115px"/><path d="M162.026,66.356a6,6,0,0,1,10.23,4.32" style="fill:none;stroke:#505cf1;stroke-linecap:round;stroke-linejoin:round;stroke-width:2.3399999141693115px"/><line x1="158.076" y1="62.726" x2="139.036" y2="81.776" style="fill:none;stroke:#505cf1;stroke-linecap:round;stroke-linejoin:round;stroke-width:2.3399999141693115px"/><line x1="161.706" y1="66.666" x2="142.816" y2="85.556" style="fill:none;stroke:#505cf1;stroke-linecap:round;stroke-linejoin:round;stroke-width:2.3399999141693115px"/><line x1="162.026" y1="66.356" x2="161.706" y2="66.666" style="fill:none;stroke:#505cf1;stroke-linecap:round;stroke-linejoin:round;stroke-width:2.3399999141693115px"/><line x1="142.816" y1="85.556" x2="139.036" y2="81.776" style="fill:none;stroke:#000;stroke-linecap:round;stroke-linejoin:round;stroke-width:1.1699999570846558px"/><rect x="138.276" y="80.837" width="3.1" height="7.85" transform="translate(-18.982 123.698) rotate(-45)" style="fill:none;stroke:#505cf1;stroke-linecap:round;stroke-linejoin:round;stroke-width:2.3399999141693115px"/><path d="M156.914,234.45l51.673-4.521a2.951,2.951,0,0,1,3.2,2.677v0h0a2.951,2.951,0,0,1-2.677,3.2h-.005l-51.673,4.521a2.951,2.951,0,0,1-3.2-2.677v0h0a2.951,2.951,0,0,1,2.677-3.2Z" style="fill:none;stroke:#fff;stroke-linecap:round;stroke-linejoin:round;stroke-width:2.3399999141693115px"/><path d="M156.92,240.368l51.673-4.521a2.951,2.951,0,0,1,3.2,2.677v0h0a2.949,2.949,0,0,1-2.681,3.195h0l-51.673,4.521a2.951,2.951,0,0,1-3.2-2.677v0h0a2.95,2.95,0,0,1,2.682-3.2Z" style="fill:none;stroke:#fff;stroke-linecap:round;stroke-linejoin:round;stroke-width:2.3399999141693115px"/><path d="M156.926,246.284l51.673-4.521a2.951,2.951,0,0,1,3.2,2.677v0h0a2.951,2.951,0,0,1-2.677,3.2h-.005l-51.673,4.521a2.951,2.951,0,0,1-3.2-2.677v0h0a2.951,2.951,0,0,1,2.677-3.2Z" style="fill:none;stroke:#fff;stroke-linecap:round;stroke-linejoin:round;stroke-width:2.3399999141693115px"/><path d="M156.923,252.222,208.6,247.7a2.949,2.949,0,0,1,3.195,2.681h0a2.949,2.949,0,0,1-2.681,3.195h0L157.437,258.1a2.951,2.951,0,0,1-3.2-2.677v0h0a2.951,2.951,0,0,1,2.681-3.2Z" style="fill:none;stroke:#fff;stroke-linecap:round;stroke-linejoin:round;stroke-width:2.3399999141693115px"/><path d="M156.919,258.14l51.673-4.521a2.949,2.949,0,0,1,3.195,2.681h0a2.951,2.951,0,0,1-2.677,3.2h0l-51.673,4.521a2.951,2.951,0,0,1-3.2-2.677v-.005h0a2.95,2.95,0,0,1,2.678-3.2Z" style="fill:none;stroke:#fff;stroke-linecap:round;stroke-linejoin:round;stroke-width:2.3399999141693115px"/><path d="M156.915,264.057l51.672-4.52a2.948,2.948,0,0,1,3.2,2.675v.006h0a2.951,2.951,0,0,1-2.677,3.2h0l-51.673,4.521a2.951,2.951,0,0,1-3.2-2.677v0h0a2.951,2.951,0,0,1,2.677-3.2Z" style="fill:none;stroke:#fff;stroke-linecap:round;stroke-linejoin:round;stroke-width:2.3399999141693115px"/><path d="M156.931,269.974l51.672-4.521a2.951,2.951,0,0,1,3.2,2.677v0h0a2.951,2.951,0,0,1-2.677,3.2h0l-51.673,4.521a2.951,2.951,0,0,1-3.2-2.677v0h0a2.951,2.951,0,0,1,2.677-3.2Z" style="fill:none;stroke:#fff;stroke-linecap:round;stroke-linejoin:round;stroke-width:2.3399999141693115px"/><path d="M197.406,272.356l11.19-1a3,3,0,0,1,3.2,2.68h0a3,3,0,0,1-2.68,3.2l-11.71,1h0l-11.19,1a3,3,0,0,1-3.19-2.68h0a3,3,0,0,1,2.68-3.19l11.71-1" style="fill:none;stroke:#fff;stroke-linecap:round;stroke-linejoin:round;stroke-width:2.3399999141693115px"/><line x1="177.566" y1="232.456" x2="177.566" y2="70.676" style="fill:none;stroke:#505cf1;stroke-linecap:round;stroke-linejoin:round;stroke-width:2.3399999141693115px"/><line x1="172.236" y1="70.676" x2="172.236" y2="232.946" style="fill:none;stroke:#505cf1;stroke-linecap:round;stroke-linejoin:round;stroke-width:2.3399999141693115px"/><line x1="188.946" y1="231.646" x2="188.946" y2="70.676" style="fill:none;stroke:#f5355f;stroke-linecap:round;stroke-linejoin:round;stroke-width:2.3399999141693115px"/><line x1="194.276" y1="70.676" x2="194.276" y2="231.186" style="fill:none;stroke:#f5355f;stroke-linecap:round;stroke-linejoin:round;stroke-width:2.3399999141693115px"/><path d="M208.436,62.726a12.175,12.175,0,0,0-1.27-1.11" style="fill:none;stroke:#fff;stroke-linecap:round;stroke-linejoin:round;stroke-width:2.3399999141693115px"/><path d="M207.166,61.616a11.369,11.369,0,0,0-18.24,9.06" style="fill:none;stroke:#f5355f;stroke-linecap:round;stroke-linejoin:round;stroke-width:2.3399999141693115px"/><path d="M204.486,66.356a6,6,0,0,0-10.23,4.32" style="fill:none;stroke:#f5355f;stroke-linecap:round;stroke-linejoin:round;stroke-width:2.3399999141693115px"/><line x1="208.436" y1="62.726" x2="227.476" y2="81.776" style="fill:none;stroke:#f5355f;stroke-linecap:round;stroke-linejoin:round;stroke-width:2.3399999141693115px"/><line x1="204.806" y1="66.666" x2="223.696" y2="85.556" style="fill:none;stroke:#f5355f;stroke-linecap:round;stroke-linejoin:round;stroke-width:2.3399999141693115px"/><line x1="204.486" y1="66.356" x2="204.806" y2="66.666" style="fill:none;stroke:#f5355f;stroke-linecap:round;stroke-linejoin:round;stroke-width:2.3399999141693115px"/><line x1="223.696" y1="85.556" x2="227.476" y2="81.776" style="fill:none;stroke:#000;stroke-linecap:round;stroke-linejoin:round;stroke-width:1.1699999570846558px"/><rect x="222.755" y="83.212" width="7.85" height="3.1" transform="translate(6.457 185.113) rotate(-45)" style="fill:none;stroke:#f5355f;stroke-linecap:round;stroke-linejoin:round;stroke-width:2.3399999141693115px"/><line x1="101.136" y1="195.846" x2="172.236" y2="195.846" style="fill:none;stroke:#fff;stroke-linecap:round;stroke-linejoin:round;stroke-width:2.3399999141693115px"/><line x1="177.566" y1="195.846" x2="188.946" y2="195.846" style="fill:none;stroke:#fff;stroke-linecap:round;stroke-linejoin:round;stroke-width:2.3399999141693115px"/><line x1="258.626" y1="195.846" x2="194.276" y2="195.846" style="fill:none;stroke:#fff;stroke-linecap:round;stroke-linejoin:round;stroke-width:2.3399999141693115px"/></g></svg>