<svg id="Layer_1" data-name="Layer 1" xmlns="http://www.w3.org/2000/svg" xmlns:xlink="http://www.w3.org/1999/xlink" viewBox="0 0 366.47 366.463"><defs><pattern id="USGS_22_Gravel_Beach_4" data-name="USGS 22 Gravel Beach 4" width="72" height="72" patternTransform="translate(77.97 -220.19) scale(0.88)" patternUnits="userSpaceOnUse" viewBox="0 0 72 72"><rect width="72" height="72" style="fill:none"/><rect width="72" height="72" style="fill:none"/><rect width="72" height="72" style="fill:none"/><path d="M72.25,58a.35.35,0,0,1-.25-.6.38.38,0,0,1,.5,0,.35.35,0,0,1-.25.6Z" style="fill:#fff"/><path d="M20.75,3.22a.391.391,0,0,1-.25-.1.347.347,0,1,1,.506-.474.339.339,0,0,1-.24.574Z" style="fill:#fff"/><path d="M19.75,8.47a.34.34,0,0,1-.35-.33h0V8.12a.332.332,0,0,1,.11-.25.369.369,0,0,1,.49,0,.363.363,0,0,1,.1.25.391.391,0,0,1-.1.25A.369.369,0,0,1,19.75,8.47Z" style="fill:#fff"/><path d="M20,10.72a.35.35,0,0,1-.25-.6.369.369,0,0,1,.5,0,.35.35,0,0,1-.25.6Z" style="fill:#fff"/><path d="M15,10.72a.34.34,0,0,1-.35-.33h0v-.02a.369.369,0,0,1,.1-.25.38.38,0,0,1,.5,0,.35.35,0,0,1-.25.6Z" style="fill:#fff"/><path d="M22.5,20.22a.35.35,0,0,1-.25-.6.36.36,0,0,1,.6.25.34.34,0,0,1-.33.35H22.5Z" style="fill:#fff"/><path d="M15,23.22a.34.34,0,0,1-.35-.33h0v-.02a.332.332,0,0,1,.11-.25.369.369,0,0,1,.49,0,.363.363,0,0,1,.1.25.34.34,0,0,1-.33.35H15Z" style="fill:#fff"/><path d="M13.75,24.22a.35.35,0,0,1-.25-.6.36.36,0,0,1,.6.25.391.391,0,0,1-.1.25A.369.369,0,0,1,13.75,24.22Z" style="fill:#fff"/><path d="M23.75,27.22a.34.34,0,0,1-.35-.33h0v-.02a.332.332,0,0,1,.11-.25.369.369,0,0,1,.49,0,.391.391,0,0,1,.1.25.348.348,0,0,1-.1.24A.358.358,0,0,1,23.75,27.22Z" style="fill:#fff"/><path d="M30.5,26a.35.35,0,0,1-.25-.6.36.36,0,0,1,.6.25.34.34,0,0,1-.33.35H30.5Z" style="fill:#fff"/><path d="M31,23.47a.34.34,0,0,1-.35-.33h0v-.02a.332.332,0,0,1,.11-.25.35.35,0,0,1,.59.25.391.391,0,0,1-.1.25A.369.369,0,0,1,31,23.47Z" style="fill:#fff"/><path d="M29,18.47a.35.35,0,0,1-.25-.6.36.36,0,0,1,.6.25.34.34,0,0,1-.33.35H29Z" style="fill:#fff"/><path d="M33.75,20a.35.35,0,0,1-.25-.6.36.36,0,0,1,.6.25.34.34,0,0,1-.33.35h-.02Z" style="fill:#fff"/><path d="M31.25,15a.35.35,0,0,1-.25-.6.36.36,0,0,1,.6.25.34.34,0,0,1-.33.35h-.02Z" style="fill:#fff"/><path d="M31.5,12a.35.35,0,0,1-.25-.6.369.369,0,0,1,.5,0,.35.35,0,0,1-.25.6Z" style="fill:#fff"/><path d="M32,7.22a.35.35,0,0,1-.25-.6.36.36,0,0,1,.6.25.34.34,0,0,1-.33.35H32Z" style="fill:#fff"/><path d="M31.75,3.22a.342.342,0,0,1-.35-.334V2.87a.332.332,0,0,1,.11-.25.35.35,0,0,1,.59.25.342.342,0,0,1-.334.35Z" style="fill:#fff"/><path d="M33.75,1.47a.358.358,0,0,1-.25-.11.338.338,0,0,1,0-.479L33.51.87a.345.345,0,0,1,.59.25.339.339,0,0,1-.11.25A.348.348,0,0,1,33.75,1.47Z" style="fill:#fff"/><path d="M41.25,7.22a.391.391,0,0,1-.25-.1.354.354,0,0,1-.1-.25.391.391,0,0,1,.1-.25.351.351,0,0,1,.49,0,.358.358,0,0,1,.11.25.34.34,0,0,1-.33.35h-.02Z" style="fill:#fff"/><path d="M45.25,7A.391.391,0,0,1,45,6.9a.347.347,0,0,1,.506-.474A.339.339,0,0,1,45.27,7h-.02Z" style="fill:#fff"/><path d="M42.25,13.72a.34.34,0,0,1-.35-.33h0v-.02a.332.332,0,0,1,.11-.25.35.35,0,0,1,.59.25.34.34,0,0,1-.33.35h-.02Z" style="fill:#fff"/><path d="M46.75,14.47a.34.34,0,0,1-.35-.33h0v-.02a.332.332,0,0,1,.11-.25.361.361,0,0,1,.49,0,.391.391,0,0,1,.1.25.329.329,0,0,1-.1.24A.358.358,0,0,1,46.75,14.47Z" style="fill:#fff"/><path d="M46.75,16.47a.34.34,0,0,1-.35-.33h0v-.02a.332.332,0,0,1,.11-.25.361.361,0,0,1,.49,0,.391.391,0,0,1,.1.25.371.371,0,0,1-.1.24A.358.358,0,0,1,46.75,16.47Z" style="fill:#fff"/><path d="M38.75,21a.35.35,0,0,1-.25-.6.361.361,0,0,1,.49,0,.347.347,0,0,1-.22.6Z" style="fill:#fff"/><path d="M50,13.72a.391.391,0,0,1-.25-.1.359.359,0,0,1,0-.5.369.369,0,0,1,.5,0,.35.35,0,0,1-.25.6Z" style="fill:#fff"/><path d="M52,12.22a.358.358,0,0,1-.25-.11.348.348,0,0,1-.1-.24.332.332,0,0,1,.11-.25.369.369,0,0,1,.49,0,.363.363,0,0,1,.1.25.34.34,0,0,1-.33.35H52Z" style="fill:#fff"/><path d="M54.5,11.22a.358.358,0,0,1-.25-.11.348.348,0,0,1-.1-.24.332.332,0,0,1,.11-.25.35.35,0,0,1,.59.25.34.34,0,0,1-.33.35H54.5Z" style="fill:#fff"/><path d="M56.25,1A.376.376,0,0,1,56,.37a.359.359,0,0,1,.5,0,.348.348,0,0,1,.1.24A.417.417,0,0,1,56.25,1Z" style="fill:#fff"/><path d="M67.75,3.22a.342.342,0,0,1-.35-.334V2.87a.332.332,0,0,1,.11-.25.369.369,0,0,1,.49,0,.363.363,0,0,1,.1.25.391.391,0,0,1-.1.25A.369.369,0,0,1,67.75,3.22Z" style="fill:#fff"/><path d="M67.75,10.47a.358.358,0,0,1-.25-.11.348.348,0,0,1-.1-.24.391.391,0,0,1,.1-.25.369.369,0,0,1,.5,0,.391.391,0,0,1,.1.25.339.339,0,0,1-.11.25A.348.348,0,0,1,67.75,10.47Z" style="fill:#fff"/><path d="M64,12.47a.35.35,0,0,1-.25-.6.36.36,0,0,1,.6.25.34.34,0,0,1-.33.35H64Z" style="fill:#fff"/><path d="M65,16a.34.34,0,0,1-.35-.33h0v-.02a.369.369,0,0,1,.1-.25.38.38,0,0,1,.5,0A.35.35,0,0,1,65,16Z" style="fill:#fff"/><path d="M63.75,20a.358.358,0,0,1-.25-.11.348.348,0,0,1-.1-.24.391.391,0,0,1,.1-.25.369.369,0,0,1,.5,0,.391.391,0,0,1,.1.25.339.339,0,0,1-.11.25A.348.348,0,0,1,63.75,20Z" style="fill:#fff"/><path d="M66,20a.34.34,0,0,1-.35-.33h0v-.02a.332.332,0,0,1,.11-.25.369.369,0,0,1,.49,0,.363.363,0,0,1,.1.25.34.34,0,0,1-.33.35H66Z" style="fill:#fff"/><path d="M67.75,21.47a.35.35,0,0,1-.25-.6.369.369,0,0,1,.5,0,.35.35,0,0,1-.25.6Z" style="fill:#fff"/><path d="M6.75,52.47a.35.35,0,0,1-.25-.6.38.38,0,0,1,.5,0,.35.35,0,0,1-.25.6Z" style="fill:#fff"/><path d="M7,54.72a.35.35,0,0,1-.25-.6.369.369,0,0,1,.5,0,.35.35,0,0,1-.25.6Z" style="fill:#fff"/><path d="M2,54.72a.391.391,0,0,1-.25-.1.359.359,0,0,1,0-.5.38.38,0,0,1,.5,0,.359.359,0,0,1,0,.5A.391.391,0,0,1,2,54.72Z" style="fill:#fff"/><path d="M9.5,64.22a.35.35,0,0,1-.25-.6.36.36,0,0,1,.6.25.34.34,0,0,1-.33.35H9.5Z" style="fill:#fff"/><path d="M.75,68.22a.391.391,0,0,1-.25-.1.359.359,0,0,1,0-.5.38.38,0,0,1,.5,0,.359.359,0,0,1,0,.5A.391.391,0,0,1,.75,68.22Z" style="fill:#fff"/><path d="M10.75,71.22a.35.35,0,0,1-.25-.6.38.38,0,0,1,.5,0,.35.35,0,0,1-.25.6Z" style="fill:#fff"/><path d="M18,67.47a.34.34,0,0,1-.35-.33h0v-.02a.345.345,0,0,1,.59-.25.358.358,0,0,1,.11.25.34.34,0,0,1-.33.35H18Z" style="fill:#fff"/><path d="M16,62.47a.35.35,0,0,1-.25-.6.369.369,0,0,1,.5,0,.35.35,0,0,1-.25.6Z" style="fill:#fff"/><path d="M19.25,58a.34.34,0,0,1-.35-.33h0v-.02a.332.332,0,0,1,.11-.25.369.369,0,0,1,.49,0,.363.363,0,0,1,.1.25.34.34,0,0,1-.33.35h-.02Z" style="fill:#fff"/><path d="M18.5,56a.34.34,0,0,1-.35-.33h0v-.02a.332.332,0,0,1,.11-.25.369.369,0,0,1,.49,0,.363.363,0,0,1,.1.25.34.34,0,0,1-.33.35H18.5Z" style="fill:#fff"/><path d="M16,55a.34.34,0,0,1-.35-.33h0v-.02a.332.332,0,0,1,.11-.25.369.369,0,0,1,.49,0,.363.363,0,0,1,.1.25.34.34,0,0,1-.33.35H16Z" style="fill:#fff"/><path d="M19,51.22a.34.34,0,0,1-.35-.33h0v-.02a.332.332,0,0,1,.11-.25.369.369,0,0,1,.49,0,.363.363,0,0,1,.1.25.34.34,0,0,1-.33.35H19Z" style="fill:#fff"/><path d="M18.75,47.22a.35.35,0,0,1-.25-.6.38.38,0,0,1,.5,0,.35.35,0,0,1-.25.6Z" style="fill:#fff"/><path d="M16,47.47a.35.35,0,0,1-.25-.6.369.369,0,0,1,.5,0,.35.35,0,0,1-.25.6Z" style="fill:#fff"/><path d="M32.25,51a.34.34,0,0,1-.35-.33h0v-.02a.332.332,0,0,1,.11-.25.35.35,0,0,1,.59.25.34.34,0,0,1-.33.35h-.02Z" style="fill:#fff"/><path d="M27,54.47a.35.35,0,0,1-.25-.6.369.369,0,0,1,.5,0,.35.35,0,0,1-.25.6Z" style="fill:#fff"/><path d="M31.75,56a.35.35,0,0,1-.25-.6.369.369,0,0,1,.5,0,.35.35,0,0,1-.25.6Z" style="fill:#fff"/><path d="M31.75,57.72a.35.35,0,0,1-.245-.6l.005,0a.369.369,0,0,1,.5,0,.363.363,0,0,1,.1.25.34.34,0,0,1-.33.35h-.03Z" style="fill:#fff"/><path d="M33.75,58.47a.35.35,0,0,1-.25-.6.369.369,0,0,1,.5,0,.35.35,0,0,1-.25.6Z" style="fill:#fff"/><path d="M25.75,65a.35.35,0,0,1-.25-.6.36.36,0,0,1,.6.25.34.34,0,0,1-.33.35h-.02Z" style="fill:#fff"/><path d="M35.75,56.47a.35.35,0,0,1-.25-.6.36.36,0,0,1,.6.25.34.34,0,0,1-.33.35h-.02Z" style="fill:#fff"/><path d="M39,56.22a.348.348,0,0,1-.24-.1.358.358,0,0,1-.11-.25.391.391,0,0,1,.1-.25.369.369,0,0,1,.5,0,.35.35,0,0,1-.25.6Z" style="fill:#fff"/><path d="M41.5,51a.35.35,0,0,1-.25-.6.369.369,0,0,1,.5,0,.35.35,0,0,1-.25.6Z" style="fill:#fff"/><path d="M43.25,45a.358.358,0,0,1-.25-.11.348.348,0,0,1-.1-.24.391.391,0,0,1,.1-.25.369.369,0,0,1,.5,0,.35.35,0,0,1-.25.6Z" style="fill:#fff"/><path d="M50.75,50.72a.391.391,0,0,1-.25-.1.363.363,0,0,1-.1-.25.391.391,0,0,1,.1-.25.359.359,0,0,1,.5,0,.35.35,0,0,1-.25.6Z" style="fill:#fff"/><path d="M51.75,46.72a.358.358,0,0,1-.25-.11.348.348,0,0,1-.1-.24.332.332,0,0,1,.11-.25.369.369,0,0,1,.49,0,.363.363,0,0,1,.1.25.34.34,0,0,1-.33.35h-.02Z" style="fill:#fff"/><path d="M54.75,47.22a.332.332,0,0,1-.25-.11.348.348,0,0,1-.1-.24.369.369,0,0,1,.1-.25.361.361,0,0,1,.49,0,.347.347,0,0,1-.22.6Z" style="fill:#fff"/><path d="M54.75,54.47a.332.332,0,0,1-.25-.11.348.348,0,0,1-.1-.24.332.332,0,0,1,.11-.25.369.369,0,0,1,.49,0,.363.363,0,0,1,.1.25.34.34,0,0,1-.33.35h-.02Z" style="fill:#fff"/><path d="M51,56.47a.35.35,0,0,1-.25-.6.369.369,0,0,1,.5,0,.354.354,0,0,1,.1.25.391.391,0,0,1-.1.25A.369.369,0,0,1,51,56.47Z" style="fill:#fff"/><path d="M50.75,64a.34.34,0,0,1-.35-.33h0v-.02a.31.31,0,0,1,.1-.24.341.341,0,0,1,.481-.009l.009.009a.358.358,0,0,1,.11.25.391.391,0,0,1-.1.25A.368.368,0,0,1,50.75,64Z" style="fill:#fff"/><path d="M53,64a.34.34,0,0,1-.35-.33h0v-.02a.332.332,0,0,1,.11-.25.361.361,0,0,1,.49,0,.31.31,0,0,1,.1.24.341.341,0,0,1-.319.36Z" style="fill:#fff"/><path d="M55.75,63.22a.35.35,0,0,1-.25-.6.36.36,0,0,1,.6.25.34.34,0,0,1-.33.35h-.02Z" style="fill:#fff"/><path d="M58,61.72a.358.358,0,0,1-.25-.11.348.348,0,0,1-.1-.24.391.391,0,0,1,.1-.25.35.35,0,0,1,.6.25.34.34,0,0,1-.33.35H58Z" style="fill:#fff"/><path d="M20.75,27.22a.35.35,0,0,1-.25-.6.36.36,0,0,1,.6.25.34.34,0,0,1-.33.35h-.02Z" style="fill:#fff"/><path d="M22.5,24.22a.35.35,0,0,1-.25-.6.369.369,0,0,1,.5,0,.35.35,0,0,1-.25.6Z" style="fill:#fff"/><path d="M38.75,25a.35.35,0,0,1-.25-.6.369.369,0,0,1,.5,0,.35.35,0,0,1-.25.6Z" style="fill:#fff"/><path d="M46,29.22a.391.391,0,0,1-.25-.1.351.351,0,0,1,0-.49.341.341,0,0,1,.481-.009l.009.009a.358.358,0,0,1,.11.25.34.34,0,0,1-.33.35H46Z" style="fill:#fff"/><path d="M55,28.22a.35.35,0,0,1-.25-.6.369.369,0,0,1,.5,0,.35.35,0,0,1-.25.6Z" style="fill:#fff"/><path d="M51,25.47a.35.35,0,0,1-.25-.6.369.369,0,0,1,.5,0,.354.354,0,0,1,.1.25.34.34,0,0,1-.33.35H51Z" style="fill:#fff"/><path d="M51.75,29.72a.369.369,0,0,1-.25-.1.347.347,0,0,1,.506-.474.339.339,0,0,1-.236.574h-.02Z" style="fill:#fff"/><path d="M62.25,35.72a.34.34,0,0,1-.35-.33h0v-.02a.332.332,0,0,1,.11-.25.361.361,0,0,1,.49,0,.31.31,0,0,1,.1.24.34.34,0,0,1-.33.35h-.02Z" style="fill:#fff"/><path d="M56.5,39.22a.35.35,0,0,1-.25-.6.36.36,0,0,1,.6.25.34.34,0,0,1-.33.35H56.5Z" style="fill:#fff"/><path d="M48,37.47a.348.348,0,0,1-.24-.1.358.358,0,0,1-.11-.25.391.391,0,0,1,.1-.25.359.359,0,0,1,.5,0,.329.329,0,0,1,.1.24.34.34,0,0,1-.33.35H48Z" style="fill:#fff"/><path d="M47.75,41.47a.332.332,0,0,1-.25-.11.348.348,0,0,1-.1-.24.391.391,0,0,1,.1-.25.38.38,0,0,1,.5,0,.35.35,0,0,1-.25.6Z" style="fill:#fff"/><path d="M53.25,45.22a.339.339,0,0,1-.25-.11.31.31,0,0,1-.1-.24.339.339,0,0,1,.11-.25.369.369,0,0,1,.49,0,.35.35,0,0,1-.25.6Z" style="fill:#fff"/><path d="M62,48.22a.34.34,0,0,1-.35-.33h0v-.02a.332.332,0,0,1,.11-.25.361.361,0,0,1,.49,0,.31.31,0,0,1,.1.24.34.34,0,0,1-.33.35H62Z" style="fill:#fff"/><path d="M64.75,52a.34.34,0,0,1-.35-.33h0v-.02a.332.332,0,0,1,.11-.25.369.369,0,0,1,.49,0,.363.363,0,0,1,.1.25.34.34,0,0,1-.33.35h-.02Z" style="fill:#fff"/><path d="M69.25,45.22a.35.35,0,0,1-.25-.6.369.369,0,0,1,.5,0,.35.35,0,0,1-.25.6Z" style="fill:#fff"/><path d="M59.75,39.22a.332.332,0,0,1-.25-.11.348.348,0,0,1-.1-.24.339.339,0,0,1,.11-.25.35.35,0,1,1,.49.5A.369.369,0,0,1,59.75,39.22Z" style="fill:#fff"/><path d="M32.25,47.22a.35.35,0,0,1-.25-.6.36.36,0,0,1,.6.25.34.34,0,0,1-.33.35h-.02Z" style="fill:#fff"/><path d="M26,38a.35.35,0,0,1-.25-.6.36.36,0,0,1,.6.25.34.34,0,0,1-.33.35H26Z" style="fill:#fff"/><path d="M29.5,35.72a.348.348,0,0,1-.24-.1.358.358,0,0,1-.11-.25.332.332,0,0,1,.11-.25.369.369,0,0,1,.49,0,.363.363,0,0,1,.1.25.34.34,0,0,1-.33.35H29.5Z" style="fill:#fff"/><path d="M10.25,29.72a.35.35,0,0,1-.25-.6.369.369,0,0,1,.49,0,.332.332,0,0,1,.11.25.34.34,0,0,1-.33.35h-.02Z" style="fill:#fff"/><path d="M5.75,31.72a.35.35,0,0,1-.25-.6.361.361,0,0,1,.49,0,.332.332,0,0,1,.11.25.369.369,0,0,1-.1.25A.391.391,0,0,1,5.75,31.72Z" style="fill:#fff"/><path d="M2.25,35.47a.391.391,0,0,1-.25-.1.359.359,0,0,1,0-.5.369.369,0,0,1,.5,0,.354.354,0,0,1,.1.25.329.329,0,0,1-.1.24A.358.358,0,0,1,2.25,35.47Z" style="fill:#fff"/><path d="M16.75,42.22a.34.34,0,0,1-.35-.33h0v-.02a.332.332,0,0,1,.11-.25.35.35,0,0,1,.59.25.391.391,0,0,1-.1.25A.369.369,0,0,1,16.75,42.22Z" style="fill:#fff"/><path d="M12.5,36.22a.34.34,0,0,1-.35-.33h0v-.02a.332.332,0,0,1,.11-.25.369.369,0,0,1,.49,0,.363.363,0,0,1,.1.25.391.391,0,0,1-.1.25A.369.369,0,0,1,12.5,36.22Z" style="fill:#fff"/><path d="M26.25,30.47a.35.35,0,0,1-.25-.6.369.369,0,0,1,.5,0,.35.35,0,0,1-.25.6Z" style="fill:#fff"/><path d="M39,31a.35.35,0,0,1-.25-.6.369.369,0,0,1,.5,0,.359.359,0,0,1,0,.5A.369.369,0,0,1,39,31Z" style="fill:#fff"/><path d="M38,33a.35.35,0,0,1-.25-.6.369.369,0,0,1,.5,0A.35.35,0,0,1,38,33Z" style="fill:#fff"/><path d="M27.75,42.22a.35.35,0,0,1-.25-.6.369.369,0,0,1,.5,0,.35.35,0,0,1-.25.6Z" style="fill:#fff"/><path d="M6.25,20.72a.35.35,0,0,1-.25-.6.369.369,0,0,1,.5,0,.35.35,0,0,1-.25.6Z" style="fill:#fff"/><path d="M9.5,19a.35.35,0,0,1-.25-.6.36.36,0,0,1,.6.25.34.34,0,0,1-.33.35H9.5Z" style="fill:#fff"/><path d="M11.5,23.72a.34.34,0,0,1-.35-.33h0v-.02a.332.332,0,0,1,.11-.25.369.369,0,0,1,.49,0,.363.363,0,0,1,.1.25.391.391,0,0,1-.1.25A.369.369,0,0,1,11.5,23.72Z" style="fill:#fff"/><path d="M2.75,26a.391.391,0,0,1-.25-.1.359.359,0,0,1,0-.5.38.38,0,0,1,.5,0,.359.359,0,0,1,0,.5A.391.391,0,0,1,2.75,26Z" style="fill:#fff"/><path d="M64,29.72a.348.348,0,0,1-.24-.1.358.358,0,0,1-.11-.25.391.391,0,0,1,.1-.25.36.36,0,0,1,.6.25.34.34,0,0,1-.33.35H64Z" style="fill:#fff"/><path d="M69.25,30a.34.34,0,0,1-.35-.33h0v-.02a.339.339,0,0,1,.11-.25.369.369,0,0,1,.49,0,.363.363,0,0,1,.1.25.391.391,0,0,1-.1.25A.369.369,0,0,1,69.25,30Z" style="fill:#fff"/><path d="M1.25,9.22A.391.391,0,0,1,1,9.12a.359.359,0,0,1,0-.5.38.38,0,0,1,.5,0,.359.359,0,0,1,0,.5A.391.391,0,0,1,1.25,9.22Z" style="fill:#fff"/><path d="M16.25,6.22a.34.34,0,0,1-.35-.33h0V5.87a.369.369,0,0,1,.1-.25.38.38,0,0,1,.5,0,.35.35,0,0,1-.25.6Z" style="fill:#fff"/><path d="M3.5,6.22a.35.35,0,0,1-.25-.6.36.36,0,0,1,.6.25.34.34,0,0,1-.33.35H3.5Z" style="fill:#fff"/><path d="M12.5,14.47a.35.35,0,0,1-.25-.6.36.36,0,0,1,.6.25.34.34,0,0,1-.33.35H12.5Z" style="fill:#fff"/><path d="M18.25,19.47a.34.34,0,0,1-.35-.33h0v-.02a.369.369,0,0,1,.1-.25.36.36,0,0,1,.6.25.34.34,0,0,1-.33.35h-.02Z" style="fill:#fff"/><path d="M21,37.22a.34.34,0,0,1-.35-.33h0v-.02a.345.345,0,0,1,.59-.25.358.358,0,0,1,.11.25.34.34,0,0,1-.33.35H21Z" style="fill:#fff"/><path d="M.5,44.47a.391.391,0,0,1-.25-.1.391.391,0,0,1-.1-.25.332.332,0,0,1,.11-.25.369.369,0,0,1,.49,0,.363.363,0,0,1,.1.25.391.391,0,0,1-.1.25A.391.391,0,0,1,.5,44.47Z" style="fill:#fff"/><path d="M67.75,66.22a.34.34,0,0,1-.35-.33h0v-.02a.332.332,0,0,1,.11-.25.369.369,0,0,1,.49,0,.363.363,0,0,1,.1.25.34.34,0,0,1-.33.35h-.02Z" style="fill:#fff"/><path d="M59.5,70a.391.391,0,0,1-.25-.1.354.354,0,0,1-.1-.25.391.391,0,0,1,.1-.25.369.369,0,0,1,.5,0,.363.363,0,0,1,.1.25.369.369,0,0,1-.1.25A.391.391,0,0,1,59.5,70Z" style="fill:#fff"/><path d="M40.25,68.22a.35.35,0,0,1-.25-.6.369.369,0,0,1,.5,0,.359.359,0,0,1,0,.5A.369.369,0,0,1,40.25,68.22Z" style="fill:#fff"/><path d="M4.25,60.22a.35.35,0,0,1-.25-.6.36.36,0,0,1,.6.25.34.34,0,0,1-.33.35H4.25Z" style="fill:#fff"/><path d="M26.25,59.72a.35.35,0,0,1-.25-.6.36.36,0,0,1,.6.25.34.34,0,0,1-.33.35h-.02Z" style="fill:#fff"/><path d="M37,48.72a.34.34,0,0,1-.35-.33h0v-.02a.35.35,0,0,1,.6-.25.359.359,0,0,1,0,.5A.369.369,0,0,1,37,48.72Z" style="fill:#fff"/><path d="M8.5,40.47a.35.35,0,0,1-.25-.6.36.36,0,0,1,.6.25.34.34,0,0,1-.33.35H8.5Z" style="fill:#fff"/><path d="M52,38.22a.358.358,0,0,1-.25-.11.348.348,0,0,1-.1-.24.332.332,0,0,1,.11-.25.369.369,0,0,1,.49,0,.363.363,0,0,1,.1.25.34.34,0,0,1-.33.35H52Z" style="fill:#fff"/><path d="M60.5,46.22a.34.34,0,0,1-.35-.33h0v-.02a.332.332,0,0,1,.11-.25.369.369,0,0,1,.49,0,.363.363,0,0,1,.1.25.34.34,0,0,1-.33.35H60.5Z" style="fill:#fff"/><path d="M51,66.47a.35.35,0,0,1-.25-.6.369.369,0,0,1,.5,0,.391.391,0,0,1,.1.25.354.354,0,0,1-.1.25A.391.391,0,0,1,51,66.47Z" style="fill:#fff"/><path d="M39.75,38a.35.35,0,0,1-.25-.6.36.36,0,0,1,.6.25.34.34,0,0,1-.33.35h-.02Z" style="fill:#fff"/><path d="M27.25,13.72a.35.35,0,0,1-.25-.6.36.36,0,0,1,.6.25.34.34,0,0,1-.33.35h-.02Z" style="fill:#fff"/><path d="M19.5,26.72a.34.34,0,0,1-.35-.33h0v-.02a.345.345,0,0,1,.59-.25.358.358,0,0,1,.11.25.34.34,0,0,1-.33.35H19.5Z" style="fill:#fff"/><path d="M11.5,2a.354.354,0,0,1-.25-.6.38.38,0,0,1,.5,0,.35.35,0,0,1-.25.6Z" style="fill:#fff"/><path d="M55,4a.34.34,0,0,1-.35-.33h0V3.65a.332.332,0,0,1,.11-.25.369.369,0,0,1,.49,0,.363.363,0,0,1,.1.25.34.34,0,0,1-.33.35H55Z" style="fill:#fff"/><path d="M47,70a.391.391,0,0,1-.25-.1.369.369,0,0,1-.1-.25.391.391,0,0,1,.1-.25.36.36,0,0,1,.6.25.34.34,0,0,1-.33.35H47Z" style="fill:#fff"/><path d="M4.5,40.47a.34.34,0,0,1-.35-.33h0v-.02a.332.332,0,0,1,.11-.25.369.369,0,0,1,.49,0,.363.363,0,0,1,.1.25.34.34,0,0,1-.33.35H4.5Z" style="fill:#fff"/><path d="M68.5,13.47a.35.35,0,0,1-.25-.6.369.369,0,0,1,.5,0,.359.359,0,0,1,0,.5A.391.391,0,0,1,68.5,13.47Z" style="fill:#fff"/><path d="M23,14.22a.35.35,0,0,1-.25-.6.36.36,0,0,1,.6.25.34.34,0,0,1-.33.35H23Z" style="fill:#fff"/><path d="M20.25,17.47a.35.35,0,0,1-.25-.6.369.369,0,0,1,.5,0,.35.35,0,0,1-.25.6Z" style="fill:#fff"/><path d="M14.5,17.47a.34.34,0,0,1-.35-.33h0v-.02a.332.332,0,0,1,.11-.25.369.369,0,0,1,.49,0,.363.363,0,0,1,.1.25.34.34,0,0,1-.33.35H14.5Z" style="fill:#fff"/><path d="M5.75,12a.35.35,0,0,1-.25-.6.361.361,0,0,1,.49,0,.332.332,0,0,1,.11.25.34.34,0,0,1-.33.35H5.75Z" style="fill:#fff"/><path d="M6.75,3a.371.371,0,0,1-.24-.1.358.358,0,0,1-.11-.25.391.391,0,0,1,.1-.25.36.36,0,0,1,.6.25A.342.342,0,0,1,6.766,3Z" style="fill:#fff"/><path d="M9.75,8.47a.35.35,0,0,1-.25-.6.36.36,0,0,1,.6.25.34.34,0,0,1-.33.35H9.75Z" style="fill:#fff"/><path d="M14,8.47a.34.34,0,0,1-.35-.33h0V8.12a.332.332,0,0,1,.11-.25.369.369,0,0,1,.49,0,.363.363,0,0,1,.1.25.34.34,0,0,1-.33.35H14Z" style="fill:#fff"/><path d="M25.5,7.22a.35.35,0,0,1-.25-.6.36.36,0,0,1,.6.25.34.34,0,0,1-.33.35H25.5Z" style="fill:#fff"/><path d="M36.75,7.72a.35.35,0,0,1-.25-.6.369.369,0,0,1,.5,0,.35.35,0,0,1-.25.6Z" style="fill:#fff"/><path d="M37.25,4.47a.34.34,0,0,1-.35-.33h0V4.12a.329.329,0,0,1,.1-.25.35.35,0,0,1,.59.25.34.34,0,0,1-.33.35h-.01Z" style="fill:#fff"/><path d="M43,2.47a.354.354,0,0,1-.25-.6.369.369,0,0,1,.5,0,.361.361,0,0,1,0,.5A.419.419,0,0,1,43,2.47Z" style="fill:#fff"/><path d="M49.25,8.47a.391.391,0,0,1-.25-.1.359.359,0,0,1,0-.5.369.369,0,0,1,.5,0,.35.35,0,0,1-.25.6Z" style="fill:#fff"/><path d="M45.75,9.47a.35.35,0,0,1-.25-.6.369.369,0,0,1,.5,0,.359.359,0,0,1,0,.5A.369.369,0,0,1,45.75,9.47Z" style="fill:#fff"/><path d="M35.5,11.22a.34.34,0,0,1-.35-.33h0v-.02a.369.369,0,0,1,.1-.25.36.36,0,0,1,.6.25.34.34,0,0,1-.33.35H35.5Z" style="fill:#fff"/><path d="M39,15.22a.35.35,0,0,1-.25-.6.36.36,0,0,1,.6.25.34.34,0,0,1-.33.35H39Z" style="fill:#fff"/><path d="M24.5,18.22a.35.35,0,0,1-.25-.6.36.36,0,0,1,.6.25.34.34,0,0,1-.33.35H24.5Z" style="fill:#fff"/><path d="M8,27.47a.35.35,0,0,1-.25-.6.36.36,0,0,1,.6.25.34.34,0,0,1-.33.35H8Z" style="fill:#fff"/><path d="M15.75,32a.35.35,0,0,1-.25-.6.38.38,0,0,1,.5,0,.35.35,0,0,1-.25.6Z" style="fill:#fff"/><path d="M10.25,33.72a.34.34,0,0,1-.35-.33h0v-.02a.332.332,0,0,1,.11-.25.369.369,0,0,1,.49,0,.363.363,0,0,1,.1.25.369.369,0,0,1-.1.25A.391.391,0,0,1,10.25,33.72Z" style="fill:#fff"/><path d="M5,37.22a.35.35,0,0,1-.25-.6.38.38,0,0,1,.5,0,.369.369,0,0,1,.1.25.34.34,0,0,1-.33.35H5Z" style="fill:#fff"/><path d="M3,20.72a.391.391,0,0,1-.25-.1.359.359,0,0,1,0-.5.38.38,0,0,1,.5,0,.359.359,0,0,1,0,.5A.391.391,0,0,1,3,20.72Z" style="fill:#fff"/><path d="M20.25,31a.34.34,0,0,1-.35-.33h0v-.02a.332.332,0,0,1,.11-.25.35.35,0,0,1,.59.25.34.34,0,0,1-.33.35h-.02Z" style="fill:#fff"/><path d="M17.25,35.72a.35.35,0,0,1-.25-.6.369.369,0,0,1,.5,0,.35.35,0,0,1-.25.6Z" style="fill:#fff"/><path d="M15.75,39.22a.34.34,0,0,1-.35-.33h0v-.02a.332.332,0,0,1,.11-.25.369.369,0,0,1,.49,0,.363.363,0,0,1,.1.25.391.391,0,0,1-.1.25A.369.369,0,0,1,15.75,39.22Z" style="fill:#fff"/><path d="M12.5,41.47a.34.34,0,0,1-.35-.33h0v-.02a.332.332,0,0,1,.11-.25.369.369,0,0,1,.49,0,.363.363,0,0,1,.1.25.34.34,0,0,1-.33.35H12.5Z" style="fill:#fff"/><path d="M12.5,46.72a.34.34,0,0,1-.35-.33h0v-.02a.332.332,0,0,1,.11-.25.369.369,0,0,1,.49,0,.363.363,0,0,1,.1.25.34.34,0,0,1-.33.35H12.5Z" style="fill:#fff"/><path d="M5.5,48.72a.35.35,0,0,1-.25-.6.38.38,0,0,1,.5,0,.35.35,0,0,1-.25.6Z" style="fill:#fff"/><path d="M10.75,54.72a.35.35,0,0,1-.25-.6.38.38,0,0,1,.5,0,.35.35,0,0,1-.25.6Z" style="fill:#fff"/><path d="M15.25,58.72a.35.35,0,0,1-.25-.6.369.369,0,0,1,.5,0,.35.35,0,0,1-.25.6Z" style="fill:#fff"/><path d="M5.75,63.72a.35.35,0,0,1-.25-.6.38.38,0,0,1,.5,0,.363.363,0,0,1,.1.25.34.34,0,0,1-.33.35H5.75Z" style="fill:#fff"/><path d="M2,62.22a.391.391,0,0,1-.25-.1.359.359,0,0,1,0-.5.369.369,0,0,1,.49,0,.339.339,0,0,1,.11.25.391.391,0,0,1-.1.25A.391.391,0,0,1,2,62.22Z" style="fill:#fff"/><path d="M8.75,68.22a.35.35,0,0,1-.25-.6.36.36,0,0,1,.6.25.391.391,0,0,1-.1.25A.369.369,0,0,1,8.75,68.22Z" style="fill:#fff"/><path d="M13.25,69.72a.35.35,0,0,1-.25-.6.38.38,0,0,1,.5,0,.35.35,0,0,1-.25.6Z" style="fill:#fff"/><path d="M21.25,68.72a.34.34,0,0,1-.35-.33h0v-.02a.332.332,0,0,1,.11-.25.35.35,0,0,1,.59.25.34.34,0,0,1-.33.35h-.02Z" style="fill:#fff"/><path d="M22.75,66a.35.35,0,0,1-.25-.6.369.369,0,0,1,.5,0,.359.359,0,0,1,0,.5A.369.369,0,0,1,22.75,66Z" style="fill:#fff"/><path d="M22,60.22a.35.35,0,0,1-.25-.6.38.38,0,0,1,.5,0,.359.359,0,0,1,0,.5A.369.369,0,0,1,22,60.22Z" style="fill:#fff"/><path d="M24,57.72a.34.34,0,0,1-.35-.33h0v-.02a.369.369,0,0,1,.1-.25.38.38,0,0,1,.5,0,.369.369,0,0,1,.1.25.391.391,0,0,1-.1.25A.369.369,0,0,1,24,57.72Z" style="fill:#fff"/><path d="M26,48a.35.35,0,0,1-.25-.6.369.369,0,0,1,.5,0A.35.35,0,0,1,26,48Z" style="fill:#fff"/><path d="M25.5,43.72a.35.35,0,0,1-.25-.6.369.369,0,0,1,.5,0,.35.35,0,0,1-.25.6Z" style="fill:#fff"/><path d="M32,31.22a.34.34,0,0,1-.35-.33h0v-.02a.332.332,0,0,1,.11-.25.35.35,0,0,1,.59.25.34.34,0,0,1-.33.35H32Z" style="fill:#fff"/><path d="M34,28a.34.34,0,0,1-.35-.33h0v-.02a.354.354,0,0,1,.1-.25.369.369,0,0,1,.5,0,.359.359,0,0,1,0,.5A.369.369,0,0,1,34,28Z" style="fill:#fff"/><path d="M41.5,26a.35.35,0,0,1-.25-.6.369.369,0,0,1,.5,0,.35.35,0,0,1-.25.6Z" style="fill:#fff"/><path d="M42.75,21a.358.358,0,0,1-.25-.11.329.329,0,0,1-.1-.24.391.391,0,0,1,.1-.25.369.369,0,0,1,.5,0,.391.391,0,0,1,.1.25.339.339,0,0,1-.11.25A.348.348,0,0,1,42.75,21Z" style="fill:#fff"/><path d="M36.25,19.47a.391.391,0,0,1-.25-.1.363.363,0,0,1-.1-.25.31.31,0,0,1,.1-.24.35.35,0,0,1,.495,0h0l.005,0a.35.35,0,0,1-.25.6Z" style="fill:#fff"/><path d="M27.5,22.47a.35.35,0,0,1-.25-.6.369.369,0,0,1,.5,0,.35.35,0,0,1-.25.6Z" style="fill:#fff"/><path d="M51.75,22.22a.332.332,0,0,1-.25-.11.348.348,0,0,1-.1-.24.391.391,0,0,1,.1-.25.36.36,0,0,1,.6.25.391.391,0,0,1-.1.25A.369.369,0,0,1,51.75,22.22Z" style="fill:#fff"/><path d="M43,18a.369.369,0,0,1-.25-.1.359.359,0,0,1,0-.5.38.38,0,0,1,.5,0A.35.35,0,0,1,43,18Z" style="fill:#fff"/><path d="M50.25,18.22a.369.369,0,0,1-.25-.1.347.347,0,0,1,.506-.474.339.339,0,0,1-.236.574h-.02Z" style="fill:#fff"/><path d="M59.25,17.47a.34.34,0,0,1-.35-.33h0v-.02a.332.332,0,0,1,.11-.25.369.369,0,0,1,.49,0,.363.363,0,0,1,.1.25.34.34,0,0,1-.33.35h-.02Z" style="fill:#fff"/><path d="M58,14.22a.369.369,0,0,1-.25-.1.347.347,0,0,1,.506-.474.339.339,0,0,1-.236.574H58Z" style="fill:#fff"/><path d="M61.25,11.22a.34.34,0,0,1-.35-.33h0v-.02a.332.332,0,0,1,.11-.25.361.361,0,0,1,.49,0,.31.31,0,0,1,.1.24.34.34,0,0,1-.33.35h-.02Z" style="fill:#fff"/><path d="M58.5,7.72a.391.391,0,0,1-.25-.1.354.354,0,0,1-.1-.25.31.31,0,0,1,.1-.24.35.35,0,0,1,.6.24.34.34,0,0,1-.33.35H58.5Z" style="fill:#fff"/><path d="M59.75,5a.339.339,0,0,1-.25-.11.348.348,0,0,1-.1-.24.332.332,0,0,1,.11-.25.369.369,0,0,1,.49,0,.363.363,0,0,1,.1.25.34.34,0,0,1-.33.35h-.02Z" style="fill:#fff"/><path d="M67.25,6.22a.391.391,0,0,1-.25-.1.363.363,0,0,1-.1-.25.369.369,0,0,1,.1-.25.38.38,0,0,1,.5,0,.35.35,0,0,1-.25.6Z" style="fill:#fff"/><path d="M70.5,8.72a.391.391,0,0,1-.25-.1.363.363,0,0,1-.1-.25.345.345,0,0,1,.59-.25.358.358,0,0,1,.11.25.34.34,0,0,1-.33.35H70.5Z" style="fill:#fff"/><path d="M65.5,10a.34.34,0,0,1-.35-.33h0V9.65a.369.369,0,0,1,.1-.25.38.38,0,0,1,.5,0,.35.35,0,0,1-.25.6Z" style="fill:#fff"/><path d="M60,24a.35.35,0,0,1-.25-.6.369.369,0,0,1,.5,0A.35.35,0,0,1,60,24Z" style="fill:#fff"/><path d="M55.25,24a.35.35,0,0,1-.25-.6.38.38,0,0,1,.5,0,.35.35,0,0,1-.25.6Z" style="fill:#fff"/><path d="M55.25,19a.339.339,0,0,1-.25-.11.348.348,0,0,1-.1-.24.332.332,0,0,1,.11-.25.369.369,0,0,1,.49,0,.363.363,0,0,1,.1.25.34.34,0,0,1-.33.35h-.02Z" style="fill:#fff"/><path d="M64.75,26a.34.34,0,0,1-.35-.33h0v-.02a.332.332,0,0,1,.11-.25.369.369,0,0,1,.49,0,.363.363,0,0,1,.1.25.34.34,0,0,1-.33.35h-.02Z" style="fill:#fff"/><path d="M57.5,31a.332.332,0,0,1-.25-.11.348.348,0,0,1-.1-.24.332.332,0,0,1,.11-.25.369.369,0,0,1,.49,0,.363.363,0,0,1,.1.25.34.34,0,0,1-.33.35H57.5Z" style="fill:#fff"/><path d="M52.5,33a.358.358,0,0,1-.25-.11.348.348,0,0,1-.1-.24.332.332,0,0,1,.11-.25.369.369,0,0,1,.49,0,.363.363,0,0,1,.1.25.34.34,0,0,1-.33.35H52.5Z" style="fill:#fff"/><path d="M47.25,34a.358.358,0,0,1-.25-.11.348.348,0,0,1-.1-.24.332.332,0,0,1,.11-.25.369.369,0,0,1,.49,0,.363.363,0,0,1,.1.25.34.34,0,0,1-.33.35h-.02Z" style="fill:#fff"/><path d="M44,39.47a.358.358,0,0,1-.25-.11.348.348,0,0,1-.1-.24.391.391,0,0,1,.1-.25.35.35,0,0,1,.6.25.332.332,0,0,1-.11.25A.348.348,0,0,1,44,39.47Z" style="fill:#fff"/><path d="M33.75,41.72a.35.35,0,0,1-.25-.6.369.369,0,0,1,.5,0,.35.35,0,0,1-.25.6Z" style="fill:#fff"/><path d="M40.5,48.22a.35.35,0,0,1-.25-.6.361.361,0,0,1,.49,0,.347.347,0,0,1-.22.6Z" style="fill:#fff"/><path d="M45.5,52.47a.34.34,0,0,1-.35-.33h0v-.02a.332.332,0,0,1,.11-.25.35.35,0,0,1,.59.25.34.34,0,0,1-.33.35H45.5Z" style="fill:#fff"/><path d="M46.25,57a.35.35,0,1,1-.01-.7.354.354,0,0,1,.25.1.358.358,0,0,1,.11.25.34.34,0,0,1-.33.35h-.02Z" style="fill:#fff"/><path d="M41.75,59.72a.348.348,0,0,1-.24-.1.358.358,0,0,1-.11-.25.391.391,0,0,1,.1-.25.369.369,0,0,1,.5,0,.35.35,0,0,1-.25.6Z" style="fill:#fff"/><path d="M39.75,63a.35.35,0,0,1-.25-.6.369.369,0,0,1,.5,0,.359.359,0,0,1,0,.5A.369.369,0,0,1,39.75,63Z" style="fill:#fff"/><path d="M35.75,63a.34.34,0,0,1-.35-.33h0v-.02a.332.332,0,0,1,.11-.25.35.35,0,0,1,.59.25.34.34,0,0,1-.33.35h-.02Z" style="fill:#fff"/><path d="M36.25,53a.391.391,0,0,1-.25-.1.354.354,0,0,1-.1-.25.391.391,0,0,1,.1-.25.359.359,0,0,1,.5,0,.31.31,0,0,1,.1.24.34.34,0,0,1-.33.35h-.02Z" style="fill:#fff"/><path d="M29.75,63.72a.348.348,0,0,1-.24-.1.358.358,0,0,1-.11-.25.332.332,0,0,1,.11-.25.369.369,0,0,1,.49,0,.363.363,0,0,1,.1.25.34.34,0,0,1-.33.35h-.02Z" style="fill:#fff"/><path d="M31.25,68.72a.35.35,0,0,1-.25-.6.369.369,0,0,1,.5,0,.35.35,0,0,1-.25.6Z" style="fill:#fff"/><path d="M36.75,71.22a.391.391,0,0,1-.25-.1.369.369,0,0,1-.1-.25.332.332,0,0,1,.11-.25.369.369,0,0,1,.49,0,.363.363,0,0,1,.1.25.369.369,0,0,1-.1.25A.391.391,0,0,1,36.75,71.22Z" style="fill:#fff"/><path d="M62.75,57.22a.34.34,0,0,1-.35-.33h0v-.02a.332.332,0,0,1,.11-.25.369.369,0,0,1,.49,0,.363.363,0,0,1,.1.25.34.34,0,0,1-.33.35h-.02Z" style="fill:#fff"/><path d="M59.75,51a.332.332,0,0,1-.25-.11.347.347,0,0,1,.49-.49.358.358,0,0,1,.11.25.391.391,0,0,1-.1.25A.369.369,0,0,1,59.75,51Z" style="fill:#fff"/><path d="M54.25,50.72a.391.391,0,0,1-.25-.1.369.369,0,0,1-.1-.25.35.35,0,0,1,.7-.01.354.354,0,0,1-.1.25A.339.339,0,0,1,54.25,50.72Z" style="fill:#fff"/><path d="M54.5,42a.358.358,0,0,1-.25-.11.329.329,0,0,1-.1-.24.391.391,0,0,1,.1-.25.369.369,0,0,1,.5,0,.391.391,0,0,1,.1.25.339.339,0,0,1-.11.25A.348.348,0,0,1,54.5,42Z" style="fill:#fff"/><path d="M62.25,42.47a.35.35,0,0,1-.25-.6.369.369,0,0,1,.5,0,.35.35,0,0,1-.25.6Z" style="fill:#fff"/><path d="M66.75,47.72a.348.348,0,0,1-.24-.1.358.358,0,0,1-.11-.25.391.391,0,0,1,.1-.25.361.361,0,0,1,.49,0,.319.319,0,0,1,.11.25.34.34,0,0,1-.33.35h-.02Z" style="fill:#fff"/><path d="M69.25,54.47a.348.348,0,0,1-.24-.1.358.358,0,0,1-.11-.25.391.391,0,0,1,.1-.25.36.36,0,0,1,.6.25.34.34,0,0,1-.33.35h-.02Z" style="fill:#fff"/><path d="M63.25,62a.348.348,0,0,1-.24-.1.358.358,0,0,1-.11-.25.391.391,0,0,1,.1-.25.361.361,0,0,1,.49,0,.319.319,0,0,1,.11.25.34.34,0,0,1-.33.35h-.02Z" style="fill:#fff"/><path d="M70,61.22a.34.34,0,0,1-.35-.33h0v-.02a.332.332,0,0,1,.11-.25.369.369,0,0,1,.49,0,.363.363,0,0,1,.1.25.34.34,0,0,1-.33.35H70Z" style="fill:#fff"/><path d="M64.5,65.72a.35.35,0,0,1-.25-.6.359.359,0,0,1,.5,0,.348.348,0,0,1,.1.24.34.34,0,0,1-.33.35H64.5Z" style="fill:#fff"/><path d="M65.5,68.47a.35.35,0,0,1-.25-.6.369.369,0,0,1,.5,0,.35.35,0,0,1-.25.6Z" style="fill:#fff"/><path d="M62.25,70.47a.34.34,0,0,1-.35-.33h0v-.02a.339.339,0,0,1,.11-.25.361.361,0,0,1,.49,0,.31.31,0,0,1,.1.24.34.34,0,0,1-.33.35h-.02Z" style="fill:#fff"/><path d="M52.5,70a.35.35,0,0,1-.25-.6.36.36,0,0,1,.6.25.391.391,0,0,1-.1.25A.369.369,0,0,1,52.5,70Z" style="fill:#fff"/><path d="M44.5,66.72a.339.339,0,0,1-.25-.11.348.348,0,0,1-.1-.24.332.332,0,0,1,.11-.25.369.369,0,0,1,.49,0,.363.363,0,0,1,.1.25.34.34,0,0,1-.33.35H44.5Z" style="fill:#fff"/><path d="M28.25,71.47a.391.391,0,0,1-.25-.1.363.363,0,0,1-.1-.25.332.332,0,0,1,.11-.25.35.35,0,0,1,.59.25.332.332,0,0,1-.11.25A.348.348,0,0,1,28.25,71.47Z" style="fill:#fff"/><path d="M2.75,29.72a.391.391,0,0,1-.25-.1.359.359,0,0,1,0-.5.38.38,0,0,1,.5,0,.359.359,0,0,1,0,.5A.391.391,0,0,1,2.75,29.72Z" style="fill:#fff"/><path d="M13,5.22a.358.358,0,0,1-.25-.11.31.31,0,0,1-.1-.24.369.369,0,0,1,.1-.25.36.36,0,0,1,.6.25.332.332,0,0,1-.11.25A.348.348,0,0,1,13,5.22Z" style="fill:#fff"/><path d="M70,34.72a.34.34,0,0,1-.35-.33h0v-.02a.332.332,0,0,1,.11-.25.369.369,0,0,1,.49,0,.363.363,0,0,1,.1.25.34.34,0,0,1-.33.35H70Z" style="fill:#fff"/><path d="M71,41.47a.35.35,0,0,1-.25-.6.369.369,0,0,1,.5,0,.35.35,0,0,1-.25.6Z" style="fill:#fff"/><path d="M.75,52a.391.391,0,0,1-.25-.1.391.391,0,0,1-.1-.25.332.332,0,0,1,.11-.25.369.369,0,0,1,.49,0,.363.363,0,0,1,.1.25.391.391,0,0,1-.1.25A.391.391,0,0,1,.75,52Z" style="fill:#fff"/><path d="M71.75,23.72a.35.35,0,0,1-.25-.6.38.38,0,0,1,.5,0,.35.35,0,0,1-.25.6Z" style="fill:#fff"/><path d="M68.75,26.72a.35.35,0,0,1-.25-.6.369.369,0,0,1,.5,0,.391.391,0,0,1,.1.25.354.354,0,0,1-.1.25A.391.391,0,0,1,68.75,26.72Z" style="fill:#fff"/><path d="M68.25,60.47a.34.34,0,0,1-.35-.33h0v-.02a.369.369,0,0,1,.1-.25.38.38,0,0,1,.5,0,.35.35,0,0,1-.25.6Z" style="fill:#fff"/><path d="M71.25,68.47a.35.35,0,0,1-.25-.6.369.369,0,0,1,.5,0,.391.391,0,0,1,.1.25.354.354,0,0,1-.1.25A.391.391,0,0,1,71.25,68.47Z" style="fill:#fff"/><path d="M.25,58A.391.391,0,0,1,0,57.9a.359.359,0,0,1,0-.5.38.38,0,0,1,.5,0,.359.359,0,0,1,0,.5A.391.391,0,0,1,.25,58Z" style="fill:#fff"/><path d="M2.5,71.47a.391.391,0,0,1-.25-.1.347.347,0,1,1,.6-.25.391.391,0,0,1-.1.25A.391.391,0,0,1,2.5,71.47Z" style="fill:#fff"/><path d="M70,24.22a.34.34,0,0,1-.35-.33h0v-.02a.332.332,0,0,1,.11-.25.369.369,0,0,1,.49,0,.363.363,0,0,1,.1.25.34.34,0,0,1-.33.35H70Z" style="fill:#fff"/><path d="M1,17a.391.391,0,0,1-.25-.1.359.359,0,0,1,0-.5.38.38,0,0,1,.5,0,.359.359,0,0,1,0,.5A.391.391,0,0,1,1,17Z" style="fill:#fff"/><path d="M17.75,13.27a.65.65,0,0,1-.65-.65h0a.661.661,0,0,1,.19-.46.68.68,0,0,1,.92,0,.65.65,0,0,1-.46,1.11Z" style="fill:#fff"/><path d="M29,11.27a.661.661,0,0,1-.46-.19.681.681,0,0,1-.19-.46.661.661,0,0,1,.19-.46.67.67,0,0,1,.92,0,.661.661,0,0,1,.19.46A.65.65,0,0,1,29,11.27Z" style="fill:#fff"/><path d="M29,3.77a.65.65,0,0,1-.65-.65h0a.639.639,0,0,1,.19-.46.68.68,0,0,1,.92,0,.649.649,0,0,1,0,.919h0A.682.682,0,0,1,29,3.77Z" style="fill:#fff"/><path d="M40,10.77a.65.65,0,0,1-.65-.65h0a.661.661,0,0,1,.19-.46.68.68,0,0,1,.92,0,.631.631,0,0,1,.19.46.681.681,0,0,1-.19.46A.661.661,0,0,1,40,10.77Z" style="fill:#fff"/><path d="M44.75,12.27a.61.61,0,0,1-.46-.2.64.64,0,0,1-.19-.45.661.661,0,0,1,.19-.46.68.68,0,0,1,.92,0,.631.631,0,0,1,.19.46.61.61,0,0,1-.2.46A.6.6,0,0,1,44.75,12.27Z" style="fill:#fff"/><path d="M47,23.27a.65.65,0,0,1-.46-1.11.68.68,0,0,1,.92,0A.65.65,0,0,1,47,23.27Z" style="fill:#fff"/><path d="M54.5,7.27a.641.641,0,0,1-.5-.19.649.649,0,0,1,0-.919h0a.68.68,0,0,1,.92,0,.639.639,0,0,1,.19.46.661.661,0,0,1-.19.46A.641.641,0,0,1,54.5,7.27Z" style="fill:#fff"/><path d="M63.75,7a.65.65,0,0,1-.46-1.11.68.68,0,0,1,.92,0A.65.65,0,0,1,63.75,7Z" style="fill:#fff"/><path d="M64.75,3a.661.661,0,0,1-.46-.19.681.681,0,0,1-.19-.46.661.661,0,0,1,.19-.46.65.65,0,0,1,1.11.46.63.63,0,0,1-.18.45A.67.67,0,0,1,64.75,3Z" style="fill:#fff"/><path d="M69.25,18.52a.65.65,0,0,1-.46-1.11.67.67,0,0,1,.92,0,.65.65,0,0,1-.46,1.11Z" style="fill:#fff"/><path d="M7.75,47.52a.639.639,0,0,1-.46-.19.681.681,0,0,1-.19-.46.661.661,0,0,1,.19-.46.68.68,0,0,1,.92,0,.661.661,0,0,1,.19.46.681.681,0,0,1-.19.46A.639.639,0,0,1,7.75,47.52Z" style="fill:#fff"/><path d="M4.75,57.27a.639.639,0,0,1-.46-.19.649.649,0,0,1,0-.919h0a.67.67,0,0,1,.92,0,.649.649,0,0,1,0,.919h0A.639.639,0,0,1,4.75,57.27Z" style="fill:#fff"/><path d="M2,67.52a.661.661,0,0,1-.46-.19.681.681,0,0,1-.19-.46.661.661,0,0,1,.19-.46.68.68,0,0,1,.92,0,.661.661,0,0,1,.19.46.681.681,0,0,1-.19.46A.661.661,0,0,1,2,67.52Z" style="fill:#fff"/><path d="M17.5,70.27a.661.661,0,0,1-.46-.19.681.681,0,0,1-.19-.46.661.661,0,0,1,.19-.46.68.68,0,0,1,.92,0,.661.661,0,0,1,.19.46.681.681,0,0,1-.19.46A.661.661,0,0,1,17.5,70.27Z" style="fill:#fff"/><path d="M19,62.77a.65.65,0,0,1-.65-.65h0a.639.639,0,0,1,.19-.46.67.67,0,0,1,.92,0,.661.661,0,0,1,.19.46.681.681,0,0,1-.19.46A.661.661,0,0,1,19,62.77Z" style="fill:#fff"/><path d="M20.75,45.77a.65.65,0,0,1-.65-.65h0a.639.639,0,0,1,.19-.46.67.67,0,0,1,.92,0,.661.661,0,0,1,.19.46.681.681,0,0,1-.19.46A.639.639,0,0,1,20.75,45.77Z" style="fill:#fff"/><path d="M28.25,51.52a.65.65,0,0,1-.46-1.11.67.67,0,0,1,.92,0,.661.661,0,0,1,.19.46.681.681,0,0,1-.19.46A.639.639,0,0,1,28.25,51.52Z" style="fill:#fff"/><path d="M33.75,60.77a.65.65,0,0,1-.65-.65h0a.639.639,0,0,1,.19-.46.68.68,0,0,1,.92,0,.631.631,0,0,1,.19.46.639.639,0,0,1-.19.46A.661.661,0,0,1,33.75,60.77Z" style="fill:#fff"/><path d="M34,67.27a.639.639,0,0,1-.46-.19.649.649,0,0,1,0-.919h0a.67.67,0,0,1,.92,0,.649.649,0,0,1,0,.919h0A.661.661,0,0,1,34,67.27Z" style="fill:#fff"/><path d="M41.5,55.52a.65.65,0,0,1-.5-1.11.68.68,0,0,1,.92,0,.65.65,0,0,1-.46,1.11Z" style="fill:#fff"/><path d="M52,60.27a.65.65,0,0,1-.46-1.11.68.68,0,0,1,.92,0A.65.65,0,0,1,52,60.27Z" style="fill:#fff"/><path d="M54.75,65.77a.661.661,0,0,1-.46-.19.681.681,0,0,1-.19-.46.639.639,0,0,1,.19-.46.68.68,0,0,1,.92,0,.639.639,0,0,1,.19.46.681.681,0,0,1-.19.46A.661.661,0,0,1,54.75,65.77Z" style="fill:#fff"/><path d="M25,25a.661.661,0,0,1-.46-.19.681.681,0,0,1-.19-.46.661.661,0,0,1,.19-.46.68.68,0,0,1,.92,0,.661.661,0,0,1,.19.46.681.681,0,0,1-.19.46A.661.661,0,0,1,25,25Z" style="fill:#fff"/><path d="M35,23.77a.639.639,0,0,1-.46-.19.649.649,0,0,1,0-.919h0a.68.68,0,0,1,.92,0A.65.65,0,0,1,35,23.77Z" style="fill:#fff"/><path d="M44.75,30a.65.65,0,0,1-.46-1.11.68.68,0,0,1,.92,0,.631.631,0,0,1,.19.46.61.61,0,0,1-.2.46A.621.621,0,0,1,44.75,30Z" style="fill:#fff"/><path d="M51.75,43.52a.65.65,0,0,1-.46-1.11.67.67,0,0,1,.92,0,.639.639,0,0,1,.19.46.65.65,0,0,1-.65.65Z" style="fill:#fff"/><path d="M66.75,52.27a.65.65,0,0,1-.65-.65h0a.61.61,0,0,1,.2-.46.68.68,0,0,1,.91,0,.65.65,0,0,1-.46,1.11Z" style="fill:#fff"/><path d="M47,48.27a.65.65,0,0,1-.46-1.11.68.68,0,0,1,.92,0A.65.65,0,0,1,47,48.27Z" style="fill:#fff"/><path d="M36.75,45a.661.661,0,0,1-.46-.19.681.681,0,0,1-.19-.46.661.661,0,0,1,.19-.46.68.68,0,0,1,.92,0,.661.661,0,0,1,.19.46.681.681,0,0,1-.19.46A.661.661,0,0,1,36.75,45Z" style="fill:#fff"/><path d="M16.75,29a.65.65,0,0,1-.46-1.11.68.68,0,0,1,.92,0,.649.649,0,0,1,0,.919h0A.64.64,0,0,1,16.75,29Z" style="fill:#fff"/><path d="M11,37.27a.65.65,0,0,1-.65-.65h0a.639.639,0,0,1,.19-.46.67.67,0,0,1,.92,0A.65.65,0,0,1,11,37.27Z" style="fill:#fff"/><path d="M67.25,31.27a.661.661,0,0,1-.46-.19.681.681,0,0,1-.19-.46.661.661,0,0,1,.19-.46.68.68,0,0,1,.92,0,.639.639,0,0,1,.19.46.65.65,0,0,1-.65.65Z" style="fill:#fff"/><path d="M7,16.27a.61.61,0,0,1-.46-.2.621.621,0,0,1-.19-.45.661.661,0,0,1,.19-.46.67.67,0,0,1,.92,0,.649.649,0,0,1,0,.919h0A.64.64,0,0,1,7,16.27Z" style="fill:#fff"/><path d="M8.25,5.77a.681.681,0,0,1-.46-.19.661.661,0,0,1-.19-.46.639.639,0,0,1,.19-.46.67.67,0,0,1,.92,0,.639.639,0,0,1,.19.46.65.65,0,0,1-.65.65Z" style="fill:#fff"/><path d="M3.25,3a.661.661,0,0,1-.46-.19.681.681,0,0,1-.19-.46.661.661,0,0,1,.19-.46.68.68,0,0,1,.92,0,.661.661,0,0,1,.19.46.681.681,0,0,1-.19.46A.661.661,0,0,1,3.25,3Z" style="fill:#fff"/><path d="M66.25,37.77a.65.65,0,0,1-.46-1.11.68.68,0,0,1,.92,0,.639.639,0,0,1,.19.46.661.661,0,0,1-.19.46A.639.639,0,0,1,66.25,37.77Z" style="fill:#fff"/><path d="M43.75,63.52a.661.661,0,0,1-.46-.19.681.681,0,0,1-.19-.46.661.661,0,0,1,.19-.46.67.67,0,0,1,.92,0,.661.661,0,0,1,.19.46.681.681,0,0,1-.19.46A.661.661,0,0,1,43.75,63.52Z" style="fill:#fff"/><path d="M25.5,70.52a.661.661,0,0,1-.46-.19.681.681,0,0,1-.19-.46.661.661,0,0,1,.19-.46.67.67,0,0,1,.92,0,.661.661,0,0,1,.19.46.681.681,0,0,1-.19.46A.661.661,0,0,1,25.5,70.52Z" style="fill:#fff"/><path d="M21.75,42.27a.661.661,0,0,1-.46-.19.649.649,0,0,1,0-.919h0a.68.68,0,0,1,.92,0,.65.65,0,0,1-.46,1.11Z" style="fill:#fff"/><path d="M23.75,29.52a.661.661,0,0,1-.46-.19.681.681,0,0,1-.19-.46.661.661,0,0,1,.19-.46.67.67,0,0,1,.92,0,.639.639,0,0,1,.19.46A.65.65,0,0,1,23.75,29.52Z" style="fill:#fff"/><path d="M41.25,35a.65.65,0,0,1-.46-1.11.68.68,0,0,1,.92,0,.661.661,0,0,1,.19.46.681.681,0,0,1-.19.46A.661.661,0,0,1,41.25,35Z" style="fill:#fff"/><path d="M67.25,44.27a.661.661,0,0,1-.46-.19.681.681,0,0,1-.19-.46.661.661,0,0,1,.19-.46.68.68,0,0,1,.92,0,.639.639,0,0,1,.19.46.65.65,0,0,1-.65.65Z" style="fill:#fff"/><path d="M53,15.52a.65.65,0,0,1-.46-1.11.68.68,0,0,1,.92,0,.661.661,0,0,1,.19.46.681.681,0,0,1-.19.46A.661.661,0,0,1,53,15.52Z" style="fill:#fff"/><path d="M33.75,16.52a.661.661,0,0,1-.46-.19.681.681,0,0,1-.19-.46.639.639,0,0,1,.19-.46.68.68,0,0,1,.92,0,.639.639,0,0,1,.19.46.65.65,0,0,1-.65.65Z" style="fill:#fff"/><path d="M12.5,19.77a.65.65,0,0,1-.5-1.11.67.67,0,0,1,.92,0,.65.65,0,0,1-.46,1.11Z" style="fill:#fff"/><path d="M49.25,5a.65.65,0,0,1-.46-1.11.68.68,0,0,1,.92,0A.65.65,0,0,1,49.25,5Z" style="fill:#fff"/><path d="M58.75,21.27a.65.65,0,0,1-.46-1.11.68.68,0,0,1,.92,0,.639.639,0,0,1,.19.46.65.65,0,0,1-.65.65Z" style="fill:#fff"/><path d="M67.25,57.77a.661.661,0,0,1-.46-.19.681.681,0,0,1-.19-.46.661.661,0,0,1,.19-.46.68.68,0,0,1,.92,0,.639.639,0,0,1,.19.46.65.65,0,0,1-.65.65Z" style="fill:#fff"/><path d="M5,70.27a.639.639,0,0,1-.46-.19.649.649,0,0,1,0-.919h0a.67.67,0,0,1,.92,0,.649.649,0,0,1,0,.919h0A.639.639,0,0,1,5,70.27Z" style="fill:#fff"/><path d="M2.5,13.77a.61.61,0,0,1-.46-.2.621.621,0,0,1-.19-.45A.662.662,0,0,1,2,12.66a.67.67,0,0,1,.92,0,.649.649,0,0,1,0,.919h0A.636.636,0,0,1,2.5,13.77Z" style="fill:#fff"/><path d="M16.25,3.77a.65.65,0,0,1-.46-1.11.68.68,0,0,1,.92,0,.65.65,0,0,1-.46,1.11Z" style="fill:#fff"/><path d="M40.25,5a.65.65,0,0,1-.46-1.11.68.68,0,0,1,.92,0,.639.639,0,0,1,.19.46.65.65,0,0,1-.65.65Z" style="fill:#fff"/><path d="M2.5,32.52a.641.641,0,0,1-.5-.19.649.649,0,0,1,0-.919H2a.68.68,0,0,1,.92,0,.65.65,0,0,1-.46,1.11Z" style="fill:#fff"/><path d="M7.25,25.52a.639.639,0,0,1-.46-.19.649.649,0,0,1,0-.919h0a.68.68,0,0,1,.92,0,.639.639,0,0,1,.19.46.661.661,0,0,1-.19.46A.636.636,0,0,1,7.25,25.52Z" style="fill:#fff"/><path d="M3.75,47.27a.661.661,0,0,1-.46-.19.681.681,0,0,1-.19-.46.661.661,0,0,1,.19-.46.67.67,0,0,1,.92,0,.661.661,0,0,1,.19.46.681.681,0,0,1-.19.46A.639.639,0,0,1,3.75,47.27Z" style="fill:#fff"/><path d="M10.75,51a.661.661,0,0,1-.46-.19.681.681,0,0,1-.19-.46.639.639,0,0,1,.19-.46.68.68,0,0,1,.92,0,.661.661,0,0,1,.19.46.681.681,0,0,1-.19.46A.661.661,0,0,1,10.75,51Z" style="fill:#fff"/><path d="M9.75,60.27a.639.639,0,0,1-.46-.19.649.649,0,0,1,0-.919h0a.68.68,0,0,1,.92,0,.649.649,0,0,1,0,.919h0A.639.639,0,0,1,9.75,60.27Z" style="fill:#fff"/><path d="M13.25,66.27a.661.661,0,0,1-.46-.19.681.681,0,0,1-.19-.46.639.639,0,0,1,.19-.46.67.67,0,0,1,.92,0,.661.661,0,0,1,.19.46.681.681,0,0,1-.19.46A.661.661,0,0,1,13.25,66.27Z" style="fill:#fff"/><path d="M21.75,53.77a.661.661,0,0,1-.46-.19.639.639,0,0,1-.19-.46.6.6,0,0,1,.2-.46.65.65,0,0,1,1.1.46.681.681,0,0,1-.19.46A.661.661,0,0,1,21.75,53.77Z" style="fill:#fff"/><path d="M31,38a.661.661,0,0,1-.46-.19.681.681,0,0,1-.19-.46.661.661,0,0,1,.19-.46.68.68,0,0,1,.92,0,.661.661,0,0,1,.19.46.681.681,0,0,1-.19.46A.661.661,0,0,1,31,38Z" style="fill:#fff"/><path d="M25.75,34.52a.65.65,0,0,1-.46-1.11.67.67,0,0,1,.92,0,.65.65,0,0,1-.46,1.11Z" style="fill:#fff"/><path d="M37,29a.661.661,0,0,1-.46-.19.681.681,0,0,1-.19-.46.661.661,0,0,1,.19-.46.68.68,0,0,1,.92,0,.661.661,0,0,1,.19.46.681.681,0,0,1-.19.46A.661.661,0,0,1,37,29Z" style="fill:#fff"/><path d="M61.5,17a.661.661,0,0,1-.46-.19.681.681,0,0,1-.19-.46.661.661,0,0,1,.19-.46.68.68,0,0,1,.92,0,.639.639,0,0,1,.19.46A.65.65,0,0,1,61.5,17Z" style="fill:#fff"/><path d="M61,27.52a.639.639,0,0,1-.46-.19.681.681,0,0,1-.19-.46.661.661,0,0,1,.19-.46.68.68,0,0,1,.92,0,.649.649,0,0,1,0,.919h0A.64.64,0,0,1,61,27.52Z" style="fill:#fff"/><path d="M58.5,57.52a.661.661,0,0,1-.46-.19.681.681,0,0,1-.19-.46.661.661,0,0,1,.19-.46.68.68,0,0,1,.92,0,.661.661,0,0,1,.19.46.681.681,0,0,1-.19.46A.661.661,0,0,1,58.5,57.52Z" style="fill:#fff"/><path d="M59,44.77a.639.639,0,0,1-.46-.19.649.649,0,0,1,0-.919h0a.68.68,0,0,1,.92,0,.649.649,0,0,1,0,.919h0A.639.639,0,0,1,59,44.77Z" style="fill:#fff"/><path d="M55.5,36a.661.661,0,0,1-.46-.19.681.681,0,0,1-.19-.46.661.661,0,0,1,.19-.46.68.68,0,0,1,.92,0,.661.661,0,0,1,.19.46.681.681,0,0,1-.19.46A.661.661,0,0,1,55.5,36Z" style="fill:#fff"/><path d="M69,71a.681.681,0,0,1-.46-.19.649.649,0,0,1,0-.919h0a.691.691,0,0,1,.92,0A.65.65,0,0,1,69,71Z" style="fill:#fff"/><path d="M60.5,66.27a.65.65,0,0,1-.5-1.11.67.67,0,0,1,.92,0,.639.639,0,0,1,.19.46.65.65,0,0,1-.65.65h.04Z" style="fill:#fff"/><path d="M44.25,71.77a.65.65,0,0,1-.46-1.11.68.68,0,0,1,.92,0,.65.65,0,0,1-.46,1.11Z" style="fill:#fff"/><path d="M24.25,1.52A.65.65,0,0,1,23.6.87h0a.639.639,0,0,1,.19-.46.67.67,0,0,1,.92,0,.661.661,0,0,1,.19.46.681.681,0,0,1-.19.46A.639.639,0,0,1,24.25,1.52Z" style="fill:#fff"/><path d="M-.25,23.72a.391.391,0,0,1-.25-.1.391.391,0,0,1-.1-.25.391.391,0,0,1,.1-.25.38.38,0,0,1,.5,0,.391.391,0,0,1,.1.25.391.391,0,0,1-.1.25A.391.391,0,0,1-.25,23.72Z" style="fill:#fff"/></pattern><pattern id="USGS_22_Gravel_Beach_4-3" data-name="USGS 22 Gravel Beach 4-3" width="72" height="72" patternTransform="translate(77.97 -206.64) scale(0.88)" patternUnits="userSpaceOnUse" viewBox="0 0 72 72"><rect width="72" height="72" style="fill:none"/><rect width="72" height="72" style="fill:none"/><rect width="72" height="72" style="fill:none"/><path d="M72.25,58a.35.35,0,0,1-.25-.6.38.38,0,0,1,.5,0,.35.35,0,0,1-.25.6Z" style="fill:#fff"/><path d="M20.75,3.22a.391.391,0,0,1-.25-.1.347.347,0,1,1,.506-.474.339.339,0,0,1-.24.574Z" style="fill:#fff"/><path d="M19.75,8.47a.34.34,0,0,1-.35-.33h0V8.12a.332.332,0,0,1,.11-.25.369.369,0,0,1,.49,0,.363.363,0,0,1,.1.25.391.391,0,0,1-.1.25A.369.369,0,0,1,19.75,8.47Z" style="fill:#fff"/><path d="M20,10.72a.35.35,0,0,1-.25-.6.369.369,0,0,1,.5,0,.35.35,0,0,1-.25.6Z" style="fill:#fff"/><path d="M15,10.72a.34.34,0,0,1-.35-.33h0v-.02a.369.369,0,0,1,.1-.25.38.38,0,0,1,.5,0,.35.35,0,0,1-.25.6Z" style="fill:#fff"/><path d="M22.5,20.22a.35.35,0,0,1-.25-.6.36.36,0,0,1,.6.25.34.34,0,0,1-.33.35H22.5Z" style="fill:#fff"/><path d="M15,23.22a.34.34,0,0,1-.35-.33h0v-.02a.332.332,0,0,1,.11-.25.369.369,0,0,1,.49,0,.363.363,0,0,1,.1.25.34.34,0,0,1-.33.35H15Z" style="fill:#fff"/><path d="M13.75,24.22a.35.35,0,0,1-.25-.6.36.36,0,0,1,.6.25.391.391,0,0,1-.1.25A.369.369,0,0,1,13.75,24.22Z" style="fill:#fff"/><path d="M23.75,27.22a.34.34,0,0,1-.35-.33h0v-.02a.332.332,0,0,1,.11-.25.369.369,0,0,1,.49,0,.391.391,0,0,1,.1.25.348.348,0,0,1-.1.24A.358.358,0,0,1,23.75,27.22Z" style="fill:#fff"/><path d="M30.5,26a.35.35,0,0,1-.25-.6.36.36,0,0,1,.6.25.34.34,0,0,1-.33.35H30.5Z" style="fill:#fff"/><path d="M31,23.47a.34.34,0,0,1-.35-.33h0v-.02a.332.332,0,0,1,.11-.25.35.35,0,0,1,.59.25.391.391,0,0,1-.1.25A.369.369,0,0,1,31,23.47Z" style="fill:#fff"/><path d="M29,18.47a.35.35,0,0,1-.25-.6.36.36,0,0,1,.6.25.34.34,0,0,1-.33.35H29Z" style="fill:#fff"/><path d="M33.75,20a.35.35,0,0,1-.25-.6.36.36,0,0,1,.6.25.34.34,0,0,1-.33.35h-.02Z" style="fill:#fff"/><path d="M31.25,15a.35.35,0,0,1-.25-.6.36.36,0,0,1,.6.25.34.34,0,0,1-.33.35h-.02Z" style="fill:#fff"/><path d="M31.5,12a.35.35,0,0,1-.25-.6.369.369,0,0,1,.5,0,.35.35,0,0,1-.25.6Z" style="fill:#fff"/><path d="M32,7.22a.35.35,0,0,1-.25-.6.36.36,0,0,1,.6.25.34.34,0,0,1-.33.35H32Z" style="fill:#fff"/><path d="M31.75,3.22a.342.342,0,0,1-.35-.334V2.87a.332.332,0,0,1,.11-.25.35.35,0,0,1,.59.25.342.342,0,0,1-.334.35Z" style="fill:#fff"/><path d="M33.75,1.47a.358.358,0,0,1-.25-.11.338.338,0,0,1,0-.479L33.51.87a.345.345,0,0,1,.59.25.339.339,0,0,1-.11.25A.348.348,0,0,1,33.75,1.47Z" style="fill:#fff"/><path d="M41.25,7.22a.391.391,0,0,1-.25-.1.354.354,0,0,1-.1-.25.391.391,0,0,1,.1-.25.351.351,0,0,1,.49,0,.358.358,0,0,1,.11.25.34.34,0,0,1-.33.35h-.02Z" style="fill:#fff"/><path d="M45.25,7A.391.391,0,0,1,45,6.9a.347.347,0,0,1,.506-.474A.339.339,0,0,1,45.27,7h-.02Z" style="fill:#fff"/><path d="M42.25,13.72a.34.34,0,0,1-.35-.33h0v-.02a.332.332,0,0,1,.11-.25.35.35,0,0,1,.59.25.34.34,0,0,1-.33.35h-.02Z" style="fill:#fff"/><path d="M46.75,14.47a.34.34,0,0,1-.35-.33h0v-.02a.332.332,0,0,1,.11-.25.361.361,0,0,1,.49,0,.391.391,0,0,1,.1.25.329.329,0,0,1-.1.24A.358.358,0,0,1,46.75,14.47Z" style="fill:#fff"/><path d="M46.75,16.47a.34.34,0,0,1-.35-.33h0v-.02a.332.332,0,0,1,.11-.25.361.361,0,0,1,.49,0,.391.391,0,0,1,.1.25.371.371,0,0,1-.1.24A.358.358,0,0,1,46.75,16.47Z" style="fill:#fff"/><path d="M38.75,21a.35.35,0,0,1-.25-.6.361.361,0,0,1,.49,0,.347.347,0,0,1-.22.6Z" style="fill:#fff"/><path d="M50,13.72a.391.391,0,0,1-.25-.1.359.359,0,0,1,0-.5.369.369,0,0,1,.5,0,.35.35,0,0,1-.25.6Z" style="fill:#fff"/><path d="M52,12.22a.358.358,0,0,1-.25-.11.348.348,0,0,1-.1-.24.332.332,0,0,1,.11-.25.369.369,0,0,1,.49,0,.363.363,0,0,1,.1.25.34.34,0,0,1-.33.35H52Z" style="fill:#fff"/><path d="M54.5,11.22a.358.358,0,0,1-.25-.11.348.348,0,0,1-.1-.24.332.332,0,0,1,.11-.25.35.35,0,0,1,.59.25.34.34,0,0,1-.33.35H54.5Z" style="fill:#fff"/><path d="M56.25,1A.376.376,0,0,1,56,.37a.359.359,0,0,1,.5,0,.348.348,0,0,1,.1.24A.417.417,0,0,1,56.25,1Z" style="fill:#fff"/><path d="M67.75,3.22a.342.342,0,0,1-.35-.334V2.87a.332.332,0,0,1,.11-.25.369.369,0,0,1,.49,0,.363.363,0,0,1,.1.25.391.391,0,0,1-.1.25A.369.369,0,0,1,67.75,3.22Z" style="fill:#fff"/><path d="M67.75,10.47a.358.358,0,0,1-.25-.11.348.348,0,0,1-.1-.24.391.391,0,0,1,.1-.25.369.369,0,0,1,.5,0,.391.391,0,0,1,.1.25.339.339,0,0,1-.11.25A.348.348,0,0,1,67.75,10.47Z" style="fill:#fff"/><path d="M64,12.47a.35.35,0,0,1-.25-.6.36.36,0,0,1,.6.25.34.34,0,0,1-.33.35H64Z" style="fill:#fff"/><path d="M65,16a.34.34,0,0,1-.35-.33h0v-.02a.369.369,0,0,1,.1-.25.38.38,0,0,1,.5,0A.35.35,0,0,1,65,16Z" style="fill:#fff"/><path d="M63.75,20a.358.358,0,0,1-.25-.11.348.348,0,0,1-.1-.24.391.391,0,0,1,.1-.25.369.369,0,0,1,.5,0,.391.391,0,0,1,.1.25.339.339,0,0,1-.11.25A.348.348,0,0,1,63.75,20Z" style="fill:#fff"/><path d="M66,20a.34.34,0,0,1-.35-.33h0v-.02a.332.332,0,0,1,.11-.25.369.369,0,0,1,.49,0,.363.363,0,0,1,.1.25.34.34,0,0,1-.33.35H66Z" style="fill:#fff"/><path d="M67.75,21.47a.35.35,0,0,1-.25-.6.369.369,0,0,1,.5,0,.35.35,0,0,1-.25.6Z" style="fill:#fff"/><path d="M6.75,52.47a.35.35,0,0,1-.25-.6.38.38,0,0,1,.5,0,.35.35,0,0,1-.25.6Z" style="fill:#fff"/><path d="M7,54.72a.35.35,0,0,1-.25-.6.369.369,0,0,1,.5,0,.35.35,0,0,1-.25.6Z" style="fill:#fff"/><path d="M2,54.72a.391.391,0,0,1-.25-.1.359.359,0,0,1,0-.5.38.38,0,0,1,.5,0,.359.359,0,0,1,0,.5A.391.391,0,0,1,2,54.72Z" style="fill:#fff"/><path d="M9.5,64.22a.35.35,0,0,1-.25-.6.36.36,0,0,1,.6.25.34.34,0,0,1-.33.35H9.5Z" style="fill:#fff"/><path d="M.75,68.22a.391.391,0,0,1-.25-.1.359.359,0,0,1,0-.5.38.38,0,0,1,.5,0,.359.359,0,0,1,0,.5A.391.391,0,0,1,.75,68.22Z" style="fill:#fff"/><path d="M10.75,71.22a.35.35,0,0,1-.25-.6.38.38,0,0,1,.5,0,.35.35,0,0,1-.25.6Z" style="fill:#fff"/><path d="M18,67.47a.34.34,0,0,1-.35-.33h0v-.02a.345.345,0,0,1,.59-.25.358.358,0,0,1,.11.25.34.34,0,0,1-.33.35H18Z" style="fill:#fff"/><path d="M16,62.47a.35.35,0,0,1-.25-.6.369.369,0,0,1,.5,0,.35.35,0,0,1-.25.6Z" style="fill:#fff"/><path d="M19.25,58a.34.34,0,0,1-.35-.33h0v-.02a.332.332,0,0,1,.11-.25.369.369,0,0,1,.49,0,.363.363,0,0,1,.1.25.34.34,0,0,1-.33.35h-.02Z" style="fill:#fff"/><path d="M18.5,56a.34.34,0,0,1-.35-.33h0v-.02a.332.332,0,0,1,.11-.25.369.369,0,0,1,.49,0,.363.363,0,0,1,.1.25.34.34,0,0,1-.33.35H18.5Z" style="fill:#fff"/><path d="M16,55a.34.34,0,0,1-.35-.33h0v-.02a.332.332,0,0,1,.11-.25.369.369,0,0,1,.49,0,.363.363,0,0,1,.1.25.34.34,0,0,1-.33.35H16Z" style="fill:#fff"/><path d="M19,51.22a.34.34,0,0,1-.35-.33h0v-.02a.332.332,0,0,1,.11-.25.369.369,0,0,1,.49,0,.363.363,0,0,1,.1.25.34.34,0,0,1-.33.35H19Z" style="fill:#fff"/><path d="M18.75,47.22a.35.35,0,0,1-.25-.6.38.38,0,0,1,.5,0,.35.35,0,0,1-.25.6Z" style="fill:#fff"/><path d="M16,47.47a.35.35,0,0,1-.25-.6.369.369,0,0,1,.5,0,.35.35,0,0,1-.25.6Z" style="fill:#fff"/><path d="M32.25,51a.34.34,0,0,1-.35-.33h0v-.02a.332.332,0,0,1,.11-.25.35.35,0,0,1,.59.25.34.34,0,0,1-.33.35h-.02Z" style="fill:#fff"/><path d="M27,54.47a.35.35,0,0,1-.25-.6.369.369,0,0,1,.5,0,.35.35,0,0,1-.25.6Z" style="fill:#fff"/><path d="M31.75,56a.35.35,0,0,1-.25-.6.369.369,0,0,1,.5,0,.35.35,0,0,1-.25.6Z" style="fill:#fff"/><path d="M31.75,57.72a.35.35,0,0,1-.245-.6l.005,0a.369.369,0,0,1,.5,0,.363.363,0,0,1,.1.25.34.34,0,0,1-.33.35h-.03Z" style="fill:#fff"/><path d="M33.75,58.47a.35.35,0,0,1-.25-.6.369.369,0,0,1,.5,0,.35.35,0,0,1-.25.6Z" style="fill:#fff"/><path d="M25.75,65a.35.35,0,0,1-.25-.6.36.36,0,0,1,.6.25.34.34,0,0,1-.33.35h-.02Z" style="fill:#fff"/><path d="M35.75,56.47a.35.35,0,0,1-.25-.6.36.36,0,0,1,.6.25.34.34,0,0,1-.33.35h-.02Z" style="fill:#fff"/><path d="M39,56.22a.348.348,0,0,1-.24-.1.358.358,0,0,1-.11-.25.391.391,0,0,1,.1-.25.369.369,0,0,1,.5,0,.35.35,0,0,1-.25.6Z" style="fill:#fff"/><path d="M41.5,51a.35.35,0,0,1-.25-.6.369.369,0,0,1,.5,0,.35.35,0,0,1-.25.6Z" style="fill:#fff"/><path d="M43.25,45a.358.358,0,0,1-.25-.11.348.348,0,0,1-.1-.24.391.391,0,0,1,.1-.25.369.369,0,0,1,.5,0,.35.35,0,0,1-.25.6Z" style="fill:#fff"/><path d="M50.75,50.72a.391.391,0,0,1-.25-.1.363.363,0,0,1-.1-.25.391.391,0,0,1,.1-.25.359.359,0,0,1,.5,0,.35.35,0,0,1-.25.6Z" style="fill:#fff"/><path d="M51.75,46.72a.358.358,0,0,1-.25-.11.348.348,0,0,1-.1-.24.332.332,0,0,1,.11-.25.369.369,0,0,1,.49,0,.363.363,0,0,1,.1.25.34.34,0,0,1-.33.35h-.02Z" style="fill:#fff"/><path d="M54.75,47.22a.332.332,0,0,1-.25-.11.348.348,0,0,1-.1-.24.369.369,0,0,1,.1-.25.361.361,0,0,1,.49,0,.347.347,0,0,1-.22.6Z" style="fill:#fff"/><path d="M54.75,54.47a.332.332,0,0,1-.25-.11.348.348,0,0,1-.1-.24.332.332,0,0,1,.11-.25.369.369,0,0,1,.49,0,.363.363,0,0,1,.1.25.34.34,0,0,1-.33.35h-.02Z" style="fill:#fff"/><path d="M51,56.47a.35.35,0,0,1-.25-.6.369.369,0,0,1,.5,0,.354.354,0,0,1,.1.25.391.391,0,0,1-.1.25A.369.369,0,0,1,51,56.47Z" style="fill:#fff"/><path d="M50.75,64a.34.34,0,0,1-.35-.33h0v-.02a.31.31,0,0,1,.1-.24.341.341,0,0,1,.481-.009l.009.009a.358.358,0,0,1,.11.25.391.391,0,0,1-.1.25A.368.368,0,0,1,50.75,64Z" style="fill:#fff"/><path d="M53,64a.34.34,0,0,1-.35-.33h0v-.02a.332.332,0,0,1,.11-.25.361.361,0,0,1,.49,0,.31.31,0,0,1,.1.24.341.341,0,0,1-.319.36Z" style="fill:#fff"/><path d="M55.75,63.22a.35.35,0,0,1-.25-.6.36.36,0,0,1,.6.25.34.34,0,0,1-.33.35h-.02Z" style="fill:#fff"/><path d="M58,61.72a.358.358,0,0,1-.25-.11.348.348,0,0,1-.1-.24.391.391,0,0,1,.1-.25.35.35,0,0,1,.6.25.34.34,0,0,1-.33.35H58Z" style="fill:#fff"/><path d="M20.75,27.22a.35.35,0,0,1-.25-.6.36.36,0,0,1,.6.25.34.34,0,0,1-.33.35h-.02Z" style="fill:#fff"/><path d="M22.5,24.22a.35.35,0,0,1-.25-.6.369.369,0,0,1,.5,0,.35.35,0,0,1-.25.6Z" style="fill:#fff"/><path d="M38.75,25a.35.35,0,0,1-.25-.6.369.369,0,0,1,.5,0,.35.35,0,0,1-.25.6Z" style="fill:#fff"/><path d="M46,29.22a.391.391,0,0,1-.25-.1.351.351,0,0,1,0-.49.341.341,0,0,1,.481-.009l.009.009a.358.358,0,0,1,.11.25.34.34,0,0,1-.33.35H46Z" style="fill:#fff"/><path d="M55,28.22a.35.35,0,0,1-.25-.6.369.369,0,0,1,.5,0,.35.35,0,0,1-.25.6Z" style="fill:#fff"/><path d="M51,25.47a.35.35,0,0,1-.25-.6.369.369,0,0,1,.5,0,.354.354,0,0,1,.1.25.34.34,0,0,1-.33.35H51Z" style="fill:#fff"/><path d="M51.75,29.72a.369.369,0,0,1-.25-.1.347.347,0,0,1,.506-.474.339.339,0,0,1-.236.574h-.02Z" style="fill:#fff"/><path d="M62.25,35.72a.34.34,0,0,1-.35-.33h0v-.02a.332.332,0,0,1,.11-.25.361.361,0,0,1,.49,0,.31.31,0,0,1,.1.24.34.34,0,0,1-.33.35h-.02Z" style="fill:#fff"/><path d="M56.5,39.22a.35.35,0,0,1-.25-.6.36.36,0,0,1,.6.25.34.34,0,0,1-.33.35H56.5Z" style="fill:#fff"/><path d="M48,37.47a.348.348,0,0,1-.24-.1.358.358,0,0,1-.11-.25.391.391,0,0,1,.1-.25.359.359,0,0,1,.5,0,.329.329,0,0,1,.1.24.34.34,0,0,1-.33.35H48Z" style="fill:#fff"/><path d="M47.75,41.47a.332.332,0,0,1-.25-.11.348.348,0,0,1-.1-.24.391.391,0,0,1,.1-.25.38.38,0,0,1,.5,0,.35.35,0,0,1-.25.6Z" style="fill:#fff"/><path d="M53.25,45.22a.339.339,0,0,1-.25-.11.31.31,0,0,1-.1-.24.339.339,0,0,1,.11-.25.369.369,0,0,1,.49,0,.35.35,0,0,1-.25.6Z" style="fill:#fff"/><path d="M62,48.22a.34.34,0,0,1-.35-.33h0v-.02a.332.332,0,0,1,.11-.25.361.361,0,0,1,.49,0,.31.31,0,0,1,.1.24.34.34,0,0,1-.33.35H62Z" style="fill:#fff"/><path d="M64.75,52a.34.34,0,0,1-.35-.33h0v-.02a.332.332,0,0,1,.11-.25.369.369,0,0,1,.49,0,.363.363,0,0,1,.1.25.34.34,0,0,1-.33.35h-.02Z" style="fill:#fff"/><path d="M69.25,45.22a.35.35,0,0,1-.25-.6.369.369,0,0,1,.5,0,.35.35,0,0,1-.25.6Z" style="fill:#fff"/><path d="M59.75,39.22a.332.332,0,0,1-.25-.11.348.348,0,0,1-.1-.24.339.339,0,0,1,.11-.25.35.35,0,1,1,.49.5A.369.369,0,0,1,59.75,39.22Z" style="fill:#fff"/><path d="M32.25,47.22a.35.35,0,0,1-.25-.6.36.36,0,0,1,.6.25.34.34,0,0,1-.33.35h-.02Z" style="fill:#fff"/><path d="M26,38a.35.35,0,0,1-.25-.6.36.36,0,0,1,.6.25.34.34,0,0,1-.33.35H26Z" style="fill:#fff"/><path d="M29.5,35.72a.348.348,0,0,1-.24-.1.358.358,0,0,1-.11-.25.332.332,0,0,1,.11-.25.369.369,0,0,1,.49,0,.363.363,0,0,1,.1.25.34.34,0,0,1-.33.35H29.5Z" style="fill:#fff"/><path d="M10.25,29.72a.35.35,0,0,1-.25-.6.369.369,0,0,1,.49,0,.332.332,0,0,1,.11.25.34.34,0,0,1-.33.35h-.02Z" style="fill:#fff"/><path d="M5.75,31.72a.35.35,0,0,1-.25-.6.361.361,0,0,1,.49,0,.332.332,0,0,1,.11.25.369.369,0,0,1-.1.25A.391.391,0,0,1,5.75,31.72Z" style="fill:#fff"/><path d="M2.25,35.47a.391.391,0,0,1-.25-.1.359.359,0,0,1,0-.5.369.369,0,0,1,.5,0,.354.354,0,0,1,.1.25.329.329,0,0,1-.1.24A.358.358,0,0,1,2.25,35.47Z" style="fill:#fff"/><path d="M16.75,42.22a.34.34,0,0,1-.35-.33h0v-.02a.332.332,0,0,1,.11-.25.35.35,0,0,1,.59.25.391.391,0,0,1-.1.25A.369.369,0,0,1,16.75,42.22Z" style="fill:#fff"/><path d="M12.5,36.22a.34.34,0,0,1-.35-.33h0v-.02a.332.332,0,0,1,.11-.25.369.369,0,0,1,.49,0,.363.363,0,0,1,.1.25.391.391,0,0,1-.1.25A.369.369,0,0,1,12.5,36.22Z" style="fill:#fff"/><path d="M26.25,30.47a.35.35,0,0,1-.25-.6.369.369,0,0,1,.5,0,.35.35,0,0,1-.25.6Z" style="fill:#fff"/><path d="M39,31a.35.35,0,0,1-.25-.6.369.369,0,0,1,.5,0,.359.359,0,0,1,0,.5A.369.369,0,0,1,39,31Z" style="fill:#fff"/><path d="M38,33a.35.35,0,0,1-.25-.6.369.369,0,0,1,.5,0A.35.35,0,0,1,38,33Z" style="fill:#fff"/><path d="M27.75,42.22a.35.35,0,0,1-.25-.6.369.369,0,0,1,.5,0,.35.35,0,0,1-.25.6Z" style="fill:#fff"/><path d="M6.25,20.72a.35.35,0,0,1-.25-.6.369.369,0,0,1,.5,0,.35.35,0,0,1-.25.6Z" style="fill:#fff"/><path d="M9.5,19a.35.35,0,0,1-.25-.6.36.36,0,0,1,.6.25.34.34,0,0,1-.33.35H9.5Z" style="fill:#fff"/><path d="M11.5,23.72a.34.34,0,0,1-.35-.33h0v-.02a.332.332,0,0,1,.11-.25.369.369,0,0,1,.49,0,.363.363,0,0,1,.1.25.391.391,0,0,1-.1.25A.369.369,0,0,1,11.5,23.72Z" style="fill:#fff"/><path d="M2.75,26a.391.391,0,0,1-.25-.1.359.359,0,0,1,0-.5.38.38,0,0,1,.5,0,.359.359,0,0,1,0,.5A.391.391,0,0,1,2.75,26Z" style="fill:#fff"/><path d="M64,29.72a.348.348,0,0,1-.24-.1.358.358,0,0,1-.11-.25.391.391,0,0,1,.1-.25.36.36,0,0,1,.6.25.34.34,0,0,1-.33.35H64Z" style="fill:#fff"/><path d="M69.25,30a.34.34,0,0,1-.35-.33h0v-.02a.339.339,0,0,1,.11-.25.369.369,0,0,1,.49,0,.363.363,0,0,1,.1.25.391.391,0,0,1-.1.25A.369.369,0,0,1,69.25,30Z" style="fill:#fff"/><path d="M1.25,9.22A.391.391,0,0,1,1,9.12a.359.359,0,0,1,0-.5.38.38,0,0,1,.5,0,.359.359,0,0,1,0,.5A.391.391,0,0,1,1.25,9.22Z" style="fill:#fff"/><path d="M16.25,6.22a.34.34,0,0,1-.35-.33h0V5.87a.369.369,0,0,1,.1-.25.38.38,0,0,1,.5,0,.35.35,0,0,1-.25.6Z" style="fill:#fff"/><path d="M3.5,6.22a.35.35,0,0,1-.25-.6.36.36,0,0,1,.6.25.34.34,0,0,1-.33.35H3.5Z" style="fill:#fff"/><path d="M12.5,14.47a.35.35,0,0,1-.25-.6.36.36,0,0,1,.6.25.34.34,0,0,1-.33.35H12.5Z" style="fill:#fff"/><path d="M18.25,19.47a.34.34,0,0,1-.35-.33h0v-.02a.369.369,0,0,1,.1-.25.36.36,0,0,1,.6.25.34.34,0,0,1-.33.35h-.02Z" style="fill:#fff"/><path d="M21,37.22a.34.34,0,0,1-.35-.33h0v-.02a.345.345,0,0,1,.59-.25.358.358,0,0,1,.11.25.34.34,0,0,1-.33.35H21Z" style="fill:#fff"/><path d="M.5,44.47a.391.391,0,0,1-.25-.1.391.391,0,0,1-.1-.25.332.332,0,0,1,.11-.25.369.369,0,0,1,.49,0,.363.363,0,0,1,.1.25.391.391,0,0,1-.1.25A.391.391,0,0,1,.5,44.47Z" style="fill:#fff"/><path d="M67.75,66.22a.34.34,0,0,1-.35-.33h0v-.02a.332.332,0,0,1,.11-.25.369.369,0,0,1,.49,0,.363.363,0,0,1,.1.25.34.34,0,0,1-.33.35h-.02Z" style="fill:#fff"/><path d="M59.5,70a.391.391,0,0,1-.25-.1.354.354,0,0,1-.1-.25.391.391,0,0,1,.1-.25.369.369,0,0,1,.5,0,.363.363,0,0,1,.1.25.369.369,0,0,1-.1.25A.391.391,0,0,1,59.5,70Z" style="fill:#fff"/><path d="M40.25,68.22a.35.35,0,0,1-.25-.6.369.369,0,0,1,.5,0,.359.359,0,0,1,0,.5A.369.369,0,0,1,40.25,68.22Z" style="fill:#fff"/><path d="M4.25,60.22a.35.35,0,0,1-.25-.6.36.36,0,0,1,.6.25.34.34,0,0,1-.33.35H4.25Z" style="fill:#fff"/><path d="M26.25,59.72a.35.35,0,0,1-.25-.6.36.36,0,0,1,.6.25.34.34,0,0,1-.33.35h-.02Z" style="fill:#fff"/><path d="M37,48.72a.34.34,0,0,1-.35-.33h0v-.02a.35.35,0,0,1,.6-.25.359.359,0,0,1,0,.5A.369.369,0,0,1,37,48.72Z" style="fill:#fff"/><path d="M8.5,40.47a.35.35,0,0,1-.25-.6.36.36,0,0,1,.6.25.34.34,0,0,1-.33.35H8.5Z" style="fill:#fff"/><path d="M52,38.22a.358.358,0,0,1-.25-.11.348.348,0,0,1-.1-.24.332.332,0,0,1,.11-.25.369.369,0,0,1,.49,0,.363.363,0,0,1,.1.25.34.34,0,0,1-.33.35H52Z" style="fill:#fff"/><path d="M60.5,46.22a.34.34,0,0,1-.35-.33h0v-.02a.332.332,0,0,1,.11-.25.369.369,0,0,1,.49,0,.363.363,0,0,1,.1.25.34.34,0,0,1-.33.35H60.5Z" style="fill:#fff"/><path d="M51,66.47a.35.35,0,0,1-.25-.6.369.369,0,0,1,.5,0,.391.391,0,0,1,.1.25.354.354,0,0,1-.1.25A.391.391,0,0,1,51,66.47Z" style="fill:#fff"/><path d="M39.75,38a.35.35,0,0,1-.25-.6.36.36,0,0,1,.6.25.34.34,0,0,1-.33.35h-.02Z" style="fill:#fff"/><path d="M27.25,13.72a.35.35,0,0,1-.25-.6.36.36,0,0,1,.6.25.34.34,0,0,1-.33.35h-.02Z" style="fill:#fff"/><path d="M19.5,26.72a.34.34,0,0,1-.35-.33h0v-.02a.345.345,0,0,1,.59-.25.358.358,0,0,1,.11.25.34.34,0,0,1-.33.35H19.5Z" style="fill:#fff"/><path d="M11.5,2a.354.354,0,0,1-.25-.6.38.38,0,0,1,.5,0,.35.35,0,0,1-.25.6Z" style="fill:#fff"/><path d="M55,4a.34.34,0,0,1-.35-.33h0V3.65a.332.332,0,0,1,.11-.25.369.369,0,0,1,.49,0,.363.363,0,0,1,.1.25.34.34,0,0,1-.33.35H55Z" style="fill:#fff"/><path d="M47,70a.391.391,0,0,1-.25-.1.369.369,0,0,1-.1-.25.391.391,0,0,1,.1-.25.36.36,0,0,1,.6.25.34.34,0,0,1-.33.35H47Z" style="fill:#fff"/><path d="M4.5,40.47a.34.34,0,0,1-.35-.33h0v-.02a.332.332,0,0,1,.11-.25.369.369,0,0,1,.49,0,.363.363,0,0,1,.1.25.34.34,0,0,1-.33.35H4.5Z" style="fill:#fff"/><path d="M68.5,13.47a.35.35,0,0,1-.25-.6.369.369,0,0,1,.5,0,.359.359,0,0,1,0,.5A.391.391,0,0,1,68.5,13.47Z" style="fill:#fff"/><path d="M23,14.22a.35.35,0,0,1-.25-.6.36.36,0,0,1,.6.25.34.34,0,0,1-.33.35H23Z" style="fill:#fff"/><path d="M20.25,17.47a.35.35,0,0,1-.25-.6.369.369,0,0,1,.5,0,.35.35,0,0,1-.25.6Z" style="fill:#fff"/><path d="M14.5,17.47a.34.34,0,0,1-.35-.33h0v-.02a.332.332,0,0,1,.11-.25.369.369,0,0,1,.49,0,.363.363,0,0,1,.1.25.34.34,0,0,1-.33.35H14.5Z" style="fill:#fff"/><path d="M5.75,12a.35.35,0,0,1-.25-.6.361.361,0,0,1,.49,0,.332.332,0,0,1,.11.25.34.34,0,0,1-.33.35H5.75Z" style="fill:#fff"/><path d="M6.75,3a.371.371,0,0,1-.24-.1.358.358,0,0,1-.11-.25.391.391,0,0,1,.1-.25.36.36,0,0,1,.6.25A.342.342,0,0,1,6.766,3Z" style="fill:#fff"/><path d="M9.75,8.47a.35.35,0,0,1-.25-.6.36.36,0,0,1,.6.25.34.34,0,0,1-.33.35H9.75Z" style="fill:#fff"/><path d="M14,8.47a.34.34,0,0,1-.35-.33h0V8.12a.332.332,0,0,1,.11-.25.369.369,0,0,1,.49,0,.363.363,0,0,1,.1.25.34.34,0,0,1-.33.35H14Z" style="fill:#fff"/><path d="M25.5,7.22a.35.35,0,0,1-.25-.6.36.36,0,0,1,.6.25.34.34,0,0,1-.33.35H25.5Z" style="fill:#fff"/><path d="M36.75,7.72a.35.35,0,0,1-.25-.6.369.369,0,0,1,.5,0,.35.35,0,0,1-.25.6Z" style="fill:#fff"/><path d="M37.25,4.47a.34.34,0,0,1-.35-.33h0V4.12a.329.329,0,0,1,.1-.25.35.35,0,0,1,.59.25.34.34,0,0,1-.33.35h-.01Z" style="fill:#fff"/><path d="M43,2.47a.354.354,0,0,1-.25-.6.369.369,0,0,1,.5,0,.361.361,0,0,1,0,.5A.419.419,0,0,1,43,2.47Z" style="fill:#fff"/><path d="M49.25,8.47a.391.391,0,0,1-.25-.1.359.359,0,0,1,0-.5.369.369,0,0,1,.5,0,.35.35,0,0,1-.25.6Z" style="fill:#fff"/><path d="M45.75,9.47a.35.35,0,0,1-.25-.6.369.369,0,0,1,.5,0,.359.359,0,0,1,0,.5A.369.369,0,0,1,45.75,9.47Z" style="fill:#fff"/><path d="M35.5,11.22a.34.34,0,0,1-.35-.33h0v-.02a.369.369,0,0,1,.1-.25.36.36,0,0,1,.6.25.34.34,0,0,1-.33.35H35.5Z" style="fill:#fff"/><path d="M39,15.22a.35.35,0,0,1-.25-.6.36.36,0,0,1,.6.25.34.34,0,0,1-.33.35H39Z" style="fill:#fff"/><path d="M24.5,18.22a.35.35,0,0,1-.25-.6.36.36,0,0,1,.6.25.34.34,0,0,1-.33.35H24.5Z" style="fill:#fff"/><path d="M8,27.47a.35.35,0,0,1-.25-.6.36.36,0,0,1,.6.25.34.34,0,0,1-.33.35H8Z" style="fill:#fff"/><path d="M15.75,32a.35.35,0,0,1-.25-.6.38.38,0,0,1,.5,0,.35.35,0,0,1-.25.6Z" style="fill:#fff"/><path d="M10.25,33.72a.34.34,0,0,1-.35-.33h0v-.02a.332.332,0,0,1,.11-.25.369.369,0,0,1,.49,0,.363.363,0,0,1,.1.25.369.369,0,0,1-.1.25A.391.391,0,0,1,10.25,33.72Z" style="fill:#fff"/><path d="M5,37.22a.35.35,0,0,1-.25-.6.38.38,0,0,1,.5,0,.369.369,0,0,1,.1.25.34.34,0,0,1-.33.35H5Z" style="fill:#fff"/><path d="M3,20.72a.391.391,0,0,1-.25-.1.359.359,0,0,1,0-.5.38.38,0,0,1,.5,0,.359.359,0,0,1,0,.5A.391.391,0,0,1,3,20.72Z" style="fill:#fff"/><path d="M20.25,31a.34.34,0,0,1-.35-.33h0v-.02a.332.332,0,0,1,.11-.25.35.35,0,0,1,.59.25.34.34,0,0,1-.33.35h-.02Z" style="fill:#fff"/><path d="M17.25,35.72a.35.35,0,0,1-.25-.6.369.369,0,0,1,.5,0,.35.35,0,0,1-.25.6Z" style="fill:#fff"/><path d="M15.75,39.22a.34.34,0,0,1-.35-.33h0v-.02a.332.332,0,0,1,.11-.25.369.369,0,0,1,.49,0,.363.363,0,0,1,.1.25.391.391,0,0,1-.1.25A.369.369,0,0,1,15.75,39.22Z" style="fill:#fff"/><path d="M12.5,41.47a.34.34,0,0,1-.35-.33h0v-.02a.332.332,0,0,1,.11-.25.369.369,0,0,1,.49,0,.363.363,0,0,1,.1.25.34.34,0,0,1-.33.35H12.5Z" style="fill:#fff"/><path d="M12.5,46.72a.34.34,0,0,1-.35-.33h0v-.02a.332.332,0,0,1,.11-.25.369.369,0,0,1,.49,0,.363.363,0,0,1,.1.25.34.34,0,0,1-.33.35H12.5Z" style="fill:#fff"/><path d="M5.5,48.72a.35.35,0,0,1-.25-.6.38.38,0,0,1,.5,0,.35.35,0,0,1-.25.6Z" style="fill:#fff"/><path d="M10.75,54.72a.35.35,0,0,1-.25-.6.38.38,0,0,1,.5,0,.35.35,0,0,1-.25.6Z" style="fill:#fff"/><path d="M15.25,58.72a.35.35,0,0,1-.25-.6.369.369,0,0,1,.5,0,.35.35,0,0,1-.25.6Z" style="fill:#fff"/><path d="M5.75,63.72a.35.35,0,0,1-.25-.6.38.38,0,0,1,.5,0,.363.363,0,0,1,.1.25.34.34,0,0,1-.33.35H5.75Z" style="fill:#fff"/><path d="M2,62.22a.391.391,0,0,1-.25-.1.359.359,0,0,1,0-.5.369.369,0,0,1,.49,0,.339.339,0,0,1,.11.25.391.391,0,0,1-.1.25A.391.391,0,0,1,2,62.22Z" style="fill:#fff"/><path d="M8.75,68.22a.35.35,0,0,1-.25-.6.36.36,0,0,1,.6.25.391.391,0,0,1-.1.25A.369.369,0,0,1,8.75,68.22Z" style="fill:#fff"/><path d="M13.25,69.72a.35.35,0,0,1-.25-.6.38.38,0,0,1,.5,0,.35.35,0,0,1-.25.6Z" style="fill:#fff"/><path d="M21.25,68.72a.34.34,0,0,1-.35-.33h0v-.02a.332.332,0,0,1,.11-.25.35.35,0,0,1,.59.25.34.34,0,0,1-.33.35h-.02Z" style="fill:#fff"/><path d="M22.75,66a.35.35,0,0,1-.25-.6.369.369,0,0,1,.5,0,.359.359,0,0,1,0,.5A.369.369,0,0,1,22.75,66Z" style="fill:#fff"/><path d="M22,60.22a.35.35,0,0,1-.25-.6.38.38,0,0,1,.5,0,.359.359,0,0,1,0,.5A.369.369,0,0,1,22,60.22Z" style="fill:#fff"/><path d="M24,57.72a.34.34,0,0,1-.35-.33h0v-.02a.369.369,0,0,1,.1-.25.38.38,0,0,1,.5,0,.369.369,0,0,1,.1.25.391.391,0,0,1-.1.25A.369.369,0,0,1,24,57.72Z" style="fill:#fff"/><path d="M26,48a.35.35,0,0,1-.25-.6.369.369,0,0,1,.5,0A.35.35,0,0,1,26,48Z" style="fill:#fff"/><path d="M25.5,43.72a.35.35,0,0,1-.25-.6.369.369,0,0,1,.5,0,.35.35,0,0,1-.25.6Z" style="fill:#fff"/><path d="M32,31.22a.34.34,0,0,1-.35-.33h0v-.02a.332.332,0,0,1,.11-.25.35.35,0,0,1,.59.25.34.34,0,0,1-.33.35H32Z" style="fill:#fff"/><path d="M34,28a.34.34,0,0,1-.35-.33h0v-.02a.354.354,0,0,1,.1-.25.369.369,0,0,1,.5,0,.359.359,0,0,1,0,.5A.369.369,0,0,1,34,28Z" style="fill:#fff"/><path d="M41.5,26a.35.35,0,0,1-.25-.6.369.369,0,0,1,.5,0,.35.35,0,0,1-.25.6Z" style="fill:#fff"/><path d="M42.75,21a.358.358,0,0,1-.25-.11.329.329,0,0,1-.1-.24.391.391,0,0,1,.1-.25.369.369,0,0,1,.5,0,.391.391,0,0,1,.1.25.339.339,0,0,1-.11.25A.348.348,0,0,1,42.75,21Z" style="fill:#fff"/><path d="M36.25,19.47a.391.391,0,0,1-.25-.1.363.363,0,0,1-.1-.25.31.31,0,0,1,.1-.24.35.35,0,0,1,.495,0h0l.005,0a.35.35,0,0,1-.25.6Z" style="fill:#fff"/><path d="M27.5,22.47a.35.35,0,0,1-.25-.6.369.369,0,0,1,.5,0,.35.35,0,0,1-.25.6Z" style="fill:#fff"/><path d="M51.75,22.22a.332.332,0,0,1-.25-.11.348.348,0,0,1-.1-.24.391.391,0,0,1,.1-.25.36.36,0,0,1,.6.25.391.391,0,0,1-.1.25A.369.369,0,0,1,51.75,22.22Z" style="fill:#fff"/><path d="M43,18a.369.369,0,0,1-.25-.1.359.359,0,0,1,0-.5.38.38,0,0,1,.5,0A.35.35,0,0,1,43,18Z" style="fill:#fff"/><path d="M50.25,18.22a.369.369,0,0,1-.25-.1.347.347,0,0,1,.506-.474.339.339,0,0,1-.236.574h-.02Z" style="fill:#fff"/><path d="M59.25,17.47a.34.34,0,0,1-.35-.33h0v-.02a.332.332,0,0,1,.11-.25.369.369,0,0,1,.49,0,.363.363,0,0,1,.1.25.34.34,0,0,1-.33.35h-.02Z" style="fill:#fff"/><path d="M58,14.22a.369.369,0,0,1-.25-.1.347.347,0,0,1,.506-.474.339.339,0,0,1-.236.574H58Z" style="fill:#fff"/><path d="M61.25,11.22a.34.34,0,0,1-.35-.33h0v-.02a.332.332,0,0,1,.11-.25.361.361,0,0,1,.49,0,.31.31,0,0,1,.1.24.34.34,0,0,1-.33.35h-.02Z" style="fill:#fff"/><path d="M58.5,7.72a.391.391,0,0,1-.25-.1.354.354,0,0,1-.1-.25.31.31,0,0,1,.1-.24.35.35,0,0,1,.6.24.34.34,0,0,1-.33.35H58.5Z" style="fill:#fff"/><path d="M59.75,5a.339.339,0,0,1-.25-.11.348.348,0,0,1-.1-.24.332.332,0,0,1,.11-.25.369.369,0,0,1,.49,0,.363.363,0,0,1,.1.25.34.34,0,0,1-.33.35h-.02Z" style="fill:#fff"/><path d="M67.25,6.22a.391.391,0,0,1-.25-.1.363.363,0,0,1-.1-.25.369.369,0,0,1,.1-.25.38.38,0,0,1,.5,0,.35.35,0,0,1-.25.6Z" style="fill:#fff"/><path d="M70.5,8.72a.391.391,0,0,1-.25-.1.363.363,0,0,1-.1-.25.345.345,0,0,1,.59-.25.358.358,0,0,1,.11.25.34.34,0,0,1-.33.35H70.5Z" style="fill:#fff"/><path d="M65.5,10a.34.34,0,0,1-.35-.33h0V9.65a.369.369,0,0,1,.1-.25.38.38,0,0,1,.5,0,.35.35,0,0,1-.25.6Z" style="fill:#fff"/><path d="M60,24a.35.35,0,0,1-.25-.6.369.369,0,0,1,.5,0A.35.35,0,0,1,60,24Z" style="fill:#fff"/><path d="M55.25,24a.35.35,0,0,1-.25-.6.38.38,0,0,1,.5,0,.35.35,0,0,1-.25.6Z" style="fill:#fff"/><path d="M55.25,19a.339.339,0,0,1-.25-.11.348.348,0,0,1-.1-.24.332.332,0,0,1,.11-.25.369.369,0,0,1,.49,0,.363.363,0,0,1,.1.25.34.34,0,0,1-.33.35h-.02Z" style="fill:#fff"/><path d="M64.75,26a.34.34,0,0,1-.35-.33h0v-.02a.332.332,0,0,1,.11-.25.369.369,0,0,1,.49,0,.363.363,0,0,1,.1.25.34.34,0,0,1-.33.35h-.02Z" style="fill:#fff"/><path d="M57.5,31a.332.332,0,0,1-.25-.11.348.348,0,0,1-.1-.24.332.332,0,0,1,.11-.25.369.369,0,0,1,.49,0,.363.363,0,0,1,.1.25.34.34,0,0,1-.33.35H57.5Z" style="fill:#fff"/><path d="M52.5,33a.358.358,0,0,1-.25-.11.348.348,0,0,1-.1-.24.332.332,0,0,1,.11-.25.369.369,0,0,1,.49,0,.363.363,0,0,1,.1.25.34.34,0,0,1-.33.35H52.5Z" style="fill:#fff"/><path d="M47.25,34a.358.358,0,0,1-.25-.11.348.348,0,0,1-.1-.24.332.332,0,0,1,.11-.25.369.369,0,0,1,.49,0,.363.363,0,0,1,.1.25.34.34,0,0,1-.33.35h-.02Z" style="fill:#fff"/><path d="M44,39.47a.358.358,0,0,1-.25-.11.348.348,0,0,1-.1-.24.391.391,0,0,1,.1-.25.35.35,0,0,1,.6.25.332.332,0,0,1-.11.25A.348.348,0,0,1,44,39.47Z" style="fill:#fff"/><path d="M33.75,41.72a.35.35,0,0,1-.25-.6.369.369,0,0,1,.5,0,.35.35,0,0,1-.25.6Z" style="fill:#fff"/><path d="M40.5,48.22a.35.35,0,0,1-.25-.6.361.361,0,0,1,.49,0,.347.347,0,0,1-.22.6Z" style="fill:#fff"/><path d="M45.5,52.47a.34.34,0,0,1-.35-.33h0v-.02a.332.332,0,0,1,.11-.25.35.35,0,0,1,.59.25.34.34,0,0,1-.33.35H45.5Z" style="fill:#fff"/><path d="M46.25,57a.35.35,0,1,1-.01-.7.354.354,0,0,1,.25.1.358.358,0,0,1,.11.25.34.34,0,0,1-.33.35h-.02Z" style="fill:#fff"/><path d="M41.75,59.72a.348.348,0,0,1-.24-.1.358.358,0,0,1-.11-.25.391.391,0,0,1,.1-.25.369.369,0,0,1,.5,0,.35.35,0,0,1-.25.6Z" style="fill:#fff"/><path d="M39.75,63a.35.35,0,0,1-.25-.6.369.369,0,0,1,.5,0,.359.359,0,0,1,0,.5A.369.369,0,0,1,39.75,63Z" style="fill:#fff"/><path d="M35.75,63a.34.34,0,0,1-.35-.33h0v-.02a.332.332,0,0,1,.11-.25.35.35,0,0,1,.59.25.34.34,0,0,1-.33.35h-.02Z" style="fill:#fff"/><path d="M36.25,53a.391.391,0,0,1-.25-.1.354.354,0,0,1-.1-.25.391.391,0,0,1,.1-.25.359.359,0,0,1,.5,0,.31.31,0,0,1,.1.24.34.34,0,0,1-.33.35h-.02Z" style="fill:#fff"/><path d="M29.75,63.72a.348.348,0,0,1-.24-.1.358.358,0,0,1-.11-.25.332.332,0,0,1,.11-.25.369.369,0,0,1,.49,0,.363.363,0,0,1,.1.25.34.34,0,0,1-.33.35h-.02Z" style="fill:#fff"/><path d="M31.25,68.72a.35.35,0,0,1-.25-.6.369.369,0,0,1,.5,0,.35.35,0,0,1-.25.6Z" style="fill:#fff"/><path d="M36.75,71.22a.391.391,0,0,1-.25-.1.369.369,0,0,1-.1-.25.332.332,0,0,1,.11-.25.369.369,0,0,1,.49,0,.363.363,0,0,1,.1.25.369.369,0,0,1-.1.25A.391.391,0,0,1,36.75,71.22Z" style="fill:#fff"/><path d="M62.75,57.22a.34.34,0,0,1-.35-.33h0v-.02a.332.332,0,0,1,.11-.25.369.369,0,0,1,.49,0,.363.363,0,0,1,.1.25.34.34,0,0,1-.33.35h-.02Z" style="fill:#fff"/><path d="M59.75,51a.332.332,0,0,1-.25-.11.347.347,0,0,1,.49-.49.358.358,0,0,1,.11.25.391.391,0,0,1-.1.25A.369.369,0,0,1,59.75,51Z" style="fill:#fff"/><path d="M54.25,50.72a.391.391,0,0,1-.25-.1.369.369,0,0,1-.1-.25.35.35,0,0,1,.7-.01.354.354,0,0,1-.1.25A.339.339,0,0,1,54.25,50.72Z" style="fill:#fff"/><path d="M54.5,42a.358.358,0,0,1-.25-.11.329.329,0,0,1-.1-.24.391.391,0,0,1,.1-.25.369.369,0,0,1,.5,0,.391.391,0,0,1,.1.25.339.339,0,0,1-.11.25A.348.348,0,0,1,54.5,42Z" style="fill:#fff"/><path d="M62.25,42.47a.35.35,0,0,1-.25-.6.369.369,0,0,1,.5,0,.35.35,0,0,1-.25.6Z" style="fill:#fff"/><path d="M66.75,47.72a.348.348,0,0,1-.24-.1.358.358,0,0,1-.11-.25.391.391,0,0,1,.1-.25.361.361,0,0,1,.49,0,.319.319,0,0,1,.11.25.34.34,0,0,1-.33.35h-.02Z" style="fill:#fff"/><path d="M69.25,54.47a.348.348,0,0,1-.24-.1.358.358,0,0,1-.11-.25.391.391,0,0,1,.1-.25.36.36,0,0,1,.6.25.34.34,0,0,1-.33.35h-.02Z" style="fill:#fff"/><path d="M63.25,62a.348.348,0,0,1-.24-.1.358.358,0,0,1-.11-.25.391.391,0,0,1,.1-.25.361.361,0,0,1,.49,0,.319.319,0,0,1,.11.25.34.34,0,0,1-.33.35h-.02Z" style="fill:#fff"/><path d="M70,61.22a.34.34,0,0,1-.35-.33h0v-.02a.332.332,0,0,1,.11-.25.369.369,0,0,1,.49,0,.363.363,0,0,1,.1.25.34.34,0,0,1-.33.35H70Z" style="fill:#fff"/><path d="M64.5,65.72a.35.35,0,0,1-.25-.6.359.359,0,0,1,.5,0,.348.348,0,0,1,.1.24.34.34,0,0,1-.33.35H64.5Z" style="fill:#fff"/><path d="M65.5,68.47a.35.35,0,0,1-.25-.6.369.369,0,0,1,.5,0,.35.35,0,0,1-.25.6Z" style="fill:#fff"/><path d="M62.25,70.47a.34.34,0,0,1-.35-.33h0v-.02a.339.339,0,0,1,.11-.25.361.361,0,0,1,.49,0,.31.31,0,0,1,.1.24.34.34,0,0,1-.33.35h-.02Z" style="fill:#fff"/><path d="M52.5,70a.35.35,0,0,1-.25-.6.36.36,0,0,1,.6.25.391.391,0,0,1-.1.25A.369.369,0,0,1,52.5,70Z" style="fill:#fff"/><path d="M44.5,66.72a.339.339,0,0,1-.25-.11.348.348,0,0,1-.1-.24.332.332,0,0,1,.11-.25.369.369,0,0,1,.49,0,.363.363,0,0,1,.1.25.34.34,0,0,1-.33.35H44.5Z" style="fill:#fff"/><path d="M28.25,71.47a.391.391,0,0,1-.25-.1.363.363,0,0,1-.1-.25.332.332,0,0,1,.11-.25.35.35,0,0,1,.59.25.332.332,0,0,1-.11.25A.348.348,0,0,1,28.25,71.47Z" style="fill:#fff"/><path d="M2.75,29.72a.391.391,0,0,1-.25-.1.359.359,0,0,1,0-.5.38.38,0,0,1,.5,0,.359.359,0,0,1,0,.5A.391.391,0,0,1,2.75,29.72Z" style="fill:#fff"/><path d="M13,5.22a.358.358,0,0,1-.25-.11.31.31,0,0,1-.1-.24.369.369,0,0,1,.1-.25.36.36,0,0,1,.6.25.332.332,0,0,1-.11.25A.348.348,0,0,1,13,5.22Z" style="fill:#fff"/><path d="M70,34.72a.34.34,0,0,1-.35-.33h0v-.02a.332.332,0,0,1,.11-.25.369.369,0,0,1,.49,0,.363.363,0,0,1,.1.25.34.34,0,0,1-.33.35H70Z" style="fill:#fff"/><path d="M71,41.47a.35.35,0,0,1-.25-.6.369.369,0,0,1,.5,0,.35.35,0,0,1-.25.6Z" style="fill:#fff"/><path d="M.75,52a.391.391,0,0,1-.25-.1.391.391,0,0,1-.1-.25.332.332,0,0,1,.11-.25.369.369,0,0,1,.49,0,.363.363,0,0,1,.1.25.391.391,0,0,1-.1.25A.391.391,0,0,1,.75,52Z" style="fill:#fff"/><path d="M71.75,23.72a.35.35,0,0,1-.25-.6.38.38,0,0,1,.5,0,.35.35,0,0,1-.25.6Z" style="fill:#fff"/><path d="M68.75,26.72a.35.35,0,0,1-.25-.6.369.369,0,0,1,.5,0,.391.391,0,0,1,.1.25.354.354,0,0,1-.1.25A.391.391,0,0,1,68.75,26.72Z" style="fill:#fff"/><path d="M68.25,60.47a.34.34,0,0,1-.35-.33h0v-.02a.369.369,0,0,1,.1-.25.38.38,0,0,1,.5,0,.35.35,0,0,1-.25.6Z" style="fill:#fff"/><path d="M71.25,68.47a.35.35,0,0,1-.25-.6.369.369,0,0,1,.5,0,.391.391,0,0,1,.1.25.354.354,0,0,1-.1.25A.391.391,0,0,1,71.25,68.47Z" style="fill:#fff"/><path d="M.25,58A.391.391,0,0,1,0,57.9a.359.359,0,0,1,0-.5.38.38,0,0,1,.5,0,.359.359,0,0,1,0,.5A.391.391,0,0,1,.25,58Z" style="fill:#fff"/><path d="M2.5,71.47a.391.391,0,0,1-.25-.1.347.347,0,1,1,.6-.25.391.391,0,0,1-.1.25A.391.391,0,0,1,2.5,71.47Z" style="fill:#fff"/><path d="M70,24.22a.34.34,0,0,1-.35-.33h0v-.02a.332.332,0,0,1,.11-.25.369.369,0,0,1,.49,0,.363.363,0,0,1,.1.25.34.34,0,0,1-.33.35H70Z" style="fill:#fff"/><path d="M1,17a.391.391,0,0,1-.25-.1.359.359,0,0,1,0-.5.38.38,0,0,1,.5,0,.359.359,0,0,1,0,.5A.391.391,0,0,1,1,17Z" style="fill:#fff"/><path d="M17.75,13.27a.65.65,0,0,1-.65-.65h0a.661.661,0,0,1,.19-.46.68.68,0,0,1,.92,0,.65.65,0,0,1-.46,1.11Z" style="fill:#fff"/><path d="M29,11.27a.661.661,0,0,1-.46-.19.681.681,0,0,1-.19-.46.661.661,0,0,1,.19-.46.67.67,0,0,1,.92,0,.661.661,0,0,1,.19.46A.65.65,0,0,1,29,11.27Z" style="fill:#fff"/><path d="M29,3.77a.65.65,0,0,1-.65-.65h0a.639.639,0,0,1,.19-.46.68.68,0,0,1,.92,0,.649.649,0,0,1,0,.919h0A.682.682,0,0,1,29,3.77Z" style="fill:#fff"/><path d="M40,10.77a.65.65,0,0,1-.65-.65h0a.661.661,0,0,1,.19-.46.68.68,0,0,1,.92,0,.631.631,0,0,1,.19.46.681.681,0,0,1-.19.46A.661.661,0,0,1,40,10.77Z" style="fill:#fff"/><path d="M44.75,12.27a.61.61,0,0,1-.46-.2.64.64,0,0,1-.19-.45.661.661,0,0,1,.19-.46.68.68,0,0,1,.92,0,.631.631,0,0,1,.19.46.61.61,0,0,1-.2.46A.6.6,0,0,1,44.75,12.27Z" style="fill:#fff"/><path d="M47,23.27a.65.65,0,0,1-.46-1.11.68.68,0,0,1,.92,0A.65.65,0,0,1,47,23.27Z" style="fill:#fff"/><path d="M54.5,7.27a.641.641,0,0,1-.5-.19.649.649,0,0,1,0-.919h0a.68.68,0,0,1,.92,0,.639.639,0,0,1,.19.46.661.661,0,0,1-.19.46A.641.641,0,0,1,54.5,7.27Z" style="fill:#fff"/><path d="M63.75,7a.65.65,0,0,1-.46-1.11.68.68,0,0,1,.92,0A.65.65,0,0,1,63.75,7Z" style="fill:#fff"/><path d="M64.75,3a.661.661,0,0,1-.46-.19.681.681,0,0,1-.19-.46.661.661,0,0,1,.19-.46.65.65,0,0,1,1.11.46.63.63,0,0,1-.18.45A.67.67,0,0,1,64.75,3Z" style="fill:#fff"/><path d="M69.25,18.52a.65.65,0,0,1-.46-1.11.67.67,0,0,1,.92,0,.65.65,0,0,1-.46,1.11Z" style="fill:#fff"/><path d="M7.75,47.52a.639.639,0,0,1-.46-.19.681.681,0,0,1-.19-.46.661.661,0,0,1,.19-.46.68.68,0,0,1,.92,0,.661.661,0,0,1,.19.46.681.681,0,0,1-.19.46A.639.639,0,0,1,7.75,47.52Z" style="fill:#fff"/><path d="M4.75,57.27a.639.639,0,0,1-.46-.19.649.649,0,0,1,0-.919h0a.67.67,0,0,1,.92,0,.649.649,0,0,1,0,.919h0A.639.639,0,0,1,4.75,57.27Z" style="fill:#fff"/><path d="M2,67.52a.661.661,0,0,1-.46-.19.681.681,0,0,1-.19-.46.661.661,0,0,1,.19-.46.68.68,0,0,1,.92,0,.661.661,0,0,1,.19.46.681.681,0,0,1-.19.46A.661.661,0,0,1,2,67.52Z" style="fill:#fff"/><path d="M17.5,70.27a.661.661,0,0,1-.46-.19.681.681,0,0,1-.19-.46.661.661,0,0,1,.19-.46.68.68,0,0,1,.92,0,.661.661,0,0,1,.19.46.681.681,0,0,1-.19.46A.661.661,0,0,1,17.5,70.27Z" style="fill:#fff"/><path d="M19,62.77a.65.65,0,0,1-.65-.65h0a.639.639,0,0,1,.19-.46.67.67,0,0,1,.92,0,.661.661,0,0,1,.19.46.681.681,0,0,1-.19.46A.661.661,0,0,1,19,62.77Z" style="fill:#fff"/><path d="M20.75,45.77a.65.65,0,0,1-.65-.65h0a.639.639,0,0,1,.19-.46.67.67,0,0,1,.92,0,.661.661,0,0,1,.19.46.681.681,0,0,1-.19.46A.639.639,0,0,1,20.75,45.77Z" style="fill:#fff"/><path d="M28.25,51.52a.65.65,0,0,1-.46-1.11.67.67,0,0,1,.92,0,.661.661,0,0,1,.19.46.681.681,0,0,1-.19.46A.639.639,0,0,1,28.25,51.52Z" style="fill:#fff"/><path d="M33.75,60.77a.65.65,0,0,1-.65-.65h0a.639.639,0,0,1,.19-.46.68.68,0,0,1,.92,0,.631.631,0,0,1,.19.46.639.639,0,0,1-.19.46A.661.661,0,0,1,33.75,60.77Z" style="fill:#fff"/><path d="M34,67.27a.639.639,0,0,1-.46-.19.649.649,0,0,1,0-.919h0a.67.67,0,0,1,.92,0,.649.649,0,0,1,0,.919h0A.661.661,0,0,1,34,67.27Z" style="fill:#fff"/><path d="M41.5,55.52a.65.65,0,0,1-.5-1.11.68.68,0,0,1,.92,0,.65.65,0,0,1-.46,1.11Z" style="fill:#fff"/><path d="M52,60.27a.65.65,0,0,1-.46-1.11.68.68,0,0,1,.92,0A.65.65,0,0,1,52,60.27Z" style="fill:#fff"/><path d="M54.75,65.77a.661.661,0,0,1-.46-.19.681.681,0,0,1-.19-.46.639.639,0,0,1,.19-.46.68.68,0,0,1,.92,0,.639.639,0,0,1,.19.46.681.681,0,0,1-.19.46A.661.661,0,0,1,54.75,65.77Z" style="fill:#fff"/><path d="M25,25a.661.661,0,0,1-.46-.19.681.681,0,0,1-.19-.46.661.661,0,0,1,.19-.46.68.68,0,0,1,.92,0,.661.661,0,0,1,.19.46.681.681,0,0,1-.19.46A.661.661,0,0,1,25,25Z" style="fill:#fff"/><path d="M35,23.77a.639.639,0,0,1-.46-.19.649.649,0,0,1,0-.919h0a.68.68,0,0,1,.92,0A.65.65,0,0,1,35,23.77Z" style="fill:#fff"/><path d="M44.75,30a.65.65,0,0,1-.46-1.11.68.68,0,0,1,.92,0,.631.631,0,0,1,.19.46.61.61,0,0,1-.2.46A.621.621,0,0,1,44.75,30Z" style="fill:#fff"/><path d="M51.75,43.52a.65.65,0,0,1-.46-1.11.67.67,0,0,1,.92,0,.639.639,0,0,1,.19.46.65.65,0,0,1-.65.65Z" style="fill:#fff"/><path d="M66.75,52.27a.65.65,0,0,1-.65-.65h0a.61.61,0,0,1,.2-.46.68.68,0,0,1,.91,0,.65.65,0,0,1-.46,1.11Z" style="fill:#fff"/><path d="M47,48.27a.65.65,0,0,1-.46-1.11.68.68,0,0,1,.92,0A.65.65,0,0,1,47,48.27Z" style="fill:#fff"/><path d="M36.75,45a.661.661,0,0,1-.46-.19.681.681,0,0,1-.19-.46.661.661,0,0,1,.19-.46.68.68,0,0,1,.92,0,.661.661,0,0,1,.19.46.681.681,0,0,1-.19.46A.661.661,0,0,1,36.75,45Z" style="fill:#fff"/><path d="M16.75,29a.65.65,0,0,1-.46-1.11.68.68,0,0,1,.92,0,.649.649,0,0,1,0,.919h0A.64.64,0,0,1,16.75,29Z" style="fill:#fff"/><path d="M11,37.27a.65.65,0,0,1-.65-.65h0a.639.639,0,0,1,.19-.46.67.67,0,0,1,.92,0A.65.65,0,0,1,11,37.27Z" style="fill:#fff"/><path d="M67.25,31.27a.661.661,0,0,1-.46-.19.681.681,0,0,1-.19-.46.661.661,0,0,1,.19-.46.68.68,0,0,1,.92,0,.639.639,0,0,1,.19.46.65.65,0,0,1-.65.65Z" style="fill:#fff"/><path d="M7,16.27a.61.61,0,0,1-.46-.2.621.621,0,0,1-.19-.45.661.661,0,0,1,.19-.46.67.67,0,0,1,.92,0,.649.649,0,0,1,0,.919h0A.64.64,0,0,1,7,16.27Z" style="fill:#fff"/><path d="M8.25,5.77a.681.681,0,0,1-.46-.19.661.661,0,0,1-.19-.46.639.639,0,0,1,.19-.46.67.67,0,0,1,.92,0,.639.639,0,0,1,.19.46.65.65,0,0,1-.65.65Z" style="fill:#fff"/><path d="M3.25,3a.661.661,0,0,1-.46-.19.681.681,0,0,1-.19-.46.661.661,0,0,1,.19-.46.68.68,0,0,1,.92,0,.661.661,0,0,1,.19.46.681.681,0,0,1-.19.46A.661.661,0,0,1,3.25,3Z" style="fill:#fff"/><path d="M66.25,37.77a.65.65,0,0,1-.46-1.11.68.68,0,0,1,.92,0,.639.639,0,0,1,.19.46.661.661,0,0,1-.19.46A.639.639,0,0,1,66.25,37.77Z" style="fill:#fff"/><path d="M43.75,63.52a.661.661,0,0,1-.46-.19.681.681,0,0,1-.19-.46.661.661,0,0,1,.19-.46.67.67,0,0,1,.92,0,.661.661,0,0,1,.19.46.681.681,0,0,1-.19.46A.661.661,0,0,1,43.75,63.52Z" style="fill:#fff"/><path d="M25.5,70.52a.661.661,0,0,1-.46-.19.681.681,0,0,1-.19-.46.661.661,0,0,1,.19-.46.67.67,0,0,1,.92,0,.661.661,0,0,1,.19.46.681.681,0,0,1-.19.46A.661.661,0,0,1,25.5,70.52Z" style="fill:#fff"/><path d="M21.75,42.27a.661.661,0,0,1-.46-.19.649.649,0,0,1,0-.919h0a.68.68,0,0,1,.92,0,.65.65,0,0,1-.46,1.11Z" style="fill:#fff"/><path d="M23.75,29.52a.661.661,0,0,1-.46-.19.681.681,0,0,1-.19-.46.661.661,0,0,1,.19-.46.67.67,0,0,1,.92,0,.639.639,0,0,1,.19.46A.65.65,0,0,1,23.75,29.52Z" style="fill:#fff"/><path d="M41.25,35a.65.65,0,0,1-.46-1.11.68.68,0,0,1,.92,0,.661.661,0,0,1,.19.46.681.681,0,0,1-.19.46A.661.661,0,0,1,41.25,35Z" style="fill:#fff"/><path d="M67.25,44.27a.661.661,0,0,1-.46-.19.681.681,0,0,1-.19-.46.661.661,0,0,1,.19-.46.68.68,0,0,1,.92,0,.639.639,0,0,1,.19.46.65.65,0,0,1-.65.65Z" style="fill:#fff"/><path d="M53,15.52a.65.65,0,0,1-.46-1.11.68.68,0,0,1,.92,0,.661.661,0,0,1,.19.46.681.681,0,0,1-.19.46A.661.661,0,0,1,53,15.52Z" style="fill:#fff"/><path d="M33.75,16.52a.661.661,0,0,1-.46-.19.681.681,0,0,1-.19-.46.639.639,0,0,1,.19-.46.68.68,0,0,1,.92,0,.639.639,0,0,1,.19.46.65.65,0,0,1-.65.65Z" style="fill:#fff"/><path d="M12.5,19.77a.65.65,0,0,1-.5-1.11.67.67,0,0,1,.92,0,.65.65,0,0,1-.46,1.11Z" style="fill:#fff"/><path d="M49.25,5a.65.65,0,0,1-.46-1.11.68.68,0,0,1,.92,0A.65.65,0,0,1,49.25,5Z" style="fill:#fff"/><path d="M58.75,21.27a.65.65,0,0,1-.46-1.11.68.68,0,0,1,.92,0,.639.639,0,0,1,.19.46.65.65,0,0,1-.65.65Z" style="fill:#fff"/><path d="M67.25,57.77a.661.661,0,0,1-.46-.19.681.681,0,0,1-.19-.46.661.661,0,0,1,.19-.46.68.68,0,0,1,.92,0,.639.639,0,0,1,.19.46.65.65,0,0,1-.65.65Z" style="fill:#fff"/><path d="M5,70.27a.639.639,0,0,1-.46-.19.649.649,0,0,1,0-.919h0a.67.67,0,0,1,.92,0,.649.649,0,0,1,0,.919h0A.639.639,0,0,1,5,70.27Z" style="fill:#fff"/><path d="M2.5,13.77a.61.61,0,0,1-.46-.2.621.621,0,0,1-.19-.45A.662.662,0,0,1,2,12.66a.67.67,0,0,1,.92,0,.649.649,0,0,1,0,.919h0A.636.636,0,0,1,2.5,13.77Z" style="fill:#fff"/><path d="M16.25,3.77a.65.65,0,0,1-.46-1.11.68.68,0,0,1,.92,0,.65.65,0,0,1-.46,1.11Z" style="fill:#fff"/><path d="M40.25,5a.65.65,0,0,1-.46-1.11.68.68,0,0,1,.92,0,.639.639,0,0,1,.19.46.65.65,0,0,1-.65.65Z" style="fill:#fff"/><path d="M2.5,32.52a.641.641,0,0,1-.5-.19.649.649,0,0,1,0-.919H2a.68.68,0,0,1,.92,0,.65.65,0,0,1-.46,1.11Z" style="fill:#fff"/><path d="M7.25,25.52a.639.639,0,0,1-.46-.19.649.649,0,0,1,0-.919h0a.68.68,0,0,1,.92,0,.639.639,0,0,1,.19.46.661.661,0,0,1-.19.46A.636.636,0,0,1,7.25,25.52Z" style="fill:#fff"/><path d="M3.75,47.27a.661.661,0,0,1-.46-.19.681.681,0,0,1-.19-.46.661.661,0,0,1,.19-.46.67.67,0,0,1,.92,0,.661.661,0,0,1,.19.46.681.681,0,0,1-.19.46A.639.639,0,0,1,3.75,47.27Z" style="fill:#fff"/><path d="M10.75,51a.661.661,0,0,1-.46-.19.681.681,0,0,1-.19-.46.639.639,0,0,1,.19-.46.68.68,0,0,1,.92,0,.661.661,0,0,1,.19.46.681.681,0,0,1-.19.46A.661.661,0,0,1,10.75,51Z" style="fill:#fff"/><path d="M9.75,60.27a.639.639,0,0,1-.46-.19.649.649,0,0,1,0-.919h0a.68.68,0,0,1,.92,0,.649.649,0,0,1,0,.919h0A.639.639,0,0,1,9.75,60.27Z" style="fill:#fff"/><path d="M13.25,66.27a.661.661,0,0,1-.46-.19.681.681,0,0,1-.19-.46.639.639,0,0,1,.19-.46.67.67,0,0,1,.92,0,.661.661,0,0,1,.19.46.681.681,0,0,1-.19.46A.661.661,0,0,1,13.25,66.27Z" style="fill:#fff"/><path d="M21.75,53.77a.661.661,0,0,1-.46-.19.639.639,0,0,1-.19-.46.6.6,0,0,1,.2-.46.65.65,0,0,1,1.1.46.681.681,0,0,1-.19.46A.661.661,0,0,1,21.75,53.77Z" style="fill:#fff"/><path d="M31,38a.661.661,0,0,1-.46-.19.681.681,0,0,1-.19-.46.661.661,0,0,1,.19-.46.68.68,0,0,1,.92,0,.661.661,0,0,1,.19.46.681.681,0,0,1-.19.46A.661.661,0,0,1,31,38Z" style="fill:#fff"/><path d="M25.75,34.52a.65.65,0,0,1-.46-1.11.67.67,0,0,1,.92,0,.65.65,0,0,1-.46,1.11Z" style="fill:#fff"/><path d="M37,29a.661.661,0,0,1-.46-.19.681.681,0,0,1-.19-.46.661.661,0,0,1,.19-.46.68.68,0,0,1,.92,0,.661.661,0,0,1,.19.46.681.681,0,0,1-.19.46A.661.661,0,0,1,37,29Z" style="fill:#fff"/><path d="M61.5,17a.661.661,0,0,1-.46-.19.681.681,0,0,1-.19-.46.661.661,0,0,1,.19-.46.68.68,0,0,1,.92,0,.639.639,0,0,1,.19.46A.65.65,0,0,1,61.5,17Z" style="fill:#fff"/><path d="M61,27.52a.639.639,0,0,1-.46-.19.681.681,0,0,1-.19-.46.661.661,0,0,1,.19-.46.68.68,0,0,1,.92,0,.649.649,0,0,1,0,.919h0A.64.64,0,0,1,61,27.52Z" style="fill:#fff"/><path d="M58.5,57.52a.661.661,0,0,1-.46-.19.681.681,0,0,1-.19-.46.661.661,0,0,1,.19-.46.68.68,0,0,1,.92,0,.661.661,0,0,1,.19.46.681.681,0,0,1-.19.46A.661.661,0,0,1,58.5,57.52Z" style="fill:#fff"/><path d="M59,44.77a.639.639,0,0,1-.46-.19.649.649,0,0,1,0-.919h0a.68.68,0,0,1,.92,0,.649.649,0,0,1,0,.919h0A.639.639,0,0,1,59,44.77Z" style="fill:#fff"/><path d="M55.5,36a.661.661,0,0,1-.46-.19.681.681,0,0,1-.19-.46.661.661,0,0,1,.19-.46.68.68,0,0,1,.92,0,.661.661,0,0,1,.19.46.681.681,0,0,1-.19.46A.661.661,0,0,1,55.5,36Z" style="fill:#fff"/><path d="M69,71a.681.681,0,0,1-.46-.19.649.649,0,0,1,0-.919h0a.691.691,0,0,1,.92,0A.65.65,0,0,1,69,71Z" style="fill:#fff"/><path d="M60.5,66.27a.65.65,0,0,1-.5-1.11.67.67,0,0,1,.92,0,.639.639,0,0,1,.19.46.65.65,0,0,1-.65.65h.04Z" style="fill:#fff"/><path d="M44.25,71.77a.65.65,0,0,1-.46-1.11.68.68,0,0,1,.92,0,.65.65,0,0,1-.46,1.11Z" style="fill:#fff"/><path d="M24.25,1.52A.65.65,0,0,1,23.6.87h0a.639.639,0,0,1,.19-.46.67.67,0,0,1,.92,0,.661.661,0,0,1,.19.46.681.681,0,0,1-.19.46A.639.639,0,0,1,24.25,1.52Z" style="fill:#fff"/><path d="M-.25,23.72a.391.391,0,0,1-.25-.1.391.391,0,0,1-.1-.25.391.391,0,0,1,.1-.25.38.38,0,0,1,.5,0,.391.391,0,0,1,.1.25.391.391,0,0,1-.1.25A.391.391,0,0,1-.25,23.72Z" style="fill:#fff"/></pattern></defs><title>whirpool</title><g id="Layer_1-2" data-name="Layer 1-2"><path d="M349.38,36.411v59.13a4.671,4.671,0,0,1-4.67,4.66H286.4a4.671,4.671,0,0,1-4.67-4.66V36.411" style="fill:none;stroke:#fff;stroke-linecap:round;stroke-linejoin:round;stroke-width:1.1699999570846558px"/><line x1="267.91" y1="100.201" x2="365.88" y2="100.201" style="fill:none;stroke:#fff;stroke-linecap:round;stroke-linejoin:round;stroke-width:1.1699999570846558px"/><path d="M284.23,36.411v59a2.658,2.658,0,0,0,2.658,2.66H344.22a2.658,2.658,0,0,0,2.66-2.658v0h0v-59" style="fill:none;stroke:#fff;stroke-linecap:round;stroke-linejoin:round;stroke-width:1.1699999570846558px"/><line x1="281.73" y1="36.411" x2="349.38" y2="36.411" style="fill:none;stroke:#fff;stroke-linecap:round;stroke-linejoin:round;stroke-width:1.1699999570846558px"/><path d="M284.23,55.631v39.76a2.658,2.658,0,0,0,2.658,2.66H344.22a2.658,2.658,0,0,0,2.66-2.658v0h0V55.631Z" style="stroke:#fff;stroke-miterlimit:10;stroke-width:1.1699999570846558px;fill:url(#USGS_22_Gravel_Beach_4)"/><path d="M349.38,159.4v59.13a4.67,4.67,0,0,1-4.67,4.67H286.4a4.67,4.67,0,0,1-4.67-4.67h0V159.4" style="fill:none;stroke:#fff;stroke-linecap:round;stroke-linejoin:round;stroke-width:1.1699999570846558px"/><line x1="267.91" y1="223.201" x2="365.88" y2="223.201" style="fill:none;stroke:#fff;stroke-linecap:round;stroke-linejoin:round;stroke-width:1.1699999570846558px"/><path d="M284.23,159.4v59a2.658,2.658,0,0,0,2.658,2.66H344.22a2.658,2.658,0,0,0,2.66-2.658v0h0v-59" style="fill:none;stroke:#fff;stroke-linecap:round;stroke-linejoin:round;stroke-width:1.1699999570846558px"/><line x1="318.91" y1="159.401" x2="349.38" y2="159.401" style="fill:none;stroke:#fff;stroke-linecap:round;stroke-linejoin:round;stroke-width:1.1699999570846558px"/><line x1="281.73" y1="159.401" x2="316.3" y2="159.401" style="fill:none;stroke:#fff;stroke-linecap:round;stroke-linejoin:round;stroke-width:1.1699999570846558px"/><path d="M284.23,178.621v39.76a2.658,2.658,0,0,0,2.658,2.66H310.14l-19.55-42.42h49.88l-19.64,42.42h23.39a2.658,2.658,0,0,0,2.66-2.658v0h0v-39.76Z" style="fill:url(#USGS_22_Gravel_Beach_4-3)"/><line x1="284.23" y1="178.621" x2="346.88" y2="178.621" style="fill:none;stroke:#fff;stroke-linecap:round;stroke-linejoin:round;stroke-width:1.1699999570846558px"/><path d="M294.65,181.751c.46.83,2.33,2.26,6.13,3.71a61.447,61.447,0,0,0,11.41,2.93c25.94,4.42,33.07-2,15.4-3.21-22.42-1.6-39.91,5.55-25.91,10.92a49.179,49.179,0,0,0,8,2.16c27.38,5.41,27.3-2.4,14.65-2.94a37.355,37.355,0,0,0-5.16.17c-13.73,1.36-23.09,7.69-12.07,12a38.913,38.913,0,0,0,6,1.69c16.28,3.38,19.87-4.11,7.82-2.51-14.42,1.91-17.49,7.82-9.49,11.46" style="fill:none;stroke:#fff;stroke-linecap:round;stroke-linejoin:round;stroke-width:1.1699999570846558px"/><path d="M327.45,145.6c-3.67.21-7.69.33-11.9.33-17.3,0-31.32-2-31.32-4.47,0-1.23,3.51-2.35,9.17-3.16" style="fill:none;stroke:#fff;stroke-linecap:round;stroke-linejoin:round;stroke-width:1.1699999570846558px"/><polygon points="323.41 140.891 322.64 141.771 326.99 145.571 322.89 149.641 323.71 150.471 328.71 145.521 323.41 140.891" style="fill:#fff"/><path d="M321.87,137.091c14.27.41,25,2.21,25,4.37,0,1.22-3.39,2.32-8.9,3.12" style="fill:none;stroke:#fff;stroke-linecap:round;stroke-linejoin:round;stroke-width:1.1699999570846558px"/><path d="M305.56,137.231c3.14-.15,6.5-.23,10-.23h3.55" style="fill:none;stroke:#fff;stroke-linecap:round;stroke-linejoin:round;stroke-width:1.1699999570846558px"/><polygon points="309.57 141.951 310.35 141.071 306.01 137.251 310.14 133.201 309.32 132.371 304.29 137.291 309.57 141.951" style="fill:#fff"/><polyline points="316.53 178.481 323.4 123.521 320.83 123.191 313.89 178.621" style="fill:none;stroke:#fff;stroke-linecap:round;stroke-linejoin:round;stroke-width:1.1699999570846558px"/><path d="M349.38,266.261v59.13a4.67,4.67,0,0,1-4.67,4.67H286.4a4.669,4.669,0,0,1-4.67-4.668h0v-59.13" style="fill:none;stroke:#fff;stroke-linecap:round;stroke-linejoin:round;stroke-width:1.1699999570846558px"/><line x1="267.91" y1="330.061" x2="365.88" y2="330.061" style="fill:none;stroke:#fff;stroke-linecap:round;stroke-linejoin:round;stroke-width:1.1699999570846558px"/><path d="M284.23,266.261v59a2.658,2.658,0,0,0,2.658,2.66H344.22a2.658,2.658,0,0,0,2.66-2.658v0h0v-59" style="fill:none;stroke:#fff;stroke-linecap:round;stroke-linejoin:round;stroke-width:1.1699999570846558px"/><line x1="281.73" y1="266.261" x2="349.38" y2="266.261" style="fill:none;stroke:#fff;stroke-linecap:round;stroke-linejoin:round;stroke-width:1.1699999570846558px"/><path d="M284.23,285.481v39.76a2.658,2.658,0,0,0,2.658,2.66H344.22a2.658,2.658,0,0,0,2.66-2.658v0h0v-39.76Z" style="fill:none;stroke:#fff;stroke-linecap:round;stroke-linejoin:round;stroke-width:1.1699999570846558px"/><path d="M292.54,327.9s7.33-7.55,10.87-5.89,4.26-5.68,7.21-5.13,4.86-5.55,8.44-1.38,7.51.75,7.9,3.84,4.33,4.47,6.49,4.47,4.92,2.75,5.11,4.09" style="stroke:#aff150;stroke-miterlimit:10;stroke-width:1.1699999570846558px;fill:url(#USGS_22_Gravel_Beach_4)"/><path d="M281.38,49.631l-11.3-2.87h0a2.21,2.21,0,0,1,.52-4.35h10.78" style="fill:none;stroke:#fff;stroke-linecap:round;stroke-linejoin:round;stroke-width:1.1699999570846558px"/><path d="M349.72,49.631,361,46.761h0a2.21,2.21,0,0,0-.52-4.35H349.72" style="fill:none;stroke:#fff;stroke-linecap:round;stroke-linejoin:round;stroke-width:1.1699999570846558px"/><path d="M281.38,172.621l-11.3-2.87h0a2.21,2.21,0,0,1,.52-4.35h10.78" style="fill:none;stroke:#fff;stroke-linecap:round;stroke-linejoin:round;stroke-width:1.1699999570846558px"/><path d="M349.72,172.621l11.28-2.87h0a2.21,2.21,0,0,0-.52-4.35H349.72" style="fill:none;stroke:#fff;stroke-linecap:round;stroke-linejoin:round;stroke-width:1.1699999570846558px"/><path d="M281.38,279.481l-11.3-2.87h0a2.21,2.21,0,0,1,.52-4.35h10.78" style="fill:none;stroke:#fff;stroke-linecap:round;stroke-linejoin:round;stroke-width:1.1699999570846558px"/><path d="M349.72,279.481l11.28-2.87h0a2.21,2.21,0,0,0-.52-4.35H349.72" style="fill:none;stroke:#fff;stroke-linecap:round;stroke-linejoin:round;stroke-width:1.1699999570846558px"/><rect x="284.23" y="36.411" width="62.65" height="19.23" style="fill:#fff;opacity:0.5099999904632568;isolation:isolate"/><polyline points="313.89 178.731 284.23 178.731 284.23 159.511 316.3 159.511" style="fill:#fff;opacity:0.5099999904632568;isolation:isolate"/><polyline points="318.92 159.511 346.88 159.511 346.88 178.731 316.53 178.481" style="fill:#fff;opacity:0.5099999904632568;isolation:isolate"/><rect x="284.66" y="266.261" width="62.65" height="19.23" style="fill:#fff;opacity:0.5099999904632568;isolation:isolate"/><path d="M202.19,193.541v-35.33" style="fill:none;stroke:#fff;stroke-linecap:round;stroke-linejoin:round;stroke-width:2.3399999141693115px"/><path d="M202.19,200.621v83.81c-.14,12.46-16.51,17.95-16.51,17.95h0c-13.95,5.69-40.64,9.54-71.27,9.54s-57.33-3.85-71.27-9.54" style="fill:none;stroke:#fff;stroke-linecap:round;stroke-linejoin:round;stroke-width:2.3399999141693115px"/><path d="M26.57,193.541v-35.31" style="fill:none;stroke:#fff;stroke-linecap:round;stroke-linejoin:round;stroke-width:2.3399999141693115px"/><path d="M43.12,302.381s-16.37-5.49-16.51-17.95c-.08-6.51-.07-50.26-.05-83.81" style="fill:none;stroke:#fff;stroke-linecap:round;stroke-linejoin:round;stroke-width:2.3399999141693115px"/><path d="M150.12,139.921c-10.92-1.1-23-1.72-35.73-1.72-48.48,0-87.78,9-87.78,20s39.3,20,87.78,20c7.3,0,14.4-.2,21.19-.59q4-.229,7.89-.54c34.19-2.73,58.71-10.16,58.71-18.89,0-7.49-18-14-44.7-17.43" style="fill:none;stroke:#fff;stroke-linecap:round;stroke-linejoin:round;stroke-width:2.3399999141693115px"/><path d="M135.58,177.641l14.54-37.72L186,46.821a2,2,0,0,1,2.571-1.178l.049.018,2.9,1.11a2,2,0,0,1,1.2,2.561v0l-.026.066-35.21,91.42-14,36.32" style="fill:none;stroke:#fff;stroke-linecap:round;stroke-linejoin:round;stroke-width:2.3399999141693115px"/><path d="M72.93,101.921c-18.05-2.95-29.81-7.77-29.81-13.22,0-9,31.91-16.25,71.27-16.25,4.75,0,9.39.11,13.88.31" style="fill:none;stroke:#f5355f;stroke-linecap:round;stroke-linejoin:round;stroke-width:2.3399999141693115px"/><polygon points="66.97 91.071 65.09 92.481 72.05 101.701 62.34 107.971 63.61 109.941 75.44 102.311 66.97 91.071" style="fill:#f5355f;stroke:#f5355f;stroke-miterlimit:10"/><path d="M180,82.351c3.63,1.95,5.64,4.1,5.64,6.35,0,9-31.9,16.25-71.26,16.25-4.92,0-9.73-.12-14.37-.33" style="fill:none;stroke:#f5355f;stroke-linecap:round;stroke-linejoin:round;stroke-width:2.3399999141693115px"/><path d="M151.89,74.881a124.169,124.169,0,0,1,21.51,4.71" style="fill:none;stroke:#f5355f;stroke-linecap:round;stroke-linejoin:round;stroke-width:2.3399999141693115px"/><polygon points="158.1 85.581 159.94 84.131 152.77 75.071 162.33 68.581 161.01 66.641 149.37 74.541 158.1 85.581" style="fill:#f5355f;stroke:#f5355f;stroke-miterlimit:10"/><path d="M26.58,172.331h-9c-9,0-16.37,4.15-16.37,13.19v1.91c0,9,7.33,13.19,16.37,13.19H33a3.54,3.54,0,0,0,0-7.08H17.54c-5.12,0-9.28-1-9.28-6.1v-1.92c0-5.12,4.16-6.1,9.28-6.1h9" style="fill:none;stroke:#fff;stroke-linecap:round;stroke-linejoin:round;stroke-width:2.3399999141693115px"/><path d="M202.18,172.331h9c9,0,16.36,4.15,16.36,13.19v1.91c0,9-7.33,13.19-16.36,13.19H195.77a3.54,3.54,0,1,1,0-7.08h15.46c5.11,0,9.27-1,9.27-6.1v-1.92c0-5.12-4.16-6.1-9.27-6.1h-9" style="fill:none;stroke:#fff;stroke-linecap:round;stroke-linejoin:round;stroke-width:2.3399999141693115px"/><path d="M150.12,139.921l-14.54,37.72c-6.79.39-13.89.59-21.19.59-48.48,0-87.78-9-87.78-20s39.3-20,87.78-20A351.156,351.156,0,0,1,150.12,139.921Z" style="fill:#fff;opacity:0.5099999904632568;isolation:isolate"/><path d="M202.18,158.211c0,8.73-24.52,16.16-58.71,18.89l14-36.32C184.15,144.211,202.18,150.721,202.18,158.211Z" style="fill:#fff;opacity:0.5099999904632568;isolation:isolate"/></g></svg>