<svg xmlns="http://www.w3.org/2000/svg" viewBox="0 0 160.87 227.39"><defs><style>.cls-1{fill:none;stroke:#17306d;stroke-linecap:round;stroke-linejoin:round;stroke-width:2px;}.cls-2{font-size:24px;fill:#17306d;font-family:FilsonPro-Regular, Filson Pro;}.cls-3{letter-spacing:-0.01em;}</style></defs><g id="Layer_2" data-name="Layer 2"><g id="Layer_1-2" data-name="Layer 1"><rect class="cls-1" x="1" y="1" width="158.87" height="225.39" rx="31.02"/><path class="cls-1" d="M115.07,78.61c0-5.67-15.51-10.27-34.63-10.27S45.8,72.94,45.8,78.61"/><path class="cls-1" d="M45.8,78.61c0,5.67,15.51,10.27,34.64,10.27s34.63-4.6,34.63-10.27"/><path class="cls-1" d="M105.3,190.39c0-4.07-11.13-7.37-24.86-7.37s-24.87,3.3-24.87,7.37"/><path class="cls-1" d="M51.5,191c0,4.74,13,8.58,28.94,8.58s28.93-3.84,28.93-8.58"/><path class="cls-1" d="M115.07,78.61,114.16,97a7,7,0,0,0,.77,3.59l.77,1.49a13.66,13.66,0,0,1-.48,13.31L114,117.51a7.13,7.13,0,0,0-1,3.33L109.37,191"/><path class="cls-1" d="M45.8,78.61,46.72,97a7.09,7.09,0,0,1-.78,3.59l-.78,1.53a13.59,13.59,0,0,0,.45,13.25l1.33,2.21a7.15,7.15,0,0,1,1,3.3L51.5,191"/><path class="cls-1" d="M96.77,127.24c5.67-1,10.26-2.44,13.1-4.2"/><path class="cls-1" d="M52.53,123.87c5.71,2.8,16.07,4.67,27.91,4.67A104.46,104.46,0,0,0,91,128"/><path class="cls-1" d="M110.5,103.44c2.34-1.36,3.65-2.9,3.65-4.53"/><path class="cls-1" d="M70.83,108.49c3,.27,6.27.41,9.61.41A95.78,95.78,0,0,0,100.11,107"/><path class="cls-1" d="M46.72,98.91c0,3.07,4.67,5.82,12,7.65"/><text class="cls-2" transform="translate(49.72 43.61)">pi<tspan class="cls-3" x="21.6" y="0">n</tspan><tspan x="35.95" y="0">ta</tspan></text></g></g></svg>