<svg xmlns="http://www.w3.org/2000/svg" viewBox="0 0 160.87 227.39"><defs><style>.cls-1{fill:none;stroke:#17306d;stroke-linecap:round;stroke-linejoin:round;stroke-width:2px;}.cls-2{font-size:18px;fill:#17306d;font-family:FilsonPro-Regular, Filson Pro;}.cls-3{letter-spacing:-0.01em;}.cls-4{letter-spacing:-0.01em;}.cls-5{letter-spacing:-0.02em;}.cls-6{letter-spacing:-0.01em;}</style></defs><g id="Layer_2" data-name="Layer 2"><g id="Layer_1-2" data-name="Layer 1"><rect class="cls-1" x="1" y="1" width="158.87" height="225.39" rx="31.02"/><path class="cls-1" d="M54.48,72.38c0,4.61,11.62,8.34,26,8.34s26-3.73,26-8.34"/><path class="cls-1" d="M101.09,203.71c0-3.38-9.25-6.13-20.65-6.13s-20.65,2.75-20.65,6.13"/><path class="cls-1" d="M54.48,72.38c0,4.61,11.62,8.34,26,8.34s26-3.73,26-8.34"/><path class="cls-1" d="M75.37,107c1.65.08,3.34.13,5.07.13,12.68,0,23.68-2.33,29.09-5.72"/><path class="cls-1" d="M52.49,102.1c3.41,1.8,8.46,3.25,14.48,4.13"/><path class="cls-1" d="M54.86,70.89c-3.43,6.51-7.5,16.31-7.09,25.77.73,17,12.13,30.9,14,55.31.68,9.08-5.38,38-5.38,52.24h0c0,3.93,10.76,7.12,24,7.12s24-3.19,24-7.12h0c0-14.26-6.07-43.16-5.38-52.24,1.84-24.41,13.24-38.28,14-55.31.4-9.46-3.66-19.26-7.1-25.77l.38,1.49c0-4.6-11.62-8.34-25.95-8.34s-26,3.74-26,8.34"/><text class="cls-2" transform="translate(41.39 27.33)"><tspan class="cls-3">c</tspan><tspan x="9.32" y="0">ali</tspan><tspan class="cls-4" x="30.15" y="0">c</tspan><tspan x="39.46" y="0">e da </tspan><tspan class="cls-5" x="8.4" y="21.6">w</tspan><tspan x="22.89" y="21.6">ei</tspan><tspan class="cls-6" x="38.22" y="21.6">z</tspan><tspan x="48.1" y="21.6">en</tspan></text></g></g></svg>