<svg xmlns="http://www.w3.org/2000/svg" viewBox="0 0 208.39 242.92"><defs><style>.cls-1{fill:#17306d;opacity:0.5;}.cls-2,.cls-3{fill:none;stroke:#17306d;stroke-linecap:round;stroke-linejoin:round;}.cls-2{stroke-width:1.76px;}.cls-3{stroke-width:1.17px;}</style></defs><g id="Layer_2" data-name="Layer 2"><g id="Layer_1-2" data-name="Layer 1"><path class="cls-1" d="M204.68,87.64,192.91,66.2c-2.53-4.52-4.38-40-4.38-45.17l2-4.48c.45-.93-.12-3.88-.12-4.92V11.4l.51-.65,2.64-.47L192.08,4c-.62-2.26-6.89-3.14-15.39-3.14S162,1.82,161.31,4l-1.52,6.26,2.64.47.47.6-.07.28a24.51,24.51,0,0,0,1.25,5.69l1.8,3.71c0,5.19-3.67,40.65-6.2,45.17l-3.82,7c-1.25-12.17-2-28.51-2-31.9l2-4.48c.45-.93-.12-3.88-.12-4.92v-.25l.49-.63,2.64-.47-1.52-6.26c-.62-2.26-6.89-3.14-15.38-3.14s-14.74.94-15.39,3.14l-1.52,6.26,2.64.47.48.62-.06.26a24,24,0,0,0,1.25,5.69l1.79,3.71c0,4-2.16,25.83-4.31,37.8l-6.62-12c-2.53-4.52-4.38-40-4.38-45.17l2.05-4.49c.45-.93-.12-3.88-.12-4.92v-.32l1.07-1.36,2.64-.47L120,4c-.61-2.26-6.88-3.14-15.38-3.14S89.84,1.82,89.2,4l-1.53,6.26,2.65.47.19.25-.35,1.43a24.69,24.69,0,0,0,1.24,5.7l1.8,3.71C93.2,27,89.53,62.49,87,67l-3.27,6c-1.24-12.15-2-28.34-2-31.71l2-4.48c.45-.93-.12-3.88-.12-4.92v-.25l.49-.63,2.64-.47-1.52-6.26c-.62-2.26-6.89-3.14-15.39-3.14s-14.74.94-15.38,3.14L53,30.51l2.64.47.48.62-.06.26a24.5,24.5,0,0,0,1.24,5.69l1.8,3.71c0,3.82-2,24.05-4,36.26L48.79,66.2c-2.53-4.52-4.38-40-4.38-45.17l2-4.48c.46-.93-.12-3.88-.12-4.92v-.37l.41-.51,2.64-.47L47.85,4C47.24,1.76,41,.88,32.47.88S17.73,1.82,17.09,4l-1.53,6.26,2.64.47.56.71-.05.17A24.51,24.51,0,0,0,20,17.32L21.76,21c0,5.19-3.67,40.65-6.2,45.17L3.79,87.64A24.49,24.49,0,0,0,1,99.08v106a19.12,19.12,0,0,0,2.13,8.77l1.16,2.25c0,3.15,12.5,5.7,27.92,5.7q3.13,0,6.08-.14v3.65a19.12,19.12,0,0,0,2.13,8.77l1.16,2.25c0,3.14,12.5,5.7,27.93,5.7s27.92-2.56,27.92-5.7l1.17-2.25a19.12,19.12,0,0,0,2.13-8.77v-2.74c1,0,1.94,0,2.93,0q3.5,0,6.74-.17v2.88a19.12,19.12,0,0,0,2.13,8.77l1.16,2.25c0,3.14,12.51,5.7,27.93,5.7s27.93-2.56,27.93-5.7l1.16-2.25a19.12,19.12,0,0,0,2.13-8.77v-3.56c1.15,0,2.31,0,3.49,0,15.43,0,27.93-2.55,27.93-5.7l1.16-2.25a19.12,19.12,0,0,0,2.13-8.77v-106A24.49,24.49,0,0,0,204.68,87.64Z"/><path class="cls-2" d="M54.88,77.55,48.69,66.28c-2.53-4.52-5-41-5-46.21l1.8-3.71a16.79,16.79,0,0,0,.69-4.75"/><path class="cls-2" d="M18.56,11.61a16.78,16.78,0,0,0,.68,4.75L21,20.07c0,5.18-3,41.69-5.57,46.21L3.71,87.7A24.48,24.48,0,0,0,.88,99.13v106A19,19,0,0,0,3,213.87l1.16,2.25c0,3.15,12.5,5.7,27.91,5.7q3.2,0,6.18-.14"/><path class="cls-3" d="M38.26,21.11c-1.34.09-2.78.14-4.27.14s-2.92-.05-4.27-.14"/><path class="cls-3" d="M47.85,4c0,1.73-6.89,3.14-15.38,3.14S17.09,5.75,17.09,4"/><path class="cls-2" d="M15.56,10.28l2.64.47,2.27,2.88,3.28-1.71,2.72,2.49,3.08-2,2.92,2.26,2.92-2.26,3.09,2,2.72-2.5,3.27,1.72,2.27-2.88,2.64-.47L47.85,4C47.24,1.76,41,.88,32.47.88S17.73,1.82,17.09,4Z"/><path class="cls-2" d="M127,77.55,120.8,66.28c-2.53-4.52-5-41-5-46.21l1.79-3.71a16.79,16.79,0,0,0,.69-4.75"/><path class="cls-2" d="M100.67,221.77c1.15,0,2.33,0,3.52,0q3.19,0,6.18-.14"/><path class="cls-2" d="M90.67,11.61a16.79,16.79,0,0,0,.69,4.75l1.79,3.71c0,5.18-3,41.69-5.56,46.21l-4,7.2"/><path class="cls-3" d="M110.37,21.11c-1.34.09-2.78.14-4.27.14s-2.92-.05-4.26-.14"/><path class="cls-3" d="M120,4c0,1.73-6.88,3.14-15.38,3.14S89.2,5.75,89.2,4"/><path class="cls-2" d="M87.67,10.28l2.65.47,2.26,2.88,3.28-1.71,2.72,2.49,3.08-2,2.92,2.26,2.93-2.26,3.08,2,2.72-2.5,3.27,1.72,2.27-2.88,2.64-.47L120,4c-.61-2.26-6.88-3.14-15.38-3.14S89.84,1.82,89.2,4Z"/><path class="cls-2" d="M172.78,221.77c1.16,0,2.33,0,3.53,0,15.41,0,27.91-2.55,27.91-5.7l1.16-2.25a19,19,0,0,0,2.13-8.76v-106a24.48,24.48,0,0,0-2.83-11.43L192.91,66.28c-2.53-4.52-5-41-5-46.21l1.79-3.71a16.44,16.44,0,0,0,.69-4.75"/><path class="cls-2" d="M162.78,11.61a16.79,16.79,0,0,0,.69,4.75l1.79,3.71c0,5.18-3,41.69-5.56,46.21l-4,7.2"/><path class="cls-3" d="M182.49,21.11c-1.35.09-2.79.14-4.28.14s-2.92-.05-4.26-.14"/><path class="cls-3" d="M192.08,4c0,1.73-6.89,3.14-15.39,3.14S161.31,5.75,161.31,4"/><path class="cls-2" d="M159.79,10.28l2.64.47,2.26,2.88L168,11.92l2.72,2.49,3.08-2,2.92,2.26,2.93-2.26,3.08,2,2.72-2.5,3.27,1.72L191,10.75l2.64-.47L192.08,4c-.62-2.26-6.89-3.14-15.39-3.14S162,1.82,161.31,4Z"/><path class="cls-2" d="M128.06,31.84a16.78,16.78,0,0,0,.68,4.75l1.8,3.71c0,5.18-3,41.69-5.57,46.21l-11.76,21.42a24.49,24.49,0,0,0-2.84,11.43v106a19.17,19.17,0,0,0,2.13,8.76l1.17,2.25c0,3.15,12.49,5.7,27.91,5.7s27.91-2.55,27.91-5.7l1.16-2.25a19,19,0,0,0,2.13-8.76v-106A24.48,24.48,0,0,0,170,107.93L158.19,86.51c-2.53-4.52-5-41-5-46.21l1.8-3.71a16.78,16.78,0,0,0,.68-4.75"/><path class="cls-3" d="M147.76,41.34c-1.35.09-2.78.13-4.28.13s-2.92,0-4.26-.13"/><path class="cls-3" d="M157.35,24.25c0,1.73-6.89,3.14-15.38,3.14S126.58,26,126.58,24.25"/><path class="cls-2" d="M125.06,30.51l2.64.47L130,33.86l3.27-1.71L136,34.64l3.07-2L142,34.86l2.92-2.26,3.08,2,2.73-2.5L154,33.86,156.23,31l2.64-.47-1.52-6.26c-.62-2.26-6.89-3.14-15.38-3.14s-14.74.94-15.39,3.14Z"/><path class="cls-2" d="M55.94,31.84a16.79,16.79,0,0,0,.69,4.75l1.79,3.71c0,5.18-3,41.69-5.56,46.21L41.09,107.93a24.48,24.48,0,0,0-2.83,11.43v106a19,19,0,0,0,2.13,8.76l1.16,2.25c0,3.15,12.5,5.7,27.92,5.7s27.91-2.55,27.91-5.7l1.16-2.25a19,19,0,0,0,2.13-8.76v-106a24.48,24.48,0,0,0-2.83-11.43L86.07,86.51c-2.53-4.52-5-41-5-46.21l1.79-3.71a16.44,16.44,0,0,0,.69-4.75"/><path class="cls-3" d="M75.65,41.34c-1.35.09-2.79.13-4.28.13s-2.92,0-4.26-.13"/><path class="cls-3" d="M85.24,24.25c0,1.73-6.89,3.14-15.39,3.14S54.47,26,54.47,24.25"/><path class="cls-2" d="M53,30.51l2.64.47,2.26,2.88,3.28-1.71,2.72,2.49,3.08-2,2.92,2.26,2.93-2.26,3.08,2,2.72-2.5,3.27,1.72L84.12,31l2.64-.47-1.52-6.26c-.62-2.26-6.89-3.14-15.39-3.14s-14.73.94-15.38,3.14Z"/></g></g></svg>