<svg xmlns="http://www.w3.org/2000/svg" viewBox="0 0 424.36 424.36"><defs><style>.cls-1,.cls-2,.cls-6{fill:#17306d;}.cls-1{opacity:0.5;}.cls-2{opacity:0.51;}.cls-3,.cls-4,.cls-5,.cls-7{fill:none;stroke:#17306d;}.cls-3,.cls-5,.cls-7{stroke-linecap:round;stroke-linejoin:round;}.cls-3{stroke-width:1.17px;}.cls-4{stroke-miterlimit:10;}.cls-4,.cls-5,.cls-7{stroke-width:2.34px;}.cls-7{stroke-dasharray:0.6 5.99;}.cls-8{fill:#fff;}</style></defs><g id="Layer_2" data-name="Layer 2"><g id="Layer_1-2" data-name="Layer 1"><path class="cls-1" d="M188.38,385c.05,5.28,14.51,9.44,32.3,9.3s32.19-4.54,32.15-9.82l1.39-29.61c-.05-5.49-15.09-9.82-33.61-9.67s-33.5,4.72-33.46,10.21Z"/><path class="cls-2" d="M258.3,107.59c-.3-1.31-2-1.69-7.78-1.69h-4.8c-4.28,0-6.92.64-8,4l-3.91,12.66h0a10.74,10.74,0,0,0-3.81.93A17.18,17.18,0,0,0,228.75,154h0l3.59,38.33h9.8L245.72,154h0a17.17,17.17,0,0,0,5.19-25.32h0l7.87-14.09a2.47,2.47,0,0,0,.5-1.27h0S258.51,108.56,258.3,107.59Z"/><rect class="cls-3" x="0.59" y="0.59" width="423.19" height="423.19"/><path class="cls-4" d="M370.94.59c0,48,.05,123.36,0,129.43-.2,16.66-24.67,24-24.67,24h0c-20.08,7.34-57.85,12.39-101.53,12.75"/><path class="cls-4" d="M108.5.59q0,6.3,0,13.58h0c0,45.29,0,106.9.07,115.85.21,16.66,24.68,24,24.68,24h0c19.34,7.07,55.08,12,96.72,12.69"/><path class="cls-5" d="M250.9,128.72a17.17,17.17,0,1,1-20.9-5.19,10.74,10.74,0,0,1,3.81-.93"/><path class="cls-5" d="M259.27,113.36a2.47,2.47,0,0,1-.5,1.27l-11.28,20.18c-.39.69-2.36,1.24-4.39,1.24h-6.75c-2,0-3.53-.55-3.32-1.24l-1.3-3.89a23.05,23.05,0,0,1,.9-4.49l5.09-16.49c1.08-3.4,3.72-4,8-4h4.8c5.78,0,7.48.38,7.78,1.69.21,1,1,5.77,1,5.77"/><path class="cls-3" d="M245.83,111c-3.31.06-4.4-.22-5.29,3.42"/><polyline class="cls-5" points="245.72 154.04 242.13 192.37 232.33 192.37 228.74 154.04"/><path class="cls-5" d="M232.67,99.21c3.11-17.15,12.21-29.57,23-29.57,8.82,0,16.53,8.36,20.74,20.84a68.52,68.52,0,0,1,3.37,21.7,75.34,75.34,0,0,1-.42,7.9"/><polygon class="cls-6" points="270.27 111.59 272.1 110.13 279.28 119.17 287.77 111.35 289.36 113.08 279.01 122.6 270.27 111.59"/><ellipse class="cls-5" cx="220.06" cy="302.52" rx="40.53" ry="12.02" transform="translate(-2.43 1.79) rotate(-0.46)"/><path class="cls-5" d="M179.53,302.84l4.91,84.78c.05,5.94,16.34,10.63,36.39,10.47S257.09,393,257,387l3.55-84.84"/><path class="cls-3" d="M220.77,391a75,75,0,0,0,20.41-2.68,27.87,27.87,0,0,0,4.09-1.56"/><path class="cls-3" d="M199.47,388.44a56.46,56.46,0,0,0,10.06,2"/><line class="cls-5" x1="237.23" y1="213.23" x2="237.23" y2="213.52"/><line class="cls-7" x1="237.23" y1="219.52" x2="237.23" y2="269.25"/><line class="cls-5" x1="237.23" y1="272.25" x2="237.23" y2="272.54"/><polygon class="cls-6" points="227.66 264.79 229.37 263.19 237.23 271.64 245.09 263.19 246.8 264.79 237.23 275.08 227.66 264.79"/><path class="cls-3" d="M194.51,384.11c0-4.29,11.65-7.86,26.11-8s26.21,3.27,26.24,7.55"/><path class="cls-8" d="M220.69,345.23c18.52,0,33.53,4.4,33.53,9.82s-15,9.81-33.53,9.81-33.54-4.39-33.54-9.81,15-9.82,33.54-9.82m0-1.17c-16.83,0-34.71,3.85-34.71,11s17.88,11,34.71,11,34.7-3.85,34.7-11-17.88-11-34.7-11Z"/></g></g></svg>