<svg xmlns="http://www.w3.org/2000/svg" viewBox="0 0 366.79 414.78"><defs><style>.cls-1,.cls-2,.cls-9{fill:#17306d;}.cls-2{font-size:13.8px;}.cls-10,.cls-2{font-family:FilsonPro-Regular, Filson Pro;}.cls-3{letter-spacing:-0.01em;}.cls-4,.cls-6,.cls-7,.cls-8{fill:none;stroke:#17306d;}.cls-4,.cls-6,.cls-7{stroke-linecap:round;stroke-linejoin:round;}.cls-4,.cls-8{stroke-width:1.76px;}.cls-5{letter-spacing:-0.02em;}.cls-6{stroke-width:1.17px;}.cls-7{stroke-width:2.34px;stroke-dasharray:0.59 4.69;}.cls-8{stroke-miterlimit:10;}.cls-9{opacity:0.5;}.cls-10{font-size:17px;fill:#fff;}</style></defs><g id="Layer_2" data-name="Layer 2"><g id="Layer_1-2" data-name="Layer 1"><circle class="cls-1" cx="78.97" cy="261.61" r="11.27"/><text class="cls-2" transform="translate(112.23 20.83) rotate(0.41)">a<tspan class="cls-3" x="8.87" y="0">c</tspan><tspan x="16.02" y="0">qua</tspan></text><path class="cls-4" d="M16,45.49c1.21,7.85-1.21,13.14,1.1,22.27"/><path class="cls-4" d="M14.82,41.06c-.16.88-1.21,3.11,0,3.77s16.5,1.18,20,.79,9.82,1.12,14.56,1.27,8.12,1.28,8-.55-1-8.11-1-8.11c-2.42-.89-9.14.29-12.21.46C39.44,39,29.21,37.46,24.5,38,16.64,38.92,16.05,34,14.82,41.06Z"/><path class="cls-4" d="M54.05,47.27S56.54,53.84,56.53,69,69.38,88.42,42.72,87.06c-17.89-.92-30.83,2.47-29.95-8,.52-6.15,3.73-10,6.12-13.66,1.64-2.55,4.3-4.75,3.54-10.6"/><path class="cls-4" d="M33.33,70.72s-1.74-8.21,10.12-17.33"/><path class="cls-4" d="M43.39,62.09S45.3,75.51,35.66,81"/><text class="cls-2" transform="translate(15.69 20.84) rotate(0.41)">li<tspan class="cls-5" x="7.09" y="0">e</tspan><tspan x="15.02" y="0">vito</tspan></text><path class="cls-4" d="M118.24,174.92c0,3.51-15.73,6.26-35.35,6.25-.45,0-.9,0-1.35,0-6.5-.36-9.3,3.21-10,3.2-1.11,0-1.63-3.59-3.58-3.76-13.48-1.19-23-3.47-23-6.21,0-3.6,16.46-6.39,36.71-6.25S118.27,171.33,118.24,174.92Z"/><path class="cls-4" d="M118.14,189.47l-.21,30.39c0,3.59-16.46,6.39-36.71,6.25s-36.64-3.18-36.62-6.77l.32-44.94"/><line class="cls-4" x1="118.24" y1="174.92" x2="118.2" y2="181.12"/><path class="cls-4" d="M115.6,222.73c-1.14,3.76-16.06,6.64-34.28,6.51s-33.09-3.22-34.18-7"/><path class="cls-4" d="M118.21,179.83l47,.34c.66,0,.92,1.18,0,2.64-1.49,2.32-5.43,5.36-8.15,5.64-4.43.47-41.69.74-41.69.74l0-6.73s2.34-.31,2.82-1.34"/><line class="cls-6" x1="159.62" y1="183.47" x2="165.17" y2="183.51"/><line class="cls-6" x1="115.38" y1="183.15" x2="154.06" y2="183.43"/><path class="cls-7" d="M36.1,99.12c-.09,12.8,36.38,12.11,37,57.82"/><polygon class="cls-1" points="65.69 151.38 66.94 150.13 73.06 156.27 78.73 149.72 80.06 150.88 73.15 158.85 65.69 151.38"/><path class="cls-7" d="M133.35,99.81c-.09,12.8-38.47,11.58-39.83,57.28"/><polygon class="cls-1" points="86.7 150.91 88.05 149.78 93.61 156.42 99.83 150.38 101.06 151.64 93.48 159 86.7 150.91"/><path class="cls-4" d="M348.12,271.63c-16.27,20-38.39,28.86-51.57,19.8"/><path class="cls-4" d="M356.15,204.7c13.33,9.16,12.84,33.42-.44,56"/><line class="cls-8" x1="313.83" y1="175.11" x2="356.15" y2="204.7"/><path class="cls-4" d="M248.63,270.92c3.75,1.86,8.58,0,11,.85s9.85,3.83,13.88,3.53l23.07,16.13"/><path class="cls-1" d="M272.54,272.19a4.23,4.23,0,0,1-1.54-.45,5.18,5.18,0,0,1-2.06-1.88,4.23,4.23,0,0,1-.62-1.47v-.05s0,0,0-.06h0c.76.56,1.51,1.16,2.22,1.79s1.36,1.33,2,2a.06.06,0,0,1,0,.08h-.09Z"/><rect class="cls-4" x="329.63" y="229.41" width="13.29" height="51.65" rx="1.26" transform="translate(-65.6 384.55) rotate(-55.04)"/><path class="cls-4" d="M360.22,263.87l5.16,3.61a1,1,0,0,1,.26,1.47l-6.4,9.16a1.07,1.07,0,0,1-1.48.26l-5.16-3.61"/><path class="cls-4" d="M291,256.1s-22.08-.19-28.16,1C245,260.54,240,271.57,239.18,288.35c-.7,13.8-.4,57.85-.4,57.85"/><path class="cls-8" d="M243.94,313.6c42.84.61,77.06,8,77,16.86-.07,9-35.92,16.06-80.07,15.75S161,338.33,161,329.32c.06-8.85,34.64-15.81,77.7-15.76"/><path class="cls-8" d="M320.7,368.93c.13-21,.24-38.47.24-38.47"/><path class="cls-8" d="M320.39,414.77c.09-11.72.18-26,.27-39.4"/><path class="cls-8" d="M160.72,367.79c.16-21,.31-38.47.31-38.47"/><path class="cls-8" d="M160.37,413.64c.08-11.73.19-26,.29-39.4"/><path class="cls-8" d="M161.22,348.51l-8.23-.06c-8.22-.06-14.91,3.67-15,11.89v1.74c-.06,8.22,6.58,12,14.8,12.1l14.06.1a3.22,3.22,0,1,0,0-6.44l-14.06-.1c-4.65,0-8.43-1-8.39-5.61v-1.74c0-4.66,3.82-5.53,8.47-5.49l8.23.05"/><path class="cls-8" d="M320.47,349.64l8.23.06c8.22.06,14.86,3.88,14.8,12.1v1.74c-.06,8.22-6.75,11.95-15,11.89l-7.85-.06-6.21,0a3.22,3.22,0,1,1,.05-6.44l14.05.1c4.65,0,8.45-.84,8.48-5.49v-1.75c0-4.65-3.74-5.57-8.4-5.61l-8.22-.05"/><path class="cls-4" d="M16.33,37.24c14.16-4,18-1.69,28.15-1.77s11.64,1.1,11.88,2.76"/><path class="cls-8" d="M249.06,262.91c.6-2.51,1.09-4.81.54-5.55-9.09-12.19-6-35.81,8.41-56.77,16.46-24,41.45-35.36,55.82-25.48S326.5,212.4,310,236.35c-14.4,21-35.33,32.31-50,28.2-2-.55-9,6.42-11.4,6.3"/><path class="cls-9" d="M249.64,260.22c1.72-4.06-3.11-8.61-3.28-9-5.25-11.69.21-34,12.48-51.81,15.44-22.47,38.16-32.6,53-25.52,16.28,7.79,14.82,37.89-.63,60.36A94.37,94.37,0,0,1,291,256.1s-12.52-.34-23.74.33a61.48,61.48,0,0,0-8.56,1.64c-4.3,1-9.67,4.84-9.67,4.84"/><path class="cls-9" d="M238.78,346.19c-43.19-.54-77.82-8-77.75-16.87s34.64-15.81,77.7-15.76"/><path class="cls-9" d="M243.94,313.6c42.84.61,77.06,8,77,16.86s-34.25,15.73-77,15.76"/><path class="cls-4" d="M138.86,68.58a5.75,5.75,0,0,1-2.44,6"/><path class="cls-4" d="M143.17,70.18a9.82,9.82,0,0,1-19.64,0c0-8.24,9.82-21,9.82-26.74C133.35,49.14,143.17,61.94,143.17,70.18Z"/><path class="cls-4" d="M251.7,269.51c-6.23,0-7.36,13.61-7.36,24.3,0,13.92-.38,52.43-.38,52.43"/><path class="cls-9" d="M118.24,174.92c0,3.51-15.73,6.26-35.35,6.25-.45,0-.9,0-1.35,0-6.5-.36-9.3,3.21-10,3.2-1.11,0-1.63-3.59-3.58-3.76-13.48-1.19-23-3.47-23-6.21,0-3.6,16.46-6.39,36.71-6.25S118.27,171.33,118.24,174.92Z"/><path class="cls-6" d="M71.34,184.42s.7,6.25.7,13.8"/><path class="cls-6" d="M67.13,183c0,3.53,1.46,4.52,1.86,9.45s1.94,8.72,3.07,8.72,3-2.43,3.77-8.07,3.06-7.49,3.06-9.79"/><text class="cls-10" transform="translate(75.34 267.84) rotate(0.41)">1</text><circle class="cls-1" cx="296.55" cy="142.29" r="11.27"/><text class="cls-10" transform="translate(291.29 148.36) rotate(0.41)">2</text></g></g></svg>