<svg id="Layer_1" data-name="Layer 1" xmlns="http://www.w3.org/2000/svg" xmlns:xlink="http://www.w3.org/1999/xlink" viewBox="0 0 324.444 324.36"><defs><pattern id="USGS_22_Gravel_Beach_4" data-name="USGS 22 Gravel Beach 4" width="72" height="72" patternTransform="matrix(0.99, 0, 0, -0.99, -95.84, 883.97)" patternUnits="userSpaceOnUse" viewBox="0 0 72 72"><rect width="72" height="72" style="fill:none"/><rect width="72" height="72" style="fill:none"/><path d="M72.25,14a.35.35,0,0,0-.25.6.38.38,0,0,0,.5,0,.35.35,0,0,0-.25-.6Z" style="fill:#17306d"/><path d="M20.75,68.78a.391.391,0,0,0-.25.1.347.347,0,1,0,.6.25.342.342,0,0,0-.35-.35Z" style="fill:#17306d"/><path d="M19.75,63.53a.34.34,0,0,0-.35.33v.02a.332.332,0,0,0,.11.25.369.369,0,0,0,.49,0,.363.363,0,0,0,.1-.25.391.391,0,0,0-.1-.25A.369.369,0,0,0,19.75,63.53Z" style="fill:#17306d"/><path d="M20,61.28a.35.35,0,0,0-.25.6.369.369,0,0,0,.5,0,.35.35,0,0,0-.25-.6Z" style="fill:#17306d"/><path d="M15,61.28a.34.34,0,0,0-.35.33v.02a.369.369,0,0,0,.1.25.38.38,0,0,0,.5,0,.35.35,0,0,0-.25-.6Z" style="fill:#17306d"/><path d="M22.5,51.78a.35.35,0,0,0-.25.6.36.36,0,0,0,.6-.25.34.34,0,0,0-.33-.35Z" style="fill:#17306d"/><path d="M15,48.78a.34.34,0,0,0-.35.33v.02a.332.332,0,0,0,.11.25.369.369,0,0,0,.49,0,.363.363,0,0,0,.1-.25.34.34,0,0,0-.33-.35Z" style="fill:#17306d"/><path d="M13.75,47.78a.35.35,0,0,0-.25.6.36.36,0,0,0,.6-.25.391.391,0,0,0-.1-.25A.369.369,0,0,0,13.75,47.78Z" style="fill:#17306d"/><path d="M23.75,44.78a.34.34,0,0,0-.35.33v.02a.332.332,0,0,0,.11.25.369.369,0,0,0,.49,0,.391.391,0,0,0,.1-.25.348.348,0,0,0-.1-.24A.358.358,0,0,0,23.75,44.78Z" style="fill:#17306d"/><path d="M30.5,46a.35.35,0,0,0-.25.6.36.36,0,0,0,.6-.25.34.34,0,0,0-.33-.35Z" style="fill:#17306d"/><path d="M31,48.53a.34.34,0,0,0-.35.33v.02a.332.332,0,0,0,.11.25.35.35,0,0,0,.59-.25.391.391,0,0,0-.1-.25A.369.369,0,0,0,31,48.53Z" style="fill:#17306d"/><path d="M29,53.53a.35.35,0,0,0-.25.6.36.36,0,0,0,.6-.25.34.34,0,0,0-.33-.35Z" style="fill:#17306d"/><path d="M33.75,52a.35.35,0,0,0-.25.6.36.36,0,0,0,.6-.25.34.34,0,0,0-.33-.35Z" style="fill:#17306d"/><path d="M31.25,57a.35.35,0,0,0-.25.6.36.36,0,0,0,.6-.25.34.34,0,0,0-.33-.35Z" style="fill:#17306d"/><path d="M31.5,60a.35.35,0,0,0-.25.6.369.369,0,0,0,.5,0,.35.35,0,0,0-.25-.6Z" style="fill:#17306d"/><path d="M32,64.78a.35.35,0,0,0-.25.6.36.36,0,0,0,.6-.25.34.34,0,0,0-.33-.35Z" style="fill:#17306d"/><path d="M31.75,68.78a.342.342,0,0,0-.35.35.332.332,0,0,0,.11.25.35.35,0,0,0,.59-.25.342.342,0,0,0-.35-.35Z" style="fill:#17306d"/><path d="M33.75,70.53a.358.358,0,0,0-.25.11.339.339,0,0,0,.01.49.345.345,0,0,0,.59-.25.339.339,0,0,0-.11-.25A.348.348,0,0,0,33.75,70.53Z" style="fill:#17306d"/><path d="M41.25,64.78a.391.391,0,0,0-.25.1.354.354,0,0,0-.1.25.391.391,0,0,0,.1.25.351.351,0,0,0,.49,0,.358.358,0,0,0,.11-.25.34.34,0,0,0-.33-.35Z" style="fill:#17306d"/><path d="M45.25,65a.391.391,0,0,0-.25.1.347.347,0,1,0,.6.25.34.34,0,0,0-.33-.35Z" style="fill:#17306d"/><path d="M42.25,58.28a.34.34,0,0,0-.35.33v.02a.332.332,0,0,0,.11.25.35.35,0,0,0,.59-.25.34.34,0,0,0-.33-.35Z" style="fill:#17306d"/><path d="M46.75,57.53a.34.34,0,0,0-.35.33v.02a.332.332,0,0,0,.11.25.361.361,0,0,0,.49,0,.391.391,0,0,0,.1-.25.329.329,0,0,0-.1-.24A.358.358,0,0,0,46.75,57.53Z" style="fill:#17306d"/><path d="M46.75,55.53a.34.34,0,0,0-.35.33v.02a.332.332,0,0,0,.11.25.361.361,0,0,0,.49,0,.391.391,0,0,0,.1-.25.371.371,0,0,0-.1-.24A.358.358,0,0,0,46.75,55.53Z" style="fill:#17306d"/><path d="M38.75,51a.35.35,0,0,0-.25.6.361.361,0,0,0,.49,0,.347.347,0,0,0-.22-.6Z" style="fill:#17306d"/><path d="M50,58.28a.391.391,0,0,0-.25.1.359.359,0,0,0,0,.5.369.369,0,0,0,.5,0,.35.35,0,0,0-.25-.6Z" style="fill:#17306d"/><path d="M52,59.78a.358.358,0,0,0-.25.11.348.348,0,0,0-.1.24.332.332,0,0,0,.11.25.369.369,0,0,0,.49,0,.363.363,0,0,0,.1-.25.34.34,0,0,0-.33-.35Z" style="fill:#17306d"/><path d="M54.5,60.78a.358.358,0,0,0-.25.11.348.348,0,0,0-.1.24.332.332,0,0,0,.11.25.35.35,0,0,0,.59-.25.34.34,0,0,0-.33-.35Z" style="fill:#17306d"/><path d="M56.25,71a.376.376,0,0,0-.25.63.359.359,0,0,0,.5,0,.348.348,0,0,0,.1-.24.417.417,0,0,0-.35-.39Z" style="fill:#17306d"/><path d="M67.75,68.78a.342.342,0,0,0-.35.35.332.332,0,0,0,.11.25.369.369,0,0,0,.49,0,.363.363,0,0,0,.1-.25.391.391,0,0,0-.1-.25A.369.369,0,0,0,67.75,68.78Z" style="fill:#17306d"/><path d="M67.75,61.53a.358.358,0,0,0-.25.11.348.348,0,0,0-.1.24.391.391,0,0,0,.1.25.369.369,0,0,0,.5,0,.391.391,0,0,0,.1-.25.339.339,0,0,0-.11-.25A.348.348,0,0,0,67.75,61.53Z" style="fill:#17306d"/><path d="M64,59.53a.35.35,0,0,0-.25.6.36.36,0,0,0,.6-.25.34.34,0,0,0-.33-.35Z" style="fill:#17306d"/><path d="M65,56a.34.34,0,0,0-.35.33v.02a.369.369,0,0,0,.1.25.38.38,0,0,0,.5,0A.35.35,0,0,0,65,56Z" style="fill:#17306d"/><path d="M63.75,52a.358.358,0,0,0-.25.11.348.348,0,0,0-.1.24.391.391,0,0,0,.1.25.369.369,0,0,0,.5,0,.391.391,0,0,0,.1-.25.339.339,0,0,0-.11-.25A.348.348,0,0,0,63.75,52Z" style="fill:#17306d"/><path d="M66,52a.34.34,0,0,0-.35.33v.02a.332.332,0,0,0,.11.25.369.369,0,0,0,.49,0,.363.363,0,0,0,.1-.25.34.34,0,0,0-.33-.35Z" style="fill:#17306d"/><path d="M67.75,50.53a.35.35,0,0,0-.25.6.369.369,0,0,0,.5,0,.35.35,0,0,0-.25-.6Z" style="fill:#17306d"/><path d="M6.75,19.53a.35.35,0,0,0-.25.6.38.38,0,0,0,.5,0,.35.35,0,0,0-.25-.6Z" style="fill:#17306d"/><path d="M7,17.28a.35.35,0,0,0-.25.6.369.369,0,0,0,.5,0,.35.35,0,0,0-.25-.6Z" style="fill:#17306d"/><path d="M2,17.28a.391.391,0,0,0-.25.1.359.359,0,0,0,0,.5.38.38,0,0,0,.5,0,.359.359,0,0,0,0-.5A.391.391,0,0,0,2,17.28Z" style="fill:#17306d"/><path d="M9.5,7.78a.35.35,0,0,0-.25.6.36.36,0,0,0,.6-.25.34.34,0,0,0-.33-.35Z" style="fill:#17306d"/><path d="M.75,3.78a.391.391,0,0,0-.25.1.359.359,0,0,0,0,.5.38.38,0,0,0,.5,0,.359.359,0,0,0,0-.5A.391.391,0,0,0,.75,3.78Z" style="fill:#17306d"/><path d="M10.75.78a.35.35,0,0,0-.25.6.38.38,0,0,0,.5,0,.35.35,0,0,0-.25-.6Z" style="fill:#17306d"/><path d="M18,4.53a.34.34,0,0,0-.35.33v.02a.345.345,0,0,0,.59.25.358.358,0,0,0,.11-.25.34.34,0,0,0-.33-.35Z" style="fill:#17306d"/><path d="M16,9.53a.35.35,0,0,0-.25.6.369.369,0,0,0,.5,0,.35.35,0,0,0-.25-.6Z" style="fill:#17306d"/><path d="M19.25,14a.34.34,0,0,0-.35.33v.02a.332.332,0,0,0,.11.25.369.369,0,0,0,.49,0,.363.363,0,0,0,.1-.25.34.34,0,0,0-.33-.35Z" style="fill:#17306d"/><path d="M18.5,16a.34.34,0,0,0-.35.33v.02a.332.332,0,0,0,.11.25.369.369,0,0,0,.49,0,.363.363,0,0,0,.1-.25.34.34,0,0,0-.33-.35Z" style="fill:#17306d"/><path d="M16,17a.34.34,0,0,0-.35.33v.02a.332.332,0,0,0,.11.25.369.369,0,0,0,.49,0,.363.363,0,0,0,.1-.25.34.34,0,0,0-.33-.35Z" style="fill:#17306d"/><path d="M19,20.78a.34.34,0,0,0-.35.33v.02a.332.332,0,0,0,.11.25.369.369,0,0,0,.49,0,.363.363,0,0,0,.1-.25.34.34,0,0,0-.33-.35Z" style="fill:#17306d"/><path d="M18.75,24.78a.35.35,0,0,0-.25.6.38.38,0,0,0,.5,0,.35.35,0,0,0-.25-.6Z" style="fill:#17306d"/><path d="M16,24.53a.35.35,0,0,0-.25.6.369.369,0,0,0,.5,0,.35.35,0,0,0-.25-.6Z" style="fill:#17306d"/><path d="M32.25,21a.34.34,0,0,0-.35.33v.02a.332.332,0,0,0,.11.25.35.35,0,0,0,.59-.25.34.34,0,0,0-.33-.35Z" style="fill:#17306d"/><path d="M27,17.53a.35.35,0,0,0-.25.6.369.369,0,0,0,.5,0,.35.35,0,0,0-.25-.6Z" style="fill:#17306d"/><path d="M31.75,16a.35.35,0,0,0-.25.6.369.369,0,0,0,.5,0,.35.35,0,0,0-.25-.6Z" style="fill:#17306d"/><path d="M31.75,14.28a.35.35,0,0,0-.245.6l.005.005a.369.369,0,0,0,.5,0,.363.363,0,0,0,.1-.25.34.34,0,0,0-.33-.35h-.03Z" style="fill:#17306d"/><path d="M33.75,13.53a.35.35,0,0,0-.25.6.369.369,0,0,0,.5,0,.35.35,0,0,0-.25-.6Z" style="fill:#17306d"/><path d="M25.75,7a.35.35,0,0,0-.25.6.36.36,0,0,0,.6-.25A.34.34,0,0,0,25.77,7Z" style="fill:#17306d"/><path d="M35.75,15.53a.35.35,0,0,0-.25.6.36.36,0,0,0,.6-.25.34.34,0,0,0-.33-.35Z" style="fill:#17306d"/><path d="M39,15.78a.348.348,0,0,0-.24.1.358.358,0,0,0-.11.25.391.391,0,0,0,.1.25.369.369,0,0,0,.5,0,.35.35,0,0,0-.25-.6Z" style="fill:#17306d"/><path d="M41.5,21a.35.35,0,0,0-.25.6.369.369,0,0,0,.5,0,.35.35,0,0,0-.25-.6Z" style="fill:#17306d"/><path d="M43.25,27a.358.358,0,0,0-.25.11.348.348,0,0,0-.1.24.391.391,0,0,0,.1.25.369.369,0,0,0,.5,0,.35.35,0,0,0-.25-.6Z" style="fill:#17306d"/><path d="M50.75,21.28a.391.391,0,0,0-.25.1.363.363,0,0,0-.1.25.391.391,0,0,0,.1.25.359.359,0,0,0,.5,0,.35.35,0,0,0-.25-.6Z" style="fill:#17306d"/><path d="M51.75,25.28a.358.358,0,0,0-.25.11.348.348,0,0,0-.1.24.332.332,0,0,0,.11.25.369.369,0,0,0,.49,0,.363.363,0,0,0,.1-.25.34.34,0,0,0-.33-.35Z" style="fill:#17306d"/><path d="M54.75,24.78a.332.332,0,0,0-.25.11.348.348,0,0,0-.1.24.369.369,0,0,0,.1.25.361.361,0,0,0,.49,0,.347.347,0,0,0-.22-.6Z" style="fill:#17306d"/><path d="M54.75,17.53a.332.332,0,0,0-.25.11.348.348,0,0,0-.1.24.332.332,0,0,0,.11.25.369.369,0,0,0,.49,0,.363.363,0,0,0,.1-.25.34.34,0,0,0-.33-.35Z" style="fill:#17306d"/><path d="M51,15.53a.35.35,0,0,0-.25.6.369.369,0,0,0,.5,0,.354.354,0,0,0,.1-.25.391.391,0,0,0-.1-.25A.369.369,0,0,0,51,15.53Z" style="fill:#17306d"/><path d="M50.75,8a.34.34,0,0,0-.35.33v.02a.31.31,0,0,0,.1.24.341.341,0,0,0,.481.009l.009-.009a.358.358,0,0,0,.11-.25.391.391,0,0,0-.1-.25A.368.368,0,0,0,50.75,8Z" style="fill:#17306d"/><path d="M53,8a.34.34,0,0,0-.35.33v.02a.332.332,0,0,0,.11.25.361.361,0,0,0,.49,0,.31.31,0,0,0,.1-.24A.341.341,0,0,0,53.031,8Z" style="fill:#17306d"/><path d="M55.75,8.78a.35.35,0,0,0-.25.6.36.36,0,0,0,.6-.25.34.34,0,0,0-.33-.35Z" style="fill:#17306d"/><path d="M58,10.28a.358.358,0,0,0-.25.11.348.348,0,0,0-.1.24.391.391,0,0,0,.1.25.35.35,0,0,0,.6-.25.34.34,0,0,0-.33-.35Z" style="fill:#17306d"/><path d="M20.75,44.78a.35.35,0,0,0-.25.6.36.36,0,0,0,.6-.25.34.34,0,0,0-.33-.35Z" style="fill:#17306d"/><path d="M22.5,47.78a.35.35,0,0,0-.25.6.369.369,0,0,0,.5,0,.35.35,0,0,0-.25-.6Z" style="fill:#17306d"/><path d="M38.75,47a.35.35,0,0,0-.25.6.369.369,0,0,0,.5,0,.35.35,0,0,0-.25-.6Z" style="fill:#17306d"/><path d="M46,42.78a.391.391,0,0,0-.25.1.351.351,0,0,0,0,.49.341.341,0,0,0,.481.009l.009-.009a.358.358,0,0,0,.11-.25.34.34,0,0,0-.33-.35H46Z" style="fill:#17306d"/><path d="M55,43.78a.35.35,0,0,0-.25.6.369.369,0,0,0,.5,0,.35.35,0,0,0-.25-.6Z" style="fill:#17306d"/><path d="M51,46.53a.35.35,0,0,0-.25.6.369.369,0,0,0,.5,0,.354.354,0,0,0,.1-.25.34.34,0,0,0-.33-.35Z" style="fill:#17306d"/><path d="M51.75,42.28a.369.369,0,0,0-.25.1.347.347,0,1,0,.6.25.34.34,0,0,0-.33-.35Z" style="fill:#17306d"/><path d="M62.25,36.28a.34.34,0,0,0-.35.33v.02a.332.332,0,0,0,.11.25.361.361,0,0,0,.49,0,.31.31,0,0,0,.1-.24.34.34,0,0,0-.33-.35h-.02Z" style="fill:#17306d"/><path d="M56.5,32.78a.35.35,0,0,0-.25.6.36.36,0,0,0,.6-.25.34.34,0,0,0-.33-.35Z" style="fill:#17306d"/><path d="M48,34.53a.348.348,0,0,0-.24.1.358.358,0,0,0-.11.25.391.391,0,0,0,.1.25.359.359,0,0,0,.5,0,.329.329,0,0,0,.1-.24.34.34,0,0,0-.33-.35H48Z" style="fill:#17306d"/><path d="M47.75,30.53a.332.332,0,0,0-.25.11.348.348,0,0,0-.1.24.391.391,0,0,0,.1.25.38.38,0,0,0,.5,0,.35.35,0,0,0-.25-.6Z" style="fill:#17306d"/><path d="M53.25,26.78a.339.339,0,0,0-.25.11.31.31,0,0,0-.1.24.339.339,0,0,0,.11.25.369.369,0,0,0,.49,0,.35.35,0,0,0-.25-.6Z" style="fill:#17306d"/><path d="M62,23.78a.34.34,0,0,0-.35.33v.02a.332.332,0,0,0,.11.25.361.361,0,0,0,.49,0,.31.31,0,0,0,.1-.24.34.34,0,0,0-.33-.35H62Z" style="fill:#17306d"/><path d="M64.75,20a.34.34,0,0,0-.35.33v.02a.332.332,0,0,0,.11.25.369.369,0,0,0,.49,0,.363.363,0,0,0,.1-.25.34.34,0,0,0-.33-.35Z" style="fill:#17306d"/><path d="M69.25,26.78a.35.35,0,0,0-.25.6.369.369,0,0,0,.5,0,.35.35,0,0,0-.25-.6Z" style="fill:#17306d"/><path d="M59.75,32.78a.332.332,0,0,0-.25.11.348.348,0,0,0-.1.24.339.339,0,0,0,.11.25.35.35,0,0,0,.49-.5A.369.369,0,0,0,59.75,32.78Z" style="fill:#17306d"/><path d="M32.25,24.78a.35.35,0,0,0-.25.6.36.36,0,0,0,.6-.25.34.34,0,0,0-.33-.35Z" style="fill:#17306d"/><path d="M26,34a.35.35,0,0,0-.25.6.36.36,0,0,0,.6-.25.34.34,0,0,0-.33-.35Z" style="fill:#17306d"/><path d="M29.5,36.28a.348.348,0,0,0-.24.1.358.358,0,0,0-.11.25.332.332,0,0,0,.11.25.369.369,0,0,0,.49,0,.363.363,0,0,0,.1-.25.34.34,0,0,0-.33-.35Z" style="fill:#17306d"/><path d="M10.25,42.28a.35.35,0,0,0-.25.6.369.369,0,0,0,.49,0,.332.332,0,0,0,.11-.25.34.34,0,0,0-.33-.35Z" style="fill:#17306d"/><path d="M5.75,40.28a.35.35,0,0,0-.25.6.361.361,0,0,0,.49,0,.332.332,0,0,0,.11-.25.369.369,0,0,0-.1-.25A.391.391,0,0,0,5.75,40.28Z" style="fill:#17306d"/><path d="M2.25,36.53a.391.391,0,0,0-.25.1.359.359,0,0,0,0,.5.369.369,0,0,0,.5,0,.354.354,0,0,0,.1-.25.329.329,0,0,0-.1-.24A.358.358,0,0,0,2.25,36.53Z" style="fill:#17306d"/><path d="M16.75,29.78a.34.34,0,0,0-.35.33v.02a.332.332,0,0,0,.11.25.35.35,0,0,0,.59-.25.391.391,0,0,0-.1-.25A.369.369,0,0,0,16.75,29.78Z" style="fill:#17306d"/><path d="M12.5,35.78a.34.34,0,0,0-.35.33v.02a.332.332,0,0,0,.11.25.369.369,0,0,0,.49,0,.363.363,0,0,0,.1-.25.391.391,0,0,0-.1-.25A.369.369,0,0,0,12.5,35.78Z" style="fill:#17306d"/><path d="M26.25,41.53a.35.35,0,0,0-.25.6.369.369,0,0,0,.5,0,.35.35,0,0,0-.25-.6Z" style="fill:#17306d"/><path d="M39,41a.35.35,0,0,0-.25.6.369.369,0,0,0,.5,0,.359.359,0,0,0,0-.5A.369.369,0,0,0,39,41Z" style="fill:#17306d"/><path d="M38,39a.35.35,0,0,0-.25.6.369.369,0,0,0,.5,0A.35.35,0,0,0,38,39Z" style="fill:#17306d"/><path d="M27.75,29.78a.35.35,0,0,0-.25.6.369.369,0,0,0,.5,0,.35.35,0,0,0-.25-.6Z" style="fill:#17306d"/><path d="M6.25,51.28a.35.35,0,0,0-.25.6.369.369,0,0,0,.5,0,.35.35,0,0,0-.25-.6Z" style="fill:#17306d"/><path d="M9.5,53a.35.35,0,0,0-.25.6.36.36,0,0,0,.6-.25A.34.34,0,0,0,9.52,53Z" style="fill:#17306d"/><path d="M11.5,48.28a.34.34,0,0,0-.35.33v.02a.332.332,0,0,0,.11.25.369.369,0,0,0,.49,0,.363.363,0,0,0,.1-.25.391.391,0,0,0-.1-.25A.369.369,0,0,0,11.5,48.28Z" style="fill:#17306d"/><path d="M2.75,46a.391.391,0,0,0-.25.1.359.359,0,0,0,0,.5.38.38,0,0,0,.5,0,.359.359,0,0,0,0-.5A.391.391,0,0,0,2.75,46Z" style="fill:#17306d"/><path d="M64,42.28a.348.348,0,0,0-.24.1.358.358,0,0,0-.11.25.391.391,0,0,0,.1.25.36.36,0,0,0,.6-.25.34.34,0,0,0-.33-.35Z" style="fill:#17306d"/><path d="M69.25,42a.34.34,0,0,0-.35.33v.02a.339.339,0,0,0,.11.25.369.369,0,0,0,.49,0,.363.363,0,0,0,.1-.25.391.391,0,0,0-.1-.25A.369.369,0,0,0,69.25,42Z" style="fill:#17306d"/><path d="M1.25,62.78a.391.391,0,0,0-.25.1.359.359,0,0,0,0,.5.38.38,0,0,0,.5,0,.359.359,0,0,0,0-.5A.391.391,0,0,0,1.25,62.78Z" style="fill:#17306d"/><path d="M16.25,65.78a.34.34,0,0,0-.35.33v.02a.369.369,0,0,0,.1.25.38.38,0,0,0,.5,0,.35.35,0,0,0-.25-.6Z" style="fill:#17306d"/><path d="M3.5,65.78a.35.35,0,0,0-.25.6.36.36,0,0,0,.6-.25.34.34,0,0,0-.33-.35Z" style="fill:#17306d"/><path d="M12.5,57.53a.35.35,0,0,0-.25.6.36.36,0,0,0,.6-.25.34.34,0,0,0-.33-.35Z" style="fill:#17306d"/><path d="M18.25,52.53a.34.34,0,0,0-.35.33v.02a.369.369,0,0,0,.1.25.36.36,0,0,0,.6-.25.34.34,0,0,0-.33-.35Z" style="fill:#17306d"/><path d="M21,34.78a.34.34,0,0,0-.35.33v.02a.345.345,0,0,0,.59.25.358.358,0,0,0,.11-.25.34.34,0,0,0-.33-.35Z" style="fill:#17306d"/><path d="M.5,27.53a.391.391,0,0,0-.25.1.391.391,0,0,0-.1.25.332.332,0,0,0,.11.25.369.369,0,0,0,.49,0,.363.363,0,0,0,.1-.25.391.391,0,0,0-.1-.25A.391.391,0,0,0,.5,27.53Z" style="fill:#17306d"/><path d="M67.75,5.78a.34.34,0,0,0-.35.33v.02a.332.332,0,0,0,.11.25.369.369,0,0,0,.49,0,.363.363,0,0,0,.1-.25.34.34,0,0,0-.33-.35Z" style="fill:#17306d"/><path d="M59.5,2a.391.391,0,0,0-.25.1.354.354,0,0,0-.1.25.391.391,0,0,0,.1.25.369.369,0,0,0,.5,0,.363.363,0,0,0,.1-.25.369.369,0,0,0-.1-.25A.391.391,0,0,0,59.5,2Z" style="fill:#17306d"/><path d="M40.25,3.78a.35.35,0,0,0-.25.6.369.369,0,0,0,.5,0,.359.359,0,0,0,0-.5A.369.369,0,0,0,40.25,3.78Z" style="fill:#17306d"/><path d="M4.25,11.78a.35.35,0,0,0-.25.6.36.36,0,0,0,.6-.25.34.34,0,0,0-.33-.35Z" style="fill:#17306d"/><path d="M26.25,12.28a.35.35,0,0,0-.25.6.36.36,0,0,0,.6-.25.34.34,0,0,0-.33-.35Z" style="fill:#17306d"/><path d="M37,23.28a.34.34,0,0,0-.35.33v.02a.35.35,0,0,0,.6.25.359.359,0,0,0,0-.5A.369.369,0,0,0,37,23.28Z" style="fill:#17306d"/><path d="M8.5,31.53a.35.35,0,0,0-.25.6.36.36,0,0,0,.6-.25.34.34,0,0,0-.33-.35Z" style="fill:#17306d"/><path d="M52,33.78a.358.358,0,0,0-.25.11.348.348,0,0,0-.1.24.332.332,0,0,0,.11.25.369.369,0,0,0,.49,0,.363.363,0,0,0,.1-.25.34.34,0,0,0-.33-.35Z" style="fill:#17306d"/><path d="M60.5,25.78a.34.34,0,0,0-.35.33v.02a.332.332,0,0,0,.11.25.369.369,0,0,0,.49,0,.363.363,0,0,0,.1-.25.34.34,0,0,0-.33-.35Z" style="fill:#17306d"/><path d="M51,5.53a.35.35,0,0,0-.25.6.369.369,0,0,0,.5,0,.391.391,0,0,0,.1-.25.354.354,0,0,0-.1-.25A.391.391,0,0,0,51,5.53Z" style="fill:#17306d"/><path d="M39.75,34a.35.35,0,0,0-.25.6.36.36,0,0,0,.6-.25.34.34,0,0,0-.33-.35Z" style="fill:#17306d"/><path d="M27.25,58.28a.35.35,0,0,0-.25.6.36.36,0,0,0,.6-.25.34.34,0,0,0-.33-.35Z" style="fill:#17306d"/><path d="M19.5,45.28a.34.34,0,0,0-.35.33v.02a.345.345,0,0,0,.59.25.358.358,0,0,0,.11-.25.34.34,0,0,0-.33-.35Z" style="fill:#17306d"/><path d="M11.5,70a.354.354,0,0,0-.25.6.38.38,0,0,0,.5,0,.35.35,0,0,0-.25-.6Z" style="fill:#17306d"/><path d="M55,68a.34.34,0,0,0-.35.33v.02a.332.332,0,0,0,.11.25.369.369,0,0,0,.49,0,.363.363,0,0,0,.1-.25.34.34,0,0,0-.33-.35Z" style="fill:#17306d"/><path d="M47,2a.391.391,0,0,0-.25.1.369.369,0,0,0-.1.25.391.391,0,0,0,.1.25.36.36,0,0,0,.6-.25A.34.34,0,0,0,47.02,2Z" style="fill:#17306d"/><path d="M4.5,31.53a.34.34,0,0,0-.35.33v.02a.332.332,0,0,0,.11.25.369.369,0,0,0,.49,0,.363.363,0,0,0,.1-.25.34.34,0,0,0-.33-.35Z" style="fill:#17306d"/><path d="M68.5,58.53a.35.35,0,0,0-.25.6.369.369,0,0,0,.5,0,.359.359,0,0,0,0-.5A.391.391,0,0,0,68.5,58.53Z" style="fill:#17306d"/><path d="M23,57.78a.35.35,0,0,0-.25.6.36.36,0,0,0,.6-.25.34.34,0,0,0-.33-.35Z" style="fill:#17306d"/><path d="M20.25,54.53a.35.35,0,0,0-.25.6.369.369,0,0,0,.5,0,.35.35,0,0,0-.25-.6Z" style="fill:#17306d"/><path d="M14.5,54.53a.34.34,0,0,0-.35.33v.02a.332.332,0,0,0,.11.25.369.369,0,0,0,.49,0,.363.363,0,0,0,.1-.25.34.34,0,0,0-.33-.35Z" style="fill:#17306d"/><path d="M5.75,60a.35.35,0,0,0-.25.6.361.361,0,0,0,.49,0,.332.332,0,0,0,.11-.25A.34.34,0,0,0,5.77,60Z" style="fill:#17306d"/><path d="M6.75,69a.371.371,0,0,0-.24.1.358.358,0,0,0-.11.25.391.391,0,0,0,.1.25.36.36,0,0,0,.6-.25A.342.342,0,0,0,6.75,69Z" style="fill:#17306d"/><path d="M9.75,63.53a.35.35,0,0,0-.25.6.36.36,0,0,0,.6-.25.34.34,0,0,0-.33-.35Z" style="fill:#17306d"/><path d="M14,63.53a.34.34,0,0,0-.35.33v.02a.332.332,0,0,0,.11.25.369.369,0,0,0,.49,0,.363.363,0,0,0,.1-.25.34.34,0,0,0-.33-.35Z" style="fill:#17306d"/><path d="M25.5,64.78a.35.35,0,0,0-.25.6.36.36,0,0,0,.6-.25.34.34,0,0,0-.33-.35Z" style="fill:#17306d"/><path d="M36.75,64.28a.35.35,0,0,0-.25.6.369.369,0,0,0,.5,0,.35.35,0,0,0-.25-.6Z" style="fill:#17306d"/><path d="M37.25,67.53a.34.34,0,0,0-.35.33v.02a.329.329,0,0,0,.1.25.35.35,0,0,0,.59-.25.34.34,0,0,0-.33-.35h-.01Z" style="fill:#17306d"/><path d="M43,69.53a.354.354,0,0,0-.25.6.369.369,0,0,0,.5,0,.362.362,0,0,0,0-.5A.419.419,0,0,0,43,69.53Z" style="fill:#17306d"/><path d="M49.25,63.53a.391.391,0,0,0-.25.1.359.359,0,0,0,0,.5.369.369,0,0,0,.5,0,.35.35,0,0,0-.25-.6Z" style="fill:#17306d"/><path d="M45.75,62.53a.35.35,0,0,0-.25.6.369.369,0,0,0,.5,0,.359.359,0,0,0,0-.5A.369.369,0,0,0,45.75,62.53Z" style="fill:#17306d"/><path d="M35.5,60.78a.34.34,0,0,0-.35.33v.02a.369.369,0,0,0,.1.25.36.36,0,0,0,.6-.25.34.34,0,0,0-.33-.35Z" style="fill:#17306d"/><path d="M39,56.78a.35.35,0,0,0-.25.6.36.36,0,0,0,.6-.25.34.34,0,0,0-.33-.35Z" style="fill:#17306d"/><path d="M24.5,53.78a.35.35,0,0,0-.25.6.36.36,0,0,0,.6-.25.34.34,0,0,0-.33-.35Z" style="fill:#17306d"/><path d="M8,44.53a.35.35,0,0,0-.25.6.36.36,0,0,0,.6-.25.34.34,0,0,0-.33-.35Z" style="fill:#17306d"/><path d="M15.75,40a.35.35,0,0,0-.25.6.38.38,0,0,0,.5,0,.35.35,0,0,0-.25-.6Z" style="fill:#17306d"/><path d="M10.25,38.28a.34.34,0,0,0-.35.33v.02a.332.332,0,0,0,.11.25.369.369,0,0,0,.49,0,.363.363,0,0,0,.1-.25.369.369,0,0,0-.1-.25A.391.391,0,0,0,10.25,38.28Z" style="fill:#17306d"/><path d="M5,34.78a.35.35,0,0,0-.25.6.38.38,0,0,0,.5,0,.369.369,0,0,0,.1-.25.34.34,0,0,0-.33-.35Z" style="fill:#17306d"/><path d="M3,51.28a.391.391,0,0,0-.25.1.359.359,0,0,0,0,.5.38.38,0,0,0,.5,0,.359.359,0,0,0,0-.5A.391.391,0,0,0,3,51.28Z" style="fill:#17306d"/><path d="M20.25,41a.34.34,0,0,0-.35.33v.02a.332.332,0,0,0,.11.25.35.35,0,0,0,.59-.25.34.34,0,0,0-.33-.35Z" style="fill:#17306d"/><path d="M17.25,36.28a.35.35,0,0,0-.25.6.369.369,0,0,0,.5,0,.35.35,0,0,0-.25-.6Z" style="fill:#17306d"/><path d="M15.75,32.78a.34.34,0,0,0-.35.33v.02a.332.332,0,0,0,.11.25.369.369,0,0,0,.49,0,.363.363,0,0,0,.1-.25.391.391,0,0,0-.1-.25A.369.369,0,0,0,15.75,32.78Z" style="fill:#17306d"/><path d="M12.5,30.53a.34.34,0,0,0-.35.33v.02a.332.332,0,0,0,.11.25.369.369,0,0,0,.49,0,.363.363,0,0,0,.1-.25.34.34,0,0,0-.33-.35Z" style="fill:#17306d"/><path d="M12.5,25.28a.34.34,0,0,0-.35.33v.02a.332.332,0,0,0,.11.25.369.369,0,0,0,.49,0,.363.363,0,0,0,.1-.25.34.34,0,0,0-.33-.35Z" style="fill:#17306d"/><path d="M5.5,23.28a.35.35,0,0,0-.25.6.38.38,0,0,0,.5,0,.35.35,0,0,0-.25-.6Z" style="fill:#17306d"/><path d="M10.75,17.28a.35.35,0,0,0-.25.6.38.38,0,0,0,.5,0,.35.35,0,0,0-.25-.6Z" style="fill:#17306d"/><path d="M15.25,13.28a.35.35,0,0,0-.25.6.369.369,0,0,0,.5,0,.35.35,0,0,0-.25-.6Z" style="fill:#17306d"/><path d="M5.75,8.28a.35.35,0,0,0-.25.6.38.38,0,0,0,.5,0,.363.363,0,0,0,.1-.25.34.34,0,0,0-.33-.35Z" style="fill:#17306d"/><path d="M2,9.78a.391.391,0,0,0-.25.1.359.359,0,0,0,0,.5.369.369,0,0,0,.49,0,.339.339,0,0,0,.11-.25.391.391,0,0,0-.1-.25A.391.391,0,0,0,2,9.78Z" style="fill:#17306d"/><path d="M8.75,3.78a.35.35,0,0,0-.25.6.36.36,0,0,0,.6-.25A.391.391,0,0,0,9,3.88.369.369,0,0,0,8.75,3.78Z" style="fill:#17306d"/><path d="M13.25,2.28a.35.35,0,0,0-.25.6.38.38,0,0,0,.5,0,.35.35,0,0,0-.25-.6Z" style="fill:#17306d"/><path d="M21.25,3.28a.34.34,0,0,0-.35.33v.02a.332.332,0,0,0,.11.25.35.35,0,0,0,.59-.25.34.34,0,0,0-.33-.35Z" style="fill:#17306d"/><path d="M22.75,6a.35.35,0,0,0-.25.6.369.369,0,0,0,.5,0,.359.359,0,0,0,0-.5A.369.369,0,0,0,22.75,6Z" style="fill:#17306d"/><path d="M22,11.78a.35.35,0,0,0-.25.6.38.38,0,0,0,.5,0,.359.359,0,0,0,0-.5A.369.369,0,0,0,22,11.78Z" style="fill:#17306d"/><path d="M24,14.28a.34.34,0,0,0-.35.33v.02a.369.369,0,0,0,.1.25.38.38,0,0,0,.5,0,.369.369,0,0,0,.1-.25.391.391,0,0,0-.1-.25A.369.369,0,0,0,24,14.28Z" style="fill:#17306d"/><path d="M26,24a.35.35,0,0,0-.25.6.369.369,0,0,0,.5,0A.35.35,0,0,0,26,24Z" style="fill:#17306d"/><path d="M25.5,28.28a.35.35,0,0,0-.25.6.369.369,0,0,0,.5,0,.35.35,0,0,0-.25-.6Z" style="fill:#17306d"/><path d="M32,40.78a.34.34,0,0,0-.35.33v.02a.332.332,0,0,0,.11.25.35.35,0,0,0,.59-.25.34.34,0,0,0-.33-.35Z" style="fill:#17306d"/><path d="M34,44a.34.34,0,0,0-.35.33v.02a.354.354,0,0,0,.1.25.369.369,0,0,0,.5,0,.359.359,0,0,0,0-.5A.369.369,0,0,0,34,44Z" style="fill:#17306d"/><path d="M41.5,46a.35.35,0,0,0-.25.6.369.369,0,0,0,.5,0,.35.35,0,0,0-.25-.6Z" style="fill:#17306d"/><path d="M42.75,51a.358.358,0,0,0-.25.11.329.329,0,0,0-.1.24.391.391,0,0,0,.1.25.369.369,0,0,0,.5,0,.391.391,0,0,0,.1-.25.339.339,0,0,0-.11-.25A.348.348,0,0,0,42.75,51Z" style="fill:#17306d"/><path d="M36.25,52.53a.391.391,0,0,0-.25.1.363.363,0,0,0-.1.25.31.31,0,0,0,.1.24.35.35,0,0,0,.495.005l.005-.005a.35.35,0,0,0-.25-.6Z" style="fill:#17306d"/><path d="M27.5,49.53a.35.35,0,0,0-.25.6.369.369,0,0,0,.5,0,.35.35,0,0,0-.25-.6Z" style="fill:#17306d"/><path d="M51.75,49.78a.332.332,0,0,0-.25.11.348.348,0,0,0-.1.24.391.391,0,0,0,.1.25.36.36,0,0,0,.6-.25.391.391,0,0,0-.1-.25A.369.369,0,0,0,51.75,49.78Z" style="fill:#17306d"/><path d="M43,54a.369.369,0,0,0-.25.1.359.359,0,0,0,0,.5.38.38,0,0,0,.5,0A.35.35,0,0,0,43,54Z" style="fill:#17306d"/><path d="M50.25,53.78a.369.369,0,0,0-.25.1.347.347,0,1,0,.6.25.34.34,0,0,0-.33-.35Z" style="fill:#17306d"/><path d="M59.25,54.53a.34.34,0,0,0-.35.33v.02a.332.332,0,0,0,.11.25.369.369,0,0,0,.49,0,.363.363,0,0,0,.1-.25.34.34,0,0,0-.33-.35Z" style="fill:#17306d"/><path d="M58,57.78a.369.369,0,0,0-.25.1.347.347,0,1,0,.6.25.34.34,0,0,0-.33-.35Z" style="fill:#17306d"/><path d="M61.25,60.78a.34.34,0,0,0-.35.33v.02a.332.332,0,0,0,.11.25.361.361,0,0,0,.49,0,.31.31,0,0,0,.1-.24.34.34,0,0,0-.33-.35h-.02Z" style="fill:#17306d"/><path d="M58.5,64.28a.391.391,0,0,0-.25.1.354.354,0,0,0-.1.25.31.31,0,0,0,.1.24.35.35,0,0,0,.6-.24.34.34,0,0,0-.33-.35Z" style="fill:#17306d"/><path d="M59.75,67a.339.339,0,0,0-.25.11.348.348,0,0,0-.1.24.332.332,0,0,0,.11.25.369.369,0,0,0,.49,0,.363.363,0,0,0,.1-.25.34.34,0,0,0-.33-.35Z" style="fill:#17306d"/><path d="M67.25,65.78a.391.391,0,0,0-.25.1.363.363,0,0,0-.1.25.369.369,0,0,0,.1.25.38.38,0,0,0,.5,0,.35.35,0,0,0-.25-.6Z" style="fill:#17306d"/><path d="M70.5,63.28a.391.391,0,0,0-.25.1.363.363,0,0,0-.1.25.345.345,0,0,0,.59.25.358.358,0,0,0,.11-.25.34.34,0,0,0-.33-.35Z" style="fill:#17306d"/><path d="M65.5,62a.34.34,0,0,0-.35.33v.02a.369.369,0,0,0,.1.25.38.38,0,0,0,.5,0,.35.35,0,0,0-.25-.6Z" style="fill:#17306d"/><path d="M60,48a.35.35,0,0,0-.25.6.369.369,0,0,0,.5,0A.35.35,0,0,0,60,48Z" style="fill:#17306d"/><path d="M55.25,48a.35.35,0,0,0-.25.6.38.38,0,0,0,.5,0,.35.35,0,0,0-.25-.6Z" style="fill:#17306d"/><path d="M55.25,53a.339.339,0,0,0-.25.11.348.348,0,0,0-.1.24.332.332,0,0,0,.11.25.369.369,0,0,0,.49,0,.363.363,0,0,0,.1-.25.34.34,0,0,0-.33-.35Z" style="fill:#17306d"/><path d="M64.75,46a.34.34,0,0,0-.35.33v.02a.332.332,0,0,0,.11.25.369.369,0,0,0,.49,0,.363.363,0,0,0,.1-.25.34.34,0,0,0-.33-.35Z" style="fill:#17306d"/><path d="M57.5,41a.332.332,0,0,0-.25.11.348.348,0,0,0-.1.24.332.332,0,0,0,.11.25.369.369,0,0,0,.49,0,.363.363,0,0,0,.1-.25.34.34,0,0,0-.33-.35Z" style="fill:#17306d"/><path d="M52.5,39a.358.358,0,0,0-.25.11.348.348,0,0,0-.1.24.332.332,0,0,0,.11.25.369.369,0,0,0,.49,0,.363.363,0,0,0,.1-.25.34.34,0,0,0-.33-.35Z" style="fill:#17306d"/><path d="M47.25,38a.358.358,0,0,0-.25.11.348.348,0,0,0-.1.24.332.332,0,0,0,.11.25.369.369,0,0,0,.49,0,.363.363,0,0,0,.1-.25.34.34,0,0,0-.33-.35Z" style="fill:#17306d"/><path d="M44,32.53a.358.358,0,0,0-.25.11.348.348,0,0,0-.1.24.391.391,0,0,0,.1.25.35.35,0,0,0,.6-.25.332.332,0,0,0-.11-.25A.348.348,0,0,0,44,32.53Z" style="fill:#17306d"/><path d="M33.75,30.28a.35.35,0,0,0-.25.6.369.369,0,0,0,.5,0,.35.35,0,0,0-.25-.6Z" style="fill:#17306d"/><path d="M40.5,23.78a.35.35,0,0,0-.25.6.361.361,0,0,0,.49,0,.347.347,0,0,0-.22-.6Z" style="fill:#17306d"/><path d="M45.5,19.53a.34.34,0,0,0-.35.33v.02a.332.332,0,0,0,.11.25.35.35,0,0,0,.59-.25.34.34,0,0,0-.33-.35Z" style="fill:#17306d"/><path d="M46.25,15a.35.35,0,1,0,.24.6.358.358,0,0,0,.11-.25.34.34,0,0,0-.33-.35Z" style="fill:#17306d"/><path d="M41.75,12.28a.348.348,0,0,0-.24.1.358.358,0,0,0-.11.25.391.391,0,0,0,.1.25.369.369,0,0,0,.5,0,.35.35,0,0,0-.25-.6Z" style="fill:#17306d"/><path d="M39.75,9a.35.35,0,0,0-.25.6.369.369,0,0,0,.5,0,.359.359,0,0,0,0-.5A.369.369,0,0,0,39.75,9Z" style="fill:#17306d"/><path d="M35.75,9a.34.34,0,0,0-.35.33v.02a.332.332,0,0,0,.11.25.35.35,0,0,0,.59-.25A.34.34,0,0,0,35.77,9Z" style="fill:#17306d"/><path d="M36.25,19a.391.391,0,0,0-.25.1.354.354,0,0,0-.1.25.391.391,0,0,0,.1.25.359.359,0,0,0,.5,0,.31.31,0,0,0,.1-.24.34.34,0,0,0-.33-.35h-.02Z" style="fill:#17306d"/><path d="M29.75,8.28a.348.348,0,0,0-.24.1.358.358,0,0,0-.11.25.332.332,0,0,0,.11.25.369.369,0,0,0,.49,0,.363.363,0,0,0,.1-.25.34.34,0,0,0-.33-.35Z" style="fill:#17306d"/><path d="M31.25,3.28a.35.35,0,0,0-.25.6.369.369,0,0,0,.5,0,.35.35,0,0,0-.25-.6Z" style="fill:#17306d"/><path d="M36.75.78a.391.391,0,0,0-.25.1.369.369,0,0,0-.1.25.332.332,0,0,0,.11.25.369.369,0,0,0,.49,0,.363.363,0,0,0,.1-.25A.369.369,0,0,0,37,.88.391.391,0,0,0,36.75.78Z" style="fill:#17306d"/><path d="M62.75,14.78a.34.34,0,0,0-.35.33v.02a.332.332,0,0,0,.11.25.369.369,0,0,0,.49,0,.363.363,0,0,0,.1-.25.34.34,0,0,0-.33-.35Z" style="fill:#17306d"/><path d="M59.75,21a.332.332,0,0,0-.25.11.347.347,0,0,0,.49.49.358.358,0,0,0,.11-.25.391.391,0,0,0-.1-.25A.369.369,0,0,0,59.75,21Z" style="fill:#17306d"/><path d="M54.25,21.28a.391.391,0,0,0-.25.1.369.369,0,0,0-.1.25.35.35,0,1,0,.6-.24A.339.339,0,0,0,54.25,21.28Z" style="fill:#17306d"/><path d="M54.5,30a.358.358,0,0,0-.25.11.329.329,0,0,0-.1.24.391.391,0,0,0,.1.25.369.369,0,0,0,.5,0,.391.391,0,0,0,.1-.25.339.339,0,0,0-.11-.25A.348.348,0,0,0,54.5,30Z" style="fill:#17306d"/><path d="M62.25,29.53a.35.35,0,0,0-.25.6.369.369,0,0,0,.5,0,.35.35,0,0,0-.25-.6Z" style="fill:#17306d"/><path d="M66.75,24.28a.348.348,0,0,0-.24.1.358.358,0,0,0-.11.25.391.391,0,0,0,.1.25.361.361,0,0,0,.49,0,.319.319,0,0,0,.11-.25.34.34,0,0,0-.33-.35Z" style="fill:#17306d"/><path d="M69.25,17.53a.348.348,0,0,0-.24.1.358.358,0,0,0-.11.25.391.391,0,0,0,.1.25.36.36,0,0,0,.6-.25.34.34,0,0,0-.33-.35Z" style="fill:#17306d"/><path d="M63.25,10a.348.348,0,0,0-.24.1.358.358,0,0,0-.11.25.391.391,0,0,0,.1.25.361.361,0,0,0,.49,0,.319.319,0,0,0,.11-.25.34.34,0,0,0-.33-.35Z" style="fill:#17306d"/><path d="M70,10.78a.34.34,0,0,0-.35.33v.02a.332.332,0,0,0,.11.25.369.369,0,0,0,.49,0,.363.363,0,0,0,.1-.25.34.34,0,0,0-.33-.35Z" style="fill:#17306d"/><path d="M64.5,6.28a.35.35,0,0,0-.25.6.359.359,0,0,0,.5,0,.348.348,0,0,0,.1-.24.34.34,0,0,0-.33-.35H64.5Z" style="fill:#17306d"/><path d="M65.5,3.53a.35.35,0,0,0-.25.6.369.369,0,0,0,.5,0,.35.35,0,0,0-.25-.6Z" style="fill:#17306d"/><path d="M62.25,1.53a.34.34,0,0,0-.35.33v.02a.339.339,0,0,0,.11.25.361.361,0,0,0,.49,0,.31.31,0,0,0,.1-.24.34.34,0,0,0-.33-.35h-.02Z" style="fill:#17306d"/><path d="M52.5,2a.35.35,0,0,0-.25.6.36.36,0,0,0,.6-.25.391.391,0,0,0-.1-.25A.369.369,0,0,0,52.5,2Z" style="fill:#17306d"/><path d="M44.5,5.28a.339.339,0,0,0-.25.11.348.348,0,0,0-.1.24.332.332,0,0,0,.11.25.369.369,0,0,0,.49,0,.363.363,0,0,0,.1-.25.34.34,0,0,0-.33-.35Z" style="fill:#17306d"/><path d="M28.25.53a.391.391,0,0,0-.25.1.363.363,0,0,0-.1.25.332.332,0,0,0,.11.25A.35.35,0,0,0,28.6.88a.332.332,0,0,0-.11-.25A.348.348,0,0,0,28.25.53Z" style="fill:#17306d"/><path d="M2.75,42.28a.391.391,0,0,0-.25.1.359.359,0,0,0,0,.5.38.38,0,0,0,.5,0,.359.359,0,0,0,0-.5A.391.391,0,0,0,2.75,42.28Z" style="fill:#17306d"/><path d="M13,66.78a.358.358,0,0,0-.25.11.31.31,0,0,0-.1.24.369.369,0,0,0,.1.25.36.36,0,0,0,.6-.25.332.332,0,0,0-.11-.25A.348.348,0,0,0,13,66.78Z" style="fill:#17306d"/><path d="M70,37.28a.34.34,0,0,0-.35.33v.02a.332.332,0,0,0,.11.25.369.369,0,0,0,.49,0,.363.363,0,0,0,.1-.25.34.34,0,0,0-.33-.35Z" style="fill:#17306d"/><path d="M71,30.53a.35.35,0,0,0-.25.6.369.369,0,0,0,.5,0,.35.35,0,0,0-.25-.6Z" style="fill:#17306d"/><path d="M.75,20a.391.391,0,0,0-.25.1.391.391,0,0,0-.1.25.332.332,0,0,0,.11.25.369.369,0,0,0,.49,0,.363.363,0,0,0,.1-.25A.391.391,0,0,0,1,20.1.391.391,0,0,0,.75,20Z" style="fill:#17306d"/><path d="M71.75,48.28a.35.35,0,0,0-.25.6.38.38,0,0,0,.5,0,.35.35,0,0,0-.25-.6Z" style="fill:#17306d"/><path d="M68.75,45.28a.35.35,0,0,0-.25.6.369.369,0,0,0,.5,0,.391.391,0,0,0,.1-.25.354.354,0,0,0-.1-.25A.391.391,0,0,0,68.75,45.28Z" style="fill:#17306d"/><path d="M68.25,11.53a.34.34,0,0,0-.35.33v.02a.369.369,0,0,0,.1.25.38.38,0,0,0,.5,0,.35.35,0,0,0-.25-.6Z" style="fill:#17306d"/><path d="M71.25,3.53a.35.35,0,0,0-.25.6.369.369,0,0,0,.5,0,.391.391,0,0,0,.1-.25.354.354,0,0,0-.1-.25A.391.391,0,0,0,71.25,3.53Z" style="fill:#17306d"/><path d="M.25,14a.391.391,0,0,0-.25.1.359.359,0,0,0,0,.5.38.38,0,0,0,.5,0,.359.359,0,0,0,0-.5A.391.391,0,0,0,.25,14Z" style="fill:#17306d"/><path d="M2.5.53a.391.391,0,0,0-.25.1.359.359,0,0,0,0,.5.36.36,0,0,0,.6-.25.391.391,0,0,0-.1-.25A.391.391,0,0,0,2.5.53Z" style="fill:#17306d"/><path d="M70,47.78a.34.34,0,0,0-.35.33v.02a.332.332,0,0,0,.11.25.369.369,0,0,0,.49,0,.363.363,0,0,0,.1-.25.34.34,0,0,0-.33-.35Z" style="fill:#17306d"/><path d="M1,55a.391.391,0,0,0-.25.1.359.359,0,0,0,0,.5.38.38,0,0,0,.5,0,.359.359,0,0,0,0-.5A.391.391,0,0,0,1,55Z" style="fill:#17306d"/><path d="M17.75,58.73a.65.65,0,0,0-.65.65.661.661,0,0,0,.19.46.68.68,0,0,0,.92,0,.65.65,0,0,0-.46-1.11Z" style="fill:#17306d"/><path d="M29,60.73a.661.661,0,0,0-.46.19.681.681,0,0,0-.19.46.661.661,0,0,0,.19.46.67.67,0,0,0,.92,0,.661.661,0,0,0,.19-.46A.65.65,0,0,0,29,60.73Z" style="fill:#17306d"/><path d="M29,68.23a.65.65,0,0,0-.65.65.639.639,0,0,0,.19.46.68.68,0,0,0,.92,0,.65.65,0,0,0,0-.919h0A.681.681,0,0,0,29,68.23Z" style="fill:#17306d"/><path d="M40,61.23a.65.65,0,0,0-.65.65h0a.661.661,0,0,0,.19.46.68.68,0,0,0,.92,0,.631.631,0,0,0,.19-.46.681.681,0,0,0-.19-.46A.661.661,0,0,0,40,61.23Z" style="fill:#17306d"/><path d="M44.75,59.73a.61.61,0,0,0-.46.2.64.64,0,0,0-.19.45.661.661,0,0,0,.19.46.68.68,0,0,0,.92,0,.631.631,0,0,0,.19-.46.61.61,0,0,0-.2-.46A.6.6,0,0,0,44.75,59.73Z" style="fill:#17306d"/><path d="M47,48.73a.65.65,0,0,0-.46,1.11.68.68,0,0,0,.92,0A.65.65,0,0,0,47,48.73Z" style="fill:#17306d"/><path d="M54.5,64.73a.641.641,0,0,0-.5.19.65.65,0,0,0,0,.919h0a.68.68,0,0,0,.92,0,.639.639,0,0,0,.19-.46.661.661,0,0,0-.19-.46A.642.642,0,0,0,54.5,64.73Z" style="fill:#17306d"/><path d="M63.75,65a.65.65,0,0,0-.46,1.11.68.68,0,0,0,.92,0A.65.65,0,0,0,63.75,65Z" style="fill:#17306d"/><path d="M64.75,69a.661.661,0,0,0-.46.19.681.681,0,0,0-.19.46.661.661,0,0,0,.19.46.65.65,0,0,0,1.11-.46.63.63,0,0,0-.18-.45A.67.67,0,0,0,64.75,69Z" style="fill:#17306d"/><path d="M69.25,53.48a.65.65,0,0,0-.46,1.11.67.67,0,0,0,.92,0,.65.65,0,0,0-.46-1.11Z" style="fill:#17306d"/><path d="M7.75,24.48a.639.639,0,0,0-.46.19.681.681,0,0,0-.19.46.661.661,0,0,0,.19.46.68.68,0,0,0,.92,0,.661.661,0,0,0,.19-.46.681.681,0,0,0-.19-.46A.639.639,0,0,0,7.75,24.48Z" style="fill:#17306d"/><path d="M4.75,14.73a.639.639,0,0,0-.46.19.65.65,0,0,0,0,.919h0a.67.67,0,0,0,.92,0,.65.65,0,0,0,0-.919h0A.639.639,0,0,0,4.75,14.73Z" style="fill:#17306d"/><path d="M2,4.48a.661.661,0,0,0-.46.19.681.681,0,0,0-.19.46.661.661,0,0,0,.19.46.68.68,0,0,0,.92,0,.661.661,0,0,0,.19-.46.681.681,0,0,0-.19-.46A.661.661,0,0,0,2,4.48Z" style="fill:#17306d"/><path d="M17.5,1.73a.661.661,0,0,0-.46.19.681.681,0,0,0-.19.46.661.661,0,0,0,.19.46.68.68,0,0,0,.92,0,.661.661,0,0,0,.19-.46.681.681,0,0,0-.19-.46A.661.661,0,0,0,17.5,1.73Z" style="fill:#17306d"/><path d="M19,9.23a.65.65,0,0,0-.65.65h0a.639.639,0,0,0,.19.46.67.67,0,0,0,.92,0,.661.661,0,0,0,.19-.46.681.681,0,0,0-.19-.46A.661.661,0,0,0,19,9.23Z" style="fill:#17306d"/><path d="M20.75,26.23a.65.65,0,0,0-.65.65h0a.639.639,0,0,0,.19.46.67.67,0,0,0,.92,0,.661.661,0,0,0,.19-.46.681.681,0,0,0-.19-.46A.639.639,0,0,0,20.75,26.23Z" style="fill:#17306d"/><path d="M28.25,20.48a.65.65,0,0,0-.46,1.11.67.67,0,0,0,.92,0,.661.661,0,0,0,.19-.46.681.681,0,0,0-.19-.46A.639.639,0,0,0,28.25,20.48Z" style="fill:#17306d"/><path d="M33.75,11.23a.65.65,0,0,0-.65.65h0a.639.639,0,0,0,.19.46.68.68,0,0,0,.92,0,.631.631,0,0,0,.19-.46.639.639,0,0,0-.19-.46A.661.661,0,0,0,33.75,11.23Z" style="fill:#17306d"/><path d="M34,4.73a.639.639,0,0,0-.46.19.65.65,0,0,0,0,.919h0a.67.67,0,0,0,.92,0,.65.65,0,0,0,0-.919h0A.661.661,0,0,0,34,4.73Z" style="fill:#17306d"/><path d="M41.5,16.48a.65.65,0,0,0-.5,1.11.68.68,0,0,0,.92,0,.65.65,0,0,0-.46-1.11Z" style="fill:#17306d"/><path d="M52,11.73a.65.65,0,0,0-.46,1.11.68.68,0,0,0,.92,0A.65.65,0,0,0,52,11.73Z" style="fill:#17306d"/><path d="M54.75,6.23a.661.661,0,0,0-.46.19.681.681,0,0,0-.19.46.639.639,0,0,0,.19.46.68.68,0,0,0,.92,0,.639.639,0,0,0,.19-.46.681.681,0,0,0-.19-.46A.661.661,0,0,0,54.75,6.23Z" style="fill:#17306d"/><path d="M25,47a.661.661,0,0,0-.46.19.681.681,0,0,0-.19.46.661.661,0,0,0,.19.46.68.68,0,0,0,.92,0,.661.661,0,0,0,.19-.46.681.681,0,0,0-.19-.46A.661.661,0,0,0,25,47Z" style="fill:#17306d"/><path d="M35,48.23a.639.639,0,0,0-.46.19.65.65,0,0,0,0,.919h0a.68.68,0,0,0,.92,0A.65.65,0,0,0,35,48.23Z" style="fill:#17306d"/><path d="M44.75,42a.65.65,0,0,0-.46,1.11.68.68,0,0,0,.92,0,.631.631,0,0,0,.19-.46.61.61,0,0,0-.2-.46A.621.621,0,0,0,44.75,42Z" style="fill:#17306d"/><path d="M51.75,28.48a.65.65,0,0,0-.46,1.11.67.67,0,0,0,.92,0,.639.639,0,0,0,.19-.46.65.65,0,0,0-.65-.65Z" style="fill:#17306d"/><path d="M66.75,19.73a.65.65,0,0,0-.65.65h0a.61.61,0,0,0,.2.46.68.68,0,0,0,.91,0,.65.65,0,0,0-.46-1.11Z" style="fill:#17306d"/><path d="M47,23.73a.65.65,0,0,0-.46,1.11.68.68,0,0,0,.92,0A.65.65,0,0,0,47,23.73Z" style="fill:#17306d"/><path d="M36.75,27a.661.661,0,0,0-.46.19.681.681,0,0,0-.19.46.661.661,0,0,0,.19.46.68.68,0,0,0,.92,0,.661.661,0,0,0,.19-.46.681.681,0,0,0-.19-.46A.661.661,0,0,0,36.75,27Z" style="fill:#17306d"/><path d="M16.75,43a.65.65,0,0,0-.46,1.11.68.68,0,0,0,.92,0,.65.65,0,0,0,0-.919h0A.639.639,0,0,0,16.75,43Z" style="fill:#17306d"/><path d="M11,34.73a.65.65,0,0,0-.65.65h0a.639.639,0,0,0,.19.46.67.67,0,0,0,.92,0A.65.65,0,0,0,11,34.73Z" style="fill:#17306d"/><path d="M67.25,40.73a.661.661,0,0,0-.46.19.681.681,0,0,0-.19.46.661.661,0,0,0,.19.46.68.68,0,0,0,.92,0,.639.639,0,0,0,.19-.46.65.65,0,0,0-.65-.65Z" style="fill:#17306d"/><path d="M7,55.73a.61.61,0,0,0-.46.2.621.621,0,0,0-.19.45.661.661,0,0,0,.19.46.67.67,0,0,0,.92,0,.65.65,0,0,0,0-.919h0A.639.639,0,0,0,7,55.73Z" style="fill:#17306d"/><path d="M8.25,66.23a.681.681,0,0,0-.46.19.661.661,0,0,0-.19.46.639.639,0,0,0,.19.46.67.67,0,0,0,.92,0,.639.639,0,0,0,.19-.46A.65.65,0,0,0,8.25,66.23Z" style="fill:#17306d"/><path d="M3.25,69a.661.661,0,0,0-.46.19.681.681,0,0,0-.19.46.661.661,0,0,0,.19.46.68.68,0,0,0,.92,0,.661.661,0,0,0,.19-.46.681.681,0,0,0-.19-.46A.661.661,0,0,0,3.25,69Z" style="fill:#17306d"/><path d="M66.25,34.23a.65.65,0,0,0-.46,1.11.68.68,0,0,0,.92,0,.639.639,0,0,0,.19-.46.661.661,0,0,0-.19-.46A.639.639,0,0,0,66.25,34.23Z" style="fill:#17306d"/><path d="M43.75,8.48a.661.661,0,0,0-.46.19.681.681,0,0,0-.19.46.661.661,0,0,0,.19.46.67.67,0,0,0,.92,0,.661.661,0,0,0,.19-.46.681.681,0,0,0-.19-.46A.661.661,0,0,0,43.75,8.48Z" style="fill:#17306d"/><path d="M25.5,1.48a.661.661,0,0,0-.46.19.681.681,0,0,0-.19.46.661.661,0,0,0,.19.46.67.67,0,0,0,.92,0,.661.661,0,0,0,.19-.46.681.681,0,0,0-.19-.46A.661.661,0,0,0,25.5,1.48Z" style="fill:#17306d"/><path d="M21.75,29.73a.661.661,0,0,0-.46.19.65.65,0,0,0,0,.919h0a.68.68,0,0,0,.92,0,.65.65,0,0,0-.46-1.11Z" style="fill:#17306d"/><path d="M23.75,42.48a.661.661,0,0,0-.46.19.681.681,0,0,0-.19.46.661.661,0,0,0,.19.46.67.67,0,0,0,.92,0,.639.639,0,0,0,.19-.46A.65.65,0,0,0,23.75,42.48Z" style="fill:#17306d"/><path d="M41.25,37a.65.65,0,0,0-.46,1.11.68.68,0,0,0,.92,0,.661.661,0,0,0,.19-.46.681.681,0,0,0-.19-.46A.661.661,0,0,0,41.25,37Z" style="fill:#17306d"/><path d="M67.25,27.73a.661.661,0,0,0-.46.19.681.681,0,0,0-.19.46.661.661,0,0,0,.19.46.68.68,0,0,0,.92,0,.639.639,0,0,0,.19-.46.65.65,0,0,0-.65-.65Z" style="fill:#17306d"/><path d="M53,56.48a.65.65,0,0,0-.46,1.11.68.68,0,0,0,.92,0,.661.661,0,0,0,.19-.46.681.681,0,0,0-.19-.46A.661.661,0,0,0,53,56.48Z" style="fill:#17306d"/><path d="M33.75,55.48a.661.661,0,0,0-.46.19.681.681,0,0,0-.19.46.639.639,0,0,0,.19.46.68.68,0,0,0,.92,0,.639.639,0,0,0,.19-.46.65.65,0,0,0-.65-.65Z" style="fill:#17306d"/><path d="M12.5,52.23a.65.65,0,0,0-.5,1.11.67.67,0,0,0,.92,0,.65.65,0,0,0-.46-1.11Z" style="fill:#17306d"/><path d="M49.25,67a.65.65,0,0,0-.46,1.11.68.68,0,0,0,.92,0A.65.65,0,0,0,49.25,67Z" style="fill:#17306d"/><path d="M58.75,50.73a.65.65,0,0,0-.46,1.11.68.68,0,0,0,.92,0,.639.639,0,0,0,.19-.46.65.65,0,0,0-.65-.65Z" style="fill:#17306d"/><path d="M67.25,14.23a.661.661,0,0,0-.46.19.681.681,0,0,0-.19.46.661.661,0,0,0,.19.46.68.68,0,0,0,.92,0,.639.639,0,0,0,.19-.46.65.65,0,0,0-.65-.65Z" style="fill:#17306d"/><path d="M5,1.73a.639.639,0,0,0-.46.19.65.65,0,0,0,0,.919h0a.67.67,0,0,0,.92,0,.65.65,0,0,0,0-.919h0A.639.639,0,0,0,5,1.73Z" style="fill:#17306d"/><path d="M2.5,58.23a.61.61,0,0,0-.46.2.621.621,0,0,0-.19.45.662.662,0,0,0,.15.46.67.67,0,0,0,.92,0,.65.65,0,0,0,0-.919h0A.642.642,0,0,0,2.5,58.23Z" style="fill:#17306d"/><path d="M16.25,68.23a.65.65,0,0,0-.46,1.11.68.68,0,0,0,.92,0,.65.65,0,0,0-.46-1.11Z" style="fill:#17306d"/><path d="M40.25,67a.65.65,0,0,0-.46,1.11.68.68,0,0,0,.92,0,.639.639,0,0,0,.19-.46.65.65,0,0,0-.65-.65Z" style="fill:#17306d"/><path d="M2.5,39.48a.641.641,0,0,0-.5.19.65.65,0,0,0,0,.919H2a.68.68,0,0,0,.92,0,.65.65,0,0,0-.46-1.11Z" style="fill:#17306d"/><path d="M7.25,46.48a.639.639,0,0,0-.46.19.65.65,0,0,0,0,.919h0a.68.68,0,0,0,.92,0,.639.639,0,0,0,.19-.46.661.661,0,0,0-.19-.46A.639.639,0,0,0,7.25,46.48Z" style="fill:#17306d"/><path d="M3.75,24.73a.661.661,0,0,0-.46.19.681.681,0,0,0-.19.46.661.661,0,0,0,.19.46.67.67,0,0,0,.92,0,.661.661,0,0,0,.19-.46.681.681,0,0,0-.19-.46A.639.639,0,0,0,3.75,24.73Z" style="fill:#17306d"/><path d="M10.75,21a.661.661,0,0,0-.46.19.681.681,0,0,0-.19.46.639.639,0,0,0,.19.46.68.68,0,0,0,.92,0,.661.661,0,0,0,.19-.46.681.681,0,0,0-.19-.46A.661.661,0,0,0,10.75,21Z" style="fill:#17306d"/><path d="M9.75,11.73a.639.639,0,0,0-.46.19.65.65,0,0,0,0,.919h0a.68.68,0,0,0,.92,0,.65.65,0,0,0,0-.919h0A.639.639,0,0,0,9.75,11.73Z" style="fill:#17306d"/><path d="M13.25,5.73a.661.661,0,0,0-.46.19.681.681,0,0,0-.19.46.639.639,0,0,0,.19.46.67.67,0,0,0,.92,0,.661.661,0,0,0,.19-.46.681.681,0,0,0-.19-.46A.661.661,0,0,0,13.25,5.73Z" style="fill:#17306d"/><path d="M21.75,18.23a.661.661,0,0,0-.46.19.639.639,0,0,0-.19.46.6.6,0,0,0,.2.46.65.65,0,0,0,1.1-.46.681.681,0,0,0-.19-.46A.661.661,0,0,0,21.75,18.23Z" style="fill:#17306d"/><path d="M31,34a.661.661,0,0,0-.46.19.681.681,0,0,0-.19.46.661.661,0,0,0,.19.46.68.68,0,0,0,.92,0,.661.661,0,0,0,.19-.46.681.681,0,0,0-.19-.46A.661.661,0,0,0,31,34Z" style="fill:#17306d"/><path d="M25.75,37.48a.65.65,0,0,0-.46,1.11.67.67,0,0,0,.92,0,.65.65,0,0,0-.46-1.11Z" style="fill:#17306d"/><path d="M37,43a.661.661,0,0,0-.46.19.681.681,0,0,0-.19.46.661.661,0,0,0,.19.46.68.68,0,0,0,.92,0,.661.661,0,0,0,.19-.46.681.681,0,0,0-.19-.46A.661.661,0,0,0,37,43Z" style="fill:#17306d"/><path d="M61.5,55a.661.661,0,0,0-.46.19.681.681,0,0,0-.19.46.661.661,0,0,0,.19.46.68.68,0,0,0,.92,0,.639.639,0,0,0,.19-.46A.65.65,0,0,0,61.5,55Z" style="fill:#17306d"/><path d="M61,44.48a.639.639,0,0,0-.46.19.681.681,0,0,0-.19.46.661.661,0,0,0,.19.46.68.68,0,0,0,.92,0,.65.65,0,0,0,0-.919h0A.639.639,0,0,0,61,44.48Z" style="fill:#17306d"/><path d="M58.5,14.48a.661.661,0,0,0-.46.19.681.681,0,0,0-.19.46.661.661,0,0,0,.19.46.68.68,0,0,0,.92,0,.661.661,0,0,0,.19-.46.681.681,0,0,0-.19-.46A.661.661,0,0,0,58.5,14.48Z" style="fill:#17306d"/><path d="M59,27.23a.639.639,0,0,0-.46.19.65.65,0,0,0,0,.919h0a.68.68,0,0,0,.92,0,.65.65,0,0,0,0-.919h0A.639.639,0,0,0,59,27.23Z" style="fill:#17306d"/><path d="M55.5,36a.661.661,0,0,0-.46.19.681.681,0,0,0-.19.46.661.661,0,0,0,.19.46.68.68,0,0,0,.92,0,.661.661,0,0,0,.19-.46.681.681,0,0,0-.19-.46A.661.661,0,0,0,55.5,36Z" style="fill:#17306d"/><path d="M69,1a.681.681,0,0,0-.46.19.65.65,0,0,0,0,.919h0a.691.691,0,0,0,.92,0A.65.65,0,0,0,69,1Z" style="fill:#17306d"/><path d="M60.5,5.73A.65.65,0,0,0,60,6.84a.67.67,0,0,0,.92,0,.639.639,0,0,0,.19-.46.65.65,0,0,0-.65-.65h.04Z" style="fill:#17306d"/><path d="M44.25.23a.65.65,0,0,0-.46,1.11.68.68,0,0,0,.92,0A.65.65,0,0,0,44.25.23Z" style="fill:#17306d"/><path d="M24.25,70.48a.65.65,0,0,0-.65.65.639.639,0,0,0,.19.46.67.67,0,0,0,.92,0,.661.661,0,0,0,.19-.46.681.681,0,0,0-.19-.46A.639.639,0,0,0,24.25,70.48Z" style="fill:#17306d"/><path d="M-.25,48.28a.391.391,0,0,0-.25.1.391.391,0,0,0-.1.25.391.391,0,0,0,.1.25.38.38,0,0,0,.5,0,.391.391,0,0,0,.1-.25.391.391,0,0,0-.1-.25A.391.391,0,0,0-.25,48.28Z" style="fill:#17306d"/></pattern></defs><title>ammostamento</title><g id="Layer_1-2" data-name="Layer 1-2"><path d="M90.94,103.93s26.06,23.52,31.23,83.24h0c2.12-2.08,3.53-5,7.44-5,6.12,0,6.12,7,12.24,7s6.12-7,12.24-7a6.913,6.913,0,0,1,1.15.09v-.19C145.12,111.96,100.51,81.5,100.51,81.5" style="stroke:#17306d;stroke-linecap:round;stroke-linejoin:round;stroke-width:2.3399999141693115px;fill:url(#USGS_22_Gravel_Beach_4)"/><path d="M93.91,155.55v5.86a7.72,7.72,0,0,1,7.721,7.72V273.25a13.28,13.28,0,0,0,13.28,13.28H229.98a13.29,13.29,0,0,0,13.29-13.28V169.17a7.72,7.72,0,0,1,7.72-7.72h0v-5.86" style="fill:none;stroke:#17306d;stroke-linecap:round;stroke-linejoin:round;stroke-width:2.3399999141693115px"/><line x1="149.44" y1="155.55" x2="250.99" y2="155.55" style="fill:none;stroke:#17306d;stroke-linecap:round;stroke-linejoin:round;stroke-width:2.3399999141693115px"/><line x1="93.91" y1="155.55" x2="116.97" y2="155.55" style="fill:none;stroke:#17306d;stroke-linecap:round;stroke-linejoin:round;stroke-width:2.3399999141693115px"/><circle cx="175.94" cy="228.2" r="2.52" style="fill:none;stroke:#17306d;stroke-linecap:round;stroke-linejoin:round;stroke-width:1.1699999570846558px"/><circle cx="140.39" cy="226.2" r="3.63" style="fill:none;stroke:#17306d;stroke-linecap:round;stroke-linejoin:round;stroke-width:1.1699999570846558px"/><circle cx="153" cy="251.1" r="3.63" style="fill:none;stroke:#17306d;stroke-linecap:round;stroke-linejoin:round;stroke-width:1.1699999570846558px"/><circle cx="146.66" cy="221.69" r="1.49" style="fill:none;stroke:#17306d;stroke-linecap:round;stroke-linejoin:round;stroke-width:1.1699999570846558px"/><circle cx="219.5" cy="246.86" r="3.79" style="fill:none;stroke:#17306d;stroke-linecap:round;stroke-linejoin:round;stroke-width:1.1699999570846558px"/><circle cx="218.02" cy="256.66" r="2.64" style="fill:none;stroke:#17306d;stroke-linecap:round;stroke-linejoin:round;stroke-width:1.1699999570846558px"/><circle cx="225.16" cy="266.15" r="1.87" style="fill:none;stroke:#17306d;stroke-linecap:round;stroke-linejoin:round;stroke-width:1.1699999570846558px"/><circle cx="213.74" cy="210.92" r="3.07" style="fill:none;stroke:#17306d;stroke-linecap:round;stroke-linejoin:round;stroke-width:1.1699999570846558px"/><path d="M101.63,194.17l-23.44-5.93h0a4.57,4.57,0,0,1,1.07-9h22.37" style="fill:none;stroke:#17306d;stroke-linecap:round;stroke-linejoin:round;stroke-width:2.3399999141693115px"/><path d="M243.27,194.17l23.43-5.93h0a4.57,4.57,0,0,0-1.07-9H243.27" style="fill:none;stroke:#17306d;stroke-linecap:round;stroke-linejoin:round;stroke-width:2.3399999141693115px"/><line x1="205.9" y1="77.26" x2="205.9" y2="77.56" style="fill:none;stroke:#17306d;stroke-linecap:round;stroke-linejoin:round;stroke-width:2.3399999141693115px"/><line x1="205.9" y1="83.3" x2="205.9" y2="168.87" style="fill:none;stroke:#17306d;stroke-linecap:round;stroke-linejoin:round;stroke-width:2.3399999141693115px;stroke-dasharray:0.5699999928474426,5.739999771118164"/><line x1="205.9" y1="171.74" x2="205.9" y2="172.03" style="fill:none;stroke:#17306d;stroke-linecap:round;stroke-linejoin:round;stroke-width:2.3399999141693115px"/><polygon points="196.31 164.27 198.03 162.67 205.9 171.13 213.76 162.67 215.48 164.27 205.9 174.58 196.31 164.27" style="fill:#17306d"/><path d="M107.17,182.5c4.19,1.35,4.85,6.73,10.21,6.73,6.12,0,6.12-7,12.23-7s6.12,7,12.24,7,6.12-7,12.24-7,6.11,7,12.23,7,6.11-7,12.23-7,6.12,7,12.24,7,6.12-7,12.24-7,6.12,7,12.23,7,6.13-7,12.25-7c5.29,0,6,5.25,10.05,6.68" style="fill:none;stroke:#17306d;stroke-linecap:round;stroke-linejoin:round;stroke-width:2.3399999141693115px"/><g style="isolation:isolate"><path d="M68.007,15.11V5.776h1.415V7.085a3.325,3.325,0,0,1,1.169-1.1,3.276,3.276,0,0,1,1.661-.418,3.073,3.073,0,0,1,1.7.43A2.313,2.313,0,0,1,74.889,7.2a3.35,3.35,0,0,1,2.883-1.635,2.843,2.843,0,0,1,2.135.769A3.287,3.287,0,0,1,80.655,8.7V15.11H79.081V9.23a4.307,4.307,0,0,0-.154-1.366,1.318,1.318,0,0,0-.558-.673,1.74,1.74,0,0,0-.949-.255,2.216,2.216,0,0,0-1.635.654,2.891,2.891,0,0,0-.65,2.1V15.11H73.553V9.045a2.668,2.668,0,0,0-.387-1.582A1.465,1.465,0,0,0,71.9,6.936a2.3,2.3,0,0,0-1.235.351,2,2,0,0,0-.822,1.029,5.783,5.783,0,0,0-.255,1.951V15.11Z" style="fill:#17306d"/><path d="M89.992,13.958A5.893,5.893,0,0,1,88.3,15.013a4.893,4.893,0,0,1-1.745.308,3.389,3.389,0,0,1-2.364-.752,2.478,2.478,0,0,1-.826-1.92,2.6,2.6,0,0,1,1.129-2.162,3.832,3.832,0,0,1,1.139-.519,11.264,11.264,0,0,1,1.406-.237,14.5,14.5,0,0,0,2.821-.545c.006-.217.009-.355.009-.413a1.747,1.747,0,0,0-.448-1.362,2.646,2.646,0,0,0-1.8-.537,2.791,2.791,0,0,0-1.648.392,2.388,2.388,0,0,0-.787,1.384l-1.547-.211a3.844,3.844,0,0,1,.695-1.605,3.044,3.044,0,0,1,1.4-.939,6.206,6.206,0,0,1,2.118-.33,5.622,5.622,0,0,1,1.943.281,2.57,2.57,0,0,1,1.1.707,2.494,2.494,0,0,1,.493,1.077,9,9,0,0,1,.079,1.459V11.2a22.256,22.256,0,0,0,.1,2.79,3.5,3.5,0,0,0,.4,1.121H90.308A3.358,3.358,0,0,1,89.992,13.958Zm-.132-3.533a11.554,11.554,0,0,1-2.584.6,6.018,6.018,0,0,0-1.38.316,1.379,1.379,0,0,0-.624.515,1.4,1.4,0,0,0,.259,1.806,2.064,2.064,0,0,0,1.4.421,3.255,3.255,0,0,0,1.626-.4,2.46,2.46,0,0,0,1.046-1.1,3.816,3.816,0,0,0,.255-1.582Z" style="fill:#17306d"/><path d="M94.777,15.11V2.225h1.582V15.11Z" style="fill:#17306d"/><path d="M103.165,13.7l.229,1.4a5.861,5.861,0,0,1-1.2.141,2.7,2.7,0,0,1-1.335-.273,1.514,1.514,0,0,1-.668-.716A5.651,5.651,0,0,1,100,12.376V7.006h-1.16V5.776H100V3.464l1.573-.949V5.776h1.591v1.23h-1.591v5.458a2.742,2.742,0,0,0,.084.87.659.659,0,0,0,.272.308,1.057,1.057,0,0,0,.541.114A5.126,5.126,0,0,0,103.165,13.7Z" style="fill:#17306d"/><path d="M105.023,10.443A4.811,4.811,0,0,1,106.465,6.6,4.343,4.343,0,0,1,109.4,5.565a4.19,4.19,0,0,1,3.147,1.262,4.8,4.8,0,0,1,1.221,3.484,6.177,6.177,0,0,1-.54,2.834,3.824,3.824,0,0,1-1.573,1.6,4.582,4.582,0,0,1-2.255.572,4.193,4.193,0,0,1-3.168-1.257A5.019,5.019,0,0,1,105.023,10.443Zm1.626,0a3.973,3.973,0,0,0,.782,2.684,2.6,2.6,0,0,0,3.929,0,4.064,4.064,0,0,0,.782-2.733,3.863,3.863,0,0,0-.786-2.624,2.609,2.609,0,0,0-3.925,0A3.96,3.96,0,0,0,106.649,10.443Z" style="fill:#17306d"/></g><path d="M216.28,34.66a10.38,10.38,0,1,1-20.76.015V34.66c0-8.71,10.38-22.24,10.38-28.26C205.9,12.42,216.28,25.95,216.28,34.66Z" style="fill:#17306d;opacity:0.5;isolation:isolate"/><path d="M211.72,32.97a6.079,6.079,0,0,1-2.6,6.33" style="fill:none;stroke:#17306d;stroke-linecap:round;stroke-linejoin:round;stroke-width:1.1699999570846558px"/><path d="M216.28,34.66a10.38,10.38,0,1,1-20.76.015V34.66c0-8.71,10.38-22.24,10.38-28.26C205.9,12.42,216.28,25.95,216.28,34.66Z" style="fill:none;stroke:#17306d;stroke-linecap:round;stroke-linejoin:round;stroke-width:2.3399999141693115px"/><polyline points="133.27 318.2 141.55 308.5 203.34 308.5 211.62 318.2" style="fill:none;stroke:#17306d;stroke-linecap:round;stroke-linejoin:round;stroke-width:2.3399999141693115px"/><line x1="211.62" y1="318.2" x2="133.27" y2="318.2" style="fill:none;stroke:#17306d;stroke-linecap:round;stroke-linejoin:round;stroke-width:2.3399999141693115px"/><polyline points="139.55 310.84 118.89 286.53 162.34 286.53 160.01 290.22 135.59 293.05 141.55 308.5" style="fill:none;stroke:#17306d;stroke-linecap:round;stroke-linejoin:round;stroke-width:2.3399999141693115px"/><polyline points="211.62 318.2 211.62 324.36 133.27 324.36 133.27 318.2" style="fill:none;stroke:#17306d;stroke-linecap:round;stroke-linejoin:round;stroke-width:2.3399999141693115px"/><polyline points="205.35 310.84 226.01 286.53 182.56 286.53 184.88 290.22 209.31 293.05 203.34 308.5" style="fill:none;stroke:#17306d;stroke-linecap:round;stroke-linejoin:round;stroke-width:2.3399999141693115px"/><path d="M188.63,302.17a3.141,3.141,0,0,0,.85-.32,5.1,5.1,0,0,0,.86-.58,6.815,6.815,0,0,0,1.41-1.65,11.39,11.39,0,0,0,1-2l.37-1.09.31-1.12h0v-.06a1.16,1.16,0,0,1,2.23,0l.45,1.71c.11.59.23,1.17.32,1.76a17.394,17.394,0,0,1,.15,3.62,12.833,12.833,0,0,1-.74,3.64,10.4,10.4,0,0,1-.83,1.72,7.057,7.057,0,0,1-1.3,1.62,1.182,1.182,0,0,1-1.59-1.75l.08-.08a4.972,4.972,0,0,0,.8-1,7.987,7.987,0,0,0,.63-1.32,10.461,10.461,0,0,0,.6-3,15.675,15.675,0,0,0-.11-3.1l-.29-1.57-.4-1.57h2.25l-.43,1.23-.52,1.21a13.126,13.126,0,0,1-1.37,2.3,8.688,8.688,0,0,1-1.93,1.95,7.123,7.123,0,0,1-1.229.71,4.519,4.519,0,0,1-1.5.39.819.819,0,0,1-.89-.74.83.83,0,0,1,.649-.88Z" style="fill:#17306d"/><path d="M187.56,306.1a20.857,20.857,0,0,0-1-6.45,31.381,31.381,0,0,0-1.12-3.09,27.987,27.987,0,0,0-1.42-2.92h0l2.2-.42a17.7,17.7,0,0,1-1.16,4,20.073,20.073,0,0,1-1.95,3.56,24.347,24.347,0,0,1-2.52,3.11,23.628,23.628,0,0,1-3,2.68.5.5,0,0,1-.7-.089l-.009-.011a.51.51,0,0,1,.06-.68h0a23.138,23.138,0,0,0,2.57-2.76,24.71,24.71,0,0,0,2.11-3.12,18.1,18.1,0,0,0,1.5-3.38,15.5,15.5,0,0,0,.71-3.54h0a1.18,1.18,0,0,1,1.29-1,1.148,1.148,0,0,1,.91.63h0a29.794,29.794,0,0,1,1.29,3.3,34.737,34.737,0,0,1,.92,3.37,22.111,22.111,0,0,1,.46,7,.629.629,0,0,1-.69.55.62.62,0,0,1-.55-.63Z" style="fill:#17306d"/><path d="M158.12,303.7a4.447,4.447,0,0,1-1.48-.38,7.773,7.773,0,0,1-1.23-.69,8.855,8.855,0,0,1-1.93-1.93,14.227,14.227,0,0,1-1.36-2.28l-.56-1.25-.44-1.19h2.25l-.4,1.57-.29,1.62a15.855,15.855,0,0,0-.13,3.14,10.529,10.529,0,0,0,.6,3,8.151,8.151,0,0,0,.63,1.32,5.042,5.042,0,0,0,.8,1l.09.09a1.17,1.17,0,0,1,.06,1.65,1.15,1.15,0,0,1-1.624.085l-.016-.015a6.937,6.937,0,0,1-1.31-1.62,10.557,10.557,0,0,1-.83-1.72,12.9,12.9,0,0,1-.74-3.64,18.261,18.261,0,0,1,.15-3.62c.09-.59.21-1.17.32-1.76l.45-1.71a1.16,1.16,0,0,1,2.23,0v.05h0l.3,1.12.36,1.1a12.744,12.744,0,0,0,1,2,7.215,7.215,0,0,0,1.41,1.68,5.122,5.122,0,0,0,.87.59,4.009,4.009,0,0,0,.87.34h.13a.76.76,0,0,1,.58.89A.749.749,0,0,1,158.12,303.7Z" style="fill:#17306d"/><path d="M166.01,303.48a10.358,10.358,0,0,1,.9-4.45,10.986,10.986,0,0,1,1.14-2,10.2,10.2,0,0,1,1.57-1.75h0a.94.94,0,0,1,1.322.14l.008.01a.924.924,0,0,1,.19.46c.1.67.24,1.4.41,2.08s.37,1.39.6,2.06a10.967,10.967,0,0,0,2,3.61h-1a8.836,8.836,0,0,0,.71-2.78,29.132,29.132,0,0,0,.24-3.15v-3.24l-.15-3.24h0v-.13a1.251,1.251,0,0,1,1.177-1.32h0a1.269,1.269,0,0,1,1.06.49,27.44,27.44,0,0,1,2,3,26.188,26.188,0,0,1,1.59,3.19,16.438,16.438,0,0,1,1,3.47,9.631,9.631,0,0,1-.08,3.71.68.68,0,0,1-1.33-.25h0a8.071,8.071,0,0,0-.22-3.09,13.813,13.813,0,0,0-1.17-3,22.75,22.75,0,0,0-1.71-2.79,26.9,26.9,0,0,0-2-2.53l2.24-1h0a35.762,35.762,0,0,1,.13,6.87,21.114,21.114,0,0,1-.55,3.48,6.123,6.123,0,0,1-1.93,3.27l-.14.11a.579.579,0,0,1-.814-.094l-.006-.006h0a12.406,12.406,0,0,1-2.56-4,21.954,21.954,0,0,1-.8-2.18c-.22-.74-.42-1.46-.58-2.26l1.54.61h0a8.344,8.344,0,0,0-1.32,1.33,9.019,9.019,0,0,0-1.05,1.62,8.651,8.651,0,0,0-1,3.73h0a.73.73,0,0,1-1.45,0Z" style="fill:#17306d"/><path d="M158.03,306.17a22.17,22.17,0,0,1,.46-7,32.408,32.408,0,0,1,.91-3.37,30.273,30.273,0,0,1,1.29-3.3h0a1.16,1.16,0,0,1,1.557-.517l.013.007a1.179,1.179,0,0,1,.63.9h0a16.124,16.124,0,0,0,.73,3.53,19.178,19.178,0,0,0,1.52,3.37,24.527,24.527,0,0,0,2.12,3.09,23.865,23.865,0,0,0,2.57,2.73h0a.6.6,0,0,1,.053.847l0,0a.61.61,0,0,1-.82.07,25.505,25.505,0,0,1-5.45-5.84,19.854,19.854,0,0,1-1.94-3.57,18.009,18.009,0,0,1-1.14-4l2.2.42h0a28.188,28.188,0,0,0-1.42,2.92,31.035,31.035,0,0,0-1.12,3.09,20.617,20.617,0,0,0-1,6.45h0a.609.609,0,0,1-.589.63h-.011A.621.621,0,0,1,158.03,306.17Z" style="fill:#17306d"/><line x1="101.63" y1="324.36" x2="243.27" y2="324.36" style="fill:none;stroke:#17306d;stroke-linecap:round;stroke-linejoin:round;stroke-width:2.3399999141693115px"/><path d="M114.55,94.17l2.25-2.27c.8-.74,1.6-1.5,2.39-2.29,11.75-11.76,18.16-24.44,14.32-28.25s-16.3,2.81-28.06,14.51-18.25,24.3-14.51,28.06L55.35,68.34c-3.74-3.74,2.77-16.31,14.51-28.06S94.18,22.03,97.92,25.77l35.59,35.59" style="fill:none;stroke:#17306d;stroke-linecap:round;stroke-linejoin:round;stroke-width:2.3399999141693115px"/><path d="M100.51,81.5l6.66,5.43,7.38,7.24c.79-.74,3.85-3.77,4.64-4.56,11.75-11.76,18.16-24.44,14.32-28.25s-16.3,2.81-28.06,14.51" style="fill:#17306d;opacity:0.5;isolation:isolate"/><path d="M100.51,81.5c-8.73,9.57-12.39,19.67-9.57,22.43,0,0,26.06,23.52,31.23,83.23h0c2.12-2.08,3.53-5,7.44-5,6.12,0,6.12,7,12.24,7s6.12-7,12.24-7a6.913,6.913,0,0,1,1.15.09v-.19C145.12,111.96,100.51,81.5,100.51,81.5" style="fill:url(#USGS_22_Gravel_Beach_4)"/><path d="M250.99,155.55h0a13.42,13.42,0,0,0-13.42,13.42V272.98a7.759,7.759,0,0,1-7.76,7.75H115.12a7.75,7.75,0,0,1-7.76-7.74V168.98a13.42,13.42,0,0,0-13.41-13.43h-.01" style="fill:none;stroke:#17306d;stroke-linecap:round;stroke-linejoin:round;stroke-width:2.3399999141693115px"/></g><g style="isolation:isolate"><path d="M185.738,65.625a5.893,5.893,0,0,1-1.692,1.055,4.889,4.889,0,0,1-1.745.308,3.389,3.389,0,0,1-2.364-.752,2.478,2.478,0,0,1-.826-1.92,2.55,2.55,0,0,1,.312-1.252,2.578,2.578,0,0,1,.817-.91,3.832,3.832,0,0,1,1.139-.519,11.264,11.264,0,0,1,1.406-.237,14.5,14.5,0,0,0,2.821-.545c.006-.217.009-.355.009-.413a1.744,1.744,0,0,0-.448-1.362,2.646,2.646,0,0,0-1.8-.537,2.793,2.793,0,0,0-1.648.392,2.393,2.393,0,0,0-.787,1.384l-1.546-.211a3.843,3.843,0,0,1,.694-1.605,3.044,3.044,0,0,1,1.4-.939,6.206,6.206,0,0,1,2.118-.33,5.622,5.622,0,0,1,1.943.281,2.57,2.57,0,0,1,1.1.707,2.494,2.494,0,0,1,.493,1.077,9,9,0,0,1,.079,1.459v2.11a22.256,22.256,0,0,0,.1,2.79,3.521,3.521,0,0,0,.4,1.121h-1.653A3.358,3.358,0,0,1,185.738,65.625Zm-.132-3.533a11.554,11.554,0,0,1-2.584.6,6.018,6.018,0,0,0-1.38.316,1.379,1.379,0,0,0-.624.515,1.4,1.4,0,0,0,.26,1.806,2.06,2.06,0,0,0,1.4.421,3.255,3.255,0,0,0,1.626-.4,2.46,2.46,0,0,0,1.046-1.095,3.819,3.819,0,0,0,.255-1.582Z" style="fill:#17306d"/><path d="M196.649,63.358l1.555.2a4.035,4.035,0,0,1-1.305,2.518,3.8,3.8,0,0,1-2.579.91,4.01,4.01,0,0,1-3.081-1.252,5.088,5.088,0,0,1-1.165-3.591,6.5,6.5,0,0,1,.5-2.646,3.505,3.505,0,0,1,1.525-1.7,4.537,4.537,0,0,1,2.228-.566,3.879,3.879,0,0,1,2.488.769,3.532,3.532,0,0,1,1.239,2.184l-1.538.237a2.56,2.56,0,0,0-.778-1.415,2.014,2.014,0,0,0-1.349-.474,2.456,2.456,0,0,0-1.943.857A4.065,4.065,0,0,0,191.7,62.1a4.206,4.206,0,0,0,.721,2.733,2.345,2.345,0,0,0,1.881.853,2.221,2.221,0,0,0,1.556-.571A2.84,2.84,0,0,0,196.649,63.358Z" style="fill:#17306d"/><path d="M206.407,70.354v-4.57a2.832,2.832,0,0,1-1.032.861,3.038,3.038,0,0,1-1.411.343,3.732,3.732,0,0,1-2.86-1.327,5.226,5.226,0,0,1-1.2-3.639,6.246,6.246,0,0,1,.488-2.523,3.638,3.638,0,0,1,1.415-1.691,3.779,3.779,0,0,1,2.034-.576,3.126,3.126,0,0,1,2.725,1.459V57.443h1.423V70.354Zm-4.877-8.271a4.123,4.123,0,0,0,.755,2.7,2.291,2.291,0,0,0,1.811.9,2.211,2.211,0,0,0,1.74-.858,3.943,3.943,0,0,0,.73-2.6,4.353,4.353,0,0,0-.769-2.8,2.28,2.28,0,0,0-1.807-.94,2.181,2.181,0,0,0-1.744.875A4.272,4.272,0,0,0,201.53,62.083Z" style="fill:#17306d"/><path d="M217.486,66.777V65.406a3.419,3.419,0,0,1-2.962,1.582,3.769,3.769,0,0,1-1.542-.317,2.538,2.538,0,0,1-1.064-.8,2.993,2.993,0,0,1-.488-1.173,7.985,7.985,0,0,1-.1-1.477V57.443h1.582v5.176a9.158,9.158,0,0,0,.1,1.67,1.645,1.645,0,0,0,.633.98,1.954,1.954,0,0,0,1.195.356,2.6,2.6,0,0,0,1.336-.364,2.027,2.027,0,0,0,.884-.994,4.973,4.973,0,0,0,.259-1.823v-5H218.9v9.334Z" style="fill:#17306d"/><path d="M228.37,65.625a5.893,5.893,0,0,1-1.692,1.055,4.888,4.888,0,0,1-1.744.308,3.386,3.386,0,0,1-2.364-.752,2.478,2.478,0,0,1-.827-1.92,2.6,2.6,0,0,1,1.129-2.162,3.832,3.832,0,0,1,1.139-.519,11.3,11.3,0,0,1,1.406-.237,14.481,14.481,0,0,0,2.821-.545c.006-.217.009-.355.009-.413a1.744,1.744,0,0,0-.448-1.362,2.645,2.645,0,0,0-1.8-.537,2.791,2.791,0,0,0-1.648.392,2.387,2.387,0,0,0-.786,1.384l-1.547-.211a3.843,3.843,0,0,1,.694-1.605,3.042,3.042,0,0,1,1.4-.939,6.2,6.2,0,0,1,2.118-.33,5.616,5.616,0,0,1,1.942.281,2.58,2.58,0,0,1,1.1.707,2.5,2.5,0,0,1,.492,1.077,8.885,8.885,0,0,1,.079,1.459v2.11a22.256,22.256,0,0,0,.1,2.79,3.521,3.521,0,0,0,.4,1.121h-1.652A3.358,3.358,0,0,1,228.37,65.625Zm-.132-3.533a11.557,11.557,0,0,1-2.583.6,5.991,5.991,0,0,0-1.38.316,1.368,1.368,0,0,0-.624.515,1.4,1.4,0,0,0,.258,1.806,2.067,2.067,0,0,0,1.4.421,3.26,3.26,0,0,0,1.626-.4,2.471,2.471,0,0,0,1.046-1.095,3.822,3.822,0,0,0,.254-1.582Z" style="fill:#17306d"/></g></svg>