<svg xmlns="http://www.w3.org/2000/svg" xmlns:xlink="http://www.w3.org/1999/xlink" viewBox="0 0 188.61 294.19"><defs><style>.cls-1{fill:#fcc097;stroke:#596667;stroke-linecap:round;stroke-linejoin:round;}.cls-2{fill:#8281be;}.cls-3{fill:#e1e673;}.cls-4{fill:#6a6bb1;}.cls-5,.cls-6{fill:#596667;}.cls-10,.cls-11,.cls-12,.cls-13,.cls-14,.cls-15,.cls-6,.cls-8,.cls-9{opacity:0.2;}.cls-7{fill:#4a4a4a;}.cls-8{fill:url(#linear-gradient);}.cls-9{fill:url(#linear-gradient-2);}.cls-10{fill:url(#linear-gradient-3);}.cls-11{fill:url(#linear-gradient-4);}.cls-12{fill:url(#linear-gradient-5);}.cls-13{fill:url(#linear-gradient-6);}.cls-14{fill:url(#linear-gradient-7);}.cls-15{fill:url(#linear-gradient-8);}</style><linearGradient id="linear-gradient" x1="61.95" y1="275.13" x2="58.66" y2="275.13" gradientUnits="userSpaceOnUse"><stop offset="0" stop-color="#fff"/><stop offset="1"/></linearGradient><linearGradient id="linear-gradient-2" x1="65.47" y1="275.85" x2="62.18" y2="275.85" xlink:href="#linear-gradient"/><linearGradient id="linear-gradient-3" x1="68.76" y1="276.48" x2="65.47" y2="276.48" xlink:href="#linear-gradient"/><linearGradient id="linear-gradient-4" x1="72.05" y1="276.27" x2="68.76" y2="276.27" xlink:href="#linear-gradient"/><linearGradient id="linear-gradient-5" x1="75.34" y1="275.32" x2="72.05" y2="275.32" xlink:href="#linear-gradient"/><linearGradient id="linear-gradient-6" x1="78.32" y1="273.68" x2="75.03" y2="273.68" xlink:href="#linear-gradient"/><linearGradient id="linear-gradient-7" x1="81.15" y1="271.55" x2="77.86" y2="271.55" xlink:href="#linear-gradient"/><linearGradient id="linear-gradient-8" x1="83.98" y1="269.61" x2="80.69" y2="269.61" xlink:href="#linear-gradient"/></defs><g id="soggetto"><path class="cls-1" d="M240,318.81s-4.78-6.95-6.58-10.43a63.53,63.53,0,0,1-3.52-10.05,14.38,14.38,0,0,1-5.48-2.21c-2.11-1.64-5.71-4.25-7.58-9.34s-4.22-7.44-7.69-10-5-4.55-4.84-6.37.41-3.77-.38-5.34-2.4-4.84-.66-5.71,4.51-.13,6.25,2.73,2.23,4.32,2.15,6.21a8.85,8.85,0,0,1-.5,2.27L223.18,259a3.26,3.26,0,0,1-3.91.3c-2-1.41-1.39-3.64.35-6.29a68,68,0,0,1,6-7.87,8.59,8.59,0,0,1,4.2-2.48c1.34-.25,4.6.66,5.16,2.9s.66,4.38,1.65,5.54,2.86,3.56,3.29,5.63,1.09,2.57,1.09,2.57,3,1.07,4.31,1.57,3,1.07,3.7,2.65,3.13,2.07,3.89,3.8a10.58,10.58,0,0,1,0,7.54c-1.06,3.06-2.62,7.11-2.71,8.6s-.72,6.85.46,9.77a76.64,76.64,0,0,0,8.48,13.65C261.82,310,241.67,321.32,240,318.81Z" transform="translate(-169.62 -25.48)"/><path class="cls-2" d="M307.57,165.82c-20-24-49.35-32.5-65.6-19-10,8.35-12.72,23.13-8.62,38.87-.72,2.11-3.61,10.07-7.61,13.22A135.8,135.8,0,0,0,212,211.35a10.49,10.49,0,0,1-5.29,3.48s-2.71-1.16-4.25.16-8.33,8.11-11,11.09-4.8,7.45-5.79,13.41-3.15,10.92-1,15.72,6.35,9.44,12.6,9.27a73.75,73.75,0,0,1,8.34.06h0l34.2,30.81a2.5,2.5,0,0,0,3.53-.19l7.19-8a2.49,2.49,0,0,0-.18-3.52L220.79,257l15.88-7.89c8.69-6.41,15.55-9.8,20.11-11.21s14.74-4.21,14.74-4.21h0c15.65,8.34,32.05,9,42.76.08C330.55,220.25,327.54,189.83,307.57,165.82Z" transform="translate(-169.62 -25.48)"/><path class="cls-3" d="M308.23,165.52c-10-11.94-23.68-22-39.24-24.85a37,37,0,0,0-18.68,1,27.87,27.87,0,0,0-14.8,11.85c-4.14,6.84-5.22,15.1-4.54,23a55,55,0,0,0,1,6.53,9.75,9.75,0,0,1,.59,3.05,10.15,10.15,0,0,1-.65,1.77A33.11,33.11,0,0,1,227,197a29.49,29.49,0,0,1-4.17,3.71c-1.58,1.31-3.14,2.66-4.67,4s-3,2.68-4.38,4.07a51.4,51.4,0,0,1-4,4,10.38,10.38,0,0,1-2.16,1.31c-.21.09-.48.14-.68.25,0,0-.18,0-.2.06l-.09,0c-.18,0,0,0,.49,0,.12-.25-3.14-.46-3.38-.42a5.63,5.63,0,0,0-2.86,1.77q-1.6,1.53-3.18,3.11c-2.31,2.31-4.65,4.62-6.81,7.07a25,25,0,0,0-5.08,9.86c-.64,2.27-1,4.61-1.46,6.91a48.48,48.48,0,0,0-1.26,7A14.6,14.6,0,0,0,186.75,260a13.08,13.08,0,0,0,9.32,5c2.08.11,4.19-.07,6.28,0,.89,0,1.83.14,2.72.09.55,0-.17-.32,0,0a4.4,4.4,0,0,0,.72.64l3.14,2.84,22.29,20.07,7.37,6.63a3.76,3.76,0,0,0,3.46,1.24c1.82-.39,3.1-2.39,4.26-3.69,1.53-1.7,3.09-3.37,4.59-5.09a3,3,0,0,0,0-4.41c-2.24-2.09-4.57-4.1-6.84-6.15L222.9,258l-1.44-1.3-.36.68,8.49-4.22a67.45,67.45,0,0,0,9.32-5c5.36-3.81,11.16-7.52,17.45-9.59,4.8-1.58,9.72-2.85,14.59-4.19a1.94,1.94,0,0,1,.6-.17c.24,0-.23.1-.17.15a13.16,13.16,0,0,0,1.68.84,60.5,60.5,0,0,0,5.62,2.41,50.85,50.85,0,0,0,11.4,2.82c6.87.84,14.1,0,20.25-3.34,10.39-5.65,15.13-17,15.16-28.42,0-13.83-5.66-27.35-13.63-38.44-1.16-1.6-2.37-3.15-3.63-4.67-.37-.46-1.76.09-1.33.61,8.93,10.78,15.62,24,16.92,38.13,1,11.28-1.94,23.62-11.62,30.48-5.91,4.19-13.26,5.48-20.38,4.82a48,48,0,0,1-11.65-2.66,58,58,0,0,1-6.19-2.62c-.84-.41-1.73-1.19-2.69-1-1.82.38-3.62,1-5.41,1.51q-4,1.13-8.06,2.32a61,61,0,0,0-15,7.18q-2.66,1.68-5.22,3.53a13.71,13.71,0,0,1-1.7,1.15l-4.22,2.1-10.49,5.21-.7.35c-.18.09-.63.43-.36.68l16.09,14.48,10.27,9.25,2.77,2.49c1.12,1,1.64,2.33.54,3.65-1.36,1.62-2.84,3.15-4.25,4.72l-2.18,2.41c-.72.81-1.52,1.63-2.69.84a46.21,46.21,0,0,1-4.74-4.23L214.3,271.45,207,264.89a2.72,2.72,0,0,0-1.22-.83,11.8,11.8,0,0,0-2.06-.1c-1.65,0-3.31,0-5,0a13,13,0,0,1-6.48-1.14,13.53,13.53,0,0,1-4.31-3.61,14.07,14.07,0,0,1-3.3-11.11c.3-2.17.86-4.3,1.31-6.45s.81-4.58,1.5-6.82a23.88,23.88,0,0,1,5.27-9.34c2.2-2.39,4.48-4.69,6.79-7,.94-.94,1.89-1.88,2.87-2.79,1.16-1.08,2.22-.91,3.67-.54a2.75,2.75,0,0,0,1.81-.28,12.23,12.23,0,0,0,4.2-2.87c2.5-2.53,5-5,7.64-7.39q2.37-2.11,4.83-4.13a24.28,24.28,0,0,0,3.57-3.22,32.76,32.76,0,0,0,4.82-8.65,11.4,11.4,0,0,0,1.12-3,12.58,12.58,0,0,0-.65-2.83c-.24-1.16-.46-2.32-.63-3.5a46.64,46.64,0,0,1-.25-12.6c.91-7.5,4.08-14.8,10-19.68a28.06,28.06,0,0,1,16.51-6.1c14.5-.75,28.69,6.89,39.24,16.27a83.39,83.39,0,0,1,8.61,8.92C307.28,166.58,308.67,166,308.23,165.52Z" transform="translate(-169.62 -25.48)"/><path class="cls-1" d="M223.18,259l-.22.16" transform="translate(-169.62 -25.48)"/></g><g id="ombre"><path class="cls-4" d="M319.25,205.22a72.71,72.71,0,0,0-2.76-13.69c-2.11-6.54-7.4-14.73-7.4-14.73,8.51,32.15-19.42,46.18-28,47.54-10,1.6-13.8,1.27-13.8,1.27l8.58,5.27,10.38,4,8.24,1.3,7.58-.68,6.33-2.71L313.9,228l3.62-6.28,1.68-6.58.05-6.47Z" transform="translate(-169.62 -25.48)"/><path class="cls-4" d="M258.78,198.11l-11,6.83,6.49,8.64,7.33,7.44,13.64-11.31s-8.68,2.39-14.2-7C257.85,197.37,258.78,198.11,258.78,198.11Z" transform="translate(-169.62 -25.48)"/><path class="cls-4" d="M238.64,199.58s-13.06,11.36-15.46,13.09a7.21,7.21,0,0,0-2.28,8c.87,3,1.64,6.91,1.64,6.91L218,218.2S209.85,225,207.87,227s-5.73,5.83-3.89,9.21,7.66,10.42,7.66,10.42L225,256.5l20-13.19,9.27-4.5,17.26-5.11-13.79-9.6-9.65-10Z" transform="translate(-169.62 -25.48)"/><path class="cls-4" d="M257.22,144.89c-7.4,6.83-14.22,16.89-15.59,26a162.85,162.85,0,0,0-1.52,18.49l-2.91-17.31,1.88-10.92a30.06,30.06,0,0,1,6.62-8.8A46.85,46.85,0,0,1,257.22,144.89Z" transform="translate(-169.62 -25.48)"/><path class="cls-4" d="M198.77,232.53a21.3,21.3,0,0,0-9.83,12.85,112.75,112.75,0,0,0-2.35,13.18l3.06,3.31,4.54,2.28,11.44.39,34.86,30.93a1.59,1.59,0,0,0,2.18-.06l7.68-7.61a3.1,3.1,0,0,0-.24-4.39L223,259.13s-12.66-5.93-17.34-13.08A67.09,67.09,0,0,1,198.77,232.53Z" transform="translate(-169.62 -25.48)"/></g><g id="contorni"><path class="cls-5" d="M272.1,233.36a79.69,79.69,0,0,1-33.52-35.56,70.52,70.52,0,0,1-4.52-12.27c-.12-.49-1.58-.1-1.45.39C236.85,202,247,216.5,259.94,226.79a73.15,73.15,0,0,0,11,7.26c.41.21,1.74-.38,1.16-.69Z" transform="translate(-169.62 -25.48)"/><path class="cls-5" d="M318.53,205.42c1.17,10.61-1.59,22.69-11.88,27.9-8,4.08-17.84,2.44-25.87-.81-10.62-4.3-19.82-11.85-27.06-20.65-7.38-9-13.11-19.74-15.11-31.26-1.71-9.87-.44-21.3,7.66-28.14.62-.52-.81-.49-1.15-.2-7.28,6.14-9.31,15.92-8.45,25,1.12,12,6.63,23.32,13.84,32.76s16.79,17.79,27.86,22.61c8.39,3.65,18.34,5.45,27.09,2a22.39,22.39,0,0,0,11.46-10.13c3.22-5.94,3.79-12.88,3.06-19.49-.05-.45-1.51-.13-1.45.39Z" transform="translate(-169.62 -25.48)"/><path class="cls-5" d="M245.59,243A37,37,0,0,1,225,229.86a38,38,0,0,1-7.48-23.46c0-.2-1.45,0-1.45.38a38,38,0,0,0,8,24.12,37.52,37.52,0,0,0,20.31,12.68c.33.08,1.58-.45,1.2-.54Z" transform="translate(-169.62 -25.48)"/><path class="cls-5" d="M205.91,214.84a18.28,18.28,0,0,0-4.7,11.49c-.29,6.13,2.38,11.89,6.15,16.58a52.53,52.53,0,0,0,11.58,10.33c.38.26,1.67-.32,1.35-.53-10.09-6.9-21.44-18.91-16.5-32.23a17,17,0,0,1,3.45-5.67c.37-.4-1.05-.27-1.33,0Z" transform="translate(-169.62 -25.48)"/><path class="cls-5" d="M202.54,214.65a20.5,20.5,0,0,0-4.93,12.95c-.19,6.93,2.92,13.41,7.26,18.66a61.08,61.08,0,0,0,13.37,11.62c.47.31,1.78-.35,1.13-.78-11.43-7.62-24.43-21-19.15-36a18.49,18.49,0,0,1,3.51-6.08c.59-.67-.8-.79-1.19-.35Z" transform="translate(-169.62 -25.48)"/><path class="cls-5" d="M193.84,245.44l5.76-4.13.82-.59c.23-.17.17-.34-.1-.38a1.59,1.59,0,0,0-1,.27l-5.76,4.13-.82.59c-.24.17-.17.34.1.38a1.59,1.59,0,0,0,1-.27Z" transform="translate(-169.62 -25.48)"/><path class="cls-5" d="M194.64,247.68l5.76-4.12.82-.6c.21-.14.42-.42.12-.6a1.12,1.12,0,0,0-1,.13l-5.75,4.12-.83.6c-.2.14-.41.42-.11.6a1.1,1.1,0,0,0,1-.13Z" transform="translate(-169.62 -25.48)"/><path class="cls-5" d="M195.8,249.78l5.75-4.13.83-.59c.22-.16.39-.49.1-.67a1,1,0,0,0-1,.1l-5.75,4.13-.83.59c-.22.16-.39.49-.09.68a1,1,0,0,0,1-.11Z" transform="translate(-169.62 -25.48)"/><path class="cls-5" d="M185.86,235.68a38.57,38.57,0,0,0,1.65,7.73,44,44,0,0,0,3.88,9.32,23.27,23.27,0,0,0,6.6,7,15.78,15.78,0,0,0,3.88,2.42c.4.14,1.72-.46,1.17-.66a15.42,15.42,0,0,1-3.83-2.4,22.69,22.69,0,0,1-6.68-7.25,45.42,45.42,0,0,1-3.61-8.92,37.76,37.76,0,0,1-1.61-7.58c0-.41-1.49-.12-1.45.39Z" transform="translate(-169.62 -25.48)"/><path class="cls-5" d="M244.47,196.71l16-8.76,2.31-1.26c.25-.13.38-.3.15-.49s-.82,0-1,.15l-16,8.76-2.31,1.26c-.24.14-.38.31-.15.5s.82-.05,1-.16Z" transform="translate(-169.62 -25.48)"/><path class="cls-5" d="M274.75,209.39,263.23,219l-1.64,1.36c-.76.62.41,1.1,1,.64l11.52-9.56,1.64-1.35c.76-.63-.41-1.1-1-.65Z" transform="translate(-169.62 -25.48)"/><path class="cls-5" d="M275.24,193.17c2.53,3.56,4.53,8.84,2.52,13.11-1.88,4-6.42,3.77-9.83,2A17.93,17.93,0,0,1,259.22,197c-.89-3.6-.44-8.84,3.79-10.07,4.74-1.37,9.65,2.78,12.23,6.28.32.43,1.72-.08,1.33-.59-2.81-3.81-7.42-7.31-12.43-6.76-4.62.51-7,4.56-6.77,8.94.31,5.54,4,11,8.65,13.8,3.52,2.14,8.55,2.94,11.74-.26,4.26-4.29,1.81-11.51-1.19-15.72C276.26,192.13,274.86,192.64,275.24,193.17Z" transform="translate(-169.62 -25.48)"/><path class="cls-5" d="M308.23,165.52c-10-11.94-23.68-22-39.24-24.85a37,37,0,0,0-18.68,1,27.87,27.87,0,0,0-14.8,11.85c-4.14,6.84-5.22,15.1-4.54,23a55,55,0,0,0,1,6.53,9.75,9.75,0,0,1,.59,3.05,10.15,10.15,0,0,1-.65,1.77A33.11,33.11,0,0,1,227,197a29.49,29.49,0,0,1-4.17,3.71c-1.58,1.31-3.14,2.66-4.67,4s-3,2.68-4.38,4.07a51.4,51.4,0,0,1-4,4,10.38,10.38,0,0,1-2.16,1.31c-.21.09-.48.14-.68.25,0,0-.18,0-.2.06l-.09,0c-.18,0,0,0,.49,0,.12-.25-3.14-.46-3.38-.42a5.63,5.63,0,0,0-2.86,1.77q-1.6,1.53-3.18,3.11c-2.31,2.31-4.65,4.62-6.81,7.07a25,25,0,0,0-5.08,9.86c-.64,2.27-1,4.61-1.46,6.91a48.48,48.48,0,0,0-1.26,7A14.6,14.6,0,0,0,186.75,260a13.08,13.08,0,0,0,9.32,5c2.08.11,4.19-.07,6.28,0,.89,0,1.83.14,2.72.09.55,0-.17-.32,0,0a4.4,4.4,0,0,0,.72.64l3.14,2.84,22.29,20.07,7.37,6.63a3.76,3.76,0,0,0,3.46,1.24c1.82-.39,3.1-2.39,4.26-3.69,1.53-1.7,3.09-3.37,4.59-5.09a3,3,0,0,0,0-4.41c-2.24-2.09-4.57-4.1-6.84-6.15L222.9,258l-1.44-1.3-.36.68,8.49-4.22a67.45,67.45,0,0,0,9.32-5c5.36-3.81,11.16-7.52,17.45-9.59,4.8-1.58,9.72-2.85,14.59-4.19a1.94,1.94,0,0,1,.6-.17c.24,0-.23.1-.17.15a13.16,13.16,0,0,0,1.68.84,60.5,60.5,0,0,0,5.62,2.41,50.85,50.85,0,0,0,11.4,2.82c6.87.84,14.1,0,20.25-3.34,10.39-5.65,15.13-17,15.16-28.42,0-13.83-5.66-27.35-13.63-38.44-1.16-1.6-2.37-3.15-3.63-4.67-.37-.46-1.76.09-1.33.61,8.93,10.78,15.62,24,16.92,38.13,1,11.28-1.94,23.62-11.62,30.48-5.91,4.19-13.26,5.48-20.38,4.82a48,48,0,0,1-11.65-2.66,58,58,0,0,1-6.19-2.62c-.84-.41-1.73-1.19-2.69-1-1.82.38-3.62,1-5.41,1.51q-4,1.13-8.06,2.32a61,61,0,0,0-15,7.18q-2.66,1.68-5.22,3.53a13.71,13.71,0,0,1-1.7,1.15l-4.22,2.1-10.49,5.21-.7.35c-.18.09-.63.43-.36.68l16.09,14.48,10.27,9.25,2.77,2.49c1.12,1,1.64,2.33.54,3.65-1.36,1.62-2.84,3.15-4.25,4.72l-2.18,2.41c-.72.81-1.52,1.63-2.69.84a46.21,46.21,0,0,1-4.74-4.23L214.3,271.45,207,264.89a2.72,2.72,0,0,0-1.22-.83,11.8,11.8,0,0,0-2.06-.1c-1.65,0-3.31,0-5,0a13,13,0,0,1-6.48-1.14,13.53,13.53,0,0,1-4.31-3.61,14.07,14.07,0,0,1-3.3-11.11c.3-2.17.86-4.3,1.31-6.45s.81-4.58,1.5-6.82a23.88,23.88,0,0,1,5.27-9.34c2.2-2.39,4.48-4.69,6.79-7,.94-.94,1.89-1.88,2.87-2.79,1.16-1.08,2.22-.91,3.67-.54a2.75,2.75,0,0,0,1.81-.28,12.23,12.23,0,0,0,4.2-2.87c2.5-2.53,5-5,7.64-7.39q2.37-2.11,4.83-4.13a24.28,24.28,0,0,0,3.57-3.22,32.76,32.76,0,0,0,4.82-8.65,11.4,11.4,0,0,0,1.12-3,12.58,12.58,0,0,0-.65-2.83c-.24-1.16-.46-2.32-.63-3.5a46.64,46.64,0,0,1-.25-12.6c.91-7.5,4.08-14.8,10-19.68a28.06,28.06,0,0,1,16.51-6.1c14.5-.75,28.69,6.89,39.24,16.27a83.39,83.39,0,0,1,8.61,8.92C307.28,166.58,308.67,166,308.23,165.52Z" transform="translate(-169.62 -25.48)"/><path class="cls-1" d="M250.7,272.38c-2.18,2.3-4.71,2.86-7.45,3.17a11,11,0,0,0-5.65,2.3c-1.55,1-4.75,2.31-6.1,1.65s-1.43-2.61.23-4.76c0,0,2.42-4,8.72-6.08s6-1.8,6-1.8-3.66,1.05-6,1.8a16.53,16.53,0,0,0-8.72,6.08c-2.51,3.66-5.24,5.9-8.22,4.16s1.67-6.14,3.72-9.5,4.9-5.27,7.14-7.57,4.78-3,6.68-2.56" transform="translate(-169.62 -25.48)"/><path class="cls-1" d="M204.27,270.36c.12-1.82.41-3.77-.38-5.34s-2.4-4.84-.66-5.71,4.51-.13,6.25,2.73,2.23,4.32,2.15,6.21a8.85,8.85,0,0,1-.5,2.27" transform="translate(-169.62 -25.48)"/><path class="cls-1" d="M223,259.13a3.13,3.13,0,0,1-3.69.14c-2-1.41-1.39-3.64.35-6.29a68,68,0,0,1,6-7.87,8.59,8.59,0,0,1,4.2-2.48c1.34-.25,4.6.66,5.16,2.9l.87,4,.54,1.25" transform="translate(-169.62 -25.48)"/><path class="cls-1" d="M236.67,251.07c-2.74-1.53-5.53-3.49-8.14,0a160.27,160.27,0,0,0-8.93,14.67c-1.31,2.55-1.62,4.78.37,5.77s4.59.13,6.89-3.6S235,256.8,235,256.8" transform="translate(-169.62 -25.48)"/><ellipse class="cls-5" cx="265.96" cy="195.51" rx="0.72" ry="1" transform="translate(-233.74 167.89) rotate(-35.95)"/><ellipse class="cls-5" cx="268.12" cy="194.23" rx="0.72" ry="1" transform="translate(-232.58 168.91) rotate(-35.95)"/><ellipse class="cls-5" cx="270.7" cy="196.15" rx="0.72" ry="1" transform="translate(-233.21 170.79) rotate(-35.95)"/><ellipse class="cls-5" cx="268.65" cy="197.37" rx="0.72" ry="1" transform="translate(-234.32 169.82) rotate(-35.95)"/><ellipse class="cls-5" cx="271.32" cy="199.16" rx="0.72" ry="1" transform="translate(-234.86 171.72) rotate(-35.95)"/><ellipse class="cls-5" cx="268.95" cy="200.31" rx="0.72" ry="1" transform="translate(-235.98 170.55) rotate(-35.95)"/><ellipse class="cls-5" cx="266.44" cy="198.97" rx="0.72" ry="1" transform="translate(-235.67 168.83) rotate(-35.95)"/><path class="cls-6" d="M222.2,271.51c2.8-3.78,7.2-13.15,9.38-14a14.3,14.3,0,0,1,3.91-1l2.42,2.63-4.57,3.7-2.92,2.69-1.33-1-3.16,4.66-2.05,2.35Z" transform="translate(-169.62 -25.48)"/><path class="cls-6" d="M227.23,278.84c1.3-2.67,4.59-8.57,8.19-9.93s11.05-2.06,11.05-2.06l-8,2.56-3.32,1.79-2.55,2.43-2,2.48-1.25,1.55Z" transform="translate(-169.62 -25.48)"/><path class="cls-6" d="M237.5,277.91c.72-1.8,1.59-3.35,3.57-3.73s4.84-.68,5.4-.24a3.3,3.3,0,0,0,1.22.56l2.54-1.65s.53,1.46-.78,4.56-1.73,3-1.73,3l-5.1-4.63-4,1.1Z" transform="translate(-169.62 -25.48)"/><path class="cls-6" d="M211.33,269.9a4.88,4.88,0,0,0,2.25,5.15c1.36.75,4,1.68,5.69,3.79s6.61,3.94,6.61,3.94Z" transform="translate(-169.62 -25.48)"/><path class="cls-6" d="M249.32,289.41,244.4,295a5.91,5.91,0,0,1-2.33,1.42,3.25,3.25,0,0,1-2.55-.5l5.67,14.86,12.53-1.34a1.78,1.78,0,0,0,1.23-2.85l-5.7-7.48Z" transform="translate(-169.62 -25.48)"/><path class="cls-3" d="M171.12,90.22a71.39,71.39,0,0,1,3.44-25.49c4.32-12.92,12.84-22,25-27.35,11.08-4.92,23.9-7,35.73-8.81A160.52,160.52,0,0,1,265,26.44C323.57,26.38,352.62,45,356.31,88c1.54,17.94-1,38-7.4,54.67a66.2,66.2,0,0,1-17.58,25.14,161.11,161.11,0,0,1-18.26,14.75A79.31,79.31,0,0,1,293,192.7c-7.66,2.49-11.42,3.47-16.06,3-1.3-.12-3.06-.21-3.55-1.67s1.79-3.62,2.89-5.07c5.15-6.77,8.83-21.25,8.9-26.24.05-3.08-1.13-4.41-4.16-4.53-4.87-.19-9.74,0-14.62-.36-8.71-.6-17.42-1-26.11-1.71-6-.52-12.06-.53-18.07-1.35C178.15,148.81,171.06,122.8,171.12,90.22Z" transform="translate(-169.62 -25.48)"/><path class="cls-4" d="M172.57,89.83c-.41-11.83,1.56-24.43,7.78-34.69,5.19-8.57,13.18-14.54,22.42-18.2,11.33-4.49,23.71-6.32,35.72-8a202.67,202.67,0,0,1,37.1-1.39c16.76.74,34.3,3.14,49.29,11.15a54.14,54.14,0,0,1,25.63,29.17A80.45,80.45,0,0,1,355,90.12a128.76,128.76,0,0,1-2.66,36.15c-2.41,11.17-6.17,22.07-13.07,31.29A86.3,86.3,0,0,1,327.42,170a151,151,0,0,1-14.89,11.81,81.54,81.54,0,0,1-16.36,8.84c-2.75,1.08-5.59,2-8.43,2.78a35.78,35.78,0,0,1-6.38,1.39c-1.69.17-4.09.37-5.68-.31-2.5-1.06.87-4.17,1.73-5.26,2.71-3.42,4.4-7.69,5.82-11.78a66.22,66.22,0,0,0,3.12-12.32,12.75,12.75,0,0,0,.06-4.69c-.47-1.92-2.06-2.82-3.92-3.07a77.24,77.24,0,0,0-9.26-.23c-3.27-.05-6.52-.25-9.79-.45-6.73-.42-13.47-.75-20.19-1.28s-13.41-.63-20.05-1.49a90.76,90.76,0,0,1-14.95-3.16c-7.46-2.27-14.65-5.81-20.37-11.18-10.47-9.83-14-24.1-14.94-37.95-.28-3.87-.37-7.75-.37-11.62,0-1.29-2.9-.72-2.91.32,0,14.63,1.08,30.4,9.31,43,9.55,14.6,27.08,20.41,43.62,22.43,6.81.83,13.71,1,20.55,1.5s13.79.85,20.69,1.3c3.42.22,6.83.34,10.26.37,1.62,0,3.25,0,4.87.07,1.13,0,2.6-.1,3.58.61,1.4,1,1.2,3.22,1,4.74a45.37,45.37,0,0,1-1,5.43,67.82,67.82,0,0,1-4.51,13.53,29.53,29.53,0,0,1-3.24,5.57c-1.07,1.4-3.59,3.5-3,5.52s3.55,2.13,5.3,2.23a24.9,24.9,0,0,0,6-.4,77.87,77.87,0,0,0,16.27-5.12c11.72-5,22-13,31.37-21.47,8.56-7.73,15.6-16.68,19.72-27.54a123.05,123.05,0,0,0,7.44-36,108.8,108.8,0,0,0-1.92-30C353,62.48,346,50.26,334.61,41.9,321.54,32.27,305,28.45,289.13,26.72c-5.08-.55-10.18-.88-15.29-1-6.13-.19-12.29-.3-18.42-.05A181.31,181.31,0,0,0,235,27.77c-6.13.95-12.27,1.94-18.33,3.31-10.88,2.44-21.85,6.17-30.39,13.61-8.06,7-12.81,16.69-15.07,27a75.8,75.8,0,0,0-1.56,18.89C169.7,91.62,172.61,91,172.57,89.83Z" transform="translate(-169.62 -25.48)"/><circle class="cls-7" cx="60.3" cy="275.13" r="1.64"/><circle class="cls-7" cx="63.83" cy="275.85" r="1.64"/><circle class="cls-7" cx="67.12" cy="276.48" r="1.64"/><circle class="cls-7" cx="70.41" cy="276.27" r="1.64"/><circle class="cls-7" cx="73.7" cy="275.32" r="1.64"/><circle class="cls-7" cx="76.68" cy="273.68" r="1.64"/><circle class="cls-7" cx="79.5" cy="271.55" r="1.64"/><circle class="cls-7" cx="82.34" cy="269.61" r="1.64"/><circle class="cls-8" cx="60.3" cy="275.13" r="1.64"/><circle class="cls-9" cx="63.83" cy="275.85" r="1.64"/><circle class="cls-10" cx="67.12" cy="276.48" r="1.64"/><circle class="cls-11" cx="70.41" cy="276.27" r="1.64"/><circle class="cls-12" cx="73.7" cy="275.32" r="1.64"/><circle class="cls-13" cx="76.68" cy="273.68" r="1.64"/><circle class="cls-14" cx="79.5" cy="271.55" r="1.64"/><circle class="cls-15" cx="82.34" cy="269.61" r="1.64"/><path class="cls-5" d="M231.2,300.65a1.39,1.39,0,0,1-.82,1.29,1.17,1.17,0,0,1-.74,0,1.4,1.4,0,0,1-.68-.47,1.49,1.49,0,0,1-.13-1.64,1.13,1.13,0,0,1,1.23-.6,1.46,1.46,0,0,1,1.14,1.41c0,.17.17.22.33.21s.4-.11.4-.28a1.86,1.86,0,0,0-1.25-1.75,2.18,2.18,0,0,0-2.31.62,1.86,1.86,0,0,0-.2,2.16,2.07,2.07,0,0,0,3.76-1C231.93,300.22,231.2,300.34,231.2,300.65Z" transform="translate(-169.62 -25.48)"/><path class="cls-5" d="M234.72,301.38a1.39,1.39,0,0,1-.84,1.33,1.09,1.09,0,0,1-.3.05,1.4,1.4,0,0,1-.41-.06,1.46,1.46,0,0,1-.68-.49,1.5,1.5,0,0,1-.14-1.66,1.36,1.36,0,0,1,.55-.54,1,1,0,0,1,.68-.07,1.51,1.51,0,0,1,1.14,1.44c0,.16.19.19.32.18s.41-.1.41-.26a1.82,1.82,0,0,0-1.24-1.72,2.18,2.18,0,0,0-2.31.62,1.81,1.81,0,0,0-.21,2.13,2,2,0,0,0,2.07.83,2,2,0,0,0,1.69-1.86c0-.17-.19-.2-.32-.18S234.73,301.22,234.72,301.38Z" transform="translate(-169.62 -25.48)"/><path class="cls-5" d="M238,302a1.41,1.41,0,0,1-.85,1.35l-.11,0h-.18a1.13,1.13,0,0,1-.41-.06,1.46,1.46,0,0,1-.68-.49,1.53,1.53,0,0,1-.12-1.71,1.08,1.08,0,0,1,1.25-.57,1.54,1.54,0,0,1,1.1,1.5c0,.15.34.11.42.09s.31-.13.31-.29a1.81,1.81,0,0,0-1.28-1.67,2.25,2.25,0,0,0-2.3.67A1.79,1.79,0,0,0,235,303a2.08,2.08,0,0,0,3.75-1.05c0-.16-.19-.17-.32-.16S238,301.86,238,302Z" transform="translate(-169.62 -25.48)"/><path class="cls-5" d="M241.3,301.78a1.36,1.36,0,0,1-.83,1.27,1.31,1.31,0,0,1-1.41-.44,1.44,1.44,0,0,1-.12-1.61,1.15,1.15,0,0,1,.56-.51,1.08,1.08,0,0,1,.29-.09,1.24,1.24,0,0,1,.43,0,1.43,1.43,0,0,1,1.08,1.37c0,.18.17.26.34.25s.4-.12.4-.3a1.91,1.91,0,0,0-1.26-1.78,2.13,2.13,0,0,0-2.31.62,1.88,1.88,0,0,0-.19,2.19,2,2,0,0,0,2.11.87,2,2,0,0,0,1.65-1.9C242,301.34,241.3,301.43,241.3,301.78Z" transform="translate(-169.62 -25.48)"/><path class="cls-5" d="M244.59,300.84a1.39,1.39,0,0,1-.84,1.33,1.09,1.09,0,0,1-.3.05,1.17,1.17,0,0,1-.41-.06,1.33,1.33,0,0,1-.68-.49,1.5,1.5,0,0,1-.14-1.65,1.36,1.36,0,0,1,.55-.54,1.1,1.1,0,0,1,.68-.07,1.48,1.48,0,0,1,1.14,1.43c0,.17.19.2.33.19s.4-.1.4-.26a1.82,1.82,0,0,0-1.24-1.73,2.18,2.18,0,0,0-2.31.62,1.82,1.82,0,0,0-.2,2.14,2,2,0,0,0,2.06.83,2,2,0,0,0,1.69-1.86c0-.17-.18-.2-.32-.19S244.6,300.68,244.59,300.84Z" transform="translate(-169.62 -25.48)"/><path class="cls-5" d="M247.57,299.19a1.38,1.38,0,0,1-.24.81,1.24,1.24,0,0,1-.58.47,1.13,1.13,0,0,1-.73,0,1.44,1.44,0,0,1-.81-2.1,1.15,1.15,0,0,1,1.27-.58,1.43,1.43,0,0,1,1.09,1.38c0,.18.18.24.34.23s.4-.11.4-.29a1.88,1.88,0,0,0-1.26-1.76,2.16,2.16,0,0,0-2.31.61,1.89,1.89,0,0,0-.19,2.18,2.06,2.06,0,0,0,3.76-1C248.31,298.75,247.58,298.86,247.57,299.19Z" transform="translate(-169.62 -25.48)"/><path class="cls-5" d="M250.4,297.08a1.41,1.41,0,0,1-.84,1.33.81.81,0,0,1-.3,0,1.13,1.13,0,0,1-.41-.06,1.54,1.54,0,0,1-.69-.49,1.56,1.56,0,0,1-.14-1.67,1.32,1.32,0,0,1,.56-.54,1,1,0,0,1,.68-.06,1.5,1.5,0,0,1,1.14,1.44c0,.16.18.18.32.17s.41-.1.41-.26a1.8,1.8,0,0,0-1.24-1.71,2.22,2.22,0,0,0-2.31.62,1.79,1.79,0,0,0-.21,2.12,2,2,0,0,0,2.07.83,2,2,0,0,0,1.69-1.86c0-.16-.19-.18-.32-.17S250.4,296.92,250.4,297.08Z" transform="translate(-169.62 -25.48)"/><path class="cls-5" d="M253.23,295.11a1.36,1.36,0,0,1-.83,1.28A1.3,1.3,0,0,1,251,296a1.47,1.47,0,0,1-.13-1.62,1.33,1.33,0,0,1,.57-.51,1,1,0,0,1,.29-.08,1.19,1.19,0,0,1,.42,0,1.42,1.42,0,0,1,1.09,1.36c0,.19.17.27.34.26s.4-.12.39-.3a1.88,1.88,0,0,0-1.25-1.78,2.12,2.12,0,0,0-2.31.62,1.88,1.88,0,0,0-.19,2.19,2.05,2.05,0,0,0,3.75-1C254,294.67,253.23,294.77,253.23,295.11Z" transform="translate(-169.62 -25.48)"/><path class="cls-5" d="M230.91,304.05c4.28,1.33,8.89,1.9,13.21.39,4.16-1.47,7.37-4.6,10-8,.2-.25-.53-.2-.67,0-2.47,3.22-5.47,6.23-9.36,7.66-4.14,1.52-8.62.89-12.74-.4-.23-.07-.85.27-.44.4Z" transform="translate(-169.62 -25.48)"/><path class="cls-5" d="M231,305c4.28,1.34,8.9,1.92,13.22.4,4.16-1.47,7.36-4.61,10-8.05.21-.26-.52-.22-.67,0-2.47,3.22-5.47,6.23-9.36,7.65-4.15,1.52-8.62.9-12.74-.39-.25-.08-.85.28-.44.41Z" transform="translate(-169.62 -25.48)"/><path class="cls-5" d="M231,305.62c4.32,1.34,9,1.91,13.32.39,4.19-1.46,7.42-4.6,10.08-8.05.21-.26-.52-.23-.67,0-2.5,3.23-5.53,6.25-9.44,7.66-4.19,1.52-8.69.9-12.85-.38-.25-.08-.85.29-.44.41Z" transform="translate(-169.62 -25.48)"/><path class="cls-5" d="M234.08,304.48l.41,2.06.06.3c0,.16.31.14.42.1s.34-.13.31-.29l-.41-2.07-.06-.3c0-.16-.31-.13-.42-.1s-.34.13-.31.3Z" transform="translate(-169.62 -25.48)"/><path class="cls-5" d="M234.82,304.43l.41,2.07.06.3c0,.18.29.2.43.16s.33-.17.29-.35l-.41-2.07-.06-.3c0-.18-.29-.2-.43-.16s-.33.17-.29.35Z" transform="translate(-169.62 -25.48)"/><path class="cls-5" d="M244.74,303.53l.76,1.69.11.25c.06.14.29.11.41.07s.37-.13.31-.27l-.76-1.69-.11-.24c-.06-.14-.29-.12-.41-.08s-.38.13-.31.27Z" transform="translate(-169.62 -25.48)"/><path class="cls-5" d="M245.39,303.14l.75,1.62.1.23a.35.35,0,0,0,.43.16c.12,0,.37-.19.3-.36l-.75-1.62-.1-.23a.35.35,0,0,0-.43-.16c-.12,0-.37.19-.3.36Z" transform="translate(-169.62 -25.48)"/><path class="cls-5" d="M251.17,298.7l1.29,1.11.19.16a.51.51,0,0,0,.48,0c.07,0,.32-.17.19-.28L252,298.58l-.18-.16a.51.51,0,0,0-.48,0c-.07,0-.32.18-.2.28Z" transform="translate(-169.62 -25.48)"/><path class="cls-5" d="M251.78,298.24l1.29,1.1.18.16a.33.33,0,0,0,.25.06.45.45,0,0,0,.27-.1c.13-.11.18-.26,0-.38L252.52,298l-.19-.16a.42.42,0,0,0-.25-.06.52.52,0,0,0-.27.1c-.13.11-.18.27,0,.39Z" transform="translate(-169.62 -25.48)"/></g><g id="testo"><path class="cls-4" d="M196.51,82a61.88,61.88,0,0,1-1.42,14.21,17.51,17.51,0,0,1-2.4,6,1.15,1.15,0,0,0-.08,1.27,15,15,0,0,1,1.38,4,31.24,31.24,0,0,1,.72,6.72c0,5.79-1.16,9.66-3.29,11.18-1.66,1.18-3.78.92-6.19-.64a29,29,0,0,1-5.93-5.39,1.23,1.23,0,0,1-.29-.76c0-5.15-.15-13.38-.34-24.41-.1-6-.29-14.18-.51-24.24a1.17,1.17,0,0,1,.24-.76,24.25,24.25,0,0,1,5.81-5.33C191.55,59,196.5,65.46,196.51,82Zm-7,28.6c0-3.2-.85-5-2.45-5.32a1.39,1.39,0,0,0-.5,0c0,3.76-.05,5.68-.08,9.35a.38.38,0,0,0,.21.34C188.54,115.82,189.53,114.37,189.53,110.64Zm.5-19.7a9.69,9.69,0,0,0-.94-4.81v0a1.19,1.19,0,0,0-2.17.65c-.07,3.6-.11,5.91-.18,9.84a.37.37,0,0,0,.33.37C189,97.05,190,95.05,190,90.94Z" transform="translate(-169.62 -25.48)"/><path class="cls-4" d="M220.45,137c-4.32-1-6.5-1.59-10.54-2.83a.16.16,0,0,1-.11-.14c-.28-2.76-.42-4.18-.69-6.9A.15.15,0,0,0,209,127l-6.5-1.6a.15.15,0,0,0-.2.13c-.07.6-.3,2.67-.61,5.59a.16.16,0,0,1-.22.14c-1.88-.72-2.87-1.13-4.68-1.92a.19.19,0,0,1-.1-.16c1.21-12.46,2.35-25,3.35-37.38.94-11.67,1.68-23.48,2.39-35.24a.18.18,0,0,1,.11-.14,111.31,111.31,0,0,1,11-3.52.16.16,0,0,1,.21.14c.91,13,2,26,3,39,1.23,14.9,2.58,29.86,3.89,44.79A.16.16,0,0,1,220.45,137Zm-12.33-20.22a.18.18,0,0,0,.08-.15c-.22-1.87-.59-4.85-1.12-8.9-.29-2.08-.73-4.87-1.3-8.32a.16.16,0,0,0-.31,0c-.28,2-.67,4.77-1.17,8.39-.32,2.46-.7,5.77-1.13,9.9a.16.16,0,0,0,.12.18,9.28,9.28,0,0,0,2.33-.08A6.87,6.87,0,0,0,208.12,116.81Z" transform="translate(-169.62 -25.48)"/><path class="cls-4" d="M243.43,122.8a.47.47,0,0,1,.68.46c-.17,1.74-.44,4.51-.76,8.26-.22,2.47-.38,5.37-.53,8.66a.49.49,0,0,1-.53.46,149.78,149.78,0,0,1-19-3,.47.47,0,0,1-.38-.46c-.13-14.48-.31-29-.54-43.44-.23-14.11-.62-28.28-1-42.42a.48.48,0,0,1,.38-.47c5.33-1.18,8.32-1.72,14-2.49a.47.47,0,0,1,.54.47q-.6,37.44-1.22,74.88a.47.47,0,0,0,.44.48,25.08,25.08,0,0,0,6.11-.76A7.52,7.52,0,0,0,243.43,122.8Z" transform="translate(-169.62 -25.48)"/><path class="cls-4" d="M277.24,92.09c0,12.3-.95,25-4.29,36.84-3,10.56-7,16-11.79,15.95s-8.93-5.64-11.85-16.27c-3.25-11.81-4.17-24.32-4.18-36.5s.69-24.83,4.53-36.36c2.79-8.38,6.68-12.82,11.48-12.88s8.66,4.31,11.49,12.73C276.51,67.16,277.25,79.94,277.24,92.09ZM265.77,103q0-17.22-4.57-17.23c-3,0-4.41,5.79-4.41,17.34A68.59,68.59,0,0,0,258,116c.86,4.51,1.93,6.78,3.21,6.79s2.34-2.29,3.3-6.88A63.3,63.3,0,0,0,265.77,103Z" transform="translate(-169.62 -25.48)"/><path class="cls-4" d="M305.88,51.39q-.28,17.27-.58,34.52a.26.26,0,0,1-.37.24,14.54,14.54,0,0,0-2.23-.79,29.94,29.94,0,0,0-3.35-.46.27.27,0,0,0-.31.25c-.09,2.42-.25,7.83-.43,16.2-.27,12.35-.5,24.77-.76,37.15a.27.27,0,0,1-.23.26c-3.93.71-6.06,1-10.16,1.54a.27.27,0,0,1-.31-.26c-.19-12.64-.4-25.31-.68-37.9-.13-5.91-.31-11.73-.47-17.4a.29.29,0,0,0-.3-.26l-3.3.27h0l-3,.76a.27.27,0,0,1-.34-.25l-.59-37.92a.28.28,0,0,1,.3-.27,151.49,151.49,0,0,1,26.9,4A.27.27,0,0,1,305.88,51.39Z" transform="translate(-169.62 -25.48)"/><path class="cls-4" d="M329.85,59.13q-.24,14.07-.47,28.12a.26.26,0,0,1-.38.24,11.08,11.08,0,0,0-1.75-.68,22.19,22.19,0,0,0-2.71-.48.26.26,0,0,0-.31.25c-.08,2.07-.22,6.61-.36,13.61-.23,10.47-.42,21-.64,31.49a.28.28,0,0,1-.18.25c-3.26,1.21-5.06,1.81-8.53,2.84a.27.27,0,0,1-.35-.25c-.17-11.11-.35-22.25-.59-33.33-.11-5.22-.26-10.35-.41-15.37a.26.26,0,0,0-.28-.26l-2.83.14H310l-2.53.6a.27.27,0,0,1-.34-.26l-.51-34.36a.28.28,0,0,1,.34-.26,114,114,0,0,1,22.72,7.45A.26.26,0,0,1,329.85,59.13Z" transform="translate(-169.62 -25.48)"/><path class="cls-4" d="M348.16,118.42a59.5,59.5,0,0,1-6.77,4.73.17.17,0,0,1-.25-.12c-.18-1.66-.28-2.61-.47-4.32a.16.16,0,0,0-.23-.13l-5.2,2.5a.18.18,0,0,0-.09.12c0,.44-.25,2.6-.55,5.65a.15.15,0,0,1-.09.13c-1.68.85-2.62,1.29-4.35,2.06a.17.17,0,0,1-.24-.15c1.11-12.3,2.19-24.63,3.21-36.9.84-10,1.53-20.16,2.14-30.25a.17.17,0,0,1,.24-.13,72,72,0,0,1,8.35,4.82.17.17,0,0,1,.07.13c.25,4,.9,13.22,2,26.16.56,6.79,1.36,15.66,2.32,25.56A.18.18,0,0,1,348.16,118.42Zm-8.23-7.17a.17.17,0,0,0,0-.12c-.17-1.33-.45-3.46-.86-6.47-.22-1.5-.55-3.52-1-6.13a.16.16,0,0,0-.32,0c-.22,1.6-.53,3.88-.93,6.9-.27,2.1-.58,4.95-.95,8.61a.16.16,0,0,0,.22.17,14.29,14.29,0,0,0,1.81-1.09A11.88,11.88,0,0,0,339.93,111.25Z" transform="translate(-169.62 -25.48)"/></g></svg>