<svg xmlns="http://www.w3.org/2000/svg" viewBox="0 0 195.91 257.52"><defs><style>.cls-1{fill:#9e73b2;}.cls-2{fill:#596667;}.cls-3,.cls-6{fill:#99cc64;}.cls-4{fill:#82a17e;opacity:0.5;}.cls-5{fill:#fff;}.cls-6{stroke:#596667;stroke-linecap:round;stroke-linejoin:round;stroke-width:0.5px;}.cls-7{fill:#737b7c;}.cls-8{fill:#667071;}</style></defs><g id="titolo"><path class="cls-1" d="M230,97.6Q230,110.26,226,119q-4.25,9.15-10.92,9.15-6.85,0-11.09-9.22-4-8.68-4-21.34,0-13.53,4.35-21.24c2.73-4.83,6.32-7.24,10.74-7.24s7.9,2.43,10.63,7.28Q230,84.14,230,97.6Zm-10.74,6.31q0-10-4.2-10T211,104a25.51,25.51,0,0,0,1.07,7.5q1.22,3.92,3,3.91t3-4A23.75,23.75,0,0,0,219.29,103.91Z" transform="translate(-171.14 -49.92)"/><path class="cls-1" d="M261.82,69.12a.25.25,0,0,1,.26.26c-.23,5.06-.58,13.75-.95,26-.3,10-.37,22.57-.52,32.87a.55.55,0,0,1-1,.33c-3.66-4.6-14.13-18.28-17.53-22-.1,7.81-.15,11.75-.24,19.47a.29.29,0,0,1-.28.28h-7.43a.26.26,0,0,1-.26-.25c-.26-9.43-.58-18.87-.91-28.29-.27-7.88-.6-20.82-1-28.69h12.09c3.18,4.53,5.57,7.86,8.76,12.41a.27.27,0,0,0,.49-.15q0-3.9-.1-6.23-.08-2.18-.28-5.75a.26.26,0,0,1,.26-.28Z" transform="translate(-171.14 -49.92)"/><path class="cls-1" d="M297.06,152.38,283.79,143a.43.43,0,0,1-.18-.29c-.4-2.66-2.05-17.38-2.6-21.28a.78.78,0,0,0-.75-.66l-7.75-.21a.76.76,0,0,0-.78.64c-.39,2.48-1.63,9.1-2.19,12.29a.44.44,0,0,1-.7.28l-5.67-4.2a.44.44,0,0,1-.18-.42c1.72-11.31,4.12-25.66,5.61-36.88,1.06-7.94,1.93-15.64,2.69-23l16.36-.13q1.39,11.81,3,23.57c1.44,10.87,5.45,47,7.14,59.32A.44.44,0,0,1,297.06,152.38Zm-17.85-39.53a.77.77,0,0,0,.43-.84c-.3-1.49-.75-3.7-1.37-6.61-.29-1.22-.67-2.75-1.15-4.59a.77.77,0,0,0-1.5,0c-.3,1.35-.67,3-1.09,4.91s-.87,4.47-1.41,7.65a.78.78,0,0,0,.87.91c.59-.07,1.38-.21,2.32-.41A13.46,13.46,0,0,0,279.21,112.85Z" transform="translate(-171.14 -49.92)"/><path class="cls-1" d="M340.79,132a1.09,1.09,0,0,1,1.25,1.24c-.24,1-.56,2.42-.92,4.14-.3,1.4-.53,8-.74,11a1.1,1.1,0,0,1-1.15,1c-9.5.15-29.78,2-34.94,2.53a1.14,1.14,0,0,1-1.29-1c-3.06-37.43-9.33-73.58-10.57-80.53a1.08,1.08,0,0,1,1.16-1.19h21.06a1.12,1.12,0,0,1,1.18,1l1.64,62a1.12,1.12,0,0,0,1.2,1,87.94,87.94,0,0,0,9.09-.61C328.51,132.44,337,132.26,340.79,132Z" transform="translate(-171.14 -49.92)"/><path class="cls-1" d="M355,70.13c-.52,8.6-.81,13.37-1.33,22a1,1,0,0,1-1.23.89c-1-.16-2.44-.37-4.28-.6-1.58-.19-3.35-.29-5.24-.35a1,1,0,0,0-1.08.89c-.14,2-.23,3.35-.37,5.35a1,1,0,0,0,1,1c2.29,0,5.54,0,9.77-.16a1,1,0,0,1,1.05,1.15c-.23,1-.53,2.34-.89,4-.26,1.27-.5,2.71-.71,4.31a1,1,0,0,1-1.22.83c-.88-.15-2.18-.32-3.85-.46-1-.09-2.52-.1-4.43-.09a1,1,0,0,0-1,.92c-.1,2.49-.16,4.09-.26,6.55a1,1,0,0,0,1.07,1c1.83,0,4.61-.19,8.27-.47a18.72,18.72,0,0,0,2.62-.49,1,1,0,0,1,1.28,1.1c-.22,1-.52,2.38-.91,4.14-.29,1.38-.62,3.8-1,6a1,1,0,0,1-1,.78c-9.51.05-19,.85-28.53.91a1,1,0,0,1-1.05-.92c-.32-9.73-.64-21.06-.95-30.69-.26-9.2-.78-18.39-1.28-27.58a1,1,0,0,1,1-1H354A1,1,0,0,1,355,70.13Zm-8.09-9.33-1.11,2.29a.25.25,0,0,1,0,.07c-.26.43-.59,1-1,1.78a1.09,1.09,0,0,1-1.26.5c-1.57-.46-3.93-1.31-7.1-2.56l-.08,0a57,57,0,0,1-7-4.18.89.89,0,0,1-.28-1.24c.54-.85,1.27-2,2.18-3.49l2.05-3.51a1.1,1.1,0,0,1,1.7-.18q1.91,2,5.38,5.14l.09.07q2.24,1.66,6.09,4.19A.92.92,0,0,1,346.94,60.8Z" transform="translate(-171.14 -49.92)"/><path class="cls-1" d="M193.05,113.9s5.71-2.43,5.65-23.43-16.91-22-22.4-20.53c-4.08,1.1-4.78,1.61-4.78,1.61l1.55,74.7c14.19,0,23.14-10.93,23.28-20.43S193.05,113.9,193.05,113.9Zm-8,14.24c0-4.27.08-6.4.13-10.67a3.1,3.1,0,0,1,.73-.09c2.33,0,3.49,1.69,3.49,5.05Q189.43,128.54,185.08,128.14Zm.34-19.94c.12-5.24.19-7.86.31-13.1a3.43,3.43,0,0,1,3.09,1.52,8.61,8.61,0,0,1,1.31,5.14C190.13,106.29,188.56,108.43,185.42,108.2Z" transform="translate(-171.14 -49.92)"/></g><g id="soggetto"><path class="cls-2" d="M186.63,198.69l6-.32c.28,0,1-.32.78-.74l-1.72-4a.65.65,0,0,0-.67-.35h-1.06l.66.35-1.52-5.33-.4.64,1.33-.61a.64.64,0,0,0,.4-.64l-.31-1.83-.22-1.26a1.47,1.47,0,0,0-.07-.41c-.09-.21,0-.05-.05.12a8.4,8.4,0,0,1,1.54-2.55,8,8,0,0,1,11.75-.23,8.28,8.28,0,0,1,1.74,2.94.62.62,0,0,0,.67.35l1.32-.1-.68-.49-.2,2,1-.59L194,185.2c-.33,0-.81.09-.94.45a.47.47,0,0,0,.45.63l12.85.45c.37,0,.93-.13,1-.59l.2-2c0-.37-.38-.52-.67-.5l-1.32.1.66.35a8.93,8.93,0,0,0-7.8-6.11c-4-.29-8.64,1.92-10,6a2.63,2.63,0,0,0,0,1.36l.47,2.77.4-.64L188,188c-.23.1-.48.37-.4.64l1.52,5.33c.08.29.41.35.67.35h1.06l-.66-.35,1.72,4,.79-.74-6,.31c-.84,0-1.11,1.15-.12,1.1Z" transform="translate(-171.14 -49.92)"/><path class="cls-2" d="M199.17,200.29l4-.66c.27,0,.76-.18.82-.51l1.87-11.39.26-1.62c.1-.6-1.36-.37-1.45.16l-1.87,11.39-.26,1.62.81-.51-4,.66c-.24,0-.8.18-.82.51s.39.39.64.35Z" transform="translate(-171.14 -49.92)"/><path class="cls-2" d="M214.78,195.55l-9.64.47-1.38.07c-.32,0-.77.23-.8.59s.38.5.67.49l9.64-.47,1.39-.07c.31,0,.76-.24.79-.6s-.38-.5-.67-.48Z" transform="translate(-171.14 -49.92)"/><path class="cls-2" d="M199.64,217.58l10.53-11.5-.86.3,17.07,2c.66.08,1.5-.85.53-1l-14.59-1.74c-1.3-.15-2.7-.67-3.68.38-1.77,1.9-3.51,3.83-5.27,5.75l-4.92,5.38c-.61.66.79.8,1.19.36Z" transform="translate(-171.14 -49.92)"/><path class="cls-2" d="M199.46,196.1h-.21s-.16,0,0,0-.17,0-.05,0a.78.78,0,0,1-.51-.39,1.38,1.38,0,0,1-.13-.76c0-.68,0-1.36,0-2a1,1,0,0,1,.11-.49c0-.06,0,0,0,0l.08-.1c.07-.09,0,0,.06-.06s-.05,0,0,0,.11-.05,0,0l.06,0c.06,0,0,0,0,0h.34s.16,0,0,0h.07c-.07,0,.06,0,.07,0l.09,0,.09.05.11.1a1.09,1.09,0,0,1,.26.82v2.15a1.21,1.21,0,0,1,0,.19.49.49,0,0,1-.05.18s-.08.18,0,.13l-.1.13s-.17.12,0,0l-.12.06c.06,0,.08,0,0,0s-.11,0,0,0h-.1c-.32,0-.76.24-.8.58s.39.48.67.48a2.14,2.14,0,0,0,2-1.48,3.56,3.56,0,0,0,.07-1v-1.4a2.28,2.28,0,0,0-.26-1.28,2,2,0,0,0-1.91-.84,2.24,2.24,0,0,0-2,1.16,2.46,2.46,0,0,0-.18,1.17v1.41a2.66,2.66,0,0,0,.24,1.42,1.74,1.74,0,0,0,1,.77,3.22,3.22,0,0,0,1,.1c.31,0,.76-.25.8-.59S199.74,196.1,199.46,196.1Z" transform="translate(-171.14 -49.92)"/><path class="cls-2" d="M241.07,182.35h0a.6.6,0,0,0,.63-.54l2-23.41a3.15,3.15,0,0,1,3.54-2.85h0a3.15,3.15,0,0,1,2.75,3.37c-.31,4.07-1.34,17.09-1.94,23.66a.59.59,0,0,0,.51.64h0a.59.59,0,0,0,.65-.53L250.78,165a3.15,3.15,0,0,1,3.53-2.85h0a3.15,3.15,0,0,1,2.75,3.37c-.35,4.69-1.08,13.92-1.73,20.56-.92,9.28-2.24,14.5-4.55,17.75s-9.17,7.21-15.46,7.21-12.8-6.09-16.25-9.75c-2.23-2.35-6.3-7.73-8.92-11.27a4.51,4.51,0,0,1,.66-6.08h0a4.51,4.51,0,0,1,6.43.52l4.39,5.3a.84.84,0,0,0,.54.3h0a.84.84,0,0,0,.93-.73l3.32-26.73a3.57,3.57,0,0,1,3.85-3.26h0a3.58,3.58,0,0,1,3.29,3.85c-.43,5.4-1.21,15.28-1.41,17.76a.6.6,0,0,0,.54.63h0a.6.6,0,0,0,.65-.54l1.94-22.82a3.59,3.59,0,0,1,3.86-3.26h0a3.59,3.59,0,0,1,3.29,3.85c-.43,5.4-1.64,19.78-1.9,22.87A.59.59,0,0,0,241.07,182.35Z" transform="translate(-171.14 -49.92)"/><path class="cls-3" d="M226.65,132.07a54.05,54.05,0,1,0,54,54.05A54.05,54.05,0,0,0,226.65,132.07Zm-41.72,54.05a41.53,41.53,0,0,1,9.2-26.11l58.63,58.64a41.71,41.71,0,0,1-67.83-32.53Zm74,26.39-58.69-58.69A41.71,41.71,0,0,1,259,212.51Z" transform="translate(-171.14 -49.92)"/><path class="cls-2" d="M227.2,131.21a57,57,0,0,0-32.29,10,55.71,55.71,0,0,0-20.2,25.7A54.45,54.45,0,0,0,191,228.44a55.48,55.48,0,0,0,30.78,12.42,56.9,56.9,0,0,0,33.2-7.65A55.62,55.62,0,0,0,277,209a54.65,54.65,0,0,0-41.18-77.14,57.9,57.9,0,0,0-8.62-.68c-.6,0-1.62.19-1.91.81s.24.91.8.92a53.43,53.43,0,0,1,34.24,94.23,51.66,51.66,0,0,1-29,12,52.77,52.77,0,0,1-31.52-7.46,54.07,54.07,0,0,1-24.82-56c4.09-21.2,21.35-38.59,42.8-42a51.9,51.9,0,0,1,8.26-.67c.6,0,1.62-.19,1.91-.81S227.77,131.21,227.2,131.21Z" transform="translate(-171.14 -49.92)"/><path class="cls-2" d="M186.38,186a41.78,41.78,0,0,1,9.1-25.89l-2.7.53,19.93,19.93L244.22,212l7.2,7.2.17-.85A39.76,39.76,0,0,1,215,225.12a41.34,41.34,0,0,1-24.28-20.74A41.81,41.81,0,0,1,186.38,186c0-1.26-2.91-.67-2.9.34a42.51,42.51,0,0,0,14,31.48,43.32,43.32,0,0,0,34.28,10.58,44.7,44.7,0,0,0,22.18-9.43c.23-.19.42-.6.17-.85l-19.93-19.93-31.5-31.51-7.2-7.2c-.7-.7-2.18-.13-2.7.52a42.68,42.68,0,0,0-9.29,26.34C183.47,187.55,186.38,187,186.38,186Z" transform="translate(-171.14 -49.92)"/><path class="cls-2" d="M260.29,211.93l-19.88-19.88-31.63-31.64-7.18-7.17-.17.85a39.94,39.94,0,0,1,44.74-3.48,41.21,41.21,0,0,1,11.43,61.85c-.45.55.38.88.8.91a2.32,2.32,0,0,0,1.91-.8,42.32,42.32,0,0,0-32.76-69,44.66,44.66,0,0,0-28.46,10c-.23.19-.43.6-.17.85l19.88,19.89,31.63,31.63,7.18,7.18C258.36,213.84,261.11,212.75,260.29,211.93Z" transform="translate(-171.14 -49.92)"/></g><g id="contorni"><path class="cls-3" d="M256.53,182.38c8.75-.17,16-3.09,19.21-6.86s10.27-5.32,15-4.63,6.44-.16,6.44-.16-2.51-4.82-3.66-7,.37-8.51.37-8.51,1.41,4.74,5.18,5.77,7.67.34,9.09,2.23,4.29,5.6,4.29,5.6a10.77,10.77,0,0,1,4.46-.8,9.43,9.43,0,0,1,4.46,2.06s1.2-6.77-2.92-16.16-7.2-15.31-7.2-15.31a10.71,10.71,0,0,0,2.74-4.37c.52-2.24-.17-5.15,1-5s2.23.24,2.57,2.17a96.46,96.46,0,0,0,2.92,11.2c.86,2.06.5,5,1,7.55s2.41,8.23,2.24,13.38,0,3.94,0,3.94a12.61,12.61,0,0,1,5.13-5.31c3.43-1.72,8.06-.35,12.18-2.4a16.88,16.88,0,0,0,6.35-5.87s-3.26,11.18-7.21,13.07-8.4.86-10.46,2.92a18.23,18.23,0,0,0-2.92,3.6S331,173.11,333,175s3,2.8,3,4.52-.12,2.86-.12,2.86,5.55,2.91,6.87,6.63,2.05,8.2,3.68,12.06,5.67,10.46,10.56,12.18,7.62.77,9.08,0-5,4.74-9.69,7.55-7.29,3.17-10.29,2a14.36,14.36,0,0,1-3.94-2.06s2.05,8.49-.69,12.61-9.35,11.92-11.24,15.86-4.85,11.35-5,13.7a11.07,11.07,0,0,0,.51,5s-2.4-1.2-2.49-8.06-.43-7.29-.43-7.29a60.77,60.77,0,0,1-10.89,12.86c-6.34,5.4-7.2,5.83-7.2,5.83s1.37,3.43-3.43,7c-3.65,2.74-10.91,8.25-14.19,10.74a1,1,0,0,1-1.64-.84l.14-6.72s-4.93,3.52-6.44,4.8c-.68.58-2,1.62-3.24,2.59a2.74,2.74,0,0,1-4.31-1.39,20.24,20.24,0,0,1-.54-2.21l-.48-2.76-2.9,2.9a2.09,2.09,0,0,1-3.2-.3c-1.28-1.91-3-4.85-3.42-7.41a97,97,0,0,1-.77-11.23l-.88.36a1.85,1.85,0,0,1-2.39-.92,30.3,30.3,0,0,1-2.39-6.73c-.6-3.43,0-16.29,0-16.29l-.27-3.09,1.21-4.37s.17-5,.34-9.87a20.77,20.77,0,0,1,2.49-8.83v-3.6l-3.17,2.23a141,141,0,0,1,2.83-14.15c1.37-4.55,3.51-9.09,5.4-11.24s3.17-3.34,3.17-3.34a10,10,0,0,1-5.06-1.12A32.81,32.81,0,0,1,256.53,182.38Z" transform="translate(-171.14 -49.92)"/><path class="cls-2" d="M256.45,182.84c6.27-.15,13.27-1.52,18.26-5.6,1-.8,1.73-1.8,2.7-2.61a14,14,0,0,1,4.37-2.36,20.81,20.81,0,0,1,9.4-.82c1.92.23,4.47.51,6.31-.36.14-.07.54-.33.42-.56-.52-1-1-2-1.55-3a30.43,30.43,0,0,1-2.3-4.56c-.76-2.4,0-5.52.56-7.91l-1.46.26a11.1,11.1,0,0,0,1.75,3.36c1.6,2.1,3.73,2.81,6.28,3.15a35.51,35.51,0,0,1,4.6.6,4.86,4.86,0,0,1,2.64,2.23q1.67,2.19,3.35,4.37c.21.28.71.18,1,.07a7.51,7.51,0,0,1,7.95,1.19c.36.3,1.3.18,1.4-.38.76-4.45-.39-9.47-1.87-13.63a124.88,124.88,0,0,0-5.11-11.54c-.94-2-1.89-4-2.89-5.91a1.59,1.59,0,0,0-.22-.43s-.19-.38-.09.1c0,.23,0,.07.25-.14a9.8,9.8,0,0,0,2.34-3.58c.57-1.58.23-3.2.53-4.81,0-.07.13-.48.13-.49.07.21-.5-.12-.29.17.09.13.73.12.91.19.79.34,1,1.14,1.12,1.91.51,2.55,1.13,5.09,1.81,7.6.3,1.09.61,2.18,1,3.24a19.12,19.12,0,0,1,.79,5.43c.28,3.8,1.72,7.44,2.25,11.21a42.65,42.65,0,0,1,.2,6.78c0,.31-.21,1.56.1,1.83a.92.92,0,0,0,1,.06c.23-.1.52-.62.43-.45a13.59,13.59,0,0,1,1.11-1.78,10.38,10.38,0,0,1,3.8-3.29,15.21,15.21,0,0,1,5.49-.9,15.68,15.68,0,0,0,9.55-3.41,16.49,16.49,0,0,0,3.7-4.2l-1.41,0c-1.14,3.89-2.66,8.41-5.4,11.48-2.37,2.66-6.39,2-9.55,2.9-2.47.68-4.36,2.92-5.59,5.09-.23.4.32.54.6.51a7.85,7.85,0,0,1,5.94,1.71c1,.88,2.22,1.9,2.53,3.24a11.94,11.94,0,0,1,0,3.58.29.29,0,0,0,.16.31,17.92,17.92,0,0,1,5.38,4.24,13.53,13.53,0,0,1,2.25,5.22c.61,2.19,1.14,4.41,1.85,6.58,2.05,6.27,6.34,13.44,13.07,15.31a13.51,13.51,0,0,0,5.4.48,9.51,9.51,0,0,0,2-.48,6.81,6.81,0,0,0,.7-.28,2.75,2.75,0,0,0,.3-.14c.29-.2.37,0-.22,0l-.46-.28c-.1-.19-.07-.06-.34.2s-.47.44-.72.65c-.82.72-1.68,1.41-2.55,2.09a56.77,56.77,0,0,1-6.77,4.65c-2.27,1.27-4.79,2.44-7.44,1.77a13.81,13.81,0,0,1-4.92-2.32c-.34-.3-1.54-.14-1.39.49a25.61,25.61,0,0,1,.69,7.7,10.06,10.06,0,0,1-1.61,5.08c-1,1.53-2.18,3-3.3,4.47a101.1,101.1,0,0,0-7,9.74,61.13,61.13,0,0,0-4.47,10.42c-1.08,3-2.13,6.62-.78,9.76l1.29-.58a3.22,3.22,0,0,1-1.14-1.43c-1.08-2.13-1.16-4.69-1.2-7,0-1.9,0-3.82-.25-5.7a2.36,2.36,0,0,0-.23-1.11c-.29-.41-1.14-.1-1.35.25A56,56,0,0,1,312.76,264c-2.21,2.06-4.58,4-6.95,5.85l-1.21.91c-.08.06-.53.32-.17.14-.17.09-.52.31-.43.56a4.73,4.73,0,0,1-.7,4c-1.5,2.42-4.42,4.06-6.66,5.75l-7.23,5.48c-.49.36-1,.73-1.45,1.1s-1.3,1.29-1.72.54c-.21-.37,0-1.28,0-1.68l.1-5.23c0-.57-.89-.41-1.19-.2-2.37,1.7-4.73,3.42-7,5.27a14.66,14.66,0,0,1-3,2.36c-1.48.6-2.52-.75-2.88-2-.43-1.48-.62-3-.9-4.53-.1-.54-1.09-.2-1.32,0a23.89,23.89,0,0,1-2.84,2.85c-1.48,1-2.33-.85-3-1.9a20.08,20.08,0,0,1-2.09-4.48,33.47,33.47,0,0,1-.91-7.68c-.08-1.57-.14-3.15-.16-4.73,0-.52-.71-.43-1-.29a2.4,2.4,0,0,1-1.38.35c-.74-.18-1-1-1.27-1.64a33.9,33.9,0,0,1-1.64-4.38,21.31,21.31,0,0,1-.59-5.46c-.06-3.78.06-7.56.22-11.33a20.8,20.8,0,0,0-.11-2.62c0-.4-.11-.82-.11-1.22s0,0,0-.22a21.93,21.93,0,0,1,.63-2.28,13.48,13.48,0,0,0,.59-3.43c.11-3.21,0-6.5.39-9.7a20.22,20.22,0,0,1,1.22-5c.3-.79.8-1.55,1.07-2.35a13.09,13.09,0,0,0,.1-3.81c0-.58-.89-.42-1.2-.21L254.78,215l1.2.2c.64-4.22,1.35-8.47,2.41-12.62a40.51,40.51,0,0,1,3.9-9.89,25.61,25.61,0,0,1,5-6c.41-.39-.16-.67-.52-.64-3.41.35-7-2.14-9.63-4.12-.44-.33-1.75.3-1.13.77,2.89,2.21,6.79,4.67,10.6,4.29l-.51-.64a27.31,27.31,0,0,0-4.95,5.88,40.47,40.47,0,0,0-4,9.93,122.26,122.26,0,0,0-2.55,13.16c-.09.59.94.38,1.19.2l3.18-2.23-1.2-.2v2c0,.41,0,.83,0,1.24s.05.08-.05.36c-.28.77-.73,1.5-1,2.27a21.5,21.5,0,0,0-1.16,4.17c-.58,3.4-.41,7-.53,10.45a15.55,15.55,0,0,1-.66,3.94,16.9,16.9,0,0,0-.57,2.05,7.29,7.29,0,0,0,.09,1.68,19.82,19.82,0,0,1,.08,3c-.16,4.11-.32,8.24-.16,12.35a21.26,21.26,0,0,0,1.77,7.46c.49,1.19.91,2.73,2.29,3.14a4.2,4.2,0,0,0,2.85-.51l-1-.29c.06,5.2-.09,11,2.35,15.67,1.1,2.15,2.77,5.57,5.72,3.85a19.91,19.91,0,0,0,3.54-3.39l-1.32,0c.34,1.83.38,4,1.33,5.65,1.15,2,3.73,1.89,5.37.66,3.19-2.4,6.25-4.94,9.5-7.26l-1.19-.2-.11,5.53a3.72,3.72,0,0,0,.19,2c.73,1.11,2.15.58,3,0,2.65-2,5.26-4,7.9-6l4.12-3.11a23.65,23.65,0,0,0,3.8-3.18c1.24-1.43,2.43-3.73,1.68-5.67l-.42.55a10.18,10.18,0,0,0,1.57-1.12c2.4-1.88,4.79-3.83,7-5.88a56.94,56.94,0,0,0,9.87-12l-1.35.25c-.13-.18,0,0,0,.14a8.57,8.57,0,0,0,.14,1.12c.21,2.34.13,4.69.26,7,.11,2,.42,6,2.6,7.14.31.16,1.53,0,1.29-.58-1.18-2.75-.44-5.9.48-8.59a62.61,62.61,0,0,1,4.57-10.88,90.15,90.15,0,0,1,6.91-9.69c2.14-2.81,4.64-5.5,5.11-9.14a25,25,0,0,0-.6-8.86l-1.39.49a9.55,9.55,0,0,0,2.16,1.32,13.7,13.7,0,0,0,4.6,1.52c3.57.34,7-1.71,9.89-3.58a62.44,62.44,0,0,0,7.94-6.07c.3-.27,1.3-1,.77-1.41s-1.75.44-2.23.6c-3.52,1.14-7.85-.31-10.57-2.64a26.75,26.75,0,0,1-6.45-8.9c-1.9-4-2.55-8.46-4-12.65-1-2.91-3.52-5-6.05-6.57-.34-.21-.7-.39-1-.6.11.06,0,.36.12,0a3.83,3.83,0,0,0,.07-1.17c.08-2.06-.17-3.37-1.66-4.86a8.69,8.69,0,0,0-4.79-2.84,13.12,13.12,0,0,0-3.37-.2l.6.52a15.28,15.28,0,0,1,2.18-2.82c1.48-1.59,3.2-1.72,5.25-2,3.06-.4,6-1,8-3.51,2.53-3.24,4.06-7.48,5.21-11.41.19-.65-1.22-.31-1.42,0a15.51,15.51,0,0,1-4.12,4.42,11.56,11.56,0,0,1-5.54,2.17c-1.74.22-3.5.19-5.23.44a11.09,11.09,0,0,0-7.22,4.2,11.81,11.81,0,0,0-1.45,2.18c-.3.58-.14.15.25,0l1,.06c.1.09,0-.38,0-.58,0-.93,0-1.85.06-2.77a31.81,31.81,0,0,0-.61-7.09c-.38-2-.92-4-1.4-6-.54-2.21-.44-4.45-.77-6.68a39.87,39.87,0,0,0-1.37-4.61c-.49-1.73-.92-3.47-1.33-5.21a20.21,20.21,0,0,0-1-4.18,3.13,3.13,0,0,0-3.28-1.41c-1.75.42-1.18,3.11-1.3,4.4a8.59,8.59,0,0,1-2.78,5.23c-.07.06-.18.25-.13.36,2.57,4.92,4.89,10,7.11,15.07,2.11,4.85,3.94,10.9,3,16.27l1.39-.37a9.18,9.18,0,0,0-9.89-1.32l1,.06q-1.64-2.11-3.26-4.25a7.54,7.54,0,0,0-1.95-2.14,8.76,8.76,0,0,0-3.34-.84c-2.89-.33-5.93-.32-8-2.7a10.1,10.1,0,0,1-2-3.57c-.18-.59-1.34-.2-1.45.27-.58,2.45-1.24,5.46-.61,7.94a22.67,22.67,0,0,0,2.22,4.5c.56,1.08,1.12,2.16,1.69,3.24l.42-.56c-1.46.69-4.17.27-5.87.06a21.23,21.23,0,0,0-8.43.68,15.61,15.61,0,0,0-7.11,3.9,19.07,19.07,0,0,1-6.74,4.61,34.32,34.32,0,0,1-12.12,2.3C255.84,181.93,255.46,182.87,256.45,182.84Z" transform="translate(-171.14 -49.92)"/><path class="cls-4" d="M293.6,158.94a9.46,9.46,0,0,0,10.16,5.26,7.47,7.47,0,0,1,7.38,2.87c1.31,1.7,5.77.9,5.77.9s4.37,2.76,4.46,2.06a5.25,5.25,0,0,1,4.34-4.8c3.77-.69,10.29-2.63,12.58-1.83s-1.09,2.46-5.44,5.15a22.35,22.35,0,0,0-6,4.91h-1.71s-.46-1.12,1.26,1.9-.69,4.86,2.06,7.88,4.23,5.37,4,7.28-.57,2.26-.57,2.26l-11.48-4.34-6.91-5.2L309.83,178l-4.48,2-3.19-4.58-3.36-2.06-3.91-1.55,2.29-1-4.06-8.81Z" transform="translate(-171.14 -49.92)"/><path class="cls-4" d="M335.94,182.38,341,186.2s2.22,2.92,2.33,8.53-1.72,15.89-2.29,17.83-1.48,1.95-4.11-1.25a6.63,6.63,0,0,0-6.54-2.16l-6.73-12,1.49-6.61,9.52,3.41,2.79,2.15-2-7.64Z" transform="translate(-171.14 -49.92)"/><path class="cls-4" d="M345.68,206.39c3.24,5.83,6,8.69,8.16,8.92s7.43-1.42,7.43-1.42-10.49,9.68-12.8,9.28a29.67,29.67,0,0,1-6.26-2.46l3.28-9.06Z" transform="translate(-171.14 -49.92)"/><path class="cls-4" d="M315.5,215.31c.63,6.74,8.15,18.06,8.15,18.06A36.94,36.94,0,0,0,329,221.71c1.6-6.52,1.54-7.14,1.54-7.14s2.12,6.13,1.32,10.07a108,108,0,0,1-3.43,11.14s5.48-2.86,7.66-7.09a38.56,38.56,0,0,0,3.09-9.23l-2.75-6.9-6.08-3.41-3.84-4.48-6.7,6.64Z" transform="translate(-171.14 -49.92)"/><path class="cls-4" d="M339.74,225.31c-.76,7.26-11.05,21.56-12.77,24.3a43.53,43.53,0,0,1-3.87,5.16l-.28-2.24,4.95-7.34,2.61-5.44,6.8-9Z" transform="translate(-171.14 -49.92)"/><path class="cls-4" d="M307.19,223.17a42.74,42.74,0,0,1,3.95,7.23s4.32-1.26,5.56-5.09-.63-3.52-.63-3.52l-.83-7.22-8.51,3Z" transform="translate(-171.14 -49.92)"/><path class="cls-4" d="M326.48,203.21c-10.26,6-13.69,9.12-19.29,9.35s-6.64-.45-6.64-.45.24-2-1-2.29,1.33-9.78,1.33-9.78l3.62,2.92,5.4,1.66,7.24-1.32,4.3-3.26,2.23-2.91Z" transform="translate(-171.14 -49.92)"/><path class="cls-4" d="M267.72,186.82c-3.64,5.73-6.61,17.28-6.61,17.28a16.77,16.77,0,0,1,6.4-4.23c3.44-1,12.69-5.94,12.69-5.94L264,208a34.2,34.2,0,0,0,6.42,0c2.44-.37,13.48-6.53,13.48-6.53s1.66,4.71,2.69,6.69.68,7-2.18,9.34-7.77,6.59-7.77,6.59l5.51-.93a84.13,84.13,0,0,0,7.41,10.89l3.77,4.45s-2.36-5.15.25-12.18,4.78-5.54,4.78-5.54l-1.28,4.51-.59,9.32-.76,4.31s1.95,2.23,5.61-.52,7.7-5.56,7.7-5.56l-1.87-8.22-.46-5.74-.8-1.38h-5.78l-6.55-5.89-4.26-9.43-1.93-8.27-5.4-4.22-1.81-4.13-6.77,1.74Z" transform="translate(-171.14 -49.92)"/><path class="cls-4" d="M329.87,240.81c-4.16,5.37-11.85,10.93-11.85,10.93a24.08,24.08,0,0,0,.86-6.77c-.14-3.36-2.18-3.59-2.18-3.59l-3.2,11.72s-7.59-6.76-7.92-8.75-.46-3.55-.46-3.55l4.89-6,.35.95,8.77-5.42,3.22,8.56.47,4.74,7.56-3.91Z" transform="translate(-171.14 -49.92)"/><polygon class="cls-4" points="120.9 197.86 121.99 200.13 131.66 197.86 128.05 203.18 136.82 201.82 133.99 190.88 126.57 194.59 124.36 196.41 120.9 197.86"/><path class="cls-4" d="M272.08,237.38c-.45,2.63,3.32,9.47,3.32,12.39s4.8-10,4.8-10-.86.85,2,4,5.89,6.41,5.89,6.41l7.44-3.87,1-1.36-5.28-1.18L283.92,230l-7.87,5.1Z" transform="translate(-171.14 -49.92)"/><path class="cls-4" d="M258.82,213.08s3,6.39,3.77,8.52c.93,2.48,3.12,9.93,3.12,9.93l4.17-6.89s1.85,7.48,1.05,9.25l-.79,1.77,14.14-6.46L281,223.38l-5.57,1.26-2.76-1.47-2.76-9-1.45-3.8-5.81.77Z" transform="translate(-171.14 -49.92)"/><path class="cls-4" d="M255.78,230c-.18,5,4.25,8.43,6.22,11.74s.59,9.14.59,9.14l4.63-.23-3.71,3.94s1.25,5.44,3.71,7.49,3.09,1.86,3.09,1.86l1.12-5.22s.31,8.74,4,11,15.17-6.53,15.17-6.53l-2.51-5.66-7.86,5.66-2.66-.56-1.58-2,.7-5.86-3.49-2-4.23-7.57-1.72-6.77-3.6-.13-4-5.87-2.41-13.1L255.77,224Z" transform="translate(-171.14 -49.92)"/><polygon class="cls-4" points="117.18 204.85 109.75 208.79 112.03 204.85 105.52 208.16 106.41 204.85 112.03 202.81 117.5 200.28 117.18 204.85"/><path class="cls-4" d="M282.17,275.29c4.89-1.44,10.95-7.4,10.95-7.4l-2.29-3.24-3.42,4L281.52,272Z" transform="translate(-171.14 -49.92)"/><path class="cls-4" d="M271.55,286.2a145.89,145.89,0,0,0,12.73-7.83l-1.92-2.1-.84-4.32-8.1,3.34-3,.33-5.91-11.69-1-9.35-3.91-.66L257,248.39s1.37,9.48,2.52,13.19,3.08,4.27,3.08,4.27-.06,8.34,2,11.55,3.75,6.51,3.75,6.51l2.29-1.45Z" transform="translate(-171.14 -49.92)"/><path class="cls-4" d="M285.61,283.57c5.46-1.94,12.77-10,12.77-10l-3.77-3-4.38,4.73-4.62,3.46Z" transform="translate(-171.14 -49.92)"/><path class="cls-4" d="M313.42,264.06c-9.43,4.3-11.26,5.1-11.26,5.1v-8.53L299.53,268s-3.21-6.17-5.84-7.35a57.13,57.13,0,0,1-5.63-3.08l.62-7.94,3.36-1.84,2.57,4.89,3.1,2.64,4.45.18,6.9-2.51,1.47,4,1,3.15,1.88.37,7.25-4.78Z" transform="translate(-171.14 -49.92)"/><path class="cls-4" d="M287.82,193.93l.94,5.81a36.69,36.69,0,0,0,4.36,4.33c1.83,1.38,4.1-2,4.1-2l2.78,1.41.86-3.47-2.95-6.11-.69-.05L291.07,195Z" transform="translate(-171.14 -49.92)"/><ellipse class="cls-5" cx="121.33" cy="133.32" rx="12.65" ry="11.49"/><path class="cls-2" d="M304.39,183.3a11.1,11.1,0,0,1-7.85,10.31,12.76,12.76,0,0,1-13.37-3.6,10.41,10.41,0,0,1-1.11-12.23,12.2,12.2,0,0,1,12.65-5.3c5.25,1,9.59,5.36,9.68,10.82,0,.73,1.47.48,1.46-.12a12.19,12.19,0,0,0-8.93-11.29,14.58,14.58,0,0,0-14.81,3.84,11.19,11.19,0,0,0-1.06,13.88c3.06,4.47,8.84,6.33,14.05,5.35,5.74-1.08,10.66-5.73,10.75-11.78C305.86,182.46,304.4,182.69,304.39,183.3Z" transform="translate(-171.14 -49.92)"/><ellipse class="cls-2" cx="292.04" cy="178.88" rx="3.25" ry="3.46" transform="translate(-131.48 360.45) rotate(-74.02)"/><ellipse class="cls-5" cx="292.58" cy="178.47" rx="1.27" ry="1.38" transform="translate(-118.92 372.86) rotate(-76.85)"/><path class="cls-6" d="M282.17,176.57a13,13,0,0,1,10.3-4.82c6.49,0,11.83,4.44,12.56,10.15h0c-5-3-15.34-5.7-22.86-5.33" transform="translate(-171.14 -49.92)"/><path class="cls-5" d="M324.46,190a13.46,13.46,0,1,1-14.1-11.3,19.23,19.23,0,0,0,5.34,6.74A29.21,29.21,0,0,0,324.46,190Z" transform="translate(-171.14 -49.92)"/><path class="cls-2" d="M323.73,190.19a12.6,12.6,0,0,1-15.29,13.7c-7.83-1.8-12.4-10.68-8.65-18a12.65,12.65,0,0,1,10.48-6.79l-.63-.25c2.5,5.79,8.5,9.78,14.38,11.53.52.16,1.71-.61.87-.85-5.62-1.68-11.41-5.54-13.8-11.07-.11-.25-.41-.27-.64-.25a14.79,14.79,0,0,0-10.91,5.8,13.07,13.07,0,0,0-1.69,12.42c3.3,8.45,14.18,11.06,21.46,6.1a13.47,13.47,0,0,0,5.87-12.77C325.12,189.25,323.66,189.59,323.73,190.19Z" transform="translate(-171.14 -49.92)"/><circle class="cls-2" cx="142.28" cy="142.87" r="5.46"/><circle class="cls-5" cx="144.63" cy="142.87" r="2.26"/><path class="cls-2" d="M254.82,215.05a52.42,52.42,0,0,1,11-12.61,50.85,50.85,0,0,1,14.34-8.51,50.9,50.9,0,0,0-14,8.89,52.09,52.09,0,0,0-10.5,12.75Z" transform="translate(-171.14 -49.92)"/><polygon class="cls-2" points="133.81 153.2 131.02 159.9 132.87 152.88 133.81 153.2"/><path class="cls-2" d="M324.7,237.14a54.5,54.5,0,0,0,4.65-10.48,21.26,21.26,0,0,0,.59-11.35,21.42,21.42,0,0,1-.11,11.48,54.66,54.66,0,0,1-4.25,10.82Z" transform="translate(-171.14 -49.92)"/><path class="cls-2" d="M328.93,191.54c.56,2,1.19,3.89,1.93,5.79a39.49,39.49,0,0,0,2.58,5.51,14.83,14.83,0,0,0,1.74,2.47,4.6,4.6,0,0,0,1.13.94c.45.24.9.49,1.34.76a10,10,0,0,1,4.29,4.3,9.9,9.9,0,0,0-4.41-4.08c-.45-.25-.9-.48-1.36-.7a4.78,4.78,0,0,1-1.26-1,15,15,0,0,1-1.9-2.47,39.62,39.62,0,0,1-2.84-5.49c-.83-1.89-1.55-3.82-2.19-5.78Z" transform="translate(-171.14 -49.92)"/><path class="cls-2" d="M345.65,215a8.31,8.31,0,0,0,3,2.44,7.23,7.23,0,0,0,3.86.55,11.81,11.81,0,0,0,3.84-1.19,19.67,19.67,0,0,0,3.45-2.22,19.52,19.52,0,0,1-3.33,2.44,12.37,12.37,0,0,1-3.89,1.47,7.88,7.88,0,0,1-4.21-.36,9,9,0,0,1-3.48-2.49Z" transform="translate(-171.14 -49.92)"/><path class="cls-2" d="M298.19,165.11a7.29,7.29,0,0,0,3.08,4.07,9.26,9.26,0,0,0,5,1.61,29.33,29.33,0,0,1,5.6.46,17.82,17.82,0,0,1,5.34,1.8,7.17,7.17,0,0,1,2.19,1.84,9.14,9.14,0,0,1,1.3,2.52,27.19,27.19,0,0,0,2,5.16,10.9,10.9,0,0,0,4.1,3.6,30.86,30.86,0,0,0,5.08,2.27,30.89,30.89,0,0,1-5.14-2.16,11.14,11.14,0,0,1-4.25-3.58,26.9,26.9,0,0,1-2.14-5.16,9,9,0,0,0-1.29-2.38,6.68,6.68,0,0,0-2.09-1.67,17.08,17.08,0,0,0-5.21-1.62,28,28,0,0,0-5.5-.33,10.07,10.07,0,0,1-5.48-1.63,8.19,8.19,0,0,1-3.57-4.56Z" transform="translate(-171.14 -49.92)"/><path class="cls-2" d="M259.9,184.09c3.45-.19,6.91-.34,10.32-.74a27.91,27.91,0,0,0,5-1,13.75,13.75,0,0,0,4.54-2.39,13.94,13.94,0,0,1-4.46,2.63,27.46,27.46,0,0,1-5.05,1.27c-3.43.57-6.88.89-10.32,1.25Z" transform="translate(-171.14 -49.92)"/><path class="cls-2" d="M282.47,213a12.48,12.48,0,0,0-4.93,7.84,12.92,12.92,0,0,1,4.33-8.63Z" transform="translate(-171.14 -49.92)"/><path class="cls-2" d="M270.28,224.92a42.92,42.92,0,0,0-4.14,6.26,11.6,11.6,0,0,0-1.38,7.24,10.06,10.06,0,0,1-.15-3.79,15.1,15.1,0,0,1,1.08-3.66,42,42,0,0,1,3.78-6.62Z" transform="translate(-171.14 -49.92)"/><path class="cls-2" d="M280.7,239.8a13.32,13.32,0,0,1-1,2.93c-.42.91-.88,1.8-1.34,2.69-.93,1.77-1.91,3.5-2.92,5.22.87-1.79,1.69-3.61,2.47-5.43.38-.92.76-1.84,1.09-2.76a12.68,12.68,0,0,0,.74-2.75Z" transform="translate(-171.14 -49.92)"/><path class="cls-2" d="M292.69,244.67a23,23,0,0,0,2.62-5.54,22.51,22.51,0,0,0,1-6.07c0-1,0-2.07.06-3.12a25,25,0,0,1,.36-3.12,31.79,31.79,0,0,1,1.68-6,30.77,30.77,0,0,0-1.43,6,24.89,24.89,0,0,0-.24,3.1c0,1,.07,2.06.07,3.12a23.35,23.35,0,0,1-.75,6.27,24.26,24.26,0,0,1-2.48,5.84Z" transform="translate(-171.14 -49.92)"/><path class="cls-2" d="M323.23,220.86a19.37,19.37,0,0,0-.13,4.45c.11,1.51.3,3,.55,4.52a44.44,44.44,0,0,1-1-4.46,19.76,19.76,0,0,1-.37-4.64Z" transform="translate(-171.14 -49.92)"/><path class="cls-2" d="M317.06,240.72a12.69,12.69,0,0,1-.32,4.57,25.32,25.32,0,0,1-1.41,4.26,48.72,48.72,0,0,1-4.19,7.84,49.43,49.43,0,0,0,3.73-8,26.19,26.19,0,0,0,1.14-4.23,11.87,11.87,0,0,0,.06-4.24Z" transform="translate(-171.14 -49.92)"/><polygon class="cls-2" points="125.69 204.35 132.18 197.25 126.48 204.97 125.69 204.35"/><path class="cls-2" d="M302.65,260.7a20.39,20.39,0,0,1-1.12,3.28c-.43,1-.89,2.09-1.36,3.11-.94,2.05-1.93,4.08-2.95,6.09q1.3-3.12,2.49-6.28c.39-1,.77-2.11,1.12-3.17a20.45,20.45,0,0,0,.83-3.18Z" transform="translate(-171.14 -49.92)"/><path class="cls-2" d="M276.45,262.19a10.73,10.73,0,0,0,3.86-3.12,26.12,26.12,0,0,0,2.86-4.3,25.82,25.82,0,0,1-2.47,4.6,11.25,11.25,0,0,1-3.84,3.73Z" transform="translate(-171.14 -49.92)"/><path class="cls-2" d="M271.84,259a6.14,6.14,0,0,0-.8,2.29,24.77,24.77,0,0,0-.33,2.59,51.89,51.89,0,0,0-.11,5.29,51.84,51.84,0,0,1-.39-5.3c0-.89,0-1.79.09-2.69a7,7,0,0,1,.71-2.75Z" transform="translate(-171.14 -49.92)"/><path class="cls-2" d="M301.77,230.11a26.57,26.57,0,0,0-2.36,3.72,23.2,23.2,0,0,0-1.7,4.12,22.44,22.44,0,0,1,1.24-4.32,27.46,27.46,0,0,1,2-4.08Z" transform="translate(-171.14 -49.92)"/><path class="cls-2" d="M277,279.79a3.66,3.66,0,0,0-.8,1.86,11.31,11.31,0,0,0-.19,2.26,11.68,11.68,0,0,1-.3-2.3,5.5,5.5,0,0,1,.07-1.21,3.06,3.06,0,0,1,.45-1.25Z" transform="translate(-171.14 -49.92)"/><path class="cls-2" d="M266.38,187a46.67,46.67,0,0,0,7.93.15,27.5,27.5,0,0,0,4.95-.82,4.2,4.2,0,0,0,1.53-.63c.27-.2.11-.46-.15-.54a1.19,1.19,0,0,0-1,.27l.13-.09s.11,0,0,0l-.13.05c-.18.07.11,0-.07,0l-.24.07c-.22.07-.44.12-.65.17a27.3,27.3,0,0,1-4.76.68,46.22,46.22,0,0,1-7-.2c-.59-.06-1.53.76-.55.86Z" transform="translate(-171.14 -49.92)"/><path class="cls-2" d="M322.93,197.32c1.44,3.07,2.72,6.27,4.46,9.19a12.25,12.25,0,0,0,5.31,4.77,10.87,10.87,0,0,1,3.13,2.24,12.58,12.58,0,0,1,2.21,4.74c.48,1.49.94,3,1.47,4.45.18.49,1.05.19,1.31-.05a19.5,19.5,0,0,0,1.9-1.73,5.18,5.18,0,0,0,.65-1.26,39.09,39.09,0,0,0,2.7-7.23c.58-2.59.34-5.51.33-8.14,0-1.91,0-3.82-.07-5.73,0-.65-1.47-.36-1.46.16.05,1.76.07,3.51.08,5.26a48.63,48.63,0,0,1-.25,8.19,31.55,31.55,0,0,1-2.56,7.14c-.16.35-.31.72-.48,1.06s-.06.17-.16.29a20,20,0,0,1-1.86,1.69l1.32,0c-.51-1.4-.95-2.83-1.41-4.25-.95-3-1.94-5.35-4.72-7-1.08-.63-2.25-1.12-3.27-1.84a9.32,9.32,0,0,1-2.42-2.66c-2-3-3.25-6.43-4.76-9.65-.26-.54-1.68-.09-1.45.39Z" transform="translate(-171.14 -49.92)"/><path class="cls-2" d="M315.05,214.16c-1.16,6.22,1.65,12.06,3.87,17.7a51.79,51.79,0,0,1,2.72,7.31,31.35,31.35,0,0,1,.72,5.38c0,.4,1.14-.05,1.29-.14a54.22,54.22,0,0,0,9-7,40.83,40.83,0,0,0,5.06-6.49,18.25,18.25,0,0,0,3.23-8.5c0-.46-1.4-.16-1.44.23a17.94,17.94,0,0,1-3.14,8.37,40.85,40.85,0,0,1-5,6.45,51.71,51.71,0,0,1-8.81,6.84l1.29-.13a32.44,32.44,0,0,0-.68-5.21,47.74,47.74,0,0,0-2.62-7.11c-2.23-5.66-5.19-11.64-4-17.9.08-.42-1.36-.18-1.43.22Z" transform="translate(-171.14 -49.92)"/><path class="cls-2" d="M286.67,194a21.28,21.28,0,0,0,1.52,7.43c.77,2,1.46,4.06,2.33,6a19.1,19.1,0,0,0,3.25,5.55,12.83,12.83,0,0,0,1.55,1.2,24.47,24.47,0,0,1,2.13,2.19,5.83,5.83,0,0,0,4.65,2,40.76,40.76,0,0,0,5-.78c3.93-.78,8.36-1.85,11.52-4.45a97.79,97.79,0,0,0,8.93-8.7c.63-.67-.75-1-1.22-.47-2.16,2.31-4.4,4.56-6.72,6.71a18.34,18.34,0,0,1-4.76,3.45,31.8,31.8,0,0,1-5.8,1.92c-1.78.43-3.57.78-5.38,1s-3.28.18-4.73-1.18a37.28,37.28,0,0,0-3.38-3.15c-1.54-1.11-2.48-3.24-3.26-4.91-.92-2-1.6-4-2.39-6a22.56,22.56,0,0,1-1.8-7.92c0-.79-1.48-.59-1.47.09Z" transform="translate(-171.14 -49.92)"/><path class="cls-2" d="M258.9,213.4a16.91,16.91,0,0,1,8.55-2.4,28.27,28.27,0,0,0,6.16-.65c4.27-1.17,8.71-3.63,11.43-7.19.55-.72-.82-.92-1.21-.41a19.68,19.68,0,0,1-11.89,6.95c-2.17.34-4.41.18-6.6.45a17.35,17.35,0,0,0-7.4,2.61c-.82.53.38,1,1,.64Z" transform="translate(-171.14 -49.92)"/><path class="cls-2" d="M296.76,214.82c-3.63,2.08-7.31,4.08-11.07,5.93a39.09,39.09,0,0,1-7.87,3.15,4.52,4.52,0,0,1-3.79-.33c-1.58-1.13-1.93-3.33-2.37-5.07-.7-2.74-1.33-5.5-1.83-8.28-.1-.6-1.56-.24-1.45.38.39,2.19.88,4.37,1.4,6.53.62,2.59,1,6.44,3.87,7.62,2,.83,4.26.12,6.21-.51a51.39,51.39,0,0,0,7.11-3.08c3.63-1.82,7.2-3.76,10.72-5.78.85-.48-.39-.87-.93-.56Z" transform="translate(-171.14 -49.92)"/><path class="cls-2" d="M257.7,216.87a46.13,46.13,0,0,0,.3,11.56c.44,2.83,1.07,6,2.76,8.39,1.18,1.68,2.72,2,4.69,1.87a23.77,23.77,0,0,0,7.62-1.94,50.36,50.36,0,0,0,11.5-6.82c.28-.22-1-.08-1.3.13a45.78,45.78,0,0,1-12.13,7c-2.12.76-5.86,2.06-7.92.51-2.35-1.77-3.09-5.7-3.59-8.39a45.85,45.85,0,0,1-.49-12.65c0-.15-1.4,0-1.44.38Z" transform="translate(-171.14 -49.92)"/><path class="cls-2" d="M280.79,223.36a109.65,109.65,0,0,0,5.37,13.77c1.22,2.51,2.62,5.53,4.85,7.34,1.36,1.1,3.14.9,4.78.68a20,20,0,0,0,7.51-2.57,15.5,15.5,0,0,0,6.89-8.65c.12-.36-1.3-.18-1.43.23a15.19,15.19,0,0,1-12.53,10.34c-1.6.22-3,.32-4.19-.84-2-1.89-3.33-4.63-4.51-7.08A110.11,110.11,0,0,1,282.24,223c-.13-.39-1.57,0-1.45.39Z" transform="translate(-171.14 -49.92)"/><path class="cls-2" d="M305.21,217.72c1.5,2,1.47,4.47,1.28,6.85a11.66,11.66,0,0,0,.67,4.09c.7,2.47,1.55,4.91,2.48,7.31.1.28,1-.06,1.13-.12a27.58,27.58,0,0,0,9-5.56c.23-.22-.2-.2-.33-.2a1.75,1.75,0,0,0-1,.34A26,26,0,0,1,310,235.7l1.14-.12c-.93-2.4-1.79-4.83-2.48-7.31a11.7,11.7,0,0,1-.68-4c.18-2.43.27-4.93-1.28-7-.24-.33-1.53.28-1.44.39Z" transform="translate(-171.14 -49.92)"/><path class="cls-2" d="M329.69,238.84c-2,6.23-5.53,12.39-10.57,16.69-1.36,1.17-2.83,2.24-4.27,3.3-.76.57-2,1.87-2.84.76a7.35,7.35,0,0,1-.76-2.85,10.67,10.67,0,0,0-1.19-3.5c-.84-1.52-1.77-3-2.47-4.59a23.19,23.19,0,0,1-1.54-6,7.81,7.81,0,0,1-.19-1.93c.06-.73-1.41-.52-1.47.12a8.12,8.12,0,0,0,.13,1.7,25.67,25.67,0,0,0,1.39,5.94,40.47,40.47,0,0,0,2.6,5,10.51,10.51,0,0,1,1,2.05c.25.84.3,1.74.5,2.6.36,1.58.88,3.16,2.82,3a4,4,0,0,0,2-.95l2.7-2a36.8,36.8,0,0,0,6.93-6.67,41,41,0,0,0,6.6-12.51c.25-.79-1.19-.76-1.38-.16Z" transform="translate(-171.14 -49.92)"/><path class="cls-2" d="M266.79,239.11a26.76,26.76,0,0,0,2.77,9.3c1.13,2.22,2.37,4.72,4.61,6,2.62,1.5,5.57.66,8.07-.66,3.31-1.75,6.48-3.74,9.8-5.47,1.16-.59,2.47-.87,3.59-1.49a3.16,3.16,0,0,0,1.61-1.9c.15-.63-1.32-.43-1.46.14-.27,1.16-1.59,1.3-2.52,1.66a31,31,0,0,0-3.85,2c-1.69,1-3.36,1.92-5.05,2.87-1.94,1.08-4.1,2.61-6.38,2.75-3.3.19-5.13-2.85-6.51-5.38a27.66,27.66,0,0,1-3.24-10.18c-.06-.58-1.52-.24-1.44.39Z" transform="translate(-171.14 -49.92)"/><path class="cls-2" d="M291.31,248c1.06,2.24,2.07,4.84,4,6.53s4.74,1.77,7.23,1.23a32.5,32.5,0,0,0,7-2.6c.25-.12.37-.3.15-.48s-.81,0-1,.15c-3.1,1.49-7.75,3.82-11.13,1.81-2.45-1.46-3.58-4.58-4.74-7-.21-.43-1.61,0-1.45.39Z" transform="translate(-171.14 -49.92)"/><path class="cls-2" d="M275.93,255c.12,2-.57,3.85-.61,5.81a2.47,2.47,0,0,0,1.61,2.68,6.57,6.57,0,0,0,3.43-.26,16.62,16.62,0,0,0,4.18-2,18.4,18.4,0,0,0,4.42-4c.21-.27-.18-.35-.37-.35a1.31,1.31,0,0,0-1,.38,16.15,16.15,0,0,1-7,5.15,4.67,4.67,0,0,1-2.58.35c-1.05-.25-1.3-1.47-1.28-2.41,0-2,.73-3.83.61-5.81,0-.38-1.48-.1-1.45.39Z" transform="translate(-171.14 -49.92)"/><path class="cls-2" d="M253.66,239.94c.8,2.84,1.66,5.66,2.55,8.47.4,1.26.78,2.53,1.22,3.78a4,4,0,0,0,1.7,2.12,5.09,5.09,0,0,0,5.2-.32,14.49,14.49,0,0,0,2.68-2.74q1.17-1.4,2.25-2.85a9,9,0,0,0,1-1.41c0-.08.15-.25.12-.34-.12-.35-1.56.09-1.45.39,0,0,0,0-.05.1a6.59,6.59,0,0,1-.49.8,41.64,41.64,0,0,1-3.84,4.74c-.6.65-1.27,1.55-2.24,1.6a3.43,3.43,0,0,1-2.34-.88,4.91,4.91,0,0,1-1.3-2.37l-1.05-3.27c-.86-2.72-1.7-5.45-2.48-8.21-.09-.33-1.54.07-1.44.39Z" transform="translate(-171.14 -49.92)"/><path class="cls-2" d="M269.55,276.53a14.11,14.11,0,0,0-.1,4.72,4.57,4.57,0,0,0,.49,1.53c.35.61,1.72,0,1.32-.65v0c-.05-.11,0,0,0,.05s-.09-.21-.1-.25a5.4,5.4,0,0,1-.27-1.05,13.42,13.42,0,0,1,.12-4.42c.06-.37-.39-.54-.68-.52a.82.82,0,0,0-.79.61Z" transform="translate(-171.14 -49.92)"/><path class="cls-2" d="M286.34,281.37V278.7a.54.54,0,0,0-.67-.48,1,1,0,0,0-.55.2.57.57,0,0,0-.25.39v2.67a.54.54,0,0,0,.67.48,1,1,0,0,0,.55-.2.57.57,0,0,0,.25-.39Z" transform="translate(-171.14 -49.92)"/><path class="cls-2" d="M303.68,175.87a5.6,5.6,0,0,1,4.75,1.47,23.7,23.7,0,0,1,2.31,3.68,21.62,21.62,0,0,0,8.34,7.45c3.51,1.76,7.43,2.61,11,4.31a31.15,31.15,0,0,1,7.56,5.45c.31.28,1.67.07,1.39-.5-1.15-2.37-2.48-5-2.75-7.69a32.43,32.43,0,0,1,.41-7.74c.1-.65-1.37-.42-1.45.15a35,35,0,0,0-.43,7.72c.22,2.75,1.58,5.49,2.77,8l1.4-.49a32.43,32.43,0,0,0-14.29-8.21,26.09,26.09,0,0,1-8.62-4.56,22.43,22.43,0,0,1-3.32-3.5c-.81-1.09-1.34-2.32-2.07-3.45-1.61-2.48-4-3.17-6.82-3-.77.05-1.16,1-.16.93Z" transform="translate(-171.14 -49.92)"/><path class="cls-2" d="M256.45,182.84c6.27-.15,13.27-1.52,18.26-5.6,1-.8,1.73-1.8,2.7-2.61a14,14,0,0,1,4.37-2.36,20.81,20.81,0,0,1,9.4-.82c1.92.23,4.47.51,6.31-.36.14-.07.54-.33.42-.56-.52-1-1-2-1.55-3a30.43,30.43,0,0,1-2.3-4.56c-.76-2.4,0-5.52.56-7.91l-1.46.26a11.1,11.1,0,0,0,1.75,3.36c1.6,2.1,3.73,2.81,6.28,3.15a35.51,35.51,0,0,1,4.6.6,4.86,4.86,0,0,1,2.64,2.23q1.67,2.19,3.35,4.37c.21.28.71.18,1,.07a7.51,7.51,0,0,1,7.95,1.19c.36.3,1.3.18,1.4-.38.76-4.45-.39-9.47-1.87-13.63a124.88,124.88,0,0,0-5.11-11.54c-.94-2-1.89-4-2.89-5.91a1.59,1.59,0,0,0-.22-.43s-.19-.38-.09.1c0,.23,0,.07.25-.14a9.8,9.8,0,0,0,2.34-3.58c.57-1.58.23-3.2.53-4.81,0-.07.13-.48.13-.49.07.21-.5-.12-.29.17.09.13.73.12.91.19.79.34,1,1.14,1.12,1.91.51,2.55,1.13,5.09,1.81,7.6.3,1.09.61,2.18,1,3.24a19.12,19.12,0,0,1,.79,5.43c.28,3.8,1.72,7.44,2.25,11.21a42.65,42.65,0,0,1,.2,6.78c0,.31-.21,1.56.1,1.83a.92.92,0,0,0,1,.06c.23-.1.52-.62.43-.45a13.59,13.59,0,0,1,1.11-1.78,10.38,10.38,0,0,1,3.8-3.29,15.21,15.21,0,0,1,5.49-.9,15.68,15.68,0,0,0,9.55-3.41,16.49,16.49,0,0,0,3.7-4.2l-1.41,0c-1.14,3.89-2.66,8.41-5.4,11.48-2.37,2.66-6.39,2-9.55,2.9-2.47.68-4.36,2.92-5.59,5.09-.23.4.32.54.6.51a7.85,7.85,0,0,1,5.94,1.71c1,.88,2.22,1.9,2.53,3.24a11.94,11.94,0,0,1,0,3.58.29.29,0,0,0,.16.31,17.92,17.92,0,0,1,5.38,4.24,13.53,13.53,0,0,1,2.25,5.22c.61,2.19,1.14,4.41,1.85,6.58,2.05,6.27,6.34,13.44,13.07,15.31a13.51,13.51,0,0,0,5.4.48,9.51,9.51,0,0,0,2-.48,6.81,6.81,0,0,0,.7-.28,2.75,2.75,0,0,0,.3-.14c.29-.2.37,0-.22,0l-.46-.28c-.1-.19-.07-.06-.34.2s-.47.44-.72.65c-.82.72-1.68,1.41-2.55,2.09a56.77,56.77,0,0,1-6.77,4.65c-2.27,1.27-4.79,2.44-7.44,1.77a13.81,13.81,0,0,1-4.92-2.32c-.34-.3-1.54-.14-1.39.49a25.61,25.61,0,0,1,.69,7.7,10.06,10.06,0,0,1-1.61,5.08c-1,1.53-2.18,3-3.3,4.47a101.1,101.1,0,0,0-7,9.74,61.13,61.13,0,0,0-4.47,10.42c-1.08,3-2.13,6.62-.78,9.76l1.29-.58a3.22,3.22,0,0,1-1.14-1.43c-1.08-2.13-1.16-4.69-1.2-7,0-1.9,0-3.82-.25-5.7a2.36,2.36,0,0,0-.23-1.11c-.29-.41-1.14-.1-1.35.25A56,56,0,0,1,312.76,264c-2.21,2.06-4.58,4-6.95,5.85l-1.21.91c-.08.06-.53.32-.17.14-.17.09-.52.31-.43.56a4.73,4.73,0,0,1-.7,4c-1.5,2.42-4.42,4.06-6.66,5.75l-7.23,5.48c-.49.36-1,.73-1.45,1.1s-1.3,1.29-1.72.54c-.21-.37,0-1.28,0-1.68l.1-5.23c0-.57-.89-.41-1.19-.2-2.37,1.7-4.73,3.42-7,5.27a14.66,14.66,0,0,1-3,2.36c-1.48.6-2.52-.75-2.88-2-.43-1.48-.62-3-.9-4.53-.1-.54-1.09-.2-1.32,0a23.89,23.89,0,0,1-2.84,2.85c-1.48,1-2.33-.85-3-1.9a20.08,20.08,0,0,1-2.09-4.48,33.47,33.47,0,0,1-.91-7.68c-.08-1.57-.14-3.15-.16-4.73,0-.52-.71-.43-1-.29a2.4,2.4,0,0,1-1.38.35c-.74-.18-1-1-1.27-1.64a33.9,33.9,0,0,1-1.64-4.38,21.31,21.31,0,0,1-.59-5.46c-.06-3.78.06-7.56.22-11.33a20.8,20.8,0,0,0-.11-2.62c0-.4-.11-.82-.11-1.22s0,0,0-.22a21.93,21.93,0,0,1,.63-2.28,13.48,13.48,0,0,0,.59-3.43c.11-3.21,0-6.5.39-9.7a20.22,20.22,0,0,1,1.22-5c.3-.79.8-1.55,1.07-2.35a13.09,13.09,0,0,0,.1-3.81c0-.58-.89-.42-1.2-.21L254.78,215l1.2.2c.64-4.22,1.35-8.47,2.41-12.62a40.51,40.51,0,0,1,3.9-9.89,25.61,25.61,0,0,1,5-6c.41-.39-.16-.67-.52-.64-3.41.35-7-2.14-9.63-4.12-.44-.33-1.75.3-1.13.77,2.89,2.21,6.79,4.67,10.6,4.29l-.51-.64a27.31,27.31,0,0,0-4.95,5.88,40.47,40.47,0,0,0-4,9.93,122.26,122.26,0,0,0-2.55,13.16c-.09.59.94.38,1.19.2l3.18-2.23-1.2-.2v2c0,.41,0,.83,0,1.24s.05.08-.05.36c-.28.77-.73,1.5-1,2.27a21.5,21.5,0,0,0-1.16,4.17c-.58,3.4-.41,7-.53,10.45a15.55,15.55,0,0,1-.66,3.94,16.9,16.9,0,0,0-.57,2.05,7.29,7.29,0,0,0,.09,1.68,19.82,19.82,0,0,1,.08,3c-.16,4.11-.32,8.24-.16,12.35a21.26,21.26,0,0,0,1.77,7.46c.49,1.19.91,2.73,2.29,3.14a4.2,4.2,0,0,0,2.85-.51l-1-.29c.06,5.2-.09,11,2.35,15.67,1.1,2.15,2.77,5.57,5.72,3.85a19.91,19.91,0,0,0,3.54-3.39l-1.32,0c.34,1.83.38,4,1.33,5.65,1.15,2,3.73,1.89,5.37.66,3.19-2.4,6.25-4.94,9.5-7.26l-1.19-.2-.11,5.53a3.72,3.72,0,0,0,.19,2c.73,1.11,2.15.58,3,0,2.65-2,5.26-4,7.9-6l4.12-3.11a23.65,23.65,0,0,0,3.8-3.18c1.24-1.43,2.43-3.73,1.68-5.67l-.42.55a10.18,10.18,0,0,0,1.57-1.12c2.4-1.88,4.79-3.83,7-5.88a56.94,56.94,0,0,0,9.87-12l-1.35.25c-.13-.18,0,0,0,.14a8.57,8.57,0,0,0,.14,1.12c.21,2.34.13,4.69.26,7,.11,2,.42,6,2.6,7.14.31.16,1.53,0,1.29-.58-1.18-2.75-.44-5.9.48-8.59a62.61,62.61,0,0,1,4.57-10.88,90.15,90.15,0,0,1,6.91-9.69c2.14-2.81,4.64-5.5,5.11-9.14a25,25,0,0,0-.6-8.86l-1.39.49a9.55,9.55,0,0,0,2.16,1.32,13.7,13.7,0,0,0,4.6,1.52c3.57.34,7-1.71,9.89-3.58a62.44,62.44,0,0,0,7.94-6.07c.3-.27,1.3-1,.77-1.41s-1.75.44-2.23.6c-3.52,1.14-7.85-.31-10.57-2.64a26.75,26.75,0,0,1-6.45-8.9c-1.9-4-2.55-8.46-4-12.65-1-2.91-3.52-5-6.05-6.57-.34-.21-.7-.39-1-.6.11.06,0,.36.12,0a3.83,3.83,0,0,0,.07-1.17c.08-2.06-.17-3.37-1.66-4.86a8.69,8.69,0,0,0-4.79-2.84,13.12,13.12,0,0,0-3.37-.2l.6.52a15.28,15.28,0,0,1,2.18-2.82c1.48-1.59,3.2-1.72,5.25-2,3.06-.4,6-1,8-3.51,2.53-3.24,4.06-7.48,5.21-11.41.19-.65-1.22-.31-1.42,0a15.51,15.51,0,0,1-4.12,4.42,11.56,11.56,0,0,1-5.54,2.17c-1.74.22-3.5.19-5.23.44a11.09,11.09,0,0,0-7.22,4.2,11.81,11.81,0,0,0-1.45,2.18c-.3.58-.14.15.25,0l1,.06c.1.09,0-.38,0-.58,0-.93,0-1.85.06-2.77a31.81,31.81,0,0,0-.61-7.09c-.38-2-.92-4-1.4-6-.54-2.21-.44-4.45-.77-6.68a39.87,39.87,0,0,0-1.37-4.61c-.49-1.73-.92-3.47-1.33-5.21a20.21,20.21,0,0,0-1-4.18,3.13,3.13,0,0,0-3.28-1.41c-1.75.42-1.18,3.11-1.3,4.4a8.59,8.59,0,0,1-2.78,5.23c-.07.06-.18.25-.13.36,2.57,4.92,4.89,10,7.11,15.07,2.11,4.85,3.94,10.9,3,16.27l1.39-.37a9.18,9.18,0,0,0-9.89-1.32l1,.06q-1.64-2.11-3.26-4.25a7.54,7.54,0,0,0-1.95-2.14,8.76,8.76,0,0,0-3.34-.84c-2.89-.33-5.93-.32-8-2.7a10.1,10.1,0,0,1-2-3.57c-.18-.59-1.34-.2-1.45.27-.58,2.45-1.24,5.46-.61,7.94a22.67,22.67,0,0,0,2.22,4.5c.56,1.08,1.12,2.16,1.69,3.24l.42-.56c-1.46.69-4.17.27-5.87.06a21.23,21.23,0,0,0-8.43.68,15.61,15.61,0,0,0-7.11,3.9,19.07,19.07,0,0,1-6.74,4.61,34.32,34.32,0,0,1-12.12,2.3C255.84,181.93,255.46,182.87,256.45,182.84Z" transform="translate(-171.14 -49.92)"/><path class="cls-2" d="M280.79,272.15l.54,2.72a6.24,6.24,0,0,0,.89,2.84,3.64,3.64,0,0,0,4.31.74,12.77,12.77,0,0,0,2.35-1.59c.84-.64,1.67-1.3,2.48-2a15.2,15.2,0,0,0,4-4.42c.14-.28-1.23-.17-1.43.23a12.51,12.51,0,0,1-2.9,3.42,49.07,49.07,0,0,1-4.3,3.44c-.61.44-1,.78-1.82.54a2.56,2.56,0,0,1-1.58-1.37,10.44,10.44,0,0,1-.53-2.29l-.52-2.66c-.07-.36-1.53,0-1.45.39Z" transform="translate(-171.14 -49.92)"/><path class="cls-2" d="M304.27,271c-2.33,1.52-5.44,3.29-7.8.9A17.18,17.18,0,0,1,294,268c-.89-1.58-1.8-3.14-2.61-4.75a25,25,0,0,1-1.94-4.84,16.53,16.53,0,0,1-.3-5.61l.23-3.29c0-.64-1.42-.37-1.45.16l-.17,2.3a32.39,32.39,0,0,0-.19,4.4,15.76,15.76,0,0,0,1.13,4.54,70,70,0,0,0,4.28,8.24c1.06,1.92,2.13,4.08,4.45,4.66,2.72.69,5.54-.94,7.73-2.36.82-.53-.42-.82-.92-.5Z" transform="translate(-171.14 -49.92)"/><path class="cls-2" d="M290.39,264.16c-1.54,3.1-4.13,5-7.18,6.55-1.77.87-3.59,1.63-5.4,2.39l-2.92,1.18a14.61,14.61,0,0,1-2.83,1.05c-2.13.35-3.11-2.83-3.89-4.35a37.6,37.6,0,0,1-2.36-5.12c-1.23-3.64-1.11-7.57-1-11.36,0-.63-1.44-.34-1.45.17a39.71,39.71,0,0,0,.63,10.21c.81,3.29,2.65,6.35,4.25,9.32a3.36,3.36,0,0,0,2.75,2.06c1.42.12,2.85-.68,4.13-1.19a94.26,94.26,0,0,0,9.83-4.29,15.27,15.27,0,0,0,6.83-6.56c.31-.64-1.14-.51-1.36-.06Z" transform="translate(-171.14 -49.92)"/><path class="cls-7" d="M288.64,276.48a28.75,28.75,0,0,0,7.11,3,41.5,41.5,0,0,1,6.41,2s-4.94.25-5.65,2.14-4.18,5.65-5.44,5.83-4.69,1.2-5.46,2.4-4.21,2.06-5.75,2.75-3,5.49,1.66,5.66,10.12-.86,11.6,1.37,3.18,5.49,7.74,5.32,5.87-1.89,5.87-1.89,3.17,3.1,7.19,1.89a5,5,0,0,0,3.83-4.81,2.58,2.58,0,0,0,3.27-.17c1.89-1.37,1.62-4.28,1.62-4.28s-.07-2.06-1.62-2.23-4.32,1-4.32,1-1-.85-4.17,0-8.61,1.72-12,1a24.86,24.86,0,0,1-6.21-2.23s-3.17-1.48.27-3.4A52.14,52.14,0,0,1,308,287.34c3.29-.51,6.14-.51,7.54-3.43s-.49-3.77-3.57-6.17a71.16,71.16,0,0,1-6.43-6.83s-3.08,2-4.58,2.27c-4.42.73-6.31-1.84-6.31-1.84Z" transform="translate(-171.14 -49.92)"/><path class="cls-8" d="M311.15,277.07a76.86,76.86,0,0,1-12.47,3.15l-9.94-3.74,5.87-5.92,3.77,3,5.49-1.64,1.63-1Z" transform="translate(-171.14 -49.92)"/><path class="cls-8" d="M281.52,300.21c1.43-2.8.55-4.18,2.76-5.32s5.42-2.51,6.79-3.43a4.82,4.82,0,0,0,1.63-3.07l-5.38,2.18-2.23,1.75-4.89,2-1.67,2.09.37,2.78Z" transform="translate(-171.14 -49.92)"/><path class="cls-8" d="M293.12,301.58c3.89.63,7.24,2,10.2,1.77s7.87,1.6,9.81.8,3.88-4,6-4.46,3.51-3.43,3.51-3.43l-.4,4.05-2.12,2.1-2.37-.32-.63,2.39-3.2,2.42-3.56.28-4.13-1.87-4.07,1.49-3.31-.08-4.24-3Z" transform="translate(-171.14 -49.92)"/><path class="cls-2" d="M288,276.72a28.58,28.58,0,0,0,5.82,2.66c2.57.81,5.18,1.28,7.69,2.29l1-.52a14.61,14.61,0,0,0-4.75,1,3.57,3.57,0,0,0-1.92,1.55,15.67,15.67,0,0,1-2.24,3.25,10.36,10.36,0,0,1-2.45,2.21c-1.08.39-2.26.53-3.35,1a7.3,7.3,0,0,0-2.72,1.62,8.54,8.54,0,0,1-3.68,2c-1.72.61-3.13,1.08-3.61,3a2.85,2.85,0,0,0,2.53,3.68c3.17.49,6.44-.37,9.62.12a3.72,3.72,0,0,1,2.9,1.84,17.13,17.13,0,0,0,1.95,2.6c2.23,2.31,5.33,2.49,8.33,1.9,1.45-.28,3.39-.79,4.36-2l-1.39.37a8.24,8.24,0,0,0,8.29,1.75c2.21-.74,4.23-2.59,4.14-5.1l-1.41.44c1.26,1,3.33.44,4.51-.4a5,5,0,0,0,1.79-4.45c-.27-3.82-4.87-2.08-7.09-1.14l1.1-.16c-1.09-.87-3.28-.36-4.45-.08a39.79,39.79,0,0,1-8.88,1.32,19.26,19.26,0,0,1-8.3-2.08c-.88-.41-2.4-1.09-1.92-2.31s2.4-1.77,3.46-2.22c1.4-.61,2.84-1.13,4.29-1.6a44.13,44.13,0,0,1,7.67-1.83c2.12-.3,4.55-.65,6.09-2.31s1.84-3.71.18-5.29c-1-1-2.3-1.74-3.38-2.69a33.15,33.15,0,0,1-2.51-2.52q-1.77-1.9-3.45-3.92c-.2-.23-1,.11-1.23.24-1.77,1.15-3.57,2.3-5.77,2.09a5.62,5.62,0,0,1-3.85-1.84c-.24-.32-1.15.06-1.38.25l-6,5.14c-.29.25,1,.11,1.31-.12l6-5.14-1.38.26c1.22,1.6,3.53,2.12,5.44,2,2.5-.09,4.68-1.33,6.73-2.67l-1.23.23a51.63,51.63,0,0,0,8.05,8.07,5.7,5.7,0,0,1,2.27,2.45,4,4,0,0,1-1.22,3.65c-1.77,1.84-5.07,1.56-7.42,2.08a58.3,58.3,0,0,0-7.54,2.25c-1.15.43-2.3.89-3.42,1.41a7.81,7.81,0,0,0-2.86,1.82c-2.23,2.78,6.47,4.73,7.57,4.91a26.45,26.45,0,0,0,8.87-.38c1.49-.26,3-.74,4.45-1a3.32,3.32,0,0,1,2.44.25c.24.19.89-.07,1.1-.16a7.69,7.69,0,0,1,3.19-.84c1.11.07,1.53,1.16,1.62,2.13.14,1.62-1.13,6-3.49,4-.22-.18-1.42.09-1.4.44a4.58,4.58,0,0,1-2.77,4.24c-2.27,1-5.14-.12-6.85-1.76-.27-.26-1.21.13-1.39.37-1,1.23-3.58,1.5-5.09,1.48a7.31,7.31,0,0,1-6-3.55,15.15,15.15,0,0,0-1.45-2.08,4.35,4.35,0,0,0-2.43-1c-2.67-.42-5.43,0-8.11-.06-2,0-4.18-.59-3.88-3a3.66,3.66,0,0,1,.79-1.9c.62-.73,1.88-.92,2.74-1.24a13.1,13.1,0,0,0,2.87-1.32,17.66,17.66,0,0,1,2.18-1.76c1.69-.83,3.66-.81,5.18-1.95a16,16,0,0,0,4.33-5.2c.83-1.55,3-1.73,4.65-1.82.14,0,1.25-.43,1-.53a59.64,59.64,0,0,0-7.17-2.14,25.84,25.84,0,0,1-6.34-2.8C289,276,287.79,276.63,288,276.72Z" transform="translate(-171.14 -49.92)"/><path class="cls-7" d="M263.74,262.65s-7-5.49-9.36-5.55-7.39-.17-8.42.51-1.26,2.29-3,3.49-9.83,8.12-11,9-1.43-.77-1.43-2.15-.17-9.83-.8-11.43-1.43-6.18-.86-8.14.4-5.24-.86-6.61c-1-1.05-1.42-1.07-1.58-1,.08-.08.1-.36-.73-1.38a2.5,2.5,0,0,0-3-.46,3.25,3.25,0,0,0-1.94-2c-1.54-.57-3.14,1.52-3.14,1.52-2.2.79-4.61,4.14-4.69,7.91a28.28,28.28,0,0,0,2.34,12.12c1.77,3.83,5,11.4,5,16.07s-.2,8.8,5.26,8.06l1.26-.14c1.26-.15,3.66-3.29,3.83-3.95s1.37-.6,2.12-1.17.57-1.43,1.2-2,3.77-2.58,5.43-4.07,4.23-1.31,6-1.25a5.94,5.94,0,0,0,4.18-1.76c.57-.73.91-3.16,4.76-1.31s4.73,3.29,12.06,2.26Z" transform="translate(-171.14 -49.92)"/><path class="cls-8" d="M220.16,236.83l1.47.55,1.11,1.54,3,.46.73,1.38a20.68,20.68,0,0,0-.73,7.63c.48,3.74.71,16.77,1.4,20.32s3.54,9.8,3.54,9.8l-2.51,3.18-3.74,1-2.81-1-1.15-2.94s.15-5.45-.79-8.64-6.13-11.54-6.35-18.37.47-10.68,2.39-12S220.16,236.83,220.16,236.83Z" transform="translate(-171.14 -49.92)"/><path class="cls-2" d="M264,262.11a47,47,0,0,0-4.14-3.42,17,17,0,0,0-3-1.85,7.44,7.44,0,0,0-3.07-.47c-2.62-.05-5.79-.35-8.26.72-1.3.56-1.77,1.7-2.57,2.76a12.64,12.64,0,0,1-2.33,2c-2,1.59-4,3.24-5.92,4.88L232.09,269c-.29.24-.61.47-.88.73-.06.06-.2.12-.25.2s-1.36.35.67-.1c1.32-.29.63,0,.6-.54-.06-1-.2-2-.22-3,0-1.19-.06-2.39-.11-3.59a26.49,26.49,0,0,0-.67-6.53,22.63,22.63,0,0,1-1-4.61,11.66,11.66,0,0,1-.05-2.64c.09-.75.34-1.46.41-2.22.21-2.28-.51-7.28-3.92-6.58l1.1.64c.65-1-1.15-2.45-2-2.7a5.69,5.69,0,0,0-3.94.57l2.31-.07c-1.16-3.79-6-2.41-7.86-.06l.79-.5c-8.52,3.44-5.65,15.57-2.8,21.88a62.76,62.76,0,0,1,4,11,22.31,22.31,0,0,1,.57,5.21,15.3,15.3,0,0,0,.43,4.53c.9,2.81,3.66,3,6.21,2.7a6.54,6.54,0,0,0,4.08-1.68,12.83,12.83,0,0,0,2.49-3.19c.07-.12.05-.15-.16,0a3.68,3.68,0,0,1,.56-.19,5.79,5.79,0,0,0,1.18-.56c.84-.55.93-1.19,1.38-2a4.67,4.67,0,0,1,1.48-1.27c.84-.59,1.68-1.17,2.51-1.79a22.6,22.6,0,0,1,2-1.56,5.5,5.5,0,0,1,2.87-.39,9.82,9.82,0,0,0,6-1.56,4.28,4.28,0,0,0,1.33-1.38,5.81,5.81,0,0,1,.66-1l-.5.19h0s1,.27,1,.27a12.93,12.93,0,0,1,1.36.63c.58.31,1.13.65,1.7,1,3,1.77,6.25,1.49,9.63,1,.27,0,1.94-.46,1.69-1.06l-2.7-6.52c-.36-.86-3.2,0-2.9.77l2.7,6.52,1.68-1.06a15.29,15.29,0,0,1-5.31.15,9.56,9.56,0,0,1-2.76-1.3c-2.41-1.42-5.91-3-8.28-.56-.77.79-.89,1.7-2,2.21a6.59,6.59,0,0,1-2.87.23,13,13,0,0,0-3.23.41c-1.94.53-3.25,1.84-4.84,3a23.73,23.73,0,0,0-3.66,2.71,3.61,3.61,0,0,0-.61,1.06c-.26.59-.34.75-.93,1a3.26,3.26,0,0,0-1.89,1.34,21.38,21.38,0,0,1-2.52,3.09c-.37.43.05-.17.07.06l.29-.09-.57.07-.62.07a4.65,4.65,0,0,1-1.82-.07,3.39,3.39,0,0,1-2.06-2.91,27.41,27.41,0,0,1-.23-4.79,21,21,0,0,0-.94-5.5,75.22,75.22,0,0,0-4.09-10.57,26.61,26.61,0,0,1-2.09-7.53c-.33-2.5-.54-5.2.36-7.6a8.77,8.77,0,0,1,1.9-3.1c.62-.65,1.44-.88,2.08-1.47.17-.17.3-.37.48-.53s.35-.2.4-.32c.22-.13.13-.12-.26,0l.45.22a3.55,3.55,0,0,1,1.22,1.54c.23.75,1.92.12,2.31-.08-.28.14.21.16.53.41s.48.71.78,1c.14.13,0,.47.23.17-.45.69.68.72,1.09.64-.64.13-.5,0,0,.43a3.8,3.8,0,0,1,.7.8,5.44,5.44,0,0,1,.69,2.08,12.55,12.55,0,0,1-.28,4.32,17.51,17.51,0,0,0,1,7.85,25.71,25.71,0,0,1,.66,6.38,55.15,55.15,0,0,0,.21,6.17c.45,2.74,3.32,1.31,4.74.14,1.76-1.46,3.5-2.93,5.26-4.4,1.58-1.31,3.15-2.64,4.79-3.87a12.82,12.82,0,0,0,2.6-3c.1-.14.51-.51.13-.33l.48-.07c.67-.08,1.35-.1,2-.12a25.74,25.74,0,0,1,4.39,0,7.71,7.71,0,0,1,3,1.55,44.14,44.14,0,0,1,4.7,3.83C262,263.78,264.65,262.7,264,262.11Z" transform="translate(-171.14 -49.92)"/></g></svg>