<svg xmlns="http://www.w3.org/2000/svg" viewBox="0 0 114.5 108.23"><defs><style>.cls-1,.cls-2,.cls-3,.cls-4{fill:none;stroke:#fff;stroke-linecap:round;stroke-linejoin:round;}.cls-1{stroke-width:7.94px;}.cls-2{stroke-width:8.36px;}.cls-3{stroke-width:7.85px;}.cls-4{stroke-width:8.64px;}</style></defs><g id="Layer_2" data-name="Layer 2"><g id="Layer_1-2" data-name="Layer 1"><path class="cls-1" d="M5.82,59.31A55,55,0,0,1,4.38,42.49C5,33,5.82,28.15,5.82,28.15S24,15.23,24,34,5.82,59.31,5.82,59.31Z"/><ellipse class="cls-2" cx="44.75" cy="32.3" rx="15.92" ry="10.02" transform="matrix(0.16, -0.99, 0.99, 0.16, 5.88, 71.49)"/><path class="cls-2" d="M76.55,7.36S63.35,13.1,65.82,20c2.68,7.52,9.79,4,12.71,10.44C80.91,35.73,71,42.39,65.4,44.38"/><ellipse class="cls-2" cx="99.34" cy="19.98" rx="15.92" ry="10.02" transform="translate(64.15 115.01) rotate(-81.05)"/><path class="cls-3" d="M3.93,104.31V74.06S18.52,63,18.7,72.26s-13,17-13,17S19.4,83,18.7,91.78,3.93,104.31,3.93,104.31Z"/><path class="cls-3" d="M30.13,99.26V68.49s16.35-11,16.44-2.06-16.44,20-16.44,20"/><path class="cls-3" d="M37.51,80.58s9.92,32.26,38.58,10.22"/><path class="cls-4" d="M69.39,68.17a108,108,0,0,1-12.48,5.12"/><path class="cls-4" d="M72.47,54.66s-10.16,3.52-14.35,6.27a76.82,76.82,0,0,0-1.21,12.36c0,6-.72,12.29,1.54,12.33s14-6.44,14-6.44"/><path class="cls-3" d="M82.52,50.54A207.08,207.08,0,0,1,83.75,83.2c8.44-11.09,12.12-28.5,12.12-28.5s3.49,19.76,10.43,28.5c0,0,1.64-29.23,4.27-38.9"/></g></g></svg>