<svg xmlns="http://www.w3.org/2000/svg" viewBox="0 0 114.83 60.6"><defs><style>.cls-1,.cls-2,.cls-3,.cls-4{fill:none;stroke:#fff;stroke-linecap:round;stroke-linejoin:round;}.cls-1{stroke-width:5.16px;}.cls-2{stroke-width:5.43px;}.cls-3{stroke-width:5.1px;}.cls-4{stroke-width:5.62px;}</style></defs><g id="Layer_2" data-name="Layer 2"><g id="Layer_1-2" data-name="Layer 1"><path class="cls-1" d="M3.59,38.54a35.74,35.74,0,0,1-.93-10.92c.41-6.17.93-9.32.93-9.32s11.82-8.4,11.82,3.83S3.59,38.54,3.59,38.54Z"/><ellipse class="cls-2" cx="28.9" cy="21" rx="10.35" ry="6.51" transform="translate(3.66 46.27) rotate(-81.05)"/><path class="cls-2" d="M49.56,4.79S41,8.52,42.59,13c1.74,4.89,6.36,2.62,8.26,6.79,1.55,3.41-4.89,7.74-8.53,9"/><ellipse class="cls-2" cx="64.38" cy="12.99" rx="10.35" ry="6.51" transform="translate(41.53 74.56) rotate(-81.05)"/><path class="cls-3" d="M43,58.05V38.39s9.48-7.2,9.6-1.17-8.46,11.05-8.46,11.05S53,44.19,52.57,49.9,43,58.05,43,58.05Z"/><path class="cls-3" d="M60,54.76v-20s10.63-7.15,10.69-1.34S60,46.42,60,46.42"/><path class="cls-3" d="M64.79,42.63s6.45,21,25.08,6.64"/><path class="cls-4" d="M85.51,34.56a70.25,70.25,0,0,1-8.11,3.33"/><path class="cls-4" d="M87.51,25.78s-6.6,2.29-9.32,4.08a49.53,49.53,0,0,0-.79,8c0,3.9-.46,8,1,8s9.11-4.19,9.11-4.19"/><path class="cls-3" d="M94.05,23.1a133.78,133.78,0,0,1,.79,21.23c5.5-7.21,7.88-18.53,7.88-18.53S105,38.64,109.5,44.33c0,0,1.07-19,2.78-25.29"/></g></g></svg>