<svg id="Layer_1" data-name="Layer 1" xmlns="http://www.w3.org/2000/svg" xmlns:xlink="http://www.w3.org/1999/xlink" viewBox="0 0 324.204 324.223"><defs><pattern id="USGS_22_Gravel_Beach_4" data-name="USGS 22 Gravel Beach 4" width="72" height="72" patternTransform="matrix(0.99, 0, 0, -0.99, -122.223, 884.078)" patternUnits="userSpaceOnUse" viewBox="0 0 72 72"><rect width="72" height="72" style="fill:none"/><rect width="72" height="72" style="fill:none"/><path d="M72.25,14a.35.35,0,0,0-.25.6.38.38,0,0,0,.5,0,.35.35,0,0,0-.25-.6Z" style="fill:#17306d"/><path d="M20.75,68.78a.391.391,0,0,0-.25.1.347.347,0,1,0,.6.25.342.342,0,0,0-.35-.35Z" style="fill:#17306d"/><path d="M19.75,63.53a.34.34,0,0,0-.35.33v.02a.332.332,0,0,0,.11.25.369.369,0,0,0,.49,0,.363.363,0,0,0,.1-.25.391.391,0,0,0-.1-.25A.369.369,0,0,0,19.75,63.53Z" style="fill:#17306d"/><path d="M20,61.28a.35.35,0,0,0-.25.6.369.369,0,0,0,.5,0,.35.35,0,0,0-.25-.6Z" style="fill:#17306d"/><path d="M15,61.28a.34.34,0,0,0-.35.33v.02a.369.369,0,0,0,.1.25.38.38,0,0,0,.5,0,.35.35,0,0,0-.25-.6Z" style="fill:#17306d"/><path d="M22.5,51.78a.35.35,0,0,0-.25.6.36.36,0,0,0,.6-.25.34.34,0,0,0-.33-.35Z" style="fill:#17306d"/><path d="M15,48.78a.34.34,0,0,0-.35.33v.02a.332.332,0,0,0,.11.25.369.369,0,0,0,.49,0,.363.363,0,0,0,.1-.25.34.34,0,0,0-.33-.35Z" style="fill:#17306d"/><path d="M13.75,47.78a.35.35,0,0,0-.25.6.36.36,0,0,0,.6-.25.391.391,0,0,0-.1-.25A.369.369,0,0,0,13.75,47.78Z" style="fill:#17306d"/><path d="M23.75,44.78a.34.34,0,0,0-.35.33v.02a.332.332,0,0,0,.11.25.369.369,0,0,0,.49,0,.391.391,0,0,0,.1-.25.348.348,0,0,0-.1-.24A.358.358,0,0,0,23.75,44.78Z" style="fill:#17306d"/><path d="M30.5,46a.35.35,0,0,0-.25.6.36.36,0,0,0,.6-.25.34.34,0,0,0-.33-.35Z" style="fill:#17306d"/><path d="M31,48.53a.34.34,0,0,0-.35.33v.02a.332.332,0,0,0,.11.25.35.35,0,0,0,.59-.25.391.391,0,0,0-.1-.25A.369.369,0,0,0,31,48.53Z" style="fill:#17306d"/><path d="M29,53.53a.35.35,0,0,0-.25.6.36.36,0,0,0,.6-.25.34.34,0,0,0-.33-.35Z" style="fill:#17306d"/><path d="M33.75,52a.35.35,0,0,0-.25.6.36.36,0,0,0,.6-.25.34.34,0,0,0-.33-.35Z" style="fill:#17306d"/><path d="M31.25,57a.35.35,0,0,0-.25.6.36.36,0,0,0,.6-.25.34.34,0,0,0-.33-.35Z" style="fill:#17306d"/><path d="M31.5,60a.35.35,0,0,0-.25.6.369.369,0,0,0,.5,0,.35.35,0,0,0-.25-.6Z" style="fill:#17306d"/><path d="M32,64.78a.35.35,0,0,0-.25.6.36.36,0,0,0,.6-.25.34.34,0,0,0-.33-.35Z" style="fill:#17306d"/><path d="M31.75,68.78a.342.342,0,0,0-.35.35.332.332,0,0,0,.11.25.35.35,0,0,0,.59-.25.342.342,0,0,0-.35-.35Z" style="fill:#17306d"/><path d="M33.75,70.53a.358.358,0,0,0-.25.11.339.339,0,0,0,.01.49.345.345,0,0,0,.59-.25.339.339,0,0,0-.11-.25A.348.348,0,0,0,33.75,70.53Z" style="fill:#17306d"/><path d="M41.25,64.78a.391.391,0,0,0-.25.1.354.354,0,0,0-.1.25.391.391,0,0,0,.1.25.351.351,0,0,0,.49,0,.358.358,0,0,0,.11-.25.34.34,0,0,0-.33-.35Z" style="fill:#17306d"/><path d="M45.25,65a.391.391,0,0,0-.25.1.347.347,0,1,0,.6.25.34.34,0,0,0-.33-.35Z" style="fill:#17306d"/><path d="M42.25,58.28a.34.34,0,0,0-.35.33v.02a.332.332,0,0,0,.11.25.35.35,0,0,0,.59-.25.34.34,0,0,0-.33-.35Z" style="fill:#17306d"/><path d="M46.75,57.53a.34.34,0,0,0-.35.33v.02a.332.332,0,0,0,.11.25.361.361,0,0,0,.49,0,.391.391,0,0,0,.1-.25.329.329,0,0,0-.1-.24A.358.358,0,0,0,46.75,57.53Z" style="fill:#17306d"/><path d="M46.75,55.53a.34.34,0,0,0-.35.33v.02a.332.332,0,0,0,.11.25.361.361,0,0,0,.49,0,.391.391,0,0,0,.1-.25.371.371,0,0,0-.1-.24A.358.358,0,0,0,46.75,55.53Z" style="fill:#17306d"/><path d="M38.75,51a.35.35,0,0,0-.25.6.361.361,0,0,0,.49,0,.347.347,0,0,0-.22-.6Z" style="fill:#17306d"/><path d="M50,58.28a.391.391,0,0,0-.25.1.359.359,0,0,0,0,.5.369.369,0,0,0,.5,0,.35.35,0,0,0-.25-.6Z" style="fill:#17306d"/><path d="M52,59.78a.358.358,0,0,0-.25.11.348.348,0,0,0-.1.24.332.332,0,0,0,.11.25.369.369,0,0,0,.49,0,.363.363,0,0,0,.1-.25.34.34,0,0,0-.33-.35Z" style="fill:#17306d"/><path d="M54.5,60.78a.358.358,0,0,0-.25.11.348.348,0,0,0-.1.24.332.332,0,0,0,.11.25.35.35,0,0,0,.59-.25.34.34,0,0,0-.33-.35Z" style="fill:#17306d"/><path d="M56.25,71a.376.376,0,0,0-.25.63.359.359,0,0,0,.5,0,.348.348,0,0,0,.1-.24.417.417,0,0,0-.35-.39Z" style="fill:#17306d"/><path d="M67.75,68.78a.342.342,0,0,0-.35.35.332.332,0,0,0,.11.25.369.369,0,0,0,.49,0,.363.363,0,0,0,.1-.25.391.391,0,0,0-.1-.25A.369.369,0,0,0,67.75,68.78Z" style="fill:#17306d"/><path d="M67.75,61.53a.358.358,0,0,0-.25.11.348.348,0,0,0-.1.24.391.391,0,0,0,.1.25.369.369,0,0,0,.5,0,.391.391,0,0,0,.1-.25.339.339,0,0,0-.11-.25A.348.348,0,0,0,67.75,61.53Z" style="fill:#17306d"/><path d="M64,59.53a.35.35,0,0,0-.25.6.36.36,0,0,0,.6-.25.34.34,0,0,0-.33-.35Z" style="fill:#17306d"/><path d="M65,56a.34.34,0,0,0-.35.33v.02a.369.369,0,0,0,.1.25.38.38,0,0,0,.5,0A.35.35,0,0,0,65,56Z" style="fill:#17306d"/><path d="M63.75,52a.358.358,0,0,0-.25.11.348.348,0,0,0-.1.24.391.391,0,0,0,.1.25.369.369,0,0,0,.5,0,.391.391,0,0,0,.1-.25.339.339,0,0,0-.11-.25A.348.348,0,0,0,63.75,52Z" style="fill:#17306d"/><path d="M66,52a.34.34,0,0,0-.35.33v.02a.332.332,0,0,0,.11.25.369.369,0,0,0,.49,0,.363.363,0,0,0,.1-.25.34.34,0,0,0-.33-.35Z" style="fill:#17306d"/><path d="M67.75,50.53a.35.35,0,0,0-.25.6.369.369,0,0,0,.5,0,.35.35,0,0,0-.25-.6Z" style="fill:#17306d"/><path d="M6.75,19.53a.35.35,0,0,0-.25.6.38.38,0,0,0,.5,0,.35.35,0,0,0-.25-.6Z" style="fill:#17306d"/><path d="M7,17.28a.35.35,0,0,0-.25.6.369.369,0,0,0,.5,0,.35.35,0,0,0-.25-.6Z" style="fill:#17306d"/><path d="M2,17.28a.391.391,0,0,0-.25.1.359.359,0,0,0,0,.5.38.38,0,0,0,.5,0,.359.359,0,0,0,0-.5A.391.391,0,0,0,2,17.28Z" style="fill:#17306d"/><path d="M9.5,7.78a.35.35,0,0,0-.25.6.36.36,0,0,0,.6-.25.34.34,0,0,0-.33-.35Z" style="fill:#17306d"/><path d="M.75,3.78a.391.391,0,0,0-.25.1.359.359,0,0,0,0,.5.38.38,0,0,0,.5,0,.359.359,0,0,0,0-.5A.391.391,0,0,0,.75,3.78Z" style="fill:#17306d"/><path d="M10.75.78a.35.35,0,0,0-.25.6.38.38,0,0,0,.5,0,.35.35,0,0,0-.25-.6Z" style="fill:#17306d"/><path d="M18,4.53a.34.34,0,0,0-.35.33v.02a.345.345,0,0,0,.59.25.358.358,0,0,0,.11-.25.34.34,0,0,0-.33-.35Z" style="fill:#17306d"/><path d="M16,9.53a.35.35,0,0,0-.25.6.369.369,0,0,0,.5,0,.35.35,0,0,0-.25-.6Z" style="fill:#17306d"/><path d="M19.25,14a.34.34,0,0,0-.35.33v.02a.332.332,0,0,0,.11.25.369.369,0,0,0,.49,0,.363.363,0,0,0,.1-.25.34.34,0,0,0-.33-.35Z" style="fill:#17306d"/><path d="M18.5,16a.34.34,0,0,0-.35.33v.02a.332.332,0,0,0,.11.25.369.369,0,0,0,.49,0,.363.363,0,0,0,.1-.25.34.34,0,0,0-.33-.35Z" style="fill:#17306d"/><path d="M16,17a.34.34,0,0,0-.35.33v.02a.332.332,0,0,0,.11.25.369.369,0,0,0,.49,0,.363.363,0,0,0,.1-.25.34.34,0,0,0-.33-.35Z" style="fill:#17306d"/><path d="M19,20.78a.34.34,0,0,0-.35.33v.02a.332.332,0,0,0,.11.25.369.369,0,0,0,.49,0,.363.363,0,0,0,.1-.25.34.34,0,0,0-.33-.35Z" style="fill:#17306d"/><path d="M18.75,24.78a.35.35,0,0,0-.25.6.38.38,0,0,0,.5,0,.35.35,0,0,0-.25-.6Z" style="fill:#17306d"/><path d="M16,24.53a.35.35,0,0,0-.25.6.369.369,0,0,0,.5,0,.35.35,0,0,0-.25-.6Z" style="fill:#17306d"/><path d="M32.25,21a.34.34,0,0,0-.35.33v.02a.332.332,0,0,0,.11.25.35.35,0,0,0,.59-.25.34.34,0,0,0-.33-.35Z" style="fill:#17306d"/><path d="M27,17.53a.35.35,0,0,0-.25.6.369.369,0,0,0,.5,0,.35.35,0,0,0-.25-.6Z" style="fill:#17306d"/><path d="M31.75,16a.35.35,0,0,0-.25.6.369.369,0,0,0,.5,0,.35.35,0,0,0-.25-.6Z" style="fill:#17306d"/><path d="M31.75,14.28a.35.35,0,0,0-.245.6l.005.005a.369.369,0,0,0,.5,0,.363.363,0,0,0,.1-.25.34.34,0,0,0-.33-.35h-.03Z" style="fill:#17306d"/><path d="M33.75,13.53a.35.35,0,0,0-.25.6.369.369,0,0,0,.5,0,.35.35,0,0,0-.25-.6Z" style="fill:#17306d"/><path d="M25.75,7a.35.35,0,0,0-.25.6.36.36,0,0,0,.6-.25A.34.34,0,0,0,25.77,7Z" style="fill:#17306d"/><path d="M35.75,15.53a.35.35,0,0,0-.25.6.36.36,0,0,0,.6-.25.34.34,0,0,0-.33-.35Z" style="fill:#17306d"/><path d="M39,15.78a.348.348,0,0,0-.24.1.358.358,0,0,0-.11.25.391.391,0,0,0,.1.25.369.369,0,0,0,.5,0,.35.35,0,0,0-.25-.6Z" style="fill:#17306d"/><path d="M41.5,21a.35.35,0,0,0-.25.6.369.369,0,0,0,.5,0,.35.35,0,0,0-.25-.6Z" style="fill:#17306d"/><path d="M43.25,27a.358.358,0,0,0-.25.11.348.348,0,0,0-.1.24.391.391,0,0,0,.1.25.369.369,0,0,0,.5,0,.35.35,0,0,0-.25-.6Z" style="fill:#17306d"/><path d="M50.75,21.28a.391.391,0,0,0-.25.1.363.363,0,0,0-.1.25.391.391,0,0,0,.1.25.359.359,0,0,0,.5,0,.35.35,0,0,0-.25-.6Z" style="fill:#17306d"/><path d="M51.75,25.28a.358.358,0,0,0-.25.11.348.348,0,0,0-.1.24.332.332,0,0,0,.11.25.369.369,0,0,0,.49,0,.363.363,0,0,0,.1-.25.34.34,0,0,0-.33-.35Z" style="fill:#17306d"/><path d="M54.75,24.78a.332.332,0,0,0-.25.11.348.348,0,0,0-.1.24.369.369,0,0,0,.1.25.361.361,0,0,0,.49,0,.347.347,0,0,0-.22-.6Z" style="fill:#17306d"/><path d="M54.75,17.53a.332.332,0,0,0-.25.11.348.348,0,0,0-.1.24.332.332,0,0,0,.11.25.369.369,0,0,0,.49,0,.363.363,0,0,0,.1-.25.34.34,0,0,0-.33-.35Z" style="fill:#17306d"/><path d="M51,15.53a.35.35,0,0,0-.25.6.369.369,0,0,0,.5,0,.354.354,0,0,0,.1-.25.391.391,0,0,0-.1-.25A.369.369,0,0,0,51,15.53Z" style="fill:#17306d"/><path d="M50.75,8a.34.34,0,0,0-.35.33v.02a.31.31,0,0,0,.1.24.341.341,0,0,0,.481.009l.009-.009a.358.358,0,0,0,.11-.25.391.391,0,0,0-.1-.25A.368.368,0,0,0,50.75,8Z" style="fill:#17306d"/><path d="M53,8a.34.34,0,0,0-.35.33v.02a.332.332,0,0,0,.11.25.361.361,0,0,0,.49,0,.31.31,0,0,0,.1-.24A.341.341,0,0,0,53.031,8Z" style="fill:#17306d"/><path d="M55.75,8.78a.35.35,0,0,0-.25.6.36.36,0,0,0,.6-.25.34.34,0,0,0-.33-.35Z" style="fill:#17306d"/><path d="M58,10.28a.358.358,0,0,0-.25.11.348.348,0,0,0-.1.24.391.391,0,0,0,.1.25.35.35,0,0,0,.6-.25.34.34,0,0,0-.33-.35Z" style="fill:#17306d"/><path d="M20.75,44.78a.35.35,0,0,0-.25.6.36.36,0,0,0,.6-.25.34.34,0,0,0-.33-.35Z" style="fill:#17306d"/><path d="M22.5,47.78a.35.35,0,0,0-.25.6.369.369,0,0,0,.5,0,.35.35,0,0,0-.25-.6Z" style="fill:#17306d"/><path d="M38.75,47a.35.35,0,0,0-.25.6.369.369,0,0,0,.5,0,.35.35,0,0,0-.25-.6Z" style="fill:#17306d"/><path d="M46,42.78a.391.391,0,0,0-.25.1.351.351,0,0,0,0,.49.341.341,0,0,0,.481.009l.009-.009a.358.358,0,0,0,.11-.25.34.34,0,0,0-.33-.35H46Z" style="fill:#17306d"/><path d="M55,43.78a.35.35,0,0,0-.25.6.369.369,0,0,0,.5,0,.35.35,0,0,0-.25-.6Z" style="fill:#17306d"/><path d="M51,46.53a.35.35,0,0,0-.25.6.369.369,0,0,0,.5,0,.354.354,0,0,0,.1-.25.34.34,0,0,0-.33-.35Z" style="fill:#17306d"/><path d="M51.75,42.28a.369.369,0,0,0-.25.1.347.347,0,1,0,.6.25.34.34,0,0,0-.33-.35Z" style="fill:#17306d"/><path d="M62.25,36.28a.34.34,0,0,0-.35.33v.02a.332.332,0,0,0,.11.25.361.361,0,0,0,.49,0,.31.31,0,0,0,.1-.24.34.34,0,0,0-.33-.35h-.02Z" style="fill:#17306d"/><path d="M56.5,32.78a.35.35,0,0,0-.25.6.36.36,0,0,0,.6-.25.34.34,0,0,0-.33-.35Z" style="fill:#17306d"/><path d="M48,34.53a.348.348,0,0,0-.24.1.358.358,0,0,0-.11.25.391.391,0,0,0,.1.25.359.359,0,0,0,.5,0,.329.329,0,0,0,.1-.24.34.34,0,0,0-.33-.35H48Z" style="fill:#17306d"/><path d="M47.75,30.53a.332.332,0,0,0-.25.11.348.348,0,0,0-.1.24.391.391,0,0,0,.1.25.38.38,0,0,0,.5,0,.35.35,0,0,0-.25-.6Z" style="fill:#17306d"/><path d="M53.25,26.78a.339.339,0,0,0-.25.11.31.31,0,0,0-.1.24.339.339,0,0,0,.11.25.369.369,0,0,0,.49,0,.35.35,0,0,0-.25-.6Z" style="fill:#17306d"/><path d="M62,23.78a.34.34,0,0,0-.35.33v.02a.332.332,0,0,0,.11.25.361.361,0,0,0,.49,0,.31.31,0,0,0,.1-.24.34.34,0,0,0-.33-.35H62Z" style="fill:#17306d"/><path d="M64.75,20a.34.34,0,0,0-.35.33v.02a.332.332,0,0,0,.11.25.369.369,0,0,0,.49,0,.363.363,0,0,0,.1-.25.34.34,0,0,0-.33-.35Z" style="fill:#17306d"/><path d="M69.25,26.78a.35.35,0,0,0-.25.6.369.369,0,0,0,.5,0,.35.35,0,0,0-.25-.6Z" style="fill:#17306d"/><path d="M59.75,32.78a.332.332,0,0,0-.25.11.348.348,0,0,0-.1.24.339.339,0,0,0,.11.25.35.35,0,0,0,.49-.5A.369.369,0,0,0,59.75,32.78Z" style="fill:#17306d"/><path d="M32.25,24.78a.35.35,0,0,0-.25.6.36.36,0,0,0,.6-.25.34.34,0,0,0-.33-.35Z" style="fill:#17306d"/><path d="M26,34a.35.35,0,0,0-.25.6.36.36,0,0,0,.6-.25.34.34,0,0,0-.33-.35Z" style="fill:#17306d"/><path d="M29.5,36.28a.348.348,0,0,0-.24.1.358.358,0,0,0-.11.25.332.332,0,0,0,.11.25.369.369,0,0,0,.49,0,.363.363,0,0,0,.1-.25.34.34,0,0,0-.33-.35Z" style="fill:#17306d"/><path d="M10.25,42.28a.35.35,0,0,0-.25.6.369.369,0,0,0,.49,0,.332.332,0,0,0,.11-.25.34.34,0,0,0-.33-.35Z" style="fill:#17306d"/><path d="M5.75,40.28a.35.35,0,0,0-.25.6.361.361,0,0,0,.49,0,.332.332,0,0,0,.11-.25.369.369,0,0,0-.1-.25A.391.391,0,0,0,5.75,40.28Z" style="fill:#17306d"/><path d="M2.25,36.53a.391.391,0,0,0-.25.1.359.359,0,0,0,0,.5.369.369,0,0,0,.5,0,.354.354,0,0,0,.1-.25.329.329,0,0,0-.1-.24A.358.358,0,0,0,2.25,36.53Z" style="fill:#17306d"/><path d="M16.75,29.78a.34.34,0,0,0-.35.33v.02a.332.332,0,0,0,.11.25.35.35,0,0,0,.59-.25.391.391,0,0,0-.1-.25A.369.369,0,0,0,16.75,29.78Z" style="fill:#17306d"/><path d="M12.5,35.78a.34.34,0,0,0-.35.33v.02a.332.332,0,0,0,.11.25.369.369,0,0,0,.49,0,.363.363,0,0,0,.1-.25.391.391,0,0,0-.1-.25A.369.369,0,0,0,12.5,35.78Z" style="fill:#17306d"/><path d="M26.25,41.53a.35.35,0,0,0-.25.6.369.369,0,0,0,.5,0,.35.35,0,0,0-.25-.6Z" style="fill:#17306d"/><path d="M39,41a.35.35,0,0,0-.25.6.369.369,0,0,0,.5,0,.359.359,0,0,0,0-.5A.369.369,0,0,0,39,41Z" style="fill:#17306d"/><path d="M38,39a.35.35,0,0,0-.25.6.369.369,0,0,0,.5,0A.35.35,0,0,0,38,39Z" style="fill:#17306d"/><path d="M27.75,29.78a.35.35,0,0,0-.25.6.369.369,0,0,0,.5,0,.35.35,0,0,0-.25-.6Z" style="fill:#17306d"/><path d="M6.25,51.28a.35.35,0,0,0-.25.6.369.369,0,0,0,.5,0,.35.35,0,0,0-.25-.6Z" style="fill:#17306d"/><path d="M9.5,53a.35.35,0,0,0-.25.6.36.36,0,0,0,.6-.25A.34.34,0,0,0,9.52,53Z" style="fill:#17306d"/><path d="M11.5,48.28a.34.34,0,0,0-.35.33v.02a.332.332,0,0,0,.11.25.369.369,0,0,0,.49,0,.363.363,0,0,0,.1-.25.391.391,0,0,0-.1-.25A.369.369,0,0,0,11.5,48.28Z" style="fill:#17306d"/><path d="M2.75,46a.391.391,0,0,0-.25.1.359.359,0,0,0,0,.5.38.38,0,0,0,.5,0,.359.359,0,0,0,0-.5A.391.391,0,0,0,2.75,46Z" style="fill:#17306d"/><path d="M64,42.28a.348.348,0,0,0-.24.1.358.358,0,0,0-.11.25.391.391,0,0,0,.1.25.36.36,0,0,0,.6-.25.34.34,0,0,0-.33-.35Z" style="fill:#17306d"/><path d="M69.25,42a.34.34,0,0,0-.35.33v.02a.339.339,0,0,0,.11.25.369.369,0,0,0,.49,0,.363.363,0,0,0,.1-.25.391.391,0,0,0-.1-.25A.369.369,0,0,0,69.25,42Z" style="fill:#17306d"/><path d="M1.25,62.78a.391.391,0,0,0-.25.1.359.359,0,0,0,0,.5.38.38,0,0,0,.5,0,.359.359,0,0,0,0-.5A.391.391,0,0,0,1.25,62.78Z" style="fill:#17306d"/><path d="M16.25,65.78a.34.34,0,0,0-.35.33v.02a.369.369,0,0,0,.1.25.38.38,0,0,0,.5,0,.35.35,0,0,0-.25-.6Z" style="fill:#17306d"/><path d="M3.5,65.78a.35.35,0,0,0-.25.6.36.36,0,0,0,.6-.25.34.34,0,0,0-.33-.35Z" style="fill:#17306d"/><path d="M12.5,57.53a.35.35,0,0,0-.25.6.36.36,0,0,0,.6-.25.34.34,0,0,0-.33-.35Z" style="fill:#17306d"/><path d="M18.25,52.53a.34.34,0,0,0-.35.33v.02a.369.369,0,0,0,.1.25.36.36,0,0,0,.6-.25.34.34,0,0,0-.33-.35Z" style="fill:#17306d"/><path d="M21,34.78a.34.34,0,0,0-.35.33v.02a.345.345,0,0,0,.59.25.358.358,0,0,0,.11-.25.34.34,0,0,0-.33-.35Z" style="fill:#17306d"/><path d="M.5,27.53a.391.391,0,0,0-.25.1.391.391,0,0,0-.1.25.332.332,0,0,0,.11.25.369.369,0,0,0,.49,0,.363.363,0,0,0,.1-.25.391.391,0,0,0-.1-.25A.391.391,0,0,0,.5,27.53Z" style="fill:#17306d"/><path d="M67.75,5.78a.34.34,0,0,0-.35.33v.02a.332.332,0,0,0,.11.25.369.369,0,0,0,.49,0,.363.363,0,0,0,.1-.25.34.34,0,0,0-.33-.35Z" style="fill:#17306d"/><path d="M59.5,2a.391.391,0,0,0-.25.1.354.354,0,0,0-.1.25.391.391,0,0,0,.1.25.369.369,0,0,0,.5,0,.363.363,0,0,0,.1-.25.369.369,0,0,0-.1-.25A.391.391,0,0,0,59.5,2Z" style="fill:#17306d"/><path d="M40.25,3.78a.35.35,0,0,0-.25.6.369.369,0,0,0,.5,0,.359.359,0,0,0,0-.5A.369.369,0,0,0,40.25,3.78Z" style="fill:#17306d"/><path d="M4.25,11.78a.35.35,0,0,0-.25.6.36.36,0,0,0,.6-.25.34.34,0,0,0-.33-.35Z" style="fill:#17306d"/><path d="M26.25,12.28a.35.35,0,0,0-.25.6.36.36,0,0,0,.6-.25.34.34,0,0,0-.33-.35Z" style="fill:#17306d"/><path d="M37,23.28a.34.34,0,0,0-.35.33v.02a.35.35,0,0,0,.6.25.359.359,0,0,0,0-.5A.369.369,0,0,0,37,23.28Z" style="fill:#17306d"/><path d="M8.5,31.53a.35.35,0,0,0-.25.6.36.36,0,0,0,.6-.25.34.34,0,0,0-.33-.35Z" style="fill:#17306d"/><path d="M52,33.78a.358.358,0,0,0-.25.11.348.348,0,0,0-.1.24.332.332,0,0,0,.11.25.369.369,0,0,0,.49,0,.363.363,0,0,0,.1-.25.34.34,0,0,0-.33-.35Z" style="fill:#17306d"/><path d="M60.5,25.78a.34.34,0,0,0-.35.33v.02a.332.332,0,0,0,.11.25.369.369,0,0,0,.49,0,.363.363,0,0,0,.1-.25.34.34,0,0,0-.33-.35Z" style="fill:#17306d"/><path d="M51,5.53a.35.35,0,0,0-.25.6.369.369,0,0,0,.5,0,.391.391,0,0,0,.1-.25.354.354,0,0,0-.1-.25A.391.391,0,0,0,51,5.53Z" style="fill:#17306d"/><path d="M39.75,34a.35.35,0,0,0-.25.6.36.36,0,0,0,.6-.25.34.34,0,0,0-.33-.35Z" style="fill:#17306d"/><path d="M27.25,58.28a.35.35,0,0,0-.25.6.36.36,0,0,0,.6-.25.34.34,0,0,0-.33-.35Z" style="fill:#17306d"/><path d="M19.5,45.28a.34.34,0,0,0-.35.33v.02a.345.345,0,0,0,.59.25.358.358,0,0,0,.11-.25.34.34,0,0,0-.33-.35Z" style="fill:#17306d"/><path d="M11.5,70a.354.354,0,0,0-.25.6.38.38,0,0,0,.5,0,.35.35,0,0,0-.25-.6Z" style="fill:#17306d"/><path d="M55,68a.34.34,0,0,0-.35.33v.02a.332.332,0,0,0,.11.25.369.369,0,0,0,.49,0,.363.363,0,0,0,.1-.25.34.34,0,0,0-.33-.35Z" style="fill:#17306d"/><path d="M47,2a.391.391,0,0,0-.25.1.369.369,0,0,0-.1.25.391.391,0,0,0,.1.25.36.36,0,0,0,.6-.25A.34.34,0,0,0,47.02,2Z" style="fill:#17306d"/><path d="M4.5,31.53a.34.34,0,0,0-.35.33v.02a.332.332,0,0,0,.11.25.369.369,0,0,0,.49,0,.363.363,0,0,0,.1-.25.34.34,0,0,0-.33-.35Z" style="fill:#17306d"/><path d="M68.5,58.53a.35.35,0,0,0-.25.6.369.369,0,0,0,.5,0,.359.359,0,0,0,0-.5A.391.391,0,0,0,68.5,58.53Z" style="fill:#17306d"/><path d="M23,57.78a.35.35,0,0,0-.25.6.36.36,0,0,0,.6-.25.34.34,0,0,0-.33-.35Z" style="fill:#17306d"/><path d="M20.25,54.53a.35.35,0,0,0-.25.6.369.369,0,0,0,.5,0,.35.35,0,0,0-.25-.6Z" style="fill:#17306d"/><path d="M14.5,54.53a.34.34,0,0,0-.35.33v.02a.332.332,0,0,0,.11.25.369.369,0,0,0,.49,0,.363.363,0,0,0,.1-.25.34.34,0,0,0-.33-.35Z" style="fill:#17306d"/><path d="M5.75,60a.35.35,0,0,0-.25.6.361.361,0,0,0,.49,0,.332.332,0,0,0,.11-.25A.34.34,0,0,0,5.77,60Z" style="fill:#17306d"/><path d="M6.75,69a.371.371,0,0,0-.24.1.358.358,0,0,0-.11.25.391.391,0,0,0,.1.25.36.36,0,0,0,.6-.25A.342.342,0,0,0,6.75,69Z" style="fill:#17306d"/><path d="M9.75,63.53a.35.35,0,0,0-.25.6.36.36,0,0,0,.6-.25.34.34,0,0,0-.33-.35Z" style="fill:#17306d"/><path d="M14,63.53a.34.34,0,0,0-.35.33v.02a.332.332,0,0,0,.11.25.369.369,0,0,0,.49,0,.363.363,0,0,0,.1-.25.34.34,0,0,0-.33-.35Z" style="fill:#17306d"/><path d="M25.5,64.78a.35.35,0,0,0-.25.6.36.36,0,0,0,.6-.25.34.34,0,0,0-.33-.35Z" style="fill:#17306d"/><path d="M36.75,64.28a.35.35,0,0,0-.25.6.369.369,0,0,0,.5,0,.35.35,0,0,0-.25-.6Z" style="fill:#17306d"/><path d="M37.25,67.53a.34.34,0,0,0-.35.33v.02a.329.329,0,0,0,.1.25.35.35,0,0,0,.59-.25.34.34,0,0,0-.33-.35h-.01Z" style="fill:#17306d"/><path d="M43,69.53a.354.354,0,0,0-.25.6.369.369,0,0,0,.5,0,.362.362,0,0,0,0-.5A.419.419,0,0,0,43,69.53Z" style="fill:#17306d"/><path d="M49.25,63.53a.391.391,0,0,0-.25.1.359.359,0,0,0,0,.5.369.369,0,0,0,.5,0,.35.35,0,0,0-.25-.6Z" style="fill:#17306d"/><path d="M45.75,62.53a.35.35,0,0,0-.25.6.369.369,0,0,0,.5,0,.359.359,0,0,0,0-.5A.369.369,0,0,0,45.75,62.53Z" style="fill:#17306d"/><path d="M35.5,60.78a.34.34,0,0,0-.35.33v.02a.369.369,0,0,0,.1.25.36.36,0,0,0,.6-.25.34.34,0,0,0-.33-.35Z" style="fill:#17306d"/><path d="M39,56.78a.35.35,0,0,0-.25.6.36.36,0,0,0,.6-.25.34.34,0,0,0-.33-.35Z" style="fill:#17306d"/><path d="M24.5,53.78a.35.35,0,0,0-.25.6.36.36,0,0,0,.6-.25.34.34,0,0,0-.33-.35Z" style="fill:#17306d"/><path d="M8,44.53a.35.35,0,0,0-.25.6.36.36,0,0,0,.6-.25.34.34,0,0,0-.33-.35Z" style="fill:#17306d"/><path d="M15.75,40a.35.35,0,0,0-.25.6.38.38,0,0,0,.5,0,.35.35,0,0,0-.25-.6Z" style="fill:#17306d"/><path d="M10.25,38.28a.34.34,0,0,0-.35.33v.02a.332.332,0,0,0,.11.25.369.369,0,0,0,.49,0,.363.363,0,0,0,.1-.25.369.369,0,0,0-.1-.25A.391.391,0,0,0,10.25,38.28Z" style="fill:#17306d"/><path d="M5,34.78a.35.35,0,0,0-.25.6.38.38,0,0,0,.5,0,.369.369,0,0,0,.1-.25.34.34,0,0,0-.33-.35Z" style="fill:#17306d"/><path d="M3,51.28a.391.391,0,0,0-.25.1.359.359,0,0,0,0,.5.38.38,0,0,0,.5,0,.359.359,0,0,0,0-.5A.391.391,0,0,0,3,51.28Z" style="fill:#17306d"/><path d="M20.25,41a.34.34,0,0,0-.35.33v.02a.332.332,0,0,0,.11.25.35.35,0,0,0,.59-.25.34.34,0,0,0-.33-.35Z" style="fill:#17306d"/><path d="M17.25,36.28a.35.35,0,0,0-.25.6.369.369,0,0,0,.5,0,.35.35,0,0,0-.25-.6Z" style="fill:#17306d"/><path d="M15.75,32.78a.34.34,0,0,0-.35.33v.02a.332.332,0,0,0,.11.25.369.369,0,0,0,.49,0,.363.363,0,0,0,.1-.25.391.391,0,0,0-.1-.25A.369.369,0,0,0,15.75,32.78Z" style="fill:#17306d"/><path d="M12.5,30.53a.34.34,0,0,0-.35.33v.02a.332.332,0,0,0,.11.25.369.369,0,0,0,.49,0,.363.363,0,0,0,.1-.25.34.34,0,0,0-.33-.35Z" style="fill:#17306d"/><path d="M12.5,25.28a.34.34,0,0,0-.35.33v.02a.332.332,0,0,0,.11.25.369.369,0,0,0,.49,0,.363.363,0,0,0,.1-.25.34.34,0,0,0-.33-.35Z" style="fill:#17306d"/><path d="M5.5,23.28a.35.35,0,0,0-.25.6.38.38,0,0,0,.5,0,.35.35,0,0,0-.25-.6Z" style="fill:#17306d"/><path d="M10.75,17.28a.35.35,0,0,0-.25.6.38.38,0,0,0,.5,0,.35.35,0,0,0-.25-.6Z" style="fill:#17306d"/><path d="M15.25,13.28a.35.35,0,0,0-.25.6.369.369,0,0,0,.5,0,.35.35,0,0,0-.25-.6Z" style="fill:#17306d"/><path d="M5.75,8.28a.35.35,0,0,0-.25.6.38.38,0,0,0,.5,0,.363.363,0,0,0,.1-.25.34.34,0,0,0-.33-.35Z" style="fill:#17306d"/><path d="M2,9.78a.391.391,0,0,0-.25.1.359.359,0,0,0,0,.5.369.369,0,0,0,.49,0,.339.339,0,0,0,.11-.25.391.391,0,0,0-.1-.25A.391.391,0,0,0,2,9.78Z" style="fill:#17306d"/><path d="M8.75,3.78a.35.35,0,0,0-.25.6.36.36,0,0,0,.6-.25A.391.391,0,0,0,9,3.88.369.369,0,0,0,8.75,3.78Z" style="fill:#17306d"/><path d="M13.25,2.28a.35.35,0,0,0-.25.6.38.38,0,0,0,.5,0,.35.35,0,0,0-.25-.6Z" style="fill:#17306d"/><path d="M21.25,3.28a.34.34,0,0,0-.35.33v.02a.332.332,0,0,0,.11.25.35.35,0,0,0,.59-.25.34.34,0,0,0-.33-.35Z" style="fill:#17306d"/><path d="M22.75,6a.35.35,0,0,0-.25.6.369.369,0,0,0,.5,0,.359.359,0,0,0,0-.5A.369.369,0,0,0,22.75,6Z" style="fill:#17306d"/><path d="M22,11.78a.35.35,0,0,0-.25.6.38.38,0,0,0,.5,0,.359.359,0,0,0,0-.5A.369.369,0,0,0,22,11.78Z" style="fill:#17306d"/><path d="M24,14.28a.34.34,0,0,0-.35.33v.02a.369.369,0,0,0,.1.25.38.38,0,0,0,.5,0,.369.369,0,0,0,.1-.25.391.391,0,0,0-.1-.25A.369.369,0,0,0,24,14.28Z" style="fill:#17306d"/><path d="M26,24a.35.35,0,0,0-.25.6.369.369,0,0,0,.5,0A.35.35,0,0,0,26,24Z" style="fill:#17306d"/><path d="M25.5,28.28a.35.35,0,0,0-.25.6.369.369,0,0,0,.5,0,.35.35,0,0,0-.25-.6Z" style="fill:#17306d"/><path d="M32,40.78a.34.34,0,0,0-.35.33v.02a.332.332,0,0,0,.11.25.35.35,0,0,0,.59-.25.34.34,0,0,0-.33-.35Z" style="fill:#17306d"/><path d="M34,44a.34.34,0,0,0-.35.33v.02a.354.354,0,0,0,.1.25.369.369,0,0,0,.5,0,.359.359,0,0,0,0-.5A.369.369,0,0,0,34,44Z" style="fill:#17306d"/><path d="M41.5,46a.35.35,0,0,0-.25.6.369.369,0,0,0,.5,0,.35.35,0,0,0-.25-.6Z" style="fill:#17306d"/><path d="M42.75,51a.358.358,0,0,0-.25.11.329.329,0,0,0-.1.24.391.391,0,0,0,.1.25.369.369,0,0,0,.5,0,.391.391,0,0,0,.1-.25.339.339,0,0,0-.11-.25A.348.348,0,0,0,42.75,51Z" style="fill:#17306d"/><path d="M36.25,52.53a.391.391,0,0,0-.25.1.363.363,0,0,0-.1.25.31.31,0,0,0,.1.24.35.35,0,0,0,.495.005l.005-.005a.35.35,0,0,0-.25-.6Z" style="fill:#17306d"/><path d="M27.5,49.53a.35.35,0,0,0-.25.6.369.369,0,0,0,.5,0,.35.35,0,0,0-.25-.6Z" style="fill:#17306d"/><path d="M51.75,49.78a.332.332,0,0,0-.25.11.348.348,0,0,0-.1.24.391.391,0,0,0,.1.25.36.36,0,0,0,.6-.25.391.391,0,0,0-.1-.25A.369.369,0,0,0,51.75,49.78Z" style="fill:#17306d"/><path d="M43,54a.369.369,0,0,0-.25.1.359.359,0,0,0,0,.5.38.38,0,0,0,.5,0A.35.35,0,0,0,43,54Z" style="fill:#17306d"/><path d="M50.25,53.78a.369.369,0,0,0-.25.1.347.347,0,1,0,.6.25.34.34,0,0,0-.33-.35Z" style="fill:#17306d"/><path d="M59.25,54.53a.34.34,0,0,0-.35.33v.02a.332.332,0,0,0,.11.25.369.369,0,0,0,.49,0,.363.363,0,0,0,.1-.25.34.34,0,0,0-.33-.35Z" style="fill:#17306d"/><path d="M58,57.78a.369.369,0,0,0-.25.1.347.347,0,1,0,.6.25.34.34,0,0,0-.33-.35Z" style="fill:#17306d"/><path d="M61.25,60.78a.34.34,0,0,0-.35.33v.02a.332.332,0,0,0,.11.25.361.361,0,0,0,.49,0,.31.31,0,0,0,.1-.24.34.34,0,0,0-.33-.35h-.02Z" style="fill:#17306d"/><path d="M58.5,64.28a.391.391,0,0,0-.25.1.354.354,0,0,0-.1.25.31.31,0,0,0,.1.24.35.35,0,0,0,.6-.24.34.34,0,0,0-.33-.35Z" style="fill:#17306d"/><path d="M59.75,67a.339.339,0,0,0-.25.11.348.348,0,0,0-.1.24.332.332,0,0,0,.11.25.369.369,0,0,0,.49,0,.363.363,0,0,0,.1-.25.34.34,0,0,0-.33-.35Z" style="fill:#17306d"/><path d="M67.25,65.78a.391.391,0,0,0-.25.1.363.363,0,0,0-.1.25.369.369,0,0,0,.1.25.38.38,0,0,0,.5,0,.35.35,0,0,0-.25-.6Z" style="fill:#17306d"/><path d="M70.5,63.28a.391.391,0,0,0-.25.1.363.363,0,0,0-.1.25.345.345,0,0,0,.59.25.358.358,0,0,0,.11-.25.34.34,0,0,0-.33-.35Z" style="fill:#17306d"/><path d="M65.5,62a.34.34,0,0,0-.35.33v.02a.369.369,0,0,0,.1.25.38.38,0,0,0,.5,0,.35.35,0,0,0-.25-.6Z" style="fill:#17306d"/><path d="M60,48a.35.35,0,0,0-.25.6.369.369,0,0,0,.5,0A.35.35,0,0,0,60,48Z" style="fill:#17306d"/><path d="M55.25,48a.35.35,0,0,0-.25.6.38.38,0,0,0,.5,0,.35.35,0,0,0-.25-.6Z" style="fill:#17306d"/><path d="M55.25,53a.339.339,0,0,0-.25.11.348.348,0,0,0-.1.24.332.332,0,0,0,.11.25.369.369,0,0,0,.49,0,.363.363,0,0,0,.1-.25.34.34,0,0,0-.33-.35Z" style="fill:#17306d"/><path d="M64.75,46a.34.34,0,0,0-.35.33v.02a.332.332,0,0,0,.11.25.369.369,0,0,0,.49,0,.363.363,0,0,0,.1-.25.34.34,0,0,0-.33-.35Z" style="fill:#17306d"/><path d="M57.5,41a.332.332,0,0,0-.25.11.348.348,0,0,0-.1.24.332.332,0,0,0,.11.25.369.369,0,0,0,.49,0,.363.363,0,0,0,.1-.25.34.34,0,0,0-.33-.35Z" style="fill:#17306d"/><path d="M52.5,39a.358.358,0,0,0-.25.11.348.348,0,0,0-.1.24.332.332,0,0,0,.11.25.369.369,0,0,0,.49,0,.363.363,0,0,0,.1-.25.34.34,0,0,0-.33-.35Z" style="fill:#17306d"/><path d="M47.25,38a.358.358,0,0,0-.25.11.348.348,0,0,0-.1.24.332.332,0,0,0,.11.25.369.369,0,0,0,.49,0,.363.363,0,0,0,.1-.25.34.34,0,0,0-.33-.35Z" style="fill:#17306d"/><path d="M44,32.53a.358.358,0,0,0-.25.11.348.348,0,0,0-.1.24.391.391,0,0,0,.1.25.35.35,0,0,0,.6-.25.332.332,0,0,0-.11-.25A.348.348,0,0,0,44,32.53Z" style="fill:#17306d"/><path d="M33.75,30.28a.35.35,0,0,0-.25.6.369.369,0,0,0,.5,0,.35.35,0,0,0-.25-.6Z" style="fill:#17306d"/><path d="M40.5,23.78a.35.35,0,0,0-.25.6.361.361,0,0,0,.49,0,.347.347,0,0,0-.22-.6Z" style="fill:#17306d"/><path d="M45.5,19.53a.34.34,0,0,0-.35.33v.02a.332.332,0,0,0,.11.25.35.35,0,0,0,.59-.25.34.34,0,0,0-.33-.35Z" style="fill:#17306d"/><path d="M46.25,15a.35.35,0,1,0,.24.6.358.358,0,0,0,.11-.25.34.34,0,0,0-.33-.35Z" style="fill:#17306d"/><path d="M41.75,12.28a.348.348,0,0,0-.24.1.358.358,0,0,0-.11.25.391.391,0,0,0,.1.25.369.369,0,0,0,.5,0,.35.35,0,0,0-.25-.6Z" style="fill:#17306d"/><path d="M39.75,9a.35.35,0,0,0-.25.6.369.369,0,0,0,.5,0,.359.359,0,0,0,0-.5A.369.369,0,0,0,39.75,9Z" style="fill:#17306d"/><path d="M35.75,9a.34.34,0,0,0-.35.33v.02a.332.332,0,0,0,.11.25.35.35,0,0,0,.59-.25A.34.34,0,0,0,35.77,9Z" style="fill:#17306d"/><path d="M36.25,19a.391.391,0,0,0-.25.1.354.354,0,0,0-.1.25.391.391,0,0,0,.1.25.359.359,0,0,0,.5,0,.31.31,0,0,0,.1-.24.34.34,0,0,0-.33-.35h-.02Z" style="fill:#17306d"/><path d="M29.75,8.28a.348.348,0,0,0-.24.1.358.358,0,0,0-.11.25.332.332,0,0,0,.11.25.369.369,0,0,0,.49,0,.363.363,0,0,0,.1-.25.34.34,0,0,0-.33-.35Z" style="fill:#17306d"/><path d="M31.25,3.28a.35.35,0,0,0-.25.6.369.369,0,0,0,.5,0,.35.35,0,0,0-.25-.6Z" style="fill:#17306d"/><path d="M36.75.78a.391.391,0,0,0-.25.1.369.369,0,0,0-.1.25.332.332,0,0,0,.11.25.369.369,0,0,0,.49,0,.363.363,0,0,0,.1-.25A.369.369,0,0,0,37,.88.391.391,0,0,0,36.75.78Z" style="fill:#17306d"/><path d="M62.75,14.78a.34.34,0,0,0-.35.33v.02a.332.332,0,0,0,.11.25.369.369,0,0,0,.49,0,.363.363,0,0,0,.1-.25.34.34,0,0,0-.33-.35Z" style="fill:#17306d"/><path d="M59.75,21a.332.332,0,0,0-.25.11.347.347,0,0,0,.49.49.358.358,0,0,0,.11-.25.391.391,0,0,0-.1-.25A.369.369,0,0,0,59.75,21Z" style="fill:#17306d"/><path d="M54.25,21.28a.391.391,0,0,0-.25.1.369.369,0,0,0-.1.25.35.35,0,1,0,.6-.24A.339.339,0,0,0,54.25,21.28Z" style="fill:#17306d"/><path d="M54.5,30a.358.358,0,0,0-.25.11.329.329,0,0,0-.1.24.391.391,0,0,0,.1.25.369.369,0,0,0,.5,0,.391.391,0,0,0,.1-.25.339.339,0,0,0-.11-.25A.348.348,0,0,0,54.5,30Z" style="fill:#17306d"/><path d="M62.25,29.53a.35.35,0,0,0-.25.6.369.369,0,0,0,.5,0,.35.35,0,0,0-.25-.6Z" style="fill:#17306d"/><path d="M66.75,24.28a.348.348,0,0,0-.24.1.358.358,0,0,0-.11.25.391.391,0,0,0,.1.25.361.361,0,0,0,.49,0,.319.319,0,0,0,.11-.25.34.34,0,0,0-.33-.35Z" style="fill:#17306d"/><path d="M69.25,17.53a.348.348,0,0,0-.24.1.358.358,0,0,0-.11.25.391.391,0,0,0,.1.25.36.36,0,0,0,.6-.25.34.34,0,0,0-.33-.35Z" style="fill:#17306d"/><path d="M63.25,10a.348.348,0,0,0-.24.1.358.358,0,0,0-.11.25.391.391,0,0,0,.1.25.361.361,0,0,0,.49,0,.319.319,0,0,0,.11-.25.34.34,0,0,0-.33-.35Z" style="fill:#17306d"/><path d="M70,10.78a.34.34,0,0,0-.35.33v.02a.332.332,0,0,0,.11.25.369.369,0,0,0,.49,0,.363.363,0,0,0,.1-.25.34.34,0,0,0-.33-.35Z" style="fill:#17306d"/><path d="M64.5,6.28a.35.35,0,0,0-.25.6.359.359,0,0,0,.5,0,.348.348,0,0,0,.1-.24.34.34,0,0,0-.33-.35H64.5Z" style="fill:#17306d"/><path d="M65.5,3.53a.35.35,0,0,0-.25.6.369.369,0,0,0,.5,0,.35.35,0,0,0-.25-.6Z" style="fill:#17306d"/><path d="M62.25,1.53a.34.34,0,0,0-.35.33v.02a.339.339,0,0,0,.11.25.361.361,0,0,0,.49,0,.31.31,0,0,0,.1-.24.34.34,0,0,0-.33-.35h-.02Z" style="fill:#17306d"/><path d="M52.5,2a.35.35,0,0,0-.25.6.36.36,0,0,0,.6-.25.391.391,0,0,0-.1-.25A.369.369,0,0,0,52.5,2Z" style="fill:#17306d"/><path d="M44.5,5.28a.339.339,0,0,0-.25.11.348.348,0,0,0-.1.24.332.332,0,0,0,.11.25.369.369,0,0,0,.49,0,.363.363,0,0,0,.1-.25.34.34,0,0,0-.33-.35Z" style="fill:#17306d"/><path d="M28.25.53a.391.391,0,0,0-.25.1.363.363,0,0,0-.1.25.332.332,0,0,0,.11.25A.35.35,0,0,0,28.6.88a.332.332,0,0,0-.11-.25A.348.348,0,0,0,28.25.53Z" style="fill:#17306d"/><path d="M2.75,42.28a.391.391,0,0,0-.25.1.359.359,0,0,0,0,.5.38.38,0,0,0,.5,0,.359.359,0,0,0,0-.5A.391.391,0,0,0,2.75,42.28Z" style="fill:#17306d"/><path d="M13,66.78a.358.358,0,0,0-.25.11.31.31,0,0,0-.1.24.369.369,0,0,0,.1.25.36.36,0,0,0,.6-.25.332.332,0,0,0-.11-.25A.348.348,0,0,0,13,66.78Z" style="fill:#17306d"/><path d="M70,37.28a.34.34,0,0,0-.35.33v.02a.332.332,0,0,0,.11.25.369.369,0,0,0,.49,0,.363.363,0,0,0,.1-.25.34.34,0,0,0-.33-.35Z" style="fill:#17306d"/><path d="M71,30.53a.35.35,0,0,0-.25.6.369.369,0,0,0,.5,0,.35.35,0,0,0-.25-.6Z" style="fill:#17306d"/><path d="M.75,20a.391.391,0,0,0-.25.1.391.391,0,0,0-.1.25.332.332,0,0,0,.11.25.369.369,0,0,0,.49,0,.363.363,0,0,0,.1-.25A.391.391,0,0,0,1,20.1.391.391,0,0,0,.75,20Z" style="fill:#17306d"/><path d="M71.75,48.28a.35.35,0,0,0-.25.6.38.38,0,0,0,.5,0,.35.35,0,0,0-.25-.6Z" style="fill:#17306d"/><path d="M68.75,45.28a.35.35,0,0,0-.25.6.369.369,0,0,0,.5,0,.391.391,0,0,0,.1-.25.354.354,0,0,0-.1-.25A.391.391,0,0,0,68.75,45.28Z" style="fill:#17306d"/><path d="M68.25,11.53a.34.34,0,0,0-.35.33v.02a.369.369,0,0,0,.1.25.38.38,0,0,0,.5,0,.35.35,0,0,0-.25-.6Z" style="fill:#17306d"/><path d="M71.25,3.53a.35.35,0,0,0-.25.6.369.369,0,0,0,.5,0,.391.391,0,0,0,.1-.25.354.354,0,0,0-.1-.25A.391.391,0,0,0,71.25,3.53Z" style="fill:#17306d"/><path d="M.25,14a.391.391,0,0,0-.25.1.359.359,0,0,0,0,.5.38.38,0,0,0,.5,0,.359.359,0,0,0,0-.5A.391.391,0,0,0,.25,14Z" style="fill:#17306d"/><path d="M2.5.53a.391.391,0,0,0-.25.1.359.359,0,0,0,0,.5.36.36,0,0,0,.6-.25.391.391,0,0,0-.1-.25A.391.391,0,0,0,2.5.53Z" style="fill:#17306d"/><path d="M70,47.78a.34.34,0,0,0-.35.33v.02a.332.332,0,0,0,.11.25.369.369,0,0,0,.49,0,.363.363,0,0,0,.1-.25.34.34,0,0,0-.33-.35Z" style="fill:#17306d"/><path d="M1,55a.391.391,0,0,0-.25.1.359.359,0,0,0,0,.5.38.38,0,0,0,.5,0,.359.359,0,0,0,0-.5A.391.391,0,0,0,1,55Z" style="fill:#17306d"/><path d="M17.75,58.73a.65.65,0,0,0-.65.65.661.661,0,0,0,.19.46.68.68,0,0,0,.92,0,.65.65,0,0,0-.46-1.11Z" style="fill:#17306d"/><path d="M29,60.73a.661.661,0,0,0-.46.19.681.681,0,0,0-.19.46.661.661,0,0,0,.19.46.67.67,0,0,0,.92,0,.661.661,0,0,0,.19-.46A.65.65,0,0,0,29,60.73Z" style="fill:#17306d"/><path d="M29,68.23a.65.65,0,0,0-.65.65.639.639,0,0,0,.19.46.68.68,0,0,0,.92,0,.65.65,0,0,0,0-.919h0A.681.681,0,0,0,29,68.23Z" style="fill:#17306d"/><path d="M40,61.23a.65.65,0,0,0-.65.65h0a.661.661,0,0,0,.19.46.68.68,0,0,0,.92,0,.631.631,0,0,0,.19-.46.681.681,0,0,0-.19-.46A.661.661,0,0,0,40,61.23Z" style="fill:#17306d"/><path d="M44.75,59.73a.61.61,0,0,0-.46.2.64.64,0,0,0-.19.45.661.661,0,0,0,.19.46.68.68,0,0,0,.92,0,.631.631,0,0,0,.19-.46.61.61,0,0,0-.2-.46A.6.6,0,0,0,44.75,59.73Z" style="fill:#17306d"/><path d="M47,48.73a.65.65,0,0,0-.46,1.11.68.68,0,0,0,.92,0A.65.65,0,0,0,47,48.73Z" style="fill:#17306d"/><path d="M54.5,64.73a.641.641,0,0,0-.5.19.65.65,0,0,0,0,.919h0a.68.68,0,0,0,.92,0,.639.639,0,0,0,.19-.46.661.661,0,0,0-.19-.46A.642.642,0,0,0,54.5,64.73Z" style="fill:#17306d"/><path d="M63.75,65a.65.65,0,0,0-.46,1.11.68.68,0,0,0,.92,0A.65.65,0,0,0,63.75,65Z" style="fill:#17306d"/><path d="M64.75,69a.661.661,0,0,0-.46.19.681.681,0,0,0-.19.46.661.661,0,0,0,.19.46.65.65,0,0,0,1.11-.46.63.63,0,0,0-.18-.45A.67.67,0,0,0,64.75,69Z" style="fill:#17306d"/><path d="M69.25,53.48a.65.65,0,0,0-.46,1.11.67.67,0,0,0,.92,0,.65.65,0,0,0-.46-1.11Z" style="fill:#17306d"/><path d="M7.75,24.48a.639.639,0,0,0-.46.19.681.681,0,0,0-.19.46.661.661,0,0,0,.19.46.68.68,0,0,0,.92,0,.661.661,0,0,0,.19-.46.681.681,0,0,0-.19-.46A.639.639,0,0,0,7.75,24.48Z" style="fill:#17306d"/><path d="M4.75,14.73a.639.639,0,0,0-.46.19.65.65,0,0,0,0,.919h0a.67.67,0,0,0,.92,0,.65.65,0,0,0,0-.919h0A.639.639,0,0,0,4.75,14.73Z" style="fill:#17306d"/><path d="M2,4.48a.661.661,0,0,0-.46.19.681.681,0,0,0-.19.46.661.661,0,0,0,.19.46.68.68,0,0,0,.92,0,.661.661,0,0,0,.19-.46.681.681,0,0,0-.19-.46A.661.661,0,0,0,2,4.48Z" style="fill:#17306d"/><path d="M17.5,1.73a.661.661,0,0,0-.46.19.681.681,0,0,0-.19.46.661.661,0,0,0,.19.46.68.68,0,0,0,.92,0,.661.661,0,0,0,.19-.46.681.681,0,0,0-.19-.46A.661.661,0,0,0,17.5,1.73Z" style="fill:#17306d"/><path d="M19,9.23a.65.65,0,0,0-.65.65h0a.639.639,0,0,0,.19.46.67.67,0,0,0,.92,0,.661.661,0,0,0,.19-.46.681.681,0,0,0-.19-.46A.661.661,0,0,0,19,9.23Z" style="fill:#17306d"/><path d="M20.75,26.23a.65.65,0,0,0-.65.65h0a.639.639,0,0,0,.19.46.67.67,0,0,0,.92,0,.661.661,0,0,0,.19-.46.681.681,0,0,0-.19-.46A.639.639,0,0,0,20.75,26.23Z" style="fill:#17306d"/><path d="M28.25,20.48a.65.65,0,0,0-.46,1.11.67.67,0,0,0,.92,0,.661.661,0,0,0,.19-.46.681.681,0,0,0-.19-.46A.639.639,0,0,0,28.25,20.48Z" style="fill:#17306d"/><path d="M33.75,11.23a.65.65,0,0,0-.65.65h0a.639.639,0,0,0,.19.46.68.68,0,0,0,.92,0,.631.631,0,0,0,.19-.46.639.639,0,0,0-.19-.46A.661.661,0,0,0,33.75,11.23Z" style="fill:#17306d"/><path d="M34,4.73a.639.639,0,0,0-.46.19.65.65,0,0,0,0,.919h0a.67.67,0,0,0,.92,0,.65.65,0,0,0,0-.919h0A.661.661,0,0,0,34,4.73Z" style="fill:#17306d"/><path d="M41.5,16.48a.65.65,0,0,0-.5,1.11.68.68,0,0,0,.92,0,.65.65,0,0,0-.46-1.11Z" style="fill:#17306d"/><path d="M52,11.73a.65.65,0,0,0-.46,1.11.68.68,0,0,0,.92,0A.65.65,0,0,0,52,11.73Z" style="fill:#17306d"/><path d="M54.75,6.23a.661.661,0,0,0-.46.19.681.681,0,0,0-.19.46.639.639,0,0,0,.19.46.68.68,0,0,0,.92,0,.639.639,0,0,0,.19-.46.681.681,0,0,0-.19-.46A.661.661,0,0,0,54.75,6.23Z" style="fill:#17306d"/><path d="M25,47a.661.661,0,0,0-.46.19.681.681,0,0,0-.19.46.661.661,0,0,0,.19.46.68.68,0,0,0,.92,0,.661.661,0,0,0,.19-.46.681.681,0,0,0-.19-.46A.661.661,0,0,0,25,47Z" style="fill:#17306d"/><path d="M35,48.23a.639.639,0,0,0-.46.19.65.65,0,0,0,0,.919h0a.68.68,0,0,0,.92,0A.65.65,0,0,0,35,48.23Z" style="fill:#17306d"/><path d="M44.75,42a.65.65,0,0,0-.46,1.11.68.68,0,0,0,.92,0,.631.631,0,0,0,.19-.46.61.61,0,0,0-.2-.46A.621.621,0,0,0,44.75,42Z" style="fill:#17306d"/><path d="M51.75,28.48a.65.65,0,0,0-.46,1.11.67.67,0,0,0,.92,0,.639.639,0,0,0,.19-.46.65.65,0,0,0-.65-.65Z" style="fill:#17306d"/><path d="M66.75,19.73a.65.65,0,0,0-.65.65h0a.61.61,0,0,0,.2.46.68.68,0,0,0,.91,0,.65.65,0,0,0-.46-1.11Z" style="fill:#17306d"/><path d="M47,23.73a.65.65,0,0,0-.46,1.11.68.68,0,0,0,.92,0A.65.65,0,0,0,47,23.73Z" style="fill:#17306d"/><path d="M36.75,27a.661.661,0,0,0-.46.19.681.681,0,0,0-.19.46.661.661,0,0,0,.19.46.68.68,0,0,0,.92,0,.661.661,0,0,0,.19-.46.681.681,0,0,0-.19-.46A.661.661,0,0,0,36.75,27Z" style="fill:#17306d"/><path d="M16.75,43a.65.65,0,0,0-.46,1.11.68.68,0,0,0,.92,0,.65.65,0,0,0,0-.919h0A.639.639,0,0,0,16.75,43Z" style="fill:#17306d"/><path d="M11,34.73a.65.65,0,0,0-.65.65h0a.639.639,0,0,0,.19.46.67.67,0,0,0,.92,0A.65.65,0,0,0,11,34.73Z" style="fill:#17306d"/><path d="M67.25,40.73a.661.661,0,0,0-.46.19.681.681,0,0,0-.19.46.661.661,0,0,0,.19.46.68.68,0,0,0,.92,0,.639.639,0,0,0,.19-.46.65.65,0,0,0-.65-.65Z" style="fill:#17306d"/><path d="M7,55.73a.61.61,0,0,0-.46.2.621.621,0,0,0-.19.45.661.661,0,0,0,.19.46.67.67,0,0,0,.92,0,.65.65,0,0,0,0-.919h0A.639.639,0,0,0,7,55.73Z" style="fill:#17306d"/><path d="M8.25,66.23a.681.681,0,0,0-.46.19.661.661,0,0,0-.19.46.639.639,0,0,0,.19.46.67.67,0,0,0,.92,0,.639.639,0,0,0,.19-.46A.65.65,0,0,0,8.25,66.23Z" style="fill:#17306d"/><path d="M3.25,69a.661.661,0,0,0-.46.19.681.681,0,0,0-.19.46.661.661,0,0,0,.19.46.68.68,0,0,0,.92,0,.661.661,0,0,0,.19-.46.681.681,0,0,0-.19-.46A.661.661,0,0,0,3.25,69Z" style="fill:#17306d"/><path d="M66.25,34.23a.65.65,0,0,0-.46,1.11.68.68,0,0,0,.92,0,.639.639,0,0,0,.19-.46.661.661,0,0,0-.19-.46A.639.639,0,0,0,66.25,34.23Z" style="fill:#17306d"/><path d="M43.75,8.48a.661.661,0,0,0-.46.19.681.681,0,0,0-.19.46.661.661,0,0,0,.19.46.67.67,0,0,0,.92,0,.661.661,0,0,0,.19-.46.681.681,0,0,0-.19-.46A.661.661,0,0,0,43.75,8.48Z" style="fill:#17306d"/><path d="M25.5,1.48a.661.661,0,0,0-.46.19.681.681,0,0,0-.19.46.661.661,0,0,0,.19.46.67.67,0,0,0,.92,0,.661.661,0,0,0,.19-.46.681.681,0,0,0-.19-.46A.661.661,0,0,0,25.5,1.48Z" style="fill:#17306d"/><path d="M21.75,29.73a.661.661,0,0,0-.46.19.65.65,0,0,0,0,.919h0a.68.68,0,0,0,.92,0,.65.65,0,0,0-.46-1.11Z" style="fill:#17306d"/><path d="M23.75,42.48a.661.661,0,0,0-.46.19.681.681,0,0,0-.19.46.661.661,0,0,0,.19.46.67.67,0,0,0,.92,0,.639.639,0,0,0,.19-.46A.65.65,0,0,0,23.75,42.48Z" style="fill:#17306d"/><path d="M41.25,37a.65.65,0,0,0-.46,1.11.68.68,0,0,0,.92,0,.661.661,0,0,0,.19-.46.681.681,0,0,0-.19-.46A.661.661,0,0,0,41.25,37Z" style="fill:#17306d"/><path d="M67.25,27.73a.661.661,0,0,0-.46.19.681.681,0,0,0-.19.46.661.661,0,0,0,.19.46.68.68,0,0,0,.92,0,.639.639,0,0,0,.19-.46.65.65,0,0,0-.65-.65Z" style="fill:#17306d"/><path d="M53,56.48a.65.65,0,0,0-.46,1.11.68.68,0,0,0,.92,0,.661.661,0,0,0,.19-.46.681.681,0,0,0-.19-.46A.661.661,0,0,0,53,56.48Z" style="fill:#17306d"/><path d="M33.75,55.48a.661.661,0,0,0-.46.19.681.681,0,0,0-.19.46.639.639,0,0,0,.19.46.68.68,0,0,0,.92,0,.639.639,0,0,0,.19-.46.65.65,0,0,0-.65-.65Z" style="fill:#17306d"/><path d="M12.5,52.23a.65.65,0,0,0-.5,1.11.67.67,0,0,0,.92,0,.65.65,0,0,0-.46-1.11Z" style="fill:#17306d"/><path d="M49.25,67a.65.65,0,0,0-.46,1.11.68.68,0,0,0,.92,0A.65.65,0,0,0,49.25,67Z" style="fill:#17306d"/><path d="M58.75,50.73a.65.65,0,0,0-.46,1.11.68.68,0,0,0,.92,0,.639.639,0,0,0,.19-.46.65.65,0,0,0-.65-.65Z" style="fill:#17306d"/><path d="M67.25,14.23a.661.661,0,0,0-.46.19.681.681,0,0,0-.19.46.661.661,0,0,0,.19.46.68.68,0,0,0,.92,0,.639.639,0,0,0,.19-.46.65.65,0,0,0-.65-.65Z" style="fill:#17306d"/><path d="M5,1.73a.639.639,0,0,0-.46.19.65.65,0,0,0,0,.919h0a.67.67,0,0,0,.92,0,.65.65,0,0,0,0-.919h0A.639.639,0,0,0,5,1.73Z" style="fill:#17306d"/><path d="M2.5,58.23a.61.61,0,0,0-.46.2.621.621,0,0,0-.19.45.662.662,0,0,0,.15.46.67.67,0,0,0,.92,0,.65.65,0,0,0,0-.919h0A.642.642,0,0,0,2.5,58.23Z" style="fill:#17306d"/><path d="M16.25,68.23a.65.65,0,0,0-.46,1.11.68.68,0,0,0,.92,0,.65.65,0,0,0-.46-1.11Z" style="fill:#17306d"/><path d="M40.25,67a.65.65,0,0,0-.46,1.11.68.68,0,0,0,.92,0,.639.639,0,0,0,.19-.46.65.65,0,0,0-.65-.65Z" style="fill:#17306d"/><path d="M2.5,39.48a.641.641,0,0,0-.5.19.65.65,0,0,0,0,.919H2a.68.68,0,0,0,.92,0,.65.65,0,0,0-.46-1.11Z" style="fill:#17306d"/><path d="M7.25,46.48a.639.639,0,0,0-.46.19.65.65,0,0,0,0,.919h0a.68.68,0,0,0,.92,0,.639.639,0,0,0,.19-.46.661.661,0,0,0-.19-.46A.639.639,0,0,0,7.25,46.48Z" style="fill:#17306d"/><path d="M3.75,24.73a.661.661,0,0,0-.46.19.681.681,0,0,0-.19.46.661.661,0,0,0,.19.46.67.67,0,0,0,.92,0,.661.661,0,0,0,.19-.46.681.681,0,0,0-.19-.46A.639.639,0,0,0,3.75,24.73Z" style="fill:#17306d"/><path d="M10.75,21a.661.661,0,0,0-.46.19.681.681,0,0,0-.19.46.639.639,0,0,0,.19.46.68.68,0,0,0,.92,0,.661.661,0,0,0,.19-.46.681.681,0,0,0-.19-.46A.661.661,0,0,0,10.75,21Z" style="fill:#17306d"/><path d="M9.75,11.73a.639.639,0,0,0-.46.19.65.65,0,0,0,0,.919h0a.68.68,0,0,0,.92,0,.65.65,0,0,0,0-.919h0A.639.639,0,0,0,9.75,11.73Z" style="fill:#17306d"/><path d="M13.25,5.73a.661.661,0,0,0-.46.19.681.681,0,0,0-.19.46.639.639,0,0,0,.19.46.67.67,0,0,0,.92,0,.661.661,0,0,0,.19-.46.681.681,0,0,0-.19-.46A.661.661,0,0,0,13.25,5.73Z" style="fill:#17306d"/><path d="M21.75,18.23a.661.661,0,0,0-.46.19.639.639,0,0,0-.19.46.6.6,0,0,0,.2.46.65.65,0,0,0,1.1-.46.681.681,0,0,0-.19-.46A.661.661,0,0,0,21.75,18.23Z" style="fill:#17306d"/><path d="M31,34a.661.661,0,0,0-.46.19.681.681,0,0,0-.19.46.661.661,0,0,0,.19.46.68.68,0,0,0,.92,0,.661.661,0,0,0,.19-.46.681.681,0,0,0-.19-.46A.661.661,0,0,0,31,34Z" style="fill:#17306d"/><path d="M25.75,37.48a.65.65,0,0,0-.46,1.11.67.67,0,0,0,.92,0,.65.65,0,0,0-.46-1.11Z" style="fill:#17306d"/><path d="M37,43a.661.661,0,0,0-.46.19.681.681,0,0,0-.19.46.661.661,0,0,0,.19.46.68.68,0,0,0,.92,0,.661.661,0,0,0,.19-.46.681.681,0,0,0-.19-.46A.661.661,0,0,0,37,43Z" style="fill:#17306d"/><path d="M61.5,55a.661.661,0,0,0-.46.19.681.681,0,0,0-.19.46.661.661,0,0,0,.19.46.68.68,0,0,0,.92,0,.639.639,0,0,0,.19-.46A.65.65,0,0,0,61.5,55Z" style="fill:#17306d"/><path d="M61,44.48a.639.639,0,0,0-.46.19.681.681,0,0,0-.19.46.661.661,0,0,0,.19.46.68.68,0,0,0,.92,0,.65.65,0,0,0,0-.919h0A.639.639,0,0,0,61,44.48Z" style="fill:#17306d"/><path d="M58.5,14.48a.661.661,0,0,0-.46.19.681.681,0,0,0-.19.46.661.661,0,0,0,.19.46.68.68,0,0,0,.92,0,.661.661,0,0,0,.19-.46.681.681,0,0,0-.19-.46A.661.661,0,0,0,58.5,14.48Z" style="fill:#17306d"/><path d="M59,27.23a.639.639,0,0,0-.46.19.65.65,0,0,0,0,.919h0a.68.68,0,0,0,.92,0,.65.65,0,0,0,0-.919h0A.639.639,0,0,0,59,27.23Z" style="fill:#17306d"/><path d="M55.5,36a.661.661,0,0,0-.46.19.681.681,0,0,0-.19.46.661.661,0,0,0,.19.46.68.68,0,0,0,.92,0,.661.661,0,0,0,.19-.46.681.681,0,0,0-.19-.46A.661.661,0,0,0,55.5,36Z" style="fill:#17306d"/><path d="M69,1a.681.681,0,0,0-.46.19.65.65,0,0,0,0,.919h0a.691.691,0,0,0,.92,0A.65.65,0,0,0,69,1Z" style="fill:#17306d"/><path d="M60.5,5.73A.65.65,0,0,0,60,6.84a.67.67,0,0,0,.92,0,.639.639,0,0,0,.19-.46.65.65,0,0,0-.65-.65h.04Z" style="fill:#17306d"/><path d="M44.25.23a.65.65,0,0,0-.46,1.11.68.68,0,0,0,.92,0A.65.65,0,0,0,44.25.23Z" style="fill:#17306d"/><path d="M24.25,70.48a.65.65,0,0,0-.65.65.639.639,0,0,0,.19.46.67.67,0,0,0,.92,0,.661.661,0,0,0,.19-.46.681.681,0,0,0-.19-.46A.639.639,0,0,0,24.25,70.48Z" style="fill:#17306d"/><path d="M-.25,48.28a.391.391,0,0,0-.25.1.391.391,0,0,0-.1.25.391.391,0,0,0,.1.25.38.38,0,0,0,.5,0,.391.391,0,0,0,.1-.25.391.391,0,0,0-.1-.25A.391.391,0,0,0-.25,48.28Z" style="fill:#17306d"/></pattern></defs><title>macinatura</title><g id="Layer_1-2" data-name="Layer 1-2"><path d="M220.427,314.889c-.94-1.15,5.93-2,5.93-2s-3.37-7.84-6.91-9.25c-10.45-4.16-8.52-6.43-12-3.41-3-2.42-6.72-5.75-7.78-6.9-1.73-1.88-5.51.74-8.61-.35s-7.64-7.93-11.09-4.75-10.16,3.9-14.3,11.19-4.56,4.05-7.93,7.14-2.38,4.38-8.42,9.94c-1.88,1.74,0,2.59,2.54,2,5.79-1.45,6.07,2.45,9.2,2.58s7.48-.93,13.56-.67,5,2.64,8.41,2.79,7.85-3.36,11.65-3.2h0c3.69.91,6.83,2.78,8.5,2.85,2.53.11,7.81-4.67,10.59-4.55,2.62,0,5.27.22,7,.3C224.327,318.679,222.287,317.169,220.427,314.889Z" style="fill:#17306d;stroke:#17306d;stroke-linecap:round;stroke-linejoin:round;stroke-width:2.3399999141693115px;opacity:0.5;isolation:isolate"/><path d="M142.6,55.549a5.781,5.781,0,0,1,3.07.34l-.68-1.4c11.44,2.53,8.76,8.92,8.76,8.92s-5.1,4.7-11.37-5.21c0,0-.4-.15.93.09S142.387,57.259,142.6,55.549Z" style="fill:#17306d;opacity:0.5;isolation:isolate"/><polygon points="185.517 287.649 180.947 287.649 181.567 253.609 184.897 253.609 185.517 287.649" style="fill:url(#USGS_22_Gravel_Beach_4)"/><polyline points="159.827 219.349 136.297 138.629 230.157 138.629 206.627 219.349" style="fill:none;stroke:#17306d;stroke-linecap:round;stroke-linejoin:round;stroke-width:2.3399999141693115px"/><path d="M144.147,77.519c-.56-2.41.81-6.5.81-6.5,6.85,9.5.59,12.49.59,12.49s-6.93.1-5-11.46C140.547,72.049,143.587,75.109,144.147,77.519Z" style="fill:#17306d;opacity:0.5;isolation:isolate"/><line x1="144.567" y1="79.309" x2="144.887" y2="80.689" style="fill:none;stroke:#17306d;stroke-linecap:round;stroke-linejoin:round;stroke-width:0.8799999952316284px"/><path d="M148.727,59.889c-2-1.42-3.73-5.39-3.73-5.39,11.44,2.53,8.76,8.92,8.76,8.92s-5.1,4.7-11.37-5.21C142.387,58.169,146.667,58.429,148.727,59.889Z" style="fill:none;stroke:#17306d;stroke-linecap:round;stroke-linejoin:round;stroke-width:1.1699999570846558px"/><line x1="150.227" y1="60.909" x2="151.397" y2="61.719" style="fill:none;stroke:#17306d;stroke-linecap:round;stroke-linejoin:round;stroke-width:1.1699999570846558px"/><path d="M145.667,55.889a5.087,5.087,0,0,0-3.08-.31,5.064,5.064,0,0,0,1.27,2.71" style="fill:none;stroke:#17306d;stroke-linecap:round;stroke-linejoin:round;stroke-width:1.1699999570846558px"/><path d="M167.957,87.769c.39-2.44,3.2-5.71,3.2-5.71,2.75,11.39-4.17,11.83-4.17,11.83s-6.46-2.53-.3-12.51C166.667,81.339,168.347,85.329,167.957,87.769Z" style="fill:#17306d;opacity:0.5;isolation:isolate"/><line x1="167.667" y1="89.589" x2="167.437" y2="90.989" style="fill:none;stroke:#17306d;stroke-linecap:round;stroke-linejoin:round;stroke-width:1.1699999570846558px"/><path d="M136.807,45.179c4.64,9.55-4.24,13.34-4.24,13.34S127.507,50.3,136.807,45.179Z" style="fill:#17306d;opacity:0.5;isolation:isolate"/><path d="M136.667,49.429a7.282,7.282,0,0,1-1.59,5.55" style="fill:none;stroke:#17306d;stroke-linecap:round;stroke-linejoin:round;stroke-width:0.5899999737739563px"/><path d="M85.487,69.049c5.43-17.27,14.55-27.28,14.55-27.28,2.46,1.74,4.92,3.22,12,3.77,7.6.6,11.76-3.58,11.76-3.58a41.1,41.1,0,0,0-5.84-4.24s.94.58,4.6-.61a20,20,0,0,0,9.18-6.78,17.256,17.256,0,0,0-9-2.52,8.951,8.951,0,0,0,2.18-.13,7.892,7.892,0,0,0,1.79-.69c4.54-2.39,5-6.05,5-6.05a10.638,10.638,0,0,0-5.19-2.39h0s1.06.12,2.56-1.45a7.348,7.348,0,0,0,2-4,6.725,6.725,0,0,0-4.28-1c-2.29.28-3,1.38-3,1.38a13.5,13.5,0,0,0,.15-6.93,13.108,13.108,0,0,0-5.6,1.65,4.408,4.408,0,0,0,.44-3.31,6.833,6.833,0,0,0-2.35-3.8,7.512,7.512,0,0,0-3.19,3.22c-1,1.94-.55,3-.55,3a10.906,10.906,0,0,0-4.03-4.42s-3.42,1.61-4.28,6.73a8.074,8.074,0,0,0-.1,2,14.463,14.463,0,0,0,.53,3.63h0c-.54-3.65-6.15-6.84-6.15-6.84a16.8,16.8,0,0,0-2.52,10.05c.33,4.09,1.46,4.9,1.46,4.9a40.347,40.347,0,0,0-6.82-5s-2.72,5.22.25,12.15c2.33,5.46,4.59,7.86,6.76,9.56a80.728,80.728,0,0,0-14.96,27.82" style="fill:#17306d;opacity:0.5;isolation:isolate"/><path d="M152.667,69.6c10.51-1.5,11.41,8.11,11.41,8.11S154.667,80.019,152.667,69.6Z" style="fill:#17306d;opacity:0.5;isolation:isolate"/><path d="M156.667,71.019a7.364,7.364,0,0,1,4.8,3.21" style="fill:none;stroke:#17306d;stroke-linecap:round;stroke-linejoin:round;stroke-width:0.5899999737739563px"/><path d="M164.507,120.649c-2.24-1.05-4.6-4.66-4.6-4.66,11.71.52,10.16,7.28,10.16,7.28s-4.22,5.5-12.09-3.19C157.977,120.079,162.267,119.6,164.507,120.649Z" style="fill:#17306d;opacity:0.5;isolation:isolate"/><line x1="166.167" y1="121.439" x2="167.457" y2="122.039" style="fill:none;stroke:#17306d;stroke-linecap:round;stroke-linejoin:round;stroke-width:1.1699999570846558px"/><path d="M183.737,128.539c-1.27-2.49-1.78-6.17,1.83-10.54,4.36,4,4.15,7.89,3.12,10.54" style="fill:#17306d;opacity:0.5;isolation:isolate"/><path d="M187.007,122.009a7.867,7.867,0,0,1,.88,4.43" style="fill:none;stroke:#17306d;stroke-linecap:round;stroke-linejoin:round;stroke-width:0.5899999737739563px"/><g style="isolation:isolate"><path d="M189.183,54.029V44.7H190.6v1.31a3.336,3.336,0,0,1,1.169-1.1,3.289,3.289,0,0,1,1.661-.418,3.073,3.073,0,0,1,1.7.431,2.306,2.306,0,0,1,.936,1.2,3.35,3.35,0,0,1,2.883-1.635,2.841,2.841,0,0,1,2.136.77,3.286,3.286,0,0,1,.747,2.368v6.407h-1.574v-5.88a4.311,4.311,0,0,0-.154-1.366,1.325,1.325,0,0,0-.557-.673,1.744,1.744,0,0,0-.95-.255,2.209,2.209,0,0,0-1.634.655,2.882,2.882,0,0,0-.651,2.1v5.423h-1.582V47.965a2.666,2.666,0,0,0-.387-1.582,1.461,1.461,0,0,0-1.265-.528,2.307,2.307,0,0,0-1.236.352,2,2,0,0,0-.821,1.028,5.787,5.787,0,0,0-.255,1.951v4.843Z" style="fill:#17306d"/><path d="M211.168,52.878a5.915,5.915,0,0,1-1.692,1.055,4.893,4.893,0,0,1-1.745.307,3.389,3.389,0,0,1-2.364-.752,2.476,2.476,0,0,1-.826-1.92,2.55,2.55,0,0,1,.312-1.252,2.58,2.58,0,0,1,.818-.91,3.832,3.832,0,0,1,1.137-.518,11.282,11.282,0,0,1,1.407-.238,14.437,14.437,0,0,0,2.821-.545c.006-.216.009-.354.009-.413a1.747,1.747,0,0,0-.449-1.362,2.649,2.649,0,0,0-1.8-.536,2.8,2.8,0,0,0-1.648.391,2.393,2.393,0,0,0-.787,1.384l-1.547-.211a3.846,3.846,0,0,1,.694-1.6,3.054,3.054,0,0,1,1.4-.94,6.222,6.222,0,0,1,2.118-.33,5.59,5.59,0,0,1,1.942.282,2.549,2.549,0,0,1,1.1.707,2.476,2.476,0,0,1,.492,1.077,8.877,8.877,0,0,1,.079,1.459v2.109a22.373,22.373,0,0,0,.1,2.79,3.5,3.5,0,0,0,.4,1.121h-1.652A3.358,3.358,0,0,1,211.168,52.878Zm-.132-3.533a11.634,11.634,0,0,1-2.584.6,5.979,5.979,0,0,0-1.38.317,1.373,1.373,0,0,0-.624.514,1.4,1.4,0,0,0,.26,1.806,2.06,2.06,0,0,0,1.4.422,3.261,3.261,0,0,0,1.626-.4,2.458,2.458,0,0,0,1.046-1.094,3.823,3.823,0,0,0,.255-1.582Z" style="fill:#17306d"/><path d="M215.953,54.029V41.144h1.582V54.029Z" style="fill:#17306d"/><path d="M224.341,52.614l.229,1.4a5.916,5.916,0,0,1-1.195.14,2.711,2.711,0,0,1-1.336-.272,1.524,1.524,0,0,1-.668-.716,5.66,5.66,0,0,1-.194-1.868v-5.37h-1.16V44.7h1.16V42.384l1.574-.95V44.7h1.59v1.231h-1.59v5.458a2.752,2.752,0,0,0,.083.87.652.652,0,0,0,.272.307,1.046,1.046,0,0,0,.541.115A5.154,5.154,0,0,0,224.341,52.614Z" style="fill:#17306d"/><path d="M226.2,49.362a4.812,4.812,0,0,1,1.441-3.841,4.347,4.347,0,0,1,2.936-1.037,4.186,4.186,0,0,1,3.146,1.262,4.8,4.8,0,0,1,1.222,3.484,6.171,6.171,0,0,1-.54,2.834,3.821,3.821,0,0,1-1.573,1.6,4.584,4.584,0,0,1-2.255.571,4.194,4.194,0,0,1-3.168-1.257A5.019,5.019,0,0,1,226.2,49.362Zm1.626,0a3.976,3.976,0,0,0,.782,2.685,2.605,2.605,0,0,0,3.929,0,4.074,4.074,0,0,0,.782-2.734,3.863,3.863,0,0,0-.786-2.624,2.61,2.61,0,0,0-3.925,0A3.958,3.958,0,0,0,227.825,49.362Z" style="fill:#17306d"/></g><rect x="155.717" y="219.349" width="55.02" height="34.26" style="fill:none;stroke:#17306d;stroke-linecap:round;stroke-linejoin:round;stroke-width:2.3399999141693115px"/><path d="M218.857,311.889c.95,4,6.81,6.82,2,6.62-2.65-.11-7.36-.57-10.9-.09" style="fill:none;stroke:#17306d;stroke-linecap:round;stroke-linejoin:round;stroke-width:2.3399999141693115px"/><path d="M220.817,314.489c1.64-1.51,5.54-1.59,5.54-1.59s-3.37-7.84-6.91-9.25c-10.45-4.16-8.52-6.43-12-3.41" style="fill:none;stroke:#17306d;stroke-linecap:round;stroke-linejoin:round;stroke-width:2.3399999141693115px"/><path d="M162.867,103.209a5.716,5.716,0,0,1-3-.79l.46,1.49c-10.91-4.3-7.25-10.19-7.25-10.19s5.78-3.83,10.4,6.94c0,0,.38.22-.89-.23S163.347,101.559,162.867,103.209Z" style="fill:#17306d;opacity:0.5;isolation:isolate"/><path d="M157.5,98c1.78,1.72,2.84,5.91,2.84,5.91-10.91-4.3-7.25-10.19-7.25-10.19s5.78-3.83,10.4,6.94C163.487,100.659,159.277,99.719,157.5,98Z" style="fill:none;stroke:#17306d;stroke-linecap:round;stroke-linejoin:round;stroke-width:1.1699999570846558px"/><line x1="156.177" y1="96.719" x2="155.157" y2="95.729" style="fill:none;stroke:#17306d;stroke-linecap:round;stroke-linejoin:round;stroke-width:1.1699999570846558px"/><path d="M159.877,102.419a4.993,4.993,0,0,0,3,.79,5,5,0,0,0-.82-2.87" style="fill:none;stroke:#17306d;stroke-linecap:round;stroke-linejoin:round;stroke-width:1.1699999570846558px"/><path d="M179.937,101.619a5.7,5.7,0,0,1-.63,3l1.47-.54c-3.7,11.12-9.79,7.79-9.79,7.79s-4.14-5.56,6.37-10.76c0,0,.2-.39-.18.91S178.267,101.229,179.937,101.619Z" style="fill:#17306d;opacity:0.5;isolation:isolate"/><path d="M175.027,107.259c1.63-1.86,5.75-3.15,5.75-3.15-3.7,11.12-9.79,7.79-9.79,7.79s-4.14-5.56,6.37-10.76C177.357,101.139,176.667,105.4,175.027,107.259Z" style="fill:none;stroke:#17306d;stroke-linecap:round;stroke-linejoin:round;stroke-width:1.1699999570846558px"/><line x1="173.827" y1="108.649" x2="172.887" y2="109.719" style="fill:none;stroke:#17306d;stroke-linecap:round;stroke-linejoin:round;stroke-width:1.1699999570846558px"/><path d="M179.307,104.649a5,5,0,0,0,.63-3,5.005,5.005,0,0,0-2.82,1" style="fill:none;stroke:#17306d;stroke-linecap:round;stroke-linejoin:round;stroke-width:1.1699999570846558px"/><rect x="133.427" y="128.539" width="100.78" height="10.09" style="fill:none;stroke:#17306d;stroke-linecap:round;stroke-linejoin:round;stroke-width:2.3399999141693115px"/><line x1="238.487" y1="234.029" x2="238.487" y2="256.499" style="fill:none;stroke:#17306d;stroke-linecap:round;stroke-linejoin:round;stroke-width:2.3399999141693115px"/><path d="M167.957,87.769c.39-2.44,3.2-5.71,3.2-5.71,2.75,11.39-4.17,11.83-4.17,11.83s-6.46-2.53-.3-12.51C166.667,81.339,168.347,85.329,167.957,87.769Z" style="fill:none;stroke:#17306d;stroke-linecap:round;stroke-linejoin:round;stroke-width:1.1699999570846558px"/><path d="M164.507,120.649c-2.24-1.05-4.6-4.66-4.6-4.66,11.71.52,10.16,7.28,10.16,7.28s-4.22,5.5-12.09-3.19C157.977,120.079,162.267,119.6,164.507,120.649Z" style="fill:none;stroke:#17306d;stroke-linecap:round;stroke-linejoin:round;stroke-width:1.1699999570846558px"/><path d="M183.737,128.539c-1.27-2.49-1.78-6.17,1.83-10.54,4.36,4,4.15,7.89,3.12,10.54" style="fill:none;stroke:#17306d;stroke-linecap:round;stroke-linejoin:round;stroke-width:1.1699999570846558px"/><rect x="210.737" y="234.029" width="27.75" height="6.07" style="fill:none;stroke:#17306d;stroke-linecap:round;stroke-linejoin:round;stroke-width:2.3399999141693115px"/><rect x="238.487" y="256.499" width="17.21" height="5.05" style="fill:none;stroke:#17306d;stroke-linecap:round;stroke-linejoin:round;stroke-width:2.3399999141693115px"/><path d="M144.147,77.519c-.56-2.41.81-6.5.81-6.5,6.85,9.5.59,12.49.59,12.49s-6.93.1-5-11.46C140.547,72.049,143.587,75.109,144.147,77.519Z" style="fill:none;stroke:#17306d;stroke-linecap:round;stroke-linejoin:round;stroke-width:1.1699999570846558px"/><path d="M152.667,69.6c10.51-1.5,11.41,8.11,11.41,8.11S154.667,80.019,152.667,69.6Z" style="fill:none;stroke:#17306d;stroke-linecap:round;stroke-linejoin:round;stroke-width:1.1699999570846558px"/><path d="M136.807,45.179c4.64,9.55-4.24,13.34-4.24,13.34S127.507,50.3,136.807,45.179Z" style="fill:none;stroke:#17306d;stroke-linecap:round;stroke-linejoin:round;stroke-width:1.1699999570846558px"/><path d="M117.957,37.719s.94.58,4.6-.61a14.122,14.122,0,0,0,8-6.78s-5.69-2.69-9.08-2.59-7.74,3.21-7.74,3.21,3.43-4.3,1.44-11.58c-7.63.42-10.7,5-10.7,5s1.62-5,.66-8.25-5.34-7.69-5.34-7.69-4.13,4.27-3.69,10.03c.33,4.09,1.46,4.9,1.46,4.9" style="fill:none;stroke:#17306d;stroke-linecap:round;stroke-linejoin:round;stroke-width:2.3399999141693115px"/><path d="M102.667,36.509s3.25-1.62,9.08-1.12c5.21.45,12.05,6.57,12.05,6.57s-4.13,4.18-11.76,3.58-9.88-2.25-12.56-4.16-5.52-3.9-8.48-10.83-.25-12.15-.25-12.15,8,4.48,10.11,9.23C103.167,32.889,102.667,36.509,102.667,36.509Z" style="fill:none;stroke:#17306d;stroke-linecap:round;stroke-linejoin:round;stroke-width:2.3399999141693115px"/><path d="M112.667,7.239s-.5-1,.55-3a7.512,7.512,0,0,1,3.19-3.22,6.84,6.84,0,0,1,2.38,3.87,4.412,4.412,0,0,1-.38,3.41" style="fill:none;stroke:#17306d;stroke-linecap:round;stroke-linejoin:round;stroke-width:2.3399999141693115px"/><path d="M122.757,27.809a9.3,9.3,0,0,0,2.21-.13,7.892,7.892,0,0,0,1.79-.69c4.54-2.39,5-6.05,5-6.05a10.293,10.293,0,0,0-6.17-2.45,17.683,17.683,0,0,0-4.1.74s4.18-6.55,2.52-12.61c-6.43.36-10.34,5.63-10.34,5.63a17.738,17.738,0,0,0-.6-4.18,10.524,10.524,0,0,0-4.4-5.18s-3.42,1.61-4.28,6.73a8.074,8.074,0,0,0-.1,2,14.463,14.463,0,0,0,.53,3.63" style="fill:none;stroke:#17306d;stroke-linecap:round;stroke-linejoin:round;stroke-width:2.3399999141693115px"/><path d="M126.537,18.549s1.06.12,2.56-1.45a7.348,7.348,0,0,0,2-4,6.725,6.725,0,0,0-4.28-1c-2.29.28-3,1.38-3,1.38" style="fill:none;stroke:#17306d;stroke-linecap:round;stroke-linejoin:round;stroke-width:2.3399999141693115px"/><path d="M97.287,40.659c.08-.19-9,9.9-14.45,27.18" style="fill:none;stroke:#17306d;stroke-linecap:round;stroke-linejoin:round;stroke-width:2.3399999141693115px"/><path d="M99.927,41.889c.09-.18-9,9.91-14.44,27.18" style="fill:none;stroke:#17306d;stroke-linecap:round;stroke-linejoin:round;stroke-width:2.3399999141693115px"/><path d="M200.367,306.669c-4.39-8.48-11.61-13.35-.71-7.82,8.71,4.42,3.32,4.82,7.75,6.75,5.78,2.51,23.93,17.56,9.13,11.57-10.63-4.29-8.78,9.37-22.55-5.25-6.16-6.53-1.62-5.51,1.87-4.23S203.287,312.339,200.367,306.669Z" style="fill:url(#USGS_22_Gravel_Beach_4)"/><path d="M182.387,288.979c1,0,1.11,1.67.54,2.49a8.824,8.824,0,0,1-2.37,1.8,2.468,2.468,0,0,0-1.28,2.49c.22.75,1,1.36.9,2.13s-.84,1-1.48,1.12c-2.4.61-5,.47-7.26,1.48a7.781,7.781,0,0,0-3.69,3.52c-.52-1.48.27-3.09,1.1-4.43,2.07-3.34,4.89-6.63,8.75-7.4a16.989,16.989,0,0,0,2.76-.57C181.237,291.259,181.447,288.969,182.387,288.979Z" style="fill:url(#USGS_22_Gravel_Beach_4)"/><path d="M179.827,321.349c-.16-.64-1.5-3.62-1.86-4.78-.83-2.65-1.67-3.89-1.77-4.75-.7-5.83,3.94-9.76,3-10.71s-8,2.27-8.5,6.63c-.2,1.89.9,3.35-.11,4.75-.77,1.06-2.41,1.62-3.2,1.1s-.43-2-.78-2.1-1.73,2-4.81,9.55c0,0,5.22-.63,9.74-1A19.541,19.541,0,0,1,179.827,321.349Z" style="fill:url(#USGS_22_Gravel_Beach_4)"/><ellipse cx="186.157" cy="305.399" rx="1.51" ry="8.9" style="fill:url(#USGS_22_Gravel_Beach_4)"/><path d="M149.337,316.5a63.036,63.036,0,0,0,5.1-5.72c.65-1,13.78-15.08,4.47,1.14-2.06,3.6.46,8.6.46,8.6s-3.09-3.67-7.49-2.06C149.267,319.419,147.847,318,149.337,316.5Z" style="fill:url(#USGS_22_Gravel_Beach_4)"/><path d="M188.667,319.689c6.11-1.27,12,3,14.55,3.1s7.81-4.66,10.59-4.55" style="fill:none;stroke:#17306d;stroke-linecap:round;stroke-linejoin:round;stroke-width:2.3399999141693115px"/><path d="M211.177,302.969c-.83,0-9.82-7.74-11.55-9.63s-5.51.74-8.61-.35-7.64-7.93-11.09-4.75-10.12,3.89-14.26,11.18-4.56,4.05-7.93,7.14-2.38,4.38-8.42,9.94c-1.88,1.74,0,2.59,2.54,2,5.79-1.45,6.07,2.45,9.2,2.58s7.48-.93,13.56-.67,5,2.64,8.41,2.79,7.85-3.36,11.65-3.2" style="fill:none;stroke:#17306d;stroke-linecap:round;stroke-linejoin:round;stroke-width:2.3399999141693115px"/></g></svg>