<svg xmlns="http://www.w3.org/2000/svg" viewBox="0 0 209.19 243.28"><defs><style>.cls-1{fill:#608dc9;}.cls-2{fill:#fdd7bc;}.cls-3{fill:#488fcd;}.cls-4{fill:#fcc097;}.cls-5{fill:#596667;}.cls-6{fill:#a9bde2;}.cls-10,.cls-7{fill:#fff;}.cls-7,.cls-8{stroke:#596667;stroke-linecap:round;stroke-linejoin:round;}.cls-8{fill:none;}.cls-9{fill:#7d9fd3;}</style></defs><g id="titolo"><path class="cls-1" d="M265.21,69.11a.69.69,0,0,1,.72.65c-.33,9.28-.5,14.15-.81,23.74-.33,10.49-.36,21-.42,31.47a.6.6,0,0,1-.2.44c-5,4.46-9.84,8.59-15.66,8.59q-10.89,0-16.6-5.39c-3.22-3.05-5.48-7.8-6.82-14.24-.76-3.7-1.47-10.51-2.18-20.33-.58-8.05-1-16.19-1.2-24.29a.69.69,0,0,1,.73-.64H242.1a.68.68,0,0,1,.72.63c-.07,3.66-.16,9.36-.21,17.06,0,4.55.1,11,.25,19.38.12,6.34.57,10.66,1.45,12.88a5.32,5.32,0,0,0,5.45,3.54,4.32,4.32,0,0,0,2.57-.82c2.47-4.14-.4-18-.77-26.95-.34-8.3-1-16.71-1.5-25.06a.67.67,0,0,1,.72-.66Z" transform="translate(-156.05 -68.83)"/><path class="cls-1" d="M319.85,69.11a.59.59,0,0,1,.59.62c-.42,8.4-.76,20.49-1.08,28.68-.38,9.66-.58,19.39-.71,29.08a.4.4,0,0,1-.39.38H307a.4.4,0,0,1-.39-.39c-.08-6.49-.12-10.06-.19-16.27a.38.38,0,0,0-.71-.2c-4.15,6.85-6.5,10.71-10.83,17.74a.41.41,0,0,1-.68,0c-4.51-7-6.95-10.84-11.28-17.7a.39.39,0,0,0-.71.2c-.24,6.22-.37,9.76-.61,16.24a.4.4,0,0,1-.39.37,19.94,19.94,0,0,0-10.29,2.61.38.38,0,0,1-.56-.33c-.12-10.09-.25-20.2-.46-30.26s-.76-20.25-1.3-30.37a.4.4,0,0,1,.4-.41h17.77a.4.4,0,0,1,.38.26c.62,1.88,1.62,4.87,3.09,8.77A106.8,106.8,0,0,0,294.74,88a.38.38,0,0,0,.68,0q1.51-2.87,4.91-10.11c.82-1.82,2.13-5,3.38-8.37a.58.58,0,0,1,.55-.39Z" transform="translate(-156.05 -68.83)"/><path class="cls-1" d="M202.58,100.15a76,76,0,0,1-1.4,23.5c-1.52,6.34-3.52,10.6-6.83,12.45-.2.12-.31.27-.25.43q2.47,7.51,4.88,15c.09.28-.27.55-.79.58H183.74c-.51,0-1-.17-1-.45-2-13.13-3.55-25.36-5.19-38.5q-2.7-21.07-5.44-42.17c0-.15.08-.31.3-.41,2.15-1,5.28-1.5,9.41-1.5,5.31,0,10,2.65,13.5,7.42C200.62,83.83,202,92.33,202.58,100.15Zm-7.12,10.47q-.87-8-4.45-7.22a2.68,2.68,0,0,0-.85.36L192.05,121c.06.52,1.35.65,1.75.17Q196.27,118.27,195.46,110.62Z" transform="translate(-156.05 -68.83)"/><path class="cls-1" d="M218.6,69.64l2.92,64.07c0,.61,1.24.82,1.71.3l2.81-3.09a1.66,1.66,0,0,1,2.19,0l9,10.39c.31.35.18.8-.29,1.06l-22.31,13.83c-.79.44-2,.1-2.08-.58l-8.88-85.76c0-.47.52-.88,1.25-.89l12.4-.15C218,68.82,218.58,69.19,218.6,69.64Z" transform="translate(-156.05 -68.83)"/><path class="cls-1" d="M352,148.47h-10.2a1.37,1.37,0,0,1-1.37-1.21c-.59-5-2.3-22.36-2.65-25.9a.72.72,0,0,0-.7-.65l-6-.16a.76.76,0,0,0-.78.64c-.4,2.48-1.64,9.1-2.19,12.29a.45.45,0,0,1-.71.28l-5.66-4.2a.42.42,0,0,1-.18-.42c1.72-11.31,4.11-25.66,5.61-36.88,1.06-7.94,1.93-15.64,2.68-23,9.85-.08,6.62,0,16.47-.11L353.32,147A1.38,1.38,0,0,1,352,148.47ZM336.87,113c-.23-2.07-1.14-9.36-1.78-13.5a.34.34,0,0,0-.66,0c-.35,1.57-.82,3.68-1.4,6.31q-.63,3-1.5,8.17a.37.37,0,0,0,.4.44,24.66,24.66,0,0,0,4.73-1A.36.36,0,0,0,336.87,113Z" transform="translate(-156.05 -68.83)"/></g><g id="soggetto"><path class="cls-2" d="M157.54,307.12c2.65-6.62,7.61-10.43,13.9-10.76s12.75-.33,16.23-3.64c0,0-6.25-8.94-4-23.67a58,58,0,0,1,10.82-25.33s-7.45,4.8-9.93,2,.5-12.06,2.65-14.55,6.4-7,12.3-3.33,8.22,5.13,8.22,5.13,6.95-26.31,30.62-40.22,55.78-15.72,72.8-8.11c12.07,5.41,27.25,22.51,33.13,42.54s4.64,34.76,1.33,44.69-10.26,28.47-20.69,28.47S311.8,299,311.8,299a3.11,3.11,0,0,1,0,3.14c-1,1.49-4,.33-4,.33s2.81,4.64-.16,4.64-6.71-.58-15.73-5.47c-3.91-2.11-11.94-1.16-15.9-1-7.82.33-25.67-1.74-25.67-1.74s-8.5,7-33.41,6.87c-4.33,0-12.08-1.41-15.39-1.12a93.54,93.54,0,0,0-14.24,2.45c-4,1.15-12.22,4.13-19.52,4.13h-8.12s.17-3.14,1.49-4.47S157.54,307.12,157.54,307.12Z" transform="translate(-156.05 -68.83)"/><path class="cls-3" d="M159,307c2.14-5.23,6.26-9.34,12.1-9.73s13.06,0,17.75-4.23a.62.62,0,0,0,.17-.85c-3-4.35-4.14-10.37-4.37-15.52-.42-9.67,2.82-19.4,7.69-27.66a41.85,41.85,0,0,1,3.48-5.18c.33-.42-.12-.78-.48-.88a2.42,2.42,0,0,0-1.79.35,14.34,14.34,0,0,1-5.76,2.44c-3.4.39-2.84-4.39-2.45-6.49.57-3,1.6-6.27,3.72-8.57a10.94,10.94,0,0,1,3.87-3c2.25-.87,4.33.24,6.23,1.41,2.47,1.53,4.95,3.06,7.4,4.63a2.08,2.08,0,0,0,2.6-.89,57.15,57.15,0,0,1,3.94-10.1,73.19,73.19,0,0,1,14.52-20.55c7.77-7.63,17.51-12.8,27.81-16.18a97,97,0,0,1,31.85-4.91c8.59.15,17.78,1.36,25.37,5.66,8.63,4.89,15.6,12.85,20.95,21.07a84.74,84.74,0,0,1,12.39,34c1.4,9.37,1.37,19.12-1.26,28.28a105.14,105.14,0,0,1-4.13,11.47,56.3,56.3,0,0,1-6.45,11.86c-2,2.73-4.93,5.9-8.59,6.06a42.74,42.74,0,0,1-11.72-.92l-.84-.24c.37.11.05,0,0,0-.71-.35-3.13.17-2.49,1.31,0,0,.23.6.27.82a2.53,2.53,0,0,1,0,1.16l-.25.53c.27-.06.33-.08.16-.06a2.75,2.75,0,0,1-1.13-.14c-.12,0-.7-.22-.5-.14-.68-.26-3.2.13-2.49,1.3a9.34,9.34,0,0,1,.83,1.82c.15.46.14.91.25,1.35,0,0-.07.22-.05.25l0,0c-.11.23.08.14.6-.26a2.43,2.43,0,0,0-.47,0,28.45,28.45,0,0,1-5.29-1,82.39,82.39,0,0,1-9.49-4.39c-2.83-1.38-6.28-1.42-9.36-1.36-2.85.05-5.69.37-8.54.38s-5.56-.14-8.33-.33c-4.92-.33-9.84-.79-14.74-1.33a7.62,7.62,0,0,0-1-.11,3,3,0,0,0-1.72.59c-.17.11.19-.14.16-.12a17.21,17.21,0,0,1-1.57,1c-.46.26-.7.38-1.39.7s-1.4.62-2.12.89a46.63,46.63,0,0,1-6.14,1.84,84.56,84.56,0,0,1-21,2c-3.28-.08-6.54-.57-9.8-.89a36.52,36.52,0,0,0-8.36.11,94.23,94.23,0,0,0-10.16,1.77c-3,.71-5.86,1.77-8.82,2.58a46.28,46.28,0,0,1-12.08,1.9c-2.38,0-4.79-.12-7.16,0h-.47l.9.69a9.38,9.38,0,0,1,.61-3c.28-.69,1.72-1.83.72-2.48-.78-.52-2.23-.06-3,.13s-1.42.38-2.12.61c-.44.15-1.41.53-1.24,1.16s1.24.53,1.66.39.93-.3,1.4-.43a6.68,6.68,0,0,0,1.11-.28l.33,0c-.09.14-.53-.63-.58-.63-.69.1-1.29,2.24-1.42,2.76a10.48,10.48,0,0,0-.35,2.15c0,.5.47.7.9.7h4.08a61.46,61.46,0,0,0,14-1.29c3.79-.87,7.44-2.2,11.19-3.18a82.64,82.64,0,0,1,11.68-2c3.47-.38,7,.2,10.42.56a83,83,0,0,0,13,.29,73.63,73.63,0,0,0,20.67-3.64,23.85,23.85,0,0,0,7.36-3.67l-1.72.6a195.3,195.3,0,0,0,24.39,1.77c2.49,0,5-.29,7.46-.37,2.79-.08,6-.21,8.64.95,2.94,1.31,5.68,3,8.71,4.14a25.23,25.23,0,0,0,5.58,1.53c1.77.23,4.68.62,5.67-1.29.74-1.42-.37-3.4-1.1-4.62l-2.49,1.31a6.74,6.74,0,0,0,5,.14,3.38,3.38,0,0,0,1.44-4.92l-2.49,1.3a17.28,17.28,0,0,0,5.73,1.13c4.6.46,9.72,1,13.92-1.25,3.73-2,6.45-5.62,8.61-9.19a77.43,77.43,0,0,0,6-12.84,79,79,0,0,0,3.6-11.53,63.32,63.32,0,0,0,1.25-14.21,87.58,87.58,0,0,0-8.43-36.21,75.93,75.93,0,0,0-20.42-26.25,40.33,40.33,0,0,0-11-6.4,58.44,58.44,0,0,0-13.38-3.09,96.05,96.05,0,0,0-32.5,2c-11.2,2.53-22.44,6.87-31.75,13.69a72.77,72.77,0,0,0-25.88,36.73c-.08.27-.16.53-.23.8l2.6-.89c-2.83-1.82-5.67-3.73-8.61-5.36-4.41-2.45-9.24-1-12.69,2.35a18.59,18.59,0,0,0-5,10c-.63,3.1-.9,7.82,3.29,8.19,3.3.29,6.87-1.5,9.58-3.24l-2.26-.52a53.83,53.83,0,0,0-8.39,15.64c-3.28,9.11-4.25,19.32-1,28.57a23.09,23.09,0,0,0,2.59,5.42l.17-.86c-2.26,2.08-5.56,2.44-8.49,2.7-3.29.29-6.69.09-9.9.92-5.76,1.51-9.8,5.84-12,11.22-.26.64.94.72,1.27.68A1.91,1.91,0,0,0,159,307Z" transform="translate(-156.05 -68.83)"/><path class="cls-4" d="M183.31,278.75c4.69-14.67,10.74-26.18,27.1-33,18.59-7.79,36.31-2.48,36.31-2.48a33.78,33.78,0,0,1,6-7.19c3.27-2.69,9.44,1.07,12.07,7.19s3.86,11.35,1.93,11.22a4.35,4.35,0,0,0-3.07.92l1.14,16.69-7.23,20.65L246.72,301s-6.23,4.89-24.69,4.29-25.35,0-25.35,0-17.2,4.93-23,5.46-14,.52-14,.52l1.7-4.89a18.22,18.22,0,0,1,10.39-6.2c6.95-1.49,15.89-6.47,15.89-6.47l-3.29-8.79Z" transform="translate(-156.05 -68.83)"/><path class="cls-4" d="M213.45,234.78c11-14.89,30.6-31.05,53.3-33.23s50.21-.4,65.25,18.5,16.31,29.63,16.18,38.24-8.74,29.61-8.74,29.61l-8.06,9.92-4.57,2.3-12.65-.5-2,.5-1.08,2.28-3.28.08,1,2.19L307,307.1l-19.86-7.63-16.68,1.14-20.09-2.4,7.22-5.49,7.23-20.65-1.14-16.69,3.07-.92,3.21-4.7-.16-8.61-2.11-7L261.57,232l-4.49.85-9.7,8.21-9.56-5.1-9.47-3.31-7-.25Z" transform="translate(-156.05 -68.83)"/><path class="cls-5" d="M159,307c2.14-5.23,6.26-9.34,12.1-9.73s13.06,0,17.75-4.23a.62.62,0,0,0,.17-.85c-3-4.35-4.14-10.37-4.37-15.52-.42-9.67,2.82-19.4,7.69-27.66a41.85,41.85,0,0,1,3.48-5.18c.33-.42-.12-.78-.48-.88a2.42,2.42,0,0,0-1.79.35,14.34,14.34,0,0,1-5.76,2.44c-3.4.39-2.84-4.39-2.45-6.49.57-3,1.6-6.27,3.72-8.57a10.94,10.94,0,0,1,3.87-3c2.25-.87,4.33.24,6.23,1.41,2.47,1.53,4.95,3.06,7.4,4.63a2.08,2.08,0,0,0,2.6-.89,57.15,57.15,0,0,1,3.94-10.1,73.19,73.19,0,0,1,14.52-20.55c7.77-7.63,17.51-12.8,27.81-16.18a97,97,0,0,1,31.85-4.91c8.59.15,17.78,1.36,25.37,5.66,8.63,4.89,15.6,12.85,20.95,21.07a84.74,84.74,0,0,1,12.39,34c1.4,9.37,1.37,19.12-1.26,28.28a105.14,105.14,0,0,1-4.13,11.47,56.3,56.3,0,0,1-6.45,11.86c-2,2.73-4.93,5.9-8.59,6.06a42.74,42.74,0,0,1-11.72-.92l-.84-.24c.37.11.05,0,0,0-.71-.35-3.13.17-2.49,1.31,0,0,.23.6.27.82a2.53,2.53,0,0,1,0,1.16l-.25.53c.27-.06.33-.08.16-.06a2.75,2.75,0,0,1-1.13-.14c-.12,0-.7-.22-.5-.14-.68-.26-3.2.13-2.49,1.3a9.34,9.34,0,0,1,.83,1.82c.15.46.14.91.25,1.35,0,0-.07.22-.05.25l0,0c-.11.23.08.14.6-.26a2.43,2.43,0,0,0-.47,0,28.45,28.45,0,0,1-5.29-1,82.39,82.39,0,0,1-9.49-4.39c-2.83-1.38-6.28-1.42-9.36-1.36-2.85.05-5.69.37-8.54.38s-5.56-.14-8.33-.33c-4.92-.33-9.84-.79-14.74-1.33a7.62,7.62,0,0,0-1-.11,3,3,0,0,0-1.72.59c-.17.11.19-.14.16-.12a17.21,17.21,0,0,1-1.57,1c-.46.26-.7.38-1.39.7s-1.4.62-2.12.89a46.63,46.63,0,0,1-6.14,1.84,84.56,84.56,0,0,1-21,2c-3.28-.08-6.54-.57-9.8-.89a36.52,36.52,0,0,0-8.36.11,94.23,94.23,0,0,0-10.16,1.77c-3,.71-5.86,1.77-8.82,2.58a46.28,46.28,0,0,1-12.08,1.9c-2.38,0-4.79-.12-7.16,0h-.47l.9.69a9.38,9.38,0,0,1,.61-3c.28-.69,1.72-1.83.72-2.48-.78-.52-2.23-.06-3,.13s-1.42.38-2.12.61c-.44.15-1.41.53-1.24,1.16s1.24.53,1.66.39.93-.3,1.4-.43a6.68,6.68,0,0,0,1.11-.28l.33,0c-.09.14-.53-.63-.58-.63-.69.1-1.29,2.24-1.42,2.76a10.48,10.48,0,0,0-.35,2.15c0,.5.47.7.9.7h4.08a61.46,61.46,0,0,0,14-1.29c3.79-.87,7.44-2.2,11.19-3.18a82.64,82.64,0,0,1,11.68-2c3.47-.38,7,.2,10.42.56a83,83,0,0,0,13,.29,73.63,73.63,0,0,0,20.67-3.64,23.85,23.85,0,0,0,7.36-3.67l-1.72.6a195.3,195.3,0,0,0,24.39,1.77c2.49,0,5-.29,7.46-.37,2.79-.08,6-.21,8.64.95,2.94,1.31,5.68,3,8.71,4.14a25.23,25.23,0,0,0,5.58,1.53c1.77.23,4.68.62,5.67-1.29.74-1.42-.37-3.4-1.1-4.62l-2.49,1.31a6.74,6.74,0,0,0,5,.14,3.38,3.38,0,0,0,1.44-4.92l-2.49,1.3a17.28,17.28,0,0,0,5.73,1.13c4.6.46,9.72,1,13.92-1.25,3.73-2,6.45-5.62,8.61-9.19a77.43,77.43,0,0,0,6-12.84,79,79,0,0,0,3.6-11.53,63.32,63.32,0,0,0,1.25-14.21,87.58,87.58,0,0,0-8.43-36.21,75.93,75.93,0,0,0-20.42-26.25,40.33,40.33,0,0,0-11-6.4,58.44,58.44,0,0,0-13.38-3.09,96.05,96.05,0,0,0-32.5,2c-11.2,2.53-22.44,6.87-31.75,13.69a72.77,72.77,0,0,0-25.88,36.73c-.08.27-.16.53-.23.8l2.6-.89c-2.83-1.82-5.67-3.73-8.61-5.36-4.41-2.45-9.24-1-12.69,2.35a18.59,18.59,0,0,0-5,10c-.63,3.1-.9,7.82,3.29,8.19,3.3.29,6.87-1.5,9.58-3.24l-2.26-.52a53.83,53.83,0,0,0-8.39,15.64c-3.28,9.11-4.25,19.32-1,28.57a23.09,23.09,0,0,0,2.59,5.42l.17-.86c-2.26,2.08-5.56,2.44-8.49,2.7-3.29.29-6.69.09-9.9.92-5.76,1.51-9.8,5.84-12,11.22-.26.64.94.72,1.27.68A1.91,1.91,0,0,0,159,307Z" transform="translate(-156.05 -68.83)"/><path class="cls-6" d="M237.82,169.86l22.7,29.76,5.27,2.56a92.44,92.44,0,0,1,15.89-8.44c8.12-3.16,16.72-6.13,16.72-6.13h-3.79l19.08-29.17,4.19-8-4.75-11.7-8.57-5.84-4.84,10.43s-5.87-.69-8,3.49-4.75,13.25-4.75,13.25-7.47-2.26-17.37,8.83l-8-16.39-6.7.52-4.5-8s-16.62,8.3-15.33,18.07S237.82,169.86,237.82,169.86Z" transform="translate(-156.05 -68.83)"/><ellipse class="cls-7" cx="55.09" cy="209.92" rx="6.48" ry="6.14"/><path class="cls-5" d="M206.57,233.78l3.48,3.15c.52.47,1.6.16,2.07-.19a21.19,21.19,0,0,1,13.7-3.37c5.79.59,11.45,3.48,16.49,6.24,1.33.73,2.66,1.48,3.95,2.29a1.94,1.94,0,0,0,2.07-.19c1-.92,2-1.85,3-2.79a51.89,51.89,0,0,1,4.45-4.2c2.25-1.66,5.65-2.34,8.17-.88,2,1.16,2.92,3.31,3.67,5.4A21.17,21.17,0,0,1,269,246a10.63,10.63,0,0,1-.73,4.43c-.41.88-1.21,2.93-2.33,3-2.07.09-4.15-2.55-5.19-4a13.18,13.18,0,0,1-2.7-7.36c0-1.48-2.94-1-2.93.24,0,4.82,3.25,10.7,7.83,12.65a5.24,5.24,0,0,0,6.33-1.29,12.18,12.18,0,0,0,2.3-4.57,16.32,16.32,0,0,0,0-6.64c-.49-2.83-1.43-6.11-3.27-8.38-2.77-3.43-7.53-3.67-11.41-2.22a15.69,15.69,0,0,0-5.48,3.89c-1.15,1.11-2.32,2.21-3.49,3.29l-1.15,1.06-.4.36,2.08-.19a81.29,81.29,0,0,0-11.95-6.16,35.58,35.58,0,0,0-9.57-2.76,25.2,25.2,0,0,0-11,1.3,23.2,23.2,0,0,0-5.81,2.84l2.08-.18-3.48-3.15c-.92-.83-3.46.54-2.24,1.64Z" transform="translate(-156.05 -68.83)"/><path class="cls-5" d="M251.3,299.49a37.31,37.31,0,0,0,9.18-10.1A31.69,31.69,0,0,0,264.84,278a76.27,76.27,0,0,0,1.44-13.64,38.24,38.24,0,0,0-1.63-11.1c-.36-1.2-3.25-.41-2.89.77,2.14,7.05,1.76,14.27.63,21.48a35,35,0,0,1-3.72,12,36.06,36.06,0,0,1-5.76,7.64,28,28,0,0,1-3.48,3.13c-.47.34-.76.94-.19,1.34a2,2,0,0,0,2.06-.21Z" transform="translate(-156.05 -68.83)"/><path class="cls-5" d="M186.31,293.24a39.07,39.07,0,0,0,5.54,6.62,35.69,35.69,0,0,0,8.54,5.44,2.72,2.72,0,0,0,2-.33c.37-.2.9-.64.31-.92a33.57,33.57,0,0,1-8.28-5.33,40.12,40.12,0,0,1-5.44-6.53c-.46-.64-3.26.29-2.71,1.05Z" transform="translate(-156.05 -68.83)"/><path class="cls-5" d="M232.33,305.63c2.33-.75,4.65-1.94,5.75-4.25a9.7,9.7,0,0,0,.76-5.47,12.6,12.6,0,0,0-3.74-6.86,10.31,10.31,0,0,0-5.93-2.82,39.41,39.41,0,0,0-14.39.84c-4.12.94-9.37,3.43-10.59,7.87s.52,9.89,5.21,11.14a2.35,2.35,0,0,0,2-.55c.44-.44.32-.92-.29-1.08-3.58-.95-4.57-5.07-4.31-8.33.32-4,4.05-6.39,7.53-7.32a36.57,36.57,0,0,1,11.17-1.1,11.63,11.63,0,0,1,5.07,1.13,11.44,11.44,0,0,1,4.43,5c1.75,3.71,1.28,8.82-3.13,10.24-.44.15-1.41.52-1.24,1.16s1.24.51,1.65.37Z" transform="translate(-156.05 -68.83)"/><path class="cls-5" d="M206.87,268.8a53,53,0,0,1,6.35-2.57,29.83,29.83,0,0,1,6.76-1.44,25,25,0,0,1,6.91.37c.56.11,1.13.23,1.68.39s1.12.27,1.66.46a32.57,32.57,0,0,1,3.2,1.24c-1.12-.25-2.21-.57-3.33-.76-.55-.14-1.11-.23-1.66-.33s-1.11-.18-1.67-.24a32.75,32.75,0,0,0-6.71-.14,41.77,41.77,0,0,0-6.62,1.18c-1.1.28-2.19.59-3.28.91S208,268.51,206.87,268.8Z" transform="translate(-156.05 -68.83)"/><path class="cls-5" d="M209.29,265.51a18.18,18.18,0,0,1,5-2.23,28.81,28.81,0,0,1,5.38-1,28.46,28.46,0,0,1,5.46.06,14.87,14.87,0,0,1,5.24,1.48,23.86,23.86,0,0,0-5.3-.7,45,45,0,0,0-5.32.16,44.56,44.56,0,0,0-5.27.75A32.43,32.43,0,0,0,209.29,265.51Z" transform="translate(-156.05 -68.83)"/><path class="cls-8" d="M205.36,293.69c4-6.33,9.47-11.17,16.67-11.55s16.68,2.76,16.68,2.76" transform="translate(-156.05 -68.83)"/><path class="cls-5" d="M210.18,287a32.82,32.82,0,0,1,13.23-3.23,18.17,18.17,0,0,1,6.75.9,23.5,23.5,0,0,1,5.94,3.25,23.41,23.41,0,0,0-6-3,18,18,0,0,0-6.65-.64,32,32,0,0,0-12.79,3.62h0a.49.49,0,0,1-.67-.2.5.5,0,0,1,.2-.68Z" transform="translate(-156.05 -68.83)"/><path class="cls-5" d="M226.3,281.77c2,.62,4,1.31,5.95,2.11,1,.4,1.93.83,2.87,1.31a18,18,0,0,1,2.7,1.61,17.91,17.91,0,0,0-2.81-1.39c-1-.39-1.94-.74-2.94-1.06-2-.64-4-1.16-6-1.61a.5.5,0,1,1,.22-1Z" transform="translate(-156.05 -68.83)"/><ellipse class="cls-7" cx="75.29" cy="208.43" rx="6.48" ry="6.14"/><path class="cls-5" d="M216.91,281.54a7.62,7.62,0,0,1,2.15-1,12.33,12.33,0,0,1,2.32-.44,13.3,13.3,0,0,1,2.36,0,6.37,6.37,0,0,1,2.28.63c-.79,0-1.54.1-2.3.15l-2.25.19C220,281.23,218.49,281.39,216.91,281.54Z" transform="translate(-156.05 -68.83)"/><path class="cls-5" d="M205.35,287.43c1.31-.55,2.62-1.07,3.94-1.57a14.29,14.29,0,0,1,2-.71,8.05,8.05,0,0,1,2.16-.19.06.06,0,0,1,.05.06l0,0a7.82,7.82,0,0,1-1.89,1.05,14.45,14.45,0,0,1-2.06.52c-1.38.33-2.76.63-4.15.9,0,0-.05,0-.06,0A.06.06,0,0,1,205.35,287.43Z" transform="translate(-156.05 -68.83)"/><path class="cls-5" d="M221.11,287A140,140,0,0,0,222,302.4,139.18,139.18,0,0,1,220.11,287a.5.5,0,1,1,1-.06Z" transform="translate(-156.05 -68.83)"/><circle class="cls-5" cx="56.71" cy="209.92" r="2.02"/><circle class="cls-5" cx="73.5" cy="208.66" r="2.02"/><ellipse class="cls-5" cx="215.01" cy="297.12" rx="3.93" ry="2.88" transform="translate(-305.86 265.93) rotate(-60)"/><ellipse class="cls-5" cx="228.04" cy="296.62" rx="2.88" ry="3.93" transform="translate(-273.81 84.93) rotate(-30)"/><path class="cls-5" d="M277,283.9c12.81.72,24,8.05,33.66,15.88.87.7,3.48-.57,2.27-1.55-10.06-8.12-21.61-15.48-34.87-16.23a2.07,2.07,0,0,0-1.9.85c-.29.62.25,1,.84,1Z" transform="translate(-156.05 -68.83)"/><path class="cls-5" d="M321.86,247.59c2.32,7.48,3.45,15.41,1.69,23.12-1.64,7.17-4.34,14.37-9.14,20a40,40,0,0,1-4.46,4.46,19.5,19.5,0,0,1-1.7,1.33c-.45.29-.81.76-.26,1.13a2.31,2.31,0,0,0,2.05-.27,35.59,35.59,0,0,0,12.11-14.49c3-6.31,5.21-13.41,5.2-20.43a53,53,0,0,0-2.59-15.65c-.32-1-3.21-.21-2.9.78Z" transform="translate(-156.05 -68.83)"/><path class="cls-5" d="M321.31,290.8c-3.66,2.12-8,4.5-9.35,8.83-.2.65.88.78,1.28.73a1.87,1.87,0,0,0,1.63-1.05,7.1,7.1,0,0,1,1-2l.33-.45c-.15.21.06-.06.1-.1l.22-.26q.45-.47.93-.9l.55-.46c-.17.14.05,0,.11-.08l.29-.22c.44-.33.9-.64,1.37-1,1.11-.73,2.26-1.41,3.42-2.08.46-.27.8-.92.22-1.26a2.2,2.2,0,0,0-2.06.24Z" transform="translate(-156.05 -68.83)"/><path class="cls-5" d="M332.36,249.35a31,31,0,0,0-7.92,14.85c-.3,1.39,2.66,1,2.93-.24a28.69,28.69,0,0,1,7.41-13.78.83.83,0,0,0-.37-1.38,2.08,2.08,0,0,0-2.05.55Z" transform="translate(-156.05 -68.83)"/><path class="cls-5" d="M343.36,219.49a38.23,38.23,0,0,0,3.3,2.17,14.88,14.88,0,0,0,3.42,1.55,5.05,5.05,0,0,0,3.21.06,4.85,4.85,0,0,0,2.37-2.22c1.15-2.08,2.27-5,1.21-6.7a2.94,2.94,0,0,0-2.7-1.25,2.39,2.39,0,0,0-1.37.55,3.36,3.36,0,0,0-.82,1.4,5.24,5.24,0,0,0,.21,3.51,3.36,3.36,0,0,0,1.1,1.35,4.14,4.14,0,0,0,.76.56,4.54,4.54,0,0,0,.83.47,7,7,0,0,0,7.26-.65,6.58,6.58,0,0,0,2.24-3.12,11.88,11.88,0,0,0,.43-4,13.16,13.16,0,0,0-.8-4,6.68,6.68,0,0,0-2.33-3.25,6.8,6.8,0,0,1,2.51,3.18,13.49,13.49,0,0,1,1,4,11.94,11.94,0,0,1-.27,4.16,7.08,7.08,0,0,1-2.31,3.53,7.93,7.93,0,0,1-8.19,1.1,5.93,5.93,0,0,1-1-.5,4.67,4.67,0,0,1-.91-.61,4.5,4.5,0,0,1-1.52-1.73,6.15,6.15,0,0,1-.62-2.2,6.08,6.08,0,0,1,.15-2.28,4.78,4.78,0,0,1,1.15-2.14,4,4,0,0,1,2.3-1.09,5,5,0,0,1,2.44.32,4.4,4.4,0,0,1,2,1.58,5.11,5.11,0,0,1,.82,2.36,8.63,8.63,0,0,1-.14,2.34,16.84,16.84,0,0,1-1.5,4.14,7.15,7.15,0,0,1-3.38,3.36,7.57,7.57,0,0,1-4.82.23,17.88,17.88,0,0,1-4.1-1.62c-1.28-.66-2.47-1.41-3.65-2.17a1.5,1.5,0,1,1,1.61-2.53l.06,0Z" transform="translate(-156.05 -68.83)"/><path class="cls-5" d="M269.89,169.47a57.61,57.61,0,0,0-5.22-15.76c-.49-1-3.32-.1-2.9.77A57.45,57.45,0,0,1,267,170.25c.16,1,3.08.32,2.9-.78Z" transform="translate(-156.05 -68.83)"/><path class="cls-5" d="M288.44,149.68c-.95,3.8-1.84,7.64-2.95,11.4-.19.63.89.66,1.25.62.56-.07,1.46-.36,1.64-1,1.12-3.75,2-7.59,3-11.39.27-1.06-2.65-.63-2.9.36Z" transform="translate(-156.05 -68.83)"/><polygon class="cls-9" points="157.63 89.61 138.56 118.78 130.88 122.81 149.63 91.8 157.63 89.61"/><path class="cls-9" d="M290,162.43l1.86-5.11,3.72,1.49,1.46-2.48s-3.07-2.28-2.33-5.11,1.95-5.57,5.41-6.92c2.44-1-.86-1.76-.86-1.76l-6.84,3.14-2.9,5.51-3.12,9.61Z" transform="translate(-156.05 -68.83)"/><path class="cls-9" d="M268.44,169.86l-2.73-12.54-6.83-4.83-3.85.61s2.11,0,3.72,3.35,2.12,7.08,0,9.44-3.72-4.72-3.72-4.72l-3-1.36h-3.41L246,162.43l-2.61-3.74,11-5.34-4.82-8.94-2.88,2.49,3.36,4.74a27.26,27.26,0,0,0-7.34,3.75c-3.71,2.68-6.57,5.89-6.94,8.69a11.1,11.1,0,0,0,1.24,5.78l22.1,28.06,7.82,3.47-21.85-30a19.84,19.84,0,0,0,12-2.36c5.52-3.35,5.15-5.71,5.15-5.71l2.36,14.28Z" transform="translate(-156.05 -68.83)"/><path class="cls-5" d="M262.92,199.08c-5.95-8.18-13.09-15.38-19.54-23.15-2.3-2.78-4.76-5.71-6.15-9.07-1.57-3.79-.28-7.83,1.87-11.12a29.11,29.11,0,0,1,11.81-10.21l-2-.1,4,6.6c.53.85,3.27-.18,2.9-.78l-4-6.59c-.36-.58-1.51-.33-2-.1a33.84,33.84,0,0,0-11.54,8.75c-2.69,3.19-5.09,7.35-4.65,11.67.35,3.49,2.83,6.67,4.89,9.35,3,3.94,6.39,7.61,9.68,11.32,4.17,4.69,8.31,9.43,12,14.51.49.68,3.29-.27,2.7-1.08Z" transform="translate(-156.05 -68.83)"/><path class="cls-5" d="M235.19,169.38a16.24,16.24,0,0,0,12.39,2.4,39.27,39.27,0,0,0,7.79-2.27,22.79,22.79,0,0,0,6.46-3.61c2.64-2.22,4.55-5.5,4.05-9-.4-2.8-2-4.68-4.81-5-3.36-.43-6.87.48-10,1.59a29.34,29.34,0,0,0-9.66,5.34c-1.92,1.67-5.39,5.85-3.21,8.43,1,1.13,2.7,1.36,4.09,1.42a17.05,17.05,0,0,0,6.06-.86,16.3,16.3,0,0,0,6.22-3.74c.83-.82,2.4-2.38,1.68-3.67s-2.76-1.57-4.07-1.53a10.13,10.13,0,0,0-7,3.4c-.24.26-.39.47-.19.8l2.23,3.58c.5.79,3.32-.13,2.69-1.13l-2.22-3.58-.19.79c1.07-1.13,2.46-2.39,4.14-2.23.65.06,1.84.41,1.84,1.22,0,1-1.51,2.16-2.19,2.71a11.42,11.42,0,0,1-4.58,2.31c-1.7.38-5.81,1-6.22-1.51s2.18-5.2,4-6.62a26.46,26.46,0,0,1,7.39-3.86,18,18,0,0,1,7.3-1.31c2.14.19,3.15,1.52,3.64,3.56a8.16,8.16,0,0,1-1.93,7.14c-2.82,3.34-7.64,4.93-11.76,5.89-3.91.91-7.92.65-11.27-1.71a2.07,2.07,0,0,0-1.92,0c-.24.11-1.32.77-.77,1.15Z" transform="translate(-156.05 -68.83)"/><path class="cls-5" d="M259.59,165.91l-3-4.91-.42-.71c-.14-.22-.58-.31-.81-.33a2.37,2.37,0,0,0-1.14.21c-.51.25-1.09.73-.73,1.33l3,4.91.42.7c.14.23.58.32.81.34a2.37,2.37,0,0,0,1.14-.21c.51-.25,1.09-.74.72-1.33Z" transform="translate(-156.05 -68.83)"/><path class="cls-5" d="M313.68,156.63c-6.92,9.21-12.89,19.17-18.78,29.06-.55.91-1.09,1.83-1.63,2.75-.65,1.11,2.23.77,2.68,0,4.66-8,9.5-15.83,14.6-23.5,1.87-2.82,3.78-5.61,5.81-8.31.41-.54-.35-.76-.76-.77a2.49,2.49,0,0,0-1.92.77Z" transform="translate(-156.05 -68.83)"/><path class="cls-6" d="M273.32,197.83a9.34,9.34,0,0,1-5.65-1.31c-6.19-3.86-6.27-14.9-.19-24.65s16-14.53,22.21-10.67,6.27,14.89.19,24.64a30.78,30.78,0,0,1-5.83,6.92" transform="translate(-156.05 -68.83)"/><path class="cls-5" d="M273.5,197c-6.57.32-9.31-6.23-9.06-11.81a29.1,29.1,0,0,1,8.05-18c3.23-3.43,8.18-7.16,13.21-6.31,5.33.91,7.36,6.55,7.23,11.36-.21,7.71-4.36,15.25-10.05,20.3-.48.43-.27.93.3,1.09a2.34,2.34,0,0,0,2-.55c5.76-5.11,10.09-12.67,10.58-20.46.35-5.59-1.72-11.74-7.71-13.24-5.77-1.45-11.87,1.73-16.07,5.45-5.55,4.92-9.69,12.19-10.4,19.63a15.52,15.52,0,0,0,1.91,9.88c2.1,3.32,5.81,4.57,9.6,4.38.52,0,1.56-.39,1.64-1s-.82-.7-1.27-.68Z" transform="translate(-156.05 -68.83)"/><path class="cls-9" d="M273.61,197.34a6.76,6.76,0,0,1-3.55-1c-5.19-3.24-4.71-13.38,1.08-22.66s14.68-14.17,19.87-10.94,4.71,13.39-1.08,22.66a32.11,32.11,0,0,1-6.48,7.61" transform="translate(-156.05 -68.83)"/><path class="cls-5" d="M274.54,196.7c-6-.25-7.11-6.85-6.43-11.62a31.66,31.66,0,0,1,8.51-16.88c2.75-2.91,7.35-6.91,11.73-5.54,4.76,1.49,5.22,7.59,4.56,11.71a32,32,0,0,1-10.78,18.71c-.52.45.46.57.71.56a3.22,3.22,0,0,0,1.93-.71,32.91,32.91,0,0,0,10.91-18.48c.86-4.66.47-11.17-4.86-12.94-4.91-1.63-10.55,1.36-14.23,4.41a33.1,33.1,0,0,0-11,17.59c-1.37,5.88-.59,14.15,7.05,14.46a3.1,3.1,0,0,0,2.05-.55c.37-.32.46-.69-.19-.72Z" transform="translate(-156.05 -68.83)"/><path class="cls-9" d="M274.25,197.32c-.21,0-.43,0-.64,0" transform="translate(-156.05 -68.83)"/><path class="cls-1" d="M274.87,196.69h-.33a2.79,2.79,0,0,0-.5,0,2.87,2.87,0,0,0-.57.11,2.47,2.47,0,0,0-.54.19,2.3,2.3,0,0,0-.44.23l-.2.17a.33.33,0,0,0-.13.31l.09.12a.82.82,0,0,0,.43.12c.32,0,.64,0,1,0a3.6,3.6,0,0,0,.56-.08,2.87,2.87,0,0,0,.57-.17,2,2,0,0,0,.47-.22,1.12,1.12,0,0,0,.33-.24l.12-.17a.22.22,0,0,0-.07-.27l-.18-.08a1.83,1.83,0,0,0-.57,0Z" transform="translate(-156.05 -68.83)"/><path class="cls-5" d="M295.26,187.2l2,1.11,1-1.41c-5.84,1.88-11.65,3.93-17.29,6.33a117.76,117.76,0,0,0-16,8.53l2.05-.28a35.38,35.38,0,0,0-9-3.78l.27,1,1.92-1.44c.52-.38.26-.86-.27-1a2.64,2.64,0,0,0-2.05.55l-1.92,1.43c-.52.39-.27.87.27,1a33.48,33.48,0,0,1,8.44,3.61,2.36,2.36,0,0,0,2.05-.27,111.16,111.16,0,0,1,15.38-8.2c5.39-2.3,10.95-4.28,16.53-6.08.44-.14,1.92-.87,1-1.4l-2-1.11c-.82-.45-3.49.74-2.31,1.39Z" transform="translate(-156.05 -68.83)"/><path class="cls-5" d="M296.69,158.22a32.47,32.47,0,0,1,4.36-7.8c.38-.52-.34-.66-.73-.64a2.78,2.78,0,0,0-1.93.73,34.6,34.6,0,0,0-4.58,8.15c-.21.56,1,.47,1.2.43.51-.09,1.46-.3,1.68-.87Z" transform="translate(-156.05 -68.83)"/><path class="cls-9" d="M308,160.29a18.58,18.58,0,0,1-12.35-1.48l5.09-9.31,4.72-.37,1.86,2.06-2.73,4.89,3.48-.16s2.48-2.94,2.11-5.42-4.1-6.71-4.1-6.71l-6.75-1.25,2-4.19a13.87,13.87,0,0,0,6.83,1.72,52.83,52.83,0,0,0,6.71-.37l3.35,7.44L316,155.39S310.27,159.83,308,160.29Z" transform="translate(-156.05 -68.83)"/><path class="cls-5" d="M301.78,142.07a30,30,0,0,1,4.11-9.21l-2.51.67c7.61,3.36,16.38,11.91,11.8,20.89a9.63,9.63,0,0,1-7.06,5.27,19.74,19.74,0,0,1-10.09-.53c-2.93-1-5.68-2.88-6.46-6a7.4,7.4,0,0,1,5-8.77,12.9,12.9,0,0,1,7.3.39,16.79,16.79,0,0,1,6.12,3.13c1.26,1.06,2.56,2.64,2.31,4.41a4.33,4.33,0,0,1-3.59,3.4,8.8,8.8,0,0,1-5.63-1.89c-.77-.56-2.63-2-2.19-3.18.34-.9,1.9-1.14,2.7-1a5.25,5.25,0,0,1,1.91.94c.43.29.32,0,.23.47a20.82,20.82,0,0,1-1.47,3.62c-.25.64,2.55.35,2.87-.46l1.62-4a.22.22,0,0,0-.08-.28,7.06,7.06,0,0,0-7.4-1.11c-1.3.48-3.79,1.53-3.22,3.32.48,1.54,2.2,2.73,3.54,3.46a11.06,11.06,0,0,0,6.19,1.37c3.76-.34,9.45-3.72,6.72-8.11a12,12,0,0,0-5.1-4.11,20.69,20.69,0,0,0-8.46-2.08c-4.58-.07-10.06,1.87-11.92,6.44a8,8,0,0,0,3.4,9.72c3.26,2.08,7.38,2.67,11.18,2.54s8.14-1,11.26-3.4a12,12,0,0,0,3.65-13.7c-2.16-5.62-7.41-9.61-12.75-12a2.75,2.75,0,0,0-2.5.67,30.06,30.06,0,0,0-4.33,9.54c-.2.75,2.65.35,2.87-.46Z" transform="translate(-156.05 -68.83)"/><circle class="cls-10" cx="57.27" cy="210.15" r="0.65"/><circle class="cls-10" cx="72.95" cy="208.88" r="0.65"/></g></svg>