<svg id="Layer_1" data-name="Layer 1" xmlns="http://www.w3.org/2000/svg" xmlns:xlink="http://www.w3.org/1999/xlink" viewBox="0 0 366.151 366.151"><defs><pattern id="USGS_22_Gravel_Beach_4" data-name="USGS 22 Gravel Beach 4" width="72" height="72" patternTransform="matrix(0.99, 0, 0, -0.99, -145.19, 945.61)" patternUnits="userSpaceOnUse" viewBox="0 0 72 72"><rect width="72" height="72" style="fill:none"/><rect width="72" height="72" style="fill:none"/><path d="M72.25,14a.35.35,0,0,0-.25.6.38.38,0,0,0,.5,0,.35.35,0,0,0-.25-.6Z" style="fill:#17306d"/><path d="M20.75,68.78a.391.391,0,0,0-.25.1.347.347,0,1,0,.6.25.342.342,0,0,0-.35-.35Z" style="fill:#17306d"/><path d="M19.75,63.53a.34.34,0,0,0-.35.33v.02a.332.332,0,0,0,.11.25.369.369,0,0,0,.49,0,.363.363,0,0,0,.1-.25.391.391,0,0,0-.1-.25A.369.369,0,0,0,19.75,63.53Z" style="fill:#17306d"/><path d="M20,61.28a.35.35,0,0,0-.25.6.369.369,0,0,0,.5,0,.35.35,0,0,0-.25-.6Z" style="fill:#17306d"/><path d="M15,61.28a.34.34,0,0,0-.35.33v.02a.369.369,0,0,0,.1.25.38.38,0,0,0,.5,0,.35.35,0,0,0-.25-.6Z" style="fill:#17306d"/><path d="M22.5,51.78a.35.35,0,0,0-.25.6.36.36,0,0,0,.6-.25.34.34,0,0,0-.33-.35Z" style="fill:#17306d"/><path d="M15,48.78a.34.34,0,0,0-.35.33v.02a.332.332,0,0,0,.11.25.369.369,0,0,0,.49,0,.363.363,0,0,0,.1-.25.34.34,0,0,0-.33-.35Z" style="fill:#17306d"/><path d="M13.75,47.78a.35.35,0,0,0-.25.6.36.36,0,0,0,.6-.25.391.391,0,0,0-.1-.25A.369.369,0,0,0,13.75,47.78Z" style="fill:#17306d"/><path d="M23.75,44.78a.34.34,0,0,0-.35.33v.02a.332.332,0,0,0,.11.25.369.369,0,0,0,.49,0,.391.391,0,0,0,.1-.25.348.348,0,0,0-.1-.24A.358.358,0,0,0,23.75,44.78Z" style="fill:#17306d"/><path d="M30.5,46a.35.35,0,0,0-.25.6.36.36,0,0,0,.6-.25.34.34,0,0,0-.33-.35Z" style="fill:#17306d"/><path d="M31,48.53a.34.34,0,0,0-.35.33v.02a.332.332,0,0,0,.11.25.35.35,0,0,0,.59-.25.391.391,0,0,0-.1-.25A.369.369,0,0,0,31,48.53Z" style="fill:#17306d"/><path d="M29,53.53a.35.35,0,0,0-.25.6.36.36,0,0,0,.6-.25.34.34,0,0,0-.33-.35Z" style="fill:#17306d"/><path d="M33.75,52a.35.35,0,0,0-.25.6.36.36,0,0,0,.6-.25.34.34,0,0,0-.33-.35Z" style="fill:#17306d"/><path d="M31.25,57a.35.35,0,0,0-.25.6.36.36,0,0,0,.6-.25.34.34,0,0,0-.33-.35Z" style="fill:#17306d"/><path d="M31.5,60a.35.35,0,0,0-.25.6.369.369,0,0,0,.5,0,.35.35,0,0,0-.25-.6Z" style="fill:#17306d"/><path d="M32,64.78a.35.35,0,0,0-.25.6.36.36,0,0,0,.6-.25.34.34,0,0,0-.33-.35Z" style="fill:#17306d"/><path d="M31.75,68.78a.342.342,0,0,0-.35.35.332.332,0,0,0,.11.25.35.35,0,0,0,.59-.25.342.342,0,0,0-.35-.35Z" style="fill:#17306d"/><path d="M33.75,70.53a.358.358,0,0,0-.25.11.339.339,0,0,0,.01.49.345.345,0,0,0,.59-.25.339.339,0,0,0-.11-.25A.348.348,0,0,0,33.75,70.53Z" style="fill:#17306d"/><path d="M41.25,64.78a.391.391,0,0,0-.25.1.354.354,0,0,0-.1.25.391.391,0,0,0,.1.25.351.351,0,0,0,.49,0,.358.358,0,0,0,.11-.25.34.34,0,0,0-.33-.35Z" style="fill:#17306d"/><path d="M45.25,65a.391.391,0,0,0-.25.1.347.347,0,1,0,.6.25.34.34,0,0,0-.33-.35Z" style="fill:#17306d"/><path d="M42.25,58.28a.34.34,0,0,0-.35.33v.02a.332.332,0,0,0,.11.25.35.35,0,0,0,.59-.25.34.34,0,0,0-.33-.35Z" style="fill:#17306d"/><path d="M46.75,57.53a.34.34,0,0,0-.35.33v.02a.332.332,0,0,0,.11.25.361.361,0,0,0,.49,0,.391.391,0,0,0,.1-.25.329.329,0,0,0-.1-.24A.358.358,0,0,0,46.75,57.53Z" style="fill:#17306d"/><path d="M46.75,55.53a.34.34,0,0,0-.35.33v.02a.332.332,0,0,0,.11.25.361.361,0,0,0,.49,0,.391.391,0,0,0,.1-.25.371.371,0,0,0-.1-.24A.358.358,0,0,0,46.75,55.53Z" style="fill:#17306d"/><path d="M38.75,51a.35.35,0,0,0-.25.6.361.361,0,0,0,.49,0,.347.347,0,0,0-.22-.6Z" style="fill:#17306d"/><path d="M50,58.28a.391.391,0,0,0-.25.1.359.359,0,0,0,0,.5.369.369,0,0,0,.5,0,.35.35,0,0,0-.25-.6Z" style="fill:#17306d"/><path d="M52,59.78a.358.358,0,0,0-.25.11.348.348,0,0,0-.1.24.332.332,0,0,0,.11.25.369.369,0,0,0,.49,0,.363.363,0,0,0,.1-.25.34.34,0,0,0-.33-.35Z" style="fill:#17306d"/><path d="M54.5,60.78a.358.358,0,0,0-.25.11.348.348,0,0,0-.1.24.332.332,0,0,0,.11.25.35.35,0,0,0,.59-.25.34.34,0,0,0-.33-.35Z" style="fill:#17306d"/><path d="M56.25,71a.376.376,0,0,0-.25.63.359.359,0,0,0,.5,0,.348.348,0,0,0,.1-.24.417.417,0,0,0-.35-.39Z" style="fill:#17306d"/><path d="M67.75,68.78a.342.342,0,0,0-.35.35.332.332,0,0,0,.11.25.369.369,0,0,0,.49,0,.363.363,0,0,0,.1-.25.391.391,0,0,0-.1-.25A.369.369,0,0,0,67.75,68.78Z" style="fill:#17306d"/><path d="M67.75,61.53a.358.358,0,0,0-.25.11.348.348,0,0,0-.1.24.391.391,0,0,0,.1.25.369.369,0,0,0,.5,0,.391.391,0,0,0,.1-.25.339.339,0,0,0-.11-.25A.348.348,0,0,0,67.75,61.53Z" style="fill:#17306d"/><path d="M64,59.53a.35.35,0,0,0-.25.6.36.36,0,0,0,.6-.25.34.34,0,0,0-.33-.35Z" style="fill:#17306d"/><path d="M65,56a.34.34,0,0,0-.35.33v.02a.369.369,0,0,0,.1.25.38.38,0,0,0,.5,0A.35.35,0,0,0,65,56Z" style="fill:#17306d"/><path d="M63.75,52a.358.358,0,0,0-.25.11.348.348,0,0,0-.1.24.391.391,0,0,0,.1.25.369.369,0,0,0,.5,0,.391.391,0,0,0,.1-.25.339.339,0,0,0-.11-.25A.348.348,0,0,0,63.75,52Z" style="fill:#17306d"/><path d="M66,52a.34.34,0,0,0-.35.33v.02a.332.332,0,0,0,.11.25.369.369,0,0,0,.49,0,.363.363,0,0,0,.1-.25.34.34,0,0,0-.33-.35Z" style="fill:#17306d"/><path d="M67.75,50.53a.35.35,0,0,0-.25.6.369.369,0,0,0,.5,0,.35.35,0,0,0-.25-.6Z" style="fill:#17306d"/><path d="M6.75,19.53a.35.35,0,0,0-.25.6.38.38,0,0,0,.5,0,.35.35,0,0,0-.25-.6Z" style="fill:#17306d"/><path d="M7,17.28a.35.35,0,0,0-.25.6.369.369,0,0,0,.5,0,.35.35,0,0,0-.25-.6Z" style="fill:#17306d"/><path d="M2,17.28a.391.391,0,0,0-.25.1.359.359,0,0,0,0,.5.38.38,0,0,0,.5,0,.359.359,0,0,0,0-.5A.391.391,0,0,0,2,17.28Z" style="fill:#17306d"/><path d="M9.5,7.78a.35.35,0,0,0-.25.6.36.36,0,0,0,.6-.25.34.34,0,0,0-.33-.35Z" style="fill:#17306d"/><path d="M.75,3.78a.391.391,0,0,0-.25.1.359.359,0,0,0,0,.5.38.38,0,0,0,.5,0,.359.359,0,0,0,0-.5A.391.391,0,0,0,.75,3.78Z" style="fill:#17306d"/><path d="M10.75.78a.35.35,0,0,0-.25.6.38.38,0,0,0,.5,0,.35.35,0,0,0-.25-.6Z" style="fill:#17306d"/><path d="M18,4.53a.34.34,0,0,0-.35.33v.02a.345.345,0,0,0,.59.25.358.358,0,0,0,.11-.25.34.34,0,0,0-.33-.35Z" style="fill:#17306d"/><path d="M16,9.53a.35.35,0,0,0-.25.6.369.369,0,0,0,.5,0,.35.35,0,0,0-.25-.6Z" style="fill:#17306d"/><path d="M19.25,14a.34.34,0,0,0-.35.33v.02a.332.332,0,0,0,.11.25.369.369,0,0,0,.49,0,.363.363,0,0,0,.1-.25.34.34,0,0,0-.33-.35Z" style="fill:#17306d"/><path d="M18.5,16a.34.34,0,0,0-.35.33v.02a.332.332,0,0,0,.11.25.369.369,0,0,0,.49,0,.363.363,0,0,0,.1-.25.34.34,0,0,0-.33-.35Z" style="fill:#17306d"/><path d="M16,17a.34.34,0,0,0-.35.33v.02a.332.332,0,0,0,.11.25.369.369,0,0,0,.49,0,.363.363,0,0,0,.1-.25.34.34,0,0,0-.33-.35Z" style="fill:#17306d"/><path d="M19,20.78a.34.34,0,0,0-.35.33v.02a.332.332,0,0,0,.11.25.369.369,0,0,0,.49,0,.363.363,0,0,0,.1-.25.34.34,0,0,0-.33-.35Z" style="fill:#17306d"/><path d="M18.75,24.78a.35.35,0,0,0-.25.6.38.38,0,0,0,.5,0,.35.35,0,0,0-.25-.6Z" style="fill:#17306d"/><path d="M16,24.53a.35.35,0,0,0-.25.6.369.369,0,0,0,.5,0,.35.35,0,0,0-.25-.6Z" style="fill:#17306d"/><path d="M32.25,21a.34.34,0,0,0-.35.33v.02a.332.332,0,0,0,.11.25.35.35,0,0,0,.59-.25.34.34,0,0,0-.33-.35Z" style="fill:#17306d"/><path d="M27,17.53a.35.35,0,0,0-.25.6.369.369,0,0,0,.5,0,.35.35,0,0,0-.25-.6Z" style="fill:#17306d"/><path d="M31.75,16a.35.35,0,0,0-.25.6.369.369,0,0,0,.5,0,.35.35,0,0,0-.25-.6Z" style="fill:#17306d"/><path d="M31.75,14.28a.35.35,0,0,0-.245.6l.005.005a.369.369,0,0,0,.5,0,.363.363,0,0,0,.1-.25.34.34,0,0,0-.33-.35h-.03Z" style="fill:#17306d"/><path d="M33.75,13.53a.35.35,0,0,0-.25.6.369.369,0,0,0,.5,0,.35.35,0,0,0-.25-.6Z" style="fill:#17306d"/><path d="M25.75,7a.35.35,0,0,0-.25.6.36.36,0,0,0,.6-.25A.34.34,0,0,0,25.77,7Z" style="fill:#17306d"/><path d="M35.75,15.53a.35.35,0,0,0-.25.6.36.36,0,0,0,.6-.25.34.34,0,0,0-.33-.35Z" style="fill:#17306d"/><path d="M39,15.78a.348.348,0,0,0-.24.1.358.358,0,0,0-.11.25.391.391,0,0,0,.1.25.369.369,0,0,0,.5,0,.35.35,0,0,0-.25-.6Z" style="fill:#17306d"/><path d="M41.5,21a.35.35,0,0,0-.25.6.369.369,0,0,0,.5,0,.35.35,0,0,0-.25-.6Z" style="fill:#17306d"/><path d="M43.25,27a.358.358,0,0,0-.25.11.348.348,0,0,0-.1.24.391.391,0,0,0,.1.25.369.369,0,0,0,.5,0,.35.35,0,0,0-.25-.6Z" style="fill:#17306d"/><path d="M50.75,21.28a.391.391,0,0,0-.25.1.363.363,0,0,0-.1.25.391.391,0,0,0,.1.25.359.359,0,0,0,.5,0,.35.35,0,0,0-.25-.6Z" style="fill:#17306d"/><path d="M51.75,25.28a.358.358,0,0,0-.25.11.348.348,0,0,0-.1.24.332.332,0,0,0,.11.25.369.369,0,0,0,.49,0,.363.363,0,0,0,.1-.25.34.34,0,0,0-.33-.35Z" style="fill:#17306d"/><path d="M54.75,24.78a.332.332,0,0,0-.25.11.348.348,0,0,0-.1.24.369.369,0,0,0,.1.25.361.361,0,0,0,.49,0,.347.347,0,0,0-.22-.6Z" style="fill:#17306d"/><path d="M54.75,17.53a.332.332,0,0,0-.25.11.348.348,0,0,0-.1.24.332.332,0,0,0,.11.25.369.369,0,0,0,.49,0,.363.363,0,0,0,.1-.25.34.34,0,0,0-.33-.35Z" style="fill:#17306d"/><path d="M51,15.53a.35.35,0,0,0-.25.6.369.369,0,0,0,.5,0,.354.354,0,0,0,.1-.25.391.391,0,0,0-.1-.25A.369.369,0,0,0,51,15.53Z" style="fill:#17306d"/><path d="M50.75,8a.34.34,0,0,0-.35.33v.02a.31.31,0,0,0,.1.24.341.341,0,0,0,.481.009l.009-.009a.358.358,0,0,0,.11-.25.391.391,0,0,0-.1-.25A.368.368,0,0,0,50.75,8Z" style="fill:#17306d"/><path d="M53,8a.34.34,0,0,0-.35.33v.02a.332.332,0,0,0,.11.25.361.361,0,0,0,.49,0,.31.31,0,0,0,.1-.24A.341.341,0,0,0,53.031,8Z" style="fill:#17306d"/><path d="M55.75,8.78a.35.35,0,0,0-.25.6.36.36,0,0,0,.6-.25.34.34,0,0,0-.33-.35Z" style="fill:#17306d"/><path d="M58,10.28a.358.358,0,0,0-.25.11.348.348,0,0,0-.1.24.391.391,0,0,0,.1.25.35.35,0,0,0,.6-.25.34.34,0,0,0-.33-.35Z" style="fill:#17306d"/><path d="M20.75,44.78a.35.35,0,0,0-.25.6.36.36,0,0,0,.6-.25.34.34,0,0,0-.33-.35Z" style="fill:#17306d"/><path d="M22.5,47.78a.35.35,0,0,0-.25.6.369.369,0,0,0,.5,0,.35.35,0,0,0-.25-.6Z" style="fill:#17306d"/><path d="M38.75,47a.35.35,0,0,0-.25.6.369.369,0,0,0,.5,0,.35.35,0,0,0-.25-.6Z" style="fill:#17306d"/><path d="M46,42.78a.391.391,0,0,0-.25.1.351.351,0,0,0,0,.49.341.341,0,0,0,.481.009l.009-.009a.358.358,0,0,0,.11-.25.34.34,0,0,0-.33-.35H46Z" style="fill:#17306d"/><path d="M55,43.78a.35.35,0,0,0-.25.6.369.369,0,0,0,.5,0,.35.35,0,0,0-.25-.6Z" style="fill:#17306d"/><path d="M51,46.53a.35.35,0,0,0-.25.6.369.369,0,0,0,.5,0,.354.354,0,0,0,.1-.25.34.34,0,0,0-.33-.35Z" style="fill:#17306d"/><path d="M51.75,42.28a.369.369,0,0,0-.25.1.347.347,0,1,0,.6.25.34.34,0,0,0-.33-.35Z" style="fill:#17306d"/><path d="M62.25,36.28a.34.34,0,0,0-.35.33v.02a.332.332,0,0,0,.11.25.361.361,0,0,0,.49,0,.31.31,0,0,0,.1-.24.34.34,0,0,0-.33-.35h-.02Z" style="fill:#17306d"/><path d="M56.5,32.78a.35.35,0,0,0-.25.6.36.36,0,0,0,.6-.25.34.34,0,0,0-.33-.35Z" style="fill:#17306d"/><path d="M48,34.53a.348.348,0,0,0-.24.1.358.358,0,0,0-.11.25.391.391,0,0,0,.1.25.359.359,0,0,0,.5,0,.329.329,0,0,0,.1-.24.34.34,0,0,0-.33-.35H48Z" style="fill:#17306d"/><path d="M47.75,30.53a.332.332,0,0,0-.25.11.348.348,0,0,0-.1.24.391.391,0,0,0,.1.25.38.38,0,0,0,.5,0,.35.35,0,0,0-.25-.6Z" style="fill:#17306d"/><path d="M53.25,26.78a.339.339,0,0,0-.25.11.31.31,0,0,0-.1.24.339.339,0,0,0,.11.25.369.369,0,0,0,.49,0,.35.35,0,0,0-.25-.6Z" style="fill:#17306d"/><path d="M62,23.78a.34.34,0,0,0-.35.33v.02a.332.332,0,0,0,.11.25.361.361,0,0,0,.49,0,.31.31,0,0,0,.1-.24.34.34,0,0,0-.33-.35H62Z" style="fill:#17306d"/><path d="M64.75,20a.34.34,0,0,0-.35.33v.02a.332.332,0,0,0,.11.25.369.369,0,0,0,.49,0,.363.363,0,0,0,.1-.25.34.34,0,0,0-.33-.35Z" style="fill:#17306d"/><path d="M69.25,26.78a.35.35,0,0,0-.25.6.369.369,0,0,0,.5,0,.35.35,0,0,0-.25-.6Z" style="fill:#17306d"/><path d="M59.75,32.78a.332.332,0,0,0-.25.11.348.348,0,0,0-.1.24.339.339,0,0,0,.11.25.35.35,0,0,0,.49-.5A.369.369,0,0,0,59.75,32.78Z" style="fill:#17306d"/><path d="M32.25,24.78a.35.35,0,0,0-.25.6.36.36,0,0,0,.6-.25.34.34,0,0,0-.33-.35Z" style="fill:#17306d"/><path d="M26,34a.35.35,0,0,0-.25.6.36.36,0,0,0,.6-.25.34.34,0,0,0-.33-.35Z" style="fill:#17306d"/><path d="M29.5,36.28a.348.348,0,0,0-.24.1.358.358,0,0,0-.11.25.332.332,0,0,0,.11.25.369.369,0,0,0,.49,0,.363.363,0,0,0,.1-.25.34.34,0,0,0-.33-.35Z" style="fill:#17306d"/><path d="M10.25,42.28a.35.35,0,0,0-.25.6.369.369,0,0,0,.49,0,.332.332,0,0,0,.11-.25.34.34,0,0,0-.33-.35Z" style="fill:#17306d"/><path d="M5.75,40.28a.35.35,0,0,0-.25.6.361.361,0,0,0,.49,0,.332.332,0,0,0,.11-.25.369.369,0,0,0-.1-.25A.391.391,0,0,0,5.75,40.28Z" style="fill:#17306d"/><path d="M2.25,36.53a.391.391,0,0,0-.25.1.359.359,0,0,0,0,.5.369.369,0,0,0,.5,0,.354.354,0,0,0,.1-.25.329.329,0,0,0-.1-.24A.358.358,0,0,0,2.25,36.53Z" style="fill:#17306d"/><path d="M16.75,29.78a.34.34,0,0,0-.35.33v.02a.332.332,0,0,0,.11.25.35.35,0,0,0,.59-.25.391.391,0,0,0-.1-.25A.369.369,0,0,0,16.75,29.78Z" style="fill:#17306d"/><path d="M12.5,35.78a.34.34,0,0,0-.35.33v.02a.332.332,0,0,0,.11.25.369.369,0,0,0,.49,0,.363.363,0,0,0,.1-.25.391.391,0,0,0-.1-.25A.369.369,0,0,0,12.5,35.78Z" style="fill:#17306d"/><path d="M26.25,41.53a.35.35,0,0,0-.25.6.369.369,0,0,0,.5,0,.35.35,0,0,0-.25-.6Z" style="fill:#17306d"/><path d="M39,41a.35.35,0,0,0-.25.6.369.369,0,0,0,.5,0,.359.359,0,0,0,0-.5A.369.369,0,0,0,39,41Z" style="fill:#17306d"/><path d="M38,39a.35.35,0,0,0-.25.6.369.369,0,0,0,.5,0A.35.35,0,0,0,38,39Z" style="fill:#17306d"/><path d="M27.75,29.78a.35.35,0,0,0-.25.6.369.369,0,0,0,.5,0,.35.35,0,0,0-.25-.6Z" style="fill:#17306d"/><path d="M6.25,51.28a.35.35,0,0,0-.25.6.369.369,0,0,0,.5,0,.35.35,0,0,0-.25-.6Z" style="fill:#17306d"/><path d="M9.5,53a.35.35,0,0,0-.25.6.36.36,0,0,0,.6-.25A.34.34,0,0,0,9.52,53Z" style="fill:#17306d"/><path d="M11.5,48.28a.34.34,0,0,0-.35.33v.02a.332.332,0,0,0,.11.25.369.369,0,0,0,.49,0,.363.363,0,0,0,.1-.25.391.391,0,0,0-.1-.25A.369.369,0,0,0,11.5,48.28Z" style="fill:#17306d"/><path d="M2.75,46a.391.391,0,0,0-.25.1.359.359,0,0,0,0,.5.38.38,0,0,0,.5,0,.359.359,0,0,0,0-.5A.391.391,0,0,0,2.75,46Z" style="fill:#17306d"/><path d="M64,42.28a.348.348,0,0,0-.24.1.358.358,0,0,0-.11.25.391.391,0,0,0,.1.25.36.36,0,0,0,.6-.25.34.34,0,0,0-.33-.35Z" style="fill:#17306d"/><path d="M69.25,42a.34.34,0,0,0-.35.33v.02a.339.339,0,0,0,.11.25.369.369,0,0,0,.49,0,.363.363,0,0,0,.1-.25.391.391,0,0,0-.1-.25A.369.369,0,0,0,69.25,42Z" style="fill:#17306d"/><path d="M1.25,62.78a.391.391,0,0,0-.25.1.359.359,0,0,0,0,.5.38.38,0,0,0,.5,0,.359.359,0,0,0,0-.5A.391.391,0,0,0,1.25,62.78Z" style="fill:#17306d"/><path d="M16.25,65.78a.34.34,0,0,0-.35.33v.02a.369.369,0,0,0,.1.25.38.38,0,0,0,.5,0,.35.35,0,0,0-.25-.6Z" style="fill:#17306d"/><path d="M3.5,65.78a.35.35,0,0,0-.25.6.36.36,0,0,0,.6-.25.34.34,0,0,0-.33-.35Z" style="fill:#17306d"/><path d="M12.5,57.53a.35.35,0,0,0-.25.6.36.36,0,0,0,.6-.25.34.34,0,0,0-.33-.35Z" style="fill:#17306d"/><path d="M18.25,52.53a.34.34,0,0,0-.35.33v.02a.369.369,0,0,0,.1.25.36.36,0,0,0,.6-.25.34.34,0,0,0-.33-.35Z" style="fill:#17306d"/><path d="M21,34.78a.34.34,0,0,0-.35.33v.02a.345.345,0,0,0,.59.25.358.358,0,0,0,.11-.25.34.34,0,0,0-.33-.35Z" style="fill:#17306d"/><path d="M.5,27.53a.391.391,0,0,0-.25.1.391.391,0,0,0-.1.25.332.332,0,0,0,.11.25.369.369,0,0,0,.49,0,.363.363,0,0,0,.1-.25.391.391,0,0,0-.1-.25A.391.391,0,0,0,.5,27.53Z" style="fill:#17306d"/><path d="M67.75,5.78a.34.34,0,0,0-.35.33v.02a.332.332,0,0,0,.11.25.369.369,0,0,0,.49,0,.363.363,0,0,0,.1-.25.34.34,0,0,0-.33-.35Z" style="fill:#17306d"/><path d="M59.5,2a.391.391,0,0,0-.25.1.354.354,0,0,0-.1.25.391.391,0,0,0,.1.25.369.369,0,0,0,.5,0,.363.363,0,0,0,.1-.25.369.369,0,0,0-.1-.25A.391.391,0,0,0,59.5,2Z" style="fill:#17306d"/><path d="M40.25,3.78a.35.35,0,0,0-.25.6.369.369,0,0,0,.5,0,.359.359,0,0,0,0-.5A.369.369,0,0,0,40.25,3.78Z" style="fill:#17306d"/><path d="M4.25,11.78a.35.35,0,0,0-.25.6.36.36,0,0,0,.6-.25.34.34,0,0,0-.33-.35Z" style="fill:#17306d"/><path d="M26.25,12.28a.35.35,0,0,0-.25.6.36.36,0,0,0,.6-.25.34.34,0,0,0-.33-.35Z" style="fill:#17306d"/><path d="M37,23.28a.34.34,0,0,0-.35.33v.02a.35.35,0,0,0,.6.25.359.359,0,0,0,0-.5A.369.369,0,0,0,37,23.28Z" style="fill:#17306d"/><path d="M8.5,31.53a.35.35,0,0,0-.25.6.36.36,0,0,0,.6-.25.34.34,0,0,0-.33-.35Z" style="fill:#17306d"/><path d="M52,33.78a.358.358,0,0,0-.25.11.348.348,0,0,0-.1.24.332.332,0,0,0,.11.25.369.369,0,0,0,.49,0,.363.363,0,0,0,.1-.25.34.34,0,0,0-.33-.35Z" style="fill:#17306d"/><path d="M60.5,25.78a.34.34,0,0,0-.35.33v.02a.332.332,0,0,0,.11.25.369.369,0,0,0,.49,0,.363.363,0,0,0,.1-.25.34.34,0,0,0-.33-.35Z" style="fill:#17306d"/><path d="M51,5.53a.35.35,0,0,0-.25.6.369.369,0,0,0,.5,0,.391.391,0,0,0,.1-.25.354.354,0,0,0-.1-.25A.391.391,0,0,0,51,5.53Z" style="fill:#17306d"/><path d="M39.75,34a.35.35,0,0,0-.25.6.36.36,0,0,0,.6-.25.34.34,0,0,0-.33-.35Z" style="fill:#17306d"/><path d="M27.25,58.28a.35.35,0,0,0-.25.6.36.36,0,0,0,.6-.25.34.34,0,0,0-.33-.35Z" style="fill:#17306d"/><path d="M19.5,45.28a.34.34,0,0,0-.35.33v.02a.345.345,0,0,0,.59.25.358.358,0,0,0,.11-.25.34.34,0,0,0-.33-.35Z" style="fill:#17306d"/><path d="M11.5,70a.354.354,0,0,0-.25.6.38.38,0,0,0,.5,0,.35.35,0,0,0-.25-.6Z" style="fill:#17306d"/><path d="M55,68a.34.34,0,0,0-.35.33v.02a.332.332,0,0,0,.11.25.369.369,0,0,0,.49,0,.363.363,0,0,0,.1-.25.34.34,0,0,0-.33-.35Z" style="fill:#17306d"/><path d="M47,2a.391.391,0,0,0-.25.1.369.369,0,0,0-.1.25.391.391,0,0,0,.1.25.36.36,0,0,0,.6-.25A.34.34,0,0,0,47.02,2Z" style="fill:#17306d"/><path d="M4.5,31.53a.34.34,0,0,0-.35.33v.02a.332.332,0,0,0,.11.25.369.369,0,0,0,.49,0,.363.363,0,0,0,.1-.25.34.34,0,0,0-.33-.35Z" style="fill:#17306d"/><path d="M68.5,58.53a.35.35,0,0,0-.25.6.369.369,0,0,0,.5,0,.359.359,0,0,0,0-.5A.391.391,0,0,0,68.5,58.53Z" style="fill:#17306d"/><path d="M23,57.78a.35.35,0,0,0-.25.6.36.36,0,0,0,.6-.25.34.34,0,0,0-.33-.35Z" style="fill:#17306d"/><path d="M20.25,54.53a.35.35,0,0,0-.25.6.369.369,0,0,0,.5,0,.35.35,0,0,0-.25-.6Z" style="fill:#17306d"/><path d="M14.5,54.53a.34.34,0,0,0-.35.33v.02a.332.332,0,0,0,.11.25.369.369,0,0,0,.49,0,.363.363,0,0,0,.1-.25.34.34,0,0,0-.33-.35Z" style="fill:#17306d"/><path d="M5.75,60a.35.35,0,0,0-.25.6.361.361,0,0,0,.49,0,.332.332,0,0,0,.11-.25A.34.34,0,0,0,5.77,60Z" style="fill:#17306d"/><path d="M6.75,69a.371.371,0,0,0-.24.1.358.358,0,0,0-.11.25.391.391,0,0,0,.1.25.36.36,0,0,0,.6-.25A.342.342,0,0,0,6.75,69Z" style="fill:#17306d"/><path d="M9.75,63.53a.35.35,0,0,0-.25.6.36.36,0,0,0,.6-.25.34.34,0,0,0-.33-.35Z" style="fill:#17306d"/><path d="M14,63.53a.34.34,0,0,0-.35.33v.02a.332.332,0,0,0,.11.25.369.369,0,0,0,.49,0,.363.363,0,0,0,.1-.25.34.34,0,0,0-.33-.35Z" style="fill:#17306d"/><path d="M25.5,64.78a.35.35,0,0,0-.25.6.36.36,0,0,0,.6-.25.34.34,0,0,0-.33-.35Z" style="fill:#17306d"/><path d="M36.75,64.28a.35.35,0,0,0-.25.6.369.369,0,0,0,.5,0,.35.35,0,0,0-.25-.6Z" style="fill:#17306d"/><path d="M37.25,67.53a.34.34,0,0,0-.35.33v.02a.329.329,0,0,0,.1.25.35.35,0,0,0,.59-.25.34.34,0,0,0-.33-.35h-.01Z" style="fill:#17306d"/><path d="M43,69.53a.354.354,0,0,0-.25.6.369.369,0,0,0,.5,0,.362.362,0,0,0,0-.5A.419.419,0,0,0,43,69.53Z" style="fill:#17306d"/><path d="M49.25,63.53a.391.391,0,0,0-.25.1.359.359,0,0,0,0,.5.369.369,0,0,0,.5,0,.35.35,0,0,0-.25-.6Z" style="fill:#17306d"/><path d="M45.75,62.53a.35.35,0,0,0-.25.6.369.369,0,0,0,.5,0,.359.359,0,0,0,0-.5A.369.369,0,0,0,45.75,62.53Z" style="fill:#17306d"/><path d="M35.5,60.78a.34.34,0,0,0-.35.33v.02a.369.369,0,0,0,.1.25.36.36,0,0,0,.6-.25.34.34,0,0,0-.33-.35Z" style="fill:#17306d"/><path d="M39,56.78a.35.35,0,0,0-.25.6.36.36,0,0,0,.6-.25.34.34,0,0,0-.33-.35Z" style="fill:#17306d"/><path d="M24.5,53.78a.35.35,0,0,0-.25.6.36.36,0,0,0,.6-.25.34.34,0,0,0-.33-.35Z" style="fill:#17306d"/><path d="M8,44.53a.35.35,0,0,0-.25.6.36.36,0,0,0,.6-.25.34.34,0,0,0-.33-.35Z" style="fill:#17306d"/><path d="M15.75,40a.35.35,0,0,0-.25.6.38.38,0,0,0,.5,0,.35.35,0,0,0-.25-.6Z" style="fill:#17306d"/><path d="M10.25,38.28a.34.34,0,0,0-.35.33v.02a.332.332,0,0,0,.11.25.369.369,0,0,0,.49,0,.363.363,0,0,0,.1-.25.369.369,0,0,0-.1-.25A.391.391,0,0,0,10.25,38.28Z" style="fill:#17306d"/><path d="M5,34.78a.35.35,0,0,0-.25.6.38.38,0,0,0,.5,0,.369.369,0,0,0,.1-.25.34.34,0,0,0-.33-.35Z" style="fill:#17306d"/><path d="M3,51.28a.391.391,0,0,0-.25.1.359.359,0,0,0,0,.5.38.38,0,0,0,.5,0,.359.359,0,0,0,0-.5A.391.391,0,0,0,3,51.28Z" style="fill:#17306d"/><path d="M20.25,41a.34.34,0,0,0-.35.33v.02a.332.332,0,0,0,.11.25.35.35,0,0,0,.59-.25.34.34,0,0,0-.33-.35Z" style="fill:#17306d"/><path d="M17.25,36.28a.35.35,0,0,0-.25.6.369.369,0,0,0,.5,0,.35.35,0,0,0-.25-.6Z" style="fill:#17306d"/><path d="M15.75,32.78a.34.34,0,0,0-.35.33v.02a.332.332,0,0,0,.11.25.369.369,0,0,0,.49,0,.363.363,0,0,0,.1-.25.391.391,0,0,0-.1-.25A.369.369,0,0,0,15.75,32.78Z" style="fill:#17306d"/><path d="M12.5,30.53a.34.34,0,0,0-.35.33v.02a.332.332,0,0,0,.11.25.369.369,0,0,0,.49,0,.363.363,0,0,0,.1-.25.34.34,0,0,0-.33-.35Z" style="fill:#17306d"/><path d="M12.5,25.28a.34.34,0,0,0-.35.33v.02a.332.332,0,0,0,.11.25.369.369,0,0,0,.49,0,.363.363,0,0,0,.1-.25.34.34,0,0,0-.33-.35Z" style="fill:#17306d"/><path d="M5.5,23.28a.35.35,0,0,0-.25.6.38.38,0,0,0,.5,0,.35.35,0,0,0-.25-.6Z" style="fill:#17306d"/><path d="M10.75,17.28a.35.35,0,0,0-.25.6.38.38,0,0,0,.5,0,.35.35,0,0,0-.25-.6Z" style="fill:#17306d"/><path d="M15.25,13.28a.35.35,0,0,0-.25.6.369.369,0,0,0,.5,0,.35.35,0,0,0-.25-.6Z" style="fill:#17306d"/><path d="M5.75,8.28a.35.35,0,0,0-.25.6.38.38,0,0,0,.5,0,.363.363,0,0,0,.1-.25.34.34,0,0,0-.33-.35Z" style="fill:#17306d"/><path d="M2,9.78a.391.391,0,0,0-.25.1.359.359,0,0,0,0,.5.369.369,0,0,0,.49,0,.339.339,0,0,0,.11-.25.391.391,0,0,0-.1-.25A.391.391,0,0,0,2,9.78Z" style="fill:#17306d"/><path d="M8.75,3.78a.35.35,0,0,0-.25.6.36.36,0,0,0,.6-.25A.391.391,0,0,0,9,3.88.369.369,0,0,0,8.75,3.78Z" style="fill:#17306d"/><path d="M13.25,2.28a.35.35,0,0,0-.25.6.38.38,0,0,0,.5,0,.35.35,0,0,0-.25-.6Z" style="fill:#17306d"/><path d="M21.25,3.28a.34.34,0,0,0-.35.33v.02a.332.332,0,0,0,.11.25.35.35,0,0,0,.59-.25.34.34,0,0,0-.33-.35Z" style="fill:#17306d"/><path d="M22.75,6a.35.35,0,0,0-.25.6.369.369,0,0,0,.5,0,.359.359,0,0,0,0-.5A.369.369,0,0,0,22.75,6Z" style="fill:#17306d"/><path d="M22,11.78a.35.35,0,0,0-.25.6.38.38,0,0,0,.5,0,.359.359,0,0,0,0-.5A.369.369,0,0,0,22,11.78Z" style="fill:#17306d"/><path d="M24,14.28a.34.34,0,0,0-.35.33v.02a.369.369,0,0,0,.1.25.38.38,0,0,0,.5,0,.369.369,0,0,0,.1-.25.391.391,0,0,0-.1-.25A.369.369,0,0,0,24,14.28Z" style="fill:#17306d"/><path d="M26,24a.35.35,0,0,0-.25.6.369.369,0,0,0,.5,0A.35.35,0,0,0,26,24Z" style="fill:#17306d"/><path d="M25.5,28.28a.35.35,0,0,0-.25.6.369.369,0,0,0,.5,0,.35.35,0,0,0-.25-.6Z" style="fill:#17306d"/><path d="M32,40.78a.34.34,0,0,0-.35.33v.02a.332.332,0,0,0,.11.25.35.35,0,0,0,.59-.25.34.34,0,0,0-.33-.35Z" style="fill:#17306d"/><path d="M34,44a.34.34,0,0,0-.35.33v.02a.354.354,0,0,0,.1.25.369.369,0,0,0,.5,0,.359.359,0,0,0,0-.5A.369.369,0,0,0,34,44Z" style="fill:#17306d"/><path d="M41.5,46a.35.35,0,0,0-.25.6.369.369,0,0,0,.5,0,.35.35,0,0,0-.25-.6Z" style="fill:#17306d"/><path d="M42.75,51a.358.358,0,0,0-.25.11.329.329,0,0,0-.1.24.391.391,0,0,0,.1.25.369.369,0,0,0,.5,0,.391.391,0,0,0,.1-.25.339.339,0,0,0-.11-.25A.348.348,0,0,0,42.75,51Z" style="fill:#17306d"/><path d="M36.25,52.53a.391.391,0,0,0-.25.1.363.363,0,0,0-.1.25.31.31,0,0,0,.1.24.35.35,0,0,0,.495.005l.005-.005a.35.35,0,0,0-.25-.6Z" style="fill:#17306d"/><path d="M27.5,49.53a.35.35,0,0,0-.25.6.369.369,0,0,0,.5,0,.35.35,0,0,0-.25-.6Z" style="fill:#17306d"/><path d="M51.75,49.78a.332.332,0,0,0-.25.11.348.348,0,0,0-.1.24.391.391,0,0,0,.1.25.36.36,0,0,0,.6-.25.391.391,0,0,0-.1-.25A.369.369,0,0,0,51.75,49.78Z" style="fill:#17306d"/><path d="M43,54a.369.369,0,0,0-.25.1.359.359,0,0,0,0,.5.38.38,0,0,0,.5,0A.35.35,0,0,0,43,54Z" style="fill:#17306d"/><path d="M50.25,53.78a.369.369,0,0,0-.25.1.347.347,0,1,0,.6.25.34.34,0,0,0-.33-.35Z" style="fill:#17306d"/><path d="M59.25,54.53a.34.34,0,0,0-.35.33v.02a.332.332,0,0,0,.11.25.369.369,0,0,0,.49,0,.363.363,0,0,0,.1-.25.34.34,0,0,0-.33-.35Z" style="fill:#17306d"/><path d="M58,57.78a.369.369,0,0,0-.25.1.347.347,0,1,0,.6.25.34.34,0,0,0-.33-.35Z" style="fill:#17306d"/><path d="M61.25,60.78a.34.34,0,0,0-.35.33v.02a.332.332,0,0,0,.11.25.361.361,0,0,0,.49,0,.31.31,0,0,0,.1-.24.34.34,0,0,0-.33-.35h-.02Z" style="fill:#17306d"/><path d="M58.5,64.28a.391.391,0,0,0-.25.1.354.354,0,0,0-.1.25.31.31,0,0,0,.1.24.35.35,0,0,0,.6-.24.34.34,0,0,0-.33-.35Z" style="fill:#17306d"/><path d="M59.75,67a.339.339,0,0,0-.25.11.348.348,0,0,0-.1.24.332.332,0,0,0,.11.25.369.369,0,0,0,.49,0,.363.363,0,0,0,.1-.25.34.34,0,0,0-.33-.35Z" style="fill:#17306d"/><path d="M67.25,65.78a.391.391,0,0,0-.25.1.363.363,0,0,0-.1.25.369.369,0,0,0,.1.25.38.38,0,0,0,.5,0,.35.35,0,0,0-.25-.6Z" style="fill:#17306d"/><path d="M70.5,63.28a.391.391,0,0,0-.25.1.363.363,0,0,0-.1.25.345.345,0,0,0,.59.25.358.358,0,0,0,.11-.25.34.34,0,0,0-.33-.35Z" style="fill:#17306d"/><path d="M65.5,62a.34.34,0,0,0-.35.33v.02a.369.369,0,0,0,.1.25.38.38,0,0,0,.5,0,.35.35,0,0,0-.25-.6Z" style="fill:#17306d"/><path d="M60,48a.35.35,0,0,0-.25.6.369.369,0,0,0,.5,0A.35.35,0,0,0,60,48Z" style="fill:#17306d"/><path d="M55.25,48a.35.35,0,0,0-.25.6.38.38,0,0,0,.5,0,.35.35,0,0,0-.25-.6Z" style="fill:#17306d"/><path d="M55.25,53a.339.339,0,0,0-.25.11.348.348,0,0,0-.1.24.332.332,0,0,0,.11.25.369.369,0,0,0,.49,0,.363.363,0,0,0,.1-.25.34.34,0,0,0-.33-.35Z" style="fill:#17306d"/><path d="M64.75,46a.34.34,0,0,0-.35.33v.02a.332.332,0,0,0,.11.25.369.369,0,0,0,.49,0,.363.363,0,0,0,.1-.25.34.34,0,0,0-.33-.35Z" style="fill:#17306d"/><path d="M57.5,41a.332.332,0,0,0-.25.11.348.348,0,0,0-.1.24.332.332,0,0,0,.11.25.369.369,0,0,0,.49,0,.363.363,0,0,0,.1-.25.34.34,0,0,0-.33-.35Z" style="fill:#17306d"/><path d="M52.5,39a.358.358,0,0,0-.25.11.348.348,0,0,0-.1.24.332.332,0,0,0,.11.25.369.369,0,0,0,.49,0,.363.363,0,0,0,.1-.25.34.34,0,0,0-.33-.35Z" style="fill:#17306d"/><path d="M47.25,38a.358.358,0,0,0-.25.11.348.348,0,0,0-.1.24.332.332,0,0,0,.11.25.369.369,0,0,0,.49,0,.363.363,0,0,0,.1-.25.34.34,0,0,0-.33-.35Z" style="fill:#17306d"/><path d="M44,32.53a.358.358,0,0,0-.25.11.348.348,0,0,0-.1.24.391.391,0,0,0,.1.25.35.35,0,0,0,.6-.25.332.332,0,0,0-.11-.25A.348.348,0,0,0,44,32.53Z" style="fill:#17306d"/><path d="M33.75,30.28a.35.35,0,0,0-.25.6.369.369,0,0,0,.5,0,.35.35,0,0,0-.25-.6Z" style="fill:#17306d"/><path d="M40.5,23.78a.35.35,0,0,0-.25.6.361.361,0,0,0,.49,0,.347.347,0,0,0-.22-.6Z" style="fill:#17306d"/><path d="M45.5,19.53a.34.34,0,0,0-.35.33v.02a.332.332,0,0,0,.11.25.35.35,0,0,0,.59-.25.34.34,0,0,0-.33-.35Z" style="fill:#17306d"/><path d="M46.25,15a.35.35,0,1,0,.24.6.358.358,0,0,0,.11-.25.34.34,0,0,0-.33-.35Z" style="fill:#17306d"/><path d="M41.75,12.28a.348.348,0,0,0-.24.1.358.358,0,0,0-.11.25.391.391,0,0,0,.1.25.369.369,0,0,0,.5,0,.35.35,0,0,0-.25-.6Z" style="fill:#17306d"/><path d="M39.75,9a.35.35,0,0,0-.25.6.369.369,0,0,0,.5,0,.359.359,0,0,0,0-.5A.369.369,0,0,0,39.75,9Z" style="fill:#17306d"/><path d="M35.75,9a.34.34,0,0,0-.35.33v.02a.332.332,0,0,0,.11.25.35.35,0,0,0,.59-.25A.34.34,0,0,0,35.77,9Z" style="fill:#17306d"/><path d="M36.25,19a.391.391,0,0,0-.25.1.354.354,0,0,0-.1.25.391.391,0,0,0,.1.25.359.359,0,0,0,.5,0,.31.31,0,0,0,.1-.24.34.34,0,0,0-.33-.35h-.02Z" style="fill:#17306d"/><path d="M29.75,8.28a.348.348,0,0,0-.24.1.358.358,0,0,0-.11.25.332.332,0,0,0,.11.25.369.369,0,0,0,.49,0,.363.363,0,0,0,.1-.25.34.34,0,0,0-.33-.35Z" style="fill:#17306d"/><path d="M31.25,3.28a.35.35,0,0,0-.25.6.369.369,0,0,0,.5,0,.35.35,0,0,0-.25-.6Z" style="fill:#17306d"/><path d="M36.75.78a.391.391,0,0,0-.25.1.369.369,0,0,0-.1.25.332.332,0,0,0,.11.25.369.369,0,0,0,.49,0,.363.363,0,0,0,.1-.25A.369.369,0,0,0,37,.88.391.391,0,0,0,36.75.78Z" style="fill:#17306d"/><path d="M62.75,14.78a.34.34,0,0,0-.35.33v.02a.332.332,0,0,0,.11.25.369.369,0,0,0,.49,0,.363.363,0,0,0,.1-.25.34.34,0,0,0-.33-.35Z" style="fill:#17306d"/><path d="M59.75,21a.332.332,0,0,0-.25.11.347.347,0,0,0,.49.49.358.358,0,0,0,.11-.25.391.391,0,0,0-.1-.25A.369.369,0,0,0,59.75,21Z" style="fill:#17306d"/><path d="M54.25,21.28a.391.391,0,0,0-.25.1.369.369,0,0,0-.1.25.35.35,0,1,0,.6-.24A.339.339,0,0,0,54.25,21.28Z" style="fill:#17306d"/><path d="M54.5,30a.358.358,0,0,0-.25.11.329.329,0,0,0-.1.24.391.391,0,0,0,.1.25.369.369,0,0,0,.5,0,.391.391,0,0,0,.1-.25.339.339,0,0,0-.11-.25A.348.348,0,0,0,54.5,30Z" style="fill:#17306d"/><path d="M62.25,29.53a.35.35,0,0,0-.25.6.369.369,0,0,0,.5,0,.35.35,0,0,0-.25-.6Z" style="fill:#17306d"/><path d="M66.75,24.28a.348.348,0,0,0-.24.1.358.358,0,0,0-.11.25.391.391,0,0,0,.1.25.361.361,0,0,0,.49,0,.319.319,0,0,0,.11-.25.34.34,0,0,0-.33-.35Z" style="fill:#17306d"/><path d="M69.25,17.53a.348.348,0,0,0-.24.1.358.358,0,0,0-.11.25.391.391,0,0,0,.1.25.36.36,0,0,0,.6-.25.34.34,0,0,0-.33-.35Z" style="fill:#17306d"/><path d="M63.25,10a.348.348,0,0,0-.24.1.358.358,0,0,0-.11.25.391.391,0,0,0,.1.25.361.361,0,0,0,.49,0,.319.319,0,0,0,.11-.25.34.34,0,0,0-.33-.35Z" style="fill:#17306d"/><path d="M70,10.78a.34.34,0,0,0-.35.33v.02a.332.332,0,0,0,.11.25.369.369,0,0,0,.49,0,.363.363,0,0,0,.1-.25.34.34,0,0,0-.33-.35Z" style="fill:#17306d"/><path d="M64.5,6.28a.35.35,0,0,0-.25.6.359.359,0,0,0,.5,0,.348.348,0,0,0,.1-.24.34.34,0,0,0-.33-.35H64.5Z" style="fill:#17306d"/><path d="M65.5,3.53a.35.35,0,0,0-.25.6.369.369,0,0,0,.5,0,.35.35,0,0,0-.25-.6Z" style="fill:#17306d"/><path d="M62.25,1.53a.34.34,0,0,0-.35.33v.02a.339.339,0,0,0,.11.25.361.361,0,0,0,.49,0,.31.31,0,0,0,.1-.24.34.34,0,0,0-.33-.35h-.02Z" style="fill:#17306d"/><path d="M52.5,2a.35.35,0,0,0-.25.6.36.36,0,0,0,.6-.25.391.391,0,0,0-.1-.25A.369.369,0,0,0,52.5,2Z" style="fill:#17306d"/><path d="M44.5,5.28a.339.339,0,0,0-.25.11.348.348,0,0,0-.1.24.332.332,0,0,0,.11.25.369.369,0,0,0,.49,0,.363.363,0,0,0,.1-.25.34.34,0,0,0-.33-.35Z" style="fill:#17306d"/><path d="M28.25.53a.391.391,0,0,0-.25.1.363.363,0,0,0-.1.25.332.332,0,0,0,.11.25A.35.35,0,0,0,28.6.88a.332.332,0,0,0-.11-.25A.348.348,0,0,0,28.25.53Z" style="fill:#17306d"/><path d="M2.75,42.28a.391.391,0,0,0-.25.1.359.359,0,0,0,0,.5.38.38,0,0,0,.5,0,.359.359,0,0,0,0-.5A.391.391,0,0,0,2.75,42.28Z" style="fill:#17306d"/><path d="M13,66.78a.358.358,0,0,0-.25.11.31.31,0,0,0-.1.24.369.369,0,0,0,.1.25.36.36,0,0,0,.6-.25.332.332,0,0,0-.11-.25A.348.348,0,0,0,13,66.78Z" style="fill:#17306d"/><path d="M70,37.28a.34.34,0,0,0-.35.33v.02a.332.332,0,0,0,.11.25.369.369,0,0,0,.49,0,.363.363,0,0,0,.1-.25.34.34,0,0,0-.33-.35Z" style="fill:#17306d"/><path d="M71,30.53a.35.35,0,0,0-.25.6.369.369,0,0,0,.5,0,.35.35,0,0,0-.25-.6Z" style="fill:#17306d"/><path d="M.75,20a.391.391,0,0,0-.25.1.391.391,0,0,0-.1.25.332.332,0,0,0,.11.25.369.369,0,0,0,.49,0,.363.363,0,0,0,.1-.25A.391.391,0,0,0,1,20.1.391.391,0,0,0,.75,20Z" style="fill:#17306d"/><path d="M71.75,48.28a.35.35,0,0,0-.25.6.38.38,0,0,0,.5,0,.35.35,0,0,0-.25-.6Z" style="fill:#17306d"/><path d="M68.75,45.28a.35.35,0,0,0-.25.6.369.369,0,0,0,.5,0,.391.391,0,0,0,.1-.25.354.354,0,0,0-.1-.25A.391.391,0,0,0,68.75,45.28Z" style="fill:#17306d"/><path d="M68.25,11.53a.34.34,0,0,0-.35.33v.02a.369.369,0,0,0,.1.25.38.38,0,0,0,.5,0,.35.35,0,0,0-.25-.6Z" style="fill:#17306d"/><path d="M71.25,3.53a.35.35,0,0,0-.25.6.369.369,0,0,0,.5,0,.391.391,0,0,0,.1-.25.354.354,0,0,0-.1-.25A.391.391,0,0,0,71.25,3.53Z" style="fill:#17306d"/><path d="M.25,14a.391.391,0,0,0-.25.1.359.359,0,0,0,0,.5.38.38,0,0,0,.5,0,.359.359,0,0,0,0-.5A.391.391,0,0,0,.25,14Z" style="fill:#17306d"/><path d="M2.5.53a.391.391,0,0,0-.25.1.359.359,0,0,0,0,.5.36.36,0,0,0,.6-.25.391.391,0,0,0-.1-.25A.391.391,0,0,0,2.5.53Z" style="fill:#17306d"/><path d="M70,47.78a.34.34,0,0,0-.35.33v.02a.332.332,0,0,0,.11.25.369.369,0,0,0,.49,0,.363.363,0,0,0,.1-.25.34.34,0,0,0-.33-.35Z" style="fill:#17306d"/><path d="M1,55a.391.391,0,0,0-.25.1.359.359,0,0,0,0,.5.38.38,0,0,0,.5,0,.359.359,0,0,0,0-.5A.391.391,0,0,0,1,55Z" style="fill:#17306d"/><path d="M17.75,58.73a.65.65,0,0,0-.65.65.661.661,0,0,0,.19.46.68.68,0,0,0,.92,0,.65.65,0,0,0-.46-1.11Z" style="fill:#17306d"/><path d="M29,60.73a.661.661,0,0,0-.46.19.681.681,0,0,0-.19.46.661.661,0,0,0,.19.46.67.67,0,0,0,.92,0,.661.661,0,0,0,.19-.46A.65.65,0,0,0,29,60.73Z" style="fill:#17306d"/><path d="M29,68.23a.65.65,0,0,0-.65.65.639.639,0,0,0,.19.46.68.68,0,0,0,.92,0,.65.65,0,0,0,0-.919h0A.681.681,0,0,0,29,68.23Z" style="fill:#17306d"/><path d="M40,61.23a.65.65,0,0,0-.65.65h0a.661.661,0,0,0,.19.46.68.68,0,0,0,.92,0,.631.631,0,0,0,.19-.46.681.681,0,0,0-.19-.46A.661.661,0,0,0,40,61.23Z" style="fill:#17306d"/><path d="M44.75,59.73a.61.61,0,0,0-.46.2.64.64,0,0,0-.19.45.661.661,0,0,0,.19.46.68.68,0,0,0,.92,0,.631.631,0,0,0,.19-.46.61.61,0,0,0-.2-.46A.6.6,0,0,0,44.75,59.73Z" style="fill:#17306d"/><path d="M47,48.73a.65.65,0,0,0-.46,1.11.68.68,0,0,0,.92,0A.65.65,0,0,0,47,48.73Z" style="fill:#17306d"/><path d="M54.5,64.73a.641.641,0,0,0-.5.19.65.65,0,0,0,0,.919h0a.68.68,0,0,0,.92,0,.639.639,0,0,0,.19-.46.661.661,0,0,0-.19-.46A.642.642,0,0,0,54.5,64.73Z" style="fill:#17306d"/><path d="M63.75,65a.65.65,0,0,0-.46,1.11.68.68,0,0,0,.92,0A.65.65,0,0,0,63.75,65Z" style="fill:#17306d"/><path d="M64.75,69a.661.661,0,0,0-.46.19.681.681,0,0,0-.19.46.661.661,0,0,0,.19.46.65.65,0,0,0,1.11-.46.63.63,0,0,0-.18-.45A.67.67,0,0,0,64.75,69Z" style="fill:#17306d"/><path d="M69.25,53.48a.65.65,0,0,0-.46,1.11.67.67,0,0,0,.92,0,.65.65,0,0,0-.46-1.11Z" style="fill:#17306d"/><path d="M7.75,24.48a.639.639,0,0,0-.46.19.681.681,0,0,0-.19.46.661.661,0,0,0,.19.46.68.68,0,0,0,.92,0,.661.661,0,0,0,.19-.46.681.681,0,0,0-.19-.46A.639.639,0,0,0,7.75,24.48Z" style="fill:#17306d"/><path d="M4.75,14.73a.639.639,0,0,0-.46.19.65.65,0,0,0,0,.919h0a.67.67,0,0,0,.92,0,.65.65,0,0,0,0-.919h0A.639.639,0,0,0,4.75,14.73Z" style="fill:#17306d"/><path d="M2,4.48a.661.661,0,0,0-.46.19.681.681,0,0,0-.19.46.661.661,0,0,0,.19.46.68.68,0,0,0,.92,0,.661.661,0,0,0,.19-.46.681.681,0,0,0-.19-.46A.661.661,0,0,0,2,4.48Z" style="fill:#17306d"/><path d="M17.5,1.73a.661.661,0,0,0-.46.19.681.681,0,0,0-.19.46.661.661,0,0,0,.19.46.68.68,0,0,0,.92,0,.661.661,0,0,0,.19-.46.681.681,0,0,0-.19-.46A.661.661,0,0,0,17.5,1.73Z" style="fill:#17306d"/><path d="M19,9.23a.65.65,0,0,0-.65.65h0a.639.639,0,0,0,.19.46.67.67,0,0,0,.92,0,.661.661,0,0,0,.19-.46.681.681,0,0,0-.19-.46A.661.661,0,0,0,19,9.23Z" style="fill:#17306d"/><path d="M20.75,26.23a.65.65,0,0,0-.65.65h0a.639.639,0,0,0,.19.46.67.67,0,0,0,.92,0,.661.661,0,0,0,.19-.46.681.681,0,0,0-.19-.46A.639.639,0,0,0,20.75,26.23Z" style="fill:#17306d"/><path d="M28.25,20.48a.65.65,0,0,0-.46,1.11.67.67,0,0,0,.92,0,.661.661,0,0,0,.19-.46.681.681,0,0,0-.19-.46A.639.639,0,0,0,28.25,20.48Z" style="fill:#17306d"/><path d="M33.75,11.23a.65.65,0,0,0-.65.65h0a.639.639,0,0,0,.19.46.68.68,0,0,0,.92,0,.631.631,0,0,0,.19-.46.639.639,0,0,0-.19-.46A.661.661,0,0,0,33.75,11.23Z" style="fill:#17306d"/><path d="M34,4.73a.639.639,0,0,0-.46.19.65.65,0,0,0,0,.919h0a.67.67,0,0,0,.92,0,.65.65,0,0,0,0-.919h0A.661.661,0,0,0,34,4.73Z" style="fill:#17306d"/><path d="M41.5,16.48a.65.65,0,0,0-.5,1.11.68.68,0,0,0,.92,0,.65.65,0,0,0-.46-1.11Z" style="fill:#17306d"/><path d="M52,11.73a.65.65,0,0,0-.46,1.11.68.68,0,0,0,.92,0A.65.65,0,0,0,52,11.73Z" style="fill:#17306d"/><path d="M54.75,6.23a.661.661,0,0,0-.46.19.681.681,0,0,0-.19.46.639.639,0,0,0,.19.46.68.68,0,0,0,.92,0,.639.639,0,0,0,.19-.46.681.681,0,0,0-.19-.46A.661.661,0,0,0,54.75,6.23Z" style="fill:#17306d"/><path d="M25,47a.661.661,0,0,0-.46.19.681.681,0,0,0-.19.46.661.661,0,0,0,.19.46.68.68,0,0,0,.92,0,.661.661,0,0,0,.19-.46.681.681,0,0,0-.19-.46A.661.661,0,0,0,25,47Z" style="fill:#17306d"/><path d="M35,48.23a.639.639,0,0,0-.46.19.65.65,0,0,0,0,.919h0a.68.68,0,0,0,.92,0A.65.65,0,0,0,35,48.23Z" style="fill:#17306d"/><path d="M44.75,42a.65.65,0,0,0-.46,1.11.68.68,0,0,0,.92,0,.631.631,0,0,0,.19-.46.61.61,0,0,0-.2-.46A.621.621,0,0,0,44.75,42Z" style="fill:#17306d"/><path d="M51.75,28.48a.65.65,0,0,0-.46,1.11.67.67,0,0,0,.92,0,.639.639,0,0,0,.19-.46.65.65,0,0,0-.65-.65Z" style="fill:#17306d"/><path d="M66.75,19.73a.65.65,0,0,0-.65.65h0a.61.61,0,0,0,.2.46.68.68,0,0,0,.91,0,.65.65,0,0,0-.46-1.11Z" style="fill:#17306d"/><path d="M47,23.73a.65.65,0,0,0-.46,1.11.68.68,0,0,0,.92,0A.65.65,0,0,0,47,23.73Z" style="fill:#17306d"/><path d="M36.75,27a.661.661,0,0,0-.46.19.681.681,0,0,0-.19.46.661.661,0,0,0,.19.46.68.68,0,0,0,.92,0,.661.661,0,0,0,.19-.46.681.681,0,0,0-.19-.46A.661.661,0,0,0,36.75,27Z" style="fill:#17306d"/><path d="M16.75,43a.65.65,0,0,0-.46,1.11.68.68,0,0,0,.92,0,.65.65,0,0,0,0-.919h0A.639.639,0,0,0,16.75,43Z" style="fill:#17306d"/><path d="M11,34.73a.65.65,0,0,0-.65.65h0a.639.639,0,0,0,.19.46.67.67,0,0,0,.92,0A.65.65,0,0,0,11,34.73Z" style="fill:#17306d"/><path d="M67.25,40.73a.661.661,0,0,0-.46.19.681.681,0,0,0-.19.46.661.661,0,0,0,.19.46.68.68,0,0,0,.92,0,.639.639,0,0,0,.19-.46.65.65,0,0,0-.65-.65Z" style="fill:#17306d"/><path d="M7,55.73a.61.61,0,0,0-.46.2.621.621,0,0,0-.19.45.661.661,0,0,0,.19.46.67.67,0,0,0,.92,0,.65.65,0,0,0,0-.919h0A.639.639,0,0,0,7,55.73Z" style="fill:#17306d"/><path d="M8.25,66.23a.681.681,0,0,0-.46.19.661.661,0,0,0-.19.46.639.639,0,0,0,.19.46.67.67,0,0,0,.92,0,.639.639,0,0,0,.19-.46A.65.65,0,0,0,8.25,66.23Z" style="fill:#17306d"/><path d="M3.25,69a.661.661,0,0,0-.46.19.681.681,0,0,0-.19.46.661.661,0,0,0,.19.46.68.68,0,0,0,.92,0,.661.661,0,0,0,.19-.46.681.681,0,0,0-.19-.46A.661.661,0,0,0,3.25,69Z" style="fill:#17306d"/><path d="M66.25,34.23a.65.65,0,0,0-.46,1.11.68.68,0,0,0,.92,0,.639.639,0,0,0,.19-.46.661.661,0,0,0-.19-.46A.639.639,0,0,0,66.25,34.23Z" style="fill:#17306d"/><path d="M43.75,8.48a.661.661,0,0,0-.46.19.681.681,0,0,0-.19.46.661.661,0,0,0,.19.46.67.67,0,0,0,.92,0,.661.661,0,0,0,.19-.46.681.681,0,0,0-.19-.46A.661.661,0,0,0,43.75,8.48Z" style="fill:#17306d"/><path d="M25.5,1.48a.661.661,0,0,0-.46.19.681.681,0,0,0-.19.46.661.661,0,0,0,.19.46.67.67,0,0,0,.92,0,.661.661,0,0,0,.19-.46.681.681,0,0,0-.19-.46A.661.661,0,0,0,25.5,1.48Z" style="fill:#17306d"/><path d="M21.75,29.73a.661.661,0,0,0-.46.19.65.65,0,0,0,0,.919h0a.68.68,0,0,0,.92,0,.65.65,0,0,0-.46-1.11Z" style="fill:#17306d"/><path d="M23.75,42.48a.661.661,0,0,0-.46.19.681.681,0,0,0-.19.46.661.661,0,0,0,.19.46.67.67,0,0,0,.92,0,.639.639,0,0,0,.19-.46A.65.65,0,0,0,23.75,42.48Z" style="fill:#17306d"/><path d="M41.25,37a.65.65,0,0,0-.46,1.11.68.68,0,0,0,.92,0,.661.661,0,0,0,.19-.46.681.681,0,0,0-.19-.46A.661.661,0,0,0,41.25,37Z" style="fill:#17306d"/><path d="M67.25,27.73a.661.661,0,0,0-.46.19.681.681,0,0,0-.19.46.661.661,0,0,0,.19.46.68.68,0,0,0,.92,0,.639.639,0,0,0,.19-.46.65.65,0,0,0-.65-.65Z" style="fill:#17306d"/><path d="M53,56.48a.65.65,0,0,0-.46,1.11.68.68,0,0,0,.92,0,.661.661,0,0,0,.19-.46.681.681,0,0,0-.19-.46A.661.661,0,0,0,53,56.48Z" style="fill:#17306d"/><path d="M33.75,55.48a.661.661,0,0,0-.46.19.681.681,0,0,0-.19.46.639.639,0,0,0,.19.46.68.68,0,0,0,.92,0,.639.639,0,0,0,.19-.46.65.65,0,0,0-.65-.65Z" style="fill:#17306d"/><path d="M12.5,52.23a.65.65,0,0,0-.5,1.11.67.67,0,0,0,.92,0,.65.65,0,0,0-.46-1.11Z" style="fill:#17306d"/><path d="M49.25,67a.65.65,0,0,0-.46,1.11.68.68,0,0,0,.92,0A.65.65,0,0,0,49.25,67Z" style="fill:#17306d"/><path d="M58.75,50.73a.65.65,0,0,0-.46,1.11.68.68,0,0,0,.92,0,.639.639,0,0,0,.19-.46.65.65,0,0,0-.65-.65Z" style="fill:#17306d"/><path d="M67.25,14.23a.661.661,0,0,0-.46.19.681.681,0,0,0-.19.46.661.661,0,0,0,.19.46.68.68,0,0,0,.92,0,.639.639,0,0,0,.19-.46.65.65,0,0,0-.65-.65Z" style="fill:#17306d"/><path d="M5,1.73a.639.639,0,0,0-.46.19.65.65,0,0,0,0,.919h0a.67.67,0,0,0,.92,0,.65.65,0,0,0,0-.919h0A.639.639,0,0,0,5,1.73Z" style="fill:#17306d"/><path d="M2.5,58.23a.61.61,0,0,0-.46.2.621.621,0,0,0-.19.45.662.662,0,0,0,.15.46.67.67,0,0,0,.92,0,.65.65,0,0,0,0-.919h0A.642.642,0,0,0,2.5,58.23Z" style="fill:#17306d"/><path d="M16.25,68.23a.65.65,0,0,0-.46,1.11.68.68,0,0,0,.92,0,.65.65,0,0,0-.46-1.11Z" style="fill:#17306d"/><path d="M40.25,67a.65.65,0,0,0-.46,1.11.68.68,0,0,0,.92,0,.639.639,0,0,0,.19-.46.65.65,0,0,0-.65-.65Z" style="fill:#17306d"/><path d="M2.5,39.48a.641.641,0,0,0-.5.19.65.65,0,0,0,0,.919H2a.68.68,0,0,0,.92,0,.65.65,0,0,0-.46-1.11Z" style="fill:#17306d"/><path d="M7.25,46.48a.639.639,0,0,0-.46.19.65.65,0,0,0,0,.919h0a.68.68,0,0,0,.92,0,.639.639,0,0,0,.19-.46.661.661,0,0,0-.19-.46A.639.639,0,0,0,7.25,46.48Z" style="fill:#17306d"/><path d="M3.75,24.73a.661.661,0,0,0-.46.19.681.681,0,0,0-.19.46.661.661,0,0,0,.19.46.67.67,0,0,0,.92,0,.661.661,0,0,0,.19-.46.681.681,0,0,0-.19-.46A.639.639,0,0,0,3.75,24.73Z" style="fill:#17306d"/><path d="M10.75,21a.661.661,0,0,0-.46.19.681.681,0,0,0-.19.46.639.639,0,0,0,.19.46.68.68,0,0,0,.92,0,.661.661,0,0,0,.19-.46.681.681,0,0,0-.19-.46A.661.661,0,0,0,10.75,21Z" style="fill:#17306d"/><path d="M9.75,11.73a.639.639,0,0,0-.46.19.65.65,0,0,0,0,.919h0a.68.68,0,0,0,.92,0,.65.65,0,0,0,0-.919h0A.639.639,0,0,0,9.75,11.73Z" style="fill:#17306d"/><path d="M13.25,5.73a.661.661,0,0,0-.46.19.681.681,0,0,0-.19.46.639.639,0,0,0,.19.46.67.67,0,0,0,.92,0,.661.661,0,0,0,.19-.46.681.681,0,0,0-.19-.46A.661.661,0,0,0,13.25,5.73Z" style="fill:#17306d"/><path d="M21.75,18.23a.661.661,0,0,0-.46.19.639.639,0,0,0-.19.46.6.6,0,0,0,.2.46.65.65,0,0,0,1.1-.46.681.681,0,0,0-.19-.46A.661.661,0,0,0,21.75,18.23Z" style="fill:#17306d"/><path d="M31,34a.661.661,0,0,0-.46.19.681.681,0,0,0-.19.46.661.661,0,0,0,.19.46.68.68,0,0,0,.92,0,.661.661,0,0,0,.19-.46.681.681,0,0,0-.19-.46A.661.661,0,0,0,31,34Z" style="fill:#17306d"/><path d="M25.75,37.48a.65.65,0,0,0-.46,1.11.67.67,0,0,0,.92,0,.65.65,0,0,0-.46-1.11Z" style="fill:#17306d"/><path d="M37,43a.661.661,0,0,0-.46.19.681.681,0,0,0-.19.46.661.661,0,0,0,.19.46.68.68,0,0,0,.92,0,.661.661,0,0,0,.19-.46.681.681,0,0,0-.19-.46A.661.661,0,0,0,37,43Z" style="fill:#17306d"/><path d="M61.5,55a.661.661,0,0,0-.46.19.681.681,0,0,0-.19.46.661.661,0,0,0,.19.46.68.68,0,0,0,.92,0,.639.639,0,0,0,.19-.46A.65.65,0,0,0,61.5,55Z" style="fill:#17306d"/><path d="M61,44.48a.639.639,0,0,0-.46.19.681.681,0,0,0-.19.46.661.661,0,0,0,.19.46.68.68,0,0,0,.92,0,.65.65,0,0,0,0-.919h0A.639.639,0,0,0,61,44.48Z" style="fill:#17306d"/><path d="M58.5,14.48a.661.661,0,0,0-.46.19.681.681,0,0,0-.19.46.661.661,0,0,0,.19.46.68.68,0,0,0,.92,0,.661.661,0,0,0,.19-.46.681.681,0,0,0-.19-.46A.661.661,0,0,0,58.5,14.48Z" style="fill:#17306d"/><path d="M59,27.23a.639.639,0,0,0-.46.19.65.65,0,0,0,0,.919h0a.68.68,0,0,0,.92,0,.65.65,0,0,0,0-.919h0A.639.639,0,0,0,59,27.23Z" style="fill:#17306d"/><path d="M55.5,36a.661.661,0,0,0-.46.19.681.681,0,0,0-.19.46.661.661,0,0,0,.19.46.68.68,0,0,0,.92,0,.661.661,0,0,0,.19-.46.681.681,0,0,0-.19-.46A.661.661,0,0,0,55.5,36Z" style="fill:#17306d"/><path d="M69,1a.681.681,0,0,0-.46.19.65.65,0,0,0,0,.919h0a.691.691,0,0,0,.92,0A.65.65,0,0,0,69,1Z" style="fill:#17306d"/><path d="M60.5,5.73A.65.65,0,0,0,60,6.84a.67.67,0,0,0,.92,0,.639.639,0,0,0,.19-.46.65.65,0,0,0-.65-.65h.04Z" style="fill:#17306d"/><path d="M44.25.23a.65.65,0,0,0-.46,1.11.68.68,0,0,0,.92,0A.65.65,0,0,0,44.25.23Z" style="fill:#17306d"/><path d="M24.25,70.48a.65.65,0,0,0-.65.65.639.639,0,0,0,.19.46.67.67,0,0,0,.92,0,.661.661,0,0,0,.19-.46.681.681,0,0,0-.19-.46A.639.639,0,0,0,24.25,70.48Z" style="fill:#17306d"/><path d="M-.25,48.28a.391.391,0,0,0-.25.1.391.391,0,0,0-.1.25.391.391,0,0,0,.1.25.38.38,0,0,0,.5,0,.391.391,0,0,0,.1-.25.391.391,0,0,0-.1-.25A.391.391,0,0,0-.25,48.28Z" style="fill:#17306d"/></pattern></defs><title>raffreddamento</title><g id="Layer_1-2" data-name="Layer 1-2"><path d="M101.136,195.846v100a6.7,6.7,0,0,0,6.69,6.69h144.12a6.691,6.691,0,0,0,6.68-6.69v-100h-64.37v35.34l-5.33.46v-35.8h-11.36v36.61l-5.33.49v-37.1Zm53.1,41.8a3,3,0,0,1,2.68-3.2l51.67-4.52a3,3,0,0,1,3.2,2.68h0a3,3,0,0,1-2.68,3.2h-.51a3,3,0,0,1,.51,5.88l-51.67,4.52a3,3,0,1,1-.52-5.88h.51a3,3,0,0,1-3.17-2.68Zm57.56,36.44a3,3,0,0,1-2.68,3.2l-11.71,1h0l-11.19,1a2.95,2.95,0,0,1-.51-5.87l11.71-1h0l-40,3.5a3,3,0,0,1-.52-5.88l51.67-4.52a3,3,0,1,1,.52,5.88h-.51A3,3,0,0,1,211.8,274.086Zm0-23.68h0a3,3,0,0,1-2.68,3.19l-.51.05a2.95,2.95,0,0,1,.5,5.87h-.51a3,3,0,0,1,.51,5.88l-51.67,4.52a3,3,0,1,1-.52-5.88h.51a3,3,0,0,1-.51-5.88l.51-.05a3,3,0,0,1-3.18-2.68h0a3,3,0,0,1,2.68-3.19h.51a2.95,2.95,0,0,1-.51-5.87l51.67-4.53a3,3,0,0,1,.52,5.88l-.51.05a3,3,0,0,1,3.19,2.61Z" style="fill:url(#USGS_22_Gravel_Beach_4)"/><path d="M264.906,147.516v148.64a11.74,11.74,0,0,1-11.73,11.74H106.6a11.74,11.74,0,0,1-11.74-11.74h0V147.516" style="fill:none;stroke:#17306d;stroke-linecap:round;stroke-linejoin:round;stroke-width:2.3399999141693115px"/><polyline points="85.556 155.856 90.126 139.176 172.226 139.176" style="fill:none;stroke:#17306d;stroke-linecap:round;stroke-linejoin:round;stroke-width:2.3399999141693115px"/><polyline points="94.856 161.366 85.556 161.366 85.556 155.856" style="fill:none;stroke:#17306d;stroke-linecap:round;stroke-linejoin:round;stroke-width:2.3399999141693115px"/><line x1="142.816" y1="85.556" x2="139.036" y2="81.776" style="fill:none"/><rect x="138.277" y="80.837" width="3.1" height="7.85" transform="translate(-18.982 123.699) rotate(-45)" style="fill:#17306d;opacity:0.5;isolation:isolate"/><path d="M156.914,234.45l51.673-4.521a2.95,2.95,0,0,1,3.2,2.682h0a2.95,2.95,0,0,1-2.682,3.2l-51.673,4.521a2.95,2.95,0,0,1-3.2-2.682h0A2.95,2.95,0,0,1,156.914,234.45Z" style="fill:#17306d;opacity:0.5;isolation:isolate"/><path d="M156.92,240.368l51.673-4.521a2.95,2.95,0,0,1,3.2,2.682h0a2.949,2.949,0,0,1-2.682,3.195l-51.673,4.521a2.95,2.95,0,0,1-3.2-2.681h0A2.95,2.95,0,0,1,156.92,240.368Z" style="fill:#17306d;opacity:0.5;isolation:isolate"/><path d="M156.926,246.284l51.673-4.521a2.95,2.95,0,0,1,3.2,2.682h0a2.95,2.95,0,0,1-2.682,3.2l-51.673,4.521a2.95,2.95,0,0,1-3.2-2.682h0A2.95,2.95,0,0,1,156.926,246.284Z" style="fill:#17306d;opacity:0.5;isolation:isolate"/><path d="M156.923,252.222,208.6,247.7a2.949,2.949,0,0,1,3.195,2.682h0a2.949,2.949,0,0,1-2.681,3.195L157.437,258.1a2.95,2.95,0,0,1-3.2-2.681h0A2.95,2.95,0,0,1,156.923,252.222Z" style="fill:#17306d;opacity:0.5;isolation:isolate"/><path d="M156.919,258.14l51.673-4.521a2.949,2.949,0,0,1,3.195,2.682h0a2.95,2.95,0,0,1-2.681,3.2l-51.673,4.521a2.95,2.95,0,0,1-3.2-2.682h0A2.95,2.95,0,0,1,156.919,258.14Z" style="fill:#17306d;opacity:0.5;isolation:isolate"/><path d="M156.915,264.057l51.672-4.52a2.949,2.949,0,0,1,3.2,2.681h0a2.95,2.95,0,0,1-2.681,3.2l-51.673,4.521a2.95,2.95,0,0,1-3.2-2.682h0A2.95,2.95,0,0,1,156.915,264.057Z" style="fill:#17306d;opacity:0.5;isolation:isolate"/><path d="M156.931,269.974l51.672-4.521a2.95,2.95,0,0,1,3.2,2.682h0a2.95,2.95,0,0,1-2.681,3.2l-51.673,4.521a2.95,2.95,0,0,1-3.2-2.682h0A2.95,2.95,0,0,1,156.931,269.974Z" style="fill:#17306d;opacity:0.5;isolation:isolate"/><path d="M197.406,272.356l11.19-1a3,3,0,0,1,3.2,2.68h0a3,3,0,0,1-2.68,3.2l-11.71,1h0l-11.19,1a3,3,0,0,1-3.19-2.68h0a3,3,0,0,1,2.68-3.19l11.71-1" style="fill:#17306d;opacity:0.5;isolation:isolate"/><path d="M194.256,231.186V70.676a6,6,0,0,1,10.21-4.32l.32.31,18.89,18.89,3.78-3.78-19-19a12.278,12.278,0,0,0-1.27-1.11,11.369,11.369,0,0,0-18.24,9.06h0v161l-11.38.81V70.676h0a11.369,11.369,0,0,0-18.24-9.06,10.986,10.986,0,0,0-1.27,1.11l-19,19.05,3.78,3.78,18.87-18.89.32-.31a6,6,0,0,1,10.23,4.32v162.27" style="fill:#17306d;opacity:0.5;isolation:isolate"/><line x1="223.696" y1="85.556" x2="227.476" y2="81.776" style="fill:none"/><rect x="222.755" y="83.212" width="7.85" height="3.1" transform="translate(6.457 185.113) rotate(-45)" style="fill:#17306d;opacity:0.5;isolation:isolate"/><g style="isolation:isolate"><path d="M28.143,71.007a5.406,5.406,0,0,1-1.736.547,4.472,4.472,0,0,1-1.613-.126,3.1,3.1,0,0,1-1.92-1.2,2.272,2.272,0,0,1-.293-1.887,2.375,2.375,0,0,1,1.491-1.654,3.512,3.512,0,0,1,1.126-.2,10.61,10.61,0,0,1,1.3.111,13.225,13.225,0,0,0,2.618.161c.055-.191.089-.312.1-.363a1.6,1.6,0,0,0-.086-1.307,2.422,2.422,0,0,0-1.471-.885,2.553,2.553,0,0,0-1.546-.03A2.177,2.177,0,0,0,25.1,65.216l-1.32-.538a3.5,3.5,0,0,1,.979-1.261,2.785,2.785,0,0,1,1.451-.513,5.7,5.7,0,0,1,1.948.191,5.119,5.119,0,0,1,1.653.691,2.339,2.339,0,0,1,.811.877,2.277,2.277,0,0,1,.189,1.064,8.022,8.022,0,0,1-.262,1.308L30.07,68.9a20.487,20.487,0,0,0-.547,2.491,3.245,3.245,0,0,0,.1,1.083L28.16,72.1A3.086,3.086,0,0,1,28.143,71.007Zm.688-3.155a10.586,10.586,0,0,1-2.42-.06,5.5,5.5,0,0,0-1.293-.035,1.253,1.253,0,0,0-.669.313,1.278,1.278,0,0,0-.182,1.656,1.881,1.881,0,0,0,1.143.692,2.978,2.978,0,0,0,1.53.018,2.264,2.264,0,0,0,1.174-.73,3.5,3.5,0,0,0,.585-1.341Z" style="fill:#17306d"/></g><g style="isolation:isolate"><path d="M35.723,72.905l1.122.9a3.694,3.694,0,0,1-2.215,1.356,3.48,3.48,0,0,1-2.455-.51,3.675,3.675,0,0,1-1.822-2.442,4.667,4.667,0,0,1,.79-3.367A5.941,5.941,0,0,1,32.79,67a3.191,3.191,0,0,1,2-.611A4.139,4.139,0,0,1,36.807,67a3.54,3.54,0,0,1,1.585,1.782,3.223,3.223,0,0,1-.063,2.3l-1.318-.542a2.35,2.35,0,0,0,.061-1.479,1.852,1.852,0,0,0-.833-1.011A2.248,2.248,0,0,0,34.31,67.8a3.728,3.728,0,0,0-1.871,1.771,3.862,3.862,0,0,0-.732,2.485,2.15,2.15,0,0,0,1.072,1.56,2.026,2.026,0,0,0,1.489.29A2.6,2.6,0,0,0,35.723,72.905Z" style="fill:#17306d"/></g><g style="isolation:isolate"><path d="M36.824,82.342l2.8-3.086a2.572,2.572,0,0,1-1.225-.051,2.767,2.767,0,0,1-1.162-.632,3.406,3.406,0,0,1-1.12-2.649,4.776,4.776,0,0,1,1.419-3.192,5.686,5.686,0,0,1,1.875-1.4,3.321,3.321,0,0,1,1.991-.276,3.441,3.441,0,0,1,1.727.858,2.849,2.849,0,0,1,.946,2.654l.765-.844.962.873-7.909,8.718ZM38.6,73.771a3.763,3.763,0,0,0-1.145,2.287,2.089,2.089,0,0,0,.671,1.717,2.02,2.02,0,0,0,1.7.488A3.6,3.6,0,0,0,41.91,76.95a3.962,3.962,0,0,0,1.2-2.365,2.078,2.078,0,0,0-.643-1.742,1.988,1.988,0,0,0-1.714-.477A3.886,3.886,0,0,0,38.6,73.771Z" style="fill:#17306d"/></g><g style="isolation:isolate"><path d="M45.41,86.49l.9-.863a3.108,3.108,0,0,1-2.9-.949,3.424,3.424,0,0,1-.763-1.212,2.3,2.3,0,0,1-.146-1.2,2.7,2.7,0,0,1,.463-1.059,7.344,7.344,0,0,1,.908-.992l3.8-3.637,1,1.038-3.4,3.257a8.366,8.366,0,0,0-1.035,1.113,1.5,1.5,0,0,0-.245,1.032,1.782,1.782,0,0,0,.518,1.009,2.359,2.359,0,0,0,1.08.646,1.84,1.84,0,0,0,1.208-.044,4.528,4.528,0,0,0,1.359-.977l3.283-3.146,1,1.039L46.3,87.418Z" style="fill:#17306d"/></g><g style="isolation:isolate"><path d="M52.959,92.251a5.381,5.381,0,0,1-1.8-.338,4.466,4.466,0,0,1-1.368-.874,3.108,3.108,0,0,1-1.129-1.973,2.272,2.272,0,0,1,.633-1.807,2.346,2.346,0,0,1,.987-.652A2.373,2.373,0,0,1,51.4,86.5a3.544,3.544,0,0,1,1.09.356,10.51,10.51,0,0,1,1.1.712,13.247,13.247,0,0,0,2.241,1.381l.262-.273a1.609,1.609,0,0,0,.543-1.2A2.434,2.434,0,0,0,55.749,86a2.569,2.569,0,0,0-1.354-.758,2.188,2.188,0,0,0-1.388.447l-.914-1.1a3.529,3.529,0,0,1,1.463-.652,2.791,2.791,0,0,1,1.526.231,5.718,5.718,0,0,1,1.634,1.092,5.114,5.114,0,0,1,1.135,1.393,2.345,2.345,0,0,1,.3,1.159,2.285,2.285,0,0,1-.335,1.031,8.035,8.035,0,0,1-.851,1.034L55.66,91.3A20.31,20.31,0,0,0,54,93.244a3.236,3.236,0,0,0-.426,1l-1.115-1.025A3.132,3.132,0,0,1,52.959,92.251Zm2.1-2.466a10.624,10.624,0,0,1-2.114-1.2,5.466,5.466,0,0,0-1.127-.642,1.249,1.249,0,0,0-.74-.04,1.28,1.28,0,0,0-.945,1.379,1.891,1.891,0,0,0,.685,1.154,2.985,2.985,0,0,0,1.345.738,2.254,2.254,0,0,0,1.384-.09,3.508,3.508,0,0,0,1.152-.91Z" style="fill:#17306d"/></g><g style="isolation:isolate"><path d="M58.457,97.555l3.726-6.379-1.1-.643.566-.969,1.1.643.457-.782A3.965,3.965,0,0,1,63.98,88.4a1.849,1.849,0,0,1,1.092-.416,2.634,2.634,0,0,1,1.445.441,7.051,7.051,0,0,1,1.09.8l-.822.977a4.895,4.895,0,0,0-.693-.5,1.267,1.267,0,0,0-.943-.228,1.526,1.526,0,0,0-.765.77l-.4.678,1.432.837-.566.968L63.422,91.9,59.7,98.278Z" style="fill:#17306d"/></g><g style="isolation:isolate"><path d="M63.39,100.168l3.056-7.942,1.21.466-.462,1.2a3.508,3.508,0,0,1,1.285-.785,1.6,1.6,0,0,1,.967.063,2.814,2.814,0,0,1,1.216.966l-.943,1.07a2.079,2.079,0,0,0-.876-.67,1.374,1.374,0,0,0-.9-.04,1.547,1.547,0,0,0-.784.544,5.622,5.622,0,0,0-.828,1.484l-1.6,4.159Z" style="fill:#17306d"/></g><g style="isolation:isolate"><path d="M75.985,100.528l1.446.407a3.639,3.639,0,0,1-1.595,1.811,3.941,3.941,0,0,1-2.521.348,3.9,3.9,0,0,1-2.758-1.582,4.492,4.492,0,0,1-.6-3.357,4.7,4.7,0,0,1,1.594-3.134,3.75,3.75,0,0,1,3.018-.744,3.641,3.641,0,0,1,2.586,1.569,4.623,4.623,0,0,1,.581,3.4c-.013.085-.035.211-.066.38l-6.283-.952a3.278,3.278,0,0,0,.464,2.245,2.366,2.366,0,0,0,1.65,1,2.2,2.2,0,0,0,1.4-.21A2.766,2.766,0,0,0,75.985,100.528ZM71.646,97.51l4.7.713a2.892,2.892,0,0,0-.3-1.677,2.215,2.215,0,0,0-1.643-1.093,2.3,2.3,0,0,0-1.754.408A2.636,2.636,0,0,0,71.646,97.51Z" style="fill:#17306d"/></g><g style="isolation:isolate"><path d="M84.8,103.236l-.031-1.073a2.647,2.647,0,0,1-2.342,1.334,3.34,3.34,0,0,1-1.887-.507,3.691,3.691,0,0,1-1.366-1.528,5.409,5.409,0,0,1-.535-2.3,6.068,6.068,0,0,1,.357-2.323,3.358,3.358,0,0,1,1.228-1.625,3.4,3.4,0,0,1,1.883-.609,2.846,2.846,0,0,1,1.379.286,2.884,2.884,0,0,1,1,.817L84.361,91.5l1.433-.042.339,11.742Zm-4.68-4.115a3.7,3.7,0,0,0,.76,2.424,2.083,2.083,0,0,0,1.649.763,2.043,2.043,0,0,0,1.584-.821,3.564,3.564,0,0,0,.592-2.378,4,4,0,0,0-.746-2.542,2.068,2.068,0,0,0-1.682-.769,2,2,0,0,0-1.583.831A3.872,3.872,0,0,0,80.115,99.121Z" style="fill:#17306d"/></g><g style="isolation:isolate"><path d="M94.985,101.986l-.188-1.057a2.647,2.647,0,0,1-2.121,1.664,3.346,3.346,0,0,1-1.94-.222,3.7,3.7,0,0,1-1.577-1.311,5.418,5.418,0,0,1-.867-2.194,6.038,6.038,0,0,1,.011-2.35,3.346,3.346,0,0,1,.975-1.788,3.393,3.393,0,0,1,1.773-.88,2.834,2.834,0,0,1,2.516.74l-.74-4.15,1.411-.252L96.3,101.75Zm-5.234-3.381a3.69,3.69,0,0,0,1.108,2.286,2.082,2.082,0,0,0,1.743.512,2.041,2.041,0,0,0,1.446-1.045,3.571,3.571,0,0,0,.236-2.439,4,4,0,0,0-1.113-2.406A2.071,2.071,0,0,0,91.394,95a2,2,0,0,0-1.443,1.055A3.864,3.864,0,0,0,89.751,98.605Z" style="fill:#17306d"/></g><g style="isolation:isolate"><path d="M104.963,97.271a5.382,5.382,0,0,1-1.01,1.506,4.465,4.465,0,0,1-1.332.909,3.094,3.094,0,0,1-2.243.259,2.255,2.255,0,0,1-1.4-1.284,2.325,2.325,0,0,1-.209-1.155,2.37,2.37,0,0,1,.338-1.062,3.506,3.506,0,0,1,.75-.855,10.589,10.589,0,0,1,1.078-.722,13.066,13.066,0,0,0,2.137-1.508q-.114-.271-.147-.345a1.591,1.591,0,0,0-.881-.963,2.411,2.411,0,0,0-1.695.229,2.55,2.55,0,0,0-1.221.941,2.175,2.175,0,0,0-.135,1.442l-1.362.4a3.482,3.482,0,0,1-.024-1.589,2.769,2.769,0,0,1,.808-1.3,5.7,5.7,0,0,1,1.634-1.065,5.107,5.107,0,0,1,1.716-.493,2.342,2.342,0,0,1,1.177.177,2.273,2.273,0,0,1,.81.709,8.1,8.1,0,0,1,.611,1.181l.789,1.751a20.183,20.183,0,0,0,1.127,2.276,3.17,3.17,0,0,0,.75.78l-1.371.618A3.041,3.041,0,0,1,104.963,97.271Zm-1.431-2.883a10.53,10.53,0,0,1-1.92,1.462,5.436,5.436,0,0,0-1.026.778,1.264,1.264,0,0,0-.326.66,1.273,1.273,0,0,0,.891,1.4,1.867,1.867,0,0,0,1.32-.173,2.973,2.973,0,0,0,1.2-.94,2.241,2.241,0,0,0,.459-1.3,3.519,3.519,0,0,0-.38-1.408Z" style="fill:#17306d"/></g><path d="M5.426,74.456h.29" style="fill:none;stroke:#17306d;stroke-linecap:round;stroke-linejoin:round;stroke-width:2.3399999141693115px"/><path d="M11.6,75.146c23,5.32,30.3,39.55,67.48,39.55,23.57,0,33.34-5.31,48.28-18.78" style="fill:none;stroke:#17306d;stroke-linecap:round;stroke-linejoin:round;stroke-width:2.3399999141693115px;stroke-dasharray:0.5899999737739563,5.929999828338623"/><path d="M129.546,93.916l.22-.2" style="fill:none;stroke:#17306d;stroke-linecap:round;stroke-linejoin:round;stroke-width:2.3399999141693115px"/><polygon points="130.446 106.016 128.116 105.816 129.086 94.306 117.526 94.176 117.556 91.836 131.626 91.996 130.446 106.016" style="fill:#17306d"/><path d="M359.356,74.566h-.29" style="fill:none;stroke:#17306d;stroke-linecap:round;stroke-linejoin:round;stroke-width:2.3399999141693115px"/><path d="M353.256,75.836c-21,7.07-29.18,38.86-65,38.86-24.55,0-34.13-5.76-50.17-20.49" style="fill:none;stroke:#17306d;stroke-linecap:round;stroke-linejoin:round;stroke-width:2.3399999141693115px;stroke-dasharray:0.5899999737739563,5.929999828338623"/><path d="M235.916,92.186l-.22-.2" style="fill:none;stroke:#17306d;stroke-linecap:round;stroke-linejoin:round;stroke-width:2.3399999141693115px"/><polygon points="350.206 66.626 348.896 68.576 358.496 74.996 351.386 84.106 353.236 85.556 361.896 74.456 350.206 66.626" style="fill:#17306d"/><g style="isolation:isolate"><path d="M265.111,97.364a5.35,5.35,0,0,1-1.81.015,4.454,4.454,0,0,1-1.5-.588,3.085,3.085,0,0,1-1.475-1.7,2.248,2.248,0,0,1,.27-1.881,2.362,2.362,0,0,1,1.9-1.14,3.511,3.511,0,0,1,1.128.138,10.309,10.309,0,0,1,1.2.483,13.108,13.108,0,0,0,2.444.915c.108-.165.176-.27.2-.316a1.582,1.582,0,0,0,.3-1.268,2.4,2.4,0,0,0-1.141-1.27,2.539,2.539,0,0,0-1.463-.478,2.166,2.166,0,0,0-1.266.7l-1.1-.9a3.5,3.5,0,0,1,1.3-.914,2.783,2.783,0,0,1,1.53-.066,5.639,5.639,0,0,1,1.8.749,5.1,5.1,0,0,1,1.373,1.138,2.346,2.346,0,0,1,.515,1.07,2.268,2.268,0,0,1-.129,1.067,8.159,8.159,0,0,1-.631,1.168l-1,1.635a20.556,20.556,0,0,0-1.244,2.21,3.166,3.166,0,0,0-.22,1.058l-1.282-.783A3.04,3.04,0,0,1,265.111,97.364Zm1.573-2.8A10.465,10.465,0,0,1,264.4,93.8a5.414,5.414,0,0,0-1.219-.408,1.248,1.248,0,0,0-.728.1,1.225,1.225,0,0,0-.525.479,1.213,1.213,0,0,0-.129,1.044,1.869,1.869,0,0,0,.885.991,2.974,2.974,0,0,0,1.451.461,2.241,2.241,0,0,0,1.329-.352,3.489,3.489,0,0,0,.947-1.1Z" style="fill:#17306d"/></g><g style="isolation:isolate"><path d="M274.472,98.778l1.289.62a3.678,3.678,0,0,1-1.85,1.807,3.465,3.465,0,0,1-2.492.049,3.657,3.657,0,0,1-2.309-1.965,4.629,4.629,0,0,1,.02-3.441,5.911,5.911,0,0,1,1.19-2.148,3.178,3.178,0,0,1,1.806-1.034,4.13,4.13,0,0,1,2.091.145,3.534,3.534,0,0,1,1.933,1.378,3.214,3.214,0,0,1,.448,2.245l-1.4-.234a2.325,2.325,0,0,0-.268-1.448,1.835,1.835,0,0,0-1.032-.8,2.24,2.24,0,0,0-1.927.186,3.711,3.711,0,0,0-1.421,2.133,3.828,3.828,0,0,0-.159,2.572,2.14,2.14,0,0,0,1.384,1.277,2.025,2.025,0,0,0,1.511-.05A2.578,2.578,0,0,0,274.472,98.778Z" style="fill:#17306d"/></g><g style="isolation:isolate"><path d="M281.6,106.28l.485-4.137a2.59,2.59,0,0,1-1.027.67,2.775,2.775,0,0,1-1.314.161,3.407,3.407,0,0,1-2.45-1.5,4.77,4.77,0,0,1-.7-3.422,5.688,5.688,0,0,1,.709-2.233,3.324,3.324,0,0,1,1.46-1.382,3.453,3.453,0,0,1,1.9-.306,2.847,2.847,0,0,1,2.312,1.609l.133-1.13,1.289.152-1.367,11.689Zm-3.542-8a3.756,3.756,0,0,0,.4,2.528A2.09,2.09,0,0,0,280,101.81a2.024,2.024,0,0,0,1.666-.591,3.6,3.6,0,0,0,.936-2.283,3.969,3.969,0,0,0-.4-2.621,2.081,2.081,0,0,0-1.536-1.043A1.984,1.984,0,0,0,279,95.88,3.892,3.892,0,0,0,278.057,98.275Z" style="fill:#17306d"/></g><g style="isolation:isolate"><path d="M292.165,103.349l.006-1.25a3.112,3.112,0,0,1-2.707,1.429,3.461,3.461,0,0,1-1.406-.3,2.315,2.315,0,0,1-.966-.731,2.717,2.717,0,0,1-.439-1.071,7.291,7.291,0,0,1-.081-1.347l.026-5.273,1.443.008-.024,4.72a8.437,8.437,0,0,0,.08,1.522,1.505,1.505,0,0,0,.573.9,1.791,1.791,0,0,0,1.088.33,2.373,2.373,0,0,0,1.219-.327,1.839,1.839,0,0,0,.81-.9,4.553,4.553,0,0,0,.245-1.66l.023-4.56,1.443.007-.043,8.51Z" style="fill:#17306d"/></g><g style="isolation:isolate"><path d="M302.5,100.584a5.358,5.358,0,0,1-1.277,1.294,4.455,4.455,0,0,1-1.482.642,3.1,3.1,0,0,1-2.256-.166,2.254,2.254,0,0,1-1.138-1.528,2.332,2.332,0,0,1,.011-1.177,2.374,2.374,0,0,1,.532-.98,3.527,3.527,0,0,1,.9-.7,10.638,10.638,0,0,1,1.2-.507,13.086,13.086,0,0,0,2.386-1.081c-.04-.192-.067-.316-.079-.368A1.6,1.6,0,0,0,300.6,94.9a2.417,2.417,0,0,0-1.712-.093,2.549,2.549,0,0,0-1.378.695,2.182,2.182,0,0,0-.4,1.394l-1.416.14a3.5,3.5,0,0,1,.276-1.569,2.79,2.79,0,0,1,1.041-1.13,5.7,5.7,0,0,1,1.808-.741,5.119,5.119,0,0,1,1.782-.16,2.312,2.312,0,0,1,1.124.394,2.256,2.256,0,0,1,.664.852,7.857,7.857,0,0,1,.379,1.277l.448,1.87a20.28,20.28,0,0,0,.679,2.453,3.2,3.2,0,0,0,.591.909l-1.465.35A3.076,3.076,0,0,1,302.5,100.584Zm-.864-3.1a10.609,10.609,0,0,1-2.165,1.076,5.524,5.524,0,0,0-1.158.572,1.27,1.27,0,0,0-.444.588,1.277,1.277,0,0,0,.612,1.547,1.87,1.87,0,0,0,1.333.077,2.975,2.975,0,0,0,1.357-.7,2.251,2.251,0,0,0,.7-1.193,3.476,3.476,0,0,0-.109-1.456Z" style="fill:#17306d"/></g><g style="isolation:isolate"><path d="M313.3,92.533l1.285-.63a3.676,3.676,0,0,1,.276,2.571,3.47,3.47,0,0,1-1.5,1.99,3.659,3.659,0,0,1-2.973.6,4.636,4.636,0,0,1-2.692-2.142,5.925,5.925,0,0,1-.952-2.263,3.184,3.184,0,0,1,.3-2.06,4.115,4.115,0,0,1,1.408-1.554,3.536,3.536,0,0,1,2.277-.668,3.213,3.213,0,0,1,2.041,1.036l-1.049.956a2.31,2.31,0,0,0-1.3-.684,1.832,1.832,0,0,0-1.265.318,2.235,2.235,0,0,0-1.044,1.63,3.7,3.7,0,0,0,.8,2.436,3.822,3.822,0,0,0,1.924,1.715,2.141,2.141,0,0,0,1.859-.3,2.024,2.024,0,0,0,.894-1.218A2.58,2.58,0,0,0,313.3,92.533Z" style="fill:#17306d"/></g><g style="isolation:isolate"><path d="M320.692,88.717a5.418,5.418,0,0,1-.488,1.76,4.464,4.464,0,0,1-.987,1.289,3.107,3.107,0,0,1-2.06.959,2.266,2.266,0,0,1-1.748-.784,2.335,2.335,0,0,1-.566-1.038,2.372,2.372,0,0,1-.012-1.12,3.5,3.5,0,0,1,.446-1.056,10.321,10.321,0,0,1,.8-1.032,13.093,13.093,0,0,0,1.566-2.116c-.131-.15-.214-.244-.25-.284a1.6,1.6,0,0,0-1.146-.641,2.426,2.426,0,0,0-1.549.756,2.548,2.548,0,0,0-.869,1.285,2.185,2.185,0,0,0,.327,1.421l-1.175.817a3.53,3.53,0,0,1-.525-1.513,2.8,2.8,0,0,1,.359-1.5,5.75,5.75,0,0,1,1.226-1.535,5.128,5.128,0,0,1,1.484-1.015,2.354,2.354,0,0,1,1.181-.2,2.283,2.283,0,0,1,1,.421,8.313,8.313,0,0,1,.958.935l1.307,1.423a20.8,20.8,0,0,0,1.8,1.821,3.24,3.24,0,0,0,.964.506L321.619,89.3A3.054,3.054,0,0,1,320.692,88.717Zm-2.279-2.3a10.668,10.668,0,0,1-1.373,2,5.572,5.572,0,0,0-.736,1.068,1.265,1.265,0,0,0-.1.735A1.279,1.279,0,0,0,317.5,91.28,1.889,1.889,0,0,0,318.7,90.7a2.993,2.993,0,0,0,.849-1.278,2.252,2.252,0,0,0,.028-1.386,3.515,3.515,0,0,0-.809-1.226Z" style="fill:#17306d"/></g><g style="isolation:isolate"><path d="M323.279,87.59l-8.34-8.223,1.01-1.024,8.34,8.222Z" style="fill:#17306d"/></g><g style="isolation:isolate"><path d="M329.832,80.874l-.766-.754A2.645,2.645,0,0,1,328.3,82.7a3.34,3.34,0,0,1-1.712.939,3.688,3.688,0,0,1-2.044-.16,5.392,5.392,0,0,1-1.976-1.288,6.053,6.053,0,0,1-1.348-1.925,3.349,3.349,0,0,1-.238-2.024,3.407,3.407,0,0,1,.939-1.741,2.835,2.835,0,0,1,2.482-.85l-3-2.959,1.006-1.022,8.366,8.247Zm-6.227.265a3.7,3.7,0,0,0,2.225,1.225,2.079,2.079,0,0,0,1.719-.59,2.044,2.044,0,0,0,.577-1.687,3.569,3.569,0,0,0-1.217-2.127,4,4,0,0,0-2.3-1.321,2.069,2.069,0,0,0-1.746.608,1.991,1.991,0,0,0-.569,1.695A3.877,3.877,0,0,0,323.605,81.139Z" style="fill:#17306d"/></g><g style="isolation:isolate"><path d="M335.953,74.165a5.362,5.362,0,0,1-.6,1.715,4.479,4.479,0,0,1-1.066,1.215,3.092,3.092,0,0,1-2.11.814,2.263,2.263,0,0,1-1.683-.894A2.326,2.326,0,0,1,330,75.946a2.353,2.353,0,0,1,.062-1.113,3.492,3.492,0,0,1,.514-1.019,10.563,10.563,0,0,1,.864-.97,13.213,13.213,0,0,0,1.695-2c-.12-.157-.2-.258-.229-.3a1.6,1.6,0,0,0-1.1-.714,2.427,2.427,0,0,0-1.588.647,2.556,2.556,0,0,0-.948,1.219,2.186,2.186,0,0,0,.23,1.433l-1.22.732a3.5,3.5,0,0,1-.421-1.536,2.768,2.768,0,0,1,.457-1.466,5.673,5.673,0,0,1,1.317-1.443,5.125,5.125,0,0,1,1.542-.908,2.341,2.341,0,0,1,1.186-.124,2.284,2.284,0,0,1,.965.486,8.029,8.029,0,0,1,.887.992l1.2,1.5a19.954,19.954,0,0,0,1.664,1.926,3.2,3.2,0,0,0,.922.569l-1.174.942A3.054,3.054,0,0,1,335.953,74.165Zm-2.109-2.436a10.563,10.563,0,0,1-1.5,1.9,5.465,5.465,0,0,0-.8,1.012,1.276,1.276,0,0,0-.151.722,1.279,1.279,0,0,0,1.215,1.137,1.881,1.881,0,0,0,1.238-.5,2.969,2.969,0,0,0,.928-1.212,2.24,2.24,0,0,0,.119-1.375,3.466,3.466,0,0,0-.72-1.27Z" style="fill:#17306d"/></g><line x1="94.856" y1="147.516" x2="172.236" y2="147.516" style="fill:none;stroke:#17306d;stroke-linecap:round;stroke-linejoin:round;stroke-width:2.3399999141693115px"/><polyline points="274.216 155.856 269.646 139.176 194.276 139.176" style="fill:none;stroke:#17306d;stroke-linecap:round;stroke-linejoin:round;stroke-width:2.3399999141693115px"/><polyline points="264.906 161.366 274.216 161.366 274.216 155.856" style="fill:none;stroke:#17306d;stroke-linecap:round;stroke-linejoin:round;stroke-width:2.3399999141693115px"/><line x1="264.906" y1="147.516" x2="194.276" y2="147.516" style="fill:none;stroke:#17306d;stroke-linecap:round;stroke-linejoin:round;stroke-width:2.3399999141693115px"/><line x1="188.946" y1="139.176" x2="177.566" y2="139.176" style="fill:none;stroke:#17306d;stroke-linecap:round;stroke-linejoin:round;stroke-width:2.3399999141693115px"/><line x1="177.566" y1="147.516" x2="188.946" y2="147.516" style="fill:none;stroke:#17306d;stroke-linecap:round;stroke-linejoin:round;stroke-width:2.3399999141693115px"/><line x1="60.116" y1="307.896" x2="306.396" y2="307.896" style="fill:none;stroke:#17306d;stroke-linecap:round;stroke-linejoin:round;stroke-width:2.3399999141693115px"/><path d="M258.626,147.516V295.8a6.691,6.691,0,0,1-6.68,6.69H107.826a6.7,6.7,0,0,1-6.69-6.69V147.516" style="fill:none;stroke:#17306d;stroke-linecap:round;stroke-linejoin:round;stroke-width:2.3399999141693115px"/><path d="M158.076,62.726a10.986,10.986,0,0,1,1.27-1.11" style="fill:none;stroke:#17306d;stroke-linecap:round;stroke-linejoin:round;stroke-width:2.3399999141693115px"/><path d="M159.346,61.616a11.37,11.37,0,0,1,18.24,9.06" style="fill:none;stroke:#17306d;stroke-linecap:round;stroke-linejoin:round;stroke-width:2.3399999141693115px"/><path d="M162.026,66.356a6,6,0,0,1,10.23,4.32" style="fill:none;stroke:#17306d;stroke-linecap:round;stroke-linejoin:round;stroke-width:2.3399999141693115px"/><line x1="158.076" y1="62.726" x2="139.036" y2="81.776" style="fill:none;stroke:#17306d;stroke-linecap:round;stroke-linejoin:round;stroke-width:2.3399999141693115px"/><line x1="161.706" y1="66.666" x2="142.816" y2="85.556" style="fill:none;stroke:#17306d;stroke-linecap:round;stroke-linejoin:round;stroke-width:2.3399999141693115px"/><line x1="162.026" y1="66.356" x2="161.706" y2="66.666" style="fill:none;stroke:#17306d;stroke-linecap:round;stroke-linejoin:round;stroke-width:2.3399999141693115px"/><line x1="142.816" y1="85.556" x2="139.036" y2="81.776" style="fill:none;stroke:#000;stroke-linecap:round;stroke-linejoin:round;stroke-width:1.1699999570846558px"/><rect x="138.277" y="80.837" width="3.1" height="7.85" transform="translate(-18.982 123.699) rotate(-45)" style="fill:none;stroke:#17306d;stroke-linecap:round;stroke-linejoin:round;stroke-width:2.3399999141693115px"/><path d="M156.914,234.45l51.673-4.521a2.95,2.95,0,0,1,3.2,2.682h0a2.95,2.95,0,0,1-2.682,3.2l-51.673,4.521a2.95,2.95,0,0,1-3.2-2.682h0A2.95,2.95,0,0,1,156.914,234.45Z" style="fill:none;stroke:#17306d;stroke-linecap:round;stroke-linejoin:round;stroke-width:2.3399999141693115px"/><path d="M156.92,240.368l51.673-4.521a2.95,2.95,0,0,1,3.2,2.682h0a2.949,2.949,0,0,1-2.682,3.195l-51.673,4.521a2.95,2.95,0,0,1-3.2-2.681h0A2.95,2.95,0,0,1,156.92,240.368Z" style="fill:none;stroke:#17306d;stroke-linecap:round;stroke-linejoin:round;stroke-width:2.3399999141693115px"/><path d="M156.926,246.284l51.673-4.521a2.95,2.95,0,0,1,3.2,2.682h0a2.95,2.95,0,0,1-2.682,3.2l-51.673,4.521a2.95,2.95,0,0,1-3.2-2.682h0A2.95,2.95,0,0,1,156.926,246.284Z" style="fill:none;stroke:#17306d;stroke-linecap:round;stroke-linejoin:round;stroke-width:2.3399999141693115px"/><path d="M156.923,252.222,208.6,247.7a2.949,2.949,0,0,1,3.195,2.682h0a2.949,2.949,0,0,1-2.681,3.195L157.437,258.1a2.95,2.95,0,0,1-3.2-2.681h0A2.95,2.95,0,0,1,156.923,252.222Z" style="fill:none;stroke:#17306d;stroke-linecap:round;stroke-linejoin:round;stroke-width:2.3399999141693115px"/><path d="M156.919,258.14l51.673-4.521a2.949,2.949,0,0,1,3.195,2.682h0a2.95,2.95,0,0,1-2.681,3.2l-51.673,4.521a2.95,2.95,0,0,1-3.2-2.682h0A2.95,2.95,0,0,1,156.919,258.14Z" style="fill:none;stroke:#17306d;stroke-linecap:round;stroke-linejoin:round;stroke-width:2.3399999141693115px"/><path d="M156.915,264.057l51.672-4.52a2.949,2.949,0,0,1,3.2,2.681h0a2.95,2.95,0,0,1-2.681,3.2l-51.673,4.521a2.95,2.95,0,0,1-3.2-2.682h0A2.95,2.95,0,0,1,156.915,264.057Z" style="fill:none;stroke:#17306d;stroke-linecap:round;stroke-linejoin:round;stroke-width:2.3399999141693115px"/><path d="M156.931,269.974l51.672-4.521a2.95,2.95,0,0,1,3.2,2.682h0a2.95,2.95,0,0,1-2.681,3.2l-51.673,4.521a2.95,2.95,0,0,1-3.2-2.682h0A2.95,2.95,0,0,1,156.931,269.974Z" style="fill:none;stroke:#17306d;stroke-linecap:round;stroke-linejoin:round;stroke-width:2.3399999141693115px"/><path d="M197.406,272.356l11.19-1a3,3,0,0,1,3.2,2.68h0a3,3,0,0,1-2.68,3.2l-11.71,1h0l-11.19,1a3,3,0,0,1-3.19-2.68h0a3,3,0,0,1,2.68-3.19l11.71-1" style="fill:none;stroke:#17306d;stroke-linecap:round;stroke-linejoin:round;stroke-width:2.3399999141693115px"/><line x1="177.566" y1="232.456" x2="177.566" y2="70.676" style="fill:none;stroke:#17306d;stroke-linecap:round;stroke-linejoin:round;stroke-width:2.3399999141693115px"/><line x1="172.236" y1="70.676" x2="172.236" y2="232.946" style="fill:none;stroke:#17306d;stroke-linecap:round;stroke-linejoin:round;stroke-width:2.3399999141693115px"/><line x1="188.946" y1="231.646" x2="188.946" y2="70.676" style="fill:none;stroke:#17306d;stroke-linecap:round;stroke-linejoin:round;stroke-width:2.3399999141693115px"/><line x1="194.276" y1="70.676" x2="194.276" y2="231.186" style="fill:none;stroke:#17306d;stroke-linecap:round;stroke-linejoin:round;stroke-width:2.3399999141693115px"/><path d="M208.436,62.726a12.278,12.278,0,0,0-1.27-1.11" style="fill:none;stroke:#17306d;stroke-linecap:round;stroke-linejoin:round;stroke-width:2.3399999141693115px"/><path d="M207.166,61.616a11.369,11.369,0,0,0-18.24,9.06" style="fill:none;stroke:#17306d;stroke-linecap:round;stroke-linejoin:round;stroke-width:2.3399999141693115px"/><path d="M204.486,66.356a6,6,0,0,0-10.23,4.32" style="fill:none;stroke:#17306d;stroke-linecap:round;stroke-linejoin:round;stroke-width:2.3399999141693115px"/><line x1="208.436" y1="62.726" x2="227.476" y2="81.776" style="fill:none;stroke:#17306d;stroke-linecap:round;stroke-linejoin:round;stroke-width:2.3399999141693115px"/><line x1="204.806" y1="66.666" x2="223.696" y2="85.556" style="fill:none;stroke:#17306d;stroke-linecap:round;stroke-linejoin:round;stroke-width:2.3399999141693115px"/><line x1="204.486" y1="66.356" x2="204.806" y2="66.666" style="fill:none;stroke:#17306d;stroke-linecap:round;stroke-linejoin:round;stroke-width:2.3399999141693115px"/><line x1="223.696" y1="85.556" x2="227.476" y2="81.776" style="fill:none;stroke:#000;stroke-linecap:round;stroke-linejoin:round;stroke-width:1.1699999570846558px"/><rect x="222.755" y="83.212" width="7.85" height="3.1" transform="translate(6.457 185.113) rotate(-45)" style="fill:none;stroke:#17306d;stroke-linecap:round;stroke-linejoin:round;stroke-width:2.3399999141693115px"/><line x1="101.136" y1="195.846" x2="172.236" y2="195.846" style="fill:none;stroke:#17306d;stroke-linecap:round;stroke-linejoin:round;stroke-width:2.3399999141693115px"/><line x1="177.566" y1="195.846" x2="188.946" y2="195.846" style="fill:none;stroke:#17306d;stroke-linecap:round;stroke-linejoin:round;stroke-width:2.3399999141693115px"/><line x1="258.626" y1="195.846" x2="194.276" y2="195.846" style="fill:none;stroke:#17306d;stroke-linecap:round;stroke-linejoin:round;stroke-width:2.3399999141693115px"/></g></svg>