<svg id="Layer_1" data-name="Layer 1" xmlns="http://www.w3.org/2000/svg" xmlns:xlink="http://www.w3.org/1999/xlink" width="18.601cm" height="4.194cm" viewBox="0 0 527.28 118.88"><defs><clipPath id="clip-path"><rect y="-61.12" width="527.28" height="360" style="fill:none"/></clipPath></defs><title>skyline-pluma</title><g id="area_stampa" data-name="area stampa"><rect y="-78.25" width="527.28" height="377.04" style="fill:#fcc097"/></g><g id="sfondo"><rect x="8.45" y="-61.12" width="510.24" height="360" style="fill:#0d0d0d"/><rect y="-78.25" width="527.28" height="377.13" style="fill:#fcc097"/></g><g id="skyline"><g style="clip-path:url(#clip-path)"><polygon points="353.48 138.69 353.48 82.12 350.93 82.12 350.93 87.02 348.38 87.02 348.38 82.12 345.84 82.12 345.84 87.02 343.29 87.02 343.29 82.12 340.74 82.12 340.74 87.02 338.19 87.02 338.19 82.12 335.64 82.12 335.64 87.02 333.1 87.02 333.1 82.12 330.55 82.12 330.55 87.02 328 87.02 328 82.12 325.45 82.12 325.45 87.02 322.9 87.02 322.9 82.12 320.36 82.12 320.36 87.02 317.81 87.02 317.81 82.12 315.26 82.12 315.26 138.69 353.48 138.69" style="fill:#608dc9"/><polygon points="484.32 83 518.32 83 538.16 91.31 538.16 138.69 415.05 138.69 415.05 91.31 434.89 83 468.89 83 468.89 45.49 468.89 40.59 471.1 40.59 471.1 45.49 473.32 45.49 473.32 40.59 475.53 40.59 475.53 45.49 476.6 45.49 477.68 45.49 477.68 40.59 479.89 40.59 479.89 45.49 482.1 45.49 482.1 40.59 484.32 40.59 484.32 45.49 484.32 83" style="fill:#608dc9"/><polygon points="408.11 138.69 408.11 8.6 409.2 5.49 409.2 0 406.49 0 406.49 2.68 404.02 2.68 404.02 0 401.31 0 401.31 2.68 398.84 2.68 398.84 0 396.13 0 396.13 2.68 393.65 2.68 393.65 0 390.94 0 390.94 5.49 392.04 8.6 392.04 138.69 408.11 138.69" style="fill:#608dc9"/><polygon points="385.54 138.69 366.9 138.69 359.8 36.13 378.44 36.13 385.54 138.69" style="fill:#608dc9"/><polygon points="303.91 138.69 303.91 103.1 287.96 94.04 287.96 80.78 260.43 62.31 232.9 80.78 232.9 94.04 216.96 103.1 216.96 138.69 303.91 138.69" style="fill:#608dc9"/><path d="M209.48,138.69V86.75h-2.55v4.9h-2.55v-4.9h-2.55v4.9h-2.55v-4.9h-2.54v4.9h-2.55v-4.9h-2.55v4.9h-2.55v-4.9h-2.55v4.9H184v-4.9h-2.55v4.9H178.9v-4.9h-2.55v4.9H173.8v-4.9h-2.54v4.9h-2.55v-4.9h-2.55v4.9h-2.55v-4.9h-2.54v4.9h-2.55v-4.9H156v4.9h-2.55v-4.9H150.9v4.9h-2.54v-4.9h-2.55v4.9h-2.55v-4.9h-2.55v4.9h-2.55v-4.9h-2.54v4.9H133v-4.9h-2.55v4.9H127.9v-4.9h-2.55v4.9h-2.54v-4.9H120.3v4.9h-2.37V73.12l1.12-7.82v-.74h-6V56.19a26.974,26.974,0,0,0-1.43-2.5,25.654,25.654,0,0,0-1.91-1.85V43.97a15.061,15.061,0,0,0-.94-1.66,12.674,12.674,0,0,0-1.26-1.1,11.664,11.664,0,0,0-1.26,1.1,15.061,15.061,0,0,0-.94,1.66v7.87a23.992,23.992,0,0,0-1.91,1.85,26.974,26.974,0,0,0-1.43,2.5v8.37H96v.74l1.12,7.82V91.63H94.55V86.75H92v52Z" style="fill:#608dc9"/><polygon points="-17.42 83 16.58 83 36.42 91.31 36.42 138.69 -86.69 138.69 -86.69 91.31 -66.85 83 -32.85 83 -32.85 45.49 -32.85 40.59 -30.64 40.59 -30.64 45.49 -28.42 45.49 -28.42 40.59 -26.21 40.59 -26.21 45.49 -25.14 45.49 -24.07 45.49 -24.07 40.59 -21.85 40.59 -21.85 45.49 -19.64 45.49 -19.64 40.59 -17.42 40.59 -17.42 45.49 -17.42 83" style="fill:#608dc9"/><polygon points="88.31 138.69 88.31 101.26 78.62 96.72 78.62 82.5 65.53 75.57 52.43 82.5 52.43 96.72 42.74 101.26 42.74 138.69 88.31 138.69" style="fill:#608dc9"/><rect x="-293.28" y="108.26" width="515.32" height="190.68" style="fill:#608dc9"/></g></g></svg>