<svg id="Layer_1" data-name="Layer 1" xmlns="http://www.w3.org/2000/svg" xmlns:xlink="http://www.w3.org/1999/xlink" width="18.601cm" height="4.194cm" viewBox="0 0 527.28 118.88"><defs><clipPath id="clip-path"><rect y="-61.12" width="527.28" height="360" style="fill:none"/></clipPath></defs><title>skyline-banale</title><g id="area_stampa" data-name="area stampa"><rect y="-78.25" width="527.28" height="377.04" style="fill:#99cc64"/></g><g id="sfondo"><rect y="-78.25" width="527.28" height="377.09" style="fill:#99cc64"/></g><g id="skyline"><g style="clip-path:url(#clip-path)"><path d="M211.8,138.69V86.75h-2.55v4.9H206.7v-4.9h-2.55v4.9h-2.54v-4.9h-2.55v4.9h-2.55v-4.9H194v4.9h-2.55v-4.9h-2.54v4.9h-2.55v-4.9h-2.55v4.9h-2.55v-4.9h-2.55v4.9h-2.54v-4.9h-2.55v4.9H171v-4.9h-2.55v4.9H165.9v-4.9h-2.54v4.9h-2.55v-4.9h-2.55v4.9h-2.55v-4.9h-2.55v4.9h-2.54v-4.9H148.1v4.9h-2.55v-4.9H143v4.9h-2.54v-4.9h-2.55v4.9h-2.55v-4.9h-2.55v4.9h-2.55v-4.9h-2.54v4.9h-2.55v-4.9h-2.55v4.9h-2.37V73.12l1.12-7.82v-.74h-6V56.19a26.974,26.974,0,0,0-1.43-2.5,24.169,24.169,0,0,0-1.91-1.85V43.97a15.061,15.061,0,0,0-.94-1.66,12.674,12.674,0,0,0-1.26-1.1,12.674,12.674,0,0,0-1.26,1.1,15.061,15.061,0,0,0-.94,1.66v7.87a25.855,25.855,0,0,0-1.91,1.85,26.974,26.974,0,0,0-1.43,2.5v8.37h-6v.74l1.12,7.82V91.63H96.87V86.75H94.32v52Z" style="fill:#9e73b2"/><polygon points="-15.1 83 18.9 83 38.74 91.31 38.74 138.69 -84.37 138.69 -84.37 91.31 -64.53 83 -30.53 83 -30.53 45.49 -30.53 40.59 -28.32 40.59 -28.32 45.49 -26.1 45.49 -26.1 40.59 -23.89 40.59 -23.89 45.49 -22.82 45.49 -21.74 45.49 -21.74 40.59 -19.53 40.59 -19.53 45.49 -17.32 45.49 -17.32 40.59 -15.1 40.59 -15.1 45.49 -15.1 83" style="fill:#9e73b2"/><polygon points="90.64 138.69 90.64 101.26 80.94 96.72 80.94 82.5 67.85 75.57 54.76 82.5 54.76 96.72 45.06 101.26 45.06 138.69 90.64 138.69" style="fill:#9e73b2"/><rect x="-290.96" y="110.19" width="510.24" height="188.75" style="fill:#9e73b2"/><polygon points="355.3 138.69 355.3 82.12 352.75 82.12 352.75 87.02 350.2 87.02 350.2 82.12 347.65 82.12 347.65 87.02 345.1 87.02 345.1 82.12 342.56 82.12 342.56 87.02 340.01 87.02 340.01 82.12 337.46 82.12 337.46 87.02 334.91 87.02 334.91 82.12 332.37 82.12 332.37 87.02 329.82 87.02 329.82 82.12 327.27 82.12 327.27 87.02 324.72 87.02 324.72 82.12 322.17 82.12 322.17 87.02 319.63 87.02 319.63 82.12 317.08 82.12 317.08 138.69 355.3 138.69" style="fill:#9e73b2"/><polygon points="486.14 83 541.14 83 560.97 91.31 560.97 138.69 416.87 138.69 416.87 91.31 436.71 83 470.71 83 470.71 45.49 470.71 40.59 472.92 40.59 472.92 45.49 475.14 45.49 475.14 40.59 477.35 40.59 477.35 45.49 478.42 45.49 479.49 45.49 479.49 40.59 481.71 40.59 481.71 45.49 483.92 45.49 483.92 40.59 486.14 40.59 486.14 45.49 486.14 83" style="fill:#9e73b2"/><polygon points="409.93 138.69 409.93 8.6 411.02 5.49 411.02 0 408.31 0 408.31 2.68 405.84 2.68 405.84 0 403.13 0 403.13 2.68 400.65 2.68 400.65 0 397.94 0 397.94 2.68 395.47 2.68 395.47 0 392.76 0 392.76 5.49 393.85 8.6 393.85 138.69 409.93 138.69" style="fill:#9e73b2"/><polygon points="387.35 138.69 368.72 138.69 361.62 36.13 380.25 36.13 387.35 138.69" style="fill:#9e73b2"/><polygon points="305.72 138.69 305.72 103.1 289.78 94.04 289.78 80.78 262.25 62.31 234.72 80.78 234.72 94.04 218.77 103.1 218.77 138.69 305.72 138.69" style="fill:#9e73b2"/></g></g></svg>