<svg id="Layer_1" data-name="Layer 1" xmlns="http://www.w3.org/2000/svg" xmlns:xlink="http://www.w3.org/1999/xlink" width="18.601cm" height="4.197cm" viewBox="0 0 527.28 118.976"><defs><clipPath id="clip-path"><rect y="-61.084" width="527.28" height="360" style="fill:none"/></clipPath></defs><title>skyline-balotta-01</title><g id="area_stampa" data-name="area stampa"><rect y="-78.214" width="527.28" height="377.04" style="fill:#6a6bb1"/></g><g id="sfondo"><rect y="-78.214" width="527.28" height="377.09" style="fill:#e1e673"/></g><g id="skyline"><g style="clip-path:url(#clip-path)"><path d="M211.8,138.726V86.786h-2.55v4.9H206.7v-4.9h-2.55v4.9h-2.54v-4.9h-2.55v4.9h-2.55v-4.9H194v4.9h-2.55v-4.9h-2.54v4.9h-2.55v-4.9h-2.55v4.9h-2.55v-4.9h-2.55v4.9h-2.54v-4.9h-2.55v4.9H171v-4.9h-2.55v4.9H165.9v-4.9h-2.54v4.9h-2.55v-4.9h-2.55v4.9h-2.55v-4.9h-2.55v4.9h-2.54v-4.9H148.1v4.9h-2.55v-4.9H143v4.9h-2.54v-4.9h-2.55v4.9h-2.55v-4.9h-2.55v4.9h-2.55v-4.9h-2.54v4.9h-2.55v-4.9h-2.55v4.9h-2.37V73.156l1.12-7.82V64.6h-6v-8.37a27.105,27.105,0,0,0-1.43-2.5,24.169,24.169,0,0,0-1.91-1.85v-7.87a15.154,15.154,0,0,0-.94-1.66,12.674,12.674,0,0,0-1.26-1.1,12.674,12.674,0,0,0-1.26,1.1,15.154,15.154,0,0,0-.94,1.66v7.87a25.855,25.855,0,0,0-1.91,1.85,27.105,27.105,0,0,0-1.43,2.5V64.6h-6v.74l1.12,7.82v18.51H96.87v-4.88H94.32v52Z" style="fill:#6a6bb1"/><polygon points="-15.1 83.036 18.9 83.036 38.74 91.346 38.74 138.726 -84.37 138.726 -84.37 91.346 -64.53 83.036 -30.53 83.036 -30.53 45.526 -30.53 40.626 -28.32 40.626 -28.32 45.526 -26.1 45.526 -26.1 40.626 -23.89 40.626 -23.89 45.526 -22.82 45.526 -21.74 45.526 -21.74 40.626 -19.53 40.626 -19.53 45.526 -17.32 45.526 -17.32 40.626 -15.1 40.626 -15.1 45.526 -15.1 83.036" style="fill:#6a6bb1"/><polygon points="90.64 138.726 90.64 101.296 80.94 96.756 80.94 82.536 67.85 75.606 54.76 82.536 54.76 96.756 45.06 101.296 45.06 138.726 90.64 138.726" style="fill:#6a6bb1"/><rect x="-290.96" y="110.346" width="510.24" height="188.62" style="fill:#6a6bb1"/><polygon points="355.3 138.726 355.3 82.156 352.75 82.156 352.75 87.056 350.2 87.056 350.2 82.156 347.65 82.156 347.65 87.056 345.1 87.056 345.1 82.156 342.56 82.156 342.56 87.056 340.01 87.056 340.01 82.156 337.46 82.156 337.46 87.056 334.91 87.056 334.91 82.156 332.37 82.156 332.37 87.056 329.82 87.056 329.82 82.156 327.27 82.156 327.27 87.056 324.72 87.056 324.72 82.156 322.17 82.156 322.17 87.056 319.63 87.056 319.63 82.156 317.08 82.156 317.08 138.726 355.3 138.726" style="fill:#6a6bb1"/><polygon points="486.14 83.036 532.14 83.036 551.97 91.346 551.97 138.726 416.87 138.726 416.87 91.346 436.71 83.036 470.71 83.036 470.71 45.526 470.71 40.626 472.92 40.626 472.92 45.526 475.14 45.526 475.14 40.626 477.35 40.626 477.35 45.526 478.42 45.526 479.49 45.526 479.49 40.626 481.71 40.626 481.71 45.526 483.92 45.526 483.92 40.626 486.14 40.626 486.14 45.526 486.14 83.036" style="fill:#6a6bb1"/><polygon points="409.93 138.726 409.93 8.636 411.02 5.526 411.02 0.036 408.31 0.036 408.31 2.716 405.84 2.716 405.84 0.036 403.13 0.036 403.13 2.716 400.65 2.716 400.65 0.036 397.94 0.036 397.94 2.716 395.47 2.716 395.47 0.036 392.76 0.036 392.76 5.526 393.85 8.636 393.85 138.726 409.93 138.726" style="fill:#6a6bb1"/><polygon points="387.35 138.726 368.72 138.726 361.62 36.166 380.25 36.166 387.35 138.726" style="fill:#6a6bb1"/><polygon points="305.72 138.726 305.72 103.136 289.78 94.076 289.78 80.816 262.25 62.346 234.72 80.816 234.72 94.076 218.77 103.136 218.77 138.726 305.72 138.726" style="fill:#6a6bb1"/></g></g></svg>