<svg id="Layer_1" data-name="Layer 1" xmlns="http://www.w3.org/2000/svg" viewBox="0 0 291.969 291.969"><title>versamento2</title><g id="Layer_1-2" data-name="Layer 1-2"><path d="M99.634,189.119s-.39-59.82-.39-61.95V99.079c0-32.81,8.75-39.39,8.75-39.39a29.226,29.226,0,0,0,.25-3.51v-1.94c-13.61,7.16-15.83,23.71-16.81,36.2-.6,7.53-.83,29.42-.92,36.12v63.27s2-3.46,5.73-3.37C98.464,186.509,99.634,189.119,99.634,189.119Z" style="stroke:#000;stroke-miterlimit:10;opacity:0.5;isolation:isolate"/><path d="M58.784,270.709c0,4.71,13,8.43,28.83,8.3s28.72-4.05,28.69-8.76l4.09-69.82s.84,9.6-32.78,9.6c-33,0-32.78-9.6-32.78-9.6Z" style="fill:#333;opacity:0.5;isolation:isolate"/><path d="M102.574,142.639c-3.5-.4-7.23-.65-11.13-.75h-4.5c-22.77.18-41.18,5.8-41.13,12.55s18.56,12.08,41.33,11.89,41.18-5.8,41.12-12.55C128.224,148.639,117.6,144.339,102.574,142.639Z" style="fill:none;stroke:#000;stroke-linecap:round;stroke-linejoin:round;stroke-width:2.3399999141693115px"/><path d="M45.814,154.409l9.45,119.4c0,5.31,14.59,9.49,32.48,9.34s32.35-4.51,32.35-9.86l8.2-119.54" style="fill:none;stroke:#000;stroke-linecap:round;stroke-linejoin:round;stroke-width:2.3399999141693115px"/><path d="M87.694,276.859a66.786,66.786,0,0,0,18.21-2.38,25.866,25.866,0,0,0,3.65-1.4" style="fill:none;stroke:#000;stroke-linecap:round;stroke-linejoin:round;stroke-width:1.1699999570846558px"/><path d="M68.684,274.539a49.908,49.908,0,0,0,9,1.8" style="fill:none;stroke:#000;stroke-linecap:round;stroke-linejoin:round;stroke-width:1.1699999570846558px"/><path d="M64.254,270.639c0-3.83,10.4-7,23.3-7.12s23.39,2.91,23.42,6.74" style="fill:none;stroke:#000;stroke-linecap:round;stroke-linejoin:round;stroke-width:1.1699999570846558px"/><path d="M117.094,195.5c2.11-3.09-.51-5.14-2.72-4.82a3.06,3.06,0,0,0-2.54,2.53s.89-6.27-5.48-5.66c-6.92.66-4.77,8.11-4.77,8.11s-1.08-10.75-7-9c-5.27,1.51-5.27,9.44-5,1.75.14-5-4.9-6.07-7.92-3.78a5,5,0,0,0-2.11,4.19c-2.1.4-4.23-5.6-9.75-3-4.87,2.29-2,7.9-3.27,8.13-1,.19-1-.51-2.12-1.29-.69-.49-2.08.14-2.37,1.27-.19.77-.11,1.24-.41,1.37s-.94-.88-2-1.29a3.813,3.813,0,0,0-3,.43c-1.59.94-2.22,3.71-1.67,6,0,5.3,14.67,9.6,32.78,9.6s32.78-4.3,32.78-9.6" style="fill:none;stroke:#000;stroke-linecap:round;stroke-linejoin:round;stroke-width:1.1699999570846558px"/><path d="M117.654,194.449c4.46.62.65,5.36,2.74,6" style="fill:none;stroke:#000;stroke-linecap:round;stroke-linejoin:round;stroke-width:1.1699999570846558px"/><path d="M74.964,200.459a4.43,4.43,0,1,1,8.34-2.08,4.22,4.22,0,0,1-.09.89" style="fill:none;stroke:#000;stroke-linecap:round;stroke-linejoin:round;stroke-width:1.1699999570846558px"/><path d="M83.144,197.209s2.14-3.26,4.36-1.66c1.85,1.33,1.32,3.09,3.9,4.16" style="fill:none;stroke:#000;stroke-linecap:round;stroke-linejoin:round;stroke-width:1.1699999570846558px"/><circle cx="65.184" cy="200.789" r="1.75" style="fill:none;stroke:#000;stroke-linecap:round;stroke-linejoin:round;stroke-width:1.1699999570846558px"/><circle cx="69.484" cy="203.209" r="0.74" style="fill:none;stroke:#000;stroke-linecap:round;stroke-linejoin:round;stroke-width:1.1699999570846558px"/><circle cx="109.054" cy="198.339" r="1.13" style="fill:none;stroke:#000;stroke-linecap:round;stroke-linejoin:round;stroke-width:1.1699999570846558px"/><path d="M106.094,39.449c1.33-.13,2.92,5.07,3.55,11.62s0,12-1.29,12.08" style="fill:none;stroke:#000;stroke-linecap:round;stroke-linejoin:round;stroke-width:1.1699999570846558px"/><path d="M116.314,40.639l-3.34-1.24a14.663,14.663,0,0,0-4.14-.2l-2.76.27c-1.34.12-1.91,5.53-1.29,12.08s2.22,11.75,3.55,11.62l2.77-.27a14.134,14.134,0,0,0,4-1l3-1.84c4.44-.43,36-.82,40.12,1l19.36,8.35a21.179,21.179,0,0,0,10.05,1.49l91-8.7a16.5,16.5,0,0,0,7.46-2.56l1.84-1.18c2.7-.26,3.86-11.2,2.6-24.44s-4.48-23.75-7.19-23.5l-2-.81a16.474,16.474,0,0,0-7.77-1.07l-91,8.7a21.29,21.29,0,0,0-9.58,3.3l-17.43,11.88C151.894,35.069,120.754,40.189,116.314,40.639Z" style="fill:none;stroke:#000;stroke-linecap:round;stroke-linejoin:round;stroke-width:1.7599999904632568px"/><path d="M117.644,45.189c.19,1.14.35,2.37.47,3.66s.2,2.51.23,3.67" style="fill:none;stroke:#000;stroke-linecap:round;stroke-linejoin:round;stroke-width:1.1699999570846558px"/><path d="M281.554,14.349s2.71,5.58,4.13,17.71" style="fill:none;stroke:#000;stroke-linecap:round;stroke-linejoin:round;stroke-width:1.1699999570846558px"/><path d="M286.274,37.889c.2,2.68.25,5.06.23,7.07" style="fill:none;stroke:#000;stroke-linecap:round;stroke-linejoin:round;stroke-width:1.1699999570846558px"/><path d="M108.174,60.1a44.776,44.776,0,0,0-.09-8.77,44.9,44.9,0,0,0-1.62-8.8" style="fill:none;stroke:#000;stroke-linecap:round;stroke-linejoin:round;stroke-width:1.1699999570846558px"/><path d="M116.314,108.979l-3.34-1.24a14.3,14.3,0,0,0-4.14-.19l-2.76.26c-1.34.13-1.91,5.54-1.29,12.08s2.22,11.75,3.55,11.62l2.77-.26a14.8,14.8,0,0,0,4-1l3-1.85c4.44-.42,36-.81,40.12,1l19.36,8.34a21.066,21.066,0,0,0,10.05,1.49l91-8.7a16.386,16.386,0,0,0,7.34-2.55l1.84-1.18c2.7-.25,3.86-11.19,2.6-24.43s-4.41-23.73-7.12-23.49l-2-.81a16.466,16.466,0,0,0-7.7-1.11l-91,8.7a21.179,21.179,0,0,0-9.59,3.37l-17.44,11.86C151.894,103.429,120.754,108.559,116.314,108.979Z" style="fill:none;stroke:#000;stroke-linecap:round;stroke-linejoin:round;stroke-width:1.1699999570846558px;stroke-dasharray:4.710000038146973,4.710000038146973"/><line x1="32.584" y1="111.399" x2="32.584" y2="63.179" style="fill:none;stroke:#000;stroke-linecap:round;stroke-linejoin:round;stroke-width:4.679999828338623px"/><polygon points="51.724 78.689 48.294 81.879 32.584 64.979 16.874 81.879 13.444 78.689 32.584 58.099 51.724 78.689"/><line x1="0.094" y1="51.319" x2="65.064" y2="51.319" style="fill:none;stroke:#000;stroke-linejoin:round;stroke-width:1.1699999570846558px"/><line x1="0.094" y1="119.299" x2="65.064" y2="119.299" style="fill:none;stroke:#000;stroke-linejoin:round;stroke-width:1.1699999570846558px"/></g></svg>