<svg id="Layer_1" data-name="Layer 1" xmlns="http://www.w3.org/2000/svg" xmlns:xlink="http://www.w3.org/1999/xlink" viewBox="0 0 366.47 366.463"><defs><pattern id="USGS_22_Gravel_Beach_4" data-name="USGS 22 Gravel Beach 4" width="72" height="72" patternTransform="matrix(0.88, 0, 0, -0.88, 5.97, 804.19)" patternUnits="userSpaceOnUse" viewBox="0 0 72 72"><rect width="72" height="72" style="fill:none"/><rect width="72" height="72" style="fill:none"/><path d="M72.25,14a.35.35,0,0,0-.25.6.38.38,0,0,0,.5,0,.35.35,0,0,0-.25-.6Z" style="fill:#17306d"/><path d="M20.75,68.78a.391.391,0,0,0-.25.1.347.347,0,1,0,.6.25.342.342,0,0,0-.35-.35Z" style="fill:#17306d"/><path d="M19.75,63.53a.34.34,0,0,0-.35.33v.02a.332.332,0,0,0,.11.25.369.369,0,0,0,.49,0,.363.363,0,0,0,.1-.25.391.391,0,0,0-.1-.25A.369.369,0,0,0,19.75,63.53Z" style="fill:#17306d"/><path d="M20,61.28a.35.35,0,0,0-.25.6.369.369,0,0,0,.5,0,.35.35,0,0,0-.25-.6Z" style="fill:#17306d"/><path d="M15,61.28a.34.34,0,0,0-.35.33v.02a.369.369,0,0,0,.1.25.38.38,0,0,0,.5,0,.35.35,0,0,0-.25-.6Z" style="fill:#17306d"/><path d="M22.5,51.78a.35.35,0,0,0-.25.6.36.36,0,0,0,.6-.25.34.34,0,0,0-.33-.35Z" style="fill:#17306d"/><path d="M15,48.78a.34.34,0,0,0-.35.33v.02a.332.332,0,0,0,.11.25.369.369,0,0,0,.49,0,.363.363,0,0,0,.1-.25.34.34,0,0,0-.33-.35Z" style="fill:#17306d"/><path d="M13.75,47.78a.35.35,0,0,0-.25.6.36.36,0,0,0,.6-.25.391.391,0,0,0-.1-.25A.369.369,0,0,0,13.75,47.78Z" style="fill:#17306d"/><path d="M23.75,44.78a.34.34,0,0,0-.35.33v.02a.332.332,0,0,0,.11.25.369.369,0,0,0,.49,0,.391.391,0,0,0,.1-.25.348.348,0,0,0-.1-.24A.358.358,0,0,0,23.75,44.78Z" style="fill:#17306d"/><path d="M30.5,46a.35.35,0,0,0-.25.6.36.36,0,0,0,.6-.25.34.34,0,0,0-.33-.35Z" style="fill:#17306d"/><path d="M31,48.53a.34.34,0,0,0-.35.33v.02a.332.332,0,0,0,.11.25.35.35,0,0,0,.59-.25.391.391,0,0,0-.1-.25A.369.369,0,0,0,31,48.53Z" style="fill:#17306d"/><path d="M29,53.53a.35.35,0,0,0-.25.6.36.36,0,0,0,.6-.25.34.34,0,0,0-.33-.35Z" style="fill:#17306d"/><path d="M33.75,52a.35.35,0,0,0-.25.6.36.36,0,0,0,.6-.25.34.34,0,0,0-.33-.35Z" style="fill:#17306d"/><path d="M31.25,57a.35.35,0,0,0-.25.6.36.36,0,0,0,.6-.25.34.34,0,0,0-.33-.35Z" style="fill:#17306d"/><path d="M31.5,60a.35.35,0,0,0-.25.6.369.369,0,0,0,.5,0,.35.35,0,0,0-.25-.6Z" style="fill:#17306d"/><path d="M32,64.78a.35.35,0,0,0-.25.6.36.36,0,0,0,.6-.25.34.34,0,0,0-.33-.35Z" style="fill:#17306d"/><path d="M31.75,68.78a.342.342,0,0,0-.35.35.332.332,0,0,0,.11.25.35.35,0,0,0,.59-.25.342.342,0,0,0-.35-.35Z" style="fill:#17306d"/><path d="M33.75,70.53a.358.358,0,0,0-.25.11.339.339,0,0,0,.01.49.345.345,0,0,0,.59-.25.339.339,0,0,0-.11-.25A.348.348,0,0,0,33.75,70.53Z" style="fill:#17306d"/><path d="M41.25,64.78a.391.391,0,0,0-.25.1.354.354,0,0,0-.1.25.391.391,0,0,0,.1.25.351.351,0,0,0,.49,0,.358.358,0,0,0,.11-.25.34.34,0,0,0-.33-.35Z" style="fill:#17306d"/><path d="M45.25,65a.391.391,0,0,0-.25.1.347.347,0,1,0,.6.25.34.34,0,0,0-.33-.35Z" style="fill:#17306d"/><path d="M42.25,58.28a.34.34,0,0,0-.35.33v.02a.332.332,0,0,0,.11.25.35.35,0,0,0,.59-.25.34.34,0,0,0-.33-.35Z" style="fill:#17306d"/><path d="M46.75,57.53a.34.34,0,0,0-.35.33v.02a.332.332,0,0,0,.11.25.361.361,0,0,0,.49,0,.391.391,0,0,0,.1-.25.329.329,0,0,0-.1-.24A.358.358,0,0,0,46.75,57.53Z" style="fill:#17306d"/><path d="M46.75,55.53a.34.34,0,0,0-.35.33v.02a.332.332,0,0,0,.11.25.361.361,0,0,0,.49,0,.391.391,0,0,0,.1-.25.371.371,0,0,0-.1-.24A.358.358,0,0,0,46.75,55.53Z" style="fill:#17306d"/><path d="M38.75,51a.35.35,0,0,0-.25.6.361.361,0,0,0,.49,0,.347.347,0,0,0-.22-.6Z" style="fill:#17306d"/><path d="M50,58.28a.391.391,0,0,0-.25.1.359.359,0,0,0,0,.5.369.369,0,0,0,.5,0,.35.35,0,0,0-.25-.6Z" style="fill:#17306d"/><path d="M52,59.78a.358.358,0,0,0-.25.11.348.348,0,0,0-.1.24.332.332,0,0,0,.11.25.369.369,0,0,0,.49,0,.363.363,0,0,0,.1-.25.34.34,0,0,0-.33-.35Z" style="fill:#17306d"/><path d="M54.5,60.78a.358.358,0,0,0-.25.11.348.348,0,0,0-.1.24.332.332,0,0,0,.11.25.35.35,0,0,0,.59-.25.34.34,0,0,0-.33-.35Z" style="fill:#17306d"/><path d="M56.25,71a.376.376,0,0,0-.25.63.359.359,0,0,0,.5,0,.348.348,0,0,0,.1-.24.417.417,0,0,0-.35-.39Z" style="fill:#17306d"/><path d="M67.75,68.78a.342.342,0,0,0-.35.35.332.332,0,0,0,.11.25.369.369,0,0,0,.49,0,.363.363,0,0,0,.1-.25.391.391,0,0,0-.1-.25A.369.369,0,0,0,67.75,68.78Z" style="fill:#17306d"/><path d="M67.75,61.53a.358.358,0,0,0-.25.11.348.348,0,0,0-.1.24.391.391,0,0,0,.1.25.369.369,0,0,0,.5,0,.391.391,0,0,0,.1-.25.339.339,0,0,0-.11-.25A.348.348,0,0,0,67.75,61.53Z" style="fill:#17306d"/><path d="M64,59.53a.35.35,0,0,0-.25.6.36.36,0,0,0,.6-.25.34.34,0,0,0-.33-.35Z" style="fill:#17306d"/><path d="M65,56a.34.34,0,0,0-.35.33v.02a.369.369,0,0,0,.1.25.38.38,0,0,0,.5,0A.35.35,0,0,0,65,56Z" style="fill:#17306d"/><path d="M63.75,52a.358.358,0,0,0-.25.11.348.348,0,0,0-.1.24.391.391,0,0,0,.1.25.369.369,0,0,0,.5,0,.391.391,0,0,0,.1-.25.339.339,0,0,0-.11-.25A.348.348,0,0,0,63.75,52Z" style="fill:#17306d"/><path d="M66,52a.34.34,0,0,0-.35.33v.02a.332.332,0,0,0,.11.25.369.369,0,0,0,.49,0,.363.363,0,0,0,.1-.25.34.34,0,0,0-.33-.35Z" style="fill:#17306d"/><path d="M67.75,50.53a.35.35,0,0,0-.25.6.369.369,0,0,0,.5,0,.35.35,0,0,0-.25-.6Z" style="fill:#17306d"/><path d="M6.75,19.53a.35.35,0,0,0-.25.6.38.38,0,0,0,.5,0,.35.35,0,0,0-.25-.6Z" style="fill:#17306d"/><path d="M7,17.28a.35.35,0,0,0-.25.6.369.369,0,0,0,.5,0,.35.35,0,0,0-.25-.6Z" style="fill:#17306d"/><path d="M2,17.28a.391.391,0,0,0-.25.1.359.359,0,0,0,0,.5.38.38,0,0,0,.5,0,.359.359,0,0,0,0-.5A.391.391,0,0,0,2,17.28Z" style="fill:#17306d"/><path d="M9.5,7.78a.35.35,0,0,0-.25.6.36.36,0,0,0,.6-.25.34.34,0,0,0-.33-.35Z" style="fill:#17306d"/><path d="M.75,3.78a.391.391,0,0,0-.25.1.359.359,0,0,0,0,.5.38.38,0,0,0,.5,0,.359.359,0,0,0,0-.5A.391.391,0,0,0,.75,3.78Z" style="fill:#17306d"/><path d="M10.75.78a.35.35,0,0,0-.25.6.38.38,0,0,0,.5,0,.35.35,0,0,0-.25-.6Z" style="fill:#17306d"/><path d="M18,4.53a.34.34,0,0,0-.35.33v.02a.345.345,0,0,0,.59.25.358.358,0,0,0,.11-.25.34.34,0,0,0-.33-.35Z" style="fill:#17306d"/><path d="M16,9.53a.35.35,0,0,0-.25.6.369.369,0,0,0,.5,0,.35.35,0,0,0-.25-.6Z" style="fill:#17306d"/><path d="M19.25,14a.34.34,0,0,0-.35.33v.02a.332.332,0,0,0,.11.25.369.369,0,0,0,.49,0,.363.363,0,0,0,.1-.25.34.34,0,0,0-.33-.35Z" style="fill:#17306d"/><path d="M18.5,16a.34.34,0,0,0-.35.33v.02a.332.332,0,0,0,.11.25.369.369,0,0,0,.49,0,.363.363,0,0,0,.1-.25.34.34,0,0,0-.33-.35Z" style="fill:#17306d"/><path d="M16,17a.34.34,0,0,0-.35.33v.02a.332.332,0,0,0,.11.25.369.369,0,0,0,.49,0,.363.363,0,0,0,.1-.25.34.34,0,0,0-.33-.35Z" style="fill:#17306d"/><path d="M19,20.78a.34.34,0,0,0-.35.33v.02a.332.332,0,0,0,.11.25.369.369,0,0,0,.49,0,.363.363,0,0,0,.1-.25.34.34,0,0,0-.33-.35Z" style="fill:#17306d"/><path d="M18.75,24.78a.35.35,0,0,0-.25.6.38.38,0,0,0,.5,0,.35.35,0,0,0-.25-.6Z" style="fill:#17306d"/><path d="M16,24.53a.35.35,0,0,0-.25.6.369.369,0,0,0,.5,0,.35.35,0,0,0-.25-.6Z" style="fill:#17306d"/><path d="M32.25,21a.34.34,0,0,0-.35.33v.02a.332.332,0,0,0,.11.25.35.35,0,0,0,.59-.25.34.34,0,0,0-.33-.35Z" style="fill:#17306d"/><path d="M27,17.53a.35.35,0,0,0-.25.6.369.369,0,0,0,.5,0,.35.35,0,0,0-.25-.6Z" style="fill:#17306d"/><path d="M31.75,16a.35.35,0,0,0-.25.6.369.369,0,0,0,.5,0,.35.35,0,0,0-.25-.6Z" style="fill:#17306d"/><path d="M31.75,14.28a.35.35,0,0,0-.245.6l.005.005a.369.369,0,0,0,.5,0,.363.363,0,0,0,.1-.25.34.34,0,0,0-.33-.35h-.03Z" style="fill:#17306d"/><path d="M33.75,13.53a.35.35,0,0,0-.25.6.369.369,0,0,0,.5,0,.35.35,0,0,0-.25-.6Z" style="fill:#17306d"/><path d="M25.75,7a.35.35,0,0,0-.25.6.36.36,0,0,0,.6-.25A.34.34,0,0,0,25.77,7Z" style="fill:#17306d"/><path d="M35.75,15.53a.35.35,0,0,0-.25.6.36.36,0,0,0,.6-.25.34.34,0,0,0-.33-.35Z" style="fill:#17306d"/><path d="M39,15.78a.348.348,0,0,0-.24.1.358.358,0,0,0-.11.25.391.391,0,0,0,.1.25.369.369,0,0,0,.5,0,.35.35,0,0,0-.25-.6Z" style="fill:#17306d"/><path d="M41.5,21a.35.35,0,0,0-.25.6.369.369,0,0,0,.5,0,.35.35,0,0,0-.25-.6Z" style="fill:#17306d"/><path d="M43.25,27a.358.358,0,0,0-.25.11.348.348,0,0,0-.1.24.391.391,0,0,0,.1.25.369.369,0,0,0,.5,0,.35.35,0,0,0-.25-.6Z" style="fill:#17306d"/><path d="M50.75,21.28a.391.391,0,0,0-.25.1.363.363,0,0,0-.1.25.391.391,0,0,0,.1.25.359.359,0,0,0,.5,0,.35.35,0,0,0-.25-.6Z" style="fill:#17306d"/><path d="M51.75,25.28a.358.358,0,0,0-.25.11.348.348,0,0,0-.1.24.332.332,0,0,0,.11.25.369.369,0,0,0,.49,0,.363.363,0,0,0,.1-.25.34.34,0,0,0-.33-.35Z" style="fill:#17306d"/><path d="M54.75,24.78a.332.332,0,0,0-.25.11.348.348,0,0,0-.1.24.369.369,0,0,0,.1.25.361.361,0,0,0,.49,0,.347.347,0,0,0-.22-.6Z" style="fill:#17306d"/><path d="M54.75,17.53a.332.332,0,0,0-.25.11.348.348,0,0,0-.1.24.332.332,0,0,0,.11.25.369.369,0,0,0,.49,0,.363.363,0,0,0,.1-.25.34.34,0,0,0-.33-.35Z" style="fill:#17306d"/><path d="M51,15.53a.35.35,0,0,0-.25.6.369.369,0,0,0,.5,0,.354.354,0,0,0,.1-.25.391.391,0,0,0-.1-.25A.369.369,0,0,0,51,15.53Z" style="fill:#17306d"/><path d="M50.75,8a.34.34,0,0,0-.35.33v.02a.31.31,0,0,0,.1.24.341.341,0,0,0,.481.009l.009-.009a.358.358,0,0,0,.11-.25.391.391,0,0,0-.1-.25A.368.368,0,0,0,50.75,8Z" style="fill:#17306d"/><path d="M53,8a.34.34,0,0,0-.35.33v.02a.332.332,0,0,0,.11.25.361.361,0,0,0,.49,0,.31.31,0,0,0,.1-.24A.341.341,0,0,0,53.031,8Z" style="fill:#17306d"/><path d="M55.75,8.78a.35.35,0,0,0-.25.6.36.36,0,0,0,.6-.25.34.34,0,0,0-.33-.35Z" style="fill:#17306d"/><path d="M58,10.28a.358.358,0,0,0-.25.11.348.348,0,0,0-.1.24.391.391,0,0,0,.1.25.35.35,0,0,0,.6-.25.34.34,0,0,0-.33-.35Z" style="fill:#17306d"/><path d="M20.75,44.78a.35.35,0,0,0-.25.6.36.36,0,0,0,.6-.25.34.34,0,0,0-.33-.35Z" style="fill:#17306d"/><path d="M22.5,47.78a.35.35,0,0,0-.25.6.369.369,0,0,0,.5,0,.35.35,0,0,0-.25-.6Z" style="fill:#17306d"/><path d="M38.75,47a.35.35,0,0,0-.25.6.369.369,0,0,0,.5,0,.35.35,0,0,0-.25-.6Z" style="fill:#17306d"/><path d="M46,42.78a.391.391,0,0,0-.25.1.351.351,0,0,0,0,.49.341.341,0,0,0,.481.009l.009-.009a.358.358,0,0,0,.11-.25.34.34,0,0,0-.33-.35H46Z" style="fill:#17306d"/><path d="M55,43.78a.35.35,0,0,0-.25.6.369.369,0,0,0,.5,0,.35.35,0,0,0-.25-.6Z" style="fill:#17306d"/><path d="M51,46.53a.35.35,0,0,0-.25.6.369.369,0,0,0,.5,0,.354.354,0,0,0,.1-.25.34.34,0,0,0-.33-.35Z" style="fill:#17306d"/><path d="M51.75,42.28a.369.369,0,0,0-.25.1.347.347,0,1,0,.6.25.34.34,0,0,0-.33-.35Z" style="fill:#17306d"/><path d="M62.25,36.28a.34.34,0,0,0-.35.33v.02a.332.332,0,0,0,.11.25.361.361,0,0,0,.49,0,.31.31,0,0,0,.1-.24.34.34,0,0,0-.33-.35h-.02Z" style="fill:#17306d"/><path d="M56.5,32.78a.35.35,0,0,0-.25.6.36.36,0,0,0,.6-.25.34.34,0,0,0-.33-.35Z" style="fill:#17306d"/><path d="M48,34.53a.348.348,0,0,0-.24.1.358.358,0,0,0-.11.25.391.391,0,0,0,.1.25.359.359,0,0,0,.5,0,.329.329,0,0,0,.1-.24.34.34,0,0,0-.33-.35H48Z" style="fill:#17306d"/><path d="M47.75,30.53a.332.332,0,0,0-.25.11.348.348,0,0,0-.1.24.391.391,0,0,0,.1.25.38.38,0,0,0,.5,0,.35.35,0,0,0-.25-.6Z" style="fill:#17306d"/><path d="M53.25,26.78a.339.339,0,0,0-.25.11.31.31,0,0,0-.1.24.339.339,0,0,0,.11.25.369.369,0,0,0,.49,0,.35.35,0,0,0-.25-.6Z" style="fill:#17306d"/><path d="M62,23.78a.34.34,0,0,0-.35.33v.02a.332.332,0,0,0,.11.25.361.361,0,0,0,.49,0,.31.31,0,0,0,.1-.24.34.34,0,0,0-.33-.35H62Z" style="fill:#17306d"/><path d="M64.75,20a.34.34,0,0,0-.35.33v.02a.332.332,0,0,0,.11.25.369.369,0,0,0,.49,0,.363.363,0,0,0,.1-.25.34.34,0,0,0-.33-.35Z" style="fill:#17306d"/><path d="M69.25,26.78a.35.35,0,0,0-.25.6.369.369,0,0,0,.5,0,.35.35,0,0,0-.25-.6Z" style="fill:#17306d"/><path d="M59.75,32.78a.332.332,0,0,0-.25.11.348.348,0,0,0-.1.24.339.339,0,0,0,.11.25.35.35,0,0,0,.49-.5A.369.369,0,0,0,59.75,32.78Z" style="fill:#17306d"/><path d="M32.25,24.78a.35.35,0,0,0-.25.6.36.36,0,0,0,.6-.25.34.34,0,0,0-.33-.35Z" style="fill:#17306d"/><path d="M26,34a.35.35,0,0,0-.25.6.36.36,0,0,0,.6-.25.34.34,0,0,0-.33-.35Z" style="fill:#17306d"/><path d="M29.5,36.28a.348.348,0,0,0-.24.1.358.358,0,0,0-.11.25.332.332,0,0,0,.11.25.369.369,0,0,0,.49,0,.363.363,0,0,0,.1-.25.34.34,0,0,0-.33-.35Z" style="fill:#17306d"/><path d="M10.25,42.28a.35.35,0,0,0-.25.6.369.369,0,0,0,.49,0,.332.332,0,0,0,.11-.25.34.34,0,0,0-.33-.35Z" style="fill:#17306d"/><path d="M5.75,40.28a.35.35,0,0,0-.25.6.361.361,0,0,0,.49,0,.332.332,0,0,0,.11-.25.369.369,0,0,0-.1-.25A.391.391,0,0,0,5.75,40.28Z" style="fill:#17306d"/><path d="M2.25,36.53a.391.391,0,0,0-.25.1.359.359,0,0,0,0,.5.369.369,0,0,0,.5,0,.354.354,0,0,0,.1-.25.329.329,0,0,0-.1-.24A.358.358,0,0,0,2.25,36.53Z" style="fill:#17306d"/><path d="M16.75,29.78a.34.34,0,0,0-.35.33v.02a.332.332,0,0,0,.11.25.35.35,0,0,0,.59-.25.391.391,0,0,0-.1-.25A.369.369,0,0,0,16.75,29.78Z" style="fill:#17306d"/><path d="M12.5,35.78a.34.34,0,0,0-.35.33v.02a.332.332,0,0,0,.11.25.369.369,0,0,0,.49,0,.363.363,0,0,0,.1-.25.391.391,0,0,0-.1-.25A.369.369,0,0,0,12.5,35.78Z" style="fill:#17306d"/><path d="M26.25,41.53a.35.35,0,0,0-.25.6.369.369,0,0,0,.5,0,.35.35,0,0,0-.25-.6Z" style="fill:#17306d"/><path d="M39,41a.35.35,0,0,0-.25.6.369.369,0,0,0,.5,0,.359.359,0,0,0,0-.5A.369.369,0,0,0,39,41Z" style="fill:#17306d"/><path d="M38,39a.35.35,0,0,0-.25.6.369.369,0,0,0,.5,0A.35.35,0,0,0,38,39Z" style="fill:#17306d"/><path d="M27.75,29.78a.35.35,0,0,0-.25.6.369.369,0,0,0,.5,0,.35.35,0,0,0-.25-.6Z" style="fill:#17306d"/><path d="M6.25,51.28a.35.35,0,0,0-.25.6.369.369,0,0,0,.5,0,.35.35,0,0,0-.25-.6Z" style="fill:#17306d"/><path d="M9.5,53a.35.35,0,0,0-.25.6.36.36,0,0,0,.6-.25A.34.34,0,0,0,9.52,53Z" style="fill:#17306d"/><path d="M11.5,48.28a.34.34,0,0,0-.35.33v.02a.332.332,0,0,0,.11.25.369.369,0,0,0,.49,0,.363.363,0,0,0,.1-.25.391.391,0,0,0-.1-.25A.369.369,0,0,0,11.5,48.28Z" style="fill:#17306d"/><path d="M2.75,46a.391.391,0,0,0-.25.1.359.359,0,0,0,0,.5.38.38,0,0,0,.5,0,.359.359,0,0,0,0-.5A.391.391,0,0,0,2.75,46Z" style="fill:#17306d"/><path d="M64,42.28a.348.348,0,0,0-.24.1.358.358,0,0,0-.11.25.391.391,0,0,0,.1.25.36.36,0,0,0,.6-.25.34.34,0,0,0-.33-.35Z" style="fill:#17306d"/><path d="M69.25,42a.34.34,0,0,0-.35.33v.02a.339.339,0,0,0,.11.25.369.369,0,0,0,.49,0,.363.363,0,0,0,.1-.25.391.391,0,0,0-.1-.25A.369.369,0,0,0,69.25,42Z" style="fill:#17306d"/><path d="M1.25,62.78a.391.391,0,0,0-.25.1.359.359,0,0,0,0,.5.38.38,0,0,0,.5,0,.359.359,0,0,0,0-.5A.391.391,0,0,0,1.25,62.78Z" style="fill:#17306d"/><path d="M16.25,65.78a.34.34,0,0,0-.35.33v.02a.369.369,0,0,0,.1.25.38.38,0,0,0,.5,0,.35.35,0,0,0-.25-.6Z" style="fill:#17306d"/><path d="M3.5,65.78a.35.35,0,0,0-.25.6.36.36,0,0,0,.6-.25.34.34,0,0,0-.33-.35Z" style="fill:#17306d"/><path d="M12.5,57.53a.35.35,0,0,0-.25.6.36.36,0,0,0,.6-.25.34.34,0,0,0-.33-.35Z" style="fill:#17306d"/><path d="M18.25,52.53a.34.34,0,0,0-.35.33v.02a.369.369,0,0,0,.1.25.36.36,0,0,0,.6-.25.34.34,0,0,0-.33-.35Z" style="fill:#17306d"/><path d="M21,34.78a.34.34,0,0,0-.35.33v.02a.345.345,0,0,0,.59.25.358.358,0,0,0,.11-.25.34.34,0,0,0-.33-.35Z" style="fill:#17306d"/><path d="M.5,27.53a.391.391,0,0,0-.25.1.391.391,0,0,0-.1.25.332.332,0,0,0,.11.25.369.369,0,0,0,.49,0,.363.363,0,0,0,.1-.25.391.391,0,0,0-.1-.25A.391.391,0,0,0,.5,27.53Z" style="fill:#17306d"/><path d="M67.75,5.78a.34.34,0,0,0-.35.33v.02a.332.332,0,0,0,.11.25.369.369,0,0,0,.49,0,.363.363,0,0,0,.1-.25.34.34,0,0,0-.33-.35Z" style="fill:#17306d"/><path d="M59.5,2a.391.391,0,0,0-.25.1.354.354,0,0,0-.1.25.391.391,0,0,0,.1.25.369.369,0,0,0,.5,0,.363.363,0,0,0,.1-.25.369.369,0,0,0-.1-.25A.391.391,0,0,0,59.5,2Z" style="fill:#17306d"/><path d="M40.25,3.78a.35.35,0,0,0-.25.6.369.369,0,0,0,.5,0,.359.359,0,0,0,0-.5A.369.369,0,0,0,40.25,3.78Z" style="fill:#17306d"/><path d="M4.25,11.78a.35.35,0,0,0-.25.6.36.36,0,0,0,.6-.25.34.34,0,0,0-.33-.35Z" style="fill:#17306d"/><path d="M26.25,12.28a.35.35,0,0,0-.25.6.36.36,0,0,0,.6-.25.34.34,0,0,0-.33-.35Z" style="fill:#17306d"/><path d="M37,23.28a.34.34,0,0,0-.35.33v.02a.35.35,0,0,0,.6.25.359.359,0,0,0,0-.5A.369.369,0,0,0,37,23.28Z" style="fill:#17306d"/><path d="M8.5,31.53a.35.35,0,0,0-.25.6.36.36,0,0,0,.6-.25.34.34,0,0,0-.33-.35Z" style="fill:#17306d"/><path d="M52,33.78a.358.358,0,0,0-.25.11.348.348,0,0,0-.1.24.332.332,0,0,0,.11.25.369.369,0,0,0,.49,0,.363.363,0,0,0,.1-.25.34.34,0,0,0-.33-.35Z" style="fill:#17306d"/><path d="M60.5,25.78a.34.34,0,0,0-.35.33v.02a.332.332,0,0,0,.11.25.369.369,0,0,0,.49,0,.363.363,0,0,0,.1-.25.34.34,0,0,0-.33-.35Z" style="fill:#17306d"/><path d="M51,5.53a.35.35,0,0,0-.25.6.369.369,0,0,0,.5,0,.391.391,0,0,0,.1-.25.354.354,0,0,0-.1-.25A.391.391,0,0,0,51,5.53Z" style="fill:#17306d"/><path d="M39.75,34a.35.35,0,0,0-.25.6.36.36,0,0,0,.6-.25.34.34,0,0,0-.33-.35Z" style="fill:#17306d"/><path d="M27.25,58.28a.35.35,0,0,0-.25.6.36.36,0,0,0,.6-.25.34.34,0,0,0-.33-.35Z" style="fill:#17306d"/><path d="M19.5,45.28a.34.34,0,0,0-.35.33v.02a.345.345,0,0,0,.59.25.358.358,0,0,0,.11-.25.34.34,0,0,0-.33-.35Z" style="fill:#17306d"/><path d="M11.5,70a.354.354,0,0,0-.25.6.38.38,0,0,0,.5,0,.35.35,0,0,0-.25-.6Z" style="fill:#17306d"/><path d="M55,68a.34.34,0,0,0-.35.33v.02a.332.332,0,0,0,.11.25.369.369,0,0,0,.49,0,.363.363,0,0,0,.1-.25.34.34,0,0,0-.33-.35Z" style="fill:#17306d"/><path d="M47,2a.391.391,0,0,0-.25.1.369.369,0,0,0-.1.25.391.391,0,0,0,.1.25.36.36,0,0,0,.6-.25A.34.34,0,0,0,47.02,2Z" style="fill:#17306d"/><path d="M4.5,31.53a.34.34,0,0,0-.35.33v.02a.332.332,0,0,0,.11.25.369.369,0,0,0,.49,0,.363.363,0,0,0,.1-.25.34.34,0,0,0-.33-.35Z" style="fill:#17306d"/><path d="M68.5,58.53a.35.35,0,0,0-.25.6.369.369,0,0,0,.5,0,.359.359,0,0,0,0-.5A.391.391,0,0,0,68.5,58.53Z" style="fill:#17306d"/><path d="M23,57.78a.35.35,0,0,0-.25.6.36.36,0,0,0,.6-.25.34.34,0,0,0-.33-.35Z" style="fill:#17306d"/><path d="M20.25,54.53a.35.35,0,0,0-.25.6.369.369,0,0,0,.5,0,.35.35,0,0,0-.25-.6Z" style="fill:#17306d"/><path d="M14.5,54.53a.34.34,0,0,0-.35.33v.02a.332.332,0,0,0,.11.25.369.369,0,0,0,.49,0,.363.363,0,0,0,.1-.25.34.34,0,0,0-.33-.35Z" style="fill:#17306d"/><path d="M5.75,60a.35.35,0,0,0-.25.6.361.361,0,0,0,.49,0,.332.332,0,0,0,.11-.25A.34.34,0,0,0,5.77,60Z" style="fill:#17306d"/><path d="M6.75,69a.371.371,0,0,0-.24.1.358.358,0,0,0-.11.25.391.391,0,0,0,.1.25.36.36,0,0,0,.6-.25A.342.342,0,0,0,6.75,69Z" style="fill:#17306d"/><path d="M9.75,63.53a.35.35,0,0,0-.25.6.36.36,0,0,0,.6-.25.34.34,0,0,0-.33-.35Z" style="fill:#17306d"/><path d="M14,63.53a.34.34,0,0,0-.35.33v.02a.332.332,0,0,0,.11.25.369.369,0,0,0,.49,0,.363.363,0,0,0,.1-.25.34.34,0,0,0-.33-.35Z" style="fill:#17306d"/><path d="M25.5,64.78a.35.35,0,0,0-.25.6.36.36,0,0,0,.6-.25.34.34,0,0,0-.33-.35Z" style="fill:#17306d"/><path d="M36.75,64.28a.35.35,0,0,0-.25.6.369.369,0,0,0,.5,0,.35.35,0,0,0-.25-.6Z" style="fill:#17306d"/><path d="M37.25,67.53a.34.34,0,0,0-.35.33v.02a.329.329,0,0,0,.1.25.35.35,0,0,0,.59-.25.34.34,0,0,0-.33-.35h-.01Z" style="fill:#17306d"/><path d="M43,69.53a.354.354,0,0,0-.25.6.369.369,0,0,0,.5,0,.362.362,0,0,0,0-.5A.419.419,0,0,0,43,69.53Z" style="fill:#17306d"/><path d="M49.25,63.53a.391.391,0,0,0-.25.1.359.359,0,0,0,0,.5.369.369,0,0,0,.5,0,.35.35,0,0,0-.25-.6Z" style="fill:#17306d"/><path d="M45.75,62.53a.35.35,0,0,0-.25.6.369.369,0,0,0,.5,0,.359.359,0,0,0,0-.5A.369.369,0,0,0,45.75,62.53Z" style="fill:#17306d"/><path d="M35.5,60.78a.34.34,0,0,0-.35.33v.02a.369.369,0,0,0,.1.25.36.36,0,0,0,.6-.25.34.34,0,0,0-.33-.35Z" style="fill:#17306d"/><path d="M39,56.78a.35.35,0,0,0-.25.6.36.36,0,0,0,.6-.25.34.34,0,0,0-.33-.35Z" style="fill:#17306d"/><path d="M24.5,53.78a.35.35,0,0,0-.25.6.36.36,0,0,0,.6-.25.34.34,0,0,0-.33-.35Z" style="fill:#17306d"/><path d="M8,44.53a.35.35,0,0,0-.25.6.36.36,0,0,0,.6-.25.34.34,0,0,0-.33-.35Z" style="fill:#17306d"/><path d="M15.75,40a.35.35,0,0,0-.25.6.38.38,0,0,0,.5,0,.35.35,0,0,0-.25-.6Z" style="fill:#17306d"/><path d="M10.25,38.28a.34.34,0,0,0-.35.33v.02a.332.332,0,0,0,.11.25.369.369,0,0,0,.49,0,.363.363,0,0,0,.1-.25.369.369,0,0,0-.1-.25A.391.391,0,0,0,10.25,38.28Z" style="fill:#17306d"/><path d="M5,34.78a.35.35,0,0,0-.25.6.38.38,0,0,0,.5,0,.369.369,0,0,0,.1-.25.34.34,0,0,0-.33-.35Z" style="fill:#17306d"/><path d="M3,51.28a.391.391,0,0,0-.25.1.359.359,0,0,0,0,.5.38.38,0,0,0,.5,0,.359.359,0,0,0,0-.5A.391.391,0,0,0,3,51.28Z" style="fill:#17306d"/><path d="M20.25,41a.34.34,0,0,0-.35.33v.02a.332.332,0,0,0,.11.25.35.35,0,0,0,.59-.25.34.34,0,0,0-.33-.35Z" style="fill:#17306d"/><path d="M17.25,36.28a.35.35,0,0,0-.25.6.369.369,0,0,0,.5,0,.35.35,0,0,0-.25-.6Z" style="fill:#17306d"/><path d="M15.75,32.78a.34.34,0,0,0-.35.33v.02a.332.332,0,0,0,.11.25.369.369,0,0,0,.49,0,.363.363,0,0,0,.1-.25.391.391,0,0,0-.1-.25A.369.369,0,0,0,15.75,32.78Z" style="fill:#17306d"/><path d="M12.5,30.53a.34.34,0,0,0-.35.33v.02a.332.332,0,0,0,.11.25.369.369,0,0,0,.49,0,.363.363,0,0,0,.1-.25.34.34,0,0,0-.33-.35Z" style="fill:#17306d"/><path d="M12.5,25.28a.34.34,0,0,0-.35.33v.02a.332.332,0,0,0,.11.25.369.369,0,0,0,.49,0,.363.363,0,0,0,.1-.25.34.34,0,0,0-.33-.35Z" style="fill:#17306d"/><path d="M5.5,23.28a.35.35,0,0,0-.25.6.38.38,0,0,0,.5,0,.35.35,0,0,0-.25-.6Z" style="fill:#17306d"/><path d="M10.75,17.28a.35.35,0,0,0-.25.6.38.38,0,0,0,.5,0,.35.35,0,0,0-.25-.6Z" style="fill:#17306d"/><path d="M15.25,13.28a.35.35,0,0,0-.25.6.369.369,0,0,0,.5,0,.35.35,0,0,0-.25-.6Z" style="fill:#17306d"/><path d="M5.75,8.28a.35.35,0,0,0-.25.6.38.38,0,0,0,.5,0,.363.363,0,0,0,.1-.25.34.34,0,0,0-.33-.35Z" style="fill:#17306d"/><path d="M2,9.78a.391.391,0,0,0-.25.1.359.359,0,0,0,0,.5.369.369,0,0,0,.49,0,.339.339,0,0,0,.11-.25.391.391,0,0,0-.1-.25A.391.391,0,0,0,2,9.78Z" style="fill:#17306d"/><path d="M8.75,3.78a.35.35,0,0,0-.25.6.36.36,0,0,0,.6-.25A.391.391,0,0,0,9,3.88.369.369,0,0,0,8.75,3.78Z" style="fill:#17306d"/><path d="M13.25,2.28a.35.35,0,0,0-.25.6.38.38,0,0,0,.5,0,.35.35,0,0,0-.25-.6Z" style="fill:#17306d"/><path d="M21.25,3.28a.34.34,0,0,0-.35.33v.02a.332.332,0,0,0,.11.25.35.35,0,0,0,.59-.25.34.34,0,0,0-.33-.35Z" style="fill:#17306d"/><path d="M22.75,6a.35.35,0,0,0-.25.6.369.369,0,0,0,.5,0,.359.359,0,0,0,0-.5A.369.369,0,0,0,22.75,6Z" style="fill:#17306d"/><path d="M22,11.78a.35.35,0,0,0-.25.6.38.38,0,0,0,.5,0,.359.359,0,0,0,0-.5A.369.369,0,0,0,22,11.78Z" style="fill:#17306d"/><path d="M24,14.28a.34.34,0,0,0-.35.33v.02a.369.369,0,0,0,.1.25.38.38,0,0,0,.5,0,.369.369,0,0,0,.1-.25.391.391,0,0,0-.1-.25A.369.369,0,0,0,24,14.28Z" style="fill:#17306d"/><path d="M26,24a.35.35,0,0,0-.25.6.369.369,0,0,0,.5,0A.35.35,0,0,0,26,24Z" style="fill:#17306d"/><path d="M25.5,28.28a.35.35,0,0,0-.25.6.369.369,0,0,0,.5,0,.35.35,0,0,0-.25-.6Z" style="fill:#17306d"/><path d="M32,40.78a.34.34,0,0,0-.35.33v.02a.332.332,0,0,0,.11.25.35.35,0,0,0,.59-.25.34.34,0,0,0-.33-.35Z" style="fill:#17306d"/><path d="M34,44a.34.34,0,0,0-.35.33v.02a.354.354,0,0,0,.1.25.369.369,0,0,0,.5,0,.359.359,0,0,0,0-.5A.369.369,0,0,0,34,44Z" style="fill:#17306d"/><path d="M41.5,46a.35.35,0,0,0-.25.6.369.369,0,0,0,.5,0,.35.35,0,0,0-.25-.6Z" style="fill:#17306d"/><path d="M42.75,51a.358.358,0,0,0-.25.11.329.329,0,0,0-.1.24.391.391,0,0,0,.1.25.369.369,0,0,0,.5,0,.391.391,0,0,0,.1-.25.339.339,0,0,0-.11-.25A.348.348,0,0,0,42.75,51Z" style="fill:#17306d"/><path d="M36.25,52.53a.391.391,0,0,0-.25.1.363.363,0,0,0-.1.25.31.31,0,0,0,.1.24.35.35,0,0,0,.495.005l.005-.005a.35.35,0,0,0-.25-.6Z" style="fill:#17306d"/><path d="M27.5,49.53a.35.35,0,0,0-.25.6.369.369,0,0,0,.5,0,.35.35,0,0,0-.25-.6Z" style="fill:#17306d"/><path d="M51.75,49.78a.332.332,0,0,0-.25.11.348.348,0,0,0-.1.24.391.391,0,0,0,.1.25.36.36,0,0,0,.6-.25.391.391,0,0,0-.1-.25A.369.369,0,0,0,51.75,49.78Z" style="fill:#17306d"/><path d="M43,54a.369.369,0,0,0-.25.1.359.359,0,0,0,0,.5.38.38,0,0,0,.5,0A.35.35,0,0,0,43,54Z" style="fill:#17306d"/><path d="M50.25,53.78a.369.369,0,0,0-.25.1.347.347,0,1,0,.6.25.34.34,0,0,0-.33-.35Z" style="fill:#17306d"/><path d="M59.25,54.53a.34.34,0,0,0-.35.33v.02a.332.332,0,0,0,.11.25.369.369,0,0,0,.49,0,.363.363,0,0,0,.1-.25.34.34,0,0,0-.33-.35Z" style="fill:#17306d"/><path d="M58,57.78a.369.369,0,0,0-.25.1.347.347,0,1,0,.6.25.34.34,0,0,0-.33-.35Z" style="fill:#17306d"/><path d="M61.25,60.78a.34.34,0,0,0-.35.33v.02a.332.332,0,0,0,.11.25.361.361,0,0,0,.49,0,.31.31,0,0,0,.1-.24.34.34,0,0,0-.33-.35h-.02Z" style="fill:#17306d"/><path d="M58.5,64.28a.391.391,0,0,0-.25.1.354.354,0,0,0-.1.25.31.31,0,0,0,.1.24.35.35,0,0,0,.6-.24.34.34,0,0,0-.33-.35Z" style="fill:#17306d"/><path d="M59.75,67a.339.339,0,0,0-.25.11.348.348,0,0,0-.1.24.332.332,0,0,0,.11.25.369.369,0,0,0,.49,0,.363.363,0,0,0,.1-.25.34.34,0,0,0-.33-.35Z" style="fill:#17306d"/><path d="M67.25,65.78a.391.391,0,0,0-.25.1.363.363,0,0,0-.1.25.369.369,0,0,0,.1.25.38.38,0,0,0,.5,0,.35.35,0,0,0-.25-.6Z" style="fill:#17306d"/><path d="M70.5,63.28a.391.391,0,0,0-.25.1.363.363,0,0,0-.1.25.345.345,0,0,0,.59.25.358.358,0,0,0,.11-.25.34.34,0,0,0-.33-.35Z" style="fill:#17306d"/><path d="M65.5,62a.34.34,0,0,0-.35.33v.02a.369.369,0,0,0,.1.25.38.38,0,0,0,.5,0,.35.35,0,0,0-.25-.6Z" style="fill:#17306d"/><path d="M60,48a.35.35,0,0,0-.25.6.369.369,0,0,0,.5,0A.35.35,0,0,0,60,48Z" style="fill:#17306d"/><path d="M55.25,48a.35.35,0,0,0-.25.6.38.38,0,0,0,.5,0,.35.35,0,0,0-.25-.6Z" style="fill:#17306d"/><path d="M55.25,53a.339.339,0,0,0-.25.11.348.348,0,0,0-.1.24.332.332,0,0,0,.11.25.369.369,0,0,0,.49,0,.363.363,0,0,0,.1-.25.34.34,0,0,0-.33-.35Z" style="fill:#17306d"/><path d="M64.75,46a.34.34,0,0,0-.35.33v.02a.332.332,0,0,0,.11.25.369.369,0,0,0,.49,0,.363.363,0,0,0,.1-.25.34.34,0,0,0-.33-.35Z" style="fill:#17306d"/><path d="M57.5,41a.332.332,0,0,0-.25.11.348.348,0,0,0-.1.24.332.332,0,0,0,.11.25.369.369,0,0,0,.49,0,.363.363,0,0,0,.1-.25.34.34,0,0,0-.33-.35Z" style="fill:#17306d"/><path d="M52.5,39a.358.358,0,0,0-.25.11.348.348,0,0,0-.1.24.332.332,0,0,0,.11.25.369.369,0,0,0,.49,0,.363.363,0,0,0,.1-.25.34.34,0,0,0-.33-.35Z" style="fill:#17306d"/><path d="M47.25,38a.358.358,0,0,0-.25.11.348.348,0,0,0-.1.24.332.332,0,0,0,.11.25.369.369,0,0,0,.49,0,.363.363,0,0,0,.1-.25.34.34,0,0,0-.33-.35Z" style="fill:#17306d"/><path d="M44,32.53a.358.358,0,0,0-.25.11.348.348,0,0,0-.1.24.391.391,0,0,0,.1.25.35.35,0,0,0,.6-.25.332.332,0,0,0-.11-.25A.348.348,0,0,0,44,32.53Z" style="fill:#17306d"/><path d="M33.75,30.28a.35.35,0,0,0-.25.6.369.369,0,0,0,.5,0,.35.35,0,0,0-.25-.6Z" style="fill:#17306d"/><path d="M40.5,23.78a.35.35,0,0,0-.25.6.361.361,0,0,0,.49,0,.347.347,0,0,0-.22-.6Z" style="fill:#17306d"/><path d="M45.5,19.53a.34.34,0,0,0-.35.33v.02a.332.332,0,0,0,.11.25.35.35,0,0,0,.59-.25.34.34,0,0,0-.33-.35Z" style="fill:#17306d"/><path d="M46.25,15a.35.35,0,1,0,.24.6.358.358,0,0,0,.11-.25.34.34,0,0,0-.33-.35Z" style="fill:#17306d"/><path d="M41.75,12.28a.348.348,0,0,0-.24.1.358.358,0,0,0-.11.25.391.391,0,0,0,.1.25.369.369,0,0,0,.5,0,.35.35,0,0,0-.25-.6Z" style="fill:#17306d"/><path d="M39.75,9a.35.35,0,0,0-.25.6.369.369,0,0,0,.5,0,.359.359,0,0,0,0-.5A.369.369,0,0,0,39.75,9Z" style="fill:#17306d"/><path d="M35.75,9a.34.34,0,0,0-.35.33v.02a.332.332,0,0,0,.11.25.35.35,0,0,0,.59-.25A.34.34,0,0,0,35.77,9Z" style="fill:#17306d"/><path d="M36.25,19a.391.391,0,0,0-.25.1.354.354,0,0,0-.1.25.391.391,0,0,0,.1.25.359.359,0,0,0,.5,0,.31.31,0,0,0,.1-.24.34.34,0,0,0-.33-.35h-.02Z" style="fill:#17306d"/><path d="M29.75,8.28a.348.348,0,0,0-.24.1.358.358,0,0,0-.11.25.332.332,0,0,0,.11.25.369.369,0,0,0,.49,0,.363.363,0,0,0,.1-.25.34.34,0,0,0-.33-.35Z" style="fill:#17306d"/><path d="M31.25,3.28a.35.35,0,0,0-.25.6.369.369,0,0,0,.5,0,.35.35,0,0,0-.25-.6Z" style="fill:#17306d"/><path d="M36.75.78a.391.391,0,0,0-.25.1.369.369,0,0,0-.1.25.332.332,0,0,0,.11.25.369.369,0,0,0,.49,0,.363.363,0,0,0,.1-.25A.369.369,0,0,0,37,.88.391.391,0,0,0,36.75.78Z" style="fill:#17306d"/><path d="M62.75,14.78a.34.34,0,0,0-.35.33v.02a.332.332,0,0,0,.11.25.369.369,0,0,0,.49,0,.363.363,0,0,0,.1-.25.34.34,0,0,0-.33-.35Z" style="fill:#17306d"/><path d="M59.75,21a.332.332,0,0,0-.25.11.347.347,0,0,0,.49.49.358.358,0,0,0,.11-.25.391.391,0,0,0-.1-.25A.369.369,0,0,0,59.75,21Z" style="fill:#17306d"/><path d="M54.25,21.28a.391.391,0,0,0-.25.1.369.369,0,0,0-.1.25.35.35,0,1,0,.6-.24A.339.339,0,0,0,54.25,21.28Z" style="fill:#17306d"/><path d="M54.5,30a.358.358,0,0,0-.25.11.329.329,0,0,0-.1.24.391.391,0,0,0,.1.25.369.369,0,0,0,.5,0,.391.391,0,0,0,.1-.25.339.339,0,0,0-.11-.25A.348.348,0,0,0,54.5,30Z" style="fill:#17306d"/><path d="M62.25,29.53a.35.35,0,0,0-.25.6.369.369,0,0,0,.5,0,.35.35,0,0,0-.25-.6Z" style="fill:#17306d"/><path d="M66.75,24.28a.348.348,0,0,0-.24.1.358.358,0,0,0-.11.25.391.391,0,0,0,.1.25.361.361,0,0,0,.49,0,.319.319,0,0,0,.11-.25.34.34,0,0,0-.33-.35Z" style="fill:#17306d"/><path d="M69.25,17.53a.348.348,0,0,0-.24.1.358.358,0,0,0-.11.25.391.391,0,0,0,.1.25.36.36,0,0,0,.6-.25.34.34,0,0,0-.33-.35Z" style="fill:#17306d"/><path d="M63.25,10a.348.348,0,0,0-.24.1.358.358,0,0,0-.11.25.391.391,0,0,0,.1.25.361.361,0,0,0,.49,0,.319.319,0,0,0,.11-.25.34.34,0,0,0-.33-.35Z" style="fill:#17306d"/><path d="M70,10.78a.34.34,0,0,0-.35.33v.02a.332.332,0,0,0,.11.25.369.369,0,0,0,.49,0,.363.363,0,0,0,.1-.25.34.34,0,0,0-.33-.35Z" style="fill:#17306d"/><path d="M64.5,6.28a.35.35,0,0,0-.25.6.359.359,0,0,0,.5,0,.348.348,0,0,0,.1-.24.34.34,0,0,0-.33-.35H64.5Z" style="fill:#17306d"/><path d="M65.5,3.53a.35.35,0,0,0-.25.6.369.369,0,0,0,.5,0,.35.35,0,0,0-.25-.6Z" style="fill:#17306d"/><path d="M62.25,1.53a.34.34,0,0,0-.35.33v.02a.339.339,0,0,0,.11.25.361.361,0,0,0,.49,0,.31.31,0,0,0,.1-.24.34.34,0,0,0-.33-.35h-.02Z" style="fill:#17306d"/><path d="M52.5,2a.35.35,0,0,0-.25.6.36.36,0,0,0,.6-.25.391.391,0,0,0-.1-.25A.369.369,0,0,0,52.5,2Z" style="fill:#17306d"/><path d="M44.5,5.28a.339.339,0,0,0-.25.11.348.348,0,0,0-.1.24.332.332,0,0,0,.11.25.369.369,0,0,0,.49,0,.363.363,0,0,0,.1-.25.34.34,0,0,0-.33-.35Z" style="fill:#17306d"/><path d="M28.25.53a.391.391,0,0,0-.25.1.363.363,0,0,0-.1.25.332.332,0,0,0,.11.25A.35.35,0,0,0,28.6.88a.332.332,0,0,0-.11-.25A.348.348,0,0,0,28.25.53Z" style="fill:#17306d"/><path d="M2.75,42.28a.391.391,0,0,0-.25.1.359.359,0,0,0,0,.5.38.38,0,0,0,.5,0,.359.359,0,0,0,0-.5A.391.391,0,0,0,2.75,42.28Z" style="fill:#17306d"/><path d="M13,66.78a.358.358,0,0,0-.25.11.31.31,0,0,0-.1.24.369.369,0,0,0,.1.25.36.36,0,0,0,.6-.25.332.332,0,0,0-.11-.25A.348.348,0,0,0,13,66.78Z" style="fill:#17306d"/><path d="M70,37.28a.34.34,0,0,0-.35.33v.02a.332.332,0,0,0,.11.25.369.369,0,0,0,.49,0,.363.363,0,0,0,.1-.25.34.34,0,0,0-.33-.35Z" style="fill:#17306d"/><path d="M71,30.53a.35.35,0,0,0-.25.6.369.369,0,0,0,.5,0,.35.35,0,0,0-.25-.6Z" style="fill:#17306d"/><path d="M.75,20a.391.391,0,0,0-.25.1.391.391,0,0,0-.1.25.332.332,0,0,0,.11.25.369.369,0,0,0,.49,0,.363.363,0,0,0,.1-.25A.391.391,0,0,0,1,20.1.391.391,0,0,0,.75,20Z" style="fill:#17306d"/><path d="M71.75,48.28a.35.35,0,0,0-.25.6.38.38,0,0,0,.5,0,.35.35,0,0,0-.25-.6Z" style="fill:#17306d"/><path d="M68.75,45.28a.35.35,0,0,0-.25.6.369.369,0,0,0,.5,0,.391.391,0,0,0,.1-.25.354.354,0,0,0-.1-.25A.391.391,0,0,0,68.75,45.28Z" style="fill:#17306d"/><path d="M68.25,11.53a.34.34,0,0,0-.35.33v.02a.369.369,0,0,0,.1.25.38.38,0,0,0,.5,0,.35.35,0,0,0-.25-.6Z" style="fill:#17306d"/><path d="M71.25,3.53a.35.35,0,0,0-.25.6.369.369,0,0,0,.5,0,.391.391,0,0,0,.1-.25.354.354,0,0,0-.1-.25A.391.391,0,0,0,71.25,3.53Z" style="fill:#17306d"/><path d="M.25,14a.391.391,0,0,0-.25.1.359.359,0,0,0,0,.5.38.38,0,0,0,.5,0,.359.359,0,0,0,0-.5A.391.391,0,0,0,.25,14Z" style="fill:#17306d"/><path d="M2.5.53a.391.391,0,0,0-.25.1.359.359,0,0,0,0,.5.36.36,0,0,0,.6-.25.391.391,0,0,0-.1-.25A.391.391,0,0,0,2.5.53Z" style="fill:#17306d"/><path d="M70,47.78a.34.34,0,0,0-.35.33v.02a.332.332,0,0,0,.11.25.369.369,0,0,0,.49,0,.363.363,0,0,0,.1-.25.34.34,0,0,0-.33-.35Z" style="fill:#17306d"/><path d="M1,55a.391.391,0,0,0-.25.1.359.359,0,0,0,0,.5.38.38,0,0,0,.5,0,.359.359,0,0,0,0-.5A.391.391,0,0,0,1,55Z" style="fill:#17306d"/><path d="M17.75,58.73a.65.65,0,0,0-.65.65.661.661,0,0,0,.19.46.68.68,0,0,0,.92,0,.65.65,0,0,0-.46-1.11Z" style="fill:#17306d"/><path d="M29,60.73a.661.661,0,0,0-.46.19.681.681,0,0,0-.19.46.661.661,0,0,0,.19.46.67.67,0,0,0,.92,0,.661.661,0,0,0,.19-.46A.65.65,0,0,0,29,60.73Z" style="fill:#17306d"/><path d="M29,68.23a.65.65,0,0,0-.65.65.639.639,0,0,0,.19.46.68.68,0,0,0,.92,0,.65.65,0,0,0,0-.919h0A.681.681,0,0,0,29,68.23Z" style="fill:#17306d"/><path d="M40,61.23a.65.65,0,0,0-.65.65h0a.661.661,0,0,0,.19.46.68.68,0,0,0,.92,0,.631.631,0,0,0,.19-.46.681.681,0,0,0-.19-.46A.661.661,0,0,0,40,61.23Z" style="fill:#17306d"/><path d="M44.75,59.73a.61.61,0,0,0-.46.2.64.64,0,0,0-.19.45.661.661,0,0,0,.19.46.68.68,0,0,0,.92,0,.631.631,0,0,0,.19-.46.61.61,0,0,0-.2-.46A.6.6,0,0,0,44.75,59.73Z" style="fill:#17306d"/><path d="M47,48.73a.65.65,0,0,0-.46,1.11.68.68,0,0,0,.92,0A.65.65,0,0,0,47,48.73Z" style="fill:#17306d"/><path d="M54.5,64.73a.641.641,0,0,0-.5.19.65.65,0,0,0,0,.919h0a.68.68,0,0,0,.92,0,.639.639,0,0,0,.19-.46.661.661,0,0,0-.19-.46A.642.642,0,0,0,54.5,64.73Z" style="fill:#17306d"/><path d="M63.75,65a.65.65,0,0,0-.46,1.11.68.68,0,0,0,.92,0A.65.65,0,0,0,63.75,65Z" style="fill:#17306d"/><path d="M64.75,69a.661.661,0,0,0-.46.19.681.681,0,0,0-.19.46.661.661,0,0,0,.19.46.65.65,0,0,0,1.11-.46.63.63,0,0,0-.18-.45A.67.67,0,0,0,64.75,69Z" style="fill:#17306d"/><path d="M69.25,53.48a.65.65,0,0,0-.46,1.11.67.67,0,0,0,.92,0,.65.65,0,0,0-.46-1.11Z" style="fill:#17306d"/><path d="M7.75,24.48a.639.639,0,0,0-.46.19.681.681,0,0,0-.19.46.661.661,0,0,0,.19.46.68.68,0,0,0,.92,0,.661.661,0,0,0,.19-.46.681.681,0,0,0-.19-.46A.639.639,0,0,0,7.75,24.48Z" style="fill:#17306d"/><path d="M4.75,14.73a.639.639,0,0,0-.46.19.65.65,0,0,0,0,.919h0a.67.67,0,0,0,.92,0,.65.65,0,0,0,0-.919h0A.639.639,0,0,0,4.75,14.73Z" style="fill:#17306d"/><path d="M2,4.48a.661.661,0,0,0-.46.19.681.681,0,0,0-.19.46.661.661,0,0,0,.19.46.68.68,0,0,0,.92,0,.661.661,0,0,0,.19-.46.681.681,0,0,0-.19-.46A.661.661,0,0,0,2,4.48Z" style="fill:#17306d"/><path d="M17.5,1.73a.661.661,0,0,0-.46.19.681.681,0,0,0-.19.46.661.661,0,0,0,.19.46.68.68,0,0,0,.92,0,.661.661,0,0,0,.19-.46.681.681,0,0,0-.19-.46A.661.661,0,0,0,17.5,1.73Z" style="fill:#17306d"/><path d="M19,9.23a.65.65,0,0,0-.65.65h0a.639.639,0,0,0,.19.46.67.67,0,0,0,.92,0,.661.661,0,0,0,.19-.46.681.681,0,0,0-.19-.46A.661.661,0,0,0,19,9.23Z" style="fill:#17306d"/><path d="M20.75,26.23a.65.65,0,0,0-.65.65h0a.639.639,0,0,0,.19.46.67.67,0,0,0,.92,0,.661.661,0,0,0,.19-.46.681.681,0,0,0-.19-.46A.639.639,0,0,0,20.75,26.23Z" style="fill:#17306d"/><path d="M28.25,20.48a.65.65,0,0,0-.46,1.11.67.67,0,0,0,.92,0,.661.661,0,0,0,.19-.46.681.681,0,0,0-.19-.46A.639.639,0,0,0,28.25,20.48Z" style="fill:#17306d"/><path d="M33.75,11.23a.65.65,0,0,0-.65.65h0a.639.639,0,0,0,.19.46.68.68,0,0,0,.92,0,.631.631,0,0,0,.19-.46.639.639,0,0,0-.19-.46A.661.661,0,0,0,33.75,11.23Z" style="fill:#17306d"/><path d="M34,4.73a.639.639,0,0,0-.46.19.65.65,0,0,0,0,.919h0a.67.67,0,0,0,.92,0,.65.65,0,0,0,0-.919h0A.661.661,0,0,0,34,4.73Z" style="fill:#17306d"/><path d="M41.5,16.48a.65.65,0,0,0-.5,1.11.68.68,0,0,0,.92,0,.65.65,0,0,0-.46-1.11Z" style="fill:#17306d"/><path d="M52,11.73a.65.65,0,0,0-.46,1.11.68.68,0,0,0,.92,0A.65.65,0,0,0,52,11.73Z" style="fill:#17306d"/><path d="M54.75,6.23a.661.661,0,0,0-.46.19.681.681,0,0,0-.19.46.639.639,0,0,0,.19.46.68.68,0,0,0,.92,0,.639.639,0,0,0,.19-.46.681.681,0,0,0-.19-.46A.661.661,0,0,0,54.75,6.23Z" style="fill:#17306d"/><path d="M25,47a.661.661,0,0,0-.46.19.681.681,0,0,0-.19.46.661.661,0,0,0,.19.46.68.68,0,0,0,.92,0,.661.661,0,0,0,.19-.46.681.681,0,0,0-.19-.46A.661.661,0,0,0,25,47Z" style="fill:#17306d"/><path d="M35,48.23a.639.639,0,0,0-.46.19.65.65,0,0,0,0,.919h0a.68.68,0,0,0,.92,0A.65.65,0,0,0,35,48.23Z" style="fill:#17306d"/><path d="M44.75,42a.65.65,0,0,0-.46,1.11.68.68,0,0,0,.92,0,.631.631,0,0,0,.19-.46.61.61,0,0,0-.2-.46A.621.621,0,0,0,44.75,42Z" style="fill:#17306d"/><path d="M51.75,28.48a.65.65,0,0,0-.46,1.11.67.67,0,0,0,.92,0,.639.639,0,0,0,.19-.46.65.65,0,0,0-.65-.65Z" style="fill:#17306d"/><path d="M66.75,19.73a.65.65,0,0,0-.65.65h0a.61.61,0,0,0,.2.46.68.68,0,0,0,.91,0,.65.65,0,0,0-.46-1.11Z" style="fill:#17306d"/><path d="M47,23.73a.65.65,0,0,0-.46,1.11.68.68,0,0,0,.92,0A.65.65,0,0,0,47,23.73Z" style="fill:#17306d"/><path d="M36.75,27a.661.661,0,0,0-.46.19.681.681,0,0,0-.19.46.661.661,0,0,0,.19.46.68.68,0,0,0,.92,0,.661.661,0,0,0,.19-.46.681.681,0,0,0-.19-.46A.661.661,0,0,0,36.75,27Z" style="fill:#17306d"/><path d="M16.75,43a.65.65,0,0,0-.46,1.11.68.68,0,0,0,.92,0,.65.65,0,0,0,0-.919h0A.639.639,0,0,0,16.75,43Z" style="fill:#17306d"/><path d="M11,34.73a.65.65,0,0,0-.65.65h0a.639.639,0,0,0,.19.46.67.67,0,0,0,.92,0A.65.65,0,0,0,11,34.73Z" style="fill:#17306d"/><path d="M67.25,40.73a.661.661,0,0,0-.46.19.681.681,0,0,0-.19.46.661.661,0,0,0,.19.46.68.68,0,0,0,.92,0,.639.639,0,0,0,.19-.46.65.65,0,0,0-.65-.65Z" style="fill:#17306d"/><path d="M7,55.73a.61.61,0,0,0-.46.2.621.621,0,0,0-.19.45.661.661,0,0,0,.19.46.67.67,0,0,0,.92,0,.65.65,0,0,0,0-.919h0A.639.639,0,0,0,7,55.73Z" style="fill:#17306d"/><path d="M8.25,66.23a.681.681,0,0,0-.46.19.661.661,0,0,0-.19.46.639.639,0,0,0,.19.46.67.67,0,0,0,.92,0,.639.639,0,0,0,.19-.46A.65.65,0,0,0,8.25,66.23Z" style="fill:#17306d"/><path d="M3.25,69a.661.661,0,0,0-.46.19.681.681,0,0,0-.19.46.661.661,0,0,0,.19.46.68.68,0,0,0,.92,0,.661.661,0,0,0,.19-.46.681.681,0,0,0-.19-.46A.661.661,0,0,0,3.25,69Z" style="fill:#17306d"/><path d="M66.25,34.23a.65.65,0,0,0-.46,1.11.68.68,0,0,0,.92,0,.639.639,0,0,0,.19-.46.661.661,0,0,0-.19-.46A.639.639,0,0,0,66.25,34.23Z" style="fill:#17306d"/><path d="M43.75,8.48a.661.661,0,0,0-.46.19.681.681,0,0,0-.19.46.661.661,0,0,0,.19.46.67.67,0,0,0,.92,0,.661.661,0,0,0,.19-.46.681.681,0,0,0-.19-.46A.661.661,0,0,0,43.75,8.48Z" style="fill:#17306d"/><path d="M25.5,1.48a.661.661,0,0,0-.46.19.681.681,0,0,0-.19.46.661.661,0,0,0,.19.46.67.67,0,0,0,.92,0,.661.661,0,0,0,.19-.46.681.681,0,0,0-.19-.46A.661.661,0,0,0,25.5,1.48Z" style="fill:#17306d"/><path d="M21.75,29.73a.661.661,0,0,0-.46.19.65.65,0,0,0,0,.919h0a.68.68,0,0,0,.92,0,.65.65,0,0,0-.46-1.11Z" style="fill:#17306d"/><path d="M23.75,42.48a.661.661,0,0,0-.46.19.681.681,0,0,0-.19.46.661.661,0,0,0,.19.46.67.67,0,0,0,.92,0,.639.639,0,0,0,.19-.46A.65.65,0,0,0,23.75,42.48Z" style="fill:#17306d"/><path d="M41.25,37a.65.65,0,0,0-.46,1.11.68.68,0,0,0,.92,0,.661.661,0,0,0,.19-.46.681.681,0,0,0-.19-.46A.661.661,0,0,0,41.25,37Z" style="fill:#17306d"/><path d="M67.25,27.73a.661.661,0,0,0-.46.19.681.681,0,0,0-.19.46.661.661,0,0,0,.19.46.68.68,0,0,0,.92,0,.639.639,0,0,0,.19-.46.65.65,0,0,0-.65-.65Z" style="fill:#17306d"/><path d="M53,56.48a.65.65,0,0,0-.46,1.11.68.68,0,0,0,.92,0,.661.661,0,0,0,.19-.46.681.681,0,0,0-.19-.46A.661.661,0,0,0,53,56.48Z" style="fill:#17306d"/><path d="M33.75,55.48a.661.661,0,0,0-.46.19.681.681,0,0,0-.19.46.639.639,0,0,0,.19.46.68.68,0,0,0,.92,0,.639.639,0,0,0,.19-.46.65.65,0,0,0-.65-.65Z" style="fill:#17306d"/><path d="M12.5,52.23a.65.65,0,0,0-.5,1.11.67.67,0,0,0,.92,0,.65.65,0,0,0-.46-1.11Z" style="fill:#17306d"/><path d="M49.25,67a.65.65,0,0,0-.46,1.11.68.68,0,0,0,.92,0A.65.65,0,0,0,49.25,67Z" style="fill:#17306d"/><path d="M58.75,50.73a.65.65,0,0,0-.46,1.11.68.68,0,0,0,.92,0,.639.639,0,0,0,.19-.46.65.65,0,0,0-.65-.65Z" style="fill:#17306d"/><path d="M67.25,14.23a.661.661,0,0,0-.46.19.681.681,0,0,0-.19.46.661.661,0,0,0,.19.46.68.68,0,0,0,.92,0,.639.639,0,0,0,.19-.46.65.65,0,0,0-.65-.65Z" style="fill:#17306d"/><path d="M5,1.73a.639.639,0,0,0-.46.19.65.65,0,0,0,0,.919h0a.67.67,0,0,0,.92,0,.65.65,0,0,0,0-.919h0A.639.639,0,0,0,5,1.73Z" style="fill:#17306d"/><path d="M2.5,58.23a.61.61,0,0,0-.46.2.621.621,0,0,0-.19.45.662.662,0,0,0,.15.46.67.67,0,0,0,.92,0,.65.65,0,0,0,0-.919h0A.642.642,0,0,0,2.5,58.23Z" style="fill:#17306d"/><path d="M16.25,68.23a.65.65,0,0,0-.46,1.11.68.68,0,0,0,.92,0,.65.65,0,0,0-.46-1.11Z" style="fill:#17306d"/><path d="M40.25,67a.65.65,0,0,0-.46,1.11.68.68,0,0,0,.92,0,.639.639,0,0,0,.19-.46.65.65,0,0,0-.65-.65Z" style="fill:#17306d"/><path d="M2.5,39.48a.641.641,0,0,0-.5.19.65.65,0,0,0,0,.919H2a.68.68,0,0,0,.92,0,.65.65,0,0,0-.46-1.11Z" style="fill:#17306d"/><path d="M7.25,46.48a.639.639,0,0,0-.46.19.65.65,0,0,0,0,.919h0a.68.68,0,0,0,.92,0,.639.639,0,0,0,.19-.46.661.661,0,0,0-.19-.46A.639.639,0,0,0,7.25,46.48Z" style="fill:#17306d"/><path d="M3.75,24.73a.661.661,0,0,0-.46.19.681.681,0,0,0-.19.46.661.661,0,0,0,.19.46.67.67,0,0,0,.92,0,.661.661,0,0,0,.19-.46.681.681,0,0,0-.19-.46A.639.639,0,0,0,3.75,24.73Z" style="fill:#17306d"/><path d="M10.75,21a.661.661,0,0,0-.46.19.681.681,0,0,0-.19.46.639.639,0,0,0,.19.46.68.68,0,0,0,.92,0,.661.661,0,0,0,.19-.46.681.681,0,0,0-.19-.46A.661.661,0,0,0,10.75,21Z" style="fill:#17306d"/><path d="M9.75,11.73a.639.639,0,0,0-.46.19.65.65,0,0,0,0,.919h0a.68.68,0,0,0,.92,0,.65.65,0,0,0,0-.919h0A.639.639,0,0,0,9.75,11.73Z" style="fill:#17306d"/><path d="M13.25,5.73a.661.661,0,0,0-.46.19.681.681,0,0,0-.19.46.639.639,0,0,0,.19.46.67.67,0,0,0,.92,0,.661.661,0,0,0,.19-.46.681.681,0,0,0-.19-.46A.661.661,0,0,0,13.25,5.73Z" style="fill:#17306d"/><path d="M21.75,18.23a.661.661,0,0,0-.46.19.639.639,0,0,0-.19.46.6.6,0,0,0,.2.46.65.65,0,0,0,1.1-.46.681.681,0,0,0-.19-.46A.661.661,0,0,0,21.75,18.23Z" style="fill:#17306d"/><path d="M31,34a.661.661,0,0,0-.46.19.681.681,0,0,0-.19.46.661.661,0,0,0,.19.46.68.68,0,0,0,.92,0,.661.661,0,0,0,.19-.46.681.681,0,0,0-.19-.46A.661.661,0,0,0,31,34Z" style="fill:#17306d"/><path d="M25.75,37.48a.65.65,0,0,0-.46,1.11.67.67,0,0,0,.92,0,.65.65,0,0,0-.46-1.11Z" style="fill:#17306d"/><path d="M37,43a.661.661,0,0,0-.46.19.681.681,0,0,0-.19.46.661.661,0,0,0,.19.46.68.68,0,0,0,.92,0,.661.661,0,0,0,.19-.46.681.681,0,0,0-.19-.46A.661.661,0,0,0,37,43Z" style="fill:#17306d"/><path d="M61.5,55a.661.661,0,0,0-.46.19.681.681,0,0,0-.19.46.661.661,0,0,0,.19.46.68.68,0,0,0,.92,0,.639.639,0,0,0,.19-.46A.65.65,0,0,0,61.5,55Z" style="fill:#17306d"/><path d="M61,44.48a.639.639,0,0,0-.46.19.681.681,0,0,0-.19.46.661.661,0,0,0,.19.46.68.68,0,0,0,.92,0,.65.65,0,0,0,0-.919h0A.639.639,0,0,0,61,44.48Z" style="fill:#17306d"/><path d="M58.5,14.48a.661.661,0,0,0-.46.19.681.681,0,0,0-.19.46.661.661,0,0,0,.19.46.68.68,0,0,0,.92,0,.661.661,0,0,0,.19-.46.681.681,0,0,0-.19-.46A.661.661,0,0,0,58.5,14.48Z" style="fill:#17306d"/><path d="M59,27.23a.639.639,0,0,0-.46.19.65.65,0,0,0,0,.919h0a.68.68,0,0,0,.92,0,.65.65,0,0,0,0-.919h0A.639.639,0,0,0,59,27.23Z" style="fill:#17306d"/><path d="M55.5,36a.661.661,0,0,0-.46.19.681.681,0,0,0-.19.46.661.661,0,0,0,.19.46.68.68,0,0,0,.92,0,.661.661,0,0,0,.19-.46.681.681,0,0,0-.19-.46A.661.661,0,0,0,55.5,36Z" style="fill:#17306d"/><path d="M69,1a.681.681,0,0,0-.46.19.65.65,0,0,0,0,.919h0a.691.691,0,0,0,.92,0A.65.65,0,0,0,69,1Z" style="fill:#17306d"/><path d="M60.5,5.73A.65.65,0,0,0,60,6.84a.67.67,0,0,0,.92,0,.639.639,0,0,0,.19-.46.65.65,0,0,0-.65-.65h.04Z" style="fill:#17306d"/><path d="M44.25.23a.65.65,0,0,0-.46,1.11.68.68,0,0,0,.92,0A.65.65,0,0,0,44.25.23Z" style="fill:#17306d"/><path d="M24.25,70.48a.65.65,0,0,0-.65.65.639.639,0,0,0,.19.46.67.67,0,0,0,.92,0,.661.661,0,0,0,.19-.46.681.681,0,0,0-.19-.46A.639.639,0,0,0,24.25,70.48Z" style="fill:#17306d"/><path d="M-.25,48.28a.391.391,0,0,0-.25.1.391.391,0,0,0-.1.25.391.391,0,0,0,.1.25.38.38,0,0,0,.5,0,.391.391,0,0,0,.1-.25.391.391,0,0,0-.1-.25A.391.391,0,0,0-.25,48.28Z" style="fill:#17306d"/></pattern><pattern id="USGS_22_Gravel_Beach_4-3" data-name="USGS 22 Gravel Beach 4-3" width="72" height="72" patternTransform="matrix(0.88, 0, 0, -0.88, 5.97, 790.64)" patternUnits="userSpaceOnUse" viewBox="0 0 72 72"><rect width="72" height="72" style="fill:none"/><rect width="72" height="72" style="fill:none"/><path d="M72.25,14a.35.35,0,0,0-.25.6.38.38,0,0,0,.5,0,.35.35,0,0,0-.25-.6Z" style="fill:#17306d"/><path d="M20.75,68.78a.391.391,0,0,0-.25.1.347.347,0,1,0,.6.25.342.342,0,0,0-.35-.35Z" style="fill:#17306d"/><path d="M19.75,63.53a.34.34,0,0,0-.35.33v.02a.332.332,0,0,0,.11.25.369.369,0,0,0,.49,0,.363.363,0,0,0,.1-.25.391.391,0,0,0-.1-.25A.369.369,0,0,0,19.75,63.53Z" style="fill:#17306d"/><path d="M20,61.28a.35.35,0,0,0-.25.6.369.369,0,0,0,.5,0,.35.35,0,0,0-.25-.6Z" style="fill:#17306d"/><path d="M15,61.28a.34.34,0,0,0-.35.33v.02a.369.369,0,0,0,.1.25.38.38,0,0,0,.5,0,.35.35,0,0,0-.25-.6Z" style="fill:#17306d"/><path d="M22.5,51.78a.35.35,0,0,0-.25.6.36.36,0,0,0,.6-.25.34.34,0,0,0-.33-.35Z" style="fill:#17306d"/><path d="M15,48.78a.34.34,0,0,0-.35.33v.02a.332.332,0,0,0,.11.25.369.369,0,0,0,.49,0,.363.363,0,0,0,.1-.25.34.34,0,0,0-.33-.35Z" style="fill:#17306d"/><path d="M13.75,47.78a.35.35,0,0,0-.25.6.36.36,0,0,0,.6-.25.391.391,0,0,0-.1-.25A.369.369,0,0,0,13.75,47.78Z" style="fill:#17306d"/><path d="M23.75,44.78a.34.34,0,0,0-.35.33v.02a.332.332,0,0,0,.11.25.369.369,0,0,0,.49,0,.391.391,0,0,0,.1-.25.348.348,0,0,0-.1-.24A.358.358,0,0,0,23.75,44.78Z" style="fill:#17306d"/><path d="M30.5,46a.35.35,0,0,0-.25.6.36.36,0,0,0,.6-.25.34.34,0,0,0-.33-.35Z" style="fill:#17306d"/><path d="M31,48.53a.34.34,0,0,0-.35.33v.02a.332.332,0,0,0,.11.25.35.35,0,0,0,.59-.25.391.391,0,0,0-.1-.25A.369.369,0,0,0,31,48.53Z" style="fill:#17306d"/><path d="M29,53.53a.35.35,0,0,0-.25.6.36.36,0,0,0,.6-.25.34.34,0,0,0-.33-.35Z" style="fill:#17306d"/><path d="M33.75,52a.35.35,0,0,0-.25.6.36.36,0,0,0,.6-.25.34.34,0,0,0-.33-.35Z" style="fill:#17306d"/><path d="M31.25,57a.35.35,0,0,0-.25.6.36.36,0,0,0,.6-.25.34.34,0,0,0-.33-.35Z" style="fill:#17306d"/><path d="M31.5,60a.35.35,0,0,0-.25.6.369.369,0,0,0,.5,0,.35.35,0,0,0-.25-.6Z" style="fill:#17306d"/><path d="M32,64.78a.35.35,0,0,0-.25.6.36.36,0,0,0,.6-.25.34.34,0,0,0-.33-.35Z" style="fill:#17306d"/><path d="M31.75,68.78a.342.342,0,0,0-.35.35.332.332,0,0,0,.11.25.35.35,0,0,0,.59-.25.342.342,0,0,0-.35-.35Z" style="fill:#17306d"/><path d="M33.75,70.53a.358.358,0,0,0-.25.11.339.339,0,0,0,.01.49.345.345,0,0,0,.59-.25.339.339,0,0,0-.11-.25A.348.348,0,0,0,33.75,70.53Z" style="fill:#17306d"/><path d="M41.25,64.78a.391.391,0,0,0-.25.1.354.354,0,0,0-.1.25.391.391,0,0,0,.1.25.351.351,0,0,0,.49,0,.358.358,0,0,0,.11-.25.34.34,0,0,0-.33-.35Z" style="fill:#17306d"/><path d="M45.25,65a.391.391,0,0,0-.25.1.347.347,0,1,0,.6.25.34.34,0,0,0-.33-.35Z" style="fill:#17306d"/><path d="M42.25,58.28a.34.34,0,0,0-.35.33v.02a.332.332,0,0,0,.11.25.35.35,0,0,0,.59-.25.34.34,0,0,0-.33-.35Z" style="fill:#17306d"/><path d="M46.75,57.53a.34.34,0,0,0-.35.33v.02a.332.332,0,0,0,.11.25.361.361,0,0,0,.49,0,.391.391,0,0,0,.1-.25.329.329,0,0,0-.1-.24A.358.358,0,0,0,46.75,57.53Z" style="fill:#17306d"/><path d="M46.75,55.53a.34.34,0,0,0-.35.33v.02a.332.332,0,0,0,.11.25.361.361,0,0,0,.49,0,.391.391,0,0,0,.1-.25.371.371,0,0,0-.1-.24A.358.358,0,0,0,46.75,55.53Z" style="fill:#17306d"/><path d="M38.75,51a.35.35,0,0,0-.25.6.361.361,0,0,0,.49,0,.347.347,0,0,0-.22-.6Z" style="fill:#17306d"/><path d="M50,58.28a.391.391,0,0,0-.25.1.359.359,0,0,0,0,.5.369.369,0,0,0,.5,0,.35.35,0,0,0-.25-.6Z" style="fill:#17306d"/><path d="M52,59.78a.358.358,0,0,0-.25.11.348.348,0,0,0-.1.24.332.332,0,0,0,.11.25.369.369,0,0,0,.49,0,.363.363,0,0,0,.1-.25.34.34,0,0,0-.33-.35Z" style="fill:#17306d"/><path d="M54.5,60.78a.358.358,0,0,0-.25.11.348.348,0,0,0-.1.24.332.332,0,0,0,.11.25.35.35,0,0,0,.59-.25.34.34,0,0,0-.33-.35Z" style="fill:#17306d"/><path d="M56.25,71a.376.376,0,0,0-.25.63.359.359,0,0,0,.5,0,.348.348,0,0,0,.1-.24.417.417,0,0,0-.35-.39Z" style="fill:#17306d"/><path d="M67.75,68.78a.342.342,0,0,0-.35.35.332.332,0,0,0,.11.25.369.369,0,0,0,.49,0,.363.363,0,0,0,.1-.25.391.391,0,0,0-.1-.25A.369.369,0,0,0,67.75,68.78Z" style="fill:#17306d"/><path d="M67.75,61.53a.358.358,0,0,0-.25.11.348.348,0,0,0-.1.24.391.391,0,0,0,.1.25.369.369,0,0,0,.5,0,.391.391,0,0,0,.1-.25.339.339,0,0,0-.11-.25A.348.348,0,0,0,67.75,61.53Z" style="fill:#17306d"/><path d="M64,59.53a.35.35,0,0,0-.25.6.36.36,0,0,0,.6-.25.34.34,0,0,0-.33-.35Z" style="fill:#17306d"/><path d="M65,56a.34.34,0,0,0-.35.33v.02a.369.369,0,0,0,.1.25.38.38,0,0,0,.5,0A.35.35,0,0,0,65,56Z" style="fill:#17306d"/><path d="M63.75,52a.358.358,0,0,0-.25.11.348.348,0,0,0-.1.24.391.391,0,0,0,.1.25.369.369,0,0,0,.5,0,.391.391,0,0,0,.1-.25.339.339,0,0,0-.11-.25A.348.348,0,0,0,63.75,52Z" style="fill:#17306d"/><path d="M66,52a.34.34,0,0,0-.35.33v.02a.332.332,0,0,0,.11.25.369.369,0,0,0,.49,0,.363.363,0,0,0,.1-.25.34.34,0,0,0-.33-.35Z" style="fill:#17306d"/><path d="M67.75,50.53a.35.35,0,0,0-.25.6.369.369,0,0,0,.5,0,.35.35,0,0,0-.25-.6Z" style="fill:#17306d"/><path d="M6.75,19.53a.35.35,0,0,0-.25.6.38.38,0,0,0,.5,0,.35.35,0,0,0-.25-.6Z" style="fill:#17306d"/><path d="M7,17.28a.35.35,0,0,0-.25.6.369.369,0,0,0,.5,0,.35.35,0,0,0-.25-.6Z" style="fill:#17306d"/><path d="M2,17.28a.391.391,0,0,0-.25.1.359.359,0,0,0,0,.5.38.38,0,0,0,.5,0,.359.359,0,0,0,0-.5A.391.391,0,0,0,2,17.28Z" style="fill:#17306d"/><path d="M9.5,7.78a.35.35,0,0,0-.25.6.36.36,0,0,0,.6-.25.34.34,0,0,0-.33-.35Z" style="fill:#17306d"/><path d="M.75,3.78a.391.391,0,0,0-.25.1.359.359,0,0,0,0,.5.38.38,0,0,0,.5,0,.359.359,0,0,0,0-.5A.391.391,0,0,0,.75,3.78Z" style="fill:#17306d"/><path d="M10.75.78a.35.35,0,0,0-.25.6.38.38,0,0,0,.5,0,.35.35,0,0,0-.25-.6Z" style="fill:#17306d"/><path d="M18,4.53a.34.34,0,0,0-.35.33v.02a.345.345,0,0,0,.59.25.358.358,0,0,0,.11-.25.34.34,0,0,0-.33-.35Z" style="fill:#17306d"/><path d="M16,9.53a.35.35,0,0,0-.25.6.369.369,0,0,0,.5,0,.35.35,0,0,0-.25-.6Z" style="fill:#17306d"/><path d="M19.25,14a.34.34,0,0,0-.35.33v.02a.332.332,0,0,0,.11.25.369.369,0,0,0,.49,0,.363.363,0,0,0,.1-.25.34.34,0,0,0-.33-.35Z" style="fill:#17306d"/><path d="M18.5,16a.34.34,0,0,0-.35.33v.02a.332.332,0,0,0,.11.25.369.369,0,0,0,.49,0,.363.363,0,0,0,.1-.25.34.34,0,0,0-.33-.35Z" style="fill:#17306d"/><path d="M16,17a.34.34,0,0,0-.35.33v.02a.332.332,0,0,0,.11.25.369.369,0,0,0,.49,0,.363.363,0,0,0,.1-.25.34.34,0,0,0-.33-.35Z" style="fill:#17306d"/><path d="M19,20.78a.34.34,0,0,0-.35.33v.02a.332.332,0,0,0,.11.25.369.369,0,0,0,.49,0,.363.363,0,0,0,.1-.25.34.34,0,0,0-.33-.35Z" style="fill:#17306d"/><path d="M18.75,24.78a.35.35,0,0,0-.25.6.38.38,0,0,0,.5,0,.35.35,0,0,0-.25-.6Z" style="fill:#17306d"/><path d="M16,24.53a.35.35,0,0,0-.25.6.369.369,0,0,0,.5,0,.35.35,0,0,0-.25-.6Z" style="fill:#17306d"/><path d="M32.25,21a.34.34,0,0,0-.35.33v.02a.332.332,0,0,0,.11.25.35.35,0,0,0,.59-.25.34.34,0,0,0-.33-.35Z" style="fill:#17306d"/><path d="M27,17.53a.35.35,0,0,0-.25.6.369.369,0,0,0,.5,0,.35.35,0,0,0-.25-.6Z" style="fill:#17306d"/><path d="M31.75,16a.35.35,0,0,0-.25.6.369.369,0,0,0,.5,0,.35.35,0,0,0-.25-.6Z" style="fill:#17306d"/><path d="M31.75,14.28a.35.35,0,0,0-.245.6l.005.005a.369.369,0,0,0,.5,0,.363.363,0,0,0,.1-.25.34.34,0,0,0-.33-.35h-.03Z" style="fill:#17306d"/><path d="M33.75,13.53a.35.35,0,0,0-.25.6.369.369,0,0,0,.5,0,.35.35,0,0,0-.25-.6Z" style="fill:#17306d"/><path d="M25.75,7a.35.35,0,0,0-.25.6.36.36,0,0,0,.6-.25A.34.34,0,0,0,25.77,7Z" style="fill:#17306d"/><path d="M35.75,15.53a.35.35,0,0,0-.25.6.36.36,0,0,0,.6-.25.34.34,0,0,0-.33-.35Z" style="fill:#17306d"/><path d="M39,15.78a.348.348,0,0,0-.24.1.358.358,0,0,0-.11.25.391.391,0,0,0,.1.25.369.369,0,0,0,.5,0,.35.35,0,0,0-.25-.6Z" style="fill:#17306d"/><path d="M41.5,21a.35.35,0,0,0-.25.6.369.369,0,0,0,.5,0,.35.35,0,0,0-.25-.6Z" style="fill:#17306d"/><path d="M43.25,27a.358.358,0,0,0-.25.11.348.348,0,0,0-.1.24.391.391,0,0,0,.1.25.369.369,0,0,0,.5,0,.35.35,0,0,0-.25-.6Z" style="fill:#17306d"/><path d="M50.75,21.28a.391.391,0,0,0-.25.1.363.363,0,0,0-.1.25.391.391,0,0,0,.1.25.359.359,0,0,0,.5,0,.35.35,0,0,0-.25-.6Z" style="fill:#17306d"/><path d="M51.75,25.28a.358.358,0,0,0-.25.11.348.348,0,0,0-.1.24.332.332,0,0,0,.11.25.369.369,0,0,0,.49,0,.363.363,0,0,0,.1-.25.34.34,0,0,0-.33-.35Z" style="fill:#17306d"/><path d="M54.75,24.78a.332.332,0,0,0-.25.11.348.348,0,0,0-.1.24.369.369,0,0,0,.1.25.361.361,0,0,0,.49,0,.347.347,0,0,0-.22-.6Z" style="fill:#17306d"/><path d="M54.75,17.53a.332.332,0,0,0-.25.11.348.348,0,0,0-.1.24.332.332,0,0,0,.11.25.369.369,0,0,0,.49,0,.363.363,0,0,0,.1-.25.34.34,0,0,0-.33-.35Z" style="fill:#17306d"/><path d="M51,15.53a.35.35,0,0,0-.25.6.369.369,0,0,0,.5,0,.354.354,0,0,0,.1-.25.391.391,0,0,0-.1-.25A.369.369,0,0,0,51,15.53Z" style="fill:#17306d"/><path d="M50.75,8a.34.34,0,0,0-.35.33v.02a.31.31,0,0,0,.1.24.341.341,0,0,0,.481.009l.009-.009a.358.358,0,0,0,.11-.25.391.391,0,0,0-.1-.25A.368.368,0,0,0,50.75,8Z" style="fill:#17306d"/><path d="M53,8a.34.34,0,0,0-.35.33v.02a.332.332,0,0,0,.11.25.361.361,0,0,0,.49,0,.31.31,0,0,0,.1-.24A.341.341,0,0,0,53.031,8Z" style="fill:#17306d"/><path d="M55.75,8.78a.35.35,0,0,0-.25.6.36.36,0,0,0,.6-.25.34.34,0,0,0-.33-.35Z" style="fill:#17306d"/><path d="M58,10.28a.358.358,0,0,0-.25.11.348.348,0,0,0-.1.24.391.391,0,0,0,.1.25.35.35,0,0,0,.6-.25.34.34,0,0,0-.33-.35Z" style="fill:#17306d"/><path d="M20.75,44.78a.35.35,0,0,0-.25.6.36.36,0,0,0,.6-.25.34.34,0,0,0-.33-.35Z" style="fill:#17306d"/><path d="M22.5,47.78a.35.35,0,0,0-.25.6.369.369,0,0,0,.5,0,.35.35,0,0,0-.25-.6Z" style="fill:#17306d"/><path d="M38.75,47a.35.35,0,0,0-.25.6.369.369,0,0,0,.5,0,.35.35,0,0,0-.25-.6Z" style="fill:#17306d"/><path d="M46,42.78a.391.391,0,0,0-.25.1.351.351,0,0,0,0,.49.341.341,0,0,0,.481.009l.009-.009a.358.358,0,0,0,.11-.25.34.34,0,0,0-.33-.35H46Z" style="fill:#17306d"/><path d="M55,43.78a.35.35,0,0,0-.25.6.369.369,0,0,0,.5,0,.35.35,0,0,0-.25-.6Z" style="fill:#17306d"/><path d="M51,46.53a.35.35,0,0,0-.25.6.369.369,0,0,0,.5,0,.354.354,0,0,0,.1-.25.34.34,0,0,0-.33-.35Z" style="fill:#17306d"/><path d="M51.75,42.28a.369.369,0,0,0-.25.1.347.347,0,1,0,.6.25.34.34,0,0,0-.33-.35Z" style="fill:#17306d"/><path d="M62.25,36.28a.34.34,0,0,0-.35.33v.02a.332.332,0,0,0,.11.25.361.361,0,0,0,.49,0,.31.31,0,0,0,.1-.24.34.34,0,0,0-.33-.35h-.02Z" style="fill:#17306d"/><path d="M56.5,32.78a.35.35,0,0,0-.25.6.36.36,0,0,0,.6-.25.34.34,0,0,0-.33-.35Z" style="fill:#17306d"/><path d="M48,34.53a.348.348,0,0,0-.24.1.358.358,0,0,0-.11.25.391.391,0,0,0,.1.25.359.359,0,0,0,.5,0,.329.329,0,0,0,.1-.24.34.34,0,0,0-.33-.35H48Z" style="fill:#17306d"/><path d="M47.75,30.53a.332.332,0,0,0-.25.11.348.348,0,0,0-.1.24.391.391,0,0,0,.1.25.38.38,0,0,0,.5,0,.35.35,0,0,0-.25-.6Z" style="fill:#17306d"/><path d="M53.25,26.78a.339.339,0,0,0-.25.11.31.31,0,0,0-.1.24.339.339,0,0,0,.11.25.369.369,0,0,0,.49,0,.35.35,0,0,0-.25-.6Z" style="fill:#17306d"/><path d="M62,23.78a.34.34,0,0,0-.35.33v.02a.332.332,0,0,0,.11.25.361.361,0,0,0,.49,0,.31.31,0,0,0,.1-.24.34.34,0,0,0-.33-.35H62Z" style="fill:#17306d"/><path d="M64.75,20a.34.34,0,0,0-.35.33v.02a.332.332,0,0,0,.11.25.369.369,0,0,0,.49,0,.363.363,0,0,0,.1-.25.34.34,0,0,0-.33-.35Z" style="fill:#17306d"/><path d="M69.25,26.78a.35.35,0,0,0-.25.6.369.369,0,0,0,.5,0,.35.35,0,0,0-.25-.6Z" style="fill:#17306d"/><path d="M59.75,32.78a.332.332,0,0,0-.25.11.348.348,0,0,0-.1.24.339.339,0,0,0,.11.25.35.35,0,0,0,.49-.5A.369.369,0,0,0,59.75,32.78Z" style="fill:#17306d"/><path d="M32.25,24.78a.35.35,0,0,0-.25.6.36.36,0,0,0,.6-.25.34.34,0,0,0-.33-.35Z" style="fill:#17306d"/><path d="M26,34a.35.35,0,0,0-.25.6.36.36,0,0,0,.6-.25.34.34,0,0,0-.33-.35Z" style="fill:#17306d"/><path d="M29.5,36.28a.348.348,0,0,0-.24.1.358.358,0,0,0-.11.25.332.332,0,0,0,.11.25.369.369,0,0,0,.49,0,.363.363,0,0,0,.1-.25.34.34,0,0,0-.33-.35Z" style="fill:#17306d"/><path d="M10.25,42.28a.35.35,0,0,0-.25.6.369.369,0,0,0,.49,0,.332.332,0,0,0,.11-.25.34.34,0,0,0-.33-.35Z" style="fill:#17306d"/><path d="M5.75,40.28a.35.35,0,0,0-.25.6.361.361,0,0,0,.49,0,.332.332,0,0,0,.11-.25.369.369,0,0,0-.1-.25A.391.391,0,0,0,5.75,40.28Z" style="fill:#17306d"/><path d="M2.25,36.53a.391.391,0,0,0-.25.1.359.359,0,0,0,0,.5.369.369,0,0,0,.5,0,.354.354,0,0,0,.1-.25.329.329,0,0,0-.1-.24A.358.358,0,0,0,2.25,36.53Z" style="fill:#17306d"/><path d="M16.75,29.78a.34.34,0,0,0-.35.33v.02a.332.332,0,0,0,.11.25.35.35,0,0,0,.59-.25.391.391,0,0,0-.1-.25A.369.369,0,0,0,16.75,29.78Z" style="fill:#17306d"/><path d="M12.5,35.78a.34.34,0,0,0-.35.33v.02a.332.332,0,0,0,.11.25.369.369,0,0,0,.49,0,.363.363,0,0,0,.1-.25.391.391,0,0,0-.1-.25A.369.369,0,0,0,12.5,35.78Z" style="fill:#17306d"/><path d="M26.25,41.53a.35.35,0,0,0-.25.6.369.369,0,0,0,.5,0,.35.35,0,0,0-.25-.6Z" style="fill:#17306d"/><path d="M39,41a.35.35,0,0,0-.25.6.369.369,0,0,0,.5,0,.359.359,0,0,0,0-.5A.369.369,0,0,0,39,41Z" style="fill:#17306d"/><path d="M38,39a.35.35,0,0,0-.25.6.369.369,0,0,0,.5,0A.35.35,0,0,0,38,39Z" style="fill:#17306d"/><path d="M27.75,29.78a.35.35,0,0,0-.25.6.369.369,0,0,0,.5,0,.35.35,0,0,0-.25-.6Z" style="fill:#17306d"/><path d="M6.25,51.28a.35.35,0,0,0-.25.6.369.369,0,0,0,.5,0,.35.35,0,0,0-.25-.6Z" style="fill:#17306d"/><path d="M9.5,53a.35.35,0,0,0-.25.6.36.36,0,0,0,.6-.25A.34.34,0,0,0,9.52,53Z" style="fill:#17306d"/><path d="M11.5,48.28a.34.34,0,0,0-.35.33v.02a.332.332,0,0,0,.11.25.369.369,0,0,0,.49,0,.363.363,0,0,0,.1-.25.391.391,0,0,0-.1-.25A.369.369,0,0,0,11.5,48.28Z" style="fill:#17306d"/><path d="M2.75,46a.391.391,0,0,0-.25.1.359.359,0,0,0,0,.5.38.38,0,0,0,.5,0,.359.359,0,0,0,0-.5A.391.391,0,0,0,2.75,46Z" style="fill:#17306d"/><path d="M64,42.28a.348.348,0,0,0-.24.1.358.358,0,0,0-.11.25.391.391,0,0,0,.1.25.36.36,0,0,0,.6-.25.34.34,0,0,0-.33-.35Z" style="fill:#17306d"/><path d="M69.25,42a.34.34,0,0,0-.35.33v.02a.339.339,0,0,0,.11.25.369.369,0,0,0,.49,0,.363.363,0,0,0,.1-.25.391.391,0,0,0-.1-.25A.369.369,0,0,0,69.25,42Z" style="fill:#17306d"/><path d="M1.25,62.78a.391.391,0,0,0-.25.1.359.359,0,0,0,0,.5.38.38,0,0,0,.5,0,.359.359,0,0,0,0-.5A.391.391,0,0,0,1.25,62.78Z" style="fill:#17306d"/><path d="M16.25,65.78a.34.34,0,0,0-.35.33v.02a.369.369,0,0,0,.1.25.38.38,0,0,0,.5,0,.35.35,0,0,0-.25-.6Z" style="fill:#17306d"/><path d="M3.5,65.78a.35.35,0,0,0-.25.6.36.36,0,0,0,.6-.25.34.34,0,0,0-.33-.35Z" style="fill:#17306d"/><path d="M12.5,57.53a.35.35,0,0,0-.25.6.36.36,0,0,0,.6-.25.34.34,0,0,0-.33-.35Z" style="fill:#17306d"/><path d="M18.25,52.53a.34.34,0,0,0-.35.33v.02a.369.369,0,0,0,.1.25.36.36,0,0,0,.6-.25.34.34,0,0,0-.33-.35Z" style="fill:#17306d"/><path d="M21,34.78a.34.34,0,0,0-.35.33v.02a.345.345,0,0,0,.59.25.358.358,0,0,0,.11-.25.34.34,0,0,0-.33-.35Z" style="fill:#17306d"/><path d="M.5,27.53a.391.391,0,0,0-.25.1.391.391,0,0,0-.1.25.332.332,0,0,0,.11.25.369.369,0,0,0,.49,0,.363.363,0,0,0,.1-.25.391.391,0,0,0-.1-.25A.391.391,0,0,0,.5,27.53Z" style="fill:#17306d"/><path d="M67.75,5.78a.34.34,0,0,0-.35.33v.02a.332.332,0,0,0,.11.25.369.369,0,0,0,.49,0,.363.363,0,0,0,.1-.25.34.34,0,0,0-.33-.35Z" style="fill:#17306d"/><path d="M59.5,2a.391.391,0,0,0-.25.1.354.354,0,0,0-.1.25.391.391,0,0,0,.1.25.369.369,0,0,0,.5,0,.363.363,0,0,0,.1-.25.369.369,0,0,0-.1-.25A.391.391,0,0,0,59.5,2Z" style="fill:#17306d"/><path d="M40.25,3.78a.35.35,0,0,0-.25.6.369.369,0,0,0,.5,0,.359.359,0,0,0,0-.5A.369.369,0,0,0,40.25,3.78Z" style="fill:#17306d"/><path d="M4.25,11.78a.35.35,0,0,0-.25.6.36.36,0,0,0,.6-.25.34.34,0,0,0-.33-.35Z" style="fill:#17306d"/><path d="M26.25,12.28a.35.35,0,0,0-.25.6.36.36,0,0,0,.6-.25.34.34,0,0,0-.33-.35Z" style="fill:#17306d"/><path d="M37,23.28a.34.34,0,0,0-.35.33v.02a.35.35,0,0,0,.6.25.359.359,0,0,0,0-.5A.369.369,0,0,0,37,23.28Z" style="fill:#17306d"/><path d="M8.5,31.53a.35.35,0,0,0-.25.6.36.36,0,0,0,.6-.25.34.34,0,0,0-.33-.35Z" style="fill:#17306d"/><path d="M52,33.78a.358.358,0,0,0-.25.11.348.348,0,0,0-.1.24.332.332,0,0,0,.11.25.369.369,0,0,0,.49,0,.363.363,0,0,0,.1-.25.34.34,0,0,0-.33-.35Z" style="fill:#17306d"/><path d="M60.5,25.78a.34.34,0,0,0-.35.33v.02a.332.332,0,0,0,.11.25.369.369,0,0,0,.49,0,.363.363,0,0,0,.1-.25.34.34,0,0,0-.33-.35Z" style="fill:#17306d"/><path d="M51,5.53a.35.35,0,0,0-.25.6.369.369,0,0,0,.5,0,.391.391,0,0,0,.1-.25.354.354,0,0,0-.1-.25A.391.391,0,0,0,51,5.53Z" style="fill:#17306d"/><path d="M39.75,34a.35.35,0,0,0-.25.6.36.36,0,0,0,.6-.25.34.34,0,0,0-.33-.35Z" style="fill:#17306d"/><path d="M27.25,58.28a.35.35,0,0,0-.25.6.36.36,0,0,0,.6-.25.34.34,0,0,0-.33-.35Z" style="fill:#17306d"/><path d="M19.5,45.28a.34.34,0,0,0-.35.33v.02a.345.345,0,0,0,.59.25.358.358,0,0,0,.11-.25.34.34,0,0,0-.33-.35Z" style="fill:#17306d"/><path d="M11.5,70a.354.354,0,0,0-.25.6.38.38,0,0,0,.5,0,.35.35,0,0,0-.25-.6Z" style="fill:#17306d"/><path d="M55,68a.34.34,0,0,0-.35.33v.02a.332.332,0,0,0,.11.25.369.369,0,0,0,.49,0,.363.363,0,0,0,.1-.25.34.34,0,0,0-.33-.35Z" style="fill:#17306d"/><path d="M47,2a.391.391,0,0,0-.25.1.369.369,0,0,0-.1.25.391.391,0,0,0,.1.25.36.36,0,0,0,.6-.25A.34.34,0,0,0,47.02,2Z" style="fill:#17306d"/><path d="M4.5,31.53a.34.34,0,0,0-.35.33v.02a.332.332,0,0,0,.11.25.369.369,0,0,0,.49,0,.363.363,0,0,0,.1-.25.34.34,0,0,0-.33-.35Z" style="fill:#17306d"/><path d="M68.5,58.53a.35.35,0,0,0-.25.6.369.369,0,0,0,.5,0,.359.359,0,0,0,0-.5A.391.391,0,0,0,68.5,58.53Z" style="fill:#17306d"/><path d="M23,57.78a.35.35,0,0,0-.25.6.36.36,0,0,0,.6-.25.34.34,0,0,0-.33-.35Z" style="fill:#17306d"/><path d="M20.25,54.53a.35.35,0,0,0-.25.6.369.369,0,0,0,.5,0,.35.35,0,0,0-.25-.6Z" style="fill:#17306d"/><path d="M14.5,54.53a.34.34,0,0,0-.35.33v.02a.332.332,0,0,0,.11.25.369.369,0,0,0,.49,0,.363.363,0,0,0,.1-.25.34.34,0,0,0-.33-.35Z" style="fill:#17306d"/><path d="M5.75,60a.35.35,0,0,0-.25.6.361.361,0,0,0,.49,0,.332.332,0,0,0,.11-.25A.34.34,0,0,0,5.77,60Z" style="fill:#17306d"/><path d="M6.75,69a.371.371,0,0,0-.24.1.358.358,0,0,0-.11.25.391.391,0,0,0,.1.25.36.36,0,0,0,.6-.25A.342.342,0,0,0,6.75,69Z" style="fill:#17306d"/><path d="M9.75,63.53a.35.35,0,0,0-.25.6.36.36,0,0,0,.6-.25.34.34,0,0,0-.33-.35Z" style="fill:#17306d"/><path d="M14,63.53a.34.34,0,0,0-.35.33v.02a.332.332,0,0,0,.11.25.369.369,0,0,0,.49,0,.363.363,0,0,0,.1-.25.34.34,0,0,0-.33-.35Z" style="fill:#17306d"/><path d="M25.5,64.78a.35.35,0,0,0-.25.6.36.36,0,0,0,.6-.25.34.34,0,0,0-.33-.35Z" style="fill:#17306d"/><path d="M36.75,64.28a.35.35,0,0,0-.25.6.369.369,0,0,0,.5,0,.35.35,0,0,0-.25-.6Z" style="fill:#17306d"/><path d="M37.25,67.53a.34.34,0,0,0-.35.33v.02a.329.329,0,0,0,.1.25.35.35,0,0,0,.59-.25.34.34,0,0,0-.33-.35h-.01Z" style="fill:#17306d"/><path d="M43,69.53a.354.354,0,0,0-.25.6.369.369,0,0,0,.5,0,.362.362,0,0,0,0-.5A.419.419,0,0,0,43,69.53Z" style="fill:#17306d"/><path d="M49.25,63.53a.391.391,0,0,0-.25.1.359.359,0,0,0,0,.5.369.369,0,0,0,.5,0,.35.35,0,0,0-.25-.6Z" style="fill:#17306d"/><path d="M45.75,62.53a.35.35,0,0,0-.25.6.369.369,0,0,0,.5,0,.359.359,0,0,0,0-.5A.369.369,0,0,0,45.75,62.53Z" style="fill:#17306d"/><path d="M35.5,60.78a.34.34,0,0,0-.35.33v.02a.369.369,0,0,0,.1.25.36.36,0,0,0,.6-.25.34.34,0,0,0-.33-.35Z" style="fill:#17306d"/><path d="M39,56.78a.35.35,0,0,0-.25.6.36.36,0,0,0,.6-.25.34.34,0,0,0-.33-.35Z" style="fill:#17306d"/><path d="M24.5,53.78a.35.35,0,0,0-.25.6.36.36,0,0,0,.6-.25.34.34,0,0,0-.33-.35Z" style="fill:#17306d"/><path d="M8,44.53a.35.35,0,0,0-.25.6.36.36,0,0,0,.6-.25.34.34,0,0,0-.33-.35Z" style="fill:#17306d"/><path d="M15.75,40a.35.35,0,0,0-.25.6.38.38,0,0,0,.5,0,.35.35,0,0,0-.25-.6Z" style="fill:#17306d"/><path d="M10.25,38.28a.34.34,0,0,0-.35.33v.02a.332.332,0,0,0,.11.25.369.369,0,0,0,.49,0,.363.363,0,0,0,.1-.25.369.369,0,0,0-.1-.25A.391.391,0,0,0,10.25,38.28Z" style="fill:#17306d"/><path d="M5,34.78a.35.35,0,0,0-.25.6.38.38,0,0,0,.5,0,.369.369,0,0,0,.1-.25.34.34,0,0,0-.33-.35Z" style="fill:#17306d"/><path d="M3,51.28a.391.391,0,0,0-.25.1.359.359,0,0,0,0,.5.38.38,0,0,0,.5,0,.359.359,0,0,0,0-.5A.391.391,0,0,0,3,51.28Z" style="fill:#17306d"/><path d="M20.25,41a.34.34,0,0,0-.35.33v.02a.332.332,0,0,0,.11.25.35.35,0,0,0,.59-.25.34.34,0,0,0-.33-.35Z" style="fill:#17306d"/><path d="M17.25,36.28a.35.35,0,0,0-.25.6.369.369,0,0,0,.5,0,.35.35,0,0,0-.25-.6Z" style="fill:#17306d"/><path d="M15.75,32.78a.34.34,0,0,0-.35.33v.02a.332.332,0,0,0,.11.25.369.369,0,0,0,.49,0,.363.363,0,0,0,.1-.25.391.391,0,0,0-.1-.25A.369.369,0,0,0,15.75,32.78Z" style="fill:#17306d"/><path d="M12.5,30.53a.34.34,0,0,0-.35.33v.02a.332.332,0,0,0,.11.25.369.369,0,0,0,.49,0,.363.363,0,0,0,.1-.25.34.34,0,0,0-.33-.35Z" style="fill:#17306d"/><path d="M12.5,25.28a.34.34,0,0,0-.35.33v.02a.332.332,0,0,0,.11.25.369.369,0,0,0,.49,0,.363.363,0,0,0,.1-.25.34.34,0,0,0-.33-.35Z" style="fill:#17306d"/><path d="M5.5,23.28a.35.35,0,0,0-.25.6.38.38,0,0,0,.5,0,.35.35,0,0,0-.25-.6Z" style="fill:#17306d"/><path d="M10.75,17.28a.35.35,0,0,0-.25.6.38.38,0,0,0,.5,0,.35.35,0,0,0-.25-.6Z" style="fill:#17306d"/><path d="M15.25,13.28a.35.35,0,0,0-.25.6.369.369,0,0,0,.5,0,.35.35,0,0,0-.25-.6Z" style="fill:#17306d"/><path d="M5.75,8.28a.35.35,0,0,0-.25.6.38.38,0,0,0,.5,0,.363.363,0,0,0,.1-.25.34.34,0,0,0-.33-.35Z" style="fill:#17306d"/><path d="M2,9.78a.391.391,0,0,0-.25.1.359.359,0,0,0,0,.5.369.369,0,0,0,.49,0,.339.339,0,0,0,.11-.25.391.391,0,0,0-.1-.25A.391.391,0,0,0,2,9.78Z" style="fill:#17306d"/><path d="M8.75,3.78a.35.35,0,0,0-.25.6.36.36,0,0,0,.6-.25A.391.391,0,0,0,9,3.88.369.369,0,0,0,8.75,3.78Z" style="fill:#17306d"/><path d="M13.25,2.28a.35.35,0,0,0-.25.6.38.38,0,0,0,.5,0,.35.35,0,0,0-.25-.6Z" style="fill:#17306d"/><path d="M21.25,3.28a.34.34,0,0,0-.35.33v.02a.332.332,0,0,0,.11.25.35.35,0,0,0,.59-.25.34.34,0,0,0-.33-.35Z" style="fill:#17306d"/><path d="M22.75,6a.35.35,0,0,0-.25.6.369.369,0,0,0,.5,0,.359.359,0,0,0,0-.5A.369.369,0,0,0,22.75,6Z" style="fill:#17306d"/><path d="M22,11.78a.35.35,0,0,0-.25.6.38.38,0,0,0,.5,0,.359.359,0,0,0,0-.5A.369.369,0,0,0,22,11.78Z" style="fill:#17306d"/><path d="M24,14.28a.34.34,0,0,0-.35.33v.02a.369.369,0,0,0,.1.25.38.38,0,0,0,.5,0,.369.369,0,0,0,.1-.25.391.391,0,0,0-.1-.25A.369.369,0,0,0,24,14.28Z" style="fill:#17306d"/><path d="M26,24a.35.35,0,0,0-.25.6.369.369,0,0,0,.5,0A.35.35,0,0,0,26,24Z" style="fill:#17306d"/><path d="M25.5,28.28a.35.35,0,0,0-.25.6.369.369,0,0,0,.5,0,.35.35,0,0,0-.25-.6Z" style="fill:#17306d"/><path d="M32,40.78a.34.34,0,0,0-.35.33v.02a.332.332,0,0,0,.11.25.35.35,0,0,0,.59-.25.34.34,0,0,0-.33-.35Z" style="fill:#17306d"/><path d="M34,44a.34.34,0,0,0-.35.33v.02a.354.354,0,0,0,.1.25.369.369,0,0,0,.5,0,.359.359,0,0,0,0-.5A.369.369,0,0,0,34,44Z" style="fill:#17306d"/><path d="M41.5,46a.35.35,0,0,0-.25.6.369.369,0,0,0,.5,0,.35.35,0,0,0-.25-.6Z" style="fill:#17306d"/><path d="M42.75,51a.358.358,0,0,0-.25.11.329.329,0,0,0-.1.24.391.391,0,0,0,.1.25.369.369,0,0,0,.5,0,.391.391,0,0,0,.1-.25.339.339,0,0,0-.11-.25A.348.348,0,0,0,42.75,51Z" style="fill:#17306d"/><path d="M36.25,52.53a.391.391,0,0,0-.25.1.363.363,0,0,0-.1.25.31.31,0,0,0,.1.24.35.35,0,0,0,.495.005l.005-.005a.35.35,0,0,0-.25-.6Z" style="fill:#17306d"/><path d="M27.5,49.53a.35.35,0,0,0-.25.6.369.369,0,0,0,.5,0,.35.35,0,0,0-.25-.6Z" style="fill:#17306d"/><path d="M51.75,49.78a.332.332,0,0,0-.25.11.348.348,0,0,0-.1.24.391.391,0,0,0,.1.25.36.36,0,0,0,.6-.25.391.391,0,0,0-.1-.25A.369.369,0,0,0,51.75,49.78Z" style="fill:#17306d"/><path d="M43,54a.369.369,0,0,0-.25.1.359.359,0,0,0,0,.5.38.38,0,0,0,.5,0A.35.35,0,0,0,43,54Z" style="fill:#17306d"/><path d="M50.25,53.78a.369.369,0,0,0-.25.1.347.347,0,1,0,.6.25.34.34,0,0,0-.33-.35Z" style="fill:#17306d"/><path d="M59.25,54.53a.34.34,0,0,0-.35.33v.02a.332.332,0,0,0,.11.25.369.369,0,0,0,.49,0,.363.363,0,0,0,.1-.25.34.34,0,0,0-.33-.35Z" style="fill:#17306d"/><path d="M58,57.78a.369.369,0,0,0-.25.1.347.347,0,1,0,.6.25.34.34,0,0,0-.33-.35Z" style="fill:#17306d"/><path d="M61.25,60.78a.34.34,0,0,0-.35.33v.02a.332.332,0,0,0,.11.25.361.361,0,0,0,.49,0,.31.31,0,0,0,.1-.24.34.34,0,0,0-.33-.35h-.02Z" style="fill:#17306d"/><path d="M58.5,64.28a.391.391,0,0,0-.25.1.354.354,0,0,0-.1.25.31.31,0,0,0,.1.24.35.35,0,0,0,.6-.24.34.34,0,0,0-.33-.35Z" style="fill:#17306d"/><path d="M59.75,67a.339.339,0,0,0-.25.11.348.348,0,0,0-.1.24.332.332,0,0,0,.11.25.369.369,0,0,0,.49,0,.363.363,0,0,0,.1-.25.34.34,0,0,0-.33-.35Z" style="fill:#17306d"/><path d="M67.25,65.78a.391.391,0,0,0-.25.1.363.363,0,0,0-.1.25.369.369,0,0,0,.1.25.38.38,0,0,0,.5,0,.35.35,0,0,0-.25-.6Z" style="fill:#17306d"/><path d="M70.5,63.28a.391.391,0,0,0-.25.1.363.363,0,0,0-.1.25.345.345,0,0,0,.59.25.358.358,0,0,0,.11-.25.34.34,0,0,0-.33-.35Z" style="fill:#17306d"/><path d="M65.5,62a.34.34,0,0,0-.35.33v.02a.369.369,0,0,0,.1.25.38.38,0,0,0,.5,0,.35.35,0,0,0-.25-.6Z" style="fill:#17306d"/><path d="M60,48a.35.35,0,0,0-.25.6.369.369,0,0,0,.5,0A.35.35,0,0,0,60,48Z" style="fill:#17306d"/><path d="M55.25,48a.35.35,0,0,0-.25.6.38.38,0,0,0,.5,0,.35.35,0,0,0-.25-.6Z" style="fill:#17306d"/><path d="M55.25,53a.339.339,0,0,0-.25.11.348.348,0,0,0-.1.24.332.332,0,0,0,.11.25.369.369,0,0,0,.49,0,.363.363,0,0,0,.1-.25.34.34,0,0,0-.33-.35Z" style="fill:#17306d"/><path d="M64.75,46a.34.34,0,0,0-.35.33v.02a.332.332,0,0,0,.11.25.369.369,0,0,0,.49,0,.363.363,0,0,0,.1-.25.34.34,0,0,0-.33-.35Z" style="fill:#17306d"/><path d="M57.5,41a.332.332,0,0,0-.25.11.348.348,0,0,0-.1.24.332.332,0,0,0,.11.25.369.369,0,0,0,.49,0,.363.363,0,0,0,.1-.25.34.34,0,0,0-.33-.35Z" style="fill:#17306d"/><path d="M52.5,39a.358.358,0,0,0-.25.11.348.348,0,0,0-.1.24.332.332,0,0,0,.11.25.369.369,0,0,0,.49,0,.363.363,0,0,0,.1-.25.34.34,0,0,0-.33-.35Z" style="fill:#17306d"/><path d="M47.25,38a.358.358,0,0,0-.25.11.348.348,0,0,0-.1.24.332.332,0,0,0,.11.25.369.369,0,0,0,.49,0,.363.363,0,0,0,.1-.25.34.34,0,0,0-.33-.35Z" style="fill:#17306d"/><path d="M44,32.53a.358.358,0,0,0-.25.11.348.348,0,0,0-.1.24.391.391,0,0,0,.1.25.35.35,0,0,0,.6-.25.332.332,0,0,0-.11-.25A.348.348,0,0,0,44,32.53Z" style="fill:#17306d"/><path d="M33.75,30.28a.35.35,0,0,0-.25.6.369.369,0,0,0,.5,0,.35.35,0,0,0-.25-.6Z" style="fill:#17306d"/><path d="M40.5,23.78a.35.35,0,0,0-.25.6.361.361,0,0,0,.49,0,.347.347,0,0,0-.22-.6Z" style="fill:#17306d"/><path d="M45.5,19.53a.34.34,0,0,0-.35.33v.02a.332.332,0,0,0,.11.25.35.35,0,0,0,.59-.25.34.34,0,0,0-.33-.35Z" style="fill:#17306d"/><path d="M46.25,15a.35.35,0,1,0,.24.6.358.358,0,0,0,.11-.25.34.34,0,0,0-.33-.35Z" style="fill:#17306d"/><path d="M41.75,12.28a.348.348,0,0,0-.24.1.358.358,0,0,0-.11.25.391.391,0,0,0,.1.25.369.369,0,0,0,.5,0,.35.35,0,0,0-.25-.6Z" style="fill:#17306d"/><path d="M39.75,9a.35.35,0,0,0-.25.6.369.369,0,0,0,.5,0,.359.359,0,0,0,0-.5A.369.369,0,0,0,39.75,9Z" style="fill:#17306d"/><path d="M35.75,9a.34.34,0,0,0-.35.33v.02a.332.332,0,0,0,.11.25.35.35,0,0,0,.59-.25A.34.34,0,0,0,35.77,9Z" style="fill:#17306d"/><path d="M36.25,19a.391.391,0,0,0-.25.1.354.354,0,0,0-.1.25.391.391,0,0,0,.1.25.359.359,0,0,0,.5,0,.31.31,0,0,0,.1-.24.34.34,0,0,0-.33-.35h-.02Z" style="fill:#17306d"/><path d="M29.75,8.28a.348.348,0,0,0-.24.1.358.358,0,0,0-.11.25.332.332,0,0,0,.11.25.369.369,0,0,0,.49,0,.363.363,0,0,0,.1-.25.34.34,0,0,0-.33-.35Z" style="fill:#17306d"/><path d="M31.25,3.28a.35.35,0,0,0-.25.6.369.369,0,0,0,.5,0,.35.35,0,0,0-.25-.6Z" style="fill:#17306d"/><path d="M36.75.78a.391.391,0,0,0-.25.1.369.369,0,0,0-.1.25.332.332,0,0,0,.11.25.369.369,0,0,0,.49,0,.363.363,0,0,0,.1-.25A.369.369,0,0,0,37,.88.391.391,0,0,0,36.75.78Z" style="fill:#17306d"/><path d="M62.75,14.78a.34.34,0,0,0-.35.33v.02a.332.332,0,0,0,.11.25.369.369,0,0,0,.49,0,.363.363,0,0,0,.1-.25.34.34,0,0,0-.33-.35Z" style="fill:#17306d"/><path d="M59.75,21a.332.332,0,0,0-.25.11.347.347,0,0,0,.49.49.358.358,0,0,0,.11-.25.391.391,0,0,0-.1-.25A.369.369,0,0,0,59.75,21Z" style="fill:#17306d"/><path d="M54.25,21.28a.391.391,0,0,0-.25.1.369.369,0,0,0-.1.25.35.35,0,1,0,.6-.24A.339.339,0,0,0,54.25,21.28Z" style="fill:#17306d"/><path d="M54.5,30a.358.358,0,0,0-.25.11.329.329,0,0,0-.1.24.391.391,0,0,0,.1.25.369.369,0,0,0,.5,0,.391.391,0,0,0,.1-.25.339.339,0,0,0-.11-.25A.348.348,0,0,0,54.5,30Z" style="fill:#17306d"/><path d="M62.25,29.53a.35.35,0,0,0-.25.6.369.369,0,0,0,.5,0,.35.35,0,0,0-.25-.6Z" style="fill:#17306d"/><path d="M66.75,24.28a.348.348,0,0,0-.24.1.358.358,0,0,0-.11.25.391.391,0,0,0,.1.25.361.361,0,0,0,.49,0,.319.319,0,0,0,.11-.25.34.34,0,0,0-.33-.35Z" style="fill:#17306d"/><path d="M69.25,17.53a.348.348,0,0,0-.24.1.358.358,0,0,0-.11.25.391.391,0,0,0,.1.25.36.36,0,0,0,.6-.25.34.34,0,0,0-.33-.35Z" style="fill:#17306d"/><path d="M63.25,10a.348.348,0,0,0-.24.1.358.358,0,0,0-.11.25.391.391,0,0,0,.1.25.361.361,0,0,0,.49,0,.319.319,0,0,0,.11-.25.34.34,0,0,0-.33-.35Z" style="fill:#17306d"/><path d="M70,10.78a.34.34,0,0,0-.35.33v.02a.332.332,0,0,0,.11.25.369.369,0,0,0,.49,0,.363.363,0,0,0,.1-.25.34.34,0,0,0-.33-.35Z" style="fill:#17306d"/><path d="M64.5,6.28a.35.35,0,0,0-.25.6.359.359,0,0,0,.5,0,.348.348,0,0,0,.1-.24.34.34,0,0,0-.33-.35H64.5Z" style="fill:#17306d"/><path d="M65.5,3.53a.35.35,0,0,0-.25.6.369.369,0,0,0,.5,0,.35.35,0,0,0-.25-.6Z" style="fill:#17306d"/><path d="M62.25,1.53a.34.34,0,0,0-.35.33v.02a.339.339,0,0,0,.11.25.361.361,0,0,0,.49,0,.31.31,0,0,0,.1-.24.34.34,0,0,0-.33-.35h-.02Z" style="fill:#17306d"/><path d="M52.5,2a.35.35,0,0,0-.25.6.36.36,0,0,0,.6-.25.391.391,0,0,0-.1-.25A.369.369,0,0,0,52.5,2Z" style="fill:#17306d"/><path d="M44.5,5.28a.339.339,0,0,0-.25.11.348.348,0,0,0-.1.24.332.332,0,0,0,.11.25.369.369,0,0,0,.49,0,.363.363,0,0,0,.1-.25.34.34,0,0,0-.33-.35Z" style="fill:#17306d"/><path d="M28.25.53a.391.391,0,0,0-.25.1.363.363,0,0,0-.1.25.332.332,0,0,0,.11.25A.35.35,0,0,0,28.6.88a.332.332,0,0,0-.11-.25A.348.348,0,0,0,28.25.53Z" style="fill:#17306d"/><path d="M2.75,42.28a.391.391,0,0,0-.25.1.359.359,0,0,0,0,.5.38.38,0,0,0,.5,0,.359.359,0,0,0,0-.5A.391.391,0,0,0,2.75,42.28Z" style="fill:#17306d"/><path d="M13,66.78a.358.358,0,0,0-.25.11.31.31,0,0,0-.1.24.369.369,0,0,0,.1.25.36.36,0,0,0,.6-.25.332.332,0,0,0-.11-.25A.348.348,0,0,0,13,66.78Z" style="fill:#17306d"/><path d="M70,37.28a.34.34,0,0,0-.35.33v.02a.332.332,0,0,0,.11.25.369.369,0,0,0,.49,0,.363.363,0,0,0,.1-.25.34.34,0,0,0-.33-.35Z" style="fill:#17306d"/><path d="M71,30.53a.35.35,0,0,0-.25.6.369.369,0,0,0,.5,0,.35.35,0,0,0-.25-.6Z" style="fill:#17306d"/><path d="M.75,20a.391.391,0,0,0-.25.1.391.391,0,0,0-.1.25.332.332,0,0,0,.11.25.369.369,0,0,0,.49,0,.363.363,0,0,0,.1-.25A.391.391,0,0,0,1,20.1.391.391,0,0,0,.75,20Z" style="fill:#17306d"/><path d="M71.75,48.28a.35.35,0,0,0-.25.6.38.38,0,0,0,.5,0,.35.35,0,0,0-.25-.6Z" style="fill:#17306d"/><path d="M68.75,45.28a.35.35,0,0,0-.25.6.369.369,0,0,0,.5,0,.391.391,0,0,0,.1-.25.354.354,0,0,0-.1-.25A.391.391,0,0,0,68.75,45.28Z" style="fill:#17306d"/><path d="M68.25,11.53a.34.34,0,0,0-.35.33v.02a.369.369,0,0,0,.1.25.38.38,0,0,0,.5,0,.35.35,0,0,0-.25-.6Z" style="fill:#17306d"/><path d="M71.25,3.53a.35.35,0,0,0-.25.6.369.369,0,0,0,.5,0,.391.391,0,0,0,.1-.25.354.354,0,0,0-.1-.25A.391.391,0,0,0,71.25,3.53Z" style="fill:#17306d"/><path d="M.25,14a.391.391,0,0,0-.25.1.359.359,0,0,0,0,.5.38.38,0,0,0,.5,0,.359.359,0,0,0,0-.5A.391.391,0,0,0,.25,14Z" style="fill:#17306d"/><path d="M2.5.53a.391.391,0,0,0-.25.1.359.359,0,0,0,0,.5.36.36,0,0,0,.6-.25.391.391,0,0,0-.1-.25A.391.391,0,0,0,2.5.53Z" style="fill:#17306d"/><path d="M70,47.78a.34.34,0,0,0-.35.33v.02a.332.332,0,0,0,.11.25.369.369,0,0,0,.49,0,.363.363,0,0,0,.1-.25.34.34,0,0,0-.33-.35Z" style="fill:#17306d"/><path d="M1,55a.391.391,0,0,0-.25.1.359.359,0,0,0,0,.5.38.38,0,0,0,.5,0,.359.359,0,0,0,0-.5A.391.391,0,0,0,1,55Z" style="fill:#17306d"/><path d="M17.75,58.73a.65.65,0,0,0-.65.65.661.661,0,0,0,.19.46.68.68,0,0,0,.92,0,.65.65,0,0,0-.46-1.11Z" style="fill:#17306d"/><path d="M29,60.73a.661.661,0,0,0-.46.19.681.681,0,0,0-.19.46.661.661,0,0,0,.19.46.67.67,0,0,0,.92,0,.661.661,0,0,0,.19-.46A.65.65,0,0,0,29,60.73Z" style="fill:#17306d"/><path d="M29,68.23a.65.65,0,0,0-.65.65.639.639,0,0,0,.19.46.68.68,0,0,0,.92,0,.65.65,0,0,0,0-.919h0A.681.681,0,0,0,29,68.23Z" style="fill:#17306d"/><path d="M40,61.23a.65.65,0,0,0-.65.65h0a.661.661,0,0,0,.19.46.68.68,0,0,0,.92,0,.631.631,0,0,0,.19-.46.681.681,0,0,0-.19-.46A.661.661,0,0,0,40,61.23Z" style="fill:#17306d"/><path d="M44.75,59.73a.61.61,0,0,0-.46.2.64.64,0,0,0-.19.45.661.661,0,0,0,.19.46.68.68,0,0,0,.92,0,.631.631,0,0,0,.19-.46.61.61,0,0,0-.2-.46A.6.6,0,0,0,44.75,59.73Z" style="fill:#17306d"/><path d="M47,48.73a.65.65,0,0,0-.46,1.11.68.68,0,0,0,.92,0A.65.65,0,0,0,47,48.73Z" style="fill:#17306d"/><path d="M54.5,64.73a.641.641,0,0,0-.5.19.65.65,0,0,0,0,.919h0a.68.68,0,0,0,.92,0,.639.639,0,0,0,.19-.46.661.661,0,0,0-.19-.46A.642.642,0,0,0,54.5,64.73Z" style="fill:#17306d"/><path d="M63.75,65a.65.65,0,0,0-.46,1.11.68.68,0,0,0,.92,0A.65.65,0,0,0,63.75,65Z" style="fill:#17306d"/><path d="M64.75,69a.661.661,0,0,0-.46.19.681.681,0,0,0-.19.46.661.661,0,0,0,.19.46.65.65,0,0,0,1.11-.46.63.63,0,0,0-.18-.45A.67.67,0,0,0,64.75,69Z" style="fill:#17306d"/><path d="M69.25,53.48a.65.65,0,0,0-.46,1.11.67.67,0,0,0,.92,0,.65.65,0,0,0-.46-1.11Z" style="fill:#17306d"/><path d="M7.75,24.48a.639.639,0,0,0-.46.19.681.681,0,0,0-.19.46.661.661,0,0,0,.19.46.68.68,0,0,0,.92,0,.661.661,0,0,0,.19-.46.681.681,0,0,0-.19-.46A.639.639,0,0,0,7.75,24.48Z" style="fill:#17306d"/><path d="M4.75,14.73a.639.639,0,0,0-.46.19.65.65,0,0,0,0,.919h0a.67.67,0,0,0,.92,0,.65.65,0,0,0,0-.919h0A.639.639,0,0,0,4.75,14.73Z" style="fill:#17306d"/><path d="M2,4.48a.661.661,0,0,0-.46.19.681.681,0,0,0-.19.46.661.661,0,0,0,.19.46.68.68,0,0,0,.92,0,.661.661,0,0,0,.19-.46.681.681,0,0,0-.19-.46A.661.661,0,0,0,2,4.48Z" style="fill:#17306d"/><path d="M17.5,1.73a.661.661,0,0,0-.46.19.681.681,0,0,0-.19.46.661.661,0,0,0,.19.46.68.68,0,0,0,.92,0,.661.661,0,0,0,.19-.46.681.681,0,0,0-.19-.46A.661.661,0,0,0,17.5,1.73Z" style="fill:#17306d"/><path d="M19,9.23a.65.65,0,0,0-.65.65h0a.639.639,0,0,0,.19.46.67.67,0,0,0,.92,0,.661.661,0,0,0,.19-.46.681.681,0,0,0-.19-.46A.661.661,0,0,0,19,9.23Z" style="fill:#17306d"/><path d="M20.75,26.23a.65.65,0,0,0-.65.65h0a.639.639,0,0,0,.19.46.67.67,0,0,0,.92,0,.661.661,0,0,0,.19-.46.681.681,0,0,0-.19-.46A.639.639,0,0,0,20.75,26.23Z" style="fill:#17306d"/><path d="M28.25,20.48a.65.65,0,0,0-.46,1.11.67.67,0,0,0,.92,0,.661.661,0,0,0,.19-.46.681.681,0,0,0-.19-.46A.639.639,0,0,0,28.25,20.48Z" style="fill:#17306d"/><path d="M33.75,11.23a.65.65,0,0,0-.65.65h0a.639.639,0,0,0,.19.46.68.68,0,0,0,.92,0,.631.631,0,0,0,.19-.46.639.639,0,0,0-.19-.46A.661.661,0,0,0,33.75,11.23Z" style="fill:#17306d"/><path d="M34,4.73a.639.639,0,0,0-.46.19.65.65,0,0,0,0,.919h0a.67.67,0,0,0,.92,0,.65.65,0,0,0,0-.919h0A.661.661,0,0,0,34,4.73Z" style="fill:#17306d"/><path d="M41.5,16.48a.65.65,0,0,0-.5,1.11.68.68,0,0,0,.92,0,.65.65,0,0,0-.46-1.11Z" style="fill:#17306d"/><path d="M52,11.73a.65.65,0,0,0-.46,1.11.68.68,0,0,0,.92,0A.65.65,0,0,0,52,11.73Z" style="fill:#17306d"/><path d="M54.75,6.23a.661.661,0,0,0-.46.19.681.681,0,0,0-.19.46.639.639,0,0,0,.19.46.68.68,0,0,0,.92,0,.639.639,0,0,0,.19-.46.681.681,0,0,0-.19-.46A.661.661,0,0,0,54.75,6.23Z" style="fill:#17306d"/><path d="M25,47a.661.661,0,0,0-.46.19.681.681,0,0,0-.19.46.661.661,0,0,0,.19.46.68.68,0,0,0,.92,0,.661.661,0,0,0,.19-.46.681.681,0,0,0-.19-.46A.661.661,0,0,0,25,47Z" style="fill:#17306d"/><path d="M35,48.23a.639.639,0,0,0-.46.19.65.65,0,0,0,0,.919h0a.68.68,0,0,0,.92,0A.65.65,0,0,0,35,48.23Z" style="fill:#17306d"/><path d="M44.75,42a.65.65,0,0,0-.46,1.11.68.68,0,0,0,.92,0,.631.631,0,0,0,.19-.46.61.61,0,0,0-.2-.46A.621.621,0,0,0,44.75,42Z" style="fill:#17306d"/><path d="M51.75,28.48a.65.65,0,0,0-.46,1.11.67.67,0,0,0,.92,0,.639.639,0,0,0,.19-.46.65.65,0,0,0-.65-.65Z" style="fill:#17306d"/><path d="M66.75,19.73a.65.65,0,0,0-.65.65h0a.61.61,0,0,0,.2.46.68.68,0,0,0,.91,0,.65.65,0,0,0-.46-1.11Z" style="fill:#17306d"/><path d="M47,23.73a.65.65,0,0,0-.46,1.11.68.68,0,0,0,.92,0A.65.65,0,0,0,47,23.73Z" style="fill:#17306d"/><path d="M36.75,27a.661.661,0,0,0-.46.19.681.681,0,0,0-.19.46.661.661,0,0,0,.19.46.68.68,0,0,0,.92,0,.661.661,0,0,0,.19-.46.681.681,0,0,0-.19-.46A.661.661,0,0,0,36.75,27Z" style="fill:#17306d"/><path d="M16.75,43a.65.65,0,0,0-.46,1.11.68.68,0,0,0,.92,0,.65.65,0,0,0,0-.919h0A.639.639,0,0,0,16.75,43Z" style="fill:#17306d"/><path d="M11,34.73a.65.65,0,0,0-.65.65h0a.639.639,0,0,0,.19.46.67.67,0,0,0,.92,0A.65.65,0,0,0,11,34.73Z" style="fill:#17306d"/><path d="M67.25,40.73a.661.661,0,0,0-.46.19.681.681,0,0,0-.19.46.661.661,0,0,0,.19.46.68.68,0,0,0,.92,0,.639.639,0,0,0,.19-.46.65.65,0,0,0-.65-.65Z" style="fill:#17306d"/><path d="M7,55.73a.61.61,0,0,0-.46.2.621.621,0,0,0-.19.45.661.661,0,0,0,.19.46.67.67,0,0,0,.92,0,.65.65,0,0,0,0-.919h0A.639.639,0,0,0,7,55.73Z" style="fill:#17306d"/><path d="M8.25,66.23a.681.681,0,0,0-.46.19.661.661,0,0,0-.19.46.639.639,0,0,0,.19.46.67.67,0,0,0,.92,0,.639.639,0,0,0,.19-.46A.65.65,0,0,0,8.25,66.23Z" style="fill:#17306d"/><path d="M3.25,69a.661.661,0,0,0-.46.19.681.681,0,0,0-.19.46.661.661,0,0,0,.19.46.68.68,0,0,0,.92,0,.661.661,0,0,0,.19-.46.681.681,0,0,0-.19-.46A.661.661,0,0,0,3.25,69Z" style="fill:#17306d"/><path d="M66.25,34.23a.65.65,0,0,0-.46,1.11.68.68,0,0,0,.92,0,.639.639,0,0,0,.19-.46.661.661,0,0,0-.19-.46A.639.639,0,0,0,66.25,34.23Z" style="fill:#17306d"/><path d="M43.75,8.48a.661.661,0,0,0-.46.19.681.681,0,0,0-.19.46.661.661,0,0,0,.19.46.67.67,0,0,0,.92,0,.661.661,0,0,0,.19-.46.681.681,0,0,0-.19-.46A.661.661,0,0,0,43.75,8.48Z" style="fill:#17306d"/><path d="M25.5,1.48a.661.661,0,0,0-.46.19.681.681,0,0,0-.19.46.661.661,0,0,0,.19.46.67.67,0,0,0,.92,0,.661.661,0,0,0,.19-.46.681.681,0,0,0-.19-.46A.661.661,0,0,0,25.5,1.48Z" style="fill:#17306d"/><path d="M21.75,29.73a.661.661,0,0,0-.46.19.65.65,0,0,0,0,.919h0a.68.68,0,0,0,.92,0,.65.65,0,0,0-.46-1.11Z" style="fill:#17306d"/><path d="M23.75,42.48a.661.661,0,0,0-.46.19.681.681,0,0,0-.19.46.661.661,0,0,0,.19.46.67.67,0,0,0,.92,0,.639.639,0,0,0,.19-.46A.65.65,0,0,0,23.75,42.48Z" style="fill:#17306d"/><path d="M41.25,37a.65.65,0,0,0-.46,1.11.68.68,0,0,0,.92,0,.661.661,0,0,0,.19-.46.681.681,0,0,0-.19-.46A.661.661,0,0,0,41.25,37Z" style="fill:#17306d"/><path d="M67.25,27.73a.661.661,0,0,0-.46.19.681.681,0,0,0-.19.46.661.661,0,0,0,.19.46.68.68,0,0,0,.92,0,.639.639,0,0,0,.19-.46.65.65,0,0,0-.65-.65Z" style="fill:#17306d"/><path d="M53,56.48a.65.65,0,0,0-.46,1.11.68.68,0,0,0,.92,0,.661.661,0,0,0,.19-.46.681.681,0,0,0-.19-.46A.661.661,0,0,0,53,56.48Z" style="fill:#17306d"/><path d="M33.75,55.48a.661.661,0,0,0-.46.19.681.681,0,0,0-.19.46.639.639,0,0,0,.19.46.68.68,0,0,0,.92,0,.639.639,0,0,0,.19-.46.65.65,0,0,0-.65-.65Z" style="fill:#17306d"/><path d="M12.5,52.23a.65.65,0,0,0-.5,1.11.67.67,0,0,0,.92,0,.65.65,0,0,0-.46-1.11Z" style="fill:#17306d"/><path d="M49.25,67a.65.65,0,0,0-.46,1.11.68.68,0,0,0,.92,0A.65.65,0,0,0,49.25,67Z" style="fill:#17306d"/><path d="M58.75,50.73a.65.65,0,0,0-.46,1.11.68.68,0,0,0,.92,0,.639.639,0,0,0,.19-.46.65.65,0,0,0-.65-.65Z" style="fill:#17306d"/><path d="M67.25,14.23a.661.661,0,0,0-.46.19.681.681,0,0,0-.19.46.661.661,0,0,0,.19.46.68.68,0,0,0,.92,0,.639.639,0,0,0,.19-.46.65.65,0,0,0-.65-.65Z" style="fill:#17306d"/><path d="M5,1.73a.639.639,0,0,0-.46.19.65.65,0,0,0,0,.919h0a.67.67,0,0,0,.92,0,.65.65,0,0,0,0-.919h0A.639.639,0,0,0,5,1.73Z" style="fill:#17306d"/><path d="M2.5,58.23a.61.61,0,0,0-.46.2.621.621,0,0,0-.19.45.662.662,0,0,0,.15.46.67.67,0,0,0,.92,0,.65.65,0,0,0,0-.919h0A.642.642,0,0,0,2.5,58.23Z" style="fill:#17306d"/><path d="M16.25,68.23a.65.65,0,0,0-.46,1.11.68.68,0,0,0,.92,0,.65.65,0,0,0-.46-1.11Z" style="fill:#17306d"/><path d="M40.25,67a.65.65,0,0,0-.46,1.11.68.68,0,0,0,.92,0,.639.639,0,0,0,.19-.46.65.65,0,0,0-.65-.65Z" style="fill:#17306d"/><path d="M2.5,39.48a.641.641,0,0,0-.5.19.65.65,0,0,0,0,.919H2a.68.68,0,0,0,.92,0,.65.65,0,0,0-.46-1.11Z" style="fill:#17306d"/><path d="M7.25,46.48a.639.639,0,0,0-.46.19.65.65,0,0,0,0,.919h0a.68.68,0,0,0,.92,0,.639.639,0,0,0,.19-.46.661.661,0,0,0-.19-.46A.639.639,0,0,0,7.25,46.48Z" style="fill:#17306d"/><path d="M3.75,24.73a.661.661,0,0,0-.46.19.681.681,0,0,0-.19.46.661.661,0,0,0,.19.46.67.67,0,0,0,.92,0,.661.661,0,0,0,.19-.46.681.681,0,0,0-.19-.46A.639.639,0,0,0,3.75,24.73Z" style="fill:#17306d"/><path d="M10.75,21a.661.661,0,0,0-.46.19.681.681,0,0,0-.19.46.639.639,0,0,0,.19.46.68.68,0,0,0,.92,0,.661.661,0,0,0,.19-.46.681.681,0,0,0-.19-.46A.661.661,0,0,0,10.75,21Z" style="fill:#17306d"/><path d="M9.75,11.73a.639.639,0,0,0-.46.19.65.65,0,0,0,0,.919h0a.68.68,0,0,0,.92,0,.65.65,0,0,0,0-.919h0A.639.639,0,0,0,9.75,11.73Z" style="fill:#17306d"/><path d="M13.25,5.73a.661.661,0,0,0-.46.19.681.681,0,0,0-.19.46.639.639,0,0,0,.19.46.67.67,0,0,0,.92,0,.661.661,0,0,0,.19-.46.681.681,0,0,0-.19-.46A.661.661,0,0,0,13.25,5.73Z" style="fill:#17306d"/><path d="M21.75,18.23a.661.661,0,0,0-.46.19.639.639,0,0,0-.19.46.6.6,0,0,0,.2.46.65.65,0,0,0,1.1-.46.681.681,0,0,0-.19-.46A.661.661,0,0,0,21.75,18.23Z" style="fill:#17306d"/><path d="M31,34a.661.661,0,0,0-.46.19.681.681,0,0,0-.19.46.661.661,0,0,0,.19.46.68.68,0,0,0,.92,0,.661.661,0,0,0,.19-.46.681.681,0,0,0-.19-.46A.661.661,0,0,0,31,34Z" style="fill:#17306d"/><path d="M25.75,37.48a.65.65,0,0,0-.46,1.11.67.67,0,0,0,.92,0,.65.65,0,0,0-.46-1.11Z" style="fill:#17306d"/><path d="M37,43a.661.661,0,0,0-.46.19.681.681,0,0,0-.19.46.661.661,0,0,0,.19.46.68.68,0,0,0,.92,0,.661.661,0,0,0,.19-.46.681.681,0,0,0-.19-.46A.661.661,0,0,0,37,43Z" style="fill:#17306d"/><path d="M61.5,55a.661.661,0,0,0-.46.19.681.681,0,0,0-.19.46.661.661,0,0,0,.19.46.68.68,0,0,0,.92,0,.639.639,0,0,0,.19-.46A.65.65,0,0,0,61.5,55Z" style="fill:#17306d"/><path d="M61,44.48a.639.639,0,0,0-.46.19.681.681,0,0,0-.19.46.661.661,0,0,0,.19.46.68.68,0,0,0,.92,0,.65.65,0,0,0,0-.919h0A.639.639,0,0,0,61,44.48Z" style="fill:#17306d"/><path d="M58.5,14.48a.661.661,0,0,0-.46.19.681.681,0,0,0-.19.46.661.661,0,0,0,.19.46.68.68,0,0,0,.92,0,.661.661,0,0,0,.19-.46.681.681,0,0,0-.19-.46A.661.661,0,0,0,58.5,14.48Z" style="fill:#17306d"/><path d="M59,27.23a.639.639,0,0,0-.46.19.65.65,0,0,0,0,.919h0a.68.68,0,0,0,.92,0,.65.65,0,0,0,0-.919h0A.639.639,0,0,0,59,27.23Z" style="fill:#17306d"/><path d="M55.5,36a.661.661,0,0,0-.46.19.681.681,0,0,0-.19.46.661.661,0,0,0,.19.46.68.68,0,0,0,.92,0,.661.661,0,0,0,.19-.46.681.681,0,0,0-.19-.46A.661.661,0,0,0,55.5,36Z" style="fill:#17306d"/><path d="M69,1a.681.681,0,0,0-.46.19.65.65,0,0,0,0,.919h0a.691.691,0,0,0,.92,0A.65.65,0,0,0,69,1Z" style="fill:#17306d"/><path d="M60.5,5.73A.65.65,0,0,0,60,6.84a.67.67,0,0,0,.92,0,.639.639,0,0,0,.19-.46.65.65,0,0,0-.65-.65h.04Z" style="fill:#17306d"/><path d="M44.25.23a.65.65,0,0,0-.46,1.11.68.68,0,0,0,.92,0A.65.65,0,0,0,44.25.23Z" style="fill:#17306d"/><path d="M24.25,70.48a.65.65,0,0,0-.65.65.639.639,0,0,0,.19.46.67.67,0,0,0,.92,0,.661.661,0,0,0,.19-.46.681.681,0,0,0-.19-.46A.639.639,0,0,0,24.25,70.48Z" style="fill:#17306d"/><path d="M-.25,48.28a.391.391,0,0,0-.25.1.391.391,0,0,0-.1.25.391.391,0,0,0,.1.25.38.38,0,0,0,.5,0,.391.391,0,0,0,.1-.25.391.391,0,0,0-.1-.25A.391.391,0,0,0-.25,48.28Z" style="fill:#17306d"/></pattern></defs><title>whirpool</title><g id="Layer_1-2" data-name="Layer 1-2"><path d="M349.38,36.411v59.13a4.67,4.67,0,0,1-4.67,4.66H286.4a4.67,4.67,0,0,1-4.67-4.66V36.411" style="fill:none;stroke:#17306d;stroke-linecap:round;stroke-linejoin:round;stroke-width:1.1699999570846558px"/><line x1="267.91" y1="100.201" x2="365.88" y2="100.201" style="fill:none;stroke:#17306d;stroke-linecap:round;stroke-linejoin:round;stroke-width:1.1699999570846558px"/><path d="M284.23,36.411v59a2.659,2.659,0,0,0,2.66,2.66h57.33a2.659,2.659,0,0,0,2.66-2.66h0v-59" style="fill:none;stroke:#17306d;stroke-linecap:round;stroke-linejoin:round;stroke-width:1.1699999570846558px"/><line x1="281.73" y1="36.411" x2="349.38" y2="36.411" style="fill:none;stroke:#17306d;stroke-linecap:round;stroke-linejoin:round;stroke-width:1.1699999570846558px"/><path d="M284.23,55.631v39.76a2.659,2.659,0,0,0,2.66,2.66h57.33a2.659,2.659,0,0,0,2.66-2.66h0V55.631Z" style="stroke:#17306d;stroke-miterlimit:10;stroke-width:1.1699999570846558px;fill:url(#USGS_22_Gravel_Beach_4)"/><path d="M349.38,159.4v59.13a4.67,4.67,0,0,1-4.67,4.67H286.4a4.67,4.67,0,0,1-4.67-4.67h0V159.4" style="fill:none;stroke:#17306d;stroke-linecap:round;stroke-linejoin:round;stroke-width:1.1699999570846558px"/><line x1="267.91" y1="223.201" x2="365.88" y2="223.201" style="fill:none;stroke:#17306d;stroke-linecap:round;stroke-linejoin:round;stroke-width:1.1699999570846558px"/><path d="M284.23,159.4v59a2.659,2.659,0,0,0,2.66,2.66h57.33a2.659,2.659,0,0,0,2.66-2.66h0v-59" style="fill:none;stroke:#17306d;stroke-linecap:round;stroke-linejoin:round;stroke-width:1.1699999570846558px"/><line x1="318.91" y1="159.401" x2="349.38" y2="159.401" style="fill:none;stroke:#17306d;stroke-linecap:round;stroke-linejoin:round;stroke-width:1.1699999570846558px"/><line x1="281.73" y1="159.401" x2="316.3" y2="159.401" style="fill:none;stroke:#17306d;stroke-linecap:round;stroke-linejoin:round;stroke-width:1.1699999570846558px"/><path d="M284.23,178.621v39.76a2.659,2.659,0,0,0,2.66,2.66h23.25l-19.55-42.42h49.88l-19.64,42.42h23.39a2.659,2.659,0,0,0,2.66-2.66h0v-39.76Z" style="fill:url(#USGS_22_Gravel_Beach_4-3)"/><line x1="284.23" y1="178.621" x2="346.88" y2="178.621" style="fill:none;stroke:#17306d;stroke-linecap:round;stroke-linejoin:round;stroke-width:1.1699999570846558px"/><path d="M294.65,181.751c.46.83,2.33,2.26,6.13,3.71a61.447,61.447,0,0,0,11.41,2.93c25.94,4.42,33.07-2,15.4-3.21-22.42-1.6-39.91,5.55-25.91,10.92a49.179,49.179,0,0,0,8,2.16c27.38,5.41,27.3-2.4,14.65-2.94a37.355,37.355,0,0,0-5.16.17c-13.73,1.36-23.09,7.69-12.07,12a38.913,38.913,0,0,0,6,1.69c16.28,3.38,19.87-4.11,7.82-2.51-14.42,1.91-17.49,7.82-9.49,11.46" style="fill:none;stroke:#17306d;stroke-linecap:round;stroke-linejoin:round;stroke-width:1.1699999570846558px"/><path d="M327.45,145.6c-3.67.21-7.69.33-11.9.33-17.3,0-31.32-2-31.32-4.47,0-1.23,3.51-2.35,9.17-3.16" style="fill:none;stroke:#17306d;stroke-linecap:round;stroke-linejoin:round;stroke-width:1.1699999570846558px"/><polygon points="323.41 140.891 322.64 141.771 326.99 145.571 322.89 149.641 323.71 150.471 328.71 145.521 323.41 140.891" style="fill:#17306d"/><path d="M321.87,137.091c14.27.41,25,2.21,25,4.37,0,1.22-3.39,2.32-8.9,3.12" style="fill:none;stroke:#17306d;stroke-linecap:round;stroke-linejoin:round;stroke-width:1.1699999570846558px"/><path d="M305.56,137.231c3.14-.15,6.5-.23,10-.23h3.55" style="fill:none;stroke:#17306d;stroke-linecap:round;stroke-linejoin:round;stroke-width:1.1699999570846558px"/><polygon points="309.57 141.951 310.35 141.071 306.01 137.251 310.14 133.201 309.32 132.371 304.29 137.291 309.57 141.951" style="fill:#17306d"/><polyline points="316.53 178.481 323.4 123.521 320.83 123.191 313.89 178.621" style="fill:none;stroke:#17306d;stroke-linecap:round;stroke-linejoin:round;stroke-width:1.1699999570846558px"/><path d="M349.38,266.261v59.13a4.67,4.67,0,0,1-4.67,4.67H286.4a4.669,4.669,0,0,1-4.67-4.669h0v-59.13" style="fill:none;stroke:#17306d;stroke-linecap:round;stroke-linejoin:round;stroke-width:1.1699999570846558px"/><line x1="267.91" y1="330.061" x2="365.88" y2="330.061" style="fill:none;stroke:#17306d;stroke-linecap:round;stroke-linejoin:round;stroke-width:1.1699999570846558px"/><path d="M284.23,266.261v59a2.659,2.659,0,0,0,2.66,2.66h57.33a2.659,2.659,0,0,0,2.66-2.66h0v-59" style="fill:none;stroke:#17306d;stroke-linecap:round;stroke-linejoin:round;stroke-width:1.1699999570846558px"/><line x1="281.73" y1="266.261" x2="349.38" y2="266.261" style="fill:none;stroke:#17306d;stroke-linecap:round;stroke-linejoin:round;stroke-width:1.1699999570846558px"/><path d="M284.23,285.481v39.76a2.659,2.659,0,0,0,2.66,2.66h57.33a2.659,2.659,0,0,0,2.66-2.66h0v-39.76Z" style="fill:none;stroke:#17306d;stroke-linecap:round;stroke-linejoin:round;stroke-width:1.1699999570846558px"/><path d="M292.54,327.9s7.33-7.55,10.87-5.89,4.26-5.68,7.21-5.13,4.86-5.55,8.44-1.38,7.51.75,7.9,3.84,4.33,4.47,6.49,4.47,4.92,2.75,5.11,4.09" style="stroke:#17306d;stroke-miterlimit:10;stroke-width:1.1699999570846558px;fill:url(#USGS_22_Gravel_Beach_4)"/><path d="M281.38,49.631l-11.3-2.87h0a2.21,2.21,0,0,1,.52-4.35h10.78" style="fill:none;stroke:#17306d;stroke-linecap:round;stroke-linejoin:round;stroke-width:1.1699999570846558px"/><path d="M349.72,49.631,361,46.761h0a2.21,2.21,0,0,0-.52-4.35H349.72" style="fill:none;stroke:#17306d;stroke-linecap:round;stroke-linejoin:round;stroke-width:1.1699999570846558px"/><path d="M281.38,172.621l-11.3-2.87h0a2.21,2.21,0,0,1,.52-4.35h10.78" style="fill:none;stroke:#17306d;stroke-linecap:round;stroke-linejoin:round;stroke-width:1.1699999570846558px"/><path d="M349.72,172.621l11.28-2.87h0a2.21,2.21,0,0,0-.52-4.35H349.72" style="fill:none;stroke:#17306d;stroke-linecap:round;stroke-linejoin:round;stroke-width:1.1699999570846558px"/><path d="M281.38,279.481l-11.3-2.87h0a2.21,2.21,0,0,1,.52-4.35h10.78" style="fill:none;stroke:#17306d;stroke-linecap:round;stroke-linejoin:round;stroke-width:1.1699999570846558px"/><path d="M349.72,279.481l11.28-2.87h0a2.21,2.21,0,0,0-.52-4.35H349.72" style="fill:none;stroke:#17306d;stroke-linecap:round;stroke-linejoin:round;stroke-width:1.1699999570846558px"/><rect x="284.23" y="36.411" width="62.65" height="19.23" style="fill:#17306d;opacity:0.5099999904632568;isolation:isolate"/><polyline points="313.89 178.731 284.23 178.731 284.23 159.511 316.3 159.511" style="fill:#17306d;opacity:0.5099999904632568;isolation:isolate"/><polyline points="318.92 159.511 346.88 159.511 346.88 178.731 316.53 178.481" style="fill:#17306d;opacity:0.5099999904632568;isolation:isolate"/><rect x="284.66" y="266.261" width="62.65" height="19.23" style="fill:#17306d;opacity:0.5099999904632568;isolation:isolate"/><path d="M202.19,193.541v-35.33" style="fill:none;stroke:#17306d;stroke-linecap:round;stroke-linejoin:round;stroke-width:2.3399999141693115px"/><path d="M202.19,200.621v83.81c-.14,12.46-16.51,17.95-16.51,17.95h0c-13.95,5.69-40.64,9.54-71.27,9.54s-57.33-3.85-71.27-9.54" style="fill:none;stroke:#17306d;stroke-linecap:round;stroke-linejoin:round;stroke-width:2.3399999141693115px"/><path d="M26.57,193.541v-35.31" style="fill:none;stroke:#17306d;stroke-linecap:round;stroke-linejoin:round;stroke-width:2.3399999141693115px"/><path d="M43.12,302.381s-16.37-5.49-16.51-17.95c-.08-6.51-.07-50.26-.05-83.81" style="fill:none;stroke:#17306d;stroke-linecap:round;stroke-linejoin:round;stroke-width:2.3399999141693115px"/><path d="M150.12,139.921c-10.92-1.1-23-1.72-35.73-1.72-48.48,0-87.78,9-87.78,20s39.3,20,87.78,20c7.3,0,14.4-.2,21.19-.59q4-.229,7.89-.54c34.19-2.73,58.71-10.16,58.71-18.89,0-7.49-18-14-44.7-17.43" style="fill:none;stroke:#17306d;stroke-linecap:round;stroke-linejoin:round;stroke-width:2.3399999141693115px"/><path d="M135.58,177.641l14.54-37.72L186,46.821a2,2,0,0,1,2.571-1.178l.049.018,2.9,1.11a2,2,0,0,1,1.2,2.564l-.026.066-35.21,91.42-14,36.32" style="fill:none;stroke:#17306d;stroke-linecap:round;stroke-linejoin:round;stroke-width:2.3399999141693115px"/><path d="M72.93,101.921c-18.05-2.95-29.81-7.77-29.81-13.22,0-9,31.91-16.25,71.27-16.25,4.75,0,9.39.11,13.88.31" style="fill:none;stroke:#17306d;stroke-linecap:round;stroke-linejoin:round;stroke-width:2.3399999141693115px"/><polygon points="66.97 91.071 65.09 92.481 72.05 101.701 62.34 107.971 63.61 109.941 75.44 102.311 66.97 91.071" style="fill:#17306d"/><path d="M180,82.351c3.63,1.95,5.64,4.1,5.64,6.35,0,9-31.9,16.25-71.26,16.25-4.92,0-9.73-.12-14.37-.33" style="fill:none;stroke:#17306d;stroke-linecap:round;stroke-linejoin:round;stroke-width:2.3399999141693115px"/><path d="M151.89,74.881a124.169,124.169,0,0,1,21.51,4.71" style="fill:none;stroke:#17306d;stroke-linecap:round;stroke-linejoin:round;stroke-width:2.3399999141693115px"/><polygon points="158.1 85.581 159.94 84.131 152.77 75.071 162.33 68.581 161.01 66.641 149.37 74.541 158.1 85.581" style="fill:#17306d"/><path d="M26.58,172.331h-9c-9,0-16.37,4.15-16.37,13.19v1.91c0,9,7.33,13.19,16.37,13.19H33a3.54,3.54,0,0,0,0-7.08H17.54c-5.12,0-9.28-1-9.28-6.1v-1.92c0-5.12,4.16-6.1,9.28-6.1h9" style="fill:none;stroke:#17306d;stroke-linecap:round;stroke-linejoin:round;stroke-width:2.3399999141693115px"/><path d="M202.18,172.331h9c9,0,16.36,4.15,16.36,13.19v1.91c0,9-7.33,13.19-16.36,13.19H195.77a3.54,3.54,0,1,1,0-7.08h15.46c5.11,0,9.27-1,9.27-6.1v-1.92c0-5.12-4.16-6.1-9.27-6.1h-9" style="fill:none;stroke:#17306d;stroke-linecap:round;stroke-linejoin:round;stroke-width:2.3399999141693115px"/><path d="M150.12,139.921l-14.54,37.72c-6.79.39-13.89.59-21.19.59-48.48,0-87.78-9-87.78-20s39.3-20,87.78-20A350.994,350.994,0,0,1,150.12,139.921Z" style="fill:#17306d;opacity:0.5099999904632568;isolation:isolate"/><path d="M202.18,158.211c0,8.73-24.52,16.16-58.71,18.89l14-36.32C184.15,144.211,202.18,150.721,202.18,158.211Z" style="fill:#17306d;opacity:0.5099999904632568;isolation:isolate"/></g></svg>