<svg xmlns="http://www.w3.org/2000/svg" viewBox="0 0 160.87 227.39"><defs><style>.cls-1,.cls-2{fill:none;stroke:#17306d;stroke-linecap:round;stroke-linejoin:round;}.cls-1{stroke-width:2px;}.cls-3{font-size:24px;fill:#17306d;font-family:FilsonPro-Regular, Filson Pro;}</style></defs><g id="Layer_2" data-name="Layer 2"><g id="Layer_1-2" data-name="Layer 1"><rect class="cls-1" x="1" y="1" width="158.87" height="225.39" rx="31.02"/><path class="cls-1" d="M62.21,181.27c-2.8,1.12-4.46,2.5-4.46,4"/><path class="cls-1" d="M103.12,185.27c0-1.5-1.66-2.88-4.46-4"/><path class="cls-1" d="M57.75,185.27c0,3.72,10.16,6.73,22.69,6.73s22.68-3,22.68-6.73"/><path class="cls-1" d="M103.12,84c0-3.72-10.16-6.73-22.68-6.73s-22.69,3-22.69,6.73"/><path class="cls-1" d="M57.75,84c0,3.71,10.16,6.72,22.69,6.72s22.68-3,22.68-6.72"/><path class="cls-1" d="M102.9,83.08c14.66,27.26,17.51,59.05,11.13,67.33-7.9,10.23-22.36,7.9-26.48,15.73-1.35,2.54.33,9.4,11.11,15.13"/><path class="cls-1" d="M58,83.08c-14.66,27.26-17.5,59.05-11.12,67.33,7.89,10.23,22.35,7.9,26.48,15.73,1.34,2.54-.33,9.4-11.12,15.13"/><path class="cls-1" d="M80.44,187.72c10.14,0,18.37-2.44,18.37-5.45"/><path class="cls-1" d="M62.06,182.27c0,2.21,4.43,4.11,10.79,5"/><path class="cls-1" d="M64.6,160.2a57.4,57.4,0,0,0,15.19,1.74c11.16,0,16.49-1.74,16.49-1.74"/><path class="cls-2" d="M113.23,134.89c.07,7.16-1,12.7-3.2,15.52"/><path class="cls-2" d="M100.89,87a124.2,124.2,0,0,1,11.88,40.28"/><text class="cls-3" transform="translate(40.19 43.6)">baloon</text></g></g></svg>