<svg id="Layer_1" data-name="Layer 1" xmlns="http://www.w3.org/2000/svg" viewBox="0 0 170.079 170.079"><title>caliceDaWeizen</title><g id="Layer_1-2" data-name="Layer 1-2"><path d="M60.409,17.687c0,4.009,10.107,7.254,22.615,7.254s22.615-3.245,22.615-7.254" style="fill:none;stroke:#000;stroke-linecap:round;stroke-linejoin:round;stroke-width:2px"/><path d="M100.95,131.917c0-2.94-8.045-5.332-17.961-5.332s-17.961,2.392-17.961,5.332" style="fill:none;stroke:#000;stroke-linecap:round;stroke-linejoin:round;stroke-width:2px"/><path d="M60.409,17.687c0,4.009,10.107,7.254,22.615,7.254s22.615-3.245,22.615-7.254" style="fill:none;stroke:#000;stroke-linecap:round;stroke-linejoin:round;stroke-width:2px"/><path d="M78.579,47.8c1.435.07,2.905.113,4.41.113,11.029,0,20.6-2.027,25.3-4.975" style="fill:none;stroke:#000;stroke-linecap:round;stroke-linejoin:round;stroke-width:2px"/><path d="M58.678,43.537a40.8,40.8,0,0,0,12.6,3.592" style="fill:none;stroke:#000;stroke-linecap:round;stroke-linejoin:round;stroke-width:2px"/><path d="M60.74,16.391c-2.984,5.662-6.524,14.186-6.167,22.414.635,14.787,10.55,26.877,12.177,48.109.591,7.9-4.68,33.052-4.68,45.438h0c0,3.418,9.359,6.193,20.876,6.193s20.875-2.775,20.875-6.193h0c0-12.4-5.28-37.54-4.68-45.438,1.6-21.232,11.516-33.3,12.177-48.109.348-8.228-3.183-16.752-6.175-22.414l.33,1.3c0-4-10.107-7.255-22.571-7.255s-22.615,3.254-22.615,7.255" style="fill:none;stroke:#000;stroke-linecap:round;stroke-linejoin:round;stroke-width:2px"/></g><path d="M24.031,151.387A3.692,3.692,0,0,1,25,148.578a3.17,3.17,0,0,1,3.979,0,3.69,3.69,0,0,1,.954,2.809v.253a.641.641,0,0,1-.63.647h-.522a.645.645,0,0,1-.648-.647v-.253c0-1.206-.4-1.729-1.135-1.729-.756,0-1.152.523-1.152,1.729v5.095c0,1.207.378,1.747,1.152,1.747a1.167,1.167,0,0,0,.829-.324,2.455,2.455,0,0,0,.306-1.423v-.252a.645.645,0,0,1,.648-.648h.522a.642.642,0,0,1,.63.648v.252A3.7,3.7,0,0,1,29,159.291a2.784,2.784,0,0,1-2,.721,2.772,2.772,0,0,1-2.016-.721,3.7,3.7,0,0,1-.954-2.809Z"/><path d="M37.244,156.7H35.408l-.631,2.809a.713.713,0,0,1-.63.5h-.522a.624.624,0,0,1-.63-.775l.864-3.817,1.638-7.04a.714.714,0,0,1,.631-.5h.4a.692.692,0,0,1,.63.5l2.485,10.84a.637.637,0,0,1-.63.792h-.522a.713.713,0,0,1-.631-.5Zm-1.422-1.783H36.83c-.2-.864-.162-1.351-.5-2.881Z"/><path d="M47.72,159.363a.646.646,0,0,1-.648.649H43.236a.646.646,0,0,1-.648-.649V148.524a.645.645,0,0,1,.648-.648h.523a.642.642,0,0,1,.63.648v9.705h2.683a.646.646,0,0,1,.648.648Z"/><path d="M52.273,159.363a.657.657,0,0,1-.649.649h-.5a.646.646,0,0,1-.648-.649V148.524a.645.645,0,0,1,.648-.648h.5a.657.657,0,0,1,.649.648Z"/><path d="M55.26,151.387a3.692,3.692,0,0,1,.972-2.809,3.172,3.172,0,0,1,3.98,0,3.69,3.69,0,0,1,.954,2.809v.253a.641.641,0,0,1-.63.647h-.522a.645.645,0,0,1-.648-.647v-.253c0-1.206-.4-1.729-1.135-1.729-.756,0-1.153.523-1.153,1.729v5.095c0,1.207.379,1.747,1.153,1.747a1.166,1.166,0,0,0,.828-.324,2.454,2.454,0,0,0,.307-1.423v-.252a.645.645,0,0,1,.648-.648h.522a.642.642,0,0,1,.63.648v.252a3.7,3.7,0,0,1-.936,2.809,3.157,3.157,0,0,1-4.016,0,3.7,3.7,0,0,1-.954-2.809Z"/><path d="M68.707,147.876a.645.645,0,0,1,.648.648v.487a.645.645,0,0,1-.648.647H65.953v3.386h2.268a.645.645,0,0,1,.648.647v.487a.645.645,0,0,1-.648.648H65.953v3.4h2.754a.646.646,0,0,1,.648.648v.486a.646.646,0,0,1-.648.649H64.818a.646.646,0,0,1-.648-.649V148.524a.645.645,0,0,1,.648-.648Z"/><path d="M78.606,160.012a.646.646,0,0,1-.648-.649V148.524a.645.645,0,0,1,.648-.648h1.836c2.161,0,3.17,1.225,3.17,3.565v5c0,2.341-1.009,3.566-3.17,3.566Zm1.134-10.354v8.571h.7c.955,0,1.351-.576,1.351-1.783v-5c0-1.207-.4-1.783-1.351-1.783Z"/><path d="M90.038,156.7H88.2l-.63,2.809a.713.713,0,0,1-.631.5h-.521a.624.624,0,0,1-.631-.775l.864-3.817,1.639-7.04a.711.711,0,0,1,.63-.5h.4a.691.691,0,0,1,.63.5l2.485,10.84a.637.637,0,0,1-.63.792H91.28a.715.715,0,0,1-.631-.5Zm-1.423-1.783h1.009c-.2-.864-.162-1.351-.5-2.881Z"/><path d="M107.156,153.836l.811-5.42a.656.656,0,0,1,.647-.54h.523a.649.649,0,0,1,.648.738l-1.728,10.858a.694.694,0,0,1-.649.54h-.414a.672.672,0,0,1-.63-.523l-.955-5.743-.972,5.743a.671.671,0,0,1-.63.523h-.4a.671.671,0,0,1-.63-.54l-1.765-10.858a.627.627,0,0,1,.63-.738h.523a.672.672,0,0,1,.647.54l.829,5.456.936-5.474a.673.673,0,0,1,.631-.522h.395a.673.673,0,0,1,.631.522Z"/><path d="M117.091,147.876a.645.645,0,0,1,.648.648v.487a.645.645,0,0,1-.648.647h-2.755v3.386H116.6a.645.645,0,0,1,.649.647v.487a.646.646,0,0,1-.649.648h-2.268v3.4h2.755a.646.646,0,0,1,.648.648v.486a.646.646,0,0,1-.648.649H113.2a.646.646,0,0,1-.648-.649V148.524a.645.645,0,0,1,.648-.648Z"/><path d="M122.454,159.363a.657.657,0,0,1-.647.649h-.5a.646.646,0,0,1-.648-.649V148.524a.645.645,0,0,1,.648-.648h.5a.657.657,0,0,1,.647.648Z"/><path d="M131.4,149.137l-3.816,9.092h3.1a.658.658,0,0,1,.648.648v.486a.658.658,0,0,1-.648.649h-4.646a.642.642,0,0,1-.63-.649v-.63l3.8-9.075h-3.241a.646.646,0,0,1-.649-.647v-.487a.646.646,0,0,1,.649-.648h4.79a.645.645,0,0,1,.647.648Z"/><path d="M139.194,147.876a.646.646,0,0,1,.649.648v.487a.645.645,0,0,1-.649.647h-2.755v3.386h2.269a.645.645,0,0,1,.648.647v.487a.645.645,0,0,1-.648.648h-2.269v3.4h2.755a.646.646,0,0,1,.649.648v.486a.646.646,0,0,1-.649.649h-3.888a.646.646,0,0,1-.649-.649V148.524a.646.646,0,0,1,.649-.648Z"/><path d="M147.726,160.012a.741.741,0,0,1-.593-.4l-2.5-6.193v5.941a.657.657,0,0,1-.649.649h-.521a.657.657,0,0,1-.649-.649V148.524a.657.657,0,0,1,.649-.648h.431a.715.715,0,0,1,.595.4l2.5,6.194v-5.942a.645.645,0,0,1,.648-.648h.5a.645.645,0,0,1,.648.648v10.839a.646.646,0,0,1-.648.649Z"/></svg>