<svg id="Layer_1" data-name="Layer 1" xmlns="http://www.w3.org/2000/svg" viewBox="0 0 170.079 170.079"><title>tulipano-01</title><g id="Layer_1-2" data-name="Layer 1-2"><path d="M65.959,119.949c-2.8,1.12-4.46,2.51-4.46,4" style="fill:none;stroke:#000;stroke-linecap:round;stroke-linejoin:round;stroke-width:2px"/><path d="M106.869,123.959c0-1.5-1.66-2.89-4.46-4" style="fill:none;stroke:#000;stroke-linecap:round;stroke-linejoin:round;stroke-width:2px"/><path d="M61.5,123.959c0,3.71,10.16,6.72,22.69,6.72s22.68-3,22.68-6.72" style="fill:none;stroke:#000;stroke-linecap:round;stroke-linejoin:round;stroke-width:2px"/><path d="M106.869,22.689c0-3.71-10.16-6.72-22.68-6.72s-22.69,3-22.69,6.72" style="fill:none;stroke:#000;stroke-linecap:round;stroke-linejoin:round;stroke-width:2px"/><path d="M61.5,22.689c0,3.72,10.16,6.73,22.69,6.73s22.68-3,22.68-6.73" style="fill:none;stroke:#000;stroke-linecap:round;stroke-linejoin:round;stroke-width:2px"/><path d="M61.5,22.689c-1.68,20.47-19.33,35.56-14.3,57.06,4.63,19.79,25.75,17.22,29.88,25,1.34,2.55-.33,9.41-11.12,15.14" style="fill:none;stroke:#000;stroke-linecap:round;stroke-linejoin:round;stroke-width:2px"/><path d="M84.189,126.409c10.14,0,18.37-2.44,18.37-5.45" style="fill:none;stroke:#000;stroke-linecap:round;stroke-linejoin:round;stroke-width:2px"/><path d="M65.809,120.959c0,2.21,4.43,4.11,10.79,5" style="fill:none;stroke:#000;stroke-linecap:round;stroke-linejoin:round;stroke-width:2px"/><path d="M65.809,98.209a71.217,71.217,0,0,0,17.73,2.41c11.16,0,17.31-1.75,17.31-1.75" style="fill:none;stroke:#000;stroke-linecap:round;stroke-linejoin:round;stroke-width:2px"/><path d="M106.869,22.689c1.68,20.47,19.33,35.56,14.3,57.09-4.62,19.79-25.75,17.22-29.87,25-1.35,2.55.33,9.41,11.11,15.14" style="fill:none;stroke:#000;stroke-linecap:round;stroke-linejoin:round;stroke-width:2px"/><path d="M116.749,67.679a33.973,33.973,0,0,1-.62,12.1,23.751,23.751,0,0,1-3.19,7.68" style="fill:none;stroke:#000;stroke-linecap:round;stroke-linejoin:round;stroke-width:2px"/><path d="M102.409,26.749c2.28,12.45,9.87,23.1,13.14,34.86" style="fill:none;stroke:#000;stroke-linecap:round;stroke-linejoin:round;stroke-width:2px"/></g><path d="M54,143.1a.646.646,0,0,1,.648-.649H59.36a.646.646,0,0,1,.649.649v.5a.646.646,0,0,1-.649.648H57.884v9.688a.645.645,0,0,1-.648.647h-.487a.646.646,0,0,1-.648-.647v-9.688H54.643a.645.645,0,0,1-.648-.648Z"/><path d="M62.958,143.1a.642.642,0,0,1,.63-.649h.505a.646.646,0,0,1,.648.649V151.3c0,.954.288,1.513,1.17,1.513.918,0,1.17-.649,1.17-1.513V143.1a.643.643,0,0,1,.631-.649h.5a.646.646,0,0,1,.648.649V151.3c0,2.017-.864,3.3-2.953,3.3-2.161,0-2.953-1.386-2.953-3.3Z"/><path d="M77.252,153.961a.646.646,0,0,1-.648.649H72.768a.647.647,0,0,1-.648-.649V143.122a.646.646,0,0,1,.648-.648h.523a.642.642,0,0,1,.63.648v9.7H76.6a.646.646,0,0,1,.648.649Z"/><path d="M81.805,153.961a.658.658,0,0,1-.648.649h-.5a.646.646,0,0,1-.649-.649V143.122a.646.646,0,0,1,.649-.648h.5a.657.657,0,0,1,.648.648Z"/><path d="M86.629,149.424v4.537a.643.643,0,0,1-.63.649h-.5a.646.646,0,0,1-.648-.649V143.122a.645.645,0,0,1,.648-.648h1.945c2.2,0,3.169,1.152,3.169,3.474s-.972,3.476-3.169,3.476Zm0-5.168v3.385h.81c.972,0,1.368-.522,1.368-1.693,0-1.206-.4-1.692-1.368-1.692Z"/><path d="M95.828,151.3H93.991l-.63,2.809a.712.712,0,0,1-.63.505h-.522a.623.623,0,0,1-.63-.775l.864-3.817,1.638-7.04a.711.711,0,0,1,.631-.5h.395a.694.694,0,0,1,.631.5l2.485,10.839a.639.639,0,0,1-.631.793H97.07a.712.712,0,0,1-.63-.505Zm-1.423-1.782h1.009c-.2-.864-.162-1.351-.5-2.881Z"/><path d="M105.493,154.61a.743.743,0,0,1-.594-.4l-2.5-6.193v5.941a.657.657,0,0,1-.648.649h-.522a.658.658,0,0,1-.648-.649V143.122a.657.657,0,0,1,.648-.648h.432a.717.717,0,0,1,.595.4l2.5,6.195v-5.942a.646.646,0,0,1,.648-.648h.5a.646.646,0,0,1,.649.648v10.839a.647.647,0,0,1-.649.649Z"/><path d="M109.775,145.985c0-2.269.991-3.511,2.953-3.511,1.981,0,2.954,1.224,2.954,3.511v5.095a3.7,3.7,0,0,1-.937,2.809,3.155,3.155,0,0,1-4.015,0,3.7,3.7,0,0,1-.955-2.809Zm1.8,5.095c0,1.189.378,1.746,1.152,1.746.757,0,1.153-.521,1.153-1.746v-5.095c0-1.206-.378-1.729-1.153-1.729-.792,0-1.152.559-1.152,1.729Z"/></svg>