<svg id="Layer_1" data-name="Layer 1" xmlns="http://www.w3.org/2000/svg" viewBox="0 0 170.079 170.079"><title>tumbler</title><g id="Layer_1-2" data-name="Layer 1-2"><path d="M122.389,22.743c0-6.12-16.72-11.07-37.35-11.07s-37.35,5-37.35,11.07" style="fill:none;stroke:#000;stroke-miterlimit:10;stroke-width:2px"/><path d="M47.689,22.743c0,6.12,16.72,11.07,37.35,11.07s37.35-5,37.35-11.07" style="fill:none;stroke:#000;stroke-miterlimit:10;stroke-width:2px"/><path d="M110.659,125.093c1.9-1.13,3-2.41,3-3.75" style="fill:none;stroke:#000;stroke-miterlimit:10;stroke-width:2px"/><path d="M92.849,129.443c1-.08,1.94-.18,2.88-.29" style="fill:none;stroke:#000;stroke-linecap:round;stroke-miterlimit:10;stroke-width:2px"/><path d="M74.879,129.2c.86.1,1.73.19,2.62.26" style="fill:none;stroke:#000;stroke-linecap:round;stroke-miterlimit:10;stroke-width:2px"/><path d="M56.729,121.343c0,1.3,1,2.53,2.78,3.64" style="fill:none;stroke:#000;stroke-miterlimit:10;stroke-width:2px"/><path d="M76.139,67.823a9.04,9.04,0,1,1,18.08,0" style="fill:none;stroke:#000;stroke-miterlimit:10;stroke-width:2px"/><path d="M115.389,66.553v-.93a9.045,9.045,0,0,0-18.09,0" style="fill:none;stroke:#000;stroke-miterlimit:10;stroke-width:2px"/><line x1="113.619" y1="121.343" x2="122.389" y2="22.743" style="fill:none;stroke:#000;stroke-miterlimit:10;stroke-width:2px"/><path d="M54.949,66.443v-.78a9.04,9.04,0,0,1,18.08,0" style="fill:none;stroke:#000;stroke-miterlimit:10;stroke-width:2px"/><line x1="47.689" y1="22.743" x2="56.729" y2="121.343" style="fill:none;stroke:#000;stroke-miterlimit:10;stroke-width:2px"/><path d="M77.5,129.443a23.31,23.31,0,0,1,15.35,0" style="fill:none;stroke:#000;stroke-miterlimit:10;stroke-width:2px"/><line x1="54.949" y1="66.403" x2="59.509" y2="124.983" style="fill:none;stroke:#000;stroke-miterlimit:10;stroke-width:2px"/><line x1="72.999" y1="65.623" x2="74.849" y2="129.193" style="fill:none;stroke:#000;stroke-miterlimit:10;stroke-width:2px"/><line x1="77.509" y1="129.463" x2="76.139" y2="67.823" style="fill:none;stroke:#000;stroke-miterlimit:10;stroke-width:2px"/><line x1="94.219" y1="67.823" x2="92.849" y2="129.463" style="fill:none;stroke:#000;stroke-miterlimit:10;stroke-width:2px"/><line x1="95.739" y1="129.173" x2="97.349" y2="65.623" style="fill:none;stroke:#000;stroke-miterlimit:10;stroke-width:2px"/><line x1="110.659" y1="125.083" x2="115.409" y2="66.333" style="fill:none;stroke:#000;stroke-miterlimit:10;stroke-width:2px"/><path d="M95.739,129.173c2.19-2.23,6.57-4.27,11.67-4.27a24.18,24.18,0,0,1,3.25.18" style="fill:none;stroke:#000;stroke-linecap:round;stroke-miterlimit:10;stroke-width:2px"/><path d="M74.849,129.193c-1.91-2.58-6.69-4.46-12.27-4.46a23.217,23.217,0,0,0-3.07.25" style="fill:none;stroke:#000;stroke-linecap:round;stroke-miterlimit:10;stroke-width:2px"/></g><path d="M56.342,140.618a.646.646,0,0,1,.649-.648h4.717a.645.645,0,0,1,.648.648v.5a.646.646,0,0,1-.648.649H60.231v9.687a.645.645,0,0,1-.648.647H59.1a.645.645,0,0,1-.648-.647v-9.687H56.991a.646.646,0,0,1-.649-.649Z"/><path d="M65.306,140.618a.642.642,0,0,1,.63-.648h.5a.645.645,0,0,1,.648.648v8.193c0,.954.288,1.512,1.171,1.512.918,0,1.17-.648,1.17-1.512v-8.193a.642.642,0,0,1,.63-.648h.5a.646.646,0,0,1,.649.648v8.193c0,2.016-.864,3.294-2.953,3.294-2.161,0-2.953-1.385-2.953-3.294Z"/><path d="M77.583,152.124a.671.671,0,0,1-.612-.5l-.612-4.051v3.908a.657.657,0,0,1-.649.648h-.5a.645.645,0,0,1-.648-.648V140.637a.646.646,0,0,1,.648-.649h.54a.673.673,0,0,1,.613.5l1.422,7.256,1.4-7.256a.7.7,0,0,1,.631-.5h.54a.646.646,0,0,1,.648.649v10.839a.645.645,0,0,1-.648.648h-.5a.646.646,0,0,1-.648-.648V147.6l-.594,4a.706.706,0,0,1-.63.522Z"/><path d="M85.124,152.124a.645.645,0,0,1-.648-.648V140.637a.646.646,0,0,1,.648-.649h1.782c2.108,0,3.043,1.153,3.043,3.475a4.223,4.223,0,0,1-.773,2.593,4.161,4.161,0,0,1,.773,2.592c0,2.324-.935,3.476-3.043,3.476Zm1.152-10.353v3.384h.63c.883,0,1.243-.485,1.243-1.692s-.36-1.692-1.243-1.692Zm0,5.167v3.4h.63c.883,0,1.243-.486,1.243-1.693,0-1.223-.36-1.71-1.243-1.71Z"/><path d="M98.121,151.476a.645.645,0,0,1-.648.648H93.638a.646.646,0,0,1-.649-.648V140.637a.646.646,0,0,1,.649-.649h.522a.642.642,0,0,1,.63.649v9.7h2.683a.645.645,0,0,1,.648.648Z"/><path d="M105.465,139.988a.646.646,0,0,1,.648.649v.485a.646.646,0,0,1-.648.649H102.71v3.384h2.268a.646.646,0,0,1,.649.649v.486a.646.646,0,0,1-.649.648H102.71v3.4h2.755a.645.645,0,0,1,.648.648v.487a.645.645,0,0,1-.648.648h-3.889a.645.645,0,0,1-.648-.648V140.637a.646.646,0,0,1,.648-.649Z"/><path d="M114.9,151.458a.645.645,0,0,1-.647.647h-.5a.645.645,0,0,1-.647-.647V148.45a1.267,1.267,0,0,0-1.387-1.4H110.9v4.412a.641.641,0,0,1-.63.647h-.5a.645.645,0,0,1-.648-.647v-10.84a.645.645,0,0,1,.648-.648h2.269c2.215,0,2.988,1.117,2.988,3.529a3.556,3.556,0,0,1-.756,2.575l-.144.144a3.122,3.122,0,0,1,.774,2.232Zm-4-6.23h.811c1.008,0,1.53-.5,1.53-1.729s-.27-1.728-1.206-1.728H110.9Z"/></svg>