<svg id="Layer_1" data-name="Layer 1" xmlns="http://www.w3.org/2000/svg" viewBox="0 0 170 170"><title>baloon</title><g id="Layer_1-2" data-name="Layer 1-2"><path d="M66.738,119.358c-2.8,1.12-4.46,2.5-4.46,4" style="fill:none;stroke:#000;stroke-linecap:round;stroke-linejoin:round;stroke-width:2px"/><path d="M107.648,123.358c0-1.5-1.66-2.88-4.46-4" style="fill:none;stroke:#000;stroke-linecap:round;stroke-linejoin:round;stroke-width:2px"/><path d="M62.278,123.358c0,3.72,10.16,6.73,22.69,6.73s22.68-3,22.68-6.73" style="fill:none;stroke:#000;stroke-linecap:round;stroke-linejoin:round;stroke-width:2px"/><path d="M107.648,22.088c0-3.72-10.16-6.73-22.68-6.73s-22.69,3-22.69,6.73" style="fill:none;stroke:#000;stroke-linecap:round;stroke-linejoin:round;stroke-width:2px"/><path d="M62.278,22.088c0,3.71,10.16,6.72,22.69,6.72s22.68-3,22.68-6.72" style="fill:none;stroke:#000;stroke-linecap:round;stroke-linejoin:round;stroke-width:2px"/><path d="M107.428,21.168c14.66,27.26,17.51,59.05,11.13,67.33-7.9,10.23-22.36,7.9-26.48,15.73-1.35,2.54.33,9.4,11.11,15.13" style="fill:none;stroke:#000;stroke-linecap:round;stroke-linejoin:round;stroke-width:2px"/><path d="M62.528,21.168c-14.66,27.26-17.5,59.05-11.12,67.33,7.89,10.23,22.35,7.9,26.48,15.73,1.34,2.54-.33,9.4-11.12,15.13" style="fill:none;stroke:#000;stroke-linecap:round;stroke-linejoin:round;stroke-width:2px"/><path d="M84.968,125.808c10.14,0,18.37-2.44,18.37-5.45" style="fill:none;stroke:#000;stroke-linecap:round;stroke-linejoin:round;stroke-width:2px"/><path d="M66.588,120.358c0,2.21,4.43,4.11,10.79,5" style="fill:none;stroke:#000;stroke-linecap:round;stroke-linejoin:round;stroke-width:2px"/><path d="M69.128,98.288a57.426,57.426,0,0,0,15.19,1.74c11.16,0,16.49-1.74,16.49-1.74" style="fill:none;stroke:#000;stroke-linecap:round;stroke-linejoin:round;stroke-width:2px"/><path d="M117.758,72.978c.07,7.16-1,12.7-3.2,15.52" style="fill:none;stroke:#000;stroke-linecap:round;stroke-linejoin:round"/><path d="M105.418,25.088a124.218,124.218,0,0,1,11.88,40.28" style="fill:none;stroke:#000;stroke-linecap:round;stroke-linejoin:round"/></g><path d="M62.339,153.972a.646.646,0,0,1-.648-.649V142.484a.645.645,0,0,1,.648-.648h1.783c2.107,0,3.043,1.152,3.043,3.476a4.222,4.222,0,0,1-.774,2.592,4.16,4.16,0,0,1,.774,2.593c0,2.322-.936,3.475-3.043,3.475Zm1.153-10.354V147h.63c.882,0,1.242-.486,1.242-1.692s-.36-1.694-1.242-1.694Zm0,5.168v3.4h.63c.882,0,1.242-.486,1.242-1.692,0-1.225-.36-1.711-1.242-1.711Z"/><path d="M74.616,150.658H72.779l-.63,2.81a.713.713,0,0,1-.63.5H71a.624.624,0,0,1-.63-.775l.864-3.817,1.638-7.04a.712.712,0,0,1,.631-.5h.4a.692.692,0,0,1,.63.5l2.485,10.84a.638.638,0,0,1-.631.792h-.522a.713.713,0,0,1-.63-.5Zm-1.423-1.782H74.2c-.2-.864-.162-1.351-.5-2.881Z"/><path d="M85.092,153.323a.646.646,0,0,1-.648.649H80.608a.645.645,0,0,1-.647-.649V142.484a.645.645,0,0,1,.647-.648h.523a.642.642,0,0,1,.63.648v9.7h2.683a.646.646,0,0,1,.648.648Z"/><path d="M87.917,145.347c0-2.269.99-3.511,2.952-3.511,1.981,0,2.953,1.225,2.953,3.511v5.095a3.7,3.7,0,0,1-.937,2.81,3.157,3.157,0,0,1-4.014,0,3.7,3.7,0,0,1-.954-2.81Zm1.8,5.095c0,1.189.379,1.747,1.153,1.747.757,0,1.152-.522,1.152-1.747v-5.095c0-1.206-.378-1.729-1.152-1.729-.792,0-1.153.559-1.153,1.729Z"/><path d="M97.024,145.347c0-2.269.99-3.511,2.953-3.511,1.981,0,2.953,1.225,2.953,3.511v5.095a3.709,3.709,0,0,1-.936,2.81,3.16,3.16,0,0,1-4.016,0,3.705,3.705,0,0,1-.954-2.81Zm1.8,5.095c0,1.189.378,1.747,1.152,1.747.756,0,1.152-.522,1.152-1.747v-5.095c0-1.206-.377-1.729-1.152-1.729-.792,0-1.152.559-1.152,1.729Z"/><path d="M111.029,153.972a.74.74,0,0,1-.594-.4l-2.5-6.193v5.941a.657.657,0,0,1-.648.649h-.523a.656.656,0,0,1-.647-.649V142.484a.656.656,0,0,1,.647-.648h.433a.715.715,0,0,1,.594.4l2.5,6.194v-5.942a.645.645,0,0,1,.648-.648h.5a.645.645,0,0,1,.648.648v10.839a.646.646,0,0,1-.648.649Z"/></svg>