<svg xmlns="http://www.w3.org/2000/svg" viewBox="0 0 160.87 227.39"><defs><style>.cls-1{fill:none;stroke:#ffffff;stroke-linecap:round;stroke-linejoin:round;stroke-width:2px;}.cls-2{font-size:24px;fill:#ffffff;font-family:FilsonPro-Regular, Filson Pro;}</style></defs><g id="Layer_2" data-name="Layer 2"><g id="Layer_1-2" data-name="Layer 1"><rect class="cls-1" x="1" y="1" width="158.87" height="225.39" rx="31.02"/><path class="cls-1" d="M62.21,177.2c-2.8,1.12-4.46,2.51-4.46,4"/><path class="cls-1" d="M103.12,181.21c0-1.5-1.66-2.89-4.46-4"/><path class="cls-1" d="M57.75,181.21c0,3.71,10.16,6.72,22.69,6.72s22.68-3,22.68-6.72"/><path class="cls-1" d="M103.12,79.94c0-3.71-10.16-6.72-22.68-6.72s-22.69,3-22.69,6.72"/><path class="cls-1" d="M57.75,79.94c0,3.72,10.16,6.73,22.69,6.73s22.68-3,22.68-6.73"/><path class="cls-1" d="M57.75,79.94C56.07,100.41,38.42,115.5,43.45,137c4.63,19.79,25.75,17.22,29.88,25,1.34,2.55-.33,9.41-11.12,15.14"/><path class="cls-1" d="M80.44,183.66c10.14,0,18.37-2.44,18.37-5.45"/><path class="cls-1" d="M62.06,178.21c0,2.21,4.43,4.11,10.79,5"/><path class="cls-1" d="M62.06,155.46a71.25,71.25,0,0,0,17.73,2.41c11.16,0,17.31-1.75,17.31-1.75"/><path class="cls-1" d="M103.12,79.94c1.68,20.47,19.33,35.56,14.3,57.09-4.62,19.79-25.75,17.22-29.87,25-1.35,2.55.33,9.41,11.11,15.14"/><path class="cls-1" d="M113,124.93a34,34,0,0,1-.62,12.1,23.78,23.78,0,0,1-3.19,7.68"/><path class="cls-1" d="M98.66,84c2.28,12.45,9.87,23.1,13.14,34.86"/><text class="cls-2" transform="translate(31.23 43.61)">tulipano</text></g></g></svg>