<svg xmlns="http://www.w3.org/2000/svg" viewBox="0 0 160.87 227.39"><defs><style>.cls-1,.cls-2{fill:none;stroke:#ffffff;stroke-linecap:round;stroke-linejoin:round;}.cls-1{stroke-width:2px;}.cls-3{font-size:24px;fill:#ffffff;font-family:FilsonPro-Regular, Filson Pro;}.cls-4{letter-spacing:-0.02em;}</style></defs><g id="Layer_2" data-name="Layer 2"><g id="Layer_1-2" data-name="Layer 1"><rect class="cls-1" x="1" y="1" width="158.87" height="225.39" rx="31.02"/><path class="cls-1" d="M117.79,83.3c0-6.12-16.72-11.07-37.35-11.07s-37.35,5-37.35,11.07"/><path class="cls-1" d="M43.09,83.3c0,6.12,16.72,11.07,37.35,11.07s37.35-5,37.35-11.07"/><path class="cls-1" d="M106.06,185.65c1.9-1.13,3-2.41,3-3.75"/><path class="cls-1" d="M88.25,190c1-.08,1.94-.18,2.88-.29"/><path class="cls-1" d="M70.28,189.76c.86.1,1.73.19,2.62.26"/><path class="cls-1" d="M52.13,181.9c0,1.3,1,2.53,2.78,3.64"/><path class="cls-2" d="M71.54,128.38a9,9,0,0,1,18.08,0"/><path class="cls-2" d="M110.79,127.11c0-.31,0-.62,0-.93a9,9,0,0,0-18.09,0"/><line class="cls-1" x1="109.02" y1="181.9" x2="117.79" y2="83.3"/><path class="cls-2" d="M50.35,127c0-.25,0-.52,0-.78a9,9,0,0,1,18.08,0"/><line class="cls-1" x1="43.09" y1="83.3" x2="52.13" y2="181.9"/><path class="cls-1" d="M72.9,190a23.31,23.31,0,0,1,15.35,0"/><line class="cls-2" x1="50.35" y1="126.96" x2="54.91" y2="185.54"/><line class="cls-2" x1="68.4" y1="126.18" x2="70.25" y2="189.75"/><line class="cls-2" x1="72.91" y1="190.02" x2="71.54" y2="128.38"/><line class="cls-2" x1="89.62" y1="128.38" x2="88.25" y2="190.02"/><line class="cls-2" x1="91.14" y1="189.73" x2="92.75" y2="126.18"/><line class="cls-2" x1="106.06" y1="185.64" x2="110.81" y2="126.89"/><path class="cls-1" d="M91.14,189.73c2.19-2.23,6.57-4.27,11.67-4.27a24.41,24.41,0,0,1,3.25.18"/><path class="cls-1" d="M70.25,189.75c-1.91-2.58-6.69-4.46-12.27-4.46a23.26,23.26,0,0,0-3.07.25"/><text class="cls-3" transform="translate(35.02 43.61)">tumble<tspan class="cls-4" x="82.65" y="0">r</tspan></text></g></g></svg>