<svg id="Layer_1" data-name="Layer 1" xmlns="http://www.w3.org/2000/svg" viewBox="0 0 414.794 414.794"><title>inoculo</title><g id="Layer_1-2" data-name="Layer 1-2"><circle cx="102.972" cy="261.617" r="11.27" style="fill:#ffffff"/><path d="M40,45.5c1.21,7.85-1.21,13.14,1.1,22.27" style="fill:none;stroke:#ffffff;stroke-linecap:round;stroke-linejoin:round;stroke-width:1.7599999904632568px"/><path d="M38.822,41.067c-.16.88-1.21,3.11,0,3.77s16.5,1.18,20,.79,9.82,1.12,14.56,1.27,8.12,1.28,8-.55-1-8.11-1-8.11c-2.42-.89-9.14.29-12.21.46-4.73.31-14.96-1.23-19.67-.69C40.642,38.927,40.052,34.007,38.822,41.067Z" style="fill:none;stroke:#ffffff;stroke-linecap:round;stroke-linejoin:round;stroke-width:1.7599999904632568px"/><path d="M78.052,47.277s2.49,6.57,2.48,21.73,12.85,19.42-13.81,18.06c-17.89-.92-30.83,2.47-29.95-8,.52-6.15,3.73-10,6.12-13.66,1.64-2.55,4.3-4.75,3.54-10.6" style="fill:none;stroke:#ffffff;stroke-linecap:round;stroke-linejoin:round;stroke-width:1.7599999904632568px"/><path d="M57.332,70.727s-1.74-8.21,10.12-17.33" style="fill:none;stroke:#ffffff;stroke-linecap:round;stroke-linejoin:round;stroke-width:1.7599999904632568px"/><path d="M67.392,62.1s1.91,13.42-7.73,18.91" style="fill:none;stroke:#ffffff;stroke-linecap:round;stroke-linejoin:round;stroke-width:1.7599999904632568px"/><path d="M142.242,174.927c0,3.51-15.73,6.26-35.35,6.25h-1.35c-6.5-.36-9.3,3.21-10,3.2-1.11,0-1.63-3.59-3.58-3.76-13.48-1.19-23-3.47-23-6.21,0-3.6,16.46-6.39,36.71-6.25S142.272,171.337,142.242,174.927Z" style="fill:none;stroke:#ffffff;stroke-linecap:round;stroke-linejoin:round;stroke-width:1.7599999904632568px"/><path d="M142.142,189.477l-.21,30.39c0,3.59-16.46,6.39-36.71,6.25s-36.64-3.18-36.62-6.77l.32-44.94" style="fill:none;stroke:#ffffff;stroke-linecap:round;stroke-linejoin:round;stroke-width:1.7599999904632568px"/><line x1="142.242" y1="174.927" x2="142.202" y2="181.127" style="fill:none;stroke:#ffffff;stroke-linecap:round;stroke-linejoin:round;stroke-width:1.7599999904632568px"/><path d="M139.6,222.737c-1.14,3.76-16.06,6.64-34.28,6.51s-33.09-3.22-34.18-7" style="fill:none;stroke:#ffffff;stroke-linecap:round;stroke-linejoin:round;stroke-width:1.7599999904632568px"/><path d="M142.212,179.837l47,.34c.66,0,.92,1.18,0,2.64-1.49,2.32-5.43,5.36-8.15,5.64-4.43.47-41.69.74-41.69.74v-6.73s2.34-.31,2.82-1.34" style="fill:none;stroke:#ffffff;stroke-linecap:round;stroke-linejoin:round;stroke-width:1.7599999904632568px"/><line x1="183.622" y1="183.477" x2="189.172" y2="183.517" style="fill:none;stroke:#ffffff;stroke-linecap:round;stroke-linejoin:round;stroke-width:1.1699999570846558px"/><line x1="139.382" y1="183.157" x2="178.062" y2="183.437" style="fill:none;stroke:#ffffff;stroke-linecap:round;stroke-linejoin:round;stroke-width:1.1699999570846558px"/><path d="M60.1,99.127c-.09,12.8,36.38,12.11,37,57.82" style="fill:none;stroke:#ffffff;stroke-linecap:round;stroke-linejoin:round;stroke-width:2.3399999141693115px;stroke-dasharray:0.5899999737739563,4.690000057220459"/><polygon points="89.692 151.387 90.942 150.137 97.062 156.277 102.732 149.727 104.062 150.887 97.152 158.857 89.692 151.387" style="fill:#ffffff"/><path d="M157.352,99.817c-.09,12.8-38.47,11.58-39.83,57.28" style="fill:none;stroke:#ffffff;stroke-linecap:round;stroke-linejoin:round;stroke-width:2.3399999141693115px;stroke-dasharray:0.5899999737739563,4.690000057220459"/><polygon points="110.702 150.917 112.052 149.787 117.612 156.427 123.832 150.387 125.062 151.647 117.482 159.007 110.702 150.917" style="fill:#ffffff"/><path d="M372.122,271.637c-16.27,20-38.39,28.86-51.57,19.8" style="fill:none;stroke:#ffffff;stroke-linecap:round;stroke-linejoin:round;stroke-width:1.7599999904632568px"/><path d="M380.152,204.707c13.33,9.16,12.84,33.42-.44,56" style="fill:none;stroke:#ffffff;stroke-linecap:round;stroke-linejoin:round;stroke-width:1.7599999904632568px"/><line x1="337.832" y1="175.117" x2="380.152" y2="204.707" style="fill:none;stroke:#ffffff;stroke-miterlimit:10;stroke-width:1.7599999904632568px"/><path d="M272.632,270.927c3.75,1.86,8.58,0,11,.85s9.85,3.83,13.88,3.53l23.07,16.13" style="fill:none;stroke:#ffffff;stroke-linecap:round;stroke-linejoin:round;stroke-width:1.7599999904632568px"/><path d="M296.542,272.2a4.242,4.242,0,0,1-1.54-.45,5.183,5.183,0,0,1-2.06-1.88,4.217,4.217,0,0,1-.62-1.47v-.11h0c.76.56,1.51,1.16,2.22,1.79s1.36,1.33,2,2a.061.061,0,0,1,0,.08h-.09Z" style="fill:#ffffff"/><rect x="353.622" y="229.388" width="13.29" height="51.65" rx="1.26" transform="translate(-55.328 404.233) rotate(-55.04)" style="fill:none;stroke:#ffffff;stroke-linecap:round;stroke-linejoin:round;stroke-width:1.7599999904632568px"/><path d="M384.222,263.877l5.16,3.61a1,1,0,0,1,.325,1.376.872.872,0,0,1-.065.094l-6.4,9.16a1.07,1.07,0,0,1-1.48.26l-5.16-3.61" style="fill:none;stroke:#ffffff;stroke-linecap:round;stroke-linejoin:round;stroke-width:1.7599999904632568px"/><path d="M315,256.107s-22.08-.19-28.16,1c-17.84,3.44-22.84,14.47-23.66,31.25-.7,13.8-.4,57.85-.4,57.85" style="fill:none;stroke:#ffffff;stroke-linecap:round;stroke-linejoin:round;stroke-width:1.7599999904632568px"/><path d="M267.942,313.607c42.84.61,77.06,8,77,16.86-.07,9-35.92,16.06-80.07,15.75S185,338.337,185,329.327c.06-8.85,34.64-15.81,77.7-15.76" style="fill:none;stroke:#ffffff;stroke-miterlimit:10;stroke-width:1.7599999904632568px"/><path d="M344.7,368.937c.13-21,.24-38.47.24-38.47" style="fill:none;stroke:#ffffff;stroke-miterlimit:10;stroke-width:1.7599999904632568px"/><path d="M344.392,414.777c.09-11.72.18-26,.27-39.4" style="fill:none;stroke:#ffffff;stroke-miterlimit:10;stroke-width:1.7599999904632568px"/><path d="M184.722,367.8c.16-21,.31-38.47.31-38.47" style="fill:none;stroke:#ffffff;stroke-miterlimit:10;stroke-width:1.7599999904632568px"/><path d="M184.372,413.647c.08-11.73.19-26,.29-39.4" style="fill:none;stroke:#ffffff;stroke-miterlimit:10;stroke-width:1.7599999904632568px"/><path d="M185.222,348.517l-8.23-.06c-8.22-.06-14.91,3.67-15,11.89v1.74c-.06,8.22,6.58,12,14.8,12.1l14.06.1a3.22,3.22,0,0,0,0-6.44h0l-14.06-.1c-4.65,0-8.43-1-8.39-5.61V360.4c0-4.66,3.82-5.53,8.47-5.49l8.23.05" style="fill:none;stroke:#ffffff;stroke-miterlimit:10;stroke-width:1.7599999904632568px"/><path d="M344.472,349.647l8.23.06c8.22.06,14.86,3.88,14.8,12.1v1.74c-.06,8.22-6.75,11.95-15,11.89l-7.85-.06h-6.21a3.22,3.22,0,1,1,.05-6.44l14.05.1c4.65,0,8.45-.84,8.48-5.49V361.8c0-4.65-3.74-5.57-8.4-5.61l-8.22-.05" style="fill:none;stroke:#ffffff;stroke-miterlimit:10;stroke-width:1.7599999904632568px"/><path d="M40.332,37.247c14.16-4,18-1.69,28.15-1.77s11.64,1.1,11.88,2.76" style="fill:none;stroke:#ffffff;stroke-linecap:round;stroke-linejoin:round;stroke-width:1.7599999904632568px"/><path d="M273.062,262.917c.6-2.51,1.09-4.81.54-5.55-9.09-12.19-6-35.81,8.41-56.77,16.46-24,41.45-35.36,55.82-25.48s12.67,37.29-3.83,61.24c-14.4,21-35.33,32.31-50,28.2-2-.55-9,6.42-11.4,6.3" style="fill:none;stroke:#ffffff;stroke-miterlimit:10;stroke-width:1.7599999904632568px"/><path d="M273.642,260.227c1.72-4.06-3.11-8.61-3.28-9-5.25-11.69.21-34,12.48-51.81,15.44-22.47,38.16-32.6,53-25.52,16.28,7.79,14.82,37.89-.63,60.36A94.4,94.4,0,0,1,315,256.107s-12.52-.34-23.74.33a61.325,61.325,0,0,0-8.56,1.64c-4.3,1-9.67,4.84-9.67,4.84" style="fill:#ffffff;opacity:0.5;isolation:isolate"/><path d="M262.782,346.2c-43.19-.54-77.82-8-77.75-16.87s34.64-15.81,77.7-15.76" style="fill:#ffffff;opacity:0.5;isolation:isolate"/><path d="M267.942,313.607c42.84.61,77.06,8,77,16.86s-34.25,15.73-77,15.76" style="fill:#ffffff;opacity:0.5;isolation:isolate"/><path d="M162.862,68.587a5.752,5.752,0,0,1-2.44,6" style="fill:none;stroke:#ffffff;stroke-linecap:round;stroke-linejoin:round;stroke-width:1.7599999904632568px"/><path d="M167.172,70.187a9.82,9.82,0,0,1-19.64,0c0-8.24,9.82-21,9.82-26.74C157.352,49.147,167.172,61.947,167.172,70.187Z" style="fill:none;stroke:#ffffff;stroke-linecap:round;stroke-linejoin:round;stroke-width:1.7599999904632568px"/><path d="M275.7,269.517c-6.23,0-7.36,13.61-7.36,24.3,0,13.92-.38,52.43-.38,52.43" style="fill:none;stroke:#ffffff;stroke-linecap:round;stroke-linejoin:round;stroke-width:1.7599999904632568px"/><path d="M142.242,174.927c0,3.51-15.73,6.26-35.35,6.25h-1.35c-6.5-.36-9.3,3.21-10,3.2-1.11,0-1.63-3.59-3.58-3.76-13.48-1.19-23-3.47-23-6.21,0-3.6,16.46-6.39,36.71-6.25S142.272,171.337,142.242,174.927Z" style="fill:#ffffff;opacity:0.5;isolation:isolate"/><path d="M95.342,184.427s.7,6.25.7,13.8" style="fill:none;stroke:#ffffff;stroke-linecap:round;stroke-linejoin:round;stroke-width:1.1699999570846558px"/><path d="M91.132,183.007c0,3.53,1.46,4.52,1.86,9.45s1.94,8.72,3.07,8.72,3-2.43,3.77-8.07,3.06-7.49,3.06-9.79" style="fill:none;stroke:#ffffff;stroke-linecap:round;stroke-linejoin:round;stroke-width:1.1699999570846558px"/><g style="isolation:isolate"><path d="M105.675,267.892l-1.494-.011.068-9.521a7.712,7.712,0,0,1-1.423,1.019,10.087,10.087,0,0,1-1.578.761l.011-1.444a9.056,9.056,0,0,0,2.2-1.412,5.619,5.619,0,0,0,1.34-1.618l.963.007Z" style="fill:#fff"/></g><circle cx="320.552" cy="142.297" r="11.27" style="fill:#ffffff"/><g style="isolation:isolate"><path d="M323.86,146.993l-.01,1.435-8.043-.058a2.623,2.623,0,0,1,.181-1.035,5.463,5.463,0,0,1,1-1.612,15.34,15.34,0,0,1,1.967-1.829,16.482,16.482,0,0,0,2.7-2.558,3.09,3.09,0,0,0,.711-1.792,2,2,0,0,0-.624-1.5,2.3,2.3,0,0,0-1.652-.622,2.34,2.34,0,0,0-1.732.636,2.459,2.459,0,0,0-.668,1.789l-1.534-.17a3.787,3.787,0,0,1,1.206-2.61,4.047,4.047,0,0,1,2.77-.881,3.862,3.862,0,0,1,2.765.991,3.191,3.191,0,0,1,1,2.415,3.657,3.657,0,0,1-.309,1.434,5.553,5.553,0,0,1-1,1.479,24.23,24.23,0,0,1-2.319,2.124q-1.353,1.119-1.738,1.52a4.858,4.858,0,0,0-.636.8Z" style="fill:#fff"/></g></g><path d="M37.881,23.841V10.956h1.582V23.841Z" style="fill:#ffffff"/><path d="M42.824,12.776v-1.82h1.582v1.82Zm0,11.065V14.507h1.582v9.334Z" style="fill:#ffffff"/><path d="M54.1,20.835l1.635.2a3.988,3.988,0,0,1-1.433,2.224,4.853,4.853,0,0,1-5.919-.47,4.928,4.928,0,0,1-1.2-3.538A5.155,5.155,0,0,1,48.4,15.6a4.1,4.1,0,0,1,3.146-1.3,3.99,3.99,0,0,1,3.059,1.275,5.063,5.063,0,0,1,1.186,3.586c0,.093,0,.234-.008.421H48.822a3.581,3.581,0,0,0,.87,2.356,2.588,2.588,0,0,0,1.951.817,2.418,2.418,0,0,0,1.485-.457A3.03,3.03,0,0,0,54.1,20.835ZM48.91,18.278h5.211a3.164,3.164,0,0,0-.6-1.767,2.426,2.426,0,0,0-1.96-.914,2.511,2.511,0,0,0-1.833.73A2.882,2.882,0,0,0,48.91,18.278Z" style="fill:#ffffff"/><path d="M61.218,23.841l-3.551-9.334h1.67l2,5.59q.325.906.6,1.881.21-.738.589-1.775l2.074-5.7h1.626L62.7,23.841Z" style="fill:#ffffff"/><path d="M68.534,12.776v-1.82h1.582v1.82Zm0,11.065V14.507h1.582v9.334Z" style="fill:#ffffff"/><path d="M76.878,22.426l.229,1.4a5.916,5.916,0,0,1-1.195.14,2.711,2.711,0,0,1-1.336-.272,1.526,1.526,0,0,1-.668-.717,5.648,5.648,0,0,1-.194-1.867v-5.37h-1.16V14.507h1.16V12.2l1.573-.95v3.261h1.591v1.231H75.287V21.2a2.742,2.742,0,0,0,.084.87.657.657,0,0,0,.272.307,1.046,1.046,0,0,0,.541.115A5.154,5.154,0,0,0,76.878,22.426Z" style="fill:#ffffff"/><path d="M78.736,19.174a4.812,4.812,0,0,1,1.442-3.841A4.343,4.343,0,0,1,83.113,14.3a4.193,4.193,0,0,1,3.147,1.261,4.8,4.8,0,0,1,1.221,3.485,6.182,6.182,0,0,1-.54,2.835,3.836,3.836,0,0,1-1.573,1.6,4.581,4.581,0,0,1-2.255.571A4.194,4.194,0,0,1,79.945,22.8,5.019,5.019,0,0,1,78.736,19.174Zm1.626,0a3.976,3.976,0,0,0,.782,2.685,2.605,2.605,0,0,0,3.929,0,4.069,4.069,0,0,0,.782-2.734,3.858,3.858,0,0,0-.786-2.623,2.609,2.609,0,0,0-3.925,0A3.958,3.958,0,0,0,80.362,19.174Z" style="fill:#ffffff"/><path d="M139.381,22.69a5.915,5.915,0,0,1-1.692,1.055,4.893,4.893,0,0,1-1.745.307,3.394,3.394,0,0,1-2.364-.751,2.48,2.48,0,0,1-.826-1.921,2.553,2.553,0,0,1,.312-1.252,2.586,2.586,0,0,1,.817-.91,3.861,3.861,0,0,1,1.138-.518,11.282,11.282,0,0,1,1.407-.238,14.437,14.437,0,0,0,2.821-.545c.006-.216.009-.354.009-.413a1.747,1.747,0,0,0-.449-1.362,2.647,2.647,0,0,0-1.8-.536A2.792,2.792,0,0,0,135.36,16a2.388,2.388,0,0,0-.787,1.384l-1.547-.211a3.834,3.834,0,0,1,.695-1.6,3.046,3.046,0,0,1,1.4-.94,6.222,6.222,0,0,1,2.118-.33,5.6,5.6,0,0,1,1.943.282,2.551,2.551,0,0,1,1.1.707,2.471,2.471,0,0,1,.492,1.077,8.844,8.844,0,0,1,.08,1.459V19.93a22.277,22.277,0,0,0,.1,2.791,3.492,3.492,0,0,0,.4,1.12H139.7A3.358,3.358,0,0,1,139.381,22.69Zm-.132-3.533a11.634,11.634,0,0,1-2.584.6,5.953,5.953,0,0,0-1.38.317,1.377,1.377,0,0,0-.624.514,1.4,1.4,0,0,0,.259,1.806,2.064,2.064,0,0,0,1.4.422,3.255,3.255,0,0,0,1.626-.4,2.463,2.463,0,0,0,1.046-1.094,3.823,3.823,0,0,0,.255-1.582Z" style="fill:#ffffff"/><path d="M150.291,20.422l1.556.2a4.033,4.033,0,0,1-1.305,2.518,3.8,3.8,0,0,1-2.58.91,4.006,4.006,0,0,1-3.08-1.252,5.08,5.08,0,0,1-1.165-3.591,6.5,6.5,0,0,1,.5-2.645,3.492,3.492,0,0,1,1.525-1.7,4.524,4.524,0,0,1,2.228-.567,3.875,3.875,0,0,1,2.487.769,3.528,3.528,0,0,1,1.24,2.184l-1.538.238a2.556,2.556,0,0,0-.778-1.415,2.01,2.01,0,0,0-1.349-.475,2.458,2.458,0,0,0-1.943.857,4.067,4.067,0,0,0-.747,2.711,4.2,4.2,0,0,0,.721,2.734,2.345,2.345,0,0,0,1.881.852,2.214,2.214,0,0,0,1.555-.571A2.834,2.834,0,0,0,150.291,20.422Z" style="fill:#ffffff"/><path d="M160.051,27.418v-4.57a2.825,2.825,0,0,1-1.033.861,3.026,3.026,0,0,1-1.411.343,3.73,3.73,0,0,1-2.861-1.327,5.231,5.231,0,0,1-1.2-3.639,6.224,6.224,0,0,1,.488-2.522,3.635,3.635,0,0,1,1.415-1.692,3.779,3.779,0,0,1,2.034-.576,3.127,3.127,0,0,1,2.725,1.459V14.507h1.424V27.418Zm-4.878-8.27a4.122,4.122,0,0,0,.756,2.7,2.29,2.29,0,0,0,1.81.9,2.213,2.213,0,0,0,1.74-.857,3.942,3.942,0,0,0,.73-2.606,4.35,4.35,0,0,0-.769-2.8,2.281,2.281,0,0,0-1.806-.941,2.181,2.181,0,0,0-1.745.875A4.273,4.273,0,0,0,155.173,19.148Z" style="fill:#ffffff"/><path d="M171.129,23.841V22.47a3.416,3.416,0,0,1-2.962,1.582,3.776,3.776,0,0,1-1.543-.316,2.535,2.535,0,0,1-1.063-.8,2.972,2.972,0,0,1-.488-1.173,8.075,8.075,0,0,1-.1-1.477V14.507h1.582v5.177a9.261,9.261,0,0,0,.1,1.67,1.652,1.652,0,0,0,.633.98,1.962,1.962,0,0,0,1.195.356,2.6,2.6,0,0,0,1.336-.365,2.029,2.029,0,0,0,.884-.993,5,5,0,0,0,.259-1.824v-5h1.582v9.334Z" style="fill:#ffffff"/><path d="M182.013,22.69a5.915,5.915,0,0,1-1.692,1.055,4.887,4.887,0,0,1-1.744.307,3.4,3.4,0,0,1-2.365-.751,2.483,2.483,0,0,1-.826-1.921,2.553,2.553,0,0,1,.312-1.252,2.588,2.588,0,0,1,.818-.91,3.838,3.838,0,0,1,1.138-.518,11.225,11.225,0,0,1,1.406-.238,14.421,14.421,0,0,0,2.821-.545c.006-.216.009-.354.009-.413a1.746,1.746,0,0,0-.448-1.362,2.652,2.652,0,0,0-1.8-.536,2.794,2.794,0,0,0-1.648.391,2.393,2.393,0,0,0-.787,1.384l-1.546-.211a3.833,3.833,0,0,1,.694-1.6,3.046,3.046,0,0,1,1.4-.94,6.233,6.233,0,0,1,2.119-.33,5.594,5.594,0,0,1,1.942.282,2.562,2.562,0,0,1,1.1.707,2.494,2.494,0,0,1,.492,1.077,8.994,8.994,0,0,1,.079,1.459V19.93a22.486,22.486,0,0,0,.1,2.791,3.516,3.516,0,0,0,.4,1.12h-1.653A3.358,3.358,0,0,1,182.013,22.69Zm-.132-3.533a11.62,11.62,0,0,1-2.584.6,5.953,5.953,0,0,0-1.38.317,1.377,1.377,0,0,0-.624.514,1.4,1.4,0,0,0,.26,1.806,2.06,2.06,0,0,0,1.4.422,3.255,3.255,0,0,0,1.626-.4,2.458,2.458,0,0,0,1.046-1.094,3.823,3.823,0,0,0,.255-1.582Z" style="fill:#ffffff"/></svg>