<svg id="Layer_1" data-name="Layer 1" xmlns="http://www.w3.org/2000/svg" viewBox="0 0 242.929 242.929"><title>maturazione</title><g id="Layer_1-2" data-name="Layer 1-2"><path d="M221.95,87.645l-11.77-21.44c-2.53-4.52-4.38-40-4.38-45.17l2-4.48c.45-.93-.12-3.88-.12-4.92v-.23l.51-.65,2.64-.47-1.48-6.28c-.62-2.26-6.89-3.14-15.39-3.14s-14.69.96-15.38,3.14l-1.52,6.26,2.64.47.47.6-.07.28a24.5,24.5,0,0,0,1.25,5.69l1.8,3.71c0,5.19-3.67,40.65-6.2,45.17l-3.82,7c-1.25-12.17-2-28.51-2-31.9l2-4.48c.45-.93-.12-3.88-.12-4.92v-.25l.49-.63,2.64-.47-1.52-6.26c-.62-2.26-6.89-3.14-15.38-3.14s-14.74.94-15.39,3.14l-1.52,6.26,2.64.47.48.62-.06.26a23.961,23.961,0,0,0,1.25,5.69l1.79,3.71c0,4-2.16,25.83-4.31,37.8l-6.62-12c-2.53-4.52-4.38-40-4.38-45.17l2.05-4.49c.45-.93-.12-3.88-.12-4.92v-.32l1.07-1.36,2.64-.47-1.49-6.35c-.61-2.26-6.88-3.14-15.38-3.14s-14.78.96-15.42,3.14l-1.53,6.26,2.65.47.19.25-.35,1.43a24.622,24.622,0,0,0,1.24,5.7l1.8,3.71c0,5.18-3.67,40.67-6.2,45.18l-3.27,6c-1.24-12.15-2-28.34-2-31.71l2-4.48c.45-.93-.12-3.88-.12-4.92v-.25l.49-.63,2.64-.47-1.52-6.26c-.62-2.26-6.89-3.14-15.39-3.14s-14.74.94-15.38,3.14l-1.45,6.23,2.64.47.48.62-.06.26a24.426,24.426,0,0,0,1.24,5.69l1.8,3.71c0,3.82-2,24.05-4,36.26l-6.31-11.32c-2.53-4.52-4.38-40-4.38-45.17l2-4.48c.46-.93-.12-3.88-.12-4.92v-.37l.41-.51,2.64-.47-1.49-6.28c-.61-2.24-6.85-3.12-15.38-3.12S35,1.825,34.36,4.005l-1.53,6.26,2.64.47.56.71-.05.17a24.471,24.471,0,0,0,1.29,5.71l1.76,3.68c0,5.19-3.67,40.65-6.2,45.17L21.06,87.645a24.472,24.472,0,0,0-2.79,11.44v106a19.118,19.118,0,0,0,2.13,8.77l1.16,2.25c0,3.15,12.5,5.7,27.92,5.7q3.129,0,6.08-.14v3.65a19.118,19.118,0,0,0,2.13,8.77l1.16,2.25c0,3.14,12.5,5.7,27.93,5.7s27.92-2.56,27.92-5.7l1.17-2.25a19.131,19.131,0,0,0,2.13-8.77v-2.74h2.93q3.5,0,6.74-.17v2.88a19.118,19.118,0,0,0,2.13,8.77l1.16,2.25c0,3.14,12.51,5.7,27.93,5.7s27.93-2.56,27.93-5.7l1.16-2.25a19.131,19.131,0,0,0,2.13-8.77v-3.56h3.49c15.43,0,27.93-2.55,27.93-5.7l1.16-2.25a19.131,19.131,0,0,0,2.13-8.77v-106A24.5,24.5,0,0,0,221.95,87.645Z" style="fill:#ffffff;opacity:0.5;isolation:isolate"/><path d="M72.15,77.555l-6.19-11.27c-2.53-4.52-5-41-5-46.21l1.8-3.71a16.831,16.831,0,0,0,.69-4.75" style="fill:none;stroke:#ffffff;stroke-linecap:round;stroke-linejoin:round;stroke-width:1.7599999904632568px"/><path d="M35.83,11.615a16.79,16.79,0,0,0,.68,4.75l1.76,3.71c0,5.18-3,41.69-5.57,46.21L20.98,87.705a24.466,24.466,0,0,0-2.83,11.43v106a19,19,0,0,0,2.12,8.74l1.16,2.25c0,3.15,12.5,5.7,27.91,5.7q3.2,0,6.18-.14" style="fill:none;stroke:#ffffff;stroke-linecap:round;stroke-linejoin:round;stroke-width:1.7599999904632568px"/><path d="M55.53,21.115c-1.34.09-2.78.14-4.27.14s-2.92-.05-4.27-.14" style="fill:none;stroke:#ffffff;stroke-linecap:round;stroke-linejoin:round;stroke-width:1.1699999570846558px"/><path d="M65.12,4.005c0,1.73-6.89,3.14-15.38,3.14s-15.38-1.39-15.38-3.14" style="fill:none;stroke:#ffffff;stroke-linecap:round;stroke-linejoin:round;stroke-width:1.1699999570846558px"/><path d="M32.83,10.285l2.64.47,2.27,2.88,3.28-1.71,2.72,2.49,3.08-2,2.92,2.26,2.92-2.26,3.09,2,2.72-2.5,3.27,1.72,2.27-2.88,2.64-.47-1.53-6.28c-.61-2.24-6.85-3.12-15.38-3.12S35,1.825,34.36,4.005Z" style="fill:none;stroke:#ffffff;stroke-linecap:round;stroke-linejoin:round;stroke-width:1.7599999904632568px"/><path d="M144.27,77.555l-6.2-11.27c-2.53-4.52-5-41-5-46.21l1.79-3.71a16.831,16.831,0,0,0,.69-4.75" style="fill:none;stroke:#ffffff;stroke-linecap:round;stroke-linejoin:round;stroke-width:1.7599999904632568px"/><path d="M117.94,221.775h3.52q3.189,0,6.18-.14" style="fill:none;stroke:#ffffff;stroke-linecap:round;stroke-linejoin:round;stroke-width:1.7599999904632568px"/><path d="M107.94,11.615a16.759,16.759,0,0,0,.69,4.75l1.79,3.71c0,5.18-3,41.69-5.56,46.21l-4,7.2" style="fill:none;stroke:#ffffff;stroke-linecap:round;stroke-linejoin:round;stroke-width:1.7599999904632568px"/><path d="M127.64,21.115c-1.34.09-2.78.14-4.27.14s-2.92-.05-4.26-.14" style="fill:none;stroke:#ffffff;stroke-linecap:round;stroke-linejoin:round;stroke-width:1.1699999570846558px"/><path d="M137.27,4.005c0,1.73-6.88,3.14-15.38,3.14s-15.42-1.39-15.42-3.14" style="fill:none;stroke:#ffffff;stroke-linecap:round;stroke-linejoin:round;stroke-width:1.1699999570846558px"/><path d="M104.94,10.285l2.65.47,2.26,2.88,3.28-1.71,2.72,2.49,3.08-2,2.92,2.26,2.93-2.26,3.08,2,2.72-2.5,3.27,1.72,2.27-2.88,2.64-.47-1.49-6.28c-.61-2.26-6.88-3.14-15.38-3.14s-14.78.96-15.42,3.14Z" style="fill:none;stroke:#ffffff;stroke-linecap:round;stroke-linejoin:round;stroke-width:1.7599999904632568px"/><path d="M190.05,221.775h3.53c15.41,0,27.91-2.55,27.91-5.7l1.16-2.25a19.009,19.009,0,0,0,2.13-8.76v-106a24.49,24.49,0,0,0-2.83-11.43l-11.77-21.35c-2.53-4.52-5-41-5-46.21l1.79-3.71a16.469,16.469,0,0,0,.69-4.75" style="fill:none;stroke:#ffffff;stroke-linecap:round;stroke-linejoin:round;stroke-width:1.7599999904632568px"/><path d="M180.05,11.615a16.759,16.759,0,0,0,.69,4.75l1.79,3.71c0,5.18-3,41.69-5.56,46.21l-4,7.2" style="fill:none;stroke:#ffffff;stroke-linecap:round;stroke-linejoin:round;stroke-width:1.7599999904632568px"/><path d="M199.76,21.115c-1.35.09-2.79.14-4.28.14s-2.92-.05-4.26-.14" style="fill:none;stroke:#ffffff;stroke-linecap:round;stroke-linejoin:round;stroke-width:1.1699999570846558px"/><path d="M209.35,4.005c0,1.73-6.89,3.14-15.39,3.14s-15.38-1.39-15.38-3.14" style="fill:none;stroke:#ffffff;stroke-linecap:round;stroke-linejoin:round;stroke-width:1.1699999570846558px"/><path d="M177.06,10.285l2.64.47,2.26,2.88,3.31-1.71,2.72,2.49,3.08-2,2.92,2.26,2.93-2.26,3.08,2,2.72-2.5,3.27,1.72,2.28-2.88,2.64-.47-1.56-6.28c-.62-2.26-6.89-3.14-15.39-3.14s-14.69.96-15.38,3.14Z" style="fill:none;stroke:#ffffff;stroke-linecap:round;stroke-linejoin:round;stroke-width:1.7599999904632568px"/><path d="M145.33,31.845a16.79,16.79,0,0,0,.68,4.75l1.8,3.71c0,5.18-3,41.69-5.57,46.21l-11.76,21.42a24.47,24.47,0,0,0-2.84,11.43v106a19.159,19.159,0,0,0,2.13,8.76l1.17,2.25c0,3.15,12.49,5.7,27.91,5.7s27.91-2.55,27.91-5.7l1.16-2.25a19.009,19.009,0,0,0,2.13-8.76v-106a24.489,24.489,0,0,0-2.78-11.43l-11.81-21.42c-2.53-4.52-5-41-5-46.21l1.8-3.71a16.79,16.79,0,0,0,.68-4.75" style="fill:none;stroke:#ffffff;stroke-linecap:round;stroke-linejoin:round;stroke-width:1.7599999904632568px"/><path d="M165.03,41.345c-1.35.09-2.78.13-4.28.13s-2.92,0-4.26-.13" style="fill:none;stroke:#ffffff;stroke-linecap:round;stroke-linejoin:round;stroke-width:1.1699999570846558px"/><path d="M174.62,24.255c0,1.73-6.89,3.14-15.38,3.14s-15.39-1.39-15.39-3.14" style="fill:none;stroke:#ffffff;stroke-linecap:round;stroke-linejoin:round;stroke-width:1.1699999570846558px"/><path d="M142.33,30.515l2.64.47,2.3,2.88,3.27-1.71,2.73,2.49,3.07-2,2.93,2.22,2.92-2.26,3.08,2L168,32.1l3.27,1.76,2.23-2.86,2.64-.47-1.52-6.26c-.62-2.26-6.89-3.14-15.38-3.14s-14.74.94-15.39,3.14Z" style="fill:none;stroke:#ffffff;stroke-linecap:round;stroke-linejoin:round;stroke-width:1.7599999904632568px"/><path d="M73.21,31.845a16.759,16.759,0,0,0,.69,4.75l1.79,3.71c0,5.18-3,41.69-5.56,46.21l-11.77,21.42a24.466,24.466,0,0,0-2.83,11.43v106a19,19,0,0,0,2.13,8.76l1.16,2.25c0,3.15,12.5,5.7,27.92,5.7s27.91-2.55,27.91-5.7l1.16-2.25a19.009,19.009,0,0,0,2.13-8.76v-106a24.49,24.49,0,0,0-2.83-11.43l-11.77-21.42c-2.53-4.52-5-41-5-46.21l1.79-3.71a16.469,16.469,0,0,0,.69-4.75" style="fill:none;stroke:#ffffff;stroke-linecap:round;stroke-linejoin:round;stroke-width:1.7599999904632568px"/><path d="M92.92,41.345c-1.35.09-2.79.13-4.28.13s-2.92,0-4.26-.13" style="fill:none;stroke:#ffffff;stroke-linecap:round;stroke-linejoin:round;stroke-width:1.1699999570846558px"/><path d="M102.51,24.255c0,1.73-6.89,3.14-15.39,3.14s-15.38-1.39-15.38-3.14" style="fill:none;stroke:#ffffff;stroke-linecap:round;stroke-linejoin:round;stroke-width:1.1699999570846558px"/><path d="M70.27,30.515l2.64.47,2.26,2.88,3.28-1.71,2.72,2.49,3.08-2,2.92,2.26,2.93-2.26,3.08,2,2.72-2.5,3.27,1.72,2.22-2.86,2.64-.47-1.52-6.26c-.62-2.26-6.89-3.14-15.39-3.14s-14.73.94-15.38,3.14Z" style="fill:none;stroke:#ffffff;stroke-linecap:round;stroke-linejoin:round;stroke-width:1.7599999904632568px"/></g></svg>