<svg xmlns="http://www.w3.org/2000/svg" xmlns:xlink="http://www.w3.org/1999/xlink" viewBox="0 0 387.79 322.22"><defs><style>.cls-1,.cls-10,.cls-13,.cls-17,.cls-5,.cls-6,.cls-7{fill:none;}.cls-14,.cls-2,.cls-3,.cls-8{fill:#ffffff;}.cls-3{opacity:0.5;}.cls-4{fill:url(#USGS_22_Gravel_Beach_4);}.cls-10,.cls-12,.cls-13,.cls-17,.cls-5,.cls-6,.cls-7{stroke:#ffffff;}.cls-10,.cls-13,.cls-5,.cls-6,.cls-7{stroke-linecap:round;stroke-linejoin:round;}.cls-10,.cls-12,.cls-13,.cls-17,.cls-5{stroke-width:2.34px;}.cls-6,.cls-7{stroke-width:1.76px;}.cls-7{stroke-dasharray:0.23 3.49;}.cls-8{font-size:13.73px;}.cls-14,.cls-8{font-family:FilsonPro-Regular, Filson Pro;}.cls-9{letter-spacing:-0.01em;}.cls-10{stroke-dasharray:0.6 5.97;}.cls-11{letter-spacing:-0.01em;}.cls-12,.cls-17{stroke-miterlimit:10;}.cls-12{fill:url(#USGS_22_Gravel_Beach_4-3);}.cls-13{stroke-dasharray:0.59 5.86;}.cls-14{font-size:11.77px;}.cls-15{letter-spacing:0em;}.cls-16{letter-spacing:-0.01em;}</style><pattern id="USGS_22_Gravel_Beach_4" data-name="USGS 22 Gravel Beach 4" width="72" height="72" patternTransform="translate(-162.92 -127.41) scale(0.83)" patternUnits="userSpaceOnUse" viewBox="0 0 72 72"><rect class="cls-1" width="72" height="72"/><path class="cls-2" d="M72.25,58a.35.35,0,0,1-.25-.6.38.38,0,0,1,.5,0,.35.35,0,0,1-.25.6Z"/><path class="cls-2" d="M20.75,3.22a.39.39,0,0,1-.25-.1.36.36,0,0,1,0-.5.36.36,0,0,1,.6.25.39.39,0,0,1-.1.25A.39.39,0,0,1,20.75,3.22Z"/><path class="cls-2" d="M19.75,8.47a.34.34,0,0,1-.35-.35.33.33,0,0,1,.11-.25.37.37,0,0,1,.49,0,.36.36,0,0,1,.1.25.39.39,0,0,1-.1.25A.37.37,0,0,1,19.75,8.47Z"/><path class="cls-2" d="M20,10.72a.35.35,0,0,1-.25-.6.37.37,0,0,1,.5,0,.35.35,0,0,1-.25.6Z"/><path class="cls-2" d="M15,10.72a.34.34,0,0,1-.35-.35.37.37,0,0,1,.1-.25.38.38,0,0,1,.5,0,.35.35,0,0,1-.25.6Z"/><path class="cls-2" d="M22.5,20.22a.35.35,0,0,1-.25-.6.36.36,0,0,1,.6.25.34.34,0,0,1-.35.35Z"/><path class="cls-2" d="M15,23.22a.34.34,0,0,1-.35-.35.33.33,0,0,1,.11-.25.37.37,0,0,1,.49,0,.36.36,0,0,1,.1.25.34.34,0,0,1-.35.35Z"/><path class="cls-2" d="M13.75,24.22a.35.35,0,0,1-.25-.6.36.36,0,0,1,.6.25.39.39,0,0,1-.1.25A.37.37,0,0,1,13.75,24.22Z"/><path class="cls-2" d="M23.75,27.22a.34.34,0,0,1-.35-.35.33.33,0,0,1,.11-.25.37.37,0,0,1,.49,0,.39.39,0,0,1,.1.25.35.35,0,0,1-.1.24A.36.36,0,0,1,23.75,27.22Z"/><path class="cls-2" d="M30.5,26a.35.35,0,0,1-.25-.6.36.36,0,0,1,.6.25.34.34,0,0,1-.35.35Z"/><path class="cls-2" d="M31,23.47a.34.34,0,0,1-.35-.35.33.33,0,0,1,.11-.25.35.35,0,0,1,.59.25.39.39,0,0,1-.1.25A.37.37,0,0,1,31,23.47Z"/><path class="cls-2" d="M29,18.47a.35.35,0,0,1-.25-.6.36.36,0,0,1,.6.25.34.34,0,0,1-.35.35Z"/><path class="cls-2" d="M33.75,20a.35.35,0,0,1-.25-.6.36.36,0,0,1,.6.25.34.34,0,0,1-.35.35Z"/><path class="cls-2" d="M31.25,15a.35.35,0,0,1-.25-.6.36.36,0,0,1,.6.25.34.34,0,0,1-.35.35Z"/><path class="cls-2" d="M31.5,12a.35.35,0,0,1-.25-.6.37.37,0,0,1,.5,0,.35.35,0,0,1-.25.6Z"/><path class="cls-2" d="M32,7.22a.35.35,0,0,1-.25-.6.36.36,0,0,1,.6.25.34.34,0,0,1-.35.35Z"/><path class="cls-2" d="M31.75,3.22a.39.39,0,0,1-.25-.1.39.39,0,0,1-.1-.25.33.33,0,0,1,.11-.25.35.35,0,0,1,.59.25.39.39,0,0,1-.1.25A.39.39,0,0,1,31.75,3.22Z"/><path class="cls-2" d="M33.75,1.47a.36.36,0,0,1-.25-.11.33.33,0,0,1-.1-.24.33.33,0,0,1,.11-.25.36.36,0,0,1,.49,0,.36.36,0,0,1,.1.25.34.34,0,0,1-.11.25A.35.35,0,0,1,33.75,1.47Z"/><path class="cls-2" d="M41.25,7.22a.39.39,0,0,1-.25-.1.35.35,0,0,1-.1-.25.39.39,0,0,1,.1-.25.35.35,0,0,1,.49,0,.36.36,0,0,1,.11.25.34.34,0,0,1-.35.35Z"/><path class="cls-2" d="M45.25,7a.39.39,0,0,1-.25-.1.36.36,0,0,1,0-.5.36.36,0,0,1,.6.25.34.34,0,0,1-.35.35Z"/><path class="cls-2" d="M42.25,13.72a.34.34,0,0,1-.35-.35.33.33,0,0,1,.11-.25.35.35,0,0,1,.59.25.34.34,0,0,1-.35.35Z"/><path class="cls-2" d="M46.75,14.47a.34.34,0,0,1-.35-.35.33.33,0,0,1,.11-.25.36.36,0,0,1,.49,0,.39.39,0,0,1,.1.25.33.33,0,0,1-.1.24A.36.36,0,0,1,46.75,14.47Z"/><path class="cls-2" d="M46.75,16.47a.34.34,0,0,1-.35-.35.33.33,0,0,1,.11-.25.36.36,0,0,1,.49,0,.39.39,0,0,1,.1.25.37.37,0,0,1-.1.24A.36.36,0,0,1,46.75,16.47Z"/><path class="cls-2" d="M38.75,21a.35.35,0,0,1-.25-.6.36.36,0,0,1,.49,0,.34.34,0,0,1,.11.25.34.34,0,0,1-.35.35Z"/><path class="cls-2" d="M50,13.72a.39.39,0,0,1-.25-.1.36.36,0,0,1,0-.5.37.37,0,0,1,.5,0,.35.35,0,0,1-.25.6Z"/><path class="cls-2" d="M52,12.22a.36.36,0,0,1-.25-.11.35.35,0,0,1-.1-.24.33.33,0,0,1,.11-.25.37.37,0,0,1,.49,0,.36.36,0,0,1,.1.25.34.34,0,0,1-.35.35Z"/><path class="cls-2" d="M54.5,11.22a.36.36,0,0,1-.25-.11.35.35,0,0,1-.1-.24.33.33,0,0,1,.11-.25.35.35,0,0,1,.59.25.34.34,0,0,1-.35.35Z"/><path class="cls-2" d="M56.25,1A.39.39,0,0,1,56,.87a.39.39,0,0,1-.1-.25A.39.39,0,0,1,56,.37a.36.36,0,0,1,.5,0,.35.35,0,0,1,.1.24.39.39,0,0,1-.1.25A.39.39,0,0,1,56.25,1Z"/><path class="cls-2" d="M67.75,3.22a.39.39,0,0,1-.25-.1.39.39,0,0,1-.1-.25.33.33,0,0,1,.11-.25.37.37,0,0,1,.49,0,.36.36,0,0,1,.1.25.39.39,0,0,1-.1.25A.37.37,0,0,1,67.75,3.22Z"/><path class="cls-2" d="M67.75,10.47a.36.36,0,0,1-.25-.11.35.35,0,0,1-.1-.24.39.39,0,0,1,.1-.25.37.37,0,0,1,.5,0,.39.39,0,0,1,.1.25.34.34,0,0,1-.11.25A.35.35,0,0,1,67.75,10.47Z"/><path class="cls-2" d="M64,12.47a.35.35,0,0,1-.25-.6.36.36,0,0,1,.6.25.34.34,0,0,1-.35.35Z"/><path class="cls-2" d="M65,16a.34.34,0,0,1-.35-.35.37.37,0,0,1,.1-.25.38.38,0,0,1,.5,0A.35.35,0,0,1,65,16Z"/><path class="cls-2" d="M63.75,20a.36.36,0,0,1-.25-.11.35.35,0,0,1-.1-.24.39.39,0,0,1,.1-.25.37.37,0,0,1,.5,0,.39.39,0,0,1,.1.25.34.34,0,0,1-.11.25A.35.35,0,0,1,63.75,20Z"/><path class="cls-2" d="M66,20a.34.34,0,0,1-.35-.35.33.33,0,0,1,.11-.25.37.37,0,0,1,.49,0,.36.36,0,0,1,.1.25A.34.34,0,0,1,66,20Z"/><path class="cls-2" d="M67.75,21.47a.35.35,0,0,1-.25-.6.37.37,0,0,1,.5,0,.35.35,0,0,1-.25.6Z"/><path class="cls-2" d="M6.75,52.47a.35.35,0,0,1-.25-.6.38.38,0,0,1,.5,0,.35.35,0,0,1-.25.6Z"/><path class="cls-2" d="M7,54.72a.35.35,0,0,1-.25-.6.37.37,0,0,1,.5,0,.35.35,0,0,1-.25.6Z"/><path class="cls-2" d="M2,54.72a.39.39,0,0,1-.25-.1.36.36,0,0,1,0-.5.38.38,0,0,1,.5,0,.36.36,0,0,1,0,.5A.39.39,0,0,1,2,54.72Z"/><path class="cls-2" d="M9.5,64.22a.35.35,0,0,1-.25-.6.36.36,0,0,1,.6.25.34.34,0,0,1-.35.35Z"/><path class="cls-2" d="M.75,68.22a.39.39,0,0,1-.25-.1.36.36,0,0,1,0-.5.38.38,0,0,1,.5,0,.36.36,0,0,1,0,.5A.39.39,0,0,1,.75,68.22Z"/><path class="cls-2" d="M10.75,71.22a.35.35,0,0,1-.25-.6.38.38,0,0,1,.5,0,.35.35,0,0,1-.25.6Z"/><path class="cls-2" d="M18,67.47a.34.34,0,0,1-.35-.35.37.37,0,0,1,.1-.25.37.37,0,0,1,.49,0,.36.36,0,0,1,.11.25.34.34,0,0,1-.35.35Z"/><path class="cls-2" d="M16,62.47a.35.35,0,0,1-.25-.6.37.37,0,0,1,.5,0,.35.35,0,0,1-.25.6Z"/><path class="cls-2" d="M19.25,58a.34.34,0,0,1-.35-.35.33.33,0,0,1,.11-.25.37.37,0,0,1,.49,0,.36.36,0,0,1,.1.25.34.34,0,0,1-.35.35Z"/><path class="cls-2" d="M18.5,56a.34.34,0,0,1-.35-.35.33.33,0,0,1,.11-.25.37.37,0,0,1,.49,0,.36.36,0,0,1,.1.25.34.34,0,0,1-.35.35Z"/><path class="cls-2" d="M16,55a.34.34,0,0,1-.35-.35.33.33,0,0,1,.11-.25.37.37,0,0,1,.49,0,.36.36,0,0,1,.1.25A.34.34,0,0,1,16,55Z"/><path class="cls-2" d="M19,51.22a.34.34,0,0,1-.35-.35.33.33,0,0,1,.11-.25.37.37,0,0,1,.49,0,.36.36,0,0,1,.1.25.34.34,0,0,1-.35.35Z"/><path class="cls-2" d="M18.75,47.22a.35.35,0,0,1-.25-.6.38.38,0,0,1,.5,0,.35.35,0,0,1-.25.6Z"/><path class="cls-2" d="M16,47.47a.35.35,0,0,1-.25-.6.37.37,0,0,1,.5,0,.35.35,0,0,1-.25.6Z"/><path class="cls-2" d="M32.25,51a.34.34,0,0,1-.35-.35.33.33,0,0,1,.11-.25.35.35,0,0,1,.59.25.34.34,0,0,1-.35.35Z"/><path class="cls-2" d="M27,54.47a.35.35,0,0,1-.25-.6.37.37,0,0,1,.5,0,.35.35,0,0,1-.25.6Z"/><path class="cls-2" d="M31.75,56a.35.35,0,0,1-.25-.6.37.37,0,0,1,.5,0,.35.35,0,0,1-.25.6Z"/><path class="cls-2" d="M31.75,57.72a.35.35,0,0,1-.24-.1.35.35,0,0,1,0-.5.37.37,0,0,1,.5,0,.36.36,0,0,1,.1.25.34.34,0,0,1-.35.35Z"/><path class="cls-2" d="M33.75,58.47a.35.35,0,0,1-.25-.6.37.37,0,0,1,.5,0,.35.35,0,0,1-.25.6Z"/><path class="cls-2" d="M25.75,65a.35.35,0,0,1-.25-.6.36.36,0,0,1,.6.25.34.34,0,0,1-.35.35Z"/><path class="cls-2" d="M35.75,56.47a.35.35,0,0,1-.25-.6.36.36,0,0,1,.6.25.34.34,0,0,1-.35.35Z"/><path class="cls-2" d="M39,56.22a.35.35,0,0,1-.24-.1.36.36,0,0,1-.11-.25.39.39,0,0,1,.1-.25.37.37,0,0,1,.5,0,.35.35,0,0,1-.25.6Z"/><path class="cls-2" d="M41.5,51a.35.35,0,0,1-.25-.6.37.37,0,0,1,.5,0,.35.35,0,0,1-.25.6Z"/><path class="cls-2" d="M43.25,45a.36.36,0,0,1-.25-.11.35.35,0,0,1-.1-.24.39.39,0,0,1,.1-.25.37.37,0,0,1,.5,0,.35.35,0,0,1-.25.6Z"/><path class="cls-2" d="M50.75,50.72a.39.39,0,0,1-.25-.1.36.36,0,0,1-.1-.25.39.39,0,0,1,.1-.25.36.36,0,0,1,.5,0,.35.35,0,0,1-.25.6Z"/><path class="cls-2" d="M51.75,46.72a.36.36,0,0,1-.25-.11.35.35,0,0,1-.1-.24.33.33,0,0,1,.11-.25.37.37,0,0,1,.49,0,.36.36,0,0,1,.1.25.34.34,0,0,1-.35.35Z"/><path class="cls-2" d="M54.75,47.22a.33.33,0,0,1-.25-.11.35.35,0,0,1-.1-.24.37.37,0,0,1,.1-.25.36.36,0,0,1,.49,0,.34.34,0,0,1,.11.25.34.34,0,0,1-.35.35Z"/><path class="cls-2" d="M54.75,54.47a.33.33,0,0,1-.25-.11.35.35,0,0,1-.1-.24.33.33,0,0,1,.11-.25.37.37,0,0,1,.49,0,.36.36,0,0,1,.1.25.34.34,0,0,1-.35.35Z"/><path class="cls-2" d="M51,56.47a.35.35,0,0,1-.25-.6.37.37,0,0,1,.5,0,.35.35,0,0,1,.1.25.39.39,0,0,1-.1.25A.37.37,0,0,1,51,56.47Z"/><path class="cls-2" d="M50.75,64a.34.34,0,0,1-.35-.35.31.31,0,0,1,.1-.24.34.34,0,0,1,.49,0,.36.36,0,0,1,.11.25.39.39,0,0,1-.1.25A.37.37,0,0,1,50.75,64Z"/><path class="cls-2" d="M53,64a.34.34,0,0,1-.35-.35.33.33,0,0,1,.11-.25.36.36,0,0,1,.49,0,.31.31,0,0,1,.1.24A.34.34,0,0,1,53,64Z"/><path class="cls-2" d="M55.75,63.22a.35.35,0,0,1-.25-.6.36.36,0,0,1,.6.25.34.34,0,0,1-.35.35Z"/><path class="cls-2" d="M58,61.72a.36.36,0,0,1-.25-.11.35.35,0,0,1-.1-.24.39.39,0,0,1,.1-.25.37.37,0,0,1,.5,0,.37.37,0,0,1,.1.25.34.34,0,0,1-.35.35Z"/><path class="cls-2" d="M20.75,27.22a.35.35,0,0,1-.25-.6.36.36,0,0,1,.6.25.34.34,0,0,1-.35.35Z"/><path class="cls-2" d="M22.5,24.22a.35.35,0,0,1-.25-.6.37.37,0,0,1,.5,0,.35.35,0,0,1-.25.6Z"/><path class="cls-2" d="M38.75,25a.35.35,0,0,1-.25-.6.37.37,0,0,1,.5,0,.35.35,0,0,1-.25.6Z"/><path class="cls-2" d="M46,29.22a.39.39,0,0,1-.25-.1.35.35,0,0,1,0-.49.34.34,0,0,1,.49,0,.36.36,0,0,1,.11.25.34.34,0,0,1-.35.35Z"/><path class="cls-2" d="M55,28.22a.35.35,0,0,1-.25-.6.37.37,0,0,1,.5,0,.35.35,0,0,1-.25.6Z"/><path class="cls-2" d="M51,25.47a.35.35,0,0,1-.25-.6.37.37,0,0,1,.5,0,.35.35,0,0,1,.1.25.34.34,0,0,1-.35.35Z"/><path class="cls-2" d="M51.75,29.72a.37.37,0,0,1-.25-.1.36.36,0,0,1,0-.5.36.36,0,0,1,.6.25.34.34,0,0,1-.35.35Z"/><path class="cls-2" d="M62.25,35.72a.34.34,0,0,1-.35-.35.33.33,0,0,1,.11-.25.36.36,0,0,1,.49,0,.31.31,0,0,1,.1.24.34.34,0,0,1-.35.35Z"/><path class="cls-2" d="M56.5,39.22a.35.35,0,0,1-.25-.6.36.36,0,0,1,.6.25.34.34,0,0,1-.35.35Z"/><path class="cls-2" d="M48,37.47a.35.35,0,0,1-.24-.1.36.36,0,0,1-.11-.25.39.39,0,0,1,.1-.25.36.36,0,0,1,.5,0,.33.33,0,0,1,.1.24.34.34,0,0,1-.35.35Z"/><path class="cls-2" d="M47.75,41.47a.33.33,0,0,1-.25-.11.35.35,0,0,1-.1-.24.39.39,0,0,1,.1-.25.38.38,0,0,1,.5,0,.35.35,0,0,1-.25.6Z"/><path class="cls-2" d="M53.25,45.22a.34.34,0,0,1-.25-.11.31.31,0,0,1-.1-.24.34.34,0,0,1,.11-.25.37.37,0,0,1,.49,0,.35.35,0,0,1-.25.6Z"/><path class="cls-2" d="M62,48.22a.34.34,0,0,1-.35-.35.33.33,0,0,1,.11-.25.36.36,0,0,1,.49,0,.31.31,0,0,1,.1.24.34.34,0,0,1-.35.35Z"/><path class="cls-2" d="M64.75,52a.34.34,0,0,1-.35-.35.33.33,0,0,1,.11-.25.37.37,0,0,1,.49,0,.36.36,0,0,1,.1.25.34.34,0,0,1-.35.35Z"/><path class="cls-2" d="M69.25,45.22a.35.35,0,0,1-.25-.6.37.37,0,0,1,.5,0,.35.35,0,0,1-.25.6Z"/><path class="cls-2" d="M59.75,39.22a.33.33,0,0,1-.25-.11.35.35,0,0,1-.1-.24.34.34,0,0,1,.11-.25.36.36,0,0,1,.49,0,.36.36,0,0,1,0,.5A.37.37,0,0,1,59.75,39.22Z"/><path class="cls-2" d="M32.25,47.22a.35.35,0,0,1-.25-.6.36.36,0,0,1,.6.25.34.34,0,0,1-.35.35Z"/><path class="cls-2" d="M26,38a.35.35,0,0,1-.25-.6.36.36,0,0,1,.6.25A.34.34,0,0,1,26,38Z"/><path class="cls-2" d="M29.5,35.72a.35.35,0,0,1-.24-.1.36.36,0,0,1-.11-.25.33.33,0,0,1,.11-.25.37.37,0,0,1,.49,0,.36.36,0,0,1,.1.25.34.34,0,0,1-.35.35Z"/><path class="cls-2" d="M10.25,29.72a.35.35,0,0,1-.25-.6.37.37,0,0,1,.49,0,.33.33,0,0,1,.11.25.34.34,0,0,1-.35.35Z"/><path class="cls-2" d="M5.75,31.72a.35.35,0,0,1-.25-.6.36.36,0,0,1,.49,0,.33.33,0,0,1,.11.25.37.37,0,0,1-.1.25A.39.39,0,0,1,5.75,31.72Z"/><path class="cls-2" d="M2.25,35.47a.39.39,0,0,1-.25-.1.36.36,0,0,1,0-.5.37.37,0,0,1,.5,0,.35.35,0,0,1,.1.25.33.33,0,0,1-.1.24A.36.36,0,0,1,2.25,35.47Z"/><path class="cls-2" d="M16.75,42.22a.34.34,0,0,1-.35-.35.33.33,0,0,1,.11-.25.35.35,0,0,1,.59.25.39.39,0,0,1-.1.25A.37.37,0,0,1,16.75,42.22Z"/><path class="cls-2" d="M12.5,36.22a.34.34,0,0,1-.35-.35.33.33,0,0,1,.11-.25.37.37,0,0,1,.49,0,.36.36,0,0,1,.1.25.39.39,0,0,1-.1.25A.37.37,0,0,1,12.5,36.22Z"/><path class="cls-2" d="M26.25,30.47a.35.35,0,0,1-.25-.6.37.37,0,0,1,.5,0,.35.35,0,0,1-.25.6Z"/><path class="cls-2" d="M39,31a.35.35,0,0,1-.25-.6.37.37,0,0,1,.5,0,.36.36,0,0,1,0,.5A.37.37,0,0,1,39,31Z"/><path class="cls-2" d="M38,33a.35.35,0,0,1-.25-.6.37.37,0,0,1,.5,0A.35.35,0,0,1,38,33Z"/><path class="cls-2" d="M27.75,42.22a.35.35,0,0,1-.25-.6.37.37,0,0,1,.5,0,.35.35,0,0,1-.25.6Z"/><path class="cls-2" d="M6.25,20.72a.35.35,0,0,1-.25-.6.37.37,0,0,1,.5,0,.35.35,0,0,1-.25.6Z"/><path class="cls-2" d="M9.5,19a.35.35,0,0,1-.25-.6.36.36,0,0,1,.6.25A.34.34,0,0,1,9.5,19Z"/><path class="cls-2" d="M11.5,23.72a.34.34,0,0,1-.35-.35.33.33,0,0,1,.11-.25.37.37,0,0,1,.49,0,.36.36,0,0,1,.1.25.39.39,0,0,1-.1.25A.37.37,0,0,1,11.5,23.72Z"/><path class="cls-2" d="M2.75,26a.39.39,0,0,1-.25-.1.36.36,0,0,1,0-.5.38.38,0,0,1,.5,0,.36.36,0,0,1,0,.5A.39.39,0,0,1,2.75,26Z"/><path class="cls-2" d="M64,29.72a.35.35,0,0,1-.24-.1.36.36,0,0,1-.11-.25.39.39,0,0,1,.1-.25.36.36,0,0,1,.6.25.34.34,0,0,1-.35.35Z"/><path class="cls-2" d="M69.25,30a.34.34,0,0,1-.35-.35.34.34,0,0,1,.11-.25.37.37,0,0,1,.49,0,.36.36,0,0,1,.1.25.39.39,0,0,1-.1.25A.37.37,0,0,1,69.25,30Z"/><path class="cls-2" d="M1.25,9.22A.39.39,0,0,1,1,9.12a.36.36,0,0,1,0-.5.38.38,0,0,1,.5,0,.36.36,0,0,1,0,.5A.39.39,0,0,1,1.25,9.22Z"/><path class="cls-2" d="M16.25,6.22a.34.34,0,0,1-.35-.35.37.37,0,0,1,.1-.25.38.38,0,0,1,.5,0,.35.35,0,0,1-.25.6Z"/><path class="cls-2" d="M3.5,6.22a.35.35,0,0,1-.25-.6.36.36,0,0,1,.6.25.34.34,0,0,1-.35.35Z"/><path class="cls-2" d="M12.5,14.47a.35.35,0,0,1-.25-.6.36.36,0,0,1,.6.25.34.34,0,0,1-.35.35Z"/><path class="cls-2" d="M18.25,19.47a.34.34,0,0,1-.35-.35.37.37,0,0,1,.1-.25.36.36,0,0,1,.6.25.34.34,0,0,1-.35.35Z"/><path class="cls-2" d="M21,37.22a.34.34,0,0,1-.35-.35.37.37,0,0,1,.1-.25.37.37,0,0,1,.49,0,.36.36,0,0,1,.11.25.34.34,0,0,1-.35.35Z"/><path class="cls-2" d="M.5,44.47a.39.39,0,0,1-.25-.1.39.39,0,0,1-.1-.25.33.33,0,0,1,.11-.25.37.37,0,0,1,.49,0,.36.36,0,0,1,.1.25.39.39,0,0,1-.1.25A.39.39,0,0,1,.5,44.47Z"/><path class="cls-2" d="M67.75,66.22a.34.34,0,0,1-.35-.35.33.33,0,0,1,.11-.25.37.37,0,0,1,.49,0,.36.36,0,0,1,.1.25.34.34,0,0,1-.35.35Z"/><path class="cls-2" d="M59.5,70a.39.39,0,0,1-.25-.1.35.35,0,0,1-.1-.25.39.39,0,0,1,.1-.25.37.37,0,0,1,.5,0,.36.36,0,0,1,.1.25.37.37,0,0,1-.1.25A.39.39,0,0,1,59.5,70Z"/><path class="cls-2" d="M40.25,68.22a.35.35,0,0,1-.25-.6.37.37,0,0,1,.5,0,.36.36,0,0,1,0,.5A.37.37,0,0,1,40.25,68.22Z"/><path class="cls-2" d="M4.25,60.22a.35.35,0,0,1-.25-.6.36.36,0,0,1,.6.25.34.34,0,0,1-.35.35Z"/><path class="cls-2" d="M26.25,59.72a.35.35,0,0,1-.25-.6.36.36,0,0,1,.6.25.34.34,0,0,1-.35.35Z"/><path class="cls-2" d="M37,48.72a.34.34,0,0,1-.35-.35.37.37,0,0,1,.1-.25.37.37,0,0,1,.5,0,.36.36,0,0,1,0,.5A.37.37,0,0,1,37,48.72Z"/><path class="cls-2" d="M8.5,40.47a.35.35,0,0,1-.25-.6.36.36,0,0,1,.6.25.34.34,0,0,1-.35.35Z"/><path class="cls-2" d="M52,38.22a.36.36,0,0,1-.25-.11.35.35,0,0,1-.1-.24.33.33,0,0,1,.11-.25.37.37,0,0,1,.49,0,.36.36,0,0,1,.1.25.34.34,0,0,1-.35.35Z"/><path class="cls-2" d="M60.5,46.22a.34.34,0,0,1-.35-.35.33.33,0,0,1,.11-.25.37.37,0,0,1,.49,0,.36.36,0,0,1,.1.25.34.34,0,0,1-.35.35Z"/><path class="cls-2" d="M51,66.47a.35.35,0,0,1-.25-.6.37.37,0,0,1,.5,0,.39.39,0,0,1,.1.25.35.35,0,0,1-.1.25A.39.39,0,0,1,51,66.47Z"/><path class="cls-2" d="M39.75,38a.35.35,0,0,1-.25-.6.36.36,0,0,1,.6.25.34.34,0,0,1-.35.35Z"/><path class="cls-2" d="M27.25,13.72a.35.35,0,0,1-.25-.6.36.36,0,0,1,.6.25.34.34,0,0,1-.35.35Z"/><path class="cls-2" d="M19.5,26.72a.34.34,0,0,1-.35-.35.37.37,0,0,1,.1-.25.37.37,0,0,1,.49,0,.36.36,0,0,1,.11.25.34.34,0,0,1-.35.35Z"/><path class="cls-2" d="M11.5,2a.39.39,0,0,1-.25-.1.39.39,0,0,1-.1-.25.39.39,0,0,1,.1-.25.38.38,0,0,1,.5,0,.39.39,0,0,1,.1.25.39.39,0,0,1-.1.25A.39.39,0,0,1,11.5,2Z"/><path class="cls-2" d="M55,4a.34.34,0,0,1-.35-.35.33.33,0,0,1,.11-.25.37.37,0,0,1,.49,0,.36.36,0,0,1,.1.25A.34.34,0,0,1,55,4Z"/><path class="cls-2" d="M47,70a.39.39,0,0,1-.25-.1.37.37,0,0,1-.1-.25.39.39,0,0,1,.1-.25.36.36,0,0,1,.6.25A.34.34,0,0,1,47,70Z"/><path class="cls-2" d="M4.5,40.47a.34.34,0,0,1-.35-.35.33.33,0,0,1,.11-.25.37.37,0,0,1,.49,0,.36.36,0,0,1,.1.25.34.34,0,0,1-.35.35Z"/><path class="cls-2" d="M68.5,13.47a.35.35,0,0,1-.25-.6.37.37,0,0,1,.5,0,.36.36,0,0,1,0,.5A.39.39,0,0,1,68.5,13.47Z"/><path class="cls-2" d="M23,14.22a.35.35,0,0,1-.25-.6.36.36,0,0,1,.6.25.34.34,0,0,1-.35.35Z"/><path class="cls-2" d="M20.25,17.47a.35.35,0,0,1-.25-.6.37.37,0,0,1,.5,0,.35.35,0,0,1-.25.6Z"/><path class="cls-2" d="M14.5,17.47a.34.34,0,0,1-.35-.35.33.33,0,0,1,.11-.25.37.37,0,0,1,.49,0,.36.36,0,0,1,.1.25.34.34,0,0,1-.35.35Z"/><path class="cls-2" d="M5.75,12a.35.35,0,0,1-.25-.6.36.36,0,0,1,.49,0,.33.33,0,0,1,.11.25.34.34,0,0,1-.35.35Z"/><path class="cls-2" d="M6.75,3a.37.37,0,0,1-.24-.1.36.36,0,0,1-.11-.25.39.39,0,0,1,.1-.25.36.36,0,0,1,.6.25.39.39,0,0,1-.1.25A.39.39,0,0,1,6.75,3Z"/><path class="cls-2" d="M9.75,8.47a.35.35,0,0,1-.25-.6.36.36,0,0,1,.6.25.34.34,0,0,1-.35.35Z"/><path class="cls-2" d="M14,8.47a.34.34,0,0,1-.35-.35.33.33,0,0,1,.11-.25.37.37,0,0,1,.49,0,.36.36,0,0,1,.1.25.34.34,0,0,1-.35.35Z"/><path class="cls-2" d="M25.5,7.22a.35.35,0,0,1-.25-.6.36.36,0,0,1,.6.25.34.34,0,0,1-.35.35Z"/><path class="cls-2" d="M36.75,7.72a.35.35,0,0,1-.25-.6.37.37,0,0,1,.5,0,.35.35,0,0,1-.25.6Z"/><path class="cls-2" d="M37.25,4.47a.34.34,0,0,1-.35-.35A.33.33,0,0,1,37,3.87a.35.35,0,0,1,.59.25.34.34,0,0,1-.35.35Z"/><path class="cls-2" d="M43,2.47a.39.39,0,0,1-.25-.1.39.39,0,0,1-.1-.25.39.39,0,0,1,.1-.25.37.37,0,0,1,.5,0,.39.39,0,0,1,.1.25.39.39,0,0,1-.1.25A.42.42,0,0,1,43,2.47Z"/><path class="cls-2" d="M49.25,8.47a.39.39,0,0,1-.25-.1.36.36,0,0,1,0-.5.37.37,0,0,1,.5,0,.35.35,0,0,1-.25.6Z"/><path class="cls-2" d="M45.75,9.47a.35.35,0,0,1-.25-.6.37.37,0,0,1,.5,0,.36.36,0,0,1,0,.5A.37.37,0,0,1,45.75,9.47Z"/><path class="cls-2" d="M35.5,11.22a.34.34,0,0,1-.35-.35.37.37,0,0,1,.1-.25.36.36,0,0,1,.6.25.34.34,0,0,1-.35.35Z"/><path class="cls-2" d="M39,15.22a.35.35,0,0,1-.25-.6.36.36,0,0,1,.6.25.34.34,0,0,1-.35.35Z"/><path class="cls-2" d="M24.5,18.22a.35.35,0,0,1-.25-.6.36.36,0,0,1,.6.25.34.34,0,0,1-.35.35Z"/><path class="cls-2" d="M8,27.47a.35.35,0,0,1-.25-.6.36.36,0,0,1,.6.25.34.34,0,0,1-.35.35Z"/><path class="cls-2" d="M15.75,32a.35.35,0,0,1-.25-.6.38.38,0,0,1,.5,0,.35.35,0,0,1-.25.6Z"/><path class="cls-2" d="M10.25,33.72a.34.34,0,0,1-.35-.35.33.33,0,0,1,.11-.25.37.37,0,0,1,.49,0,.36.36,0,0,1,.1.25.37.37,0,0,1-.1.25A.39.39,0,0,1,10.25,33.72Z"/><path class="cls-2" d="M5,37.22a.35.35,0,0,1-.25-.6.38.38,0,0,1,.5,0,.37.37,0,0,1,.1.25.34.34,0,0,1-.35.35Z"/><path class="cls-2" d="M3,20.72a.39.39,0,0,1-.25-.1.36.36,0,0,1,0-.5.38.38,0,0,1,.5,0,.36.36,0,0,1,0,.5A.39.39,0,0,1,3,20.72Z"/><path class="cls-2" d="M20.25,31a.34.34,0,0,1-.35-.35.33.33,0,0,1,.11-.25.35.35,0,0,1,.59.25.34.34,0,0,1-.35.35Z"/><path class="cls-2" d="M17.25,35.72a.35.35,0,0,1-.25-.6.37.37,0,0,1,.5,0,.35.35,0,0,1-.25.6Z"/><path class="cls-2" d="M15.75,39.22a.34.34,0,0,1-.35-.35.33.33,0,0,1,.11-.25.37.37,0,0,1,.49,0,.36.36,0,0,1,.1.25.39.39,0,0,1-.1.25A.37.37,0,0,1,15.75,39.22Z"/><path class="cls-2" d="M12.5,41.47a.34.34,0,0,1-.35-.35.33.33,0,0,1,.11-.25.37.37,0,0,1,.49,0,.36.36,0,0,1,.1.25.34.34,0,0,1-.35.35Z"/><path class="cls-2" d="M12.5,46.72a.34.34,0,0,1-.35-.35.33.33,0,0,1,.11-.25.37.37,0,0,1,.49,0,.36.36,0,0,1,.1.25.34.34,0,0,1-.35.35Z"/><path class="cls-2" d="M5.5,48.72a.35.35,0,0,1-.25-.6.38.38,0,0,1,.5,0,.35.35,0,0,1-.25.6Z"/><path class="cls-2" d="M10.75,54.72a.35.35,0,0,1-.25-.6.38.38,0,0,1,.5,0,.35.35,0,0,1-.25.6Z"/><path class="cls-2" d="M15.25,58.72a.35.35,0,0,1-.25-.6.37.37,0,0,1,.5,0,.35.35,0,0,1-.25.6Z"/><path class="cls-2" d="M5.75,63.72a.35.35,0,0,1-.25-.6.38.38,0,0,1,.5,0,.36.36,0,0,1,.1.25.34.34,0,0,1-.35.35Z"/><path class="cls-2" d="M2,62.22a.39.39,0,0,1-.25-.1.36.36,0,0,1,0-.5.37.37,0,0,1,.49,0,.34.34,0,0,1,.11.25.39.39,0,0,1-.1.25A.39.39,0,0,1,2,62.22Z"/><path class="cls-2" d="M8.75,68.22a.35.35,0,0,1-.25-.6.36.36,0,0,1,.6.25.39.39,0,0,1-.1.25A.37.37,0,0,1,8.75,68.22Z"/><path class="cls-2" d="M13.25,69.72a.35.35,0,0,1-.25-.6.38.38,0,0,1,.5,0,.35.35,0,0,1-.25.6Z"/><path class="cls-2" d="M21.25,68.72a.34.34,0,0,1-.35-.35.33.33,0,0,1,.11-.25.35.35,0,0,1,.59.25.34.34,0,0,1-.35.35Z"/><path class="cls-2" d="M22.75,66a.35.35,0,0,1-.25-.6.37.37,0,0,1,.5,0,.36.36,0,0,1,0,.5A.37.37,0,0,1,22.75,66Z"/><path class="cls-2" d="M22,60.22a.35.35,0,0,1-.25-.6.38.38,0,0,1,.5,0,.36.36,0,0,1,0,.5A.37.37,0,0,1,22,60.22Z"/><path class="cls-2" d="M24,57.72a.34.34,0,0,1-.35-.35.37.37,0,0,1,.1-.25.38.38,0,0,1,.5,0,.37.37,0,0,1,.1.25.39.39,0,0,1-.1.25A.37.37,0,0,1,24,57.72Z"/><path class="cls-2" d="M26,48a.35.35,0,0,1-.25-.6.37.37,0,0,1,.5,0A.35.35,0,0,1,26,48Z"/><path class="cls-2" d="M25.5,43.72a.35.35,0,0,1-.25-.6.37.37,0,0,1,.5,0,.35.35,0,0,1-.25.6Z"/><path class="cls-2" d="M32,31.22a.34.34,0,0,1-.35-.35.33.33,0,0,1,.11-.25.35.35,0,0,1,.59.25.34.34,0,0,1-.35.35Z"/><path class="cls-2" d="M34,28a.34.34,0,0,1-.35-.35.35.35,0,0,1,.1-.25.37.37,0,0,1,.5,0,.36.36,0,0,1,0,.5A.37.37,0,0,1,34,28Z"/><path class="cls-2" d="M41.5,26a.35.35,0,0,1-.25-.6.37.37,0,0,1,.5,0,.35.35,0,0,1-.25.6Z"/><path class="cls-2" d="M42.75,21a.36.36,0,0,1-.25-.11.33.33,0,0,1-.1-.24.39.39,0,0,1,.1-.25.37.37,0,0,1,.5,0,.39.39,0,0,1,.1.25.34.34,0,0,1-.11.25A.35.35,0,0,1,42.75,21Z"/><path class="cls-2" d="M36.25,19.47a.39.39,0,0,1-.25-.1.36.36,0,0,1-.1-.25.31.31,0,0,1,.1-.24.35.35,0,0,1,.5,0,.35.35,0,0,1-.25.6Z"/><path class="cls-2" d="M27.5,22.47a.35.35,0,0,1-.25-.6.37.37,0,0,1,.5,0,.35.35,0,0,1-.25.6Z"/><path class="cls-2" d="M51.75,22.22a.33.33,0,0,1-.25-.11.35.35,0,0,1-.1-.24.39.39,0,0,1,.1-.25.36.36,0,0,1,.6.25.39.39,0,0,1-.1.25A.37.37,0,0,1,51.75,22.22Z"/><path class="cls-2" d="M43,18a.37.37,0,0,1-.25-.1.36.36,0,0,1,0-.5.38.38,0,0,1,.5,0A.35.35,0,0,1,43,18Z"/><path class="cls-2" d="M50.25,18.22a.37.37,0,0,1-.25-.1.36.36,0,0,1,0-.5.36.36,0,0,1,.6.25.34.34,0,0,1-.35.35Z"/><path class="cls-2" d="M59.25,17.47a.34.34,0,0,1-.35-.35.33.33,0,0,1,.11-.25.37.37,0,0,1,.49,0,.36.36,0,0,1,.1.25.34.34,0,0,1-.35.35Z"/><path class="cls-2" d="M58,14.22a.37.37,0,0,1-.25-.1.36.36,0,0,1,0-.5.36.36,0,0,1,.6.25.34.34,0,0,1-.35.35Z"/><path class="cls-2" d="M61.25,11.22a.34.34,0,0,1-.35-.35.33.33,0,0,1,.11-.25.36.36,0,0,1,.49,0,.31.31,0,0,1,.1.24.34.34,0,0,1-.35.35Z"/><path class="cls-2" d="M58.5,7.72a.39.39,0,0,1-.25-.1.35.35,0,0,1-.1-.25.31.31,0,0,1,.1-.24.35.35,0,0,1,.6.24.34.34,0,0,1-.35.35Z"/><path class="cls-2" d="M59.75,5a.34.34,0,0,1-.25-.11.35.35,0,0,1-.1-.24.33.33,0,0,1,.11-.25.37.37,0,0,1,.49,0,.36.36,0,0,1,.1.25.34.34,0,0,1-.35.35Z"/><path class="cls-2" d="M67.25,6.22a.39.39,0,0,1-.25-.1.36.36,0,0,1-.1-.25.37.37,0,0,1,.1-.25.38.38,0,0,1,.5,0,.35.35,0,0,1-.25.6Z"/><path class="cls-2" d="M70.5,8.72a.39.39,0,0,1-.25-.1.36.36,0,0,1-.1-.25.37.37,0,0,1,.1-.25.37.37,0,0,1,.49,0,.36.36,0,0,1,.11.25.34.34,0,0,1-.35.35Z"/><path class="cls-2" d="M65.5,10a.34.34,0,0,1-.35-.35.37.37,0,0,1,.1-.25.38.38,0,0,1,.5,0,.35.35,0,0,1-.25.6Z"/><path class="cls-2" d="M60,24a.35.35,0,0,1-.25-.6.37.37,0,0,1,.5,0A.35.35,0,0,1,60,24Z"/><path class="cls-2" d="M55.25,24a.35.35,0,0,1-.25-.6.38.38,0,0,1,.5,0,.35.35,0,0,1-.25.6Z"/><path class="cls-2" d="M55.25,19a.34.34,0,0,1-.25-.11.35.35,0,0,1-.1-.24.33.33,0,0,1,.11-.25.37.37,0,0,1,.49,0,.36.36,0,0,1,.1.25.34.34,0,0,1-.35.35Z"/><path class="cls-2" d="M64.75,26a.34.34,0,0,1-.35-.35.33.33,0,0,1,.11-.25.37.37,0,0,1,.49,0,.36.36,0,0,1,.1.25.34.34,0,0,1-.35.35Z"/><path class="cls-2" d="M57.5,31a.33.33,0,0,1-.25-.11.35.35,0,0,1-.1-.24.33.33,0,0,1,.11-.25.37.37,0,0,1,.49,0,.36.36,0,0,1,.1.25.34.34,0,0,1-.35.35Z"/><path class="cls-2" d="M52.5,33a.36.36,0,0,1-.25-.11.35.35,0,0,1-.1-.24.33.33,0,0,1,.11-.25.37.37,0,0,1,.49,0,.36.36,0,0,1,.1.25.34.34,0,0,1-.35.35Z"/><path class="cls-2" d="M47.25,34a.36.36,0,0,1-.25-.11.35.35,0,0,1-.1-.24.33.33,0,0,1,.11-.25.37.37,0,0,1,.49,0,.36.36,0,0,1,.1.25.34.34,0,0,1-.35.35Z"/><path class="cls-2" d="M44,39.47a.36.36,0,0,1-.25-.11.35.35,0,0,1-.1-.24.39.39,0,0,1,.1-.25.37.37,0,0,1,.5,0,.37.37,0,0,1,.1.25.33.33,0,0,1-.11.25A.35.35,0,0,1,44,39.47Z"/><path class="cls-2" d="M33.75,41.72a.35.35,0,0,1-.25-.6.37.37,0,0,1,.5,0,.35.35,0,0,1-.25.6Z"/><path class="cls-2" d="M40.5,48.22a.35.35,0,0,1-.25-.6.36.36,0,0,1,.49,0,.34.34,0,0,1,.11.25.34.34,0,0,1-.35.35Z"/><path class="cls-2" d="M45.5,52.47a.34.34,0,0,1-.35-.35.33.33,0,0,1,.11-.25.35.35,0,0,1,.59.25.34.34,0,0,1-.35.35Z"/><path class="cls-2" d="M46.25,57a.35.35,0,0,1-.25-.6.35.35,0,0,1,.49,0,.36.36,0,0,1,.11.25.34.34,0,0,1-.35.35Z"/><path class="cls-2" d="M41.75,59.72a.35.35,0,0,1-.24-.1.36.36,0,0,1-.11-.25.39.39,0,0,1,.1-.25.37.37,0,0,1,.5,0,.35.35,0,0,1-.25.6Z"/><path class="cls-2" d="M39.75,63a.35.35,0,0,1-.25-.6.37.37,0,0,1,.5,0,.36.36,0,0,1,0,.5A.37.37,0,0,1,39.75,63Z"/><path class="cls-2" d="M35.75,63a.34.34,0,0,1-.35-.35.33.33,0,0,1,.11-.25.35.35,0,0,1,.59.25.34.34,0,0,1-.35.35Z"/><path class="cls-2" d="M36.25,53a.39.39,0,0,1-.25-.1.35.35,0,0,1-.1-.25.39.39,0,0,1,.1-.25.36.36,0,0,1,.5,0,.31.31,0,0,1,.1.24.34.34,0,0,1-.35.35Z"/><path class="cls-2" d="M29.75,63.72a.35.35,0,0,1-.24-.1.36.36,0,0,1-.11-.25.33.33,0,0,1,.11-.25.37.37,0,0,1,.49,0,.36.36,0,0,1,.1.25.34.34,0,0,1-.35.35Z"/><path class="cls-2" d="M31.25,68.72a.35.35,0,0,1-.25-.6.37.37,0,0,1,.5,0,.35.35,0,0,1-.25.6Z"/><path class="cls-2" d="M36.75,71.22a.39.39,0,0,1-.25-.1.37.37,0,0,1-.1-.25.33.33,0,0,1,.11-.25.37.37,0,0,1,.49,0,.36.36,0,0,1,.1.25.37.37,0,0,1-.1.25A.39.39,0,0,1,36.75,71.22Z"/><path class="cls-2" d="M62.75,57.22a.34.34,0,0,1-.35-.35.33.33,0,0,1,.11-.25.37.37,0,0,1,.49,0,.36.36,0,0,1,.1.25.34.34,0,0,1-.35.35Z"/><path class="cls-2" d="M59.75,51a.33.33,0,0,1-.25-.11.35.35,0,0,1-.1-.24.35.35,0,0,1,.59-.25.36.36,0,0,1,.11.25.39.39,0,0,1-.1.25A.37.37,0,0,1,59.75,51Z"/><path class="cls-2" d="M54.25,50.72a.39.39,0,0,1-.25-.1.37.37,0,0,1-.1-.25.35.35,0,0,1,.7,0,.35.35,0,0,1-.1.24A.34.34,0,0,1,54.25,50.72Z"/><path class="cls-2" d="M54.5,42a.36.36,0,0,1-.25-.11.33.33,0,0,1-.1-.24.39.39,0,0,1,.1-.25.37.37,0,0,1,.5,0,.39.39,0,0,1,.1.25.34.34,0,0,1-.11.25A.35.35,0,0,1,54.5,42Z"/><path class="cls-2" d="M62.25,42.47a.35.35,0,0,1-.25-.6.37.37,0,0,1,.5,0,.35.35,0,0,1-.25.6Z"/><path class="cls-2" d="M66.75,47.72a.35.35,0,0,1-.24-.1.36.36,0,0,1-.11-.25.39.39,0,0,1,.1-.25.36.36,0,0,1,.49,0,.32.32,0,0,1,.11.25.34.34,0,0,1-.35.35Z"/><path class="cls-2" d="M69.25,54.47a.35.35,0,0,1-.24-.1.36.36,0,0,1-.11-.25.39.39,0,0,1,.1-.25.36.36,0,0,1,.6.25.34.34,0,0,1-.35.35Z"/><path class="cls-2" d="M63.25,62a.35.35,0,0,1-.24-.1.36.36,0,0,1-.11-.25.39.39,0,0,1,.1-.25.36.36,0,0,1,.49,0,.32.32,0,0,1,.11.25.34.34,0,0,1-.35.35Z"/><path class="cls-2" d="M70,61.22a.34.34,0,0,1-.35-.35.33.33,0,0,1,.11-.25.37.37,0,0,1,.49,0,.36.36,0,0,1,.1.25.34.34,0,0,1-.35.35Z"/><path class="cls-2" d="M64.5,65.72a.35.35,0,0,1-.25-.6.36.36,0,0,1,.5,0,.35.35,0,0,1,.1.24.34.34,0,0,1-.35.35Z"/><path class="cls-2" d="M65.5,68.47a.35.35,0,0,1-.25-.6.37.37,0,0,1,.5,0,.35.35,0,0,1-.25.6Z"/><path class="cls-2" d="M62.25,70.47a.34.34,0,0,1-.35-.35.34.34,0,0,1,.11-.25.36.36,0,0,1,.49,0,.31.31,0,0,1,.1.24.34.34,0,0,1-.35.35Z"/><path class="cls-2" d="M52.5,70a.36.36,0,0,1-.25-.1.36.36,0,0,1,0-.5.36.36,0,0,1,.6.25.39.39,0,0,1-.1.25A.37.37,0,0,1,52.5,70Z"/><path class="cls-2" d="M44.5,66.72a.34.34,0,0,1-.25-.11.35.35,0,0,1-.1-.24.33.33,0,0,1,.11-.25.37.37,0,0,1,.49,0,.36.36,0,0,1,.1.25.34.34,0,0,1-.35.35Z"/><path class="cls-2" d="M28.25,71.47a.39.39,0,0,1-.25-.1.36.36,0,0,1-.1-.25.33.33,0,0,1,.11-.25.35.35,0,0,1,.59.25.33.33,0,0,1-.11.25A.35.35,0,0,1,28.25,71.47Z"/><path class="cls-2" d="M2.75,29.72a.39.39,0,0,1-.25-.1.36.36,0,0,1,0-.5.38.38,0,0,1,.5,0,.36.36,0,0,1,0,.5A.39.39,0,0,1,2.75,29.72Z"/><path class="cls-2" d="M13,5.22a.36.36,0,0,1-.25-.11.31.31,0,0,1-.1-.24.37.37,0,0,1,.1-.25.36.36,0,0,1,.6.25.33.33,0,0,1-.11.25A.35.35,0,0,1,13,5.22Z"/><path class="cls-2" d="M70,34.72a.34.34,0,0,1-.35-.35.33.33,0,0,1,.11-.25.37.37,0,0,1,.49,0,.36.36,0,0,1,.1.25.34.34,0,0,1-.35.35Z"/><path class="cls-2" d="M71,41.47a.35.35,0,0,1-.25-.6.37.37,0,0,1,.5,0,.35.35,0,0,1-.25.6Z"/><path class="cls-2" d="M.75,52a.39.39,0,0,1-.25-.1.39.39,0,0,1-.1-.25.33.33,0,0,1,.11-.25.37.37,0,0,1,.49,0,.36.36,0,0,1,.1.25.39.39,0,0,1-.1.25A.39.39,0,0,1,.75,52Z"/><path class="cls-2" d="M71.75,23.72a.35.35,0,0,1-.25-.6.38.38,0,0,1,.5,0,.35.35,0,0,1-.25.6Z"/><path class="cls-2" d="M68.75,26.72a.35.35,0,0,1-.25-.6.37.37,0,0,1,.5,0,.39.39,0,0,1,.1.25.35.35,0,0,1-.1.25A.39.39,0,0,1,68.75,26.72Z"/><path class="cls-2" d="M68.25,60.47a.34.34,0,0,1-.35-.35.37.37,0,0,1,.1-.25.38.38,0,0,1,.5,0,.35.35,0,0,1-.25.6Z"/><path class="cls-2" d="M71.25,68.47a.35.35,0,0,1-.25-.6.37.37,0,0,1,.5,0,.39.39,0,0,1,.1.25.35.35,0,0,1-.1.25A.39.39,0,0,1,71.25,68.47Z"/><path class="cls-2" d="M.25,58a.39.39,0,0,1-.25-.1.36.36,0,0,1,0-.5.38.38,0,0,1,.5,0,.36.36,0,0,1,0,.5A.39.39,0,0,1,.25,58Z"/><path class="cls-2" d="M2.5,71.47a.39.39,0,0,1-.25-.1.36.36,0,0,1,0-.5.36.36,0,0,1,.6.25.39.39,0,0,1-.1.25A.39.39,0,0,1,2.5,71.47Z"/><path class="cls-2" d="M70,24.22a.34.34,0,0,1-.35-.35.33.33,0,0,1,.11-.25.37.37,0,0,1,.49,0,.36.36,0,0,1,.1.25.34.34,0,0,1-.35.35Z"/><path class="cls-2" d="M1,17a.39.39,0,0,1-.25-.1.36.36,0,0,1,0-.5.38.38,0,0,1,.5,0,.36.36,0,0,1,0,.5A.39.39,0,0,1,1,17Z"/><path class="cls-2" d="M17.75,13.27a.65.65,0,0,1-.65-.65.66.66,0,0,1,.19-.46.68.68,0,0,1,.92,0,.65.65,0,0,1-.46,1.11Z"/><path class="cls-2" d="M29,11.27a.66.66,0,0,1-.46-.19.68.68,0,0,1-.19-.46.66.66,0,0,1,.19-.46.67.67,0,0,1,.92,0,.66.66,0,0,1,.19.46.65.65,0,0,1-.65.65Z"/><path class="cls-2" d="M29,3.77a.65.65,0,0,1-.65-.65.64.64,0,0,1,.19-.46.68.68,0,0,1,.92,0,.65.65,0,0,1,0,.92A.68.68,0,0,1,29,3.77Z"/><path class="cls-2" d="M40,10.77a.65.65,0,0,1-.65-.65.66.66,0,0,1,.19-.46.68.68,0,0,1,.92,0,.63.63,0,0,1,.19.46.68.68,0,0,1-.19.46A.66.66,0,0,1,40,10.77Z"/><path class="cls-2" d="M44.75,12.27a.61.61,0,0,1-.46-.2.64.64,0,0,1-.19-.45.66.66,0,0,1,.19-.46.68.68,0,0,1,.92,0,.63.63,0,0,1,.19.46.61.61,0,0,1-.2.46A.6.6,0,0,1,44.75,12.27Z"/><path class="cls-2" d="M47,23.27a.65.65,0,0,1-.46-1.11.68.68,0,0,1,.92,0A.65.65,0,0,1,47,23.27Z"/><path class="cls-2" d="M54.5,7.27A.64.64,0,0,1,54,7.08a.65.65,0,0,1,0-.92.68.68,0,0,1,.92,0,.64.64,0,0,1,.19.46.66.66,0,0,1-.19.46A.64.64,0,0,1,54.5,7.27Z"/><path class="cls-2" d="M63.75,7a.65.65,0,0,1-.46-1.11.68.68,0,0,1,.92,0A.65.65,0,0,1,63.75,7Z"/><path class="cls-2" d="M64.75,3a.66.66,0,0,1-.46-.19.68.68,0,0,1-.19-.46.66.66,0,0,1,.19-.46.68.68,0,0,1,.92,0,.68.68,0,0,1,.19.46.63.63,0,0,1-.18.45A.67.67,0,0,1,64.75,3Z"/><path class="cls-2" d="M69.25,18.52a.65.65,0,0,1-.46-1.11.67.67,0,0,1,.92,0,.65.65,0,0,1-.46,1.11Z"/><path class="cls-2" d="M7.75,47.52a.64.64,0,0,1-.46-.19.68.68,0,0,1-.19-.46.66.66,0,0,1,.19-.46.68.68,0,0,1,.92,0,.66.66,0,0,1,.19.46.68.68,0,0,1-.19.46A.64.64,0,0,1,7.75,47.52Z"/><path class="cls-2" d="M4.75,57.27a.64.64,0,0,1-.46-.19.65.65,0,0,1,0-.92.67.67,0,0,1,.92,0,.65.65,0,0,1,0,.92A.64.64,0,0,1,4.75,57.27Z"/><path class="cls-2" d="M2,67.52a.66.66,0,0,1-.46-.19.68.68,0,0,1-.19-.46.66.66,0,0,1,.19-.46.68.68,0,0,1,.92,0,.66.66,0,0,1,.19.46.68.68,0,0,1-.19.46A.66.66,0,0,1,2,67.52Z"/><path class="cls-2" d="M17.5,70.27a.66.66,0,0,1-.46-.19.68.68,0,0,1-.19-.46.66.66,0,0,1,.19-.46.68.68,0,0,1,.92,0,.66.66,0,0,1,.19.46.68.68,0,0,1-.19.46A.66.66,0,0,1,17.5,70.27Z"/><path class="cls-2" d="M19,62.77a.65.65,0,0,1-.65-.65.64.64,0,0,1,.19-.46.67.67,0,0,1,.92,0,.66.66,0,0,1,.19.46.68.68,0,0,1-.19.46A.66.66,0,0,1,19,62.77Z"/><path class="cls-2" d="M20.75,45.77a.65.65,0,0,1-.65-.65.64.64,0,0,1,.19-.46.67.67,0,0,1,.92,0,.66.66,0,0,1,.19.46.68.68,0,0,1-.19.46A.64.64,0,0,1,20.75,45.77Z"/><path class="cls-2" d="M28.25,51.52a.65.65,0,0,1-.46-1.11.67.67,0,0,1,.92,0,.66.66,0,0,1,.19.46.68.68,0,0,1-.19.46A.64.64,0,0,1,28.25,51.52Z"/><path class="cls-2" d="M33.75,60.77a.65.65,0,0,1-.65-.65.64.64,0,0,1,.19-.46.68.68,0,0,1,.92,0,.63.63,0,0,1,.19.46.64.64,0,0,1-.19.46A.66.66,0,0,1,33.75,60.77Z"/><path class="cls-2" d="M34,67.27a.64.64,0,0,1-.46-.19.65.65,0,0,1,0-.92.67.67,0,0,1,.92,0,.65.65,0,0,1,0,.92A.66.66,0,0,1,34,67.27Z"/><path class="cls-2" d="M41.5,55.52A.65.65,0,0,1,41,54.41a.68.68,0,0,1,.92,0,.65.65,0,0,1-.46,1.11Z"/><path class="cls-2" d="M52,60.27a.65.65,0,0,1-.46-1.11.68.68,0,0,1,.92,0A.65.65,0,0,1,52,60.27Z"/><path class="cls-2" d="M54.75,65.77a.66.66,0,0,1-.46-.19.68.68,0,0,1-.19-.46.64.64,0,0,1,.19-.46.68.68,0,0,1,.92,0,.64.64,0,0,1,.19.46.68.68,0,0,1-.19.46A.66.66,0,0,1,54.75,65.77Z"/><path class="cls-2" d="M25,25a.66.66,0,0,1-.46-.19.68.68,0,0,1-.19-.46.66.66,0,0,1,.19-.46.68.68,0,0,1,.92,0,.66.66,0,0,1,.19.46.68.68,0,0,1-.19.46A.66.66,0,0,1,25,25Z"/><path class="cls-2" d="M35,23.77a.64.64,0,0,1-.46-.19.65.65,0,0,1,0-.92.68.68,0,0,1,.92,0A.65.65,0,0,1,35,23.77Z"/><path class="cls-2" d="M44.75,30a.65.65,0,0,1-.46-1.11.68.68,0,0,1,.92,0,.63.63,0,0,1,.19.46.61.61,0,0,1-.2.46A.62.62,0,0,1,44.75,30Z"/><path class="cls-2" d="M51.75,43.52a.65.65,0,0,1-.46-1.11.67.67,0,0,1,.92,0,.64.64,0,0,1,.19.46.65.65,0,0,1-.65.65Z"/><path class="cls-2" d="M66.75,52.27a.65.65,0,0,1-.65-.65.61.61,0,0,1,.2-.46.68.68,0,0,1,.91,0,.65.65,0,0,1-.46,1.11Z"/><path class="cls-2" d="M47,48.27a.65.65,0,0,1-.46-1.11.68.68,0,0,1,.92,0A.65.65,0,0,1,47,48.27Z"/><path class="cls-2" d="M36.75,45a.66.66,0,0,1-.46-.19.68.68,0,0,1-.19-.46.66.66,0,0,1,.19-.46.68.68,0,0,1,.92,0,.66.66,0,0,1,.19.46.68.68,0,0,1-.19.46A.66.66,0,0,1,36.75,45Z"/><path class="cls-2" d="M16.75,29a.65.65,0,0,1-.46-1.11.68.68,0,0,1,.92,0,.65.65,0,0,1,0,.92A.64.64,0,0,1,16.75,29Z"/><path class="cls-2" d="M11,37.27a.65.65,0,0,1-.65-.65.64.64,0,0,1,.19-.46.67.67,0,0,1,.92,0A.65.65,0,0,1,11,37.27Z"/><path class="cls-2" d="M67.25,31.27a.66.66,0,0,1-.46-.19.68.68,0,0,1-.19-.46.66.66,0,0,1,.19-.46.68.68,0,0,1,.92,0,.64.64,0,0,1,.19.46.65.65,0,0,1-.65.65Z"/><path class="cls-2" d="M7,16.27a.61.61,0,0,1-.46-.2.62.62,0,0,1-.19-.45.66.66,0,0,1,.19-.46.67.67,0,0,1,.92,0,.65.65,0,0,1,0,.92A.64.64,0,0,1,7,16.27Z"/><path class="cls-2" d="M8.25,5.77a.68.68,0,0,1-.46-.19.66.66,0,0,1-.19-.46.64.64,0,0,1,.19-.46.67.67,0,0,1,.92,0,.64.64,0,0,1,.19.46.65.65,0,0,1-.65.65Z"/><path class="cls-2" d="M3.25,3a.66.66,0,0,1-.46-.19.68.68,0,0,1-.19-.46.66.66,0,0,1,.19-.46.68.68,0,0,1,.92,0,.66.66,0,0,1,.19.46.68.68,0,0,1-.19.46A.66.66,0,0,1,3.25,3Z"/><path class="cls-2" d="M66.25,37.77a.65.65,0,0,1-.46-1.11.68.68,0,0,1,.92,0,.64.64,0,0,1,.19.46.66.66,0,0,1-.19.46A.64.64,0,0,1,66.25,37.77Z"/><path class="cls-2" d="M43.75,63.52a.66.66,0,0,1-.46-.19.68.68,0,0,1-.19-.46.66.66,0,0,1,.19-.46.67.67,0,0,1,.92,0,.66.66,0,0,1,.19.46.68.68,0,0,1-.19.46A.66.66,0,0,1,43.75,63.52Z"/><path class="cls-2" d="M25.5,70.52a.66.66,0,0,1-.46-.19.68.68,0,0,1-.19-.46.66.66,0,0,1,.19-.46.67.67,0,0,1,.92,0,.66.66,0,0,1,.19.46.68.68,0,0,1-.19.46A.66.66,0,0,1,25.5,70.52Z"/><path class="cls-2" d="M21.75,42.27a.66.66,0,0,1-.46-.19.65.65,0,0,1,0-.92.68.68,0,0,1,.92,0,.65.65,0,0,1-.46,1.11Z"/><path class="cls-2" d="M23.75,29.52a.66.66,0,0,1-.46-.19.68.68,0,0,1-.19-.46.66.66,0,0,1,.19-.46.67.67,0,0,1,.92,0,.64.64,0,0,1,.19.46.65.65,0,0,1-.65.65Z"/><path class="cls-2" d="M41.25,35a.65.65,0,0,1-.46-1.11.68.68,0,0,1,.92,0,.66.66,0,0,1,.19.46.68.68,0,0,1-.19.46A.66.66,0,0,1,41.25,35Z"/><path class="cls-2" d="M67.25,44.27a.66.66,0,0,1-.46-.19.68.68,0,0,1-.19-.46.66.66,0,0,1,.19-.46.68.68,0,0,1,.92,0,.64.64,0,0,1,.19.46.65.65,0,0,1-.65.65Z"/><path class="cls-2" d="M53,15.52a.65.65,0,0,1-.46-1.11.68.68,0,0,1,.92,0,.66.66,0,0,1,.19.46.68.68,0,0,1-.19.46A.66.66,0,0,1,53,15.52Z"/><path class="cls-2" d="M33.75,16.52a.66.66,0,0,1-.46-.19.68.68,0,0,1-.19-.46.64.64,0,0,1,.19-.46.68.68,0,0,1,.92,0,.64.64,0,0,1,.19.46.65.65,0,0,1-.65.65Z"/><path class="cls-2" d="M12.5,19.77A.65.65,0,0,1,12,18.66a.67.67,0,0,1,.92,0,.65.65,0,0,1-.46,1.11Z"/><path class="cls-2" d="M49.25,5a.65.65,0,0,1-.46-1.11.68.68,0,0,1,.92,0A.65.65,0,0,1,49.25,5Z"/><path class="cls-2" d="M58.75,21.27a.65.65,0,0,1-.46-1.11.68.68,0,0,1,.92,0,.64.64,0,0,1,.19.46.65.65,0,0,1-.65.65Z"/><path class="cls-2" d="M67.25,57.77a.66.66,0,0,1-.46-.19.68.68,0,0,1-.19-.46.66.66,0,0,1,.19-.46.68.68,0,0,1,.92,0,.64.64,0,0,1,.19.46.65.65,0,0,1-.65.65Z"/><path class="cls-2" d="M5,70.27a.64.64,0,0,1-.46-.19.65.65,0,0,1,0-.92.67.67,0,0,1,.92,0,.65.65,0,0,1,0,.92A.64.64,0,0,1,5,70.27Z"/><path class="cls-2" d="M2.5,13.77a.61.61,0,0,1-.46-.2.62.62,0,0,1-.19-.45A.66.66,0,0,1,2,12.66a.67.67,0,0,1,.92,0,.65.65,0,0,1,0,.92A.64.64,0,0,1,2.5,13.77Z"/><path class="cls-2" d="M16.25,3.77a.65.65,0,0,1-.46-1.11.68.68,0,0,1,.92,0,.65.65,0,0,1-.46,1.11Z"/><path class="cls-2" d="M40.25,5a.65.65,0,0,1-.46-1.11.68.68,0,0,1,.92,0,.64.64,0,0,1,.19.46.65.65,0,0,1-.65.65Z"/><path class="cls-2" d="M2.5,32.52A.64.64,0,0,1,2,32.33a.65.65,0,0,1,0-.92.68.68,0,0,1,.92,0,.65.65,0,0,1-.46,1.11Z"/><path class="cls-2" d="M7.25,25.52a.64.64,0,0,1-.46-.19.65.65,0,0,1,0-.92.68.68,0,0,1,.92,0,.64.64,0,0,1,.19.46.66.66,0,0,1-.19.46A.64.64,0,0,1,7.25,25.52Z"/><path class="cls-2" d="M3.75,47.27a.66.66,0,0,1-.46-.19.68.68,0,0,1-.19-.46.66.66,0,0,1,.19-.46.67.67,0,0,1,.92,0,.66.66,0,0,1,.19.46.68.68,0,0,1-.19.46A.64.64,0,0,1,3.75,47.27Z"/><path class="cls-2" d="M10.75,51a.66.66,0,0,1-.46-.19.68.68,0,0,1-.19-.46.64.64,0,0,1,.19-.46.68.68,0,0,1,.92,0,.66.66,0,0,1,.19.46.68.68,0,0,1-.19.46A.66.66,0,0,1,10.75,51Z"/><path class="cls-2" d="M9.75,60.27a.64.64,0,0,1-.46-.19.65.65,0,0,1,0-.92.68.68,0,0,1,.92,0,.65.65,0,0,1,0,.92A.64.64,0,0,1,9.75,60.27Z"/><path class="cls-2" d="M13.25,66.27a.66.66,0,0,1-.46-.19.68.68,0,0,1-.19-.46.64.64,0,0,1,.19-.46.67.67,0,0,1,.92,0,.66.66,0,0,1,.19.46.68.68,0,0,1-.19.46A.66.66,0,0,1,13.25,66.27Z"/><path class="cls-2" d="M21.75,53.77a.66.66,0,0,1-.46-.19.64.64,0,0,1-.19-.46.6.6,0,0,1,.2-.46.65.65,0,0,1,1.1.46.68.68,0,0,1-.19.46A.66.66,0,0,1,21.75,53.77Z"/><path class="cls-2" d="M31,38a.66.66,0,0,1-.46-.19.68.68,0,0,1-.19-.46.66.66,0,0,1,.19-.46.68.68,0,0,1,.92,0,.66.66,0,0,1,.19.46.68.68,0,0,1-.19.46A.66.66,0,0,1,31,38Z"/><path class="cls-2" d="M25.75,34.52a.65.65,0,0,1-.46-1.11.67.67,0,0,1,.92,0,.65.65,0,0,1-.46,1.11Z"/><path class="cls-2" d="M37,29a.66.66,0,0,1-.46-.19.68.68,0,0,1-.19-.46.66.66,0,0,1,.19-.46.68.68,0,0,1,.92,0,.66.66,0,0,1,.19.46.68.68,0,0,1-.19.46A.66.66,0,0,1,37,29Z"/><path class="cls-2" d="M61.5,17a.66.66,0,0,1-.46-.19.68.68,0,0,1-.19-.46.66.66,0,0,1,.19-.46.68.68,0,0,1,.92,0,.64.64,0,0,1,.19.46.65.65,0,0,1-.65.65Z"/><path class="cls-2" d="M61,27.52a.64.64,0,0,1-.46-.19.68.68,0,0,1-.19-.46.66.66,0,0,1,.19-.46.68.68,0,0,1,.92,0,.65.65,0,0,1,0,.92A.64.64,0,0,1,61,27.52Z"/><path class="cls-2" d="M58.5,57.52a.66.66,0,0,1-.46-.19.68.68,0,0,1-.19-.46.66.66,0,0,1,.19-.46.68.68,0,0,1,.92,0,.66.66,0,0,1,.19.46.68.68,0,0,1-.19.46A.66.66,0,0,1,58.5,57.52Z"/><path class="cls-2" d="M59,44.77a.64.64,0,0,1-.46-.19.65.65,0,0,1,0-.92.68.68,0,0,1,.92,0,.65.65,0,0,1,0,.92A.64.64,0,0,1,59,44.77Z"/><path class="cls-2" d="M55.5,36a.66.66,0,0,1-.46-.19.68.68,0,0,1-.19-.46.66.66,0,0,1,.19-.46.68.68,0,0,1,.92,0,.66.66,0,0,1,.19.46.68.68,0,0,1-.19.46A.66.66,0,0,1,55.5,36Z"/><path class="cls-2" d="M69,71a.68.68,0,0,1-.46-.19.65.65,0,0,1,0-.92.69.69,0,0,1,.92,0A.65.65,0,0,1,69,71Z"/><path class="cls-2" d="M60.5,66.27A.65.65,0,0,1,60,65.16a.67.67,0,0,1,.92,0,.64.64,0,0,1,.19.46.65.65,0,0,1-.65.65Z"/><path class="cls-2" d="M44.25,71.77a.65.65,0,0,1-.46-1.11.68.68,0,0,1,.92,0,.65.65,0,0,1-.46,1.11Z"/><path class="cls-2" d="M24.25,1.52A.65.65,0,0,1,23.6.87a.64.64,0,0,1,.19-.46.67.67,0,0,1,.92,0,.66.66,0,0,1,.19.46.68.68,0,0,1-.19.46A.64.64,0,0,1,24.25,1.52Z"/><path class="cls-2" d="M-.25,23.72a.39.39,0,0,1-.25-.1.39.39,0,0,1-.1-.25.39.39,0,0,1,.1-.25.38.38,0,0,1,.5,0,.39.39,0,0,1,.1.25.39.39,0,0,1-.1.25A.39.39,0,0,1-.25,23.72Z"/></pattern><pattern id="USGS_22_Gravel_Beach_4-3" data-name="USGS 22 Gravel Beach 4" width="72" height="72" patternTransform="translate(-335.14 -38.04) scale(1.39)" patternUnits="userSpaceOnUse" viewBox="0 0 72 72"><rect class="cls-1" width="72" height="72"/><path class="cls-2" d="M72.25,58a.35.35,0,0,1-.25-.6.38.38,0,0,1,.5,0,.35.35,0,0,1-.25.6Z"/><path class="cls-2" d="M20.75,3.22a.39.39,0,0,1-.25-.1.36.36,0,0,1,0-.5.36.36,0,0,1,.6.25.39.39,0,0,1-.1.25A.39.39,0,0,1,20.75,3.22Z"/><path class="cls-2" d="M19.75,8.47a.34.34,0,0,1-.35-.35.33.33,0,0,1,.11-.25.37.37,0,0,1,.49,0,.36.36,0,0,1,.1.25.39.39,0,0,1-.1.25A.37.37,0,0,1,19.75,8.47Z"/><path class="cls-2" d="M20,10.72a.35.35,0,0,1-.25-.6.37.37,0,0,1,.5,0,.35.35,0,0,1-.25.6Z"/><path class="cls-2" d="M15,10.72a.34.34,0,0,1-.35-.35.37.37,0,0,1,.1-.25.38.38,0,0,1,.5,0,.35.35,0,0,1-.25.6Z"/><path class="cls-2" d="M22.5,20.22a.35.35,0,0,1-.25-.6.36.36,0,0,1,.6.25.34.34,0,0,1-.35.35Z"/><path class="cls-2" d="M15,23.22a.34.34,0,0,1-.35-.35.33.33,0,0,1,.11-.25.37.37,0,0,1,.49,0,.36.36,0,0,1,.1.25.34.34,0,0,1-.35.35Z"/><path class="cls-2" d="M13.75,24.22a.35.35,0,0,1-.25-.6.36.36,0,0,1,.6.25.39.39,0,0,1-.1.25A.37.37,0,0,1,13.75,24.22Z"/><path class="cls-2" d="M23.75,27.22a.34.34,0,0,1-.35-.35.33.33,0,0,1,.11-.25.37.37,0,0,1,.49,0,.39.39,0,0,1,.1.25.35.35,0,0,1-.1.24A.36.36,0,0,1,23.75,27.22Z"/><path class="cls-2" d="M30.5,26a.35.35,0,0,1-.25-.6.36.36,0,0,1,.6.25.34.34,0,0,1-.35.35Z"/><path class="cls-2" d="M31,23.47a.34.34,0,0,1-.35-.35.33.33,0,0,1,.11-.25.35.35,0,0,1,.59.25.39.39,0,0,1-.1.25A.37.37,0,0,1,31,23.47Z"/><path class="cls-2" d="M29,18.47a.35.35,0,0,1-.25-.6.36.36,0,0,1,.6.25.34.34,0,0,1-.35.35Z"/><path class="cls-2" d="M33.75,20a.35.35,0,0,1-.25-.6.36.36,0,0,1,.6.25.34.34,0,0,1-.35.35Z"/><path class="cls-2" d="M31.25,15a.35.35,0,0,1-.25-.6.36.36,0,0,1,.6.25.34.34,0,0,1-.35.35Z"/><path class="cls-2" d="M31.5,12a.35.35,0,0,1-.25-.6.37.37,0,0,1,.5,0,.35.35,0,0,1-.25.6Z"/><path class="cls-2" d="M32,7.22a.35.35,0,0,1-.25-.6.36.36,0,0,1,.6.25.34.34,0,0,1-.35.35Z"/><path class="cls-2" d="M31.75,3.22a.39.39,0,0,1-.25-.1.39.39,0,0,1-.1-.25.33.33,0,0,1,.11-.25.35.35,0,0,1,.59.25.39.39,0,0,1-.1.25A.39.39,0,0,1,31.75,3.22Z"/><path class="cls-2" d="M33.75,1.47a.36.36,0,0,1-.25-.11.33.33,0,0,1-.1-.24.33.33,0,0,1,.11-.25.36.36,0,0,1,.49,0,.36.36,0,0,1,.1.25.34.34,0,0,1-.11.25A.35.35,0,0,1,33.75,1.47Z"/><path class="cls-2" d="M41.25,7.22a.39.39,0,0,1-.25-.1.35.35,0,0,1-.1-.25.39.39,0,0,1,.1-.25.35.35,0,0,1,.49,0,.36.36,0,0,1,.11.25.34.34,0,0,1-.35.35Z"/><path class="cls-2" d="M45.25,7a.39.39,0,0,1-.25-.1.36.36,0,0,1,0-.5.36.36,0,0,1,.6.25.34.34,0,0,1-.35.35Z"/><path class="cls-2" d="M42.25,13.72a.34.34,0,0,1-.35-.35.33.33,0,0,1,.11-.25.35.35,0,0,1,.59.25.34.34,0,0,1-.35.35Z"/><path class="cls-2" d="M46.75,14.47a.34.34,0,0,1-.35-.35.33.33,0,0,1,.11-.25.36.36,0,0,1,.49,0,.39.39,0,0,1,.1.25.33.33,0,0,1-.1.24A.36.36,0,0,1,46.75,14.47Z"/><path class="cls-2" d="M46.75,16.47a.34.34,0,0,1-.35-.35.33.33,0,0,1,.11-.25.36.36,0,0,1,.49,0,.39.39,0,0,1,.1.25.37.37,0,0,1-.1.24A.36.36,0,0,1,46.75,16.47Z"/><path class="cls-2" d="M38.75,21a.35.35,0,0,1-.25-.6.36.36,0,0,1,.49,0,.34.34,0,0,1,.11.25.34.34,0,0,1-.35.35Z"/><path class="cls-2" d="M50,13.72a.39.39,0,0,1-.25-.1.36.36,0,0,1,0-.5.37.37,0,0,1,.5,0,.35.35,0,0,1-.25.6Z"/><path class="cls-2" d="M52,12.22a.36.36,0,0,1-.25-.11.35.35,0,0,1-.1-.24.33.33,0,0,1,.11-.25.37.37,0,0,1,.49,0,.36.36,0,0,1,.1.25.34.34,0,0,1-.35.35Z"/><path class="cls-2" d="M54.5,11.22a.36.36,0,0,1-.25-.11.35.35,0,0,1-.1-.24.33.33,0,0,1,.11-.25.35.35,0,0,1,.59.25.34.34,0,0,1-.35.35Z"/><path class="cls-2" d="M56.25,1A.39.39,0,0,1,56,.87a.39.39,0,0,1-.1-.25A.39.39,0,0,1,56,.37a.36.36,0,0,1,.5,0,.35.35,0,0,1,.1.24.39.39,0,0,1-.1.25A.39.39,0,0,1,56.25,1Z"/><path class="cls-2" d="M67.75,3.22a.39.39,0,0,1-.25-.1.39.39,0,0,1-.1-.25.33.33,0,0,1,.11-.25.37.37,0,0,1,.49,0,.36.36,0,0,1,.1.25.39.39,0,0,1-.1.25A.37.37,0,0,1,67.75,3.22Z"/><path class="cls-2" d="M67.75,10.47a.36.36,0,0,1-.25-.11.35.35,0,0,1-.1-.24.39.39,0,0,1,.1-.25.37.37,0,0,1,.5,0,.39.39,0,0,1,.1.25.34.34,0,0,1-.11.25A.35.35,0,0,1,67.75,10.47Z"/><path class="cls-2" d="M64,12.47a.35.35,0,0,1-.25-.6.36.36,0,0,1,.6.25.34.34,0,0,1-.35.35Z"/><path class="cls-2" d="M65,16a.34.34,0,0,1-.35-.35.37.37,0,0,1,.1-.25.38.38,0,0,1,.5,0A.35.35,0,0,1,65,16Z"/><path class="cls-2" d="M63.75,20a.36.36,0,0,1-.25-.11.35.35,0,0,1-.1-.24.39.39,0,0,1,.1-.25.37.37,0,0,1,.5,0,.39.39,0,0,1,.1.25.34.34,0,0,1-.11.25A.35.35,0,0,1,63.75,20Z"/><path class="cls-2" d="M66,20a.34.34,0,0,1-.35-.35.33.33,0,0,1,.11-.25.37.37,0,0,1,.49,0,.36.36,0,0,1,.1.25A.34.34,0,0,1,66,20Z"/><path class="cls-2" d="M67.75,21.47a.35.35,0,0,1-.25-.6.37.37,0,0,1,.5,0,.35.35,0,0,1-.25.6Z"/><path class="cls-2" d="M6.75,52.47a.35.35,0,0,1-.25-.6.38.38,0,0,1,.5,0,.35.35,0,0,1-.25.6Z"/><path class="cls-2" d="M7,54.72a.35.35,0,0,1-.25-.6.37.37,0,0,1,.5,0,.35.35,0,0,1-.25.6Z"/><path class="cls-2" d="M2,54.72a.39.39,0,0,1-.25-.1.36.36,0,0,1,0-.5.38.38,0,0,1,.5,0,.36.36,0,0,1,0,.5A.39.39,0,0,1,2,54.72Z"/><path class="cls-2" d="M9.5,64.22a.35.35,0,0,1-.25-.6.36.36,0,0,1,.6.25.34.34,0,0,1-.35.35Z"/><path class="cls-2" d="M.75,68.22a.39.39,0,0,1-.25-.1.36.36,0,0,1,0-.5.38.38,0,0,1,.5,0,.36.36,0,0,1,0,.5A.39.39,0,0,1,.75,68.22Z"/><path class="cls-2" d="M10.75,71.22a.35.35,0,0,1-.25-.6.38.38,0,0,1,.5,0,.35.35,0,0,1-.25.6Z"/><path class="cls-2" d="M18,67.47a.34.34,0,0,1-.35-.35.37.37,0,0,1,.1-.25.37.37,0,0,1,.49,0,.36.36,0,0,1,.11.25.34.34,0,0,1-.35.35Z"/><path class="cls-2" d="M16,62.47a.35.35,0,0,1-.25-.6.37.37,0,0,1,.5,0,.35.35,0,0,1-.25.6Z"/><path class="cls-2" d="M19.25,58a.34.34,0,0,1-.35-.35.33.33,0,0,1,.11-.25.37.37,0,0,1,.49,0,.36.36,0,0,1,.1.25.34.34,0,0,1-.35.35Z"/><path class="cls-2" d="M18.5,56a.34.34,0,0,1-.35-.35.33.33,0,0,1,.11-.25.37.37,0,0,1,.49,0,.36.36,0,0,1,.1.25.34.34,0,0,1-.35.35Z"/><path class="cls-2" d="M16,55a.34.34,0,0,1-.35-.35.33.33,0,0,1,.11-.25.37.37,0,0,1,.49,0,.36.36,0,0,1,.1.25A.34.34,0,0,1,16,55Z"/><path class="cls-2" d="M19,51.22a.34.34,0,0,1-.35-.35.33.33,0,0,1,.11-.25.37.37,0,0,1,.49,0,.36.36,0,0,1,.1.25.34.34,0,0,1-.35.35Z"/><path class="cls-2" d="M18.75,47.22a.35.35,0,0,1-.25-.6.38.38,0,0,1,.5,0,.35.35,0,0,1-.25.6Z"/><path class="cls-2" d="M16,47.47a.35.35,0,0,1-.25-.6.37.37,0,0,1,.5,0,.35.35,0,0,1-.25.6Z"/><path class="cls-2" d="M32.25,51a.34.34,0,0,1-.35-.35.33.33,0,0,1,.11-.25.35.35,0,0,1,.59.25.34.34,0,0,1-.35.35Z"/><path class="cls-2" d="M27,54.47a.35.35,0,0,1-.25-.6.37.37,0,0,1,.5,0,.35.35,0,0,1-.25.6Z"/><path class="cls-2" d="M31.75,56a.35.35,0,0,1-.25-.6.37.37,0,0,1,.5,0,.35.35,0,0,1-.25.6Z"/><path class="cls-2" d="M31.75,57.72a.35.35,0,0,1-.24-.1.35.35,0,0,1,0-.5.37.37,0,0,1,.5,0,.36.36,0,0,1,.1.25.34.34,0,0,1-.35.35Z"/><path class="cls-2" d="M33.75,58.47a.35.35,0,0,1-.25-.6.37.37,0,0,1,.5,0,.35.35,0,0,1-.25.6Z"/><path class="cls-2" d="M25.75,65a.35.35,0,0,1-.25-.6.36.36,0,0,1,.6.25.34.34,0,0,1-.35.35Z"/><path class="cls-2" d="M35.75,56.47a.35.35,0,0,1-.25-.6.36.36,0,0,1,.6.25.34.34,0,0,1-.35.35Z"/><path class="cls-2" d="M39,56.22a.35.35,0,0,1-.24-.1.36.36,0,0,1-.11-.25.39.39,0,0,1,.1-.25.37.37,0,0,1,.5,0,.35.35,0,0,1-.25.6Z"/><path class="cls-2" d="M41.5,51a.35.35,0,0,1-.25-.6.37.37,0,0,1,.5,0,.35.35,0,0,1-.25.6Z"/><path class="cls-2" d="M43.25,45a.36.36,0,0,1-.25-.11.35.35,0,0,1-.1-.24.39.39,0,0,1,.1-.25.37.37,0,0,1,.5,0,.35.35,0,0,1-.25.6Z"/><path class="cls-2" d="M50.75,50.72a.39.39,0,0,1-.25-.1.36.36,0,0,1-.1-.25.39.39,0,0,1,.1-.25.36.36,0,0,1,.5,0,.35.35,0,0,1-.25.6Z"/><path class="cls-2" d="M51.75,46.72a.36.36,0,0,1-.25-.11.35.35,0,0,1-.1-.24.33.33,0,0,1,.11-.25.37.37,0,0,1,.49,0,.36.36,0,0,1,.1.25.34.34,0,0,1-.35.35Z"/><path class="cls-2" d="M54.75,47.22a.33.33,0,0,1-.25-.11.35.35,0,0,1-.1-.24.37.37,0,0,1,.1-.25.36.36,0,0,1,.49,0,.34.34,0,0,1,.11.25.34.34,0,0,1-.35.35Z"/><path class="cls-2" d="M54.75,54.47a.33.33,0,0,1-.25-.11.35.35,0,0,1-.1-.24.33.33,0,0,1,.11-.25.37.37,0,0,1,.49,0,.36.36,0,0,1,.1.25.34.34,0,0,1-.35.35Z"/><path class="cls-2" d="M51,56.47a.35.35,0,0,1-.25-.6.37.37,0,0,1,.5,0,.35.35,0,0,1,.1.25.39.39,0,0,1-.1.25A.37.37,0,0,1,51,56.47Z"/><path class="cls-2" d="M50.75,64a.34.34,0,0,1-.35-.35.31.31,0,0,1,.1-.24.34.34,0,0,1,.49,0,.36.36,0,0,1,.11.25.39.39,0,0,1-.1.25A.37.37,0,0,1,50.75,64Z"/><path class="cls-2" d="M53,64a.34.34,0,0,1-.35-.35.33.33,0,0,1,.11-.25.36.36,0,0,1,.49,0,.31.31,0,0,1,.1.24A.34.34,0,0,1,53,64Z"/><path class="cls-2" d="M55.75,63.22a.35.35,0,0,1-.25-.6.36.36,0,0,1,.6.25.34.34,0,0,1-.35.35Z"/><path class="cls-2" d="M58,61.72a.36.36,0,0,1-.25-.11.35.35,0,0,1-.1-.24.39.39,0,0,1,.1-.25.37.37,0,0,1,.5,0,.37.37,0,0,1,.1.25.34.34,0,0,1-.35.35Z"/><path class="cls-2" d="M20.75,27.22a.35.35,0,0,1-.25-.6.36.36,0,0,1,.6.25.34.34,0,0,1-.35.35Z"/><path class="cls-2" d="M22.5,24.22a.35.35,0,0,1-.25-.6.37.37,0,0,1,.5,0,.35.35,0,0,1-.25.6Z"/><path class="cls-2" d="M38.75,25a.35.35,0,0,1-.25-.6.37.37,0,0,1,.5,0,.35.35,0,0,1-.25.6Z"/><path class="cls-2" d="M46,29.22a.39.39,0,0,1-.25-.1.35.35,0,0,1,0-.49.34.34,0,0,1,.49,0,.36.36,0,0,1,.11.25.34.34,0,0,1-.35.35Z"/><path class="cls-2" d="M55,28.22a.35.35,0,0,1-.25-.6.37.37,0,0,1,.5,0,.35.35,0,0,1-.25.6Z"/><path class="cls-2" d="M51,25.47a.35.35,0,0,1-.25-.6.37.37,0,0,1,.5,0,.35.35,0,0,1,.1.25.34.34,0,0,1-.35.35Z"/><path class="cls-2" d="M51.75,29.72a.37.37,0,0,1-.25-.1.36.36,0,0,1,0-.5.36.36,0,0,1,.6.25.34.34,0,0,1-.35.35Z"/><path class="cls-2" d="M62.25,35.72a.34.34,0,0,1-.35-.35.33.33,0,0,1,.11-.25.36.36,0,0,1,.49,0,.31.31,0,0,1,.1.24.34.34,0,0,1-.35.35Z"/><path class="cls-2" d="M56.5,39.22a.35.35,0,0,1-.25-.6.36.36,0,0,1,.6.25.34.34,0,0,1-.35.35Z"/><path class="cls-2" d="M48,37.47a.35.35,0,0,1-.24-.1.36.36,0,0,1-.11-.25.39.39,0,0,1,.1-.25.36.36,0,0,1,.5,0,.33.33,0,0,1,.1.24.34.34,0,0,1-.35.35Z"/><path class="cls-2" d="M47.75,41.47a.33.33,0,0,1-.25-.11.35.35,0,0,1-.1-.24.39.39,0,0,1,.1-.25.38.38,0,0,1,.5,0,.35.35,0,0,1-.25.6Z"/><path class="cls-2" d="M53.25,45.22a.34.34,0,0,1-.25-.11.31.31,0,0,1-.1-.24.34.34,0,0,1,.11-.25.37.37,0,0,1,.49,0,.35.35,0,0,1-.25.6Z"/><path class="cls-2" d="M62,48.22a.34.34,0,0,1-.35-.35.33.33,0,0,1,.11-.25.36.36,0,0,1,.49,0,.31.31,0,0,1,.1.24.34.34,0,0,1-.35.35Z"/><path class="cls-2" d="M64.75,52a.34.34,0,0,1-.35-.35.33.33,0,0,1,.11-.25.37.37,0,0,1,.49,0,.36.36,0,0,1,.1.25.34.34,0,0,1-.35.35Z"/><path class="cls-2" d="M69.25,45.22a.35.35,0,0,1-.25-.6.37.37,0,0,1,.5,0,.35.35,0,0,1-.25.6Z"/><path class="cls-2" d="M59.75,39.22a.33.33,0,0,1-.25-.11.35.35,0,0,1-.1-.24.34.34,0,0,1,.11-.25.36.36,0,0,1,.49,0,.36.36,0,0,1,0,.5A.37.37,0,0,1,59.75,39.22Z"/><path class="cls-2" d="M32.25,47.22a.35.35,0,0,1-.25-.6.36.36,0,0,1,.6.25.34.34,0,0,1-.35.35Z"/><path class="cls-2" d="M26,38a.35.35,0,0,1-.25-.6.36.36,0,0,1,.6.25A.34.34,0,0,1,26,38Z"/><path class="cls-2" d="M29.5,35.72a.35.35,0,0,1-.24-.1.36.36,0,0,1-.11-.25.33.33,0,0,1,.11-.25.37.37,0,0,1,.49,0,.36.36,0,0,1,.1.25.34.34,0,0,1-.35.35Z"/><path class="cls-2" d="M10.25,29.72a.35.35,0,0,1-.25-.6.37.37,0,0,1,.49,0,.33.33,0,0,1,.11.25.34.34,0,0,1-.35.35Z"/><path class="cls-2" d="M5.75,31.72a.35.35,0,0,1-.25-.6.36.36,0,0,1,.49,0,.33.33,0,0,1,.11.25.37.37,0,0,1-.1.25A.39.39,0,0,1,5.75,31.72Z"/><path class="cls-2" d="M2.25,35.47a.39.39,0,0,1-.25-.1.36.36,0,0,1,0-.5.37.37,0,0,1,.5,0,.35.35,0,0,1,.1.25.33.33,0,0,1-.1.24A.36.36,0,0,1,2.25,35.47Z"/><path class="cls-2" d="M16.75,42.22a.34.34,0,0,1-.35-.35.33.33,0,0,1,.11-.25.35.35,0,0,1,.59.25.39.39,0,0,1-.1.25A.37.37,0,0,1,16.75,42.22Z"/><path class="cls-2" d="M12.5,36.22a.34.34,0,0,1-.35-.35.33.33,0,0,1,.11-.25.37.37,0,0,1,.49,0,.36.36,0,0,1,.1.25.39.39,0,0,1-.1.25A.37.37,0,0,1,12.5,36.22Z"/><path class="cls-2" d="M26.25,30.47a.35.35,0,0,1-.25-.6.37.37,0,0,1,.5,0,.35.35,0,0,1-.25.6Z"/><path class="cls-2" d="M39,31a.35.35,0,0,1-.25-.6.37.37,0,0,1,.5,0,.36.36,0,0,1,0,.5A.37.37,0,0,1,39,31Z"/><path class="cls-2" d="M38,33a.35.35,0,0,1-.25-.6.37.37,0,0,1,.5,0A.35.35,0,0,1,38,33Z"/><path class="cls-2" d="M27.75,42.22a.35.35,0,0,1-.25-.6.37.37,0,0,1,.5,0,.35.35,0,0,1-.25.6Z"/><path class="cls-2" d="M6.25,20.72a.35.35,0,0,1-.25-.6.37.37,0,0,1,.5,0,.35.35,0,0,1-.25.6Z"/><path class="cls-2" d="M9.5,19a.35.35,0,0,1-.25-.6.36.36,0,0,1,.6.25A.34.34,0,0,1,9.5,19Z"/><path class="cls-2" d="M11.5,23.72a.34.34,0,0,1-.35-.35.33.33,0,0,1,.11-.25.37.37,0,0,1,.49,0,.36.36,0,0,1,.1.25.39.39,0,0,1-.1.25A.37.37,0,0,1,11.5,23.72Z"/><path class="cls-2" d="M2.75,26a.39.39,0,0,1-.25-.1.36.36,0,0,1,0-.5.38.38,0,0,1,.5,0,.36.36,0,0,1,0,.5A.39.39,0,0,1,2.75,26Z"/><path class="cls-2" d="M64,29.72a.35.35,0,0,1-.24-.1.36.36,0,0,1-.11-.25.39.39,0,0,1,.1-.25.36.36,0,0,1,.6.25.34.34,0,0,1-.35.35Z"/><path class="cls-2" d="M69.25,30a.34.34,0,0,1-.35-.35.34.34,0,0,1,.11-.25.37.37,0,0,1,.49,0,.36.36,0,0,1,.1.25.39.39,0,0,1-.1.25A.37.37,0,0,1,69.25,30Z"/><path class="cls-2" d="M1.25,9.22A.39.39,0,0,1,1,9.12a.36.36,0,0,1,0-.5.38.38,0,0,1,.5,0,.36.36,0,0,1,0,.5A.39.39,0,0,1,1.25,9.22Z"/><path class="cls-2" d="M16.25,6.22a.34.34,0,0,1-.35-.35.37.37,0,0,1,.1-.25.38.38,0,0,1,.5,0,.35.35,0,0,1-.25.6Z"/><path class="cls-2" d="M3.5,6.22a.35.35,0,0,1-.25-.6.36.36,0,0,1,.6.25.34.34,0,0,1-.35.35Z"/><path class="cls-2" d="M12.5,14.47a.35.35,0,0,1-.25-.6.36.36,0,0,1,.6.25.34.34,0,0,1-.35.35Z"/><path class="cls-2" d="M18.25,19.47a.34.34,0,0,1-.35-.35.37.37,0,0,1,.1-.25.36.36,0,0,1,.6.25.34.34,0,0,1-.35.35Z"/><path class="cls-2" d="M21,37.22a.34.34,0,0,1-.35-.35.37.37,0,0,1,.1-.25.37.37,0,0,1,.49,0,.36.36,0,0,1,.11.25.34.34,0,0,1-.35.35Z"/><path class="cls-2" d="M.5,44.47a.39.39,0,0,1-.25-.1.39.39,0,0,1-.1-.25.33.33,0,0,1,.11-.25.37.37,0,0,1,.49,0,.36.36,0,0,1,.1.25.39.39,0,0,1-.1.25A.39.39,0,0,1,.5,44.47Z"/><path class="cls-2" d="M67.75,66.22a.34.34,0,0,1-.35-.35.33.33,0,0,1,.11-.25.37.37,0,0,1,.49,0,.36.36,0,0,1,.1.25.34.34,0,0,1-.35.35Z"/><path class="cls-2" d="M59.5,70a.39.39,0,0,1-.25-.1.35.35,0,0,1-.1-.25.39.39,0,0,1,.1-.25.37.37,0,0,1,.5,0,.36.36,0,0,1,.1.25.37.37,0,0,1-.1.25A.39.39,0,0,1,59.5,70Z"/><path class="cls-2" d="M40.25,68.22a.35.35,0,0,1-.25-.6.37.37,0,0,1,.5,0,.36.36,0,0,1,0,.5A.37.37,0,0,1,40.25,68.22Z"/><path class="cls-2" d="M4.25,60.22a.35.35,0,0,1-.25-.6.36.36,0,0,1,.6.25.34.34,0,0,1-.35.35Z"/><path class="cls-2" d="M26.25,59.72a.35.35,0,0,1-.25-.6.36.36,0,0,1,.6.25.34.34,0,0,1-.35.35Z"/><path class="cls-2" d="M37,48.72a.34.34,0,0,1-.35-.35.37.37,0,0,1,.1-.25.37.37,0,0,1,.5,0,.36.36,0,0,1,0,.5A.37.37,0,0,1,37,48.72Z"/><path class="cls-2" d="M8.5,40.47a.35.35,0,0,1-.25-.6.36.36,0,0,1,.6.25.34.34,0,0,1-.35.35Z"/><path class="cls-2" d="M52,38.22a.36.36,0,0,1-.25-.11.35.35,0,0,1-.1-.24.33.33,0,0,1,.11-.25.37.37,0,0,1,.49,0,.36.36,0,0,1,.1.25.34.34,0,0,1-.35.35Z"/><path class="cls-2" d="M60.5,46.22a.34.34,0,0,1-.35-.35.33.33,0,0,1,.11-.25.37.37,0,0,1,.49,0,.36.36,0,0,1,.1.25.34.34,0,0,1-.35.35Z"/><path class="cls-2" d="M51,66.47a.35.35,0,0,1-.25-.6.37.37,0,0,1,.5,0,.39.39,0,0,1,.1.25.35.35,0,0,1-.1.25A.39.39,0,0,1,51,66.47Z"/><path class="cls-2" d="M39.75,38a.35.35,0,0,1-.25-.6.36.36,0,0,1,.6.25.34.34,0,0,1-.35.35Z"/><path class="cls-2" d="M27.25,13.72a.35.35,0,0,1-.25-.6.36.36,0,0,1,.6.25.34.34,0,0,1-.35.35Z"/><path class="cls-2" d="M19.5,26.72a.34.34,0,0,1-.35-.35.37.37,0,0,1,.1-.25.37.37,0,0,1,.49,0,.36.36,0,0,1,.11.25.34.34,0,0,1-.35.35Z"/><path class="cls-2" d="M11.5,2a.39.39,0,0,1-.25-.1.39.39,0,0,1-.1-.25.39.39,0,0,1,.1-.25.38.38,0,0,1,.5,0,.39.39,0,0,1,.1.25.39.39,0,0,1-.1.25A.39.39,0,0,1,11.5,2Z"/><path class="cls-2" d="M55,4a.34.34,0,0,1-.35-.35.33.33,0,0,1,.11-.25.37.37,0,0,1,.49,0,.36.36,0,0,1,.1.25A.34.34,0,0,1,55,4Z"/><path class="cls-2" d="M47,70a.39.39,0,0,1-.25-.1.37.37,0,0,1-.1-.25.39.39,0,0,1,.1-.25.36.36,0,0,1,.6.25A.34.34,0,0,1,47,70Z"/><path class="cls-2" d="M4.5,40.47a.34.34,0,0,1-.35-.35.33.33,0,0,1,.11-.25.37.37,0,0,1,.49,0,.36.36,0,0,1,.1.25.34.34,0,0,1-.35.35Z"/><path class="cls-2" d="M68.5,13.47a.35.35,0,0,1-.25-.6.37.37,0,0,1,.5,0,.36.36,0,0,1,0,.5A.39.39,0,0,1,68.5,13.47Z"/><path class="cls-2" d="M23,14.22a.35.35,0,0,1-.25-.6.36.36,0,0,1,.6.25.34.34,0,0,1-.35.35Z"/><path class="cls-2" d="M20.25,17.47a.35.35,0,0,1-.25-.6.37.37,0,0,1,.5,0,.35.35,0,0,1-.25.6Z"/><path class="cls-2" d="M14.5,17.47a.34.34,0,0,1-.35-.35.33.33,0,0,1,.11-.25.37.37,0,0,1,.49,0,.36.36,0,0,1,.1.25.34.34,0,0,1-.35.35Z"/><path class="cls-2" d="M5.75,12a.35.35,0,0,1-.25-.6.36.36,0,0,1,.49,0,.33.33,0,0,1,.11.25.34.34,0,0,1-.35.35Z"/><path class="cls-2" d="M6.75,3a.37.37,0,0,1-.24-.1.36.36,0,0,1-.11-.25.39.39,0,0,1,.1-.25.36.36,0,0,1,.6.25.39.39,0,0,1-.1.25A.39.39,0,0,1,6.75,3Z"/><path class="cls-2" d="M9.75,8.47a.35.35,0,0,1-.25-.6.36.36,0,0,1,.6.25.34.34,0,0,1-.35.35Z"/><path class="cls-2" d="M14,8.47a.34.34,0,0,1-.35-.35.33.33,0,0,1,.11-.25.37.37,0,0,1,.49,0,.36.36,0,0,1,.1.25.34.34,0,0,1-.35.35Z"/><path class="cls-2" d="M25.5,7.22a.35.35,0,0,1-.25-.6.36.36,0,0,1,.6.25.34.34,0,0,1-.35.35Z"/><path class="cls-2" d="M36.75,7.72a.35.35,0,0,1-.25-.6.37.37,0,0,1,.5,0,.35.35,0,0,1-.25.6Z"/><path class="cls-2" d="M37.25,4.47a.34.34,0,0,1-.35-.35A.33.33,0,0,1,37,3.87a.35.35,0,0,1,.59.25.34.34,0,0,1-.35.35Z"/><path class="cls-2" d="M43,2.47a.39.39,0,0,1-.25-.1.39.39,0,0,1-.1-.25.39.39,0,0,1,.1-.25.37.37,0,0,1,.5,0,.39.39,0,0,1,.1.25.39.39,0,0,1-.1.25A.42.42,0,0,1,43,2.47Z"/><path class="cls-2" d="M49.25,8.47a.39.39,0,0,1-.25-.1.36.36,0,0,1,0-.5.37.37,0,0,1,.5,0,.35.35,0,0,1-.25.6Z"/><path class="cls-2" d="M45.75,9.47a.35.35,0,0,1-.25-.6.37.37,0,0,1,.5,0,.36.36,0,0,1,0,.5A.37.37,0,0,1,45.75,9.47Z"/><path class="cls-2" d="M35.5,11.22a.34.34,0,0,1-.35-.35.37.37,0,0,1,.1-.25.36.36,0,0,1,.6.25.34.34,0,0,1-.35.35Z"/><path class="cls-2" d="M39,15.22a.35.35,0,0,1-.25-.6.36.36,0,0,1,.6.25.34.34,0,0,1-.35.35Z"/><path class="cls-2" d="M24.5,18.22a.35.35,0,0,1-.25-.6.36.36,0,0,1,.6.25.34.34,0,0,1-.35.35Z"/><path class="cls-2" d="M8,27.47a.35.35,0,0,1-.25-.6.36.36,0,0,1,.6.25.34.34,0,0,1-.35.35Z"/><path class="cls-2" d="M15.75,32a.35.35,0,0,1-.25-.6.38.38,0,0,1,.5,0,.35.35,0,0,1-.25.6Z"/><path class="cls-2" d="M10.25,33.72a.34.34,0,0,1-.35-.35.33.33,0,0,1,.11-.25.37.37,0,0,1,.49,0,.36.36,0,0,1,.1.25.37.37,0,0,1-.1.25A.39.39,0,0,1,10.25,33.72Z"/><path class="cls-2" d="M5,37.22a.35.35,0,0,1-.25-.6.38.38,0,0,1,.5,0,.37.37,0,0,1,.1.25.34.34,0,0,1-.35.35Z"/><path class="cls-2" d="M3,20.72a.39.39,0,0,1-.25-.1.36.36,0,0,1,0-.5.38.38,0,0,1,.5,0,.36.36,0,0,1,0,.5A.39.39,0,0,1,3,20.72Z"/><path class="cls-2" d="M20.25,31a.34.34,0,0,1-.35-.35.33.33,0,0,1,.11-.25.35.35,0,0,1,.59.25.34.34,0,0,1-.35.35Z"/><path class="cls-2" d="M17.25,35.72a.35.35,0,0,1-.25-.6.37.37,0,0,1,.5,0,.35.35,0,0,1-.25.6Z"/><path class="cls-2" d="M15.75,39.22a.34.34,0,0,1-.35-.35.33.33,0,0,1,.11-.25.37.37,0,0,1,.49,0,.36.36,0,0,1,.1.25.39.39,0,0,1-.1.25A.37.37,0,0,1,15.75,39.22Z"/><path class="cls-2" d="M12.5,41.47a.34.34,0,0,1-.35-.35.33.33,0,0,1,.11-.25.37.37,0,0,1,.49,0,.36.36,0,0,1,.1.25.34.34,0,0,1-.35.35Z"/><path class="cls-2" d="M12.5,46.72a.34.34,0,0,1-.35-.35.33.33,0,0,1,.11-.25.37.37,0,0,1,.49,0,.36.36,0,0,1,.1.25.34.34,0,0,1-.35.35Z"/><path class="cls-2" d="M5.5,48.72a.35.35,0,0,1-.25-.6.38.38,0,0,1,.5,0,.35.35,0,0,1-.25.6Z"/><path class="cls-2" d="M10.75,54.72a.35.35,0,0,1-.25-.6.38.38,0,0,1,.5,0,.35.35,0,0,1-.25.6Z"/><path class="cls-2" d="M15.25,58.72a.35.35,0,0,1-.25-.6.37.37,0,0,1,.5,0,.35.35,0,0,1-.25.6Z"/><path class="cls-2" d="M5.75,63.72a.35.35,0,0,1-.25-.6.38.38,0,0,1,.5,0,.36.36,0,0,1,.1.25.34.34,0,0,1-.35.35Z"/><path class="cls-2" d="M2,62.22a.39.39,0,0,1-.25-.1.36.36,0,0,1,0-.5.37.37,0,0,1,.49,0,.34.34,0,0,1,.11.25.39.39,0,0,1-.1.25A.39.39,0,0,1,2,62.22Z"/><path class="cls-2" d="M8.75,68.22a.35.35,0,0,1-.25-.6.36.36,0,0,1,.6.25.39.39,0,0,1-.1.25A.37.37,0,0,1,8.75,68.22Z"/><path class="cls-2" d="M13.25,69.72a.35.35,0,0,1-.25-.6.38.38,0,0,1,.5,0,.35.35,0,0,1-.25.6Z"/><path class="cls-2" d="M21.25,68.72a.34.34,0,0,1-.35-.35.33.33,0,0,1,.11-.25.35.35,0,0,1,.59.25.34.34,0,0,1-.35.35Z"/><path class="cls-2" d="M22.75,66a.35.35,0,0,1-.25-.6.37.37,0,0,1,.5,0,.36.36,0,0,1,0,.5A.37.37,0,0,1,22.75,66Z"/><path class="cls-2" d="M22,60.22a.35.35,0,0,1-.25-.6.38.38,0,0,1,.5,0,.36.36,0,0,1,0,.5A.37.37,0,0,1,22,60.22Z"/><path class="cls-2" d="M24,57.72a.34.34,0,0,1-.35-.35.37.37,0,0,1,.1-.25.38.38,0,0,1,.5,0,.37.37,0,0,1,.1.25.39.39,0,0,1-.1.25A.37.37,0,0,1,24,57.72Z"/><path class="cls-2" d="M26,48a.35.35,0,0,1-.25-.6.37.37,0,0,1,.5,0A.35.35,0,0,1,26,48Z"/><path class="cls-2" d="M25.5,43.72a.35.35,0,0,1-.25-.6.37.37,0,0,1,.5,0,.35.35,0,0,1-.25.6Z"/><path class="cls-2" d="M32,31.22a.34.34,0,0,1-.35-.35.33.33,0,0,1,.11-.25.35.35,0,0,1,.59.25.34.34,0,0,1-.35.35Z"/><path class="cls-2" d="M34,28a.34.34,0,0,1-.35-.35.35.35,0,0,1,.1-.25.37.37,0,0,1,.5,0,.36.36,0,0,1,0,.5A.37.37,0,0,1,34,28Z"/><path class="cls-2" d="M41.5,26a.35.35,0,0,1-.25-.6.37.37,0,0,1,.5,0,.35.35,0,0,1-.25.6Z"/><path class="cls-2" d="M42.75,21a.36.36,0,0,1-.25-.11.33.33,0,0,1-.1-.24.39.39,0,0,1,.1-.25.37.37,0,0,1,.5,0,.39.39,0,0,1,.1.25.34.34,0,0,1-.11.25A.35.35,0,0,1,42.75,21Z"/><path class="cls-2" d="M36.25,19.47a.39.39,0,0,1-.25-.1.36.36,0,0,1-.1-.25.31.31,0,0,1,.1-.24.35.35,0,0,1,.5,0,.35.35,0,0,1-.25.6Z"/><path class="cls-2" d="M27.5,22.47a.35.35,0,0,1-.25-.6.37.37,0,0,1,.5,0,.35.35,0,0,1-.25.6Z"/><path class="cls-2" d="M51.75,22.22a.33.33,0,0,1-.25-.11.35.35,0,0,1-.1-.24.39.39,0,0,1,.1-.25.36.36,0,0,1,.6.25.39.39,0,0,1-.1.25A.37.37,0,0,1,51.75,22.22Z"/><path class="cls-2" d="M43,18a.37.37,0,0,1-.25-.1.36.36,0,0,1,0-.5.38.38,0,0,1,.5,0A.35.35,0,0,1,43,18Z"/><path class="cls-2" d="M50.25,18.22a.37.37,0,0,1-.25-.1.36.36,0,0,1,0-.5.36.36,0,0,1,.6.25.34.34,0,0,1-.35.35Z"/><path class="cls-2" d="M59.25,17.47a.34.34,0,0,1-.35-.35.33.33,0,0,1,.11-.25.37.37,0,0,1,.49,0,.36.36,0,0,1,.1.25.34.34,0,0,1-.35.35Z"/><path class="cls-2" d="M58,14.22a.37.37,0,0,1-.25-.1.36.36,0,0,1,0-.5.36.36,0,0,1,.6.25.34.34,0,0,1-.35.35Z"/><path class="cls-2" d="M61.25,11.22a.34.34,0,0,1-.35-.35.33.33,0,0,1,.11-.25.36.36,0,0,1,.49,0,.31.31,0,0,1,.1.24.34.34,0,0,1-.35.35Z"/><path class="cls-2" d="M58.5,7.72a.39.39,0,0,1-.25-.1.35.35,0,0,1-.1-.25.31.31,0,0,1,.1-.24.35.35,0,0,1,.6.24.34.34,0,0,1-.35.35Z"/><path class="cls-2" d="M59.75,5a.34.34,0,0,1-.25-.11.35.35,0,0,1-.1-.24.33.33,0,0,1,.11-.25.37.37,0,0,1,.49,0,.36.36,0,0,1,.1.25.34.34,0,0,1-.35.35Z"/><path class="cls-2" d="M67.25,6.22a.39.39,0,0,1-.25-.1.36.36,0,0,1-.1-.25.37.37,0,0,1,.1-.25.38.38,0,0,1,.5,0,.35.35,0,0,1-.25.6Z"/><path class="cls-2" d="M70.5,8.72a.39.39,0,0,1-.25-.1.36.36,0,0,1-.1-.25.37.37,0,0,1,.1-.25.37.37,0,0,1,.49,0,.36.36,0,0,1,.11.25.34.34,0,0,1-.35.35Z"/><path class="cls-2" d="M65.5,10a.34.34,0,0,1-.35-.35.37.37,0,0,1,.1-.25.38.38,0,0,1,.5,0,.35.35,0,0,1-.25.6Z"/><path class="cls-2" d="M60,24a.35.35,0,0,1-.25-.6.37.37,0,0,1,.5,0A.35.35,0,0,1,60,24Z"/><path class="cls-2" d="M55.25,24a.35.35,0,0,1-.25-.6.38.38,0,0,1,.5,0,.35.35,0,0,1-.25.6Z"/><path class="cls-2" d="M55.25,19a.34.34,0,0,1-.25-.11.35.35,0,0,1-.1-.24.33.33,0,0,1,.11-.25.37.37,0,0,1,.49,0,.36.36,0,0,1,.1.25.34.34,0,0,1-.35.35Z"/><path class="cls-2" d="M64.75,26a.34.34,0,0,1-.35-.35.33.33,0,0,1,.11-.25.37.37,0,0,1,.49,0,.36.36,0,0,1,.1.25.34.34,0,0,1-.35.35Z"/><path class="cls-2" d="M57.5,31a.33.33,0,0,1-.25-.11.35.35,0,0,1-.1-.24.33.33,0,0,1,.11-.25.37.37,0,0,1,.49,0,.36.36,0,0,1,.1.25.34.34,0,0,1-.35.35Z"/><path class="cls-2" d="M52.5,33a.36.36,0,0,1-.25-.11.35.35,0,0,1-.1-.24.33.33,0,0,1,.11-.25.37.37,0,0,1,.49,0,.36.36,0,0,1,.1.25.34.34,0,0,1-.35.35Z"/><path class="cls-2" d="M47.25,34a.36.36,0,0,1-.25-.11.35.35,0,0,1-.1-.24.33.33,0,0,1,.11-.25.37.37,0,0,1,.49,0,.36.36,0,0,1,.1.25.34.34,0,0,1-.35.35Z"/><path class="cls-2" d="M44,39.47a.36.36,0,0,1-.25-.11.35.35,0,0,1-.1-.24.39.39,0,0,1,.1-.25.37.37,0,0,1,.5,0,.37.37,0,0,1,.1.25.33.33,0,0,1-.11.25A.35.35,0,0,1,44,39.47Z"/><path class="cls-2" d="M33.75,41.72a.35.35,0,0,1-.25-.6.37.37,0,0,1,.5,0,.35.35,0,0,1-.25.6Z"/><path class="cls-2" d="M40.5,48.22a.35.35,0,0,1-.25-.6.36.36,0,0,1,.49,0,.34.34,0,0,1,.11.25.34.34,0,0,1-.35.35Z"/><path class="cls-2" d="M45.5,52.47a.34.34,0,0,1-.35-.35.33.33,0,0,1,.11-.25.35.35,0,0,1,.59.25.34.34,0,0,1-.35.35Z"/><path class="cls-2" d="M46.25,57a.35.35,0,0,1-.25-.6.35.35,0,0,1,.49,0,.36.36,0,0,1,.11.25.34.34,0,0,1-.35.35Z"/><path class="cls-2" d="M41.75,59.72a.35.35,0,0,1-.24-.1.36.36,0,0,1-.11-.25.39.39,0,0,1,.1-.25.37.37,0,0,1,.5,0,.35.35,0,0,1-.25.6Z"/><path class="cls-2" d="M39.75,63a.35.35,0,0,1-.25-.6.37.37,0,0,1,.5,0,.36.36,0,0,1,0,.5A.37.37,0,0,1,39.75,63Z"/><path class="cls-2" d="M35.75,63a.34.34,0,0,1-.35-.35.33.33,0,0,1,.11-.25.35.35,0,0,1,.59.25.34.34,0,0,1-.35.35Z"/><path class="cls-2" d="M36.25,53a.39.39,0,0,1-.25-.1.35.35,0,0,1-.1-.25.39.39,0,0,1,.1-.25.36.36,0,0,1,.5,0,.31.31,0,0,1,.1.24.34.34,0,0,1-.35.35Z"/><path class="cls-2" d="M29.75,63.72a.35.35,0,0,1-.24-.1.36.36,0,0,1-.11-.25.33.33,0,0,1,.11-.25.37.37,0,0,1,.49,0,.36.36,0,0,1,.1.25.34.34,0,0,1-.35.35Z"/><path class="cls-2" d="M31.25,68.72a.35.35,0,0,1-.25-.6.37.37,0,0,1,.5,0,.35.35,0,0,1-.25.6Z"/><path class="cls-2" d="M36.75,71.22a.39.39,0,0,1-.25-.1.37.37,0,0,1-.1-.25.33.33,0,0,1,.11-.25.37.37,0,0,1,.49,0,.36.36,0,0,1,.1.25.37.37,0,0,1-.1.25A.39.39,0,0,1,36.75,71.22Z"/><path class="cls-2" d="M62.75,57.22a.34.34,0,0,1-.35-.35.33.33,0,0,1,.11-.25.37.37,0,0,1,.49,0,.36.36,0,0,1,.1.25.34.34,0,0,1-.35.35Z"/><path class="cls-2" d="M59.75,51a.33.33,0,0,1-.25-.11.35.35,0,0,1-.1-.24.35.35,0,0,1,.59-.25.36.36,0,0,1,.11.25.39.39,0,0,1-.1.25A.37.37,0,0,1,59.75,51Z"/><path class="cls-2" d="M54.25,50.72a.39.39,0,0,1-.25-.1.37.37,0,0,1-.1-.25.35.35,0,0,1,.7,0,.35.35,0,0,1-.1.24A.34.34,0,0,1,54.25,50.72Z"/><path class="cls-2" d="M54.5,42a.36.36,0,0,1-.25-.11.33.33,0,0,1-.1-.24.39.39,0,0,1,.1-.25.37.37,0,0,1,.5,0,.39.39,0,0,1,.1.25.34.34,0,0,1-.11.25A.35.35,0,0,1,54.5,42Z"/><path class="cls-2" d="M62.25,42.47a.35.35,0,0,1-.25-.6.37.37,0,0,1,.5,0,.35.35,0,0,1-.25.6Z"/><path class="cls-2" d="M66.75,47.72a.35.35,0,0,1-.24-.1.36.36,0,0,1-.11-.25.39.39,0,0,1,.1-.25.36.36,0,0,1,.49,0,.32.32,0,0,1,.11.25.34.34,0,0,1-.35.35Z"/><path class="cls-2" d="M69.25,54.47a.35.35,0,0,1-.24-.1.36.36,0,0,1-.11-.25.39.39,0,0,1,.1-.25.36.36,0,0,1,.6.25.34.34,0,0,1-.35.35Z"/><path class="cls-2" d="M63.25,62a.35.35,0,0,1-.24-.1.36.36,0,0,1-.11-.25.39.39,0,0,1,.1-.25.36.36,0,0,1,.49,0,.32.32,0,0,1,.11.25.34.34,0,0,1-.35.35Z"/><path class="cls-2" d="M70,61.22a.34.34,0,0,1-.35-.35.33.33,0,0,1,.11-.25.37.37,0,0,1,.49,0,.36.36,0,0,1,.1.25.34.34,0,0,1-.35.35Z"/><path class="cls-2" d="M64.5,65.72a.35.35,0,0,1-.25-.6.36.36,0,0,1,.5,0,.35.35,0,0,1,.1.24.34.34,0,0,1-.35.35Z"/><path class="cls-2" d="M65.5,68.47a.35.35,0,0,1-.25-.6.37.37,0,0,1,.5,0,.35.35,0,0,1-.25.6Z"/><path class="cls-2" d="M62.25,70.47a.34.34,0,0,1-.35-.35.34.34,0,0,1,.11-.25.36.36,0,0,1,.49,0,.31.31,0,0,1,.1.24.34.34,0,0,1-.35.35Z"/><path class="cls-2" d="M52.5,70a.36.36,0,0,1-.25-.1.36.36,0,0,1,0-.5.36.36,0,0,1,.6.25.39.39,0,0,1-.1.25A.37.37,0,0,1,52.5,70Z"/><path class="cls-2" d="M44.5,66.72a.34.34,0,0,1-.25-.11.35.35,0,0,1-.1-.24.33.33,0,0,1,.11-.25.37.37,0,0,1,.49,0,.36.36,0,0,1,.1.25.34.34,0,0,1-.35.35Z"/><path class="cls-2" d="M28.25,71.47a.39.39,0,0,1-.25-.1.36.36,0,0,1-.1-.25.33.33,0,0,1,.11-.25.35.35,0,0,1,.59.25.33.33,0,0,1-.11.25A.35.35,0,0,1,28.25,71.47Z"/><path class="cls-2" d="M2.75,29.72a.39.39,0,0,1-.25-.1.36.36,0,0,1,0-.5.38.38,0,0,1,.5,0,.36.36,0,0,1,0,.5A.39.39,0,0,1,2.75,29.72Z"/><path class="cls-2" d="M13,5.22a.36.36,0,0,1-.25-.11.31.31,0,0,1-.1-.24.37.37,0,0,1,.1-.25.36.36,0,0,1,.6.25.33.33,0,0,1-.11.25A.35.35,0,0,1,13,5.22Z"/><path class="cls-2" d="M70,34.72a.34.34,0,0,1-.35-.35.33.33,0,0,1,.11-.25.37.37,0,0,1,.49,0,.36.36,0,0,1,.1.25.34.34,0,0,1-.35.35Z"/><path class="cls-2" d="M71,41.47a.35.35,0,0,1-.25-.6.37.37,0,0,1,.5,0,.35.35,0,0,1-.25.6Z"/><path class="cls-2" d="M.75,52a.39.39,0,0,1-.25-.1.39.39,0,0,1-.1-.25.33.33,0,0,1,.11-.25.37.37,0,0,1,.49,0,.36.36,0,0,1,.1.25.39.39,0,0,1-.1.25A.39.39,0,0,1,.75,52Z"/><path class="cls-2" d="M71.75,23.72a.35.35,0,0,1-.25-.6.38.38,0,0,1,.5,0,.35.35,0,0,1-.25.6Z"/><path class="cls-2" d="M68.75,26.72a.35.35,0,0,1-.25-.6.37.37,0,0,1,.5,0,.39.39,0,0,1,.1.25.35.35,0,0,1-.1.25A.39.39,0,0,1,68.75,26.72Z"/><path class="cls-2" d="M68.25,60.47a.34.34,0,0,1-.35-.35.37.37,0,0,1,.1-.25.38.38,0,0,1,.5,0,.35.35,0,0,1-.25.6Z"/><path class="cls-2" d="M71.25,68.47a.35.35,0,0,1-.25-.6.37.37,0,0,1,.5,0,.39.39,0,0,1,.1.25.35.35,0,0,1-.1.25A.39.39,0,0,1,71.25,68.47Z"/><path class="cls-2" d="M.25,58a.39.39,0,0,1-.25-.1.36.36,0,0,1,0-.5.38.38,0,0,1,.5,0,.36.36,0,0,1,0,.5A.39.39,0,0,1,.25,58Z"/><path class="cls-2" d="M2.5,71.47a.39.39,0,0,1-.25-.1.36.36,0,0,1,0-.5.36.36,0,0,1,.6.25.39.39,0,0,1-.1.25A.39.39,0,0,1,2.5,71.47Z"/><path class="cls-2" d="M70,24.22a.34.34,0,0,1-.35-.35.33.33,0,0,1,.11-.25.37.37,0,0,1,.49,0,.36.36,0,0,1,.1.25.34.34,0,0,1-.35.35Z"/><path class="cls-2" d="M1,17a.39.39,0,0,1-.25-.1.36.36,0,0,1,0-.5.38.38,0,0,1,.5,0,.36.36,0,0,1,0,.5A.39.39,0,0,1,1,17Z"/><path class="cls-2" d="M17.75,13.27a.65.65,0,0,1-.65-.65.66.66,0,0,1,.19-.46.68.68,0,0,1,.92,0,.65.65,0,0,1-.46,1.11Z"/><path class="cls-2" d="M29,11.27a.66.66,0,0,1-.46-.19.68.68,0,0,1-.19-.46.66.66,0,0,1,.19-.46.67.67,0,0,1,.92,0,.66.66,0,0,1,.19.46.65.65,0,0,1-.65.65Z"/><path class="cls-2" d="M29,3.77a.65.65,0,0,1-.65-.65.64.64,0,0,1,.19-.46.68.68,0,0,1,.92,0,.65.65,0,0,1,0,.92A.68.68,0,0,1,29,3.77Z"/><path class="cls-2" d="M40,10.77a.65.65,0,0,1-.65-.65.66.66,0,0,1,.19-.46.68.68,0,0,1,.92,0,.63.63,0,0,1,.19.46.68.68,0,0,1-.19.46A.66.66,0,0,1,40,10.77Z"/><path class="cls-2" d="M44.75,12.27a.61.61,0,0,1-.46-.2.64.64,0,0,1-.19-.45.66.66,0,0,1,.19-.46.68.68,0,0,1,.92,0,.63.63,0,0,1,.19.46.61.61,0,0,1-.2.46A.6.6,0,0,1,44.75,12.27Z"/><path class="cls-2" d="M47,23.27a.65.65,0,0,1-.46-1.11.68.68,0,0,1,.92,0A.65.65,0,0,1,47,23.27Z"/><path class="cls-2" d="M54.5,7.27A.64.64,0,0,1,54,7.08a.65.65,0,0,1,0-.92.68.68,0,0,1,.92,0,.64.64,0,0,1,.19.46.66.66,0,0,1-.19.46A.64.64,0,0,1,54.5,7.27Z"/><path class="cls-2" d="M63.75,7a.65.65,0,0,1-.46-1.11.68.68,0,0,1,.92,0A.65.65,0,0,1,63.75,7Z"/><path class="cls-2" d="M64.75,3a.66.66,0,0,1-.46-.19.68.68,0,0,1-.19-.46.66.66,0,0,1,.19-.46.68.68,0,0,1,.92,0,.68.68,0,0,1,.19.46.63.63,0,0,1-.18.45A.67.67,0,0,1,64.75,3Z"/><path class="cls-2" d="M69.25,18.52a.65.65,0,0,1-.46-1.11.67.67,0,0,1,.92,0,.65.65,0,0,1-.46,1.11Z"/><path class="cls-2" d="M7.75,47.52a.64.64,0,0,1-.46-.19.68.68,0,0,1-.19-.46.66.66,0,0,1,.19-.46.68.68,0,0,1,.92,0,.66.66,0,0,1,.19.46.68.68,0,0,1-.19.46A.64.64,0,0,1,7.75,47.52Z"/><path class="cls-2" d="M4.75,57.27a.64.64,0,0,1-.46-.19.65.65,0,0,1,0-.92.67.67,0,0,1,.92,0,.65.65,0,0,1,0,.92A.64.64,0,0,1,4.75,57.27Z"/><path class="cls-2" d="M2,67.52a.66.66,0,0,1-.46-.19.68.68,0,0,1-.19-.46.66.66,0,0,1,.19-.46.68.68,0,0,1,.92,0,.66.66,0,0,1,.19.46.68.68,0,0,1-.19.46A.66.66,0,0,1,2,67.52Z"/><path class="cls-2" d="M17.5,70.27a.66.66,0,0,1-.46-.19.68.68,0,0,1-.19-.46.66.66,0,0,1,.19-.46.68.68,0,0,1,.92,0,.66.66,0,0,1,.19.46.68.68,0,0,1-.19.46A.66.66,0,0,1,17.5,70.27Z"/><path class="cls-2" d="M19,62.77a.65.65,0,0,1-.65-.65.64.64,0,0,1,.19-.46.67.67,0,0,1,.92,0,.66.66,0,0,1,.19.46.68.68,0,0,1-.19.46A.66.66,0,0,1,19,62.77Z"/><path class="cls-2" d="M20.75,45.77a.65.65,0,0,1-.65-.65.64.64,0,0,1,.19-.46.67.67,0,0,1,.92,0,.66.66,0,0,1,.19.46.68.68,0,0,1-.19.46A.64.64,0,0,1,20.75,45.77Z"/><path class="cls-2" d="M28.25,51.52a.65.65,0,0,1-.46-1.11.67.67,0,0,1,.92,0,.66.66,0,0,1,.19.46.68.68,0,0,1-.19.46A.64.64,0,0,1,28.25,51.52Z"/><path class="cls-2" d="M33.75,60.77a.65.65,0,0,1-.65-.65.64.64,0,0,1,.19-.46.68.68,0,0,1,.92,0,.63.63,0,0,1,.19.46.64.64,0,0,1-.19.46A.66.66,0,0,1,33.75,60.77Z"/><path class="cls-2" d="M34,67.27a.64.64,0,0,1-.46-.19.65.65,0,0,1,0-.92.67.67,0,0,1,.92,0,.65.65,0,0,1,0,.92A.66.66,0,0,1,34,67.27Z"/><path class="cls-2" d="M41.5,55.52A.65.65,0,0,1,41,54.41a.68.68,0,0,1,.92,0,.65.65,0,0,1-.46,1.11Z"/><path class="cls-2" d="M52,60.27a.65.65,0,0,1-.46-1.11.68.68,0,0,1,.92,0A.65.65,0,0,1,52,60.27Z"/><path class="cls-2" d="M54.75,65.77a.66.66,0,0,1-.46-.19.68.68,0,0,1-.19-.46.64.64,0,0,1,.19-.46.68.68,0,0,1,.92,0,.64.64,0,0,1,.19.46.68.68,0,0,1-.19.46A.66.66,0,0,1,54.75,65.77Z"/><path class="cls-2" d="M25,25a.66.66,0,0,1-.46-.19.68.68,0,0,1-.19-.46.66.66,0,0,1,.19-.46.68.68,0,0,1,.92,0,.66.66,0,0,1,.19.46.68.68,0,0,1-.19.46A.66.66,0,0,1,25,25Z"/><path class="cls-2" d="M35,23.77a.64.64,0,0,1-.46-.19.65.65,0,0,1,0-.92.68.68,0,0,1,.92,0A.65.65,0,0,1,35,23.77Z"/><path class="cls-2" d="M44.75,30a.65.65,0,0,1-.46-1.11.68.68,0,0,1,.92,0,.63.63,0,0,1,.19.46.61.61,0,0,1-.2.46A.62.62,0,0,1,44.75,30Z"/><path class="cls-2" d="M51.75,43.52a.65.65,0,0,1-.46-1.11.67.67,0,0,1,.92,0,.64.64,0,0,1,.19.46.65.65,0,0,1-.65.65Z"/><path class="cls-2" d="M66.75,52.27a.65.65,0,0,1-.65-.65.61.61,0,0,1,.2-.46.68.68,0,0,1,.91,0,.65.65,0,0,1-.46,1.11Z"/><path class="cls-2" d="M47,48.27a.65.65,0,0,1-.46-1.11.68.68,0,0,1,.92,0A.65.65,0,0,1,47,48.27Z"/><path class="cls-2" d="M36.75,45a.66.66,0,0,1-.46-.19.68.68,0,0,1-.19-.46.66.66,0,0,1,.19-.46.68.68,0,0,1,.92,0,.66.66,0,0,1,.19.46.68.68,0,0,1-.19.46A.66.66,0,0,1,36.75,45Z"/><path class="cls-2" d="M16.75,29a.65.65,0,0,1-.46-1.11.68.68,0,0,1,.92,0,.65.65,0,0,1,0,.92A.64.64,0,0,1,16.75,29Z"/><path class="cls-2" d="M11,37.27a.65.65,0,0,1-.65-.65.64.64,0,0,1,.19-.46.67.67,0,0,1,.92,0A.65.65,0,0,1,11,37.27Z"/><path class="cls-2" d="M67.25,31.27a.66.66,0,0,1-.46-.19.68.68,0,0,1-.19-.46.66.66,0,0,1,.19-.46.68.68,0,0,1,.92,0,.64.64,0,0,1,.19.46.65.65,0,0,1-.65.65Z"/><path class="cls-2" d="M7,16.27a.61.61,0,0,1-.46-.2.62.62,0,0,1-.19-.45.66.66,0,0,1,.19-.46.67.67,0,0,1,.92,0,.65.65,0,0,1,0,.92A.64.64,0,0,1,7,16.27Z"/><path class="cls-2" d="M8.25,5.77a.68.68,0,0,1-.46-.19.66.66,0,0,1-.19-.46.64.64,0,0,1,.19-.46.67.67,0,0,1,.92,0,.64.64,0,0,1,.19.46.65.65,0,0,1-.65.65Z"/><path class="cls-2" d="M3.25,3a.66.66,0,0,1-.46-.19.68.68,0,0,1-.19-.46.66.66,0,0,1,.19-.46.68.68,0,0,1,.92,0,.66.66,0,0,1,.19.46.68.68,0,0,1-.19.46A.66.66,0,0,1,3.25,3Z"/><path class="cls-2" d="M66.25,37.77a.65.65,0,0,1-.46-1.11.68.68,0,0,1,.92,0,.64.64,0,0,1,.19.46.66.66,0,0,1-.19.46A.64.64,0,0,1,66.25,37.77Z"/><path class="cls-2" d="M43.75,63.52a.66.66,0,0,1-.46-.19.68.68,0,0,1-.19-.46.66.66,0,0,1,.19-.46.67.67,0,0,1,.92,0,.66.66,0,0,1,.19.46.68.68,0,0,1-.19.46A.66.66,0,0,1,43.75,63.52Z"/><path class="cls-2" d="M25.5,70.52a.66.66,0,0,1-.46-.19.68.68,0,0,1-.19-.46.66.66,0,0,1,.19-.46.67.67,0,0,1,.92,0,.66.66,0,0,1,.19.46.68.68,0,0,1-.19.46A.66.66,0,0,1,25.5,70.52Z"/><path class="cls-2" d="M21.75,42.27a.66.66,0,0,1-.46-.19.65.65,0,0,1,0-.92.68.68,0,0,1,.92,0,.65.65,0,0,1-.46,1.11Z"/><path class="cls-2" d="M23.75,29.52a.66.66,0,0,1-.46-.19.68.68,0,0,1-.19-.46.66.66,0,0,1,.19-.46.67.67,0,0,1,.92,0,.64.64,0,0,1,.19.46.65.65,0,0,1-.65.65Z"/><path class="cls-2" d="M41.25,35a.65.65,0,0,1-.46-1.11.68.68,0,0,1,.92,0,.66.66,0,0,1,.19.46.68.68,0,0,1-.19.46A.66.66,0,0,1,41.25,35Z"/><path class="cls-2" d="M67.25,44.27a.66.66,0,0,1-.46-.19.68.68,0,0,1-.19-.46.66.66,0,0,1,.19-.46.68.68,0,0,1,.92,0,.64.64,0,0,1,.19.46.65.65,0,0,1-.65.65Z"/><path class="cls-2" d="M53,15.52a.65.65,0,0,1-.46-1.11.68.68,0,0,1,.92,0,.66.66,0,0,1,.19.46.68.68,0,0,1-.19.46A.66.66,0,0,1,53,15.52Z"/><path class="cls-2" d="M33.75,16.52a.66.66,0,0,1-.46-.19.68.68,0,0,1-.19-.46.64.64,0,0,1,.19-.46.68.68,0,0,1,.92,0,.64.64,0,0,1,.19.46.65.65,0,0,1-.65.65Z"/><path class="cls-2" d="M12.5,19.77A.65.65,0,0,1,12,18.66a.67.67,0,0,1,.92,0,.65.65,0,0,1-.46,1.11Z"/><path class="cls-2" d="M49.25,5a.65.65,0,0,1-.46-1.11.68.68,0,0,1,.92,0A.65.65,0,0,1,49.25,5Z"/><path class="cls-2" d="M58.75,21.27a.65.65,0,0,1-.46-1.11.68.68,0,0,1,.92,0,.64.64,0,0,1,.19.46.65.65,0,0,1-.65.65Z"/><path class="cls-2" d="M67.25,57.77a.66.66,0,0,1-.46-.19.68.68,0,0,1-.19-.46.66.66,0,0,1,.19-.46.68.68,0,0,1,.92,0,.64.64,0,0,1,.19.46.65.65,0,0,1-.65.65Z"/><path class="cls-2" d="M5,70.27a.64.64,0,0,1-.46-.19.65.65,0,0,1,0-.92.67.67,0,0,1,.92,0,.65.65,0,0,1,0,.92A.64.64,0,0,1,5,70.27Z"/><path class="cls-2" d="M2.5,13.77a.61.61,0,0,1-.46-.2.62.62,0,0,1-.19-.45A.66.66,0,0,1,2,12.66a.67.67,0,0,1,.92,0,.65.65,0,0,1,0,.92A.64.64,0,0,1,2.5,13.77Z"/><path class="cls-2" d="M16.25,3.77a.65.65,0,0,1-.46-1.11.68.68,0,0,1,.92,0,.65.65,0,0,1-.46,1.11Z"/><path class="cls-2" d="M40.25,5a.65.65,0,0,1-.46-1.11.68.68,0,0,1,.92,0,.64.64,0,0,1,.19.46.65.65,0,0,1-.65.65Z"/><path class="cls-2" d="M2.5,32.52A.64.64,0,0,1,2,32.33a.65.65,0,0,1,0-.92.68.68,0,0,1,.92,0,.65.65,0,0,1-.46,1.11Z"/><path class="cls-2" d="M7.25,25.52a.64.64,0,0,1-.46-.19.65.65,0,0,1,0-.92.68.68,0,0,1,.92,0,.64.64,0,0,1,.19.46.66.66,0,0,1-.19.46A.64.64,0,0,1,7.25,25.52Z"/><path class="cls-2" d="M3.75,47.27a.66.66,0,0,1-.46-.19.68.68,0,0,1-.19-.46.66.66,0,0,1,.19-.46.67.67,0,0,1,.92,0,.66.66,0,0,1,.19.46.68.68,0,0,1-.19.46A.64.64,0,0,1,3.75,47.27Z"/><path class="cls-2" d="M10.75,51a.66.66,0,0,1-.46-.19.68.68,0,0,1-.19-.46.64.64,0,0,1,.19-.46.68.68,0,0,1,.92,0,.66.66,0,0,1,.19.46.68.68,0,0,1-.19.46A.66.66,0,0,1,10.75,51Z"/><path class="cls-2" d="M9.75,60.27a.64.64,0,0,1-.46-.19.65.65,0,0,1,0-.92.68.68,0,0,1,.92,0,.65.65,0,0,1,0,.92A.64.64,0,0,1,9.75,60.27Z"/><path class="cls-2" d="M13.25,66.27a.66.66,0,0,1-.46-.19.68.68,0,0,1-.19-.46.64.64,0,0,1,.19-.46.67.67,0,0,1,.92,0,.66.66,0,0,1,.19.46.68.68,0,0,1-.19.46A.66.66,0,0,1,13.25,66.27Z"/><path class="cls-2" d="M21.75,53.77a.66.66,0,0,1-.46-.19.64.64,0,0,1-.19-.46.6.6,0,0,1,.2-.46.65.65,0,0,1,1.1.46.68.68,0,0,1-.19.46A.66.66,0,0,1,21.75,53.77Z"/><path class="cls-2" d="M31,38a.66.66,0,0,1-.46-.19.68.68,0,0,1-.19-.46.66.66,0,0,1,.19-.46.68.68,0,0,1,.92,0,.66.66,0,0,1,.19.46.68.68,0,0,1-.19.46A.66.66,0,0,1,31,38Z"/><path class="cls-2" d="M25.75,34.52a.65.65,0,0,1-.46-1.11.67.67,0,0,1,.92,0,.65.65,0,0,1-.46,1.11Z"/><path class="cls-2" d="M37,29a.66.66,0,0,1-.46-.19.68.68,0,0,1-.19-.46.66.66,0,0,1,.19-.46.68.68,0,0,1,.92,0,.66.66,0,0,1,.19.46.68.68,0,0,1-.19.46A.66.66,0,0,1,37,29Z"/><path class="cls-2" d="M61.5,17a.66.66,0,0,1-.46-.19.68.68,0,0,1-.19-.46.66.66,0,0,1,.19-.46.68.68,0,0,1,.92,0,.64.64,0,0,1,.19.46.65.65,0,0,1-.65.65Z"/><path class="cls-2" d="M61,27.52a.64.64,0,0,1-.46-.19.68.68,0,0,1-.19-.46.66.66,0,0,1,.19-.46.68.68,0,0,1,.92,0,.65.65,0,0,1,0,.92A.64.64,0,0,1,61,27.52Z"/><path class="cls-2" d="M58.5,57.52a.66.66,0,0,1-.46-.19.68.68,0,0,1-.19-.46.66.66,0,0,1,.19-.46.68.68,0,0,1,.92,0,.66.66,0,0,1,.19.46.68.68,0,0,1-.19.46A.66.66,0,0,1,58.5,57.52Z"/><path class="cls-2" d="M59,44.77a.64.64,0,0,1-.46-.19.65.65,0,0,1,0-.92.68.68,0,0,1,.92,0,.65.65,0,0,1,0,.92A.64.64,0,0,1,59,44.77Z"/><path class="cls-2" d="M55.5,36a.66.66,0,0,1-.46-.19.68.68,0,0,1-.19-.46.66.66,0,0,1,.19-.46.68.68,0,0,1,.92,0,.66.66,0,0,1,.19.46.68.68,0,0,1-.19.46A.66.66,0,0,1,55.5,36Z"/><path class="cls-2" d="M69,71a.68.68,0,0,1-.46-.19.65.65,0,0,1,0-.92.69.69,0,0,1,.92,0A.65.65,0,0,1,69,71Z"/><path class="cls-2" d="M60.5,66.27A.65.65,0,0,1,60,65.16a.67.67,0,0,1,.92,0,.64.64,0,0,1,.19.46.65.65,0,0,1-.65.65Z"/><path class="cls-2" d="M44.25,71.77a.65.65,0,0,1-.46-1.11.68.68,0,0,1,.92,0,.65.65,0,0,1-.46,1.11Z"/><path class="cls-2" d="M24.25,1.52A.65.65,0,0,1,23.6.87a.64.64,0,0,1,.19-.46.67.67,0,0,1,.92,0,.66.66,0,0,1,.19.46.68.68,0,0,1-.19.46A.64.64,0,0,1,24.25,1.52Z"/><path class="cls-2" d="M-.25,23.72a.39.39,0,0,1-.25-.1.39.39,0,0,1-.1-.25.39.39,0,0,1,.1-.25.38.38,0,0,1,.5,0,.39.39,0,0,1,.1.25.39.39,0,0,1-.1.25A.39.39,0,0,1-.25,23.72Z"/></pattern></defs><g id="Layer_2" data-name="Layer 2"><g id="Layer_1-2" data-name="Layer 1"><path class="cls-3" d="M221.71,209.11a8.45,8.45,0,0,1-8.44,8.44H163.63a7.12,7.12,0,0,0,1.38-4.24,7.29,7.29,0,0,0-4.22-6.62h0l.53-6.58c.05-.51-1.53-1-2.31-1h-2.58c-.77,0-2.35.45-2.31,1l.53,6.58a7.27,7.27,0,0,0-4.23,6.62,7.12,7.12,0,0,0,1.38,4.24H102.15c-.24,0-.49,0-.73,0l-.55-.07a7.48,7.48,0,0,1-1.5-.37l-.5-.2a6.27,6.27,0,0,1-.74-.35,8.43,8.43,0,0,1-3.4-3.4,6.27,6.27,0,0,1-.35-.74c-.07-.16-.14-.33-.2-.5a8.22,8.22,0,0,1-.37-1.5c0-.18,0-.36-.07-.55s0-.49,0-.73l64-25.24Z"/><polygon class="cls-3" points="93.71 200.34 93.71 150.94 221.71 150.94 221.71 200.34 157.71 175.05 93.71 200.34"/><polygon class="cls-4" points="93.71 200.34 93.71 150.94 221.71 150.94 221.71 200.34 157.71 175.05 93.71 200.34"/><path class="cls-5" d="M221.71,203.65v5.46a8.44,8.44,0,0,1-8.44,8.44H163.63"/><path class="cls-5" d="M151.79,217.55H102.16a8.44,8.44,0,0,1-8.44-8.44V89.56h128v114.1"/><path class="cls-5" d="M161.32,200.48l-.53,6.21h0L160.5,210l-.19,2.26c0,.36-.66.64-1.38.64h-2.44c-.72,0-1.34-.28-1.38-.64l-.2-2.26-.27-3.27-.53-6.21c-.07-.72.76-1.33,1.82-1.33h3.55C160.55,199.15,161.38,199.76,161.32,200.48Z"/><polyline class="cls-5" points="161.32 219.65 159.79 235.94 155.63 235.94 154.1 219.65"/><line class="cls-6" x1="93.71" y1="204.77" x2="93.82" y2="204.73"/><polyline class="cls-7" points="97.06 203.45 157.71 179.48 219.98 204.09"/><line class="cls-6" x1="221.6" y1="204.73" x2="221.71" y2="204.77"/><path class="cls-5" d="M165,213.31a7.12,7.12,0,0,1-1.38,4.24,7.49,7.49,0,0,1-2.31,2.1,7.33,7.33,0,0,1-7.22,0,7.38,7.38,0,0,1-2.31-2.1,7.12,7.12,0,0,1-1.38-4.24,7.27,7.27,0,0,1,4.23-6.62l-.53-6.58c0-.51,1.54-1,2.31-1H159c.78,0,2.36.45,2.31,1l-.53,6.58h0A7.29,7.29,0,0,1,165,213.31Z"/><path class="cls-5" d="M161,222.61H214.3a12.53,12.53,0,0,0,12.52-12.52V89.55H88.6V210.09a12.53,12.53,0,0,0,12.52,12.52h53.25"/><path class="cls-3" d="M365,308.33a12.72,12.72,0,0,1-25.44,0c0-10.67,12.72-27.25,12.72-34.64C352.23,281.08,365,297.66,365,308.33Z"/><path class="cls-5" d="M359.37,306.25a7.46,7.46,0,0,1-3.16,7.77"/><text class="cls-8" transform="translate(331.69 239.8)">mosto<tspan x="-2.4" y="16.48">filt</tspan><tspan class="cls-9" x="15.71" y="16.48">r</tspan><tspan x="20.62" y="16.48">ato</tspan></text><path class="cls-5" d="M107.31,187.85l-.28-.08"/><path class="cls-10" d="M101.2,186.5c-8.83-1.59-25.68-3.23-40,3.45-18.07,8.4-21.56,29.8-22.17,40.17"/><path class="cls-5" d="M38.9,233.12v.28"/><polygon class="cls-2" points="29.78 225.25 31.56 223.72 39.07 232.5 47.28 224.37 48.93 226.03 38.93 235.94 29.78 225.25"/><text class="cls-8" transform="translate(11.47 278.66)">t<tspan class="cls-11" x="5.75" y="0">r</tspan><tspan x="10.63" y="0">ebbie</tspan></text><path class="cls-12" d="M30.55,263.8s-1.48-2.63-6.44-4.19-1.3-2.87,0-4.7,4.18-6.52,8.09-6,7-2.09,9.65-1.3,5.83,4.17,5.4,6,2.17,2.61,2.43,4.43a17.25,17.25,0,0,1,0,3.91s-4.32-1-5.81,0S34.63,262.2,30.55,263.8Z"/><path class="cls-12" d="M46.38,251.06s3.2-4.49,5.65-3.44,5.29.86,5.47,3.14,3.27,1.41,4.32,2.46S61.63,255.41,63,256s.2,1,.2,2.17-6.49-.76-6.84.47-2.08.89-2.28,1.4c-.36.9-4.31.08-4.31.08"/><path class="cls-12" d="M9,259.36c-3.75.38-1.25-3.31,0-4.92s2.86-1.79,4.65-2.86,2,3.48,3,3.89,1.07,2.36,0,3.89S11.61,259.09,9,259.36Z"/><path class="cls-13" d="M274.82,185.54v58.87A58.73,58.73,0,0,1,216.27,303"/><path class="cls-13" d="M157.71,74V59.73A58.73,58.73,0,0,1,216.27,1.17h0a58.73,58.73,0,0,1,58.55,58.56v52.32"/><polygon class="cls-2" points="167.3 66.27 165.58 64.67 157.71 73.14 149.84 64.67 148.13 66.27 157.71 76.58 167.3 66.27"/><path class="cls-5" d="M319,303H216.27a58.73,58.73,0,0,1-58.56-58.56"/><polygon class="cls-2" points="311.22 293.39 309.62 295.1 318.09 302.97 309.62 310.84 311.22 312.55 321.53 302.97 311.22 293.39"/><line class="cls-5" x1="93.71" y1="150.94" x2="221.71" y2="150.94"/><text class="cls-14" transform="translate(262.34 138.93)">Rip<tspan class="cls-15" x="18.65" y="0">e</tspan><tspan x="25.61" y="0">te</tspan><tspan class="cls-16" x="37.54" y="0">r</tspan><tspan x="41.72" y="0">e </tspan><tspan x="0" y="14.12">finch non  </tspan><tspan x="0" y="28.24">limpido</tspan></text><path class="cls-5" d="M87.77,121.18l-23.14-5.86h0a4.52,4.52,0,0,1,1-8.91H87.77"/><path class="cls-5" d="M227.65,121.18l23.14-5.86h0a4.52,4.52,0,0,0-1.05-8.91H227.65"/><path class="cls-5" d="M365,308.33a12.72,12.72,0,0,1-25.44,0c0-10.67,12.72-27.25,12.72-34.64C352.23,281.08,365,297.66,365,308.33Z"/><polyline class="cls-17" points="93.71 209.17 157.71 183.88 221.71 209.17 221.71 200.34 157.71 175.05 93.71 200.34"/><line class="cls-5" x1="161.04" y1="222.61" x2="260.76" y2="222.61"/><line class="cls-5" x1="54.66" y1="222.61" x2="154.37" y2="222.61"/></g></g></svg>