<svg xmlns="http://www.w3.org/2000/svg" viewBox="0 0 291.78 276.69"><defs><style>.cls-1,.cls-7{fill:#ffffff;}.cls-1{opacity:0.5;}.cls-2,.cls-3,.cls-4,.cls-5,.cls-6,.cls-8{fill:none;stroke:#ffffff;stroke-linejoin:round;}.cls-2,.cls-3,.cls-4,.cls-5,.cls-6{stroke-linecap:round;}.cls-2{stroke-width:2.34px;}.cls-3,.cls-5,.cls-8{stroke-width:1.17px;}.cls-4{stroke-width:1.76px;}.cls-5{stroke-dasharray:4.71 4.71;}.cls-6{stroke-width:4.68px;}</style></defs><g id="Layer_2" data-name="Layer 2"><g id="Layer_1-2" data-name="Layer 1"><path class="cls-1" d="M99.54,181.48s-.39-59.82-.39-61.95V91.44c0-32.81,8.75-39.39,8.75-39.39a29.32,29.32,0,0,0,.25-3.51l0-1.94C94.54,53.76,92.32,70.31,91.34,82.8c-.6,7.53-.83,29.42-.92,36.12,0,1.35,0,62.44,0,63.27,0,0,2-3.46,5.73-3.37C98.37,178.87,99.54,181.48,99.54,181.48Z"/><path class="cls-1" d="M58.69,263.07c0,4.71,13,8.43,28.83,8.3s28.72-4.05,28.69-8.76l4.09-69.82s.84,9.6-32.78,9.6c-33,0-32.78-9.6-32.78-9.6Z"/><path class="cls-2" d="M102.48,135c-3.5-.4-7.23-.65-11.13-.75q-2.22,0-4.5,0c-22.77.18-41.18,5.8-41.13,12.55s18.56,12.08,41.33,11.89,41.18-5.8,41.12-12.55C128.13,141,117.51,136.7,102.48,135Z"/><path class="cls-2" d="M45.72,146.77l9.45,119.4c0,5.31,14.59,9.49,32.48,9.34S120,271,120,265.65l8.2-119.54"/><path class="cls-3" d="M87.6,269.22a66.78,66.78,0,0,0,18.21-2.38,25.89,25.89,0,0,0,3.65-1.4"/><path class="cls-3" d="M68.59,266.9a49.91,49.91,0,0,0,9,1.8"/><path class="cls-3" d="M64.16,263c0-3.83,10.4-7,23.3-7.12s23.39,2.91,23.42,6.74"/><path class="cls-3" d="M117,187.86c2.11-3.09-.51-5.14-2.72-4.82a3.06,3.06,0,0,0-2.54,2.53s.89-6.27-5.48-5.66c-6.92.66-4.77,8.11-4.77,8.11s-1.08-10.75-7-9c-5.27,1.51-5.27,9.44-5,1.75.14-5-4.9-6.07-7.92-3.78a5,5,0,0,0-2.11,4.19c-2.1.4-4.23-5.6-9.75-3-4.87,2.29-2,7.9-3.27,8.13-1,.19-1-.51-2.12-1.29-.69-.49-2.08.14-2.37,1.27-.19.77-.11,1.24-.41,1.37s-.94-.88-2-1.29a3.81,3.81,0,0,0-3,.43c-1.59.94-2.22,3.71-1.67,6,0,5.3,14.67,9.6,32.78,9.6s32.78-4.3,32.78-9.6"/><path class="cls-3" d="M117.56,186.81c4.46.62.65,5.36,2.74,6"/><path class="cls-3" d="M74.87,192.82a4.43,4.43,0,1,1,8.34-2.08,4.26,4.26,0,0,1-.09.89"/><path class="cls-3" d="M83.05,189.57s2.14-3.26,4.36-1.66c1.85,1.33,1.32,3.09,3.9,4.16"/><circle class="cls-3" cx="65.09" cy="193.15" r="1.75"/><circle class="cls-3" cx="69.39" cy="195.57" r="0.74"/><circle class="cls-3" cx="108.96" cy="190.7" r="1.13"/><path class="cls-3" d="M106,31.81c1.33-.13,2.92,5.07,3.55,11.62s0,12-1.29,12.08"/><path class="cls-4" d="M116.22,33l-3.34-1.24a14.66,14.66,0,0,0-4.14-.2l-2.76.27c-1.34.12-1.91,5.53-1.29,12.08s2.22,11.75,3.55,11.62l2.77-.27a14.15,14.15,0,0,0,4-1l3-1.84c4.44-.43,36-.82,40.12,1l19.36,8.35a21.19,21.19,0,0,0,10.05,1.49l91-8.7A16.51,16.51,0,0,0,286,52l1.84-1.18c2.7-.26,3.86-11.2,2.6-24.44s-4.48-23.75-7.19-23.5l-2-.81A16.46,16.46,0,0,0,273.48,1l-91,8.7A21.29,21.29,0,0,0,172.9,13L155.47,24.88C151.8,27.43,120.66,32.55,116.22,33Z"/><path class="cls-3" d="M117.55,37.55c.19,1.14.35,2.37.47,3.66s.2,2.51.23,3.67"/><path class="cls-3" d="M281.46,6.71s2.71,5.58,4.13,17.71"/><path class="cls-3" d="M286.18,30.25c.2,2.68.25,5.06.23,7.07"/><path class="cls-3" d="M108.08,52.46a44.8,44.8,0,0,0-.09-8.77,44.92,44.92,0,0,0-1.62-8.8"/><path class="cls-5" d="M116.22,101.34l-3.34-1.24a14.3,14.3,0,0,0-4.14-.19l-2.76.26c-1.34.13-1.91,5.54-1.29,12.08s2.22,11.75,3.55,11.62l2.77-.26a14.85,14.85,0,0,0,4-1l3-1.85c4.44-.42,36-.81,40.12,1l19.36,8.34a21.07,21.07,0,0,0,10.05,1.49l91-8.7a16.39,16.39,0,0,0,7.34-2.55l1.84-1.18c2.7-.25,3.86-11.19,2.6-24.43S285.91,71,283.2,71.24l-2-.81a16.46,16.46,0,0,0-7.7-1.11l-91,8.7a21.17,21.17,0,0,0-9.59,3.37L155.47,93.25C151.8,95.79,120.66,100.92,116.22,101.34Z"/><line class="cls-6" x1="32.49" y1="103.76" x2="32.49" y2="55.54"/><polygon class="cls-7" points="51.63 71.05 48.2 74.24 32.49 57.34 16.78 74.24 13.35 71.05 32.49 50.46 51.63 71.05"/><line class="cls-8" y1="43.68" x2="64.97" y2="43.68"/><line class="cls-8" y1="111.66" x2="64.97" y2="111.66"/></g></g></svg>