<svg xmlns="http://www.w3.org/2000/svg" viewBox="0 0 236.9 260.44"><defs><style>.cls-1,.cls-2{fill:#ffffff;}.cls-1{opacity:0.75;}.cls-2{opacity:0.5;}.cls-3,.cls-4,.cls-5{fill:none;stroke:#ffffff;stroke-linejoin:round;}.cls-3,.cls-4{stroke-width:2.34px;}.cls-4,.cls-5{stroke-linecap:round;}.cls-5{stroke-width:1.17px;}.cls-6{fill:#fff;}</style></defs><g id="Layer_2" data-name="Layer 2"><g id="Layer_1-2" data-name="Layer 1"><path class="cls-1" d="M183.51,236.41c0,13.27-28.58,24-63.86,24s-63.87-10.76-63.87-24c0-6.69,7.27-12.76,19-17.1l.83,10.48c0,7.2,19.8,12.88,44.1,12.69s43.94-6.19,43.88-13.39l.69-9.87C176.15,223.58,183.51,229.66,183.51,236.41Z"/><path class="cls-2" d="M80.4,225.59C80.45,232,98,237,119.54,236.85s39-5.5,39-11.89l8-127.51s-3.92,12.83-47.57,12.83c-44.31,0-48.29-13.36-48.29-13.36Z"/><path class="cls-3" d="M170.34,60.37c2.82,2,4.38,4.12,4.4,6.39.08,9.17-24.92,16.8-55.84,17s-56-7-56.11-16.14c0-2.29,1.53-4.49,4.35-6.5l1.3-.74"/><path class="cls-4" d="M62.79,67.67,75.62,229.79c.06,7.2,19.8,12.89,44.1,12.69s43.94-6.2,43.88-13.4L174.74,66.76"/><path class="cls-5" d="M119.65,233.94c9.66-.08,18.4-1.31,24.72-3.24a34.66,34.66,0,0,0,5-1.9"/><path class="cls-5" d="M93.84,230.79A67.2,67.2,0,0,0,106,233.23"/><path class="cls-5" d="M87.82,225.54c0-5.2,14.12-9.52,31.65-9.67s31.76,4,31.8,9.16"/><path class="cls-4" d="M166.71,54c7.74,1.49,2.57,4.89,1.34,20.7l-1.58,21.63c0,7.69-21.3,13.92-47.57,13.92s-47.57-6.23-47.57-13.92L68.49,61.22c-.31-4.21.24-7.11,3.66-7.47,2.73-.29,4.78,2.67,5.47,2.37.47-.21.35-.95.66-2.16.45-1.81,2.65-2.8,3.75-2,1.78,1.24,1.72,2.35,3.36,2.05,2-.36.75-7.41,6.76-10.06,6.84-3,10.52,2.57,13.85,1.93a7.47,7.47,0,0,1,3.37-6.52c3.87-2.75,12.74-2,12.52,5.86-.35,12.19-1.31.63,7.27-.65,10-1.48,11.86,12.21,11.86,12.21s-3.4-11.8,7.56-12.86c10.08-1,8.67,9,8.67,9a4.85,4.85,0,0,1,4-4c3.5-.5,7.66,2.75,4.31,7.65"/><path class="cls-4" d="M98.86,64.35a7,7,0,1,1,13.21-3.29,7.35,7.35,0,0,1-.14,1.42"/><path class="cls-4" d="M111.81,59.2s3.39-5.15,6.92-2.61c2.93,2.1,2.08,4.89,6.17,6.58"/><circle class="cls-5" cx="83.38" cy="64.88" r="2.77"/><circle class="cls-5" cx="90.19" cy="68.7" r="1.17"/><circle class="cls-5" cx="152.85" cy="60.99" r="1.79"/><path class="cls-5" d="M148,100.77v9.9a3.94,3.94,0,0,0,2.13,3.57,4.83,4.83,0,1,1-7,4.34V96.26"/><line class="cls-5" x1="148.02" y1="97.49" x2="148.02" y2="90.6"/><path class="cls-6" d="M148.94,116.13a1.91,1.91,0,0,1,1.38.66,2.7,2.7,0,0,1,.71,1.43,2.33,2.33,0,0,1-.32,1.61,2.09,2.09,0,0,1-1.23.92,10.18,10.18,0,0,0,.39-1.27,3.27,3.27,0,0,0,0-1.08,5.37,5.37,0,0,0-.31-1.1A6.16,6.16,0,0,0,148.94,116.13Z"/><line class="cls-4" x1="45.21" y1="209.9" x2="49.63" y2="204.37"/><path class="cls-4" d="M33.15,188.08l-5.46,4.47m176.94-5.79,5.71,4.52M19.73,167.33l-6.3,3.12m204.31-4.66,6.57,3.15M11.3,144.1l-6.82,1.64m221.32-3.27,7.12,1.58M8.28,119.58l-7.11.08m227.27-1.85h7.29M10.76,95,3.85,93.51m221.73-.18,7.1-1.65m-214-20.07-6.34-3m205,1.45,6.52-3.19M31.63,50.57l-5.52-4.33m177.92,3,5.7-4.6M49,32.92l-4.43-5.46m141.91,4.39,4.48-5.66M69.74,19.57l-3.12-6.32m98.83,5.58,3.07-6.48M93,11.23,91.34,4.32m26.13,4,0-7.12m26.19,2.7-1.54,7"/><line class="cls-4" x1="187.09" y1="204.37" x2="191.61" y2="210.05"/></g></g></svg>