<svg xmlns="http://www.w3.org/2000/svg" viewBox="0 0 248.35 354.25"><defs><style>.cls-1{fill:none;stroke:#ffffff;stroke-linecap:round;stroke-linejoin:round;stroke-width:2.34px;}.cls-2{fill:#ffffff;opacity:0.5;}</style></defs><g id="Layer_2" data-name="Layer 2"><g id="Layer_1-2" data-name="Layer 1"><path class="cls-1" d="M247.18,141.46c0,13.86-55.07,25.1-123,25.1s-123-11.24-123-25.1"/><path class="cls-1" d="M115.59,330.58c-36.51-.59-67.85-4.92-84.81-11.12"/><path class="cls-1" d="M217.57,319.46c-17.63,6.44-50.82,10.87-89.19,11.18"/><path class="cls-1" d="M217.57,319.46S239,313,239.21,298.4c.1-7.85,0-148.06,0-148.06"/><path class="cls-1" d="M30.78,319.46S9.32,313,9.14,298.4c-.1-7.85-.09-61.87-.06-101.59h0c0-30.22.05-46.44.05-46.44"/><path class="cls-1" d="M119.88,96.87l4.3,0c67.93,0,123,11.24,123,25.1s-55.07,25.11-123,25.11S1.17,135.82,1.17,122c0-13,48.06-23.61,109.77-25"/><line class="cls-1" x1="1.17" y1="141.46" x2="1.17" y2="121.95"/><line class="cls-1" x1="247.18" y1="141.46" x2="247.18" y2="121.95"/><path class="cls-1" d="M128.32,292.71a15.05,15.05,0,1,1-12.68,0"/><path class="cls-1" d="M119.48,305.47h5c1.5,0,2.79-.6,2.85-1.35l2.08-24.22c.13-1.48-1.57-2.73-3.78-2.73h-7.32c-2.2,0-3.9,1.25-3.77,2.73l2.08,24.22C116.69,304.87,118,305.47,119.48,305.47Z"/><polyline class="cls-1" points="129.43 319.46 126.28 353.08 117.69 353.08 114.54 319.46"/><path class="cls-1" d="M113.21,7.38v6.79a4.43,4.43,0,0,0,.89,2.68L119.48,24v4.85a4.45,4.45,0,0,0,1.25,3.1l11.69,11.94a2.92,2.92,0,0,1,.24,3.8L130,52.75a4.43,4.43,0,0,0-.9,2.67V69a4.46,4.46,0,0,0,.9,2.68l4.2,7.1a7.39,7.39,0,1,1-14.77,0v0l4.21-7.1A4.44,4.44,0,0,0,124.5,69V55.43a4.45,4.45,0,0,0-.89-2.68l-4.28-7.1a11.09,11.09,0,1,0-22.18.07V80.19a6.3,6.3,0,0,0,1.79,4.4l21,21.52a2.2,2.2,0,0,1,.64,1.56v6.1"/><path class="cls-1" d="M131.87,7.38v6.81a4.4,4.4,0,0,1-.9,2.66L125.6,24V28L138.48,41.2a6.38,6.38,0,0,1,1.81,4.45h0l4.2,7.09a4.49,4.49,0,0,1,.9,2.69V69a4.39,4.39,0,0,1-.9,2.67l-4.2,7.1a13.51,13.51,0,1,1-27,.09v-.09l-4.19-7.09a4.44,4.44,0,0,1-.9-2.69V55.42a4.42,4.42,0,0,1,.89-2.67l4.2-7.1a5,5,0,0,0-5-5.08,5.1,5.1,0,0,0-5,5.15V79.28a2.24,2.24,0,0,0,.64,1.57L125,102.44a6.32,6.32,0,0,1,1.8,4.41v6.92"/><line class="cls-1" x1="113.21" y1="7.38" x2="131.87" y2="7.38"/><path class="cls-1" d="M114.74,1.17h15.58a2.62,2.62,0,0,1,2.62,2.62v3.6a0,0,0,0,1,0,0H112.13a0,0,0,0,1,0,0V3.79A2.62,2.62,0,0,1,114.74,1.17Z"/><path class="cls-1" d="M120.63,113.77c0,.62,1.37,1.12,3.06,1.12s3.06-.5,3.06-1.12"/><line class="cls-1" x1="113.21" y1="7.38" x2="131.87" y2="7.38"/><line class="cls-2" x1="113.21" y1="7.38" x2="131.87" y2="7.38"/><path class="cls-2" d="M114.74,1.17h15.58a2.62,2.62,0,0,1,2.62,2.62V7.57a0,0,0,0,1,0,0H112.13a0,0,0,0,1,0,0V3.79A2.62,2.62,0,0,1,114.74,1.17Z"/><line class="cls-2" x1="113.21" y1="7.38" x2="131.87" y2="7.38"/><path class="cls-2" d="M120.63,113.77v-6.1a2.2,2.2,0,0,0-.64-1.56l-21-21.52a6.3,6.3,0,0,1-1.79-4.4V45.72a11.09,11.09,0,1,1,22.18-.07l4.28,7.1a4.45,4.45,0,0,1,.89,2.68V69a4.44,4.44,0,0,1-.89,2.67l-4.21,7.1v0a7.39,7.39,0,1,0,14.77,0l-4.2-7.1a4.46,4.46,0,0,1-.9-2.68V55.42a4.43,4.43,0,0,1,.9-2.67l2.69-5.1a2.92,2.92,0,0,0-.24-3.8L120.73,31.91a4.45,4.45,0,0,1-1.25-3.1V24l-5.38-7.11a4.43,4.43,0,0,1-.89-2.68V7.38h18.66v6.81a4.4,4.4,0,0,1-.9,2.66L125.6,24V28L138.48,41.2a6.38,6.38,0,0,1,1.81,4.45h0l4.2,7.09a4.49,4.49,0,0,1,.9,2.69V69a4.39,4.39,0,0,1-.9,2.67l-4.2,7.1a13.51,13.51,0,1,1-27,.09v-.09l-4.19-7.09a4.44,4.44,0,0,1-.9-2.69V55.42a4.42,4.42,0,0,1,.89-2.67l4.2-7.1a5,5,0,0,0-5-5.08,5.1,5.1,0,0,0-5,5.15V79.28a2.24,2.24,0,0,0,.64,1.57L125,102.44a6.32,6.32,0,0,1,1.8,4.41v6.92"/></g></g></svg>