<svg xmlns="http://www.w3.org/2000/svg" xmlns:xlink="http://www.w3.org/1999/xlink" viewBox="0 0 175.2 324.44"><defs><style>.cls-1,.cls-6,.cls-7,.cls-8,.cls-9{fill:none;}.cls-10,.cls-2,.cls-3,.cls-4{fill:#ffffff;}.cls-3,.cls-6,.cls-7,.cls-8,.cls-9{stroke:#ffffff;stroke-linecap:round;stroke-linejoin:round;}.cls-3,.cls-6{stroke-width:2.34px;}.cls-3,.cls-4{opacity:0.5;}.cls-5{fill:url(#USGS_22_Gravel_Beach_4);}.cls-7{stroke-width:0.88px;}.cls-8{stroke-width:1.17px;}.cls-9{stroke-width:0.59px;}.cls-10{font-size:16.41px;font-family:FilsonPro-Regular, Filson Pro;}</style><pattern id="USGS_22_Gravel_Beach_4" data-name="USGS 22 Gravel Beach 4" width="72" height="72" patternTransform="translate(-127.33 3.08) scale(0.99)" patternUnits="userSpaceOnUse" viewBox="0 0 72 72"><rect class="cls-1" width="72" height="72"/><path class="cls-2" d="M72.25,58a.35.35,0,0,1-.25-.6.38.38,0,0,1,.5,0,.35.35,0,0,1-.25.6Z"/><path class="cls-2" d="M20.75,3.22a.39.39,0,0,1-.25-.1.36.36,0,0,1,0-.5.36.36,0,0,1,.6.25.39.39,0,0,1-.1.25A.39.39,0,0,1,20.75,3.22Z"/><path class="cls-2" d="M19.75,8.47a.34.34,0,0,1-.35-.35.33.33,0,0,1,.11-.25.37.37,0,0,1,.49,0,.36.36,0,0,1,.1.25.39.39,0,0,1-.1.25A.37.37,0,0,1,19.75,8.47Z"/><path class="cls-2" d="M20,10.72a.35.35,0,0,1-.25-.6.37.37,0,0,1,.5,0,.35.35,0,0,1-.25.6Z"/><path class="cls-2" d="M15,10.72a.34.34,0,0,1-.35-.35.37.37,0,0,1,.1-.25.38.38,0,0,1,.5,0,.35.35,0,0,1-.25.6Z"/><path class="cls-2" d="M22.5,20.22a.35.35,0,0,1-.25-.6.36.36,0,0,1,.6.25.34.34,0,0,1-.35.35Z"/><path class="cls-2" d="M15,23.22a.34.34,0,0,1-.35-.35.33.33,0,0,1,.11-.25.37.37,0,0,1,.49,0,.36.36,0,0,1,.1.25.34.34,0,0,1-.35.35Z"/><path class="cls-2" d="M13.75,24.22a.35.35,0,0,1-.25-.6.36.36,0,0,1,.6.25.39.39,0,0,1-.1.25A.37.37,0,0,1,13.75,24.22Z"/><path class="cls-2" d="M23.75,27.22a.34.34,0,0,1-.35-.35.33.33,0,0,1,.11-.25.37.37,0,0,1,.49,0,.39.39,0,0,1,.1.25.35.35,0,0,1-.1.24A.36.36,0,0,1,23.75,27.22Z"/><path class="cls-2" d="M30.5,26a.35.35,0,0,1-.25-.6.36.36,0,0,1,.6.25.34.34,0,0,1-.35.35Z"/><path class="cls-2" d="M31,23.47a.34.34,0,0,1-.35-.35.33.33,0,0,1,.11-.25.35.35,0,0,1,.59.25.39.39,0,0,1-.1.25A.37.37,0,0,1,31,23.47Z"/><path class="cls-2" d="M29,18.47a.35.35,0,0,1-.25-.6.36.36,0,0,1,.6.25.34.34,0,0,1-.35.35Z"/><path class="cls-2" d="M33.75,20a.35.35,0,0,1-.25-.6.36.36,0,0,1,.6.25.34.34,0,0,1-.35.35Z"/><path class="cls-2" d="M31.25,15a.35.35,0,0,1-.25-.6.36.36,0,0,1,.6.25.34.34,0,0,1-.35.35Z"/><path class="cls-2" d="M31.5,12a.35.35,0,0,1-.25-.6.37.37,0,0,1,.5,0,.35.35,0,0,1-.25.6Z"/><path class="cls-2" d="M32,7.22a.35.35,0,0,1-.25-.6.36.36,0,0,1,.6.25.34.34,0,0,1-.35.35Z"/><path class="cls-2" d="M31.75,3.22a.39.39,0,0,1-.25-.1.39.39,0,0,1-.1-.25.33.33,0,0,1,.11-.25.35.35,0,0,1,.59.25.39.39,0,0,1-.1.25A.39.39,0,0,1,31.75,3.22Z"/><path class="cls-2" d="M33.75,1.47a.36.36,0,0,1-.25-.11.33.33,0,0,1-.1-.24.33.33,0,0,1,.11-.25.36.36,0,0,1,.49,0,.36.36,0,0,1,.1.25.34.34,0,0,1-.11.25A.35.35,0,0,1,33.75,1.47Z"/><path class="cls-2" d="M41.25,7.22a.39.39,0,0,1-.25-.1.35.35,0,0,1-.1-.25.39.39,0,0,1,.1-.25.35.35,0,0,1,.49,0,.36.36,0,0,1,.11.25.34.34,0,0,1-.35.35Z"/><path class="cls-2" d="M45.25,7a.39.39,0,0,1-.25-.1.36.36,0,0,1,0-.5.36.36,0,0,1,.6.25.34.34,0,0,1-.35.35Z"/><path class="cls-2" d="M42.25,13.72a.34.34,0,0,1-.35-.35.33.33,0,0,1,.11-.25.35.35,0,0,1,.59.25.34.34,0,0,1-.35.35Z"/><path class="cls-2" d="M46.75,14.47a.34.34,0,0,1-.35-.35.33.33,0,0,1,.11-.25.36.36,0,0,1,.49,0,.39.39,0,0,1,.1.25.33.33,0,0,1-.1.24A.36.36,0,0,1,46.75,14.47Z"/><path class="cls-2" d="M46.75,16.47a.34.34,0,0,1-.35-.35.33.33,0,0,1,.11-.25.36.36,0,0,1,.49,0,.39.39,0,0,1,.1.25.37.37,0,0,1-.1.24A.36.36,0,0,1,46.75,16.47Z"/><path class="cls-2" d="M38.75,21a.35.35,0,0,1-.25-.6.36.36,0,0,1,.49,0,.34.34,0,0,1,.11.25.34.34,0,0,1-.35.35Z"/><path class="cls-2" d="M50,13.72a.39.39,0,0,1-.25-.1.36.36,0,0,1,0-.5.37.37,0,0,1,.5,0,.35.35,0,0,1-.25.6Z"/><path class="cls-2" d="M52,12.22a.36.36,0,0,1-.25-.11.35.35,0,0,1-.1-.24.33.33,0,0,1,.11-.25.37.37,0,0,1,.49,0,.36.36,0,0,1,.1.25.34.34,0,0,1-.35.35Z"/><path class="cls-2" d="M54.5,11.22a.36.36,0,0,1-.25-.11.35.35,0,0,1-.1-.24.33.33,0,0,1,.11-.25.35.35,0,0,1,.59.25.34.34,0,0,1-.35.35Z"/><path class="cls-2" d="M56.25,1A.39.39,0,0,1,56,.87a.39.39,0,0,1-.1-.25A.39.39,0,0,1,56,.37a.36.36,0,0,1,.5,0,.35.35,0,0,1,.1.24.39.39,0,0,1-.1.25A.39.39,0,0,1,56.25,1Z"/><path class="cls-2" d="M67.75,3.22a.39.39,0,0,1-.25-.1.39.39,0,0,1-.1-.25.33.33,0,0,1,.11-.25.37.37,0,0,1,.49,0,.36.36,0,0,1,.1.25.39.39,0,0,1-.1.25A.37.37,0,0,1,67.75,3.22Z"/><path class="cls-2" d="M67.75,10.47a.36.36,0,0,1-.25-.11.35.35,0,0,1-.1-.24.39.39,0,0,1,.1-.25.37.37,0,0,1,.5,0,.39.39,0,0,1,.1.25.34.34,0,0,1-.11.25A.35.35,0,0,1,67.75,10.47Z"/><path class="cls-2" d="M64,12.47a.35.35,0,0,1-.25-.6.36.36,0,0,1,.6.25.34.34,0,0,1-.35.35Z"/><path class="cls-2" d="M65,16a.34.34,0,0,1-.35-.35.37.37,0,0,1,.1-.25.38.38,0,0,1,.5,0A.35.35,0,0,1,65,16Z"/><path class="cls-2" d="M63.75,20a.36.36,0,0,1-.25-.11.35.35,0,0,1-.1-.24.39.39,0,0,1,.1-.25.37.37,0,0,1,.5,0,.39.39,0,0,1,.1.25.34.34,0,0,1-.11.25A.35.35,0,0,1,63.75,20Z"/><path class="cls-2" d="M66,20a.34.34,0,0,1-.35-.35.33.33,0,0,1,.11-.25.37.37,0,0,1,.49,0,.36.36,0,0,1,.1.25A.34.34,0,0,1,66,20Z"/><path class="cls-2" d="M67.75,21.47a.35.35,0,0,1-.25-.6.37.37,0,0,1,.5,0,.35.35,0,0,1-.25.6Z"/><path class="cls-2" d="M6.75,52.47a.35.35,0,0,1-.25-.6.38.38,0,0,1,.5,0,.35.35,0,0,1-.25.6Z"/><path class="cls-2" d="M7,54.72a.35.35,0,0,1-.25-.6.37.37,0,0,1,.5,0,.35.35,0,0,1-.25.6Z"/><path class="cls-2" d="M2,54.72a.39.39,0,0,1-.25-.1.36.36,0,0,1,0-.5.38.38,0,0,1,.5,0,.36.36,0,0,1,0,.5A.39.39,0,0,1,2,54.72Z"/><path class="cls-2" d="M9.5,64.22a.35.35,0,0,1-.25-.6.36.36,0,0,1,.6.25.34.34,0,0,1-.35.35Z"/><path class="cls-2" d="M.75,68.22a.39.39,0,0,1-.25-.1.36.36,0,0,1,0-.5.38.38,0,0,1,.5,0,.36.36,0,0,1,0,.5A.39.39,0,0,1,.75,68.22Z"/><path class="cls-2" d="M10.75,71.22a.35.35,0,0,1-.25-.6.38.38,0,0,1,.5,0,.35.35,0,0,1-.25.6Z"/><path class="cls-2" d="M18,67.47a.34.34,0,0,1-.35-.35.37.37,0,0,1,.1-.25.37.37,0,0,1,.49,0,.36.36,0,0,1,.11.25.34.34,0,0,1-.35.35Z"/><path class="cls-2" d="M16,62.47a.35.35,0,0,1-.25-.6.37.37,0,0,1,.5,0,.35.35,0,0,1-.25.6Z"/><path class="cls-2" d="M19.25,58a.34.34,0,0,1-.35-.35.33.33,0,0,1,.11-.25.37.37,0,0,1,.49,0,.36.36,0,0,1,.1.25.34.34,0,0,1-.35.35Z"/><path class="cls-2" d="M18.5,56a.34.34,0,0,1-.35-.35.33.33,0,0,1,.11-.25.37.37,0,0,1,.49,0,.36.36,0,0,1,.1.25.34.34,0,0,1-.35.35Z"/><path class="cls-2" d="M16,55a.34.34,0,0,1-.35-.35.33.33,0,0,1,.11-.25.37.37,0,0,1,.49,0,.36.36,0,0,1,.1.25A.34.34,0,0,1,16,55Z"/><path class="cls-2" d="M19,51.22a.34.34,0,0,1-.35-.35.33.33,0,0,1,.11-.25.37.37,0,0,1,.49,0,.36.36,0,0,1,.1.25.34.34,0,0,1-.35.35Z"/><path class="cls-2" d="M18.75,47.22a.35.35,0,0,1-.25-.6.38.38,0,0,1,.5,0,.35.35,0,0,1-.25.6Z"/><path class="cls-2" d="M16,47.47a.35.35,0,0,1-.25-.6.37.37,0,0,1,.5,0,.35.35,0,0,1-.25.6Z"/><path class="cls-2" d="M32.25,51a.34.34,0,0,1-.35-.35.33.33,0,0,1,.11-.25.35.35,0,0,1,.59.25.34.34,0,0,1-.35.35Z"/><path class="cls-2" d="M27,54.47a.35.35,0,0,1-.25-.6.37.37,0,0,1,.5,0,.35.35,0,0,1-.25.6Z"/><path class="cls-2" d="M31.75,56a.35.35,0,0,1-.25-.6.37.37,0,0,1,.5,0,.35.35,0,0,1-.25.6Z"/><path class="cls-2" d="M31.75,57.72a.35.35,0,0,1-.24-.1.35.35,0,0,1,0-.5.37.37,0,0,1,.5,0,.36.36,0,0,1,.1.25.34.34,0,0,1-.35.35Z"/><path class="cls-2" d="M33.75,58.47a.35.35,0,0,1-.25-.6.37.37,0,0,1,.5,0,.35.35,0,0,1-.25.6Z"/><path class="cls-2" d="M25.75,65a.35.35,0,0,1-.25-.6.36.36,0,0,1,.6.25.34.34,0,0,1-.35.35Z"/><path class="cls-2" d="M35.75,56.47a.35.35,0,0,1-.25-.6.36.36,0,0,1,.6.25.34.34,0,0,1-.35.35Z"/><path class="cls-2" d="M39,56.22a.35.35,0,0,1-.24-.1.36.36,0,0,1-.11-.25.39.39,0,0,1,.1-.25.37.37,0,0,1,.5,0,.35.35,0,0,1-.25.6Z"/><path class="cls-2" d="M41.5,51a.35.35,0,0,1-.25-.6.37.37,0,0,1,.5,0,.35.35,0,0,1-.25.6Z"/><path class="cls-2" d="M43.25,45a.36.36,0,0,1-.25-.11.35.35,0,0,1-.1-.24.39.39,0,0,1,.1-.25.37.37,0,0,1,.5,0,.35.35,0,0,1-.25.6Z"/><path class="cls-2" d="M50.75,50.72a.39.39,0,0,1-.25-.1.36.36,0,0,1-.1-.25.39.39,0,0,1,.1-.25.36.36,0,0,1,.5,0,.35.35,0,0,1-.25.6Z"/><path class="cls-2" d="M51.75,46.72a.36.36,0,0,1-.25-.11.35.35,0,0,1-.1-.24.33.33,0,0,1,.11-.25.37.37,0,0,1,.49,0,.36.36,0,0,1,.1.25.34.34,0,0,1-.35.35Z"/><path class="cls-2" d="M54.75,47.22a.33.33,0,0,1-.25-.11.35.35,0,0,1-.1-.24.37.37,0,0,1,.1-.25.36.36,0,0,1,.49,0,.34.34,0,0,1,.11.25.34.34,0,0,1-.35.35Z"/><path class="cls-2" d="M54.75,54.47a.33.33,0,0,1-.25-.11.35.35,0,0,1-.1-.24.33.33,0,0,1,.11-.25.37.37,0,0,1,.49,0,.36.36,0,0,1,.1.25.34.34,0,0,1-.35.35Z"/><path class="cls-2" d="M51,56.47a.35.35,0,0,1-.25-.6.37.37,0,0,1,.5,0,.35.35,0,0,1,.1.25.39.39,0,0,1-.1.25A.37.37,0,0,1,51,56.47Z"/><path class="cls-2" d="M50.75,64a.34.34,0,0,1-.35-.35.31.31,0,0,1,.1-.24.34.34,0,0,1,.49,0,.36.36,0,0,1,.11.25.39.39,0,0,1-.1.25A.37.37,0,0,1,50.75,64Z"/><path class="cls-2" d="M53,64a.34.34,0,0,1-.35-.35.33.33,0,0,1,.11-.25.36.36,0,0,1,.49,0,.31.31,0,0,1,.1.24A.34.34,0,0,1,53,64Z"/><path class="cls-2" d="M55.75,63.22a.35.35,0,0,1-.25-.6.36.36,0,0,1,.6.25.34.34,0,0,1-.35.35Z"/><path class="cls-2" d="M58,61.72a.36.36,0,0,1-.25-.11.35.35,0,0,1-.1-.24.39.39,0,0,1,.1-.25.37.37,0,0,1,.5,0,.37.37,0,0,1,.1.25.34.34,0,0,1-.35.35Z"/><path class="cls-2" d="M20.75,27.22a.35.35,0,0,1-.25-.6.36.36,0,0,1,.6.25.34.34,0,0,1-.35.35Z"/><path class="cls-2" d="M22.5,24.22a.35.35,0,0,1-.25-.6.37.37,0,0,1,.5,0,.35.35,0,0,1-.25.6Z"/><path class="cls-2" d="M38.75,25a.35.35,0,0,1-.25-.6.37.37,0,0,1,.5,0,.35.35,0,0,1-.25.6Z"/><path class="cls-2" d="M46,29.22a.39.39,0,0,1-.25-.1.35.35,0,0,1,0-.49.34.34,0,0,1,.49,0,.36.36,0,0,1,.11.25.34.34,0,0,1-.35.35Z"/><path class="cls-2" d="M55,28.22a.35.35,0,0,1-.25-.6.37.37,0,0,1,.5,0,.35.35,0,0,1-.25.6Z"/><path class="cls-2" d="M51,25.47a.35.35,0,0,1-.25-.6.37.37,0,0,1,.5,0,.35.35,0,0,1,.1.25.34.34,0,0,1-.35.35Z"/><path class="cls-2" d="M51.75,29.72a.37.37,0,0,1-.25-.1.36.36,0,0,1,0-.5.36.36,0,0,1,.6.25.34.34,0,0,1-.35.35Z"/><path class="cls-2" d="M62.25,35.72a.34.34,0,0,1-.35-.35.33.33,0,0,1,.11-.25.36.36,0,0,1,.49,0,.31.31,0,0,1,.1.24.34.34,0,0,1-.35.35Z"/><path class="cls-2" d="M56.5,39.22a.35.35,0,0,1-.25-.6.36.36,0,0,1,.6.25.34.34,0,0,1-.35.35Z"/><path class="cls-2" d="M48,37.47a.35.35,0,0,1-.24-.1.36.36,0,0,1-.11-.25.39.39,0,0,1,.1-.25.36.36,0,0,1,.5,0,.33.33,0,0,1,.1.24.34.34,0,0,1-.35.35Z"/><path class="cls-2" d="M47.75,41.47a.33.33,0,0,1-.25-.11.35.35,0,0,1-.1-.24.39.39,0,0,1,.1-.25.38.38,0,0,1,.5,0,.35.35,0,0,1-.25.6Z"/><path class="cls-2" d="M53.25,45.22a.34.34,0,0,1-.25-.11.31.31,0,0,1-.1-.24.34.34,0,0,1,.11-.25.37.37,0,0,1,.49,0,.35.35,0,0,1-.25.6Z"/><path class="cls-2" d="M62,48.22a.34.34,0,0,1-.35-.35.33.33,0,0,1,.11-.25.36.36,0,0,1,.49,0,.31.31,0,0,1,.1.24.34.34,0,0,1-.35.35Z"/><path class="cls-2" d="M64.75,52a.34.34,0,0,1-.35-.35.33.33,0,0,1,.11-.25.37.37,0,0,1,.49,0,.36.36,0,0,1,.1.25.34.34,0,0,1-.35.35Z"/><path class="cls-2" d="M69.25,45.22a.35.35,0,0,1-.25-.6.37.37,0,0,1,.5,0,.35.35,0,0,1-.25.6Z"/><path class="cls-2" d="M59.75,39.22a.33.33,0,0,1-.25-.11.35.35,0,0,1-.1-.24.34.34,0,0,1,.11-.25.36.36,0,0,1,.49,0,.36.36,0,0,1,0,.5A.37.37,0,0,1,59.75,39.22Z"/><path class="cls-2" d="M32.25,47.22a.35.35,0,0,1-.25-.6.36.36,0,0,1,.6.25.34.34,0,0,1-.35.35Z"/><path class="cls-2" d="M26,38a.35.35,0,0,1-.25-.6.36.36,0,0,1,.6.25A.34.34,0,0,1,26,38Z"/><path class="cls-2" d="M29.5,35.72a.35.35,0,0,1-.24-.1.36.36,0,0,1-.11-.25.33.33,0,0,1,.11-.25.37.37,0,0,1,.49,0,.36.36,0,0,1,.1.25.34.34,0,0,1-.35.35Z"/><path class="cls-2" d="M10.25,29.72a.35.35,0,0,1-.25-.6.37.37,0,0,1,.49,0,.33.33,0,0,1,.11.25.34.34,0,0,1-.35.35Z"/><path class="cls-2" d="M5.75,31.72a.35.35,0,0,1-.25-.6.36.36,0,0,1,.49,0,.33.33,0,0,1,.11.25.37.37,0,0,1-.1.25A.39.39,0,0,1,5.75,31.72Z"/><path class="cls-2" d="M2.25,35.47a.39.39,0,0,1-.25-.1.36.36,0,0,1,0-.5.37.37,0,0,1,.5,0,.35.35,0,0,1,.1.25.33.33,0,0,1-.1.24A.36.36,0,0,1,2.25,35.47Z"/><path class="cls-2" d="M16.75,42.22a.34.34,0,0,1-.35-.35.33.33,0,0,1,.11-.25.35.35,0,0,1,.59.25.39.39,0,0,1-.1.25A.37.37,0,0,1,16.75,42.22Z"/><path class="cls-2" d="M12.5,36.22a.34.34,0,0,1-.35-.35.33.33,0,0,1,.11-.25.37.37,0,0,1,.49,0,.36.36,0,0,1,.1.25.39.39,0,0,1-.1.25A.37.37,0,0,1,12.5,36.22Z"/><path class="cls-2" d="M26.25,30.47a.35.35,0,0,1-.25-.6.37.37,0,0,1,.5,0,.35.35,0,0,1-.25.6Z"/><path class="cls-2" d="M39,31a.35.35,0,0,1-.25-.6.37.37,0,0,1,.5,0,.36.36,0,0,1,0,.5A.37.37,0,0,1,39,31Z"/><path class="cls-2" d="M38,33a.35.35,0,0,1-.25-.6.37.37,0,0,1,.5,0A.35.35,0,0,1,38,33Z"/><path class="cls-2" d="M27.75,42.22a.35.35,0,0,1-.25-.6.37.37,0,0,1,.5,0,.35.35,0,0,1-.25.6Z"/><path class="cls-2" d="M6.25,20.72a.35.35,0,0,1-.25-.6.37.37,0,0,1,.5,0,.35.35,0,0,1-.25.6Z"/><path class="cls-2" d="M9.5,19a.35.35,0,0,1-.25-.6.36.36,0,0,1,.6.25A.34.34,0,0,1,9.5,19Z"/><path class="cls-2" d="M11.5,23.72a.34.34,0,0,1-.35-.35.33.33,0,0,1,.11-.25.37.37,0,0,1,.49,0,.36.36,0,0,1,.1.25.39.39,0,0,1-.1.25A.37.37,0,0,1,11.5,23.72Z"/><path class="cls-2" d="M2.75,26a.39.39,0,0,1-.25-.1.36.36,0,0,1,0-.5.38.38,0,0,1,.5,0,.36.36,0,0,1,0,.5A.39.39,0,0,1,2.75,26Z"/><path class="cls-2" d="M64,29.72a.35.35,0,0,1-.24-.1.36.36,0,0,1-.11-.25.39.39,0,0,1,.1-.25.36.36,0,0,1,.6.25.34.34,0,0,1-.35.35Z"/><path class="cls-2" d="M69.25,30a.34.34,0,0,1-.35-.35.34.34,0,0,1,.11-.25.37.37,0,0,1,.49,0,.36.36,0,0,1,.1.25.39.39,0,0,1-.1.25A.37.37,0,0,1,69.25,30Z"/><path class="cls-2" d="M1.25,9.22A.39.39,0,0,1,1,9.12a.36.36,0,0,1,0-.5.38.38,0,0,1,.5,0,.36.36,0,0,1,0,.5A.39.39,0,0,1,1.25,9.22Z"/><path class="cls-2" d="M16.25,6.22a.34.34,0,0,1-.35-.35.37.37,0,0,1,.1-.25.38.38,0,0,1,.5,0,.35.35,0,0,1-.25.6Z"/><path class="cls-2" d="M3.5,6.22a.35.35,0,0,1-.25-.6.36.36,0,0,1,.6.25.34.34,0,0,1-.35.35Z"/><path class="cls-2" d="M12.5,14.47a.35.35,0,0,1-.25-.6.36.36,0,0,1,.6.25.34.34,0,0,1-.35.35Z"/><path class="cls-2" d="M18.25,19.47a.34.34,0,0,1-.35-.35.37.37,0,0,1,.1-.25.36.36,0,0,1,.6.25.34.34,0,0,1-.35.35Z"/><path class="cls-2" d="M21,37.22a.34.34,0,0,1-.35-.35.37.37,0,0,1,.1-.25.37.37,0,0,1,.49,0,.36.36,0,0,1,.11.25.34.34,0,0,1-.35.35Z"/><path class="cls-2" d="M.5,44.47a.39.39,0,0,1-.25-.1.39.39,0,0,1-.1-.25.33.33,0,0,1,.11-.25.37.37,0,0,1,.49,0,.36.36,0,0,1,.1.25.39.39,0,0,1-.1.25A.39.39,0,0,1,.5,44.47Z"/><path class="cls-2" d="M67.75,66.22a.34.34,0,0,1-.35-.35.33.33,0,0,1,.11-.25.37.37,0,0,1,.49,0,.36.36,0,0,1,.1.25.34.34,0,0,1-.35.35Z"/><path class="cls-2" d="M59.5,70a.39.39,0,0,1-.25-.1.35.35,0,0,1-.1-.25.39.39,0,0,1,.1-.25.37.37,0,0,1,.5,0,.36.36,0,0,1,.1.25.37.37,0,0,1-.1.25A.39.39,0,0,1,59.5,70Z"/><path class="cls-2" d="M40.25,68.22a.35.35,0,0,1-.25-.6.37.37,0,0,1,.5,0,.36.36,0,0,1,0,.5A.37.37,0,0,1,40.25,68.22Z"/><path class="cls-2" d="M4.25,60.22a.35.35,0,0,1-.25-.6.36.36,0,0,1,.6.25.34.34,0,0,1-.35.35Z"/><path class="cls-2" d="M26.25,59.72a.35.35,0,0,1-.25-.6.36.36,0,0,1,.6.25.34.34,0,0,1-.35.35Z"/><path class="cls-2" d="M37,48.72a.34.34,0,0,1-.35-.35.37.37,0,0,1,.1-.25.37.37,0,0,1,.5,0,.36.36,0,0,1,0,.5A.37.37,0,0,1,37,48.72Z"/><path class="cls-2" d="M8.5,40.47a.35.35,0,0,1-.25-.6.36.36,0,0,1,.6.25.34.34,0,0,1-.35.35Z"/><path class="cls-2" d="M52,38.22a.36.36,0,0,1-.25-.11.35.35,0,0,1-.1-.24.33.33,0,0,1,.11-.25.37.37,0,0,1,.49,0,.36.36,0,0,1,.1.25.34.34,0,0,1-.35.35Z"/><path class="cls-2" d="M60.5,46.22a.34.34,0,0,1-.35-.35.33.33,0,0,1,.11-.25.37.37,0,0,1,.49,0,.36.36,0,0,1,.1.25.34.34,0,0,1-.35.35Z"/><path class="cls-2" d="M51,66.47a.35.35,0,0,1-.25-.6.37.37,0,0,1,.5,0,.39.39,0,0,1,.1.25.35.35,0,0,1-.1.25A.39.39,0,0,1,51,66.47Z"/><path class="cls-2" d="M39.75,38a.35.35,0,0,1-.25-.6.36.36,0,0,1,.6.25.34.34,0,0,1-.35.35Z"/><path class="cls-2" d="M27.25,13.72a.35.35,0,0,1-.25-.6.36.36,0,0,1,.6.25.34.34,0,0,1-.35.35Z"/><path class="cls-2" d="M19.5,26.72a.34.34,0,0,1-.35-.35.37.37,0,0,1,.1-.25.37.37,0,0,1,.49,0,.36.36,0,0,1,.11.25.34.34,0,0,1-.35.35Z"/><path class="cls-2" d="M11.5,2a.39.39,0,0,1-.25-.1.39.39,0,0,1-.1-.25.39.39,0,0,1,.1-.25.38.38,0,0,1,.5,0,.39.39,0,0,1,.1.25.39.39,0,0,1-.1.25A.39.39,0,0,1,11.5,2Z"/><path class="cls-2" d="M55,4a.34.34,0,0,1-.35-.35.33.33,0,0,1,.11-.25.37.37,0,0,1,.49,0,.36.36,0,0,1,.1.25A.34.34,0,0,1,55,4Z"/><path class="cls-2" d="M47,70a.39.39,0,0,1-.25-.1.37.37,0,0,1-.1-.25.39.39,0,0,1,.1-.25.36.36,0,0,1,.6.25A.34.34,0,0,1,47,70Z"/><path class="cls-2" d="M4.5,40.47a.34.34,0,0,1-.35-.35.33.33,0,0,1,.11-.25.37.37,0,0,1,.49,0,.36.36,0,0,1,.1.25.34.34,0,0,1-.35.35Z"/><path class="cls-2" d="M68.5,13.47a.35.35,0,0,1-.25-.6.37.37,0,0,1,.5,0,.36.36,0,0,1,0,.5A.39.39,0,0,1,68.5,13.47Z"/><path class="cls-2" d="M23,14.22a.35.35,0,0,1-.25-.6.36.36,0,0,1,.6.25.34.34,0,0,1-.35.35Z"/><path class="cls-2" d="M20.25,17.47a.35.35,0,0,1-.25-.6.37.37,0,0,1,.5,0,.35.35,0,0,1-.25.6Z"/><path class="cls-2" d="M14.5,17.47a.34.34,0,0,1-.35-.35.33.33,0,0,1,.11-.25.37.37,0,0,1,.49,0,.36.36,0,0,1,.1.25.34.34,0,0,1-.35.35Z"/><path class="cls-2" d="M5.75,12a.35.35,0,0,1-.25-.6.36.36,0,0,1,.49,0,.33.33,0,0,1,.11.25.34.34,0,0,1-.35.35Z"/><path class="cls-2" d="M6.75,3a.37.37,0,0,1-.24-.1.36.36,0,0,1-.11-.25.39.39,0,0,1,.1-.25.36.36,0,0,1,.6.25.39.39,0,0,1-.1.25A.39.39,0,0,1,6.75,3Z"/><path class="cls-2" d="M9.75,8.47a.35.35,0,0,1-.25-.6.36.36,0,0,1,.6.25.34.34,0,0,1-.35.35Z"/><path class="cls-2" d="M14,8.47a.34.34,0,0,1-.35-.35.33.33,0,0,1,.11-.25.37.37,0,0,1,.49,0,.36.36,0,0,1,.1.25.34.34,0,0,1-.35.35Z"/><path class="cls-2" d="M25.5,7.22a.35.35,0,0,1-.25-.6.36.36,0,0,1,.6.25.34.34,0,0,1-.35.35Z"/><path class="cls-2" d="M36.75,7.72a.35.35,0,0,1-.25-.6.37.37,0,0,1,.5,0,.35.35,0,0,1-.25.6Z"/><path class="cls-2" d="M37.25,4.47a.34.34,0,0,1-.35-.35A.33.33,0,0,1,37,3.87a.35.35,0,0,1,.59.25.34.34,0,0,1-.35.35Z"/><path class="cls-2" d="M43,2.47a.39.39,0,0,1-.25-.1.39.39,0,0,1-.1-.25.39.39,0,0,1,.1-.25.37.37,0,0,1,.5,0,.39.39,0,0,1,.1.25.39.39,0,0,1-.1.25A.42.42,0,0,1,43,2.47Z"/><path class="cls-2" d="M49.25,8.47a.39.39,0,0,1-.25-.1.36.36,0,0,1,0-.5.37.37,0,0,1,.5,0,.35.35,0,0,1-.25.6Z"/><path class="cls-2" d="M45.75,9.47a.35.35,0,0,1-.25-.6.37.37,0,0,1,.5,0,.36.36,0,0,1,0,.5A.37.37,0,0,1,45.75,9.47Z"/><path class="cls-2" d="M35.5,11.22a.34.34,0,0,1-.35-.35.37.37,0,0,1,.1-.25.36.36,0,0,1,.6.25.34.34,0,0,1-.35.35Z"/><path class="cls-2" d="M39,15.22a.35.35,0,0,1-.25-.6.36.36,0,0,1,.6.25.34.34,0,0,1-.35.35Z"/><path class="cls-2" d="M24.5,18.22a.35.35,0,0,1-.25-.6.36.36,0,0,1,.6.25.34.34,0,0,1-.35.35Z"/><path class="cls-2" d="M8,27.47a.35.35,0,0,1-.25-.6.36.36,0,0,1,.6.25.34.34,0,0,1-.35.35Z"/><path class="cls-2" d="M15.75,32a.35.35,0,0,1-.25-.6.38.38,0,0,1,.5,0,.35.35,0,0,1-.25.6Z"/><path class="cls-2" d="M10.25,33.72a.34.34,0,0,1-.35-.35.33.33,0,0,1,.11-.25.37.37,0,0,1,.49,0,.36.36,0,0,1,.1.25.37.37,0,0,1-.1.25A.39.39,0,0,1,10.25,33.72Z"/><path class="cls-2" d="M5,37.22a.35.35,0,0,1-.25-.6.38.38,0,0,1,.5,0,.37.37,0,0,1,.1.25.34.34,0,0,1-.35.35Z"/><path class="cls-2" d="M3,20.72a.39.39,0,0,1-.25-.1.36.36,0,0,1,0-.5.38.38,0,0,1,.5,0,.36.36,0,0,1,0,.5A.39.39,0,0,1,3,20.72Z"/><path class="cls-2" d="M20.25,31a.34.34,0,0,1-.35-.35.33.33,0,0,1,.11-.25.35.35,0,0,1,.59.25.34.34,0,0,1-.35.35Z"/><path class="cls-2" d="M17.25,35.72a.35.35,0,0,1-.25-.6.37.37,0,0,1,.5,0,.35.35,0,0,1-.25.6Z"/><path class="cls-2" d="M15.75,39.22a.34.34,0,0,1-.35-.35.33.33,0,0,1,.11-.25.37.37,0,0,1,.49,0,.36.36,0,0,1,.1.25.39.39,0,0,1-.1.25A.37.37,0,0,1,15.75,39.22Z"/><path class="cls-2" d="M12.5,41.47a.34.34,0,0,1-.35-.35.33.33,0,0,1,.11-.25.37.37,0,0,1,.49,0,.36.36,0,0,1,.1.25.34.34,0,0,1-.35.35Z"/><path class="cls-2" d="M12.5,46.72a.34.34,0,0,1-.35-.35.33.33,0,0,1,.11-.25.37.37,0,0,1,.49,0,.36.36,0,0,1,.1.25.34.34,0,0,1-.35.35Z"/><path class="cls-2" d="M5.5,48.72a.35.35,0,0,1-.25-.6.38.38,0,0,1,.5,0,.35.35,0,0,1-.25.6Z"/><path class="cls-2" d="M10.75,54.72a.35.35,0,0,1-.25-.6.38.38,0,0,1,.5,0,.35.35,0,0,1-.25.6Z"/><path class="cls-2" d="M15.25,58.72a.35.35,0,0,1-.25-.6.37.37,0,0,1,.5,0,.35.35,0,0,1-.25.6Z"/><path class="cls-2" d="M5.75,63.72a.35.35,0,0,1-.25-.6.38.38,0,0,1,.5,0,.36.36,0,0,1,.1.25.34.34,0,0,1-.35.35Z"/><path class="cls-2" d="M2,62.22a.39.39,0,0,1-.25-.1.36.36,0,0,1,0-.5.37.37,0,0,1,.49,0,.34.34,0,0,1,.11.25.39.39,0,0,1-.1.25A.39.39,0,0,1,2,62.22Z"/><path class="cls-2" d="M8.75,68.22a.35.35,0,0,1-.25-.6.36.36,0,0,1,.6.25.39.39,0,0,1-.1.25A.37.37,0,0,1,8.75,68.22Z"/><path class="cls-2" d="M13.25,69.72a.35.35,0,0,1-.25-.6.38.38,0,0,1,.5,0,.35.35,0,0,1-.25.6Z"/><path class="cls-2" d="M21.25,68.72a.34.34,0,0,1-.35-.35.33.33,0,0,1,.11-.25.35.35,0,0,1,.59.25.34.34,0,0,1-.35.35Z"/><path class="cls-2" d="M22.75,66a.35.35,0,0,1-.25-.6.37.37,0,0,1,.5,0,.36.36,0,0,1,0,.5A.37.37,0,0,1,22.75,66Z"/><path class="cls-2" d="M22,60.22a.35.35,0,0,1-.25-.6.38.38,0,0,1,.5,0,.36.36,0,0,1,0,.5A.37.37,0,0,1,22,60.22Z"/><path class="cls-2" d="M24,57.72a.34.34,0,0,1-.35-.35.37.37,0,0,1,.1-.25.38.38,0,0,1,.5,0,.37.37,0,0,1,.1.25.39.39,0,0,1-.1.25A.37.37,0,0,1,24,57.72Z"/><path class="cls-2" d="M26,48a.35.35,0,0,1-.25-.6.37.37,0,0,1,.5,0A.35.35,0,0,1,26,48Z"/><path class="cls-2" d="M25.5,43.72a.35.35,0,0,1-.25-.6.37.37,0,0,1,.5,0,.35.35,0,0,1-.25.6Z"/><path class="cls-2" d="M32,31.22a.34.34,0,0,1-.35-.35.33.33,0,0,1,.11-.25.35.35,0,0,1,.59.25.34.34,0,0,1-.35.35Z"/><path class="cls-2" d="M34,28a.34.34,0,0,1-.35-.35.35.35,0,0,1,.1-.25.37.37,0,0,1,.5,0,.36.36,0,0,1,0,.5A.37.37,0,0,1,34,28Z"/><path class="cls-2" d="M41.5,26a.35.35,0,0,1-.25-.6.37.37,0,0,1,.5,0,.35.35,0,0,1-.25.6Z"/><path class="cls-2" d="M42.75,21a.36.36,0,0,1-.25-.11.33.33,0,0,1-.1-.24.39.39,0,0,1,.1-.25.37.37,0,0,1,.5,0,.39.39,0,0,1,.1.25.34.34,0,0,1-.11.25A.35.35,0,0,1,42.75,21Z"/><path class="cls-2" d="M36.25,19.47a.39.39,0,0,1-.25-.1.36.36,0,0,1-.1-.25.31.31,0,0,1,.1-.24.35.35,0,0,1,.5,0,.35.35,0,0,1-.25.6Z"/><path class="cls-2" d="M27.5,22.47a.35.35,0,0,1-.25-.6.37.37,0,0,1,.5,0,.35.35,0,0,1-.25.6Z"/><path class="cls-2" d="M51.75,22.22a.33.33,0,0,1-.25-.11.35.35,0,0,1-.1-.24.39.39,0,0,1,.1-.25.36.36,0,0,1,.6.25.39.39,0,0,1-.1.25A.37.37,0,0,1,51.75,22.22Z"/><path class="cls-2" d="M43,18a.37.37,0,0,1-.25-.1.36.36,0,0,1,0-.5.38.38,0,0,1,.5,0A.35.35,0,0,1,43,18Z"/><path class="cls-2" d="M50.25,18.22a.37.37,0,0,1-.25-.1.36.36,0,0,1,0-.5.36.36,0,0,1,.6.25.34.34,0,0,1-.35.35Z"/><path class="cls-2" d="M59.25,17.47a.34.34,0,0,1-.35-.35.33.33,0,0,1,.11-.25.37.37,0,0,1,.49,0,.36.36,0,0,1,.1.25.34.34,0,0,1-.35.35Z"/><path class="cls-2" d="M58,14.22a.37.37,0,0,1-.25-.1.36.36,0,0,1,0-.5.36.36,0,0,1,.6.25.34.34,0,0,1-.35.35Z"/><path class="cls-2" d="M61.25,11.22a.34.34,0,0,1-.35-.35.33.33,0,0,1,.11-.25.36.36,0,0,1,.49,0,.31.31,0,0,1,.1.24.34.34,0,0,1-.35.35Z"/><path class="cls-2" d="M58.5,7.72a.39.39,0,0,1-.25-.1.35.35,0,0,1-.1-.25.31.31,0,0,1,.1-.24.35.35,0,0,1,.6.24.34.34,0,0,1-.35.35Z"/><path class="cls-2" d="M59.75,5a.34.34,0,0,1-.25-.11.35.35,0,0,1-.1-.24.33.33,0,0,1,.11-.25.37.37,0,0,1,.49,0,.36.36,0,0,1,.1.25.34.34,0,0,1-.35.35Z"/><path class="cls-2" d="M67.25,6.22a.39.39,0,0,1-.25-.1.36.36,0,0,1-.1-.25.37.37,0,0,1,.1-.25.38.38,0,0,1,.5,0,.35.35,0,0,1-.25.6Z"/><path class="cls-2" d="M70.5,8.72a.39.39,0,0,1-.25-.1.36.36,0,0,1-.1-.25.37.37,0,0,1,.1-.25.37.37,0,0,1,.49,0,.36.36,0,0,1,.11.25.34.34,0,0,1-.35.35Z"/><path class="cls-2" d="M65.5,10a.34.34,0,0,1-.35-.35.37.37,0,0,1,.1-.25.38.38,0,0,1,.5,0,.35.35,0,0,1-.25.6Z"/><path class="cls-2" d="M60,24a.35.35,0,0,1-.25-.6.37.37,0,0,1,.5,0A.35.35,0,0,1,60,24Z"/><path class="cls-2" d="M55.25,24a.35.35,0,0,1-.25-.6.38.38,0,0,1,.5,0,.35.35,0,0,1-.25.6Z"/><path class="cls-2" d="M55.25,19a.34.34,0,0,1-.25-.11.35.35,0,0,1-.1-.24.33.33,0,0,1,.11-.25.37.37,0,0,1,.49,0,.36.36,0,0,1,.1.25.34.34,0,0,1-.35.35Z"/><path class="cls-2" d="M64.75,26a.34.34,0,0,1-.35-.35.33.33,0,0,1,.11-.25.37.37,0,0,1,.49,0,.36.36,0,0,1,.1.25.34.34,0,0,1-.35.35Z"/><path class="cls-2" d="M57.5,31a.33.33,0,0,1-.25-.11.35.35,0,0,1-.1-.24.33.33,0,0,1,.11-.25.37.37,0,0,1,.49,0,.36.36,0,0,1,.1.25.34.34,0,0,1-.35.35Z"/><path class="cls-2" d="M52.5,33a.36.36,0,0,1-.25-.11.35.35,0,0,1-.1-.24.33.33,0,0,1,.11-.25.37.37,0,0,1,.49,0,.36.36,0,0,1,.1.25.34.34,0,0,1-.35.35Z"/><path class="cls-2" d="M47.25,34a.36.36,0,0,1-.25-.11.35.35,0,0,1-.1-.24.33.33,0,0,1,.11-.25.37.37,0,0,1,.49,0,.36.36,0,0,1,.1.25.34.34,0,0,1-.35.35Z"/><path class="cls-2" d="M44,39.47a.36.36,0,0,1-.25-.11.35.35,0,0,1-.1-.24.39.39,0,0,1,.1-.25.37.37,0,0,1,.5,0,.37.37,0,0,1,.1.25.33.33,0,0,1-.11.25A.35.35,0,0,1,44,39.47Z"/><path class="cls-2" d="M33.75,41.72a.35.35,0,0,1-.25-.6.37.37,0,0,1,.5,0,.35.35,0,0,1-.25.6Z"/><path class="cls-2" d="M40.5,48.22a.35.35,0,0,1-.25-.6.36.36,0,0,1,.49,0,.34.34,0,0,1,.11.25.34.34,0,0,1-.35.35Z"/><path class="cls-2" d="M45.5,52.47a.34.34,0,0,1-.35-.35.33.33,0,0,1,.11-.25.35.35,0,0,1,.59.25.34.34,0,0,1-.35.35Z"/><path class="cls-2" d="M46.25,57a.35.35,0,0,1-.25-.6.35.35,0,0,1,.49,0,.36.36,0,0,1,.11.25.34.34,0,0,1-.35.35Z"/><path class="cls-2" d="M41.75,59.72a.35.35,0,0,1-.24-.1.36.36,0,0,1-.11-.25.39.39,0,0,1,.1-.25.37.37,0,0,1,.5,0,.35.35,0,0,1-.25.6Z"/><path class="cls-2" d="M39.75,63a.35.35,0,0,1-.25-.6.37.37,0,0,1,.5,0,.36.36,0,0,1,0,.5A.37.37,0,0,1,39.75,63Z"/><path class="cls-2" d="M35.75,63a.34.34,0,0,1-.35-.35.33.33,0,0,1,.11-.25.35.35,0,0,1,.59.25.34.34,0,0,1-.35.35Z"/><path class="cls-2" d="M36.25,53a.39.39,0,0,1-.25-.1.35.35,0,0,1-.1-.25.39.39,0,0,1,.1-.25.36.36,0,0,1,.5,0,.31.31,0,0,1,.1.24.34.34,0,0,1-.35.35Z"/><path class="cls-2" d="M29.75,63.72a.35.35,0,0,1-.24-.1.36.36,0,0,1-.11-.25.33.33,0,0,1,.11-.25.37.37,0,0,1,.49,0,.36.36,0,0,1,.1.25.34.34,0,0,1-.35.35Z"/><path class="cls-2" d="M31.25,68.72a.35.35,0,0,1-.25-.6.37.37,0,0,1,.5,0,.35.35,0,0,1-.25.6Z"/><path class="cls-2" d="M36.75,71.22a.39.39,0,0,1-.25-.1.37.37,0,0,1-.1-.25.33.33,0,0,1,.11-.25.37.37,0,0,1,.49,0,.36.36,0,0,1,.1.25.37.37,0,0,1-.1.25A.39.39,0,0,1,36.75,71.22Z"/><path class="cls-2" d="M62.75,57.22a.34.34,0,0,1-.35-.35.33.33,0,0,1,.11-.25.37.37,0,0,1,.49,0,.36.36,0,0,1,.1.25.34.34,0,0,1-.35.35Z"/><path class="cls-2" d="M59.75,51a.33.33,0,0,1-.25-.11.35.35,0,0,1-.1-.24.35.35,0,0,1,.59-.25.36.36,0,0,1,.11.25.39.39,0,0,1-.1.25A.37.37,0,0,1,59.75,51Z"/><path class="cls-2" d="M54.25,50.72a.39.39,0,0,1-.25-.1.37.37,0,0,1-.1-.25.35.35,0,0,1,.7,0,.35.35,0,0,1-.1.24A.34.34,0,0,1,54.25,50.72Z"/><path class="cls-2" d="M54.5,42a.36.36,0,0,1-.25-.11.33.33,0,0,1-.1-.24.39.39,0,0,1,.1-.25.37.37,0,0,1,.5,0,.39.39,0,0,1,.1.25.34.34,0,0,1-.11.25A.35.35,0,0,1,54.5,42Z"/><path class="cls-2" d="M62.25,42.47a.35.35,0,0,1-.25-.6.37.37,0,0,1,.5,0,.35.35,0,0,1-.25.6Z"/><path class="cls-2" d="M66.75,47.72a.35.35,0,0,1-.24-.1.36.36,0,0,1-.11-.25.39.39,0,0,1,.1-.25.36.36,0,0,1,.49,0,.32.32,0,0,1,.11.25.34.34,0,0,1-.35.35Z"/><path class="cls-2" d="M69.25,54.47a.35.35,0,0,1-.24-.1.36.36,0,0,1-.11-.25.39.39,0,0,1,.1-.25.36.36,0,0,1,.6.25.34.34,0,0,1-.35.35Z"/><path class="cls-2" d="M63.25,62a.35.35,0,0,1-.24-.1.36.36,0,0,1-.11-.25.39.39,0,0,1,.1-.25.36.36,0,0,1,.49,0,.32.32,0,0,1,.11.25.34.34,0,0,1-.35.35Z"/><path class="cls-2" d="M70,61.22a.34.34,0,0,1-.35-.35.33.33,0,0,1,.11-.25.37.37,0,0,1,.49,0,.36.36,0,0,1,.1.25.34.34,0,0,1-.35.35Z"/><path class="cls-2" d="M64.5,65.72a.35.35,0,0,1-.25-.6.36.36,0,0,1,.5,0,.35.35,0,0,1,.1.24.34.34,0,0,1-.35.35Z"/><path class="cls-2" d="M65.5,68.47a.35.35,0,0,1-.25-.6.37.37,0,0,1,.5,0,.35.35,0,0,1-.25.6Z"/><path class="cls-2" d="M62.25,70.47a.34.34,0,0,1-.35-.35.34.34,0,0,1,.11-.25.36.36,0,0,1,.49,0,.31.31,0,0,1,.1.24.34.34,0,0,1-.35.35Z"/><path class="cls-2" d="M52.5,70a.36.36,0,0,1-.25-.1.36.36,0,0,1,0-.5.36.36,0,0,1,.6.25.39.39,0,0,1-.1.25A.37.37,0,0,1,52.5,70Z"/><path class="cls-2" d="M44.5,66.72a.34.34,0,0,1-.25-.11.35.35,0,0,1-.1-.24.33.33,0,0,1,.11-.25.37.37,0,0,1,.49,0,.36.36,0,0,1,.1.25.34.34,0,0,1-.35.35Z"/><path class="cls-2" d="M28.25,71.47a.39.39,0,0,1-.25-.1.36.36,0,0,1-.1-.25.33.33,0,0,1,.11-.25.35.35,0,0,1,.59.25.33.33,0,0,1-.11.25A.35.35,0,0,1,28.25,71.47Z"/><path class="cls-2" d="M2.75,29.72a.39.39,0,0,1-.25-.1.36.36,0,0,1,0-.5.38.38,0,0,1,.5,0,.36.36,0,0,1,0,.5A.39.39,0,0,1,2.75,29.72Z"/><path class="cls-2" d="M13,5.22a.36.36,0,0,1-.25-.11.31.31,0,0,1-.1-.24.37.37,0,0,1,.1-.25.36.36,0,0,1,.6.25.33.33,0,0,1-.11.25A.35.35,0,0,1,13,5.22Z"/><path class="cls-2" d="M70,34.72a.34.34,0,0,1-.35-.35.33.33,0,0,1,.11-.25.37.37,0,0,1,.49,0,.36.36,0,0,1,.1.25.34.34,0,0,1-.35.35Z"/><path class="cls-2" d="M71,41.47a.35.35,0,0,1-.25-.6.37.37,0,0,1,.5,0,.35.35,0,0,1-.25.6Z"/><path class="cls-2" d="M.75,52a.39.39,0,0,1-.25-.1.39.39,0,0,1-.1-.25.33.33,0,0,1,.11-.25.37.37,0,0,1,.49,0,.36.36,0,0,1,.1.25.39.39,0,0,1-.1.25A.39.39,0,0,1,.75,52Z"/><path class="cls-2" d="M71.75,23.72a.35.35,0,0,1-.25-.6.38.38,0,0,1,.5,0,.35.35,0,0,1-.25.6Z"/><path class="cls-2" d="M68.75,26.72a.35.35,0,0,1-.25-.6.37.37,0,0,1,.5,0,.39.39,0,0,1,.1.25.35.35,0,0,1-.1.25A.39.39,0,0,1,68.75,26.72Z"/><path class="cls-2" d="M68.25,60.47a.34.34,0,0,1-.35-.35.37.37,0,0,1,.1-.25.38.38,0,0,1,.5,0,.35.35,0,0,1-.25.6Z"/><path class="cls-2" d="M71.25,68.47a.35.35,0,0,1-.25-.6.37.37,0,0,1,.5,0,.39.39,0,0,1,.1.25.35.35,0,0,1-.1.25A.39.39,0,0,1,71.25,68.47Z"/><path class="cls-2" d="M.25,58a.39.39,0,0,1-.25-.1.36.36,0,0,1,0-.5.38.38,0,0,1,.5,0,.36.36,0,0,1,0,.5A.39.39,0,0,1,.25,58Z"/><path class="cls-2" d="M2.5,71.47a.39.39,0,0,1-.25-.1.36.36,0,0,1,0-.5.36.36,0,0,1,.6.25.39.39,0,0,1-.1.25A.39.39,0,0,1,2.5,71.47Z"/><path class="cls-2" d="M70,24.22a.34.34,0,0,1-.35-.35.33.33,0,0,1,.11-.25.37.37,0,0,1,.49,0,.36.36,0,0,1,.1.25.34.34,0,0,1-.35.35Z"/><path class="cls-2" d="M1,17a.39.39,0,0,1-.25-.1.36.36,0,0,1,0-.5.38.38,0,0,1,.5,0,.36.36,0,0,1,0,.5A.39.39,0,0,1,1,17Z"/><path class="cls-2" d="M17.75,13.27a.65.65,0,0,1-.65-.65.66.66,0,0,1,.19-.46.68.68,0,0,1,.92,0,.65.65,0,0,1-.46,1.11Z"/><path class="cls-2" d="M29,11.27a.66.66,0,0,1-.46-.19.68.68,0,0,1-.19-.46.66.66,0,0,1,.19-.46.67.67,0,0,1,.92,0,.66.66,0,0,1,.19.46.65.65,0,0,1-.65.65Z"/><path class="cls-2" d="M29,3.77a.65.65,0,0,1-.65-.65.64.64,0,0,1,.19-.46.68.68,0,0,1,.92,0,.65.65,0,0,1,0,.92A.68.68,0,0,1,29,3.77Z"/><path class="cls-2" d="M40,10.77a.65.65,0,0,1-.65-.65.66.66,0,0,1,.19-.46.68.68,0,0,1,.92,0,.63.63,0,0,1,.19.46.68.68,0,0,1-.19.46A.66.66,0,0,1,40,10.77Z"/><path class="cls-2" d="M44.75,12.27a.61.61,0,0,1-.46-.2.64.64,0,0,1-.19-.45.66.66,0,0,1,.19-.46.68.68,0,0,1,.92,0,.63.63,0,0,1,.19.46.61.61,0,0,1-.2.46A.6.6,0,0,1,44.75,12.27Z"/><path class="cls-2" d="M47,23.27a.65.65,0,0,1-.46-1.11.68.68,0,0,1,.92,0A.65.65,0,0,1,47,23.27Z"/><path class="cls-2" d="M54.5,7.27A.64.64,0,0,1,54,7.08a.65.65,0,0,1,0-.92.68.68,0,0,1,.92,0,.64.64,0,0,1,.19.46.66.66,0,0,1-.19.46A.64.64,0,0,1,54.5,7.27Z"/><path class="cls-2" d="M63.75,7a.65.65,0,0,1-.46-1.11.68.68,0,0,1,.92,0A.65.65,0,0,1,63.75,7Z"/><path class="cls-2" d="M64.75,3a.66.66,0,0,1-.46-.19.68.68,0,0,1-.19-.46.66.66,0,0,1,.19-.46.68.68,0,0,1,.92,0,.68.68,0,0,1,.19.46.63.63,0,0,1-.18.45A.67.67,0,0,1,64.75,3Z"/><path class="cls-2" d="M69.25,18.52a.65.65,0,0,1-.46-1.11.67.67,0,0,1,.92,0,.65.65,0,0,1-.46,1.11Z"/><path class="cls-2" d="M7.75,47.52a.64.64,0,0,1-.46-.19.68.68,0,0,1-.19-.46.66.66,0,0,1,.19-.46.68.68,0,0,1,.92,0,.66.66,0,0,1,.19.46.68.68,0,0,1-.19.46A.64.64,0,0,1,7.75,47.52Z"/><path class="cls-2" d="M4.75,57.27a.64.64,0,0,1-.46-.19.65.65,0,0,1,0-.92.67.67,0,0,1,.92,0,.65.65,0,0,1,0,.92A.64.64,0,0,1,4.75,57.27Z"/><path class="cls-2" d="M2,67.52a.66.66,0,0,1-.46-.19.68.68,0,0,1-.19-.46.66.66,0,0,1,.19-.46.68.68,0,0,1,.92,0,.66.66,0,0,1,.19.46.68.68,0,0,1-.19.46A.66.66,0,0,1,2,67.52Z"/><path class="cls-2" d="M17.5,70.27a.66.66,0,0,1-.46-.19.68.68,0,0,1-.19-.46.66.66,0,0,1,.19-.46.68.68,0,0,1,.92,0,.66.66,0,0,1,.19.46.68.68,0,0,1-.19.46A.66.66,0,0,1,17.5,70.27Z"/><path class="cls-2" d="M19,62.77a.65.65,0,0,1-.65-.65.64.64,0,0,1,.19-.46.67.67,0,0,1,.92,0,.66.66,0,0,1,.19.46.68.68,0,0,1-.19.46A.66.66,0,0,1,19,62.77Z"/><path class="cls-2" d="M20.75,45.77a.65.65,0,0,1-.65-.65.64.64,0,0,1,.19-.46.67.67,0,0,1,.92,0,.66.66,0,0,1,.19.46.68.68,0,0,1-.19.46A.64.64,0,0,1,20.75,45.77Z"/><path class="cls-2" d="M28.25,51.52a.65.65,0,0,1-.46-1.11.67.67,0,0,1,.92,0,.66.66,0,0,1,.19.46.68.68,0,0,1-.19.46A.64.64,0,0,1,28.25,51.52Z"/><path class="cls-2" d="M33.75,60.77a.65.65,0,0,1-.65-.65.64.64,0,0,1,.19-.46.68.68,0,0,1,.92,0,.63.63,0,0,1,.19.46.64.64,0,0,1-.19.46A.66.66,0,0,1,33.75,60.77Z"/><path class="cls-2" d="M34,67.27a.64.64,0,0,1-.46-.19.65.65,0,0,1,0-.92.67.67,0,0,1,.92,0,.65.65,0,0,1,0,.92A.66.66,0,0,1,34,67.27Z"/><path class="cls-2" d="M41.5,55.52A.65.65,0,0,1,41,54.41a.68.68,0,0,1,.92,0,.65.65,0,0,1-.46,1.11Z"/><path class="cls-2" d="M52,60.27a.65.65,0,0,1-.46-1.11.68.68,0,0,1,.92,0A.65.65,0,0,1,52,60.27Z"/><path class="cls-2" d="M54.75,65.77a.66.66,0,0,1-.46-.19.68.68,0,0,1-.19-.46.64.64,0,0,1,.19-.46.68.68,0,0,1,.92,0,.64.64,0,0,1,.19.46.68.68,0,0,1-.19.46A.66.66,0,0,1,54.75,65.77Z"/><path class="cls-2" d="M25,25a.66.66,0,0,1-.46-.19.68.68,0,0,1-.19-.46.66.66,0,0,1,.19-.46.68.68,0,0,1,.92,0,.66.66,0,0,1,.19.46.68.68,0,0,1-.19.46A.66.66,0,0,1,25,25Z"/><path class="cls-2" d="M35,23.77a.64.64,0,0,1-.46-.19.65.65,0,0,1,0-.92.68.68,0,0,1,.92,0A.65.65,0,0,1,35,23.77Z"/><path class="cls-2" d="M44.75,30a.65.65,0,0,1-.46-1.11.68.68,0,0,1,.92,0,.63.63,0,0,1,.19.46.61.61,0,0,1-.2.46A.62.62,0,0,1,44.75,30Z"/><path class="cls-2" d="M51.75,43.52a.65.65,0,0,1-.46-1.11.67.67,0,0,1,.92,0,.64.64,0,0,1,.19.46.65.65,0,0,1-.65.65Z"/><path class="cls-2" d="M66.75,52.27a.65.65,0,0,1-.65-.65.61.61,0,0,1,.2-.46.68.68,0,0,1,.91,0,.65.65,0,0,1-.46,1.11Z"/><path class="cls-2" d="M47,48.27a.65.65,0,0,1-.46-1.11.68.68,0,0,1,.92,0A.65.65,0,0,1,47,48.27Z"/><path class="cls-2" d="M36.75,45a.66.66,0,0,1-.46-.19.68.68,0,0,1-.19-.46.66.66,0,0,1,.19-.46.68.68,0,0,1,.92,0,.66.66,0,0,1,.19.46.68.68,0,0,1-.19.46A.66.66,0,0,1,36.75,45Z"/><path class="cls-2" d="M16.75,29a.65.65,0,0,1-.46-1.11.68.68,0,0,1,.92,0,.65.65,0,0,1,0,.92A.64.64,0,0,1,16.75,29Z"/><path class="cls-2" d="M11,37.27a.65.65,0,0,1-.65-.65.64.64,0,0,1,.19-.46.67.67,0,0,1,.92,0A.65.65,0,0,1,11,37.27Z"/><path class="cls-2" d="M67.25,31.27a.66.66,0,0,1-.46-.19.68.68,0,0,1-.19-.46.66.66,0,0,1,.19-.46.68.68,0,0,1,.92,0,.64.64,0,0,1,.19.46.65.65,0,0,1-.65.65Z"/><path class="cls-2" d="M7,16.27a.61.61,0,0,1-.46-.2.62.62,0,0,1-.19-.45.66.66,0,0,1,.19-.46.67.67,0,0,1,.92,0,.65.65,0,0,1,0,.92A.64.64,0,0,1,7,16.27Z"/><path class="cls-2" d="M8.25,5.77a.68.68,0,0,1-.46-.19.66.66,0,0,1-.19-.46.64.64,0,0,1,.19-.46.67.67,0,0,1,.92,0,.64.64,0,0,1,.19.46.65.65,0,0,1-.65.65Z"/><path class="cls-2" d="M3.25,3a.66.66,0,0,1-.46-.19.68.68,0,0,1-.19-.46.66.66,0,0,1,.19-.46.68.68,0,0,1,.92,0,.66.66,0,0,1,.19.46.68.68,0,0,1-.19.46A.66.66,0,0,1,3.25,3Z"/><path class="cls-2" d="M66.25,37.77a.65.65,0,0,1-.46-1.11.68.68,0,0,1,.92,0,.64.64,0,0,1,.19.46.66.66,0,0,1-.19.46A.64.64,0,0,1,66.25,37.77Z"/><path class="cls-2" d="M43.75,63.52a.66.66,0,0,1-.46-.19.68.68,0,0,1-.19-.46.66.66,0,0,1,.19-.46.67.67,0,0,1,.92,0,.66.66,0,0,1,.19.46.68.68,0,0,1-.19.46A.66.66,0,0,1,43.75,63.52Z"/><path class="cls-2" d="M25.5,70.52a.66.66,0,0,1-.46-.19.68.68,0,0,1-.19-.46.66.66,0,0,1,.19-.46.67.67,0,0,1,.92,0,.66.66,0,0,1,.19.46.68.68,0,0,1-.19.46A.66.66,0,0,1,25.5,70.52Z"/><path class="cls-2" d="M21.75,42.27a.66.66,0,0,1-.46-.19.65.65,0,0,1,0-.92.68.68,0,0,1,.92,0,.65.65,0,0,1-.46,1.11Z"/><path class="cls-2" d="M23.75,29.52a.66.66,0,0,1-.46-.19.68.68,0,0,1-.19-.46.66.66,0,0,1,.19-.46.67.67,0,0,1,.92,0,.64.64,0,0,1,.19.46.65.65,0,0,1-.65.65Z"/><path class="cls-2" d="M41.25,35a.65.65,0,0,1-.46-1.11.68.68,0,0,1,.92,0,.66.66,0,0,1,.19.46.68.68,0,0,1-.19.46A.66.66,0,0,1,41.25,35Z"/><path class="cls-2" d="M67.25,44.27a.66.66,0,0,1-.46-.19.68.68,0,0,1-.19-.46.66.66,0,0,1,.19-.46.68.68,0,0,1,.92,0,.64.64,0,0,1,.19.46.65.65,0,0,1-.65.65Z"/><path class="cls-2" d="M53,15.52a.65.65,0,0,1-.46-1.11.68.68,0,0,1,.92,0,.66.66,0,0,1,.19.46.68.68,0,0,1-.19.46A.66.66,0,0,1,53,15.52Z"/><path class="cls-2" d="M33.75,16.52a.66.66,0,0,1-.46-.19.68.68,0,0,1-.19-.46.64.64,0,0,1,.19-.46.68.68,0,0,1,.92,0,.64.64,0,0,1,.19.46.65.65,0,0,1-.65.65Z"/><path class="cls-2" d="M12.5,19.77A.65.65,0,0,1,12,18.66a.67.67,0,0,1,.92,0,.65.65,0,0,1-.46,1.11Z"/><path class="cls-2" d="M49.25,5a.65.65,0,0,1-.46-1.11.68.68,0,0,1,.92,0A.65.65,0,0,1,49.25,5Z"/><path class="cls-2" d="M58.75,21.27a.65.65,0,0,1-.46-1.11.68.68,0,0,1,.92,0,.64.64,0,0,1,.19.46.65.65,0,0,1-.65.65Z"/><path class="cls-2" d="M67.25,57.77a.66.66,0,0,1-.46-.19.68.68,0,0,1-.19-.46.66.66,0,0,1,.19-.46.68.68,0,0,1,.92,0,.64.64,0,0,1,.19.46.65.65,0,0,1-.65.65Z"/><path class="cls-2" d="M5,70.27a.64.64,0,0,1-.46-.19.65.65,0,0,1,0-.92.67.67,0,0,1,.92,0,.65.65,0,0,1,0,.92A.64.64,0,0,1,5,70.27Z"/><path class="cls-2" d="M2.5,13.77a.61.61,0,0,1-.46-.2.62.62,0,0,1-.19-.45A.66.66,0,0,1,2,12.66a.67.67,0,0,1,.92,0,.65.65,0,0,1,0,.92A.64.64,0,0,1,2.5,13.77Z"/><path class="cls-2" d="M16.25,3.77a.65.65,0,0,1-.46-1.11.68.68,0,0,1,.92,0,.65.65,0,0,1-.46,1.11Z"/><path class="cls-2" d="M40.25,5a.65.65,0,0,1-.46-1.11.68.68,0,0,1,.92,0,.64.64,0,0,1,.19.46.65.65,0,0,1-.65.65Z"/><path class="cls-2" d="M2.5,32.52A.64.64,0,0,1,2,32.33a.65.65,0,0,1,0-.92.68.68,0,0,1,.92,0,.65.65,0,0,1-.46,1.11Z"/><path class="cls-2" d="M7.25,25.52a.64.64,0,0,1-.46-.19.65.65,0,0,1,0-.92.68.68,0,0,1,.92,0,.64.64,0,0,1,.19.46.66.66,0,0,1-.19.46A.64.64,0,0,1,7.25,25.52Z"/><path class="cls-2" d="M3.75,47.27a.66.66,0,0,1-.46-.19.68.68,0,0,1-.19-.46.66.66,0,0,1,.19-.46.67.67,0,0,1,.92,0,.66.66,0,0,1,.19.46.68.68,0,0,1-.19.46A.64.64,0,0,1,3.75,47.27Z"/><path class="cls-2" d="M10.75,51a.66.66,0,0,1-.46-.19.68.68,0,0,1-.19-.46.64.64,0,0,1,.19-.46.68.68,0,0,1,.92,0,.66.66,0,0,1,.19.46.68.68,0,0,1-.19.46A.66.66,0,0,1,10.75,51Z"/><path class="cls-2" d="M9.75,60.27a.64.64,0,0,1-.46-.19.65.65,0,0,1,0-.92.68.68,0,0,1,.92,0,.65.65,0,0,1,0,.92A.64.64,0,0,1,9.75,60.27Z"/><path class="cls-2" d="M13.25,66.27a.66.66,0,0,1-.46-.19.68.68,0,0,1-.19-.46.64.64,0,0,1,.19-.46.67.67,0,0,1,.92,0,.66.66,0,0,1,.19.46.68.68,0,0,1-.19.46A.66.66,0,0,1,13.25,66.27Z"/><path class="cls-2" d="M21.75,53.77a.66.66,0,0,1-.46-.19.64.64,0,0,1-.19-.46.6.6,0,0,1,.2-.46.65.65,0,0,1,1.1.46.68.68,0,0,1-.19.46A.66.66,0,0,1,21.75,53.77Z"/><path class="cls-2" d="M31,38a.66.66,0,0,1-.46-.19.68.68,0,0,1-.19-.46.66.66,0,0,1,.19-.46.68.68,0,0,1,.92,0,.66.66,0,0,1,.19.46.68.68,0,0,1-.19.46A.66.66,0,0,1,31,38Z"/><path class="cls-2" d="M25.75,34.52a.65.65,0,0,1-.46-1.11.67.67,0,0,1,.92,0,.65.65,0,0,1-.46,1.11Z"/><path class="cls-2" d="M37,29a.66.66,0,0,1-.46-.19.68.68,0,0,1-.19-.46.66.66,0,0,1,.19-.46.68.68,0,0,1,.92,0,.66.66,0,0,1,.19.46.68.68,0,0,1-.19.46A.66.66,0,0,1,37,29Z"/><path class="cls-2" d="M61.5,17a.66.66,0,0,1-.46-.19.68.68,0,0,1-.19-.46.66.66,0,0,1,.19-.46.68.68,0,0,1,.92,0,.64.64,0,0,1,.19.46.65.65,0,0,1-.65.65Z"/><path class="cls-2" d="M61,27.52a.64.64,0,0,1-.46-.19.68.68,0,0,1-.19-.46.66.66,0,0,1,.19-.46.68.68,0,0,1,.92,0,.65.65,0,0,1,0,.92A.64.64,0,0,1,61,27.52Z"/><path class="cls-2" d="M58.5,57.52a.66.66,0,0,1-.46-.19.68.68,0,0,1-.19-.46.66.66,0,0,1,.19-.46.68.68,0,0,1,.92,0,.66.66,0,0,1,.19.46.68.68,0,0,1-.19.46A.66.66,0,0,1,58.5,57.52Z"/><path class="cls-2" d="M59,44.77a.64.64,0,0,1-.46-.19.65.65,0,0,1,0-.92.68.68,0,0,1,.92,0,.65.65,0,0,1,0,.92A.64.64,0,0,1,59,44.77Z"/><path class="cls-2" d="M55.5,36a.66.66,0,0,1-.46-.19.68.68,0,0,1-.19-.46.66.66,0,0,1,.19-.46.68.68,0,0,1,.92,0,.66.66,0,0,1,.19.46.68.68,0,0,1-.19.46A.66.66,0,0,1,55.5,36Z"/><path class="cls-2" d="M69,71a.68.68,0,0,1-.46-.19.65.65,0,0,1,0-.92.69.69,0,0,1,.92,0A.65.65,0,0,1,69,71Z"/><path class="cls-2" d="M60.5,66.27A.65.65,0,0,1,60,65.16a.67.67,0,0,1,.92,0,.64.64,0,0,1,.19.46.65.65,0,0,1-.65.65Z"/><path class="cls-2" d="M44.25,71.77a.65.65,0,0,1-.46-1.11.68.68,0,0,1,.92,0,.65.65,0,0,1-.46,1.11Z"/><path class="cls-2" d="M24.25,1.52A.65.65,0,0,1,23.6.87a.64.64,0,0,1,.19-.46.67.67,0,0,1,.92,0,.66.66,0,0,1,.19.46.68.68,0,0,1-.19.46A.64.64,0,0,1,24.25,1.52Z"/><path class="cls-2" d="M-.25,23.72a.39.39,0,0,1-.25-.1.39.39,0,0,1-.1-.25.39.39,0,0,1,.1-.25.38.38,0,0,1,.5,0,.39.39,0,0,1,.1.25.39.39,0,0,1-.1.25A.39.39,0,0,1-.25,23.72Z"/></pattern></defs><g id="Layer_2" data-name="Layer 2"><g id="Layer_1-2" data-name="Layer 1"><path class="cls-3" d="M138.76,315c-.94-1.15,5.93-2,5.93-2s-3.37-7.84-6.91-9.25c-10.45-4.16-8.52-6.43-12-3.41-3-2.42-6.72-5.75-7.78-6.9-1.73-1.88-5.51.74-8.61-.35s-7.64-7.93-11.09-4.75S88.14,292.24,84,299.53s-4.56,4.05-7.93,7.14-2.38,4.38-8.42,9.94c-1.88,1.74,0,2.59,2.54,2,5.79-1.45,6.07,2.45,9.2,2.58s7.48-.93,13.56-.67,5,2.64,8.41,2.79,7.85-3.36,11.65-3.2v0c3.69.91,6.83,2.78,8.5,2.85,2.53.11,7.81-4.67,10.59-4.55,2.62,0,5.27.22,7,.3C142.66,318.79,140.62,317.28,138.76,315Z"/><path class="cls-4" d="M60.93,55.66A5.77,5.77,0,0,1,64,56l-.68-1.4c11.44,2.53,8.76,8.92,8.76,8.92s-5.1,4.7-11.37-5.21c0,0-.4-.15.93.09S60.72,57.37,60.93,55.66Z"/><polygon class="cls-5" points="103.85 287.76 99.28 287.76 99.9 253.72 103.23 253.72 103.85 287.76"/><polyline class="cls-6" points="78.16 219.46 54.63 138.74 148.49 138.74 124.96 219.46"/><path class="cls-4" d="M62.48,77.63c-.56-2.41.81-6.5.81-6.5,6.85,9.5.59,12.49.59,12.49s-6.93.1-5-11.46C58.88,72.16,61.92,75.22,62.48,77.63Z"/><line class="cls-7" x1="62.9" y1="79.42" x2="63.22" y2="80.8"/><path class="cls-8" d="M67.06,60c-2-1.42-3.73-5.39-3.73-5.39,11.44,2.53,8.76,8.92,8.76,8.92s-5.1,4.7-11.37-5.21C60.72,58.28,65,58.54,67.06,60Z"/><line class="cls-8" x1="68.56" y1="61.02" x2="69.73" y2="61.83"/><path class="cls-8" d="M64,56a5.08,5.08,0,0,0-3.08-.31,5.07,5.07,0,0,0,1.27,2.71"/><path class="cls-4" d="M86.29,87.88c.39-2.44,3.2-5.71,3.2-5.71C92.24,93.56,85.32,94,85.32,94s-6.46-2.53-.3-12.51C85,81.45,86.68,85.44,86.29,87.88Z"/><line class="cls-8" x1="86" y1="89.7" x2="85.77" y2="91.1"/><path class="cls-4" d="M55.14,45.29c4.64,9.55-4.24,13.34-4.24,13.34S45.84,50.41,55.14,45.29Z"/><path class="cls-9" d="M55,49.54a7.28,7.28,0,0,1-1.59,5.55"/><path class="cls-4" d="M3.82,69.16C9.25,51.89,18.37,41.88,18.37,41.88c2.46,1.74,4.92,3.22,12,3.77,7.6.6,11.76-3.58,11.76-3.58a41.05,41.05,0,0,0-5.84-4.24s.94.58,4.6-.61a20,20,0,0,0,9.18-6.78,17.24,17.24,0,0,0-9-2.52,9,9,0,0,0,2.18-.13,7.94,7.94,0,0,0,1.79-.69c4.54-2.39,5-6.05,5-6.05a10.63,10.63,0,0,0-5.19-2.39h0s1.06.12,2.56-1.45a7.35,7.35,0,0,0,2-4,6.72,6.72,0,0,0-4.28-1c-2.29.28-3,1.38-3,1.38a13.5,13.5,0,0,0,.15-6.93,13.11,13.11,0,0,0-5.6,1.65A4.41,4.41,0,0,0,37.12,5a6.83,6.83,0,0,0-2.35-3.8,7.51,7.51,0,0,0-3.19,3.22c-1,1.94-.55,3-.55,3A10.89,10.89,0,0,0,27,3s-3.42,1.61-4.28,6.73a8.13,8.13,0,0,0-.1,2,14.46,14.46,0,0,0,.53,3.63h0C22.61,11.71,17,8.52,17,8.52a16.8,16.8,0,0,0-2.52,10.05c.33,4.09,1.46,4.9,1.46,4.9a40.22,40.22,0,0,0-6.82-5s-2.72,5.22.25,12.15c2.33,5.46,4.59,7.86,6.76,9.56A80.73,80.73,0,0,0,1.17,68"/><path class="cls-4" d="M71,69.71c10.51-1.5,11.41,8.11,11.41,8.11S73,80.13,71,69.71Z"/><path class="cls-9" d="M75,71.13a7.36,7.36,0,0,1,4.8,3.21"/><path class="cls-4" d="M82.84,120.76c-2.24-1.05-4.6-4.66-4.6-4.66,11.71.52,10.16,7.28,10.16,7.28s-4.22,5.5-12.09-3.19C76.31,120.19,80.6,119.71,82.84,120.76Z"/><line class="cls-8" x1="84.5" y1="121.55" x2="85.79" y2="122.15"/><path class="cls-4" d="M102.07,128.65c-1.27-2.49-1.78-6.17,1.83-10.54,4.36,4,4.15,7.89,3.12,10.54"/><path class="cls-9" d="M105.34,122.12a7.86,7.86,0,0,1,.88,4.43"/><text class="cls-10" transform="translate(106.33 54.14)">malto</text><rect class="cls-6" x="74.05" y="219.46" width="55.02" height="34.26"/><path class="cls-6" d="M137.19,312c.95,4,6.81,6.82,2,6.62-2.65-.11-7.36-.57-10.9-.09"/><path class="cls-6" d="M139.15,314.6c1.64-1.51,5.54-1.59,5.54-1.59s-3.37-7.84-6.91-9.25c-10.45-4.16-8.52-6.43-12-3.41"/><path class="cls-4" d="M81.2,103.32a5.72,5.72,0,0,1-3-.79l.46,1.49c-10.91-4.3-7.25-10.19-7.25-10.19s5.78-3.83,10.4,6.94c0,0,.38.22-.89-.23S81.68,101.67,81.2,103.32Z"/><path class="cls-8" d="M75.83,98.11c1.78,1.72,2.84,5.91,2.84,5.91-10.91-4.3-7.25-10.19-7.25-10.19s5.78-3.83,10.4,6.94C81.82,100.77,77.61,99.83,75.83,98.11Z"/><line class="cls-8" x1="74.51" y1="96.83" x2="73.49" y2="95.84"/><path class="cls-8" d="M78.21,102.53a5,5,0,0,0,3,.79,5,5,0,0,0-.82-2.87"/><path class="cls-4" d="M98.27,101.73a5.7,5.7,0,0,1-.63,3l1.47-.54c-3.7,11.12-9.79,7.79-9.79,7.79s-4.14-5.56,6.37-10.76c0,0,.2-.39-.18.91S96.6,101.34,98.27,101.73Z"/><path class="cls-8" d="M93.36,107.37c1.63-1.86,5.75-3.15,5.75-3.15-3.7,11.12-9.79,7.79-9.79,7.79s-4.14-5.56,6.37-10.76C95.69,101.25,95,105.51,93.36,107.37Z"/><line class="cls-8" x1="92.16" y1="108.76" x2="91.22" y2="109.83"/><path class="cls-8" d="M97.64,104.76a5,5,0,0,0,.63-3,5,5,0,0,0-2.82,1"/><rect class="cls-6" x="51.76" y="128.65" width="100.78" height="10.09"/><line class="cls-6" x1="156.82" y1="234.14" x2="156.82" y2="256.61"/><path class="cls-8" d="M86.29,87.88c.39-2.44,3.2-5.71,3.2-5.71C92.24,93.56,85.32,94,85.32,94s-6.46-2.53-.3-12.51C85,81.45,86.68,85.44,86.29,87.88Z"/><path class="cls-8" d="M82.84,120.76c-2.24-1.05-4.6-4.66-4.6-4.66,11.71.52,10.16,7.28,10.16,7.28s-4.22,5.5-12.09-3.19C76.31,120.19,80.6,119.71,82.84,120.76Z"/><path class="cls-8" d="M102.07,128.65c-1.27-2.49-1.78-6.17,1.83-10.54,4.36,4,4.15,7.89,3.12,10.54"/><rect class="cls-6" x="129.07" y="234.14" width="27.75" height="6.07"/><rect class="cls-6" x="156.82" y="256.61" width="17.21" height="5.05"/><path class="cls-8" d="M62.48,77.63c-.56-2.41.81-6.5.81-6.5,6.85,9.5.59,12.49.59,12.49s-6.93.1-5-11.46C58.88,72.16,61.92,75.22,62.48,77.63Z"/><path class="cls-8" d="M71,69.71c10.51-1.5,11.41,8.11,11.41,8.11S73,80.13,71,69.71Z"/><path class="cls-8" d="M55.14,45.29c4.64,9.55-4.24,13.34-4.24,13.34S45.84,50.41,55.14,45.29Z"/><path class="cls-6" d="M36.29,37.83s.94.58,4.6-.61a14.12,14.12,0,0,0,8-6.78s-5.69-2.69-9.08-2.59-7.74,3.21-7.74,3.21,3.43-4.3,1.44-11.58c-7.63.42-10.7,5-10.7,5s1.62-5,.66-8.25-5.34-7.69-5.34-7.69S14,12.81,14.44,18.57c.33,4.09,1.46,4.9,1.46,4.9"/><path class="cls-6" d="M21,36.62S24.25,35,30.08,35.5c5.21.45,12.05,6.57,12.05,6.57S38,46.25,30.37,45.65s-9.88-2.25-12.56-4.16-5.52-3.9-8.48-10.83-.25-12.15-.25-12.15,8,4.48,10.11,9.23C21.5,33,21,36.62,21,36.62Z"/><path class="cls-6" d="M31,7.35s-.5-1,.55-3a7.51,7.51,0,0,1,3.19-3.22A6.83,6.83,0,0,1,37.12,5a4.41,4.41,0,0,1-.38,3.41"/><path class="cls-6" d="M41.09,27.92a9.35,9.35,0,0,0,2.21-.13,7.94,7.94,0,0,0,1.79-.69c4.54-2.39,5-6.05,5-6.05a10.29,10.29,0,0,0-6.17-2.45,17.66,17.66,0,0,0-4.1.74S44,12.79,42.34,6.73C35.91,7.09,32,12.36,32,12.36a17.67,17.67,0,0,0-.6-4.18A10.52,10.52,0,0,0,27,3s-3.42,1.61-4.28,6.73a8.13,8.13,0,0,0-.1,2,14.46,14.46,0,0,0,.53,3.63"/><path class="cls-6" d="M44.87,18.66s1.06.12,2.56-1.45a7.35,7.35,0,0,0,2-4,6.72,6.72,0,0,0-4.28-1c-2.29.28-3,1.38-3,1.38"/><path class="cls-6" d="M15.62,40.77c.08-.19-9,9.9-14.45,27.18"/><path class="cls-6" d="M18.26,42c.09-.18-9,9.91-14.44,27.18"/><path class="cls-5" d="M118.7,306.78c-4.39-8.48-11.61-13.35-.71-7.82,8.71,4.42,3.32,4.82,7.75,6.75,5.78,2.51,23.93,17.56,9.13,11.57-10.63-4.29-8.78,9.37-22.55-5.25-6.16-6.53-1.62-5.51,1.87-4.23S121.62,312.45,118.7,306.78Z"/><path class="cls-5" d="M100.72,289.09c1,0,1.11,1.67.54,2.49a8.84,8.84,0,0,1-2.37,1.8,2.47,2.47,0,0,0-1.28,2.49c.22.75,1,1.36.9,2.13s-.84,1-1.48,1.12c-2.4.61-5,.47-7.26,1.48a7.78,7.78,0,0,0-3.69,3.52c-.52-1.48.27-3.09,1.1-4.43,2.07-3.34,4.89-6.63,8.75-7.4a17.11,17.11,0,0,0,2.76-.57C99.57,291.37,99.78,289.08,100.72,289.09Z"/><path class="cls-5" d="M98.16,321.46c-.16-.64-1.5-3.62-1.86-4.78-.83-2.65-1.67-3.89-1.77-4.75-.7-5.83,3.94-9.76,3-10.71s-8,2.27-8.5,6.63c-.2,1.89.9,3.35-.11,4.75-.77,1.06-2.41,1.62-3.2,1.1s-.43-2-.78-2.1-1.73,2-4.81,9.55c0,0,5.22-.63,9.74-1A19.52,19.52,0,0,1,98.16,321.46Z"/><ellipse class="cls-5" cx="104.49" cy="305.51" rx="1.51" ry="8.9"/><path class="cls-5" d="M67.67,316.61a63,63,0,0,0,5.1-5.72c.65-1,13.78-15.08,4.47,1.14-2.06,3.6.46,8.6.46,8.6s-3.09-3.67-7.49-2.06C67.6,319.53,66.18,318.11,67.67,316.61Z"/><path class="cls-6" d="M107,319.8c6.11-1.27,12,3,14.55,3.1s7.81-4.66,10.59-4.55"/><path class="cls-6" d="M129.51,303.08c-.83,0-9.82-7.74-11.55-9.63s-5.51.74-8.61-.35-7.64-7.93-11.09-4.75S88.14,292.24,84,299.53s-4.56,4.05-7.93,7.14-2.38,4.38-8.42,9.94c-1.88,1.74,0,2.59,2.54,2,5.79-1.45,6.07,2.45,9.2,2.58s7.48-.93,13.56-.67,5,2.64,8.41,2.79,7.85-3.36,11.65-3.2"/></g></g></svg>