<svg xmlns="http://www.w3.org/2000/svg" viewBox="0 0 261.45 316.37"><defs><style>.cls-1,.cls-6{fill:#ffffff;}.cls-1{opacity:0.5;}.cls-2,.cls-3,.cls-4,.cls-5{fill:none;stroke:#ffffff;stroke-linecap:round;stroke-linejoin:round;}.cls-2{stroke-width:1.76px;}.cls-3{stroke-width:1.17px;}.cls-4,.cls-5{stroke-width:2.34px;}.cls-5{stroke-dasharray:0.58 5.76;}</style></defs><g id="Layer_2" data-name="Layer 2"><g id="Layer_1-2" data-name="Layer 1"><path class="cls-1" d="M136.15,101.7c7.7.45,13.33,1.9,13.33,3.61v17.48c0,2.07-8.24,3.75-18.39,3.75s-18.4-1.68-18.4-3.75V105.31c0-1.71,5.63-3.16,13.32-3.61V71.14c0-.57,2.27-1,5.08-1s5.07.47,5.07,1V101.7"/><path class="cls-2" d="M219.58,122.81a15.12,15.12,0,0,0,.63,4.36l1.64,3.41c0,4.74-2.78,38.2-5.1,42.34L206,192.56a22.4,22.4,0,0,0-2.6,10.48v97.14a17.53,17.53,0,0,0,1.95,8l1.07,2.06c0,2.88,11.45,5.22,25.58,5.22s25.59-2.34,25.59-5.22l1.06-2.06a17.41,17.41,0,0,0,2-8V203a22.52,22.52,0,0,0-2.6-10.48L247.2,172.92c-2.32-4.14-4.59-37.6-4.59-42.34l1.64-3.41a15.12,15.12,0,0,0,.63-4.36"/><path class="cls-3" d="M237.64,131.52c-1.24.08-2.55.13-3.92.13s-2.68-.05-3.91-.13"/><path class="cls-1" d="M216.83,121.59l2.42.44,2.08,2.64,3-1.57,2.5,2.29,2.82-1.88,2.68,2.08,2.68-2.08,2.82,1.88,2.5-2.29,3,1.57,2.08-2.64,2.42-.44-1.4-5.73c-.57-2.07-6.31-2.88-14.1-2.88s-13.51.86-14.1,2.88Z"/><path class="cls-3" d="M246.43,115.86c0,1.59-6.31,2.87-14.1,2.87s-14.1-1.28-14.1-2.87"/><path class="cls-2" d="M216.83,121.59l2.42.44,2.08,2.64,3-1.57,2.5,2.29,2.82-1.88,2.68,2.08,2.68-2.08,2.82,1.88,2.5-2.29,3,1.57,2.08-2.64,2.42-.44-1.4-5.73c-.57-2.07-6.31-2.88-14.1-2.88s-13.51.86-14.1,2.88Z"/><path class="cls-2" d="M118.66,125.56a6.56,6.56,0,0,0,.4,1.61l1.65,3.41c0,4.74-2.78,38.2-5.1,42.34l-10.79,19.64A22.51,22.51,0,0,0,102.23,203v97.14a17.53,17.53,0,0,0,2,8l1.06,2.06c0,2.88,11.46,5.22,25.59,5.22s25.59-2.34,25.59-5.22l1.06-2.06a17.53,17.53,0,0,0,2-8V203a22.51,22.51,0,0,0-2.59-10.48l-10.79-19.64c-2.32-4.14-4.59-37.6-4.59-42.34l1.65-3.41a6.56,6.56,0,0,0,.4-1.61"/><path class="cls-3" d="M136.49,131.52c-1.23.08-2.55.13-3.91.13s-2.68-.05-3.91-.13"/><path class="cls-3" d="M42.39,119.29c0,1.43-5.67,2.59-12.65,2.59s-12.66-1.16-12.66-2.59"/><path class="cls-2" d="M40.11,130l1.65-3.4a15.53,15.53,0,0,0,.63-4.36v-3c0-1.42-5.67-2.58-12.65-2.58s-12.66,1.16-12.66,2.58v3a15.53,15.53,0,0,0,.63,4.36l1.65,3.4c0,4.75-2.78,38.21-5.1,42.35L3.47,192A22.51,22.51,0,0,0,.88,202.47v97.14a17.5,17.5,0,0,0,2,8l1.06,2.06c0,2.89,11.46,5.22,25.59,5.22s25.59-2.33,25.59-5.22l1.06-2.06a17.5,17.5,0,0,0,1.95-8V202.47A22.51,22.51,0,0,0,55.49,192L44.7,172.36C42.38,168.22,40.11,134.76,40.11,130Z"/><path class="cls-3" d="M35.14,131c-1.23.08-2.55.12-3.91.12s-2.68,0-3.91-.12"/><path class="cls-3" d="M38.91,121.07a47.28,47.28,0,0,0-9-.76,45.78,45.78,0,0,0-9.17.8"/><path class="cls-2" d="M149.48,105.31c0,2.07-8.24,3.76-18.39,3.76s-18.4-1.69-18.4-3.76"/><path class="cls-2" d="M136.16,104.53c0,.57-2.27,1-5.07,1s-5.08-.46-5.08-1"/><path class="cls-2" d="M136.16,71.14c0,.57-2.27,1-5.07,1s-5.08-.46-5.08-1"/><line class="cls-2" x1="136.16" y1="104.53" x2="136.16" y2="101.7"/><line class="cls-2" x1="126.01" y1="101.7" x2="126.01" y2="104.53"/><path class="cls-2" d="M136.15,101.7c7.7.45,13.33,1.9,13.33,3.61v17.48c0,2.07-8.24,3.75-18.39,3.75s-18.4-1.68-18.4-3.75V105.31c0-1.71,5.63-3.16,13.32-3.61V71.14c0-.57,2.27-1,5.08-1s5.07.47,5.07,1V101.7"/><line class="cls-4" x1="130.83" y1="1.17" x2="130.83" y2="1.46"/><line class="cls-5" x1="130.83" y1="7.22" x2="130.83" y2="55.02"/><line class="cls-4" x1="130.83" y1="57.9" x2="130.83" y2="58.19"/><polygon class="cls-6" points="121.26 50.44 122.97 48.84 130.83 57.29 138.69 48.84 140.4 50.44 130.83 60.73 121.26 50.44"/><path class="cls-3" d="M152.55,308.25s-6.17,2.31-19.15,2.58"/><path class="cls-3" d="M127.18,310.87c-2.86-.07-5.39-.25-7.51-.48"/><path class="cls-3" d="M152.55,308.25s-6.17,2.31-19.15,2.58"/><path class="cls-3" d="M127.18,310.87c-2.86-.07-5.39-.25-7.51-.48"/><path class="cls-3" d="M51.18,307.47S45,309.77,32,310"/><path class="cls-3" d="M25.81,310.09c-2.86-.07-5.39-.26-7.51-.48"/><path class="cls-3" d="M253.7,308.25s-6.18,2.31-19.15,2.58"/><path class="cls-3" d="M228.32,310.87c-2.86-.07-5.38-.25-7.5-.48"/></g></g></svg>