<svg id="Layer_1" data-name="Layer 1" xmlns="http://www.w3.org/2000/svg" viewBox="0 0 291.969 291.969"><title>versamento1</title><g id="Layer_1-2" data-name="Layer 1-2"><path d="M101.685,146.632c-.5,6.36-.634,12.841-.672,16.329a6.126,6.126,0,0,1-2.079,4.541c-.541.476-1.091.858-1.409,1.11C94.317,171.223,86,170.589,86.1,175.429c.056,2.639,2.564-.494,3.655,1.054,2.285,3.236-6.164,6.4-9.111,7.675-1.557.69-14.921-3.05-28.76-3.311-28.909-.55-39.922,3.73-40.827,6.659L7.273,191.59c-2.742,2.8,2.658,12.562,12.067,21.822s19.267,14.5,22.008,11.713l39.018-34.551,26.8-23.165V152.7c0-23.025,6.146-27.641,6.146-27.641a23.029,23.029,0,0,0,.167-2.462v-1.371C103.932,126.256,102.375,137.875,101.685,146.632Z" style="opacity:0.5;isolation:isolate"/><ellipse cx="92.436" cy="139.656" rx="10.155" ry="34.271" transform="translate(-71.941 107.585) rotate(-45.46)" style="fill:none;stroke:#000;stroke-linecap:round;stroke-linejoin:round;stroke-width:2.3399999141693115px"/><path d="M68.01,115.587,3.356,191.348C.27,194.49,6.35,205.5,16.953,215.93s21.7,16.338,24.8,13.195l75.08-65.437" style="fill:none;stroke:#000;stroke-linecap:round;stroke-linejoin:round;stroke-width:2.3399999141693115px"/><path d="M20.655,212.2a55.655,55.655,0,0,0,12.123,9.325,19.371,19.371,0,0,0,2.947,1.306" style="fill:none;stroke:#000;stroke-linecap:round;stroke-linejoin:round;stroke-width:1.1699999570846558px"/><path d="M10.817,199.666a41.155,41.155,0,0,0,4.215,6.323" style="fill:none;stroke:#000;stroke-linecap:round;stroke-linejoin:round;stroke-width:1.1699999570846558px"/><path d="M10.509,194.78c2.229-2.267,10.258,2,17.877,9.521s12.039,15.462,9.81,17.718" style="fill:none;stroke:#000;stroke-linecap:round;stroke-linejoin:round;stroke-width:1.1699999570846558px"/><path d="M81.2,190.583c-4.42,3.161-18.166,5.456-34.448,5.456-19.845,0-35.931-3.423-35.931-7.638s16.086-7.647,35.931-7.647c11.6,0,21.924,1.175,28.5,2.984.671.2,4.1,1.184,8.327-1.669" style="fill:none"/><path d="M111.281,105.161c1.287-.121,2.8,4.887,3.422,11.191s0,11.508-1.24,11.638" style="fill:none;stroke:#000;stroke-linecap:round;stroke-linejoin:round;stroke-width:1.1699999570846558px"/><path d="M121.147,106.262l-3.208-1.194a13.915,13.915,0,0,0-3.991-.187l-2.667.252c-1.287.122-1.866,5.334-1.241,11.639s2.136,11.321,3.423,11.19l2.667-.261a14.012,14.012,0,0,0,3.879-.932l2.929-1.782c4.28-.41,34.709-.783,38.644.933l18.652,8.038a20.33,20.33,0,0,0,9.679,1.437L277.573,127a15.929,15.929,0,0,0,7.078-2.453l1.763-1.138c2.6-.251,3.73-10.789,2.509-23.537S284.605,76.989,282,77.241l-1.958-.728a16,16,0,0,0-7.461-1.072l-87.66,8.393a20.442,20.442,0,0,0-9.232,3.245L158.906,98.5C155.418,100.946,125.427,105.879,121.147,106.262Z" style="fill:none;stroke:#000;stroke-miterlimit:10"/><path d="M122.425,110.691c.186,1.11.335,2.294.457,3.525s.186,2.425.223,3.535" style="fill:none;stroke:#000;stroke-linecap:round;stroke-linejoin:round;stroke-width:1.1699999570846558px"/><path d="M280.324,80.989s2.621,5.381,3.982,17.057" style="fill:none;stroke:#000;stroke-linecap:round;stroke-linejoin:round;stroke-width:1.1699999570846558px"/><path d="M284.866,103.66c.177,2.592.233,4.886.214,6.817" style="fill:none;stroke:#000;stroke-linecap:round;stroke-linejoin:round;stroke-width:1.1699999570846558px"/><path d="M113.314,125.062a44.02,44.02,0,0,0-.094-8.458,42.6,42.6,0,0,0-1.566-8.477" style="fill:none;stroke:#000;stroke-linecap:round;stroke-linejoin:round;stroke-width:1.1699999570846558px"/><line x1="69.064" y1="229.965" x2="122.77" y2="229.965" style="fill:none;stroke:#000;stroke-linecap:round;stroke-linejoin:round;stroke-width:2px"/><line x1="106.935" y1="191.889" x2="69.064" y2="229.769" style="fill:none;stroke:#000;stroke-linecap:round;stroke-linejoin:round;stroke-width:2px"/><path d="M90.261,208.572a30.035,30.035,0,0,1,8.915,21.393" style="fill:none;stroke:#000;stroke-linecap:round;stroke-linejoin:round;stroke-width:2px"/><g style="isolation:isolate"><path d="M115.914,216.9v-2.877H110.7V212.67l5.484-7.786h1.2v7.786h1.622v1.353H117.39V216.9Zm0-4.23v-5.418l-3.762,5.418Z"/><path d="M120.521,213.752l1.548-.131a2.778,2.778,0,0,0,.8,1.7,2.169,2.169,0,0,0,1.512.57,2.355,2.355,0,0,0,1.8-.8,3.026,3.026,0,0,0,.738-2.131,2.743,2.743,0,0,0-.709-1.992,2.477,2.477,0,0,0-1.856-.728,2.574,2.574,0,0,0-1.288.323,2.5,2.5,0,0,0-.9.84l-1.385-.18,1.164-6.172h5.975v1.409h-4.8l-.647,3.23a3.907,3.907,0,0,1,2.27-.754,3.594,3.594,0,0,1,2.655,1.09,3.808,3.808,0,0,1,1.082,2.8,4.381,4.381,0,0,1-.95,2.819,3.809,3.809,0,0,1-3.156,1.459,3.886,3.886,0,0,1-2.676-.918A3.583,3.583,0,0,1,120.521,213.752Z"/><path d="M130.209,206.95a2.274,2.274,0,1,1,.668,1.614A2.181,2.181,0,0,1,130.209,206.95Zm.893,0a1.383,1.383,0,0,0,1.385,1.384,1.385,1.385,0,0,0,0-2.769,1.383,1.383,0,0,0-1.385,1.385Z"/></g></g></svg>