<svg id="Layer_1" data-name="Layer 1" xmlns="http://www.w3.org/2000/svg" viewBox="0 0 354.246 354.246"><title>separazioneLievito</title><g id="Layer_1-2" data-name="Layer 1-2"><path d="M300.128,141.458c0,13.86-55.07,25.1-123,25.1s-123-11.24-123-25.1" style="fill:none;stroke:#17306d;stroke-linecap:round;stroke-linejoin:round;stroke-width:2.3399999141693115px"/><path d="M168.538,330.578c-36.51-.59-67.85-4.92-84.81-11.12" style="fill:none;stroke:#17306d;stroke-linecap:round;stroke-linejoin:round;stroke-width:2.3399999141693115px"/><path d="M270.518,319.458c-17.63,6.44-50.82,10.87-89.19,11.18" style="fill:none;stroke:#17306d;stroke-linecap:round;stroke-linejoin:round;stroke-width:2.3399999141693115px"/><path d="M270.518,319.458s21.43-6.46,21.64-21.06c.1-7.85,0-148.06,0-148.06" style="fill:none;stroke:#17306d;stroke-linecap:round;stroke-linejoin:round;stroke-width:2.3399999141693115px"/><path d="M83.728,319.458S62.268,313,62.088,298.4c-.1-7.85-.09-61.87-.06-101.59h0c0-30.22.05-46.44.05-46.44" style="fill:none;stroke:#17306d;stroke-linecap:round;stroke-linejoin:round;stroke-width:2.3399999141693115px"/><path d="M172.828,96.868h4.3c67.93,0,123,11.24,123,25.1s-55.07,25.11-123,25.11S54.118,135.818,54.118,122c0-13,48.06-23.61,109.77-25" style="fill:none;stroke:#17306d;stroke-linecap:round;stroke-linejoin:round;stroke-width:2.3399999141693115px"/><line x1="54.118" y1="141.458" x2="54.118" y2="121.948" style="fill:none;stroke:#17306d;stroke-linecap:round;stroke-linejoin:round;stroke-width:2.3399999141693115px"/><line x1="300.128" y1="141.458" x2="300.128" y2="121.948" style="fill:none;stroke:#17306d;stroke-linecap:round;stroke-linejoin:round;stroke-width:2.3399999141693115px"/><path d="M181.268,292.708a15.051,15.051,0,1,1-12.68,0" style="fill:none;stroke:#17306d;stroke-linecap:round;stroke-linejoin:round;stroke-width:2.3399999141693115px"/><path d="M172.428,305.468h5c1.5,0,2.79-.6,2.85-1.35l2.08-24.22c.13-1.48-1.57-2.73-3.78-2.73h-7.32c-2.2,0-3.9,1.25-3.77,2.73l2.08,24.22C169.638,304.868,170.948,305.468,172.428,305.468Z" style="fill:none;stroke:#17306d;stroke-linecap:round;stroke-linejoin:round;stroke-width:2.3399999141693115px"/><polyline points="182.378 319.458 179.228 353.078 170.638 353.078 167.488 319.458" style="fill:none;stroke:#17306d;stroke-linecap:round;stroke-linejoin:round;stroke-width:2.3399999141693115px"/><path d="M166.158,7.378v6.79a4.431,4.431,0,0,0,.89,2.68l5.38,7.15v4.85a4.45,4.45,0,0,0,1.25,3.1l11.69,11.94a2.921,2.921,0,0,1,.24,3.8l-2.66,5.06a4.424,4.424,0,0,0-.9,2.67V69a4.455,4.455,0,0,0,.9,2.68l4.2,7.1a7.39,7.39,0,1,1-14.77.543q-.01-.272,0-.543h0l4.21-7.1a4.443,4.443,0,0,0,.86-2.68V55.428a4.45,4.45,0,0,0-.89-2.68l-4.28-7.1a11.09,11.09,0,0,0-22.18.07v34.47a6.3,6.3,0,0,0,1.79,4.4l21,21.52a2.2,2.2,0,0,1,.64,1.56v6.1" style="fill:none;stroke:#17306d;stroke-linecap:round;stroke-linejoin:round;stroke-width:2.3399999141693115px"/><path d="M184.818,7.378v6.81a4.408,4.408,0,0,1-.9,2.66L178.548,24v4l12.88,13.2a6.382,6.382,0,0,1,1.81,4.45h0l4.2,7.09a4.491,4.491,0,0,1,.9,2.69V69a4.394,4.394,0,0,1-.9,2.67l-4.2,7.1a13.51,13.51,0,0,1-27,1.125q-.021-.517,0-1.035v-.09l-4.19-7.09a4.441,4.441,0,0,1-.9-2.69V55.418a4.419,4.419,0,0,1,.89-2.67l4.2-7.1a5,5,0,0,0-4.92-5.08h-.08a5.1,5.1,0,0,0-5,5.15v33.56a2.237,2.237,0,0,0,.64,1.57l21.07,21.59a6.32,6.32,0,0,1,1.8,4.41v6.92" style="fill:none;stroke:#17306d;stroke-linecap:round;stroke-linejoin:round;stroke-width:2.3399999141693115px"/><line x1="166.158" y1="7.378" x2="184.818" y2="7.378" style="fill:none;stroke:#17306d;stroke-linecap:round;stroke-linejoin:round;stroke-width:2.3399999141693115px"/><path d="M167.688,1.168h15.58a2.62,2.62,0,0,1,2.62,2.62v3.6h-20.81v-3.6A2.62,2.62,0,0,1,167.688,1.168Z" style="fill:none;stroke:#17306d;stroke-linecap:round;stroke-linejoin:round;stroke-width:2.3399999141693115px"/><path d="M173.578,113.768c0,.62,1.37,1.12,3.06,1.12s3.06-.5,3.06-1.12" style="fill:none;stroke:#17306d;stroke-linecap:round;stroke-linejoin:round;stroke-width:2.3399999141693115px"/><line x1="166.158" y1="7.378" x2="184.818" y2="7.378" style="fill:none;stroke:#17306d;stroke-linecap:round;stroke-linejoin:round;stroke-width:2.3399999141693115px"/><path d="M167.688,1.168h15.58a2.62,2.62,0,0,1,2.62,2.62v3.78h-20.81V3.788A2.62,2.62,0,0,1,167.688,1.168Z" style="fill:#17306d;opacity:0.5;isolation:isolate"/><path d="M173.578,113.768v-6.1a2.2,2.2,0,0,0-.64-1.56l-21-21.52a6.3,6.3,0,0,1-1.79-4.4V45.718a11.09,11.09,0,0,1,22.18-.07h0l4.28,7.1a4.45,4.45,0,0,1,.89,2.68V69a4.441,4.441,0,0,1-.89,2.67l-4.21,7.1h0a7.39,7.39,0,1,0,14.77.543q.011-.272,0-.543l-4.2-7.1a4.455,4.455,0,0,1-.9-2.68V55.418a4.424,4.424,0,0,1,.9-2.67l2.69-5.1a2.921,2.921,0,0,0-.24-3.8l-11.74-11.94a4.45,4.45,0,0,1-1.25-3.1V24l-5.38-7.11a4.431,4.431,0,0,1-.89-2.68V7.378h18.66v6.81a4.408,4.408,0,0,1-.9,2.66L178.548,24v4l12.88,13.2a6.382,6.382,0,0,1,1.81,4.45h0l4.2,7.09a4.491,4.491,0,0,1,.9,2.69V69a4.394,4.394,0,0,1-.9,2.67l-4.2,7.1a13.51,13.51,0,0,1-27,1.125q-.021-.517,0-1.035v-.09l-4.19-7.09a4.441,4.441,0,0,1-.9-2.69V55.418a4.419,4.419,0,0,1,.89-2.67l4.2-7.1a5,5,0,0,0-4.92-5.08h-.08a5.1,5.1,0,0,0-5,5.15v33.56a2.237,2.237,0,0,0,.64,1.57l21.07,21.59a6.32,6.32,0,0,1,1.8,4.41v6.92" style="fill:#17306d;opacity:0.5;isolation:isolate"/></g></svg>