<svg id="Layer_1" data-name="Layer 1" xmlns="http://www.w3.org/2000/svg" viewBox="0 0 368.249 368.249"><title>imbottigliamento</title><g id="Layer_1-2" data-name="Layer 1-2"><path d="M264.079,30.174c0,9-35.8,16.32-80,16.32s-80-7.31-80-16.32" style="fill:none;stroke:#17306d;stroke-linecap:round;stroke-linejoin:round;stroke-width:2.3399999141693115px"/><path d="M178.539,181.694c-23.73-.39-44.1-3.2-55.12-7.23" style="fill:none;stroke:#17306d;stroke-linecap:round;stroke-linejoin:round;stroke-width:2.3399999141693115px"/><path d="M244.829,174.464c-11.46,4.19-33,7.07-58,7.26" style="fill:none;stroke:#17306d;stroke-linecap:round;stroke-linejoin:round;stroke-width:2.3399999141693115px"/><path d="M244.829,174.464s13.95-4.19,14.07-13.69c.06-5.1,0-124.83,0-124.83" style="fill:none;stroke:#17306d;stroke-linecap:round;stroke-linejoin:round;stroke-width:2.3399999141693115px"/><path d="M123.419,174.464s-14-4.19-14.07-13.69c-.06-5.1-.06-40.22,0-66h0V36" style="fill:none;stroke:#17306d;stroke-linecap:round;stroke-linejoin:round;stroke-width:2.3399999141693115px"/><line x1="104.169" y1="30.174" x2="104.169" y2="17.494" style="fill:none;stroke:#17306d;stroke-linecap:round;stroke-linejoin:round;stroke-width:2.3399999141693115px"/><line x1="264.079" y1="30.174" x2="264.079" y2="17.494" style="fill:none;stroke:#17306d;stroke-linecap:round;stroke-linejoin:round;stroke-width:2.3399999141693115px"/><path d="M186.819,157.074a9.788,9.788,0,1,1-8.24,0" style="fill:none;stroke:#17306d;stroke-linecap:round;stroke-linejoin:round;stroke-width:2.3399999141693115px"/><path d="M181.069,165.364h3.26c1,0,1.81-.39,1.85-.87l1.35-15.75c.09-1-1-1.77-2.45-1.77h-4.76c-1.43,0-2.54.81-2.45,1.77l1.35,15.75C179.259,165,180.089,165.364,181.069,165.364Z" style="fill:none;stroke:#17306d;stroke-linecap:round;stroke-linejoin:round;stroke-width:2.3399999141693115px"/><polyline points="187.539 174.464 185.499 196.314 179.909 196.314 177.859 174.464" style="fill:none;stroke:#17306d;stroke-linecap:round;stroke-linejoin:round;stroke-width:2.3399999141693115px"/><ellipse cx="184.129" cy="17.494" rx="79.96" ry="16.32" style="fill:none;stroke:#17306d;stroke-linecap:round;stroke-linejoin:round;stroke-width:2.3399999141693115px"/><path d="M192.119,227.5c0,1-4.05,1.85-9,1.85s-9-.83-9-1.85" style="fill:none;stroke:#17306d;stroke-linecap:round;stroke-linejoin:round;stroke-width:1.1699999570846558px"/><path d="M190.489,235.154l1.18-2.43a11.1,11.1,0,0,0,.45-3.11V227.5c0-1-4.05-1.84-9-1.84s-9,.83-9,1.84v2.11a11.17,11.17,0,0,0,.45,3.11l1.18,2.43c0,3.38-2,27.25-3.64,30.21l-7.7,14a16.084,16.084,0,0,0-1.85,7.47v69.31a12.588,12.588,0,0,0,1.39,5.73l.76,1.46c0,2.06,8.18,3.73,18.26,3.73s18.25-1.67,18.25-3.73l.76-1.46a12.563,12.563,0,0,0,1.39-5.73v-69.3a15.985,15.985,0,0,0-1.85-7.47l-7.69-14C192.109,262.4,190.489,238.534,190.489,235.154Z" style="fill:none;stroke:#17306d;stroke-linecap:round;stroke-linejoin:round;stroke-width:2.3399999141693115px"/><path d="M173.629,255c-.66,4.63-1.38,8.53-2,9.63l-7.69,14a16.1,16.1,0,0,0-1.85,7.48v69.3a12.56,12.56,0,0,0,1.39,5.73l.76,1.47c0,2,8.17,3.72,18.25,3.72s18.26-1.67,18.26-3.72l.76-1.47a12.535,12.535,0,0,0,1.39-5.73v-69.3a16.076,16.076,0,0,0-1.85-7.48l-7.7-14c-.61-1.09-1.16-4.94-1.61-9.54" style="fill:#17306d;opacity:0.5;isolation:isolate"/><path d="M187,235.824c-.88.06-1.82.09-2.8.09a27.874,27.874,0,0,1-2.79-.09" style="fill:none;stroke:#17306d;stroke-linecap:round;stroke-linejoin:round;stroke-width:1.1699999570846558px"/><rect x="181.079" y="196.314" width="3.64" height="57.92" style="fill:#17306d;opacity:0.5;isolation:isolate"/><ellipse cx="183.089" cy="255.104" rx="9.03" ry="2.15" style="fill:#17306d"/></g></svg>