<svg xmlns="http://www.w3.org/2000/svg" xmlns:xlink="http://www.w3.org/1999/xlink" viewBox="0 0 366.47 294.82"><defs><style>.cls-1,.cls-3,.cls-7{fill:none;}.cls-2,.cls-6{fill:#17306d;}.cls-3,.cls-4,.cls-7{stroke:#17306d;}.cls-3,.cls-7{stroke-linecap:round;stroke-linejoin:round;}.cls-3,.cls-4{stroke-width:1.17px;}.cls-4{stroke-miterlimit:10;fill:url(#USGS_22_Gravel_Beach_4);}.cls-5{fill:url(#USGS_22_Gravel_Beach_4-3);}.cls-6{opacity:0.51;}.cls-7{stroke-width:2.34px;}</style><pattern id="USGS_22_Gravel_Beach_4" data-name="USGS 22 Gravel Beach 4" width="72" height="72" patternTransform="translate(-44.67 57.26) scale(0.88)" patternUnits="userSpaceOnUse" viewBox="0 0 72 72"><rect class="cls-1" width="72" height="72"/><path class="cls-2" d="M72.25,58a.35.35,0,0,1-.25-.6.38.38,0,0,1,.5,0,.35.35,0,0,1-.25.6Z"/><path class="cls-2" d="M20.75,3.22a.39.39,0,0,1-.25-.1.36.36,0,0,1,0-.5.36.36,0,0,1,.6.25.39.39,0,0,1-.1.25A.39.39,0,0,1,20.75,3.22Z"/><path class="cls-2" d="M19.75,8.47a.34.34,0,0,1-.35-.35.33.33,0,0,1,.11-.25.37.37,0,0,1,.49,0,.36.36,0,0,1,.1.25.39.39,0,0,1-.1.25A.37.37,0,0,1,19.75,8.47Z"/><path class="cls-2" d="M20,10.72a.35.35,0,0,1-.25-.6.37.37,0,0,1,.5,0,.35.35,0,0,1-.25.6Z"/><path class="cls-2" d="M15,10.72a.34.34,0,0,1-.35-.35.37.37,0,0,1,.1-.25.38.38,0,0,1,.5,0,.35.35,0,0,1-.25.6Z"/><path class="cls-2" d="M22.5,20.22a.35.35,0,0,1-.25-.6.36.36,0,0,1,.6.25.34.34,0,0,1-.35.35Z"/><path class="cls-2" d="M15,23.22a.34.34,0,0,1-.35-.35.33.33,0,0,1,.11-.25.37.37,0,0,1,.49,0,.36.36,0,0,1,.1.25.34.34,0,0,1-.35.35Z"/><path class="cls-2" d="M13.75,24.22a.35.35,0,0,1-.25-.6.36.36,0,0,1,.6.25.39.39,0,0,1-.1.25A.37.37,0,0,1,13.75,24.22Z"/><path class="cls-2" d="M23.75,27.22a.34.34,0,0,1-.35-.35.33.33,0,0,1,.11-.25.37.37,0,0,1,.49,0,.39.39,0,0,1,.1.25.35.35,0,0,1-.1.24A.36.36,0,0,1,23.75,27.22Z"/><path class="cls-2" d="M30.5,26a.35.35,0,0,1-.25-.6.36.36,0,0,1,.6.25.34.34,0,0,1-.35.35Z"/><path class="cls-2" d="M31,23.47a.34.34,0,0,1-.35-.35.33.33,0,0,1,.11-.25.35.35,0,0,1,.59.25.39.39,0,0,1-.1.25A.37.37,0,0,1,31,23.47Z"/><path class="cls-2" d="M29,18.47a.35.35,0,0,1-.25-.6.36.36,0,0,1,.6.25.34.34,0,0,1-.35.35Z"/><path class="cls-2" d="M33.75,20a.35.35,0,0,1-.25-.6.36.36,0,0,1,.6.25.34.34,0,0,1-.35.35Z"/><path class="cls-2" d="M31.25,15a.35.35,0,0,1-.25-.6.36.36,0,0,1,.6.25.34.34,0,0,1-.35.35Z"/><path class="cls-2" d="M31.5,12a.35.35,0,0,1-.25-.6.37.37,0,0,1,.5,0,.35.35,0,0,1-.25.6Z"/><path class="cls-2" d="M32,7.22a.35.35,0,0,1-.25-.6.36.36,0,0,1,.6.25.34.34,0,0,1-.35.35Z"/><path class="cls-2" d="M31.75,3.22a.39.39,0,0,1-.25-.1.39.39,0,0,1-.1-.25.33.33,0,0,1,.11-.25.35.35,0,0,1,.59.25.39.39,0,0,1-.1.25A.39.39,0,0,1,31.75,3.22Z"/><path class="cls-2" d="M33.75,1.47a.36.36,0,0,1-.25-.11.33.33,0,0,1-.1-.24.33.33,0,0,1,.11-.25.36.36,0,0,1,.49,0,.36.36,0,0,1,.1.25.34.34,0,0,1-.11.25A.35.35,0,0,1,33.75,1.47Z"/><path class="cls-2" d="M41.25,7.22a.39.39,0,0,1-.25-.1.35.35,0,0,1-.1-.25.39.39,0,0,1,.1-.25.35.35,0,0,1,.49,0,.36.36,0,0,1,.11.25.34.34,0,0,1-.35.35Z"/><path class="cls-2" d="M45.25,7a.39.39,0,0,1-.25-.1.36.36,0,0,1,0-.5.36.36,0,0,1,.6.25.34.34,0,0,1-.35.35Z"/><path class="cls-2" d="M42.25,13.72a.34.34,0,0,1-.35-.35.33.33,0,0,1,.11-.25.35.35,0,0,1,.59.25.34.34,0,0,1-.35.35Z"/><path class="cls-2" d="M46.75,14.47a.34.34,0,0,1-.35-.35.33.33,0,0,1,.11-.25.36.36,0,0,1,.49,0,.39.39,0,0,1,.1.25.33.33,0,0,1-.1.24A.36.36,0,0,1,46.75,14.47Z"/><path class="cls-2" d="M46.75,16.47a.34.34,0,0,1-.35-.35.33.33,0,0,1,.11-.25.36.36,0,0,1,.49,0,.39.39,0,0,1,.1.25.37.37,0,0,1-.1.24A.36.36,0,0,1,46.75,16.47Z"/><path class="cls-2" d="M38.75,21a.35.35,0,0,1-.25-.6.36.36,0,0,1,.49,0,.34.34,0,0,1,.11.25.34.34,0,0,1-.35.35Z"/><path class="cls-2" d="M50,13.72a.39.39,0,0,1-.25-.1.36.36,0,0,1,0-.5.37.37,0,0,1,.5,0,.35.35,0,0,1-.25.6Z"/><path class="cls-2" d="M52,12.22a.36.36,0,0,1-.25-.11.35.35,0,0,1-.1-.24.33.33,0,0,1,.11-.25.37.37,0,0,1,.49,0,.36.36,0,0,1,.1.25.34.34,0,0,1-.35.35Z"/><path class="cls-2" d="M54.5,11.22a.36.36,0,0,1-.25-.11.35.35,0,0,1-.1-.24.33.33,0,0,1,.11-.25.35.35,0,0,1,.59.25.34.34,0,0,1-.35.35Z"/><path class="cls-2" d="M56.25,1A.39.39,0,0,1,56,.87a.39.39,0,0,1-.1-.25A.39.39,0,0,1,56,.37a.36.36,0,0,1,.5,0,.35.35,0,0,1,.1.24.39.39,0,0,1-.1.25A.39.39,0,0,1,56.25,1Z"/><path class="cls-2" d="M67.75,3.22a.39.39,0,0,1-.25-.1.39.39,0,0,1-.1-.25.33.33,0,0,1,.11-.25.37.37,0,0,1,.49,0,.36.36,0,0,1,.1.25.39.39,0,0,1-.1.25A.37.37,0,0,1,67.75,3.22Z"/><path class="cls-2" d="M67.75,10.47a.36.36,0,0,1-.25-.11.35.35,0,0,1-.1-.24.39.39,0,0,1,.1-.25.37.37,0,0,1,.5,0,.39.39,0,0,1,.1.25.34.34,0,0,1-.11.25A.35.35,0,0,1,67.75,10.47Z"/><path class="cls-2" d="M64,12.47a.35.35,0,0,1-.25-.6.36.36,0,0,1,.6.25.34.34,0,0,1-.35.35Z"/><path class="cls-2" d="M65,16a.34.34,0,0,1-.35-.35.37.37,0,0,1,.1-.25.38.38,0,0,1,.5,0A.35.35,0,0,1,65,16Z"/><path class="cls-2" d="M63.75,20a.36.36,0,0,1-.25-.11.35.35,0,0,1-.1-.24.39.39,0,0,1,.1-.25.37.37,0,0,1,.5,0,.39.39,0,0,1,.1.25.34.34,0,0,1-.11.25A.35.35,0,0,1,63.75,20Z"/><path class="cls-2" d="M66,20a.34.34,0,0,1-.35-.35.33.33,0,0,1,.11-.25.37.37,0,0,1,.49,0,.36.36,0,0,1,.1.25A.34.34,0,0,1,66,20Z"/><path class="cls-2" d="M67.75,21.47a.35.35,0,0,1-.25-.6.37.37,0,0,1,.5,0,.35.35,0,0,1-.25.6Z"/><path class="cls-2" d="M6.75,52.47a.35.35,0,0,1-.25-.6.38.38,0,0,1,.5,0,.35.35,0,0,1-.25.6Z"/><path class="cls-2" d="M7,54.72a.35.35,0,0,1-.25-.6.37.37,0,0,1,.5,0,.35.35,0,0,1-.25.6Z"/><path class="cls-2" d="M2,54.72a.39.39,0,0,1-.25-.1.36.36,0,0,1,0-.5.38.38,0,0,1,.5,0,.36.36,0,0,1,0,.5A.39.39,0,0,1,2,54.72Z"/><path class="cls-2" d="M9.5,64.22a.35.35,0,0,1-.25-.6.36.36,0,0,1,.6.25.34.34,0,0,1-.35.35Z"/><path class="cls-2" d="M.75,68.22a.39.39,0,0,1-.25-.1.36.36,0,0,1,0-.5.38.38,0,0,1,.5,0,.36.36,0,0,1,0,.5A.39.39,0,0,1,.75,68.22Z"/><path class="cls-2" d="M10.75,71.22a.35.35,0,0,1-.25-.6.38.38,0,0,1,.5,0,.35.35,0,0,1-.25.6Z"/><path class="cls-2" d="M18,67.47a.34.34,0,0,1-.35-.35.37.37,0,0,1,.1-.25.37.37,0,0,1,.49,0,.36.36,0,0,1,.11.25.34.34,0,0,1-.35.35Z"/><path class="cls-2" d="M16,62.47a.35.35,0,0,1-.25-.6.37.37,0,0,1,.5,0,.35.35,0,0,1-.25.6Z"/><path class="cls-2" d="M19.25,58a.34.34,0,0,1-.35-.35.33.33,0,0,1,.11-.25.37.37,0,0,1,.49,0,.36.36,0,0,1,.1.25.34.34,0,0,1-.35.35Z"/><path class="cls-2" d="M18.5,56a.34.34,0,0,1-.35-.35.33.33,0,0,1,.11-.25.37.37,0,0,1,.49,0,.36.36,0,0,1,.1.25.34.34,0,0,1-.35.35Z"/><path class="cls-2" d="M16,55a.34.34,0,0,1-.35-.35.33.33,0,0,1,.11-.25.37.37,0,0,1,.49,0,.36.36,0,0,1,.1.25A.34.34,0,0,1,16,55Z"/><path class="cls-2" d="M19,51.22a.34.34,0,0,1-.35-.35.33.33,0,0,1,.11-.25.37.37,0,0,1,.49,0,.36.36,0,0,1,.1.25.34.34,0,0,1-.35.35Z"/><path class="cls-2" d="M18.75,47.22a.35.35,0,0,1-.25-.6.38.38,0,0,1,.5,0,.35.35,0,0,1-.25.6Z"/><path class="cls-2" d="M16,47.47a.35.35,0,0,1-.25-.6.37.37,0,0,1,.5,0,.35.35,0,0,1-.25.6Z"/><path class="cls-2" d="M32.25,51a.34.34,0,0,1-.35-.35.33.33,0,0,1,.11-.25.35.35,0,0,1,.59.25.34.34,0,0,1-.35.35Z"/><path class="cls-2" d="M27,54.47a.35.35,0,0,1-.25-.6.37.37,0,0,1,.5,0,.35.35,0,0,1-.25.6Z"/><path class="cls-2" d="M31.75,56a.35.35,0,0,1-.25-.6.37.37,0,0,1,.5,0,.35.35,0,0,1-.25.6Z"/><path class="cls-2" d="M31.75,57.72a.35.35,0,0,1-.24-.1.35.35,0,0,1,0-.5.37.37,0,0,1,.5,0,.36.36,0,0,1,.1.25.34.34,0,0,1-.35.35Z"/><path class="cls-2" d="M33.75,58.47a.35.35,0,0,1-.25-.6.37.37,0,0,1,.5,0,.35.35,0,0,1-.25.6Z"/><path class="cls-2" d="M25.75,65a.35.35,0,0,1-.25-.6.36.36,0,0,1,.6.25.34.34,0,0,1-.35.35Z"/><path class="cls-2" d="M35.75,56.47a.35.35,0,0,1-.25-.6.36.36,0,0,1,.6.25.34.34,0,0,1-.35.35Z"/><path class="cls-2" d="M39,56.22a.35.35,0,0,1-.24-.1.36.36,0,0,1-.11-.25.39.39,0,0,1,.1-.25.37.37,0,0,1,.5,0,.35.35,0,0,1-.25.6Z"/><path class="cls-2" d="M41.5,51a.35.35,0,0,1-.25-.6.37.37,0,0,1,.5,0,.35.35,0,0,1-.25.6Z"/><path class="cls-2" d="M43.25,45a.36.36,0,0,1-.25-.11.35.35,0,0,1-.1-.24.39.39,0,0,1,.1-.25.37.37,0,0,1,.5,0,.35.35,0,0,1-.25.6Z"/><path class="cls-2" d="M50.75,50.72a.39.39,0,0,1-.25-.1.36.36,0,0,1-.1-.25.39.39,0,0,1,.1-.25.36.36,0,0,1,.5,0,.35.35,0,0,1-.25.6Z"/><path class="cls-2" d="M51.75,46.72a.36.36,0,0,1-.25-.11.35.35,0,0,1-.1-.24.33.33,0,0,1,.11-.25.37.37,0,0,1,.49,0,.36.36,0,0,1,.1.25.34.34,0,0,1-.35.35Z"/><path class="cls-2" d="M54.75,47.22a.33.33,0,0,1-.25-.11.35.35,0,0,1-.1-.24.37.37,0,0,1,.1-.25.36.36,0,0,1,.49,0,.34.34,0,0,1,.11.25.34.34,0,0,1-.35.35Z"/><path class="cls-2" d="M54.75,54.47a.33.33,0,0,1-.25-.11.35.35,0,0,1-.1-.24.33.33,0,0,1,.11-.25.37.37,0,0,1,.49,0,.36.36,0,0,1,.1.25.34.34,0,0,1-.35.35Z"/><path class="cls-2" d="M51,56.47a.35.35,0,0,1-.25-.6.37.37,0,0,1,.5,0,.35.35,0,0,1,.1.25.39.39,0,0,1-.1.25A.37.37,0,0,1,51,56.47Z"/><path class="cls-2" d="M50.75,64a.34.34,0,0,1-.35-.35.31.31,0,0,1,.1-.24.34.34,0,0,1,.49,0,.36.36,0,0,1,.11.25.39.39,0,0,1-.1.25A.37.37,0,0,1,50.75,64Z"/><path class="cls-2" d="M53,64a.34.34,0,0,1-.35-.35.33.33,0,0,1,.11-.25.36.36,0,0,1,.49,0,.31.31,0,0,1,.1.24A.34.34,0,0,1,53,64Z"/><path class="cls-2" d="M55.75,63.22a.35.35,0,0,1-.25-.6.36.36,0,0,1,.6.25.34.34,0,0,1-.35.35Z"/><path class="cls-2" d="M58,61.72a.36.36,0,0,1-.25-.11.35.35,0,0,1-.1-.24.39.39,0,0,1,.1-.25.37.37,0,0,1,.5,0,.37.37,0,0,1,.1.25.34.34,0,0,1-.35.35Z"/><path class="cls-2" d="M20.75,27.22a.35.35,0,0,1-.25-.6.36.36,0,0,1,.6.25.34.34,0,0,1-.35.35Z"/><path class="cls-2" d="M22.5,24.22a.35.35,0,0,1-.25-.6.37.37,0,0,1,.5,0,.35.35,0,0,1-.25.6Z"/><path class="cls-2" d="M38.75,25a.35.35,0,0,1-.25-.6.37.37,0,0,1,.5,0,.35.35,0,0,1-.25.6Z"/><path class="cls-2" d="M46,29.22a.39.39,0,0,1-.25-.1.35.35,0,0,1,0-.49.34.34,0,0,1,.49,0,.36.36,0,0,1,.11.25.34.34,0,0,1-.35.35Z"/><path class="cls-2" d="M55,28.22a.35.35,0,0,1-.25-.6.37.37,0,0,1,.5,0,.35.35,0,0,1-.25.6Z"/><path class="cls-2" d="M51,25.47a.35.35,0,0,1-.25-.6.37.37,0,0,1,.5,0,.35.35,0,0,1,.1.25.34.34,0,0,1-.35.35Z"/><path class="cls-2" d="M51.75,29.72a.37.37,0,0,1-.25-.1.36.36,0,0,1,0-.5.36.36,0,0,1,.6.25.34.34,0,0,1-.35.35Z"/><path class="cls-2" d="M62.25,35.72a.34.34,0,0,1-.35-.35.33.33,0,0,1,.11-.25.36.36,0,0,1,.49,0,.31.31,0,0,1,.1.24.34.34,0,0,1-.35.35Z"/><path class="cls-2" d="M56.5,39.22a.35.35,0,0,1-.25-.6.36.36,0,0,1,.6.25.34.34,0,0,1-.35.35Z"/><path class="cls-2" d="M48,37.47a.35.35,0,0,1-.24-.1.36.36,0,0,1-.11-.25.39.39,0,0,1,.1-.25.36.36,0,0,1,.5,0,.33.33,0,0,1,.1.24.34.34,0,0,1-.35.35Z"/><path class="cls-2" d="M47.75,41.47a.33.33,0,0,1-.25-.11.35.35,0,0,1-.1-.24.39.39,0,0,1,.1-.25.38.38,0,0,1,.5,0,.35.35,0,0,1-.25.6Z"/><path class="cls-2" d="M53.25,45.22a.34.34,0,0,1-.25-.11.31.31,0,0,1-.1-.24.34.34,0,0,1,.11-.25.37.37,0,0,1,.49,0,.35.35,0,0,1-.25.6Z"/><path class="cls-2" d="M62,48.22a.34.34,0,0,1-.35-.35.33.33,0,0,1,.11-.25.36.36,0,0,1,.49,0,.31.31,0,0,1,.1.24.34.34,0,0,1-.35.35Z"/><path class="cls-2" d="M64.75,52a.34.34,0,0,1-.35-.35.33.33,0,0,1,.11-.25.37.37,0,0,1,.49,0,.36.36,0,0,1,.1.25.34.34,0,0,1-.35.35Z"/><path class="cls-2" d="M69.25,45.22a.35.35,0,0,1-.25-.6.37.37,0,0,1,.5,0,.35.35,0,0,1-.25.6Z"/><path class="cls-2" d="M59.75,39.22a.33.33,0,0,1-.25-.11.35.35,0,0,1-.1-.24.34.34,0,0,1,.11-.25.36.36,0,0,1,.49,0,.36.36,0,0,1,0,.5A.37.37,0,0,1,59.75,39.22Z"/><path class="cls-2" d="M32.25,47.22a.35.35,0,0,1-.25-.6.36.36,0,0,1,.6.25.34.34,0,0,1-.35.35Z"/><path class="cls-2" d="M26,38a.35.35,0,0,1-.25-.6.36.36,0,0,1,.6.25A.34.34,0,0,1,26,38Z"/><path class="cls-2" d="M29.5,35.72a.35.35,0,0,1-.24-.1.36.36,0,0,1-.11-.25.33.33,0,0,1,.11-.25.37.37,0,0,1,.49,0,.36.36,0,0,1,.1.25.34.34,0,0,1-.35.35Z"/><path class="cls-2" d="M10.25,29.72a.35.35,0,0,1-.25-.6.37.37,0,0,1,.49,0,.33.33,0,0,1,.11.25.34.34,0,0,1-.35.35Z"/><path class="cls-2" d="M5.75,31.72a.35.35,0,0,1-.25-.6.36.36,0,0,1,.49,0,.33.33,0,0,1,.11.25.37.37,0,0,1-.1.25A.39.39,0,0,1,5.75,31.72Z"/><path class="cls-2" d="M2.25,35.47a.39.39,0,0,1-.25-.1.36.36,0,0,1,0-.5.37.37,0,0,1,.5,0,.35.35,0,0,1,.1.25.33.33,0,0,1-.1.24A.36.36,0,0,1,2.25,35.47Z"/><path class="cls-2" d="M16.75,42.22a.34.34,0,0,1-.35-.35.33.33,0,0,1,.11-.25.35.35,0,0,1,.59.25.39.39,0,0,1-.1.25A.37.37,0,0,1,16.75,42.22Z"/><path class="cls-2" d="M12.5,36.22a.34.34,0,0,1-.35-.35.33.33,0,0,1,.11-.25.37.37,0,0,1,.49,0,.36.36,0,0,1,.1.25.39.39,0,0,1-.1.25A.37.37,0,0,1,12.5,36.22Z"/><path class="cls-2" d="M26.25,30.47a.35.35,0,0,1-.25-.6.37.37,0,0,1,.5,0,.35.35,0,0,1-.25.6Z"/><path class="cls-2" d="M39,31a.35.35,0,0,1-.25-.6.37.37,0,0,1,.5,0,.36.36,0,0,1,0,.5A.37.37,0,0,1,39,31Z"/><path class="cls-2" d="M38,33a.35.35,0,0,1-.25-.6.37.37,0,0,1,.5,0A.35.35,0,0,1,38,33Z"/><path class="cls-2" d="M27.75,42.22a.35.35,0,0,1-.25-.6.37.37,0,0,1,.5,0,.35.35,0,0,1-.25.6Z"/><path class="cls-2" d="M6.25,20.72a.35.35,0,0,1-.25-.6.37.37,0,0,1,.5,0,.35.35,0,0,1-.25.6Z"/><path class="cls-2" d="M9.5,19a.35.35,0,0,1-.25-.6.36.36,0,0,1,.6.25A.34.34,0,0,1,9.5,19Z"/><path class="cls-2" d="M11.5,23.72a.34.34,0,0,1-.35-.35.33.33,0,0,1,.11-.25.37.37,0,0,1,.49,0,.36.36,0,0,1,.1.25.39.39,0,0,1-.1.25A.37.37,0,0,1,11.5,23.72Z"/><path class="cls-2" d="M2.75,26a.39.39,0,0,1-.25-.1.36.36,0,0,1,0-.5.38.38,0,0,1,.5,0,.36.36,0,0,1,0,.5A.39.39,0,0,1,2.75,26Z"/><path class="cls-2" d="M64,29.72a.35.35,0,0,1-.24-.1.36.36,0,0,1-.11-.25.39.39,0,0,1,.1-.25.36.36,0,0,1,.6.25.34.34,0,0,1-.35.35Z"/><path class="cls-2" d="M69.25,30a.34.34,0,0,1-.35-.35.34.34,0,0,1,.11-.25.37.37,0,0,1,.49,0,.36.36,0,0,1,.1.25.39.39,0,0,1-.1.25A.37.37,0,0,1,69.25,30Z"/><path class="cls-2" d="M1.25,9.22A.39.39,0,0,1,1,9.12a.36.36,0,0,1,0-.5.38.38,0,0,1,.5,0,.36.36,0,0,1,0,.5A.39.39,0,0,1,1.25,9.22Z"/><path class="cls-2" d="M16.25,6.22a.34.34,0,0,1-.35-.35.37.37,0,0,1,.1-.25.38.38,0,0,1,.5,0,.35.35,0,0,1-.25.6Z"/><path class="cls-2" d="M3.5,6.22a.35.35,0,0,1-.25-.6.36.36,0,0,1,.6.25.34.34,0,0,1-.35.35Z"/><path class="cls-2" d="M12.5,14.47a.35.35,0,0,1-.25-.6.36.36,0,0,1,.6.25.34.34,0,0,1-.35.35Z"/><path class="cls-2" d="M18.25,19.47a.34.34,0,0,1-.35-.35.37.37,0,0,1,.1-.25.36.36,0,0,1,.6.25.34.34,0,0,1-.35.35Z"/><path class="cls-2" d="M21,37.22a.34.34,0,0,1-.35-.35.37.37,0,0,1,.1-.25.37.37,0,0,1,.49,0,.36.36,0,0,1,.11.25.34.34,0,0,1-.35.35Z"/><path class="cls-2" d="M.5,44.47a.39.39,0,0,1-.25-.1.39.39,0,0,1-.1-.25.33.33,0,0,1,.11-.25.37.37,0,0,1,.49,0,.36.36,0,0,1,.1.25.39.39,0,0,1-.1.25A.39.39,0,0,1,.5,44.47Z"/><path class="cls-2" d="M67.75,66.22a.34.34,0,0,1-.35-.35.33.33,0,0,1,.11-.25.37.37,0,0,1,.49,0,.36.36,0,0,1,.1.25.34.34,0,0,1-.35.35Z"/><path class="cls-2" d="M59.5,70a.39.39,0,0,1-.25-.1.35.35,0,0,1-.1-.25.39.39,0,0,1,.1-.25.37.37,0,0,1,.5,0,.36.36,0,0,1,.1.25.37.37,0,0,1-.1.25A.39.39,0,0,1,59.5,70Z"/><path class="cls-2" d="M40.25,68.22a.35.35,0,0,1-.25-.6.37.37,0,0,1,.5,0,.36.36,0,0,1,0,.5A.37.37,0,0,1,40.25,68.22Z"/><path class="cls-2" d="M4.25,60.22a.35.35,0,0,1-.25-.6.36.36,0,0,1,.6.25.34.34,0,0,1-.35.35Z"/><path class="cls-2" d="M26.25,59.72a.35.35,0,0,1-.25-.6.36.36,0,0,1,.6.25.34.34,0,0,1-.35.35Z"/><path class="cls-2" d="M37,48.72a.34.34,0,0,1-.35-.35.37.37,0,0,1,.1-.25.37.37,0,0,1,.5,0,.36.36,0,0,1,0,.5A.37.37,0,0,1,37,48.72Z"/><path class="cls-2" d="M8.5,40.47a.35.35,0,0,1-.25-.6.36.36,0,0,1,.6.25.34.34,0,0,1-.35.35Z"/><path class="cls-2" d="M52,38.22a.36.36,0,0,1-.25-.11.35.35,0,0,1-.1-.24.33.33,0,0,1,.11-.25.37.37,0,0,1,.49,0,.36.36,0,0,1,.1.25.34.34,0,0,1-.35.35Z"/><path class="cls-2" d="M60.5,46.22a.34.34,0,0,1-.35-.35.33.33,0,0,1,.11-.25.37.37,0,0,1,.49,0,.36.36,0,0,1,.1.25.34.34,0,0,1-.35.35Z"/><path class="cls-2" d="M51,66.47a.35.35,0,0,1-.25-.6.37.37,0,0,1,.5,0,.39.39,0,0,1,.1.25.35.35,0,0,1-.1.25A.39.39,0,0,1,51,66.47Z"/><path class="cls-2" d="M39.75,38a.35.35,0,0,1-.25-.6.36.36,0,0,1,.6.25.34.34,0,0,1-.35.35Z"/><path class="cls-2" d="M27.25,13.72a.35.35,0,0,1-.25-.6.36.36,0,0,1,.6.25.34.34,0,0,1-.35.35Z"/><path class="cls-2" d="M19.5,26.72a.34.34,0,0,1-.35-.35.37.37,0,0,1,.1-.25.37.37,0,0,1,.49,0,.36.36,0,0,1,.11.25.34.34,0,0,1-.35.35Z"/><path class="cls-2" d="M11.5,2a.39.39,0,0,1-.25-.1.39.39,0,0,1-.1-.25.39.39,0,0,1,.1-.25.38.38,0,0,1,.5,0,.39.39,0,0,1,.1.25.39.39,0,0,1-.1.25A.39.39,0,0,1,11.5,2Z"/><path class="cls-2" d="M55,4a.34.34,0,0,1-.35-.35.33.33,0,0,1,.11-.25.37.37,0,0,1,.49,0,.36.36,0,0,1,.1.25A.34.34,0,0,1,55,4Z"/><path class="cls-2" d="M47,70a.39.39,0,0,1-.25-.1.37.37,0,0,1-.1-.25.39.39,0,0,1,.1-.25.36.36,0,0,1,.6.25A.34.34,0,0,1,47,70Z"/><path class="cls-2" d="M4.5,40.47a.34.34,0,0,1-.35-.35.33.33,0,0,1,.11-.25.37.37,0,0,1,.49,0,.36.36,0,0,1,.1.25.34.34,0,0,1-.35.35Z"/><path class="cls-2" d="M68.5,13.47a.35.35,0,0,1-.25-.6.37.37,0,0,1,.5,0,.36.36,0,0,1,0,.5A.39.39,0,0,1,68.5,13.47Z"/><path class="cls-2" d="M23,14.22a.35.35,0,0,1-.25-.6.36.36,0,0,1,.6.25.34.34,0,0,1-.35.35Z"/><path class="cls-2" d="M20.25,17.47a.35.35,0,0,1-.25-.6.37.37,0,0,1,.5,0,.35.35,0,0,1-.25.6Z"/><path class="cls-2" d="M14.5,17.47a.34.34,0,0,1-.35-.35.33.33,0,0,1,.11-.25.37.37,0,0,1,.49,0,.36.36,0,0,1,.1.25.34.34,0,0,1-.35.35Z"/><path class="cls-2" d="M5.75,12a.35.35,0,0,1-.25-.6.36.36,0,0,1,.49,0,.33.33,0,0,1,.11.25.34.34,0,0,1-.35.35Z"/><path class="cls-2" d="M6.75,3a.37.37,0,0,1-.24-.1.36.36,0,0,1-.11-.25.39.39,0,0,1,.1-.25.36.36,0,0,1,.6.25.39.39,0,0,1-.1.25A.39.39,0,0,1,6.75,3Z"/><path class="cls-2" d="M9.75,8.47a.35.35,0,0,1-.25-.6.36.36,0,0,1,.6.25.34.34,0,0,1-.35.35Z"/><path class="cls-2" d="M14,8.47a.34.34,0,0,1-.35-.35.33.33,0,0,1,.11-.25.37.37,0,0,1,.49,0,.36.36,0,0,1,.1.25.34.34,0,0,1-.35.35Z"/><path class="cls-2" d="M25.5,7.22a.35.35,0,0,1-.25-.6.36.36,0,0,1,.6.25.34.34,0,0,1-.35.35Z"/><path class="cls-2" d="M36.75,7.72a.35.35,0,0,1-.25-.6.37.37,0,0,1,.5,0,.35.35,0,0,1-.25.6Z"/><path class="cls-2" d="M37.25,4.47a.34.34,0,0,1-.35-.35A.33.33,0,0,1,37,3.87a.35.35,0,0,1,.59.25.34.34,0,0,1-.35.35Z"/><path class="cls-2" d="M43,2.47a.39.39,0,0,1-.25-.1.39.39,0,0,1-.1-.25.39.39,0,0,1,.1-.25.37.37,0,0,1,.5,0,.39.39,0,0,1,.1.25.39.39,0,0,1-.1.25A.42.42,0,0,1,43,2.47Z"/><path class="cls-2" d="M49.25,8.47a.39.39,0,0,1-.25-.1.36.36,0,0,1,0-.5.37.37,0,0,1,.5,0,.35.35,0,0,1-.25.6Z"/><path class="cls-2" d="M45.75,9.47a.35.35,0,0,1-.25-.6.37.37,0,0,1,.5,0,.36.36,0,0,1,0,.5A.37.37,0,0,1,45.75,9.47Z"/><path class="cls-2" d="M35.5,11.22a.34.34,0,0,1-.35-.35.37.37,0,0,1,.1-.25.36.36,0,0,1,.6.25.34.34,0,0,1-.35.35Z"/><path class="cls-2" d="M39,15.22a.35.35,0,0,1-.25-.6.36.36,0,0,1,.6.25.34.34,0,0,1-.35.35Z"/><path class="cls-2" d="M24.5,18.22a.35.35,0,0,1-.25-.6.36.36,0,0,1,.6.25.34.34,0,0,1-.35.35Z"/><path class="cls-2" d="M8,27.47a.35.35,0,0,1-.25-.6.36.36,0,0,1,.6.25.34.34,0,0,1-.35.35Z"/><path class="cls-2" d="M15.75,32a.35.35,0,0,1-.25-.6.38.38,0,0,1,.5,0,.35.35,0,0,1-.25.6Z"/><path class="cls-2" d="M10.25,33.72a.34.34,0,0,1-.35-.35.33.33,0,0,1,.11-.25.37.37,0,0,1,.49,0,.36.36,0,0,1,.1.25.37.37,0,0,1-.1.25A.39.39,0,0,1,10.25,33.72Z"/><path class="cls-2" d="M5,37.22a.35.35,0,0,1-.25-.6.38.38,0,0,1,.5,0,.37.37,0,0,1,.1.25.34.34,0,0,1-.35.35Z"/><path class="cls-2" d="M3,20.72a.39.39,0,0,1-.25-.1.36.36,0,0,1,0-.5.38.38,0,0,1,.5,0,.36.36,0,0,1,0,.5A.39.39,0,0,1,3,20.72Z"/><path class="cls-2" d="M20.25,31a.34.34,0,0,1-.35-.35.33.33,0,0,1,.11-.25.35.35,0,0,1,.59.25.34.34,0,0,1-.35.35Z"/><path class="cls-2" d="M17.25,35.72a.35.35,0,0,1-.25-.6.37.37,0,0,1,.5,0,.35.35,0,0,1-.25.6Z"/><path class="cls-2" d="M15.75,39.22a.34.34,0,0,1-.35-.35.33.33,0,0,1,.11-.25.37.37,0,0,1,.49,0,.36.36,0,0,1,.1.25.39.39,0,0,1-.1.25A.37.37,0,0,1,15.75,39.22Z"/><path class="cls-2" d="M12.5,41.47a.34.34,0,0,1-.35-.35.33.33,0,0,1,.11-.25.37.37,0,0,1,.49,0,.36.36,0,0,1,.1.25.34.34,0,0,1-.35.35Z"/><path class="cls-2" d="M12.5,46.72a.34.34,0,0,1-.35-.35.33.33,0,0,1,.11-.25.37.37,0,0,1,.49,0,.36.36,0,0,1,.1.25.34.34,0,0,1-.35.35Z"/><path class="cls-2" d="M5.5,48.72a.35.35,0,0,1-.25-.6.38.38,0,0,1,.5,0,.35.35,0,0,1-.25.6Z"/><path class="cls-2" d="M10.75,54.72a.35.35,0,0,1-.25-.6.38.38,0,0,1,.5,0,.35.35,0,0,1-.25.6Z"/><path class="cls-2" d="M15.25,58.72a.35.35,0,0,1-.25-.6.37.37,0,0,1,.5,0,.35.35,0,0,1-.25.6Z"/><path class="cls-2" d="M5.75,63.72a.35.35,0,0,1-.25-.6.38.38,0,0,1,.5,0,.36.36,0,0,1,.1.25.34.34,0,0,1-.35.35Z"/><path class="cls-2" d="M2,62.22a.39.39,0,0,1-.25-.1.36.36,0,0,1,0-.5.37.37,0,0,1,.49,0,.34.34,0,0,1,.11.25.39.39,0,0,1-.1.25A.39.39,0,0,1,2,62.22Z"/><path class="cls-2" d="M8.75,68.22a.35.35,0,0,1-.25-.6.36.36,0,0,1,.6.25.39.39,0,0,1-.1.25A.37.37,0,0,1,8.75,68.22Z"/><path class="cls-2" d="M13.25,69.72a.35.35,0,0,1-.25-.6.38.38,0,0,1,.5,0,.35.35,0,0,1-.25.6Z"/><path class="cls-2" d="M21.25,68.72a.34.34,0,0,1-.35-.35.33.33,0,0,1,.11-.25.35.35,0,0,1,.59.25.34.34,0,0,1-.35.35Z"/><path class="cls-2" d="M22.75,66a.35.35,0,0,1-.25-.6.37.37,0,0,1,.5,0,.36.36,0,0,1,0,.5A.37.37,0,0,1,22.75,66Z"/><path class="cls-2" d="M22,60.22a.35.35,0,0,1-.25-.6.38.38,0,0,1,.5,0,.36.36,0,0,1,0,.5A.37.37,0,0,1,22,60.22Z"/><path class="cls-2" d="M24,57.72a.34.34,0,0,1-.35-.35.37.37,0,0,1,.1-.25.38.38,0,0,1,.5,0,.37.37,0,0,1,.1.25.39.39,0,0,1-.1.25A.37.37,0,0,1,24,57.72Z"/><path class="cls-2" d="M26,48a.35.35,0,0,1-.25-.6.37.37,0,0,1,.5,0A.35.35,0,0,1,26,48Z"/><path class="cls-2" d="M25.5,43.72a.35.35,0,0,1-.25-.6.37.37,0,0,1,.5,0,.35.35,0,0,1-.25.6Z"/><path class="cls-2" d="M32,31.22a.34.34,0,0,1-.35-.35.33.33,0,0,1,.11-.25.35.35,0,0,1,.59.25.34.34,0,0,1-.35.35Z"/><path class="cls-2" d="M34,28a.34.34,0,0,1-.35-.35.35.35,0,0,1,.1-.25.37.37,0,0,1,.5,0,.36.36,0,0,1,0,.5A.37.37,0,0,1,34,28Z"/><path class="cls-2" d="M41.5,26a.35.35,0,0,1-.25-.6.37.37,0,0,1,.5,0,.35.35,0,0,1-.25.6Z"/><path class="cls-2" d="M42.75,21a.36.36,0,0,1-.25-.11.33.33,0,0,1-.1-.24.39.39,0,0,1,.1-.25.37.37,0,0,1,.5,0,.39.39,0,0,1,.1.25.34.34,0,0,1-.11.25A.35.35,0,0,1,42.75,21Z"/><path class="cls-2" d="M36.25,19.47a.39.39,0,0,1-.25-.1.36.36,0,0,1-.1-.25.31.31,0,0,1,.1-.24.35.35,0,0,1,.5,0,.35.35,0,0,1-.25.6Z"/><path class="cls-2" d="M27.5,22.47a.35.35,0,0,1-.25-.6.37.37,0,0,1,.5,0,.35.35,0,0,1-.25.6Z"/><path class="cls-2" d="M51.75,22.22a.33.33,0,0,1-.25-.11.35.35,0,0,1-.1-.24.39.39,0,0,1,.1-.25.36.36,0,0,1,.6.25.39.39,0,0,1-.1.25A.37.37,0,0,1,51.75,22.22Z"/><path class="cls-2" d="M43,18a.37.37,0,0,1-.25-.1.36.36,0,0,1,0-.5.38.38,0,0,1,.5,0A.35.35,0,0,1,43,18Z"/><path class="cls-2" d="M50.25,18.22a.37.37,0,0,1-.25-.1.36.36,0,0,1,0-.5.36.36,0,0,1,.6.25.34.34,0,0,1-.35.35Z"/><path class="cls-2" d="M59.25,17.47a.34.34,0,0,1-.35-.35.33.33,0,0,1,.11-.25.37.37,0,0,1,.49,0,.36.36,0,0,1,.1.25.34.34,0,0,1-.35.35Z"/><path class="cls-2" d="M58,14.22a.37.37,0,0,1-.25-.1.36.36,0,0,1,0-.5.36.36,0,0,1,.6.25.34.34,0,0,1-.35.35Z"/><path class="cls-2" d="M61.25,11.22a.34.34,0,0,1-.35-.35.33.33,0,0,1,.11-.25.36.36,0,0,1,.49,0,.31.31,0,0,1,.1.24.34.34,0,0,1-.35.35Z"/><path class="cls-2" d="M58.5,7.72a.39.39,0,0,1-.25-.1.35.35,0,0,1-.1-.25.31.31,0,0,1,.1-.24.35.35,0,0,1,.6.24.34.34,0,0,1-.35.35Z"/><path class="cls-2" d="M59.75,5a.34.34,0,0,1-.25-.11.35.35,0,0,1-.1-.24.33.33,0,0,1,.11-.25.37.37,0,0,1,.49,0,.36.36,0,0,1,.1.25.34.34,0,0,1-.35.35Z"/><path class="cls-2" d="M67.25,6.22a.39.39,0,0,1-.25-.1.36.36,0,0,1-.1-.25.37.37,0,0,1,.1-.25.38.38,0,0,1,.5,0,.35.35,0,0,1-.25.6Z"/><path class="cls-2" d="M70.5,8.72a.39.39,0,0,1-.25-.1.36.36,0,0,1-.1-.25.37.37,0,0,1,.1-.25.37.37,0,0,1,.49,0,.36.36,0,0,1,.11.25.34.34,0,0,1-.35.35Z"/><path class="cls-2" d="M65.5,10a.34.34,0,0,1-.35-.35.37.37,0,0,1,.1-.25.38.38,0,0,1,.5,0,.35.35,0,0,1-.25.6Z"/><path class="cls-2" d="M60,24a.35.35,0,0,1-.25-.6.37.37,0,0,1,.5,0A.35.35,0,0,1,60,24Z"/><path class="cls-2" d="M55.25,24a.35.35,0,0,1-.25-.6.38.38,0,0,1,.5,0,.35.35,0,0,1-.25.6Z"/><path class="cls-2" d="M55.25,19a.34.34,0,0,1-.25-.11.35.35,0,0,1-.1-.24.33.33,0,0,1,.11-.25.37.37,0,0,1,.49,0,.36.36,0,0,1,.1.25.34.34,0,0,1-.35.35Z"/><path class="cls-2" d="M64.75,26a.34.34,0,0,1-.35-.35.33.33,0,0,1,.11-.25.37.37,0,0,1,.49,0,.36.36,0,0,1,.1.25.34.34,0,0,1-.35.35Z"/><path class="cls-2" d="M57.5,31a.33.33,0,0,1-.25-.11.35.35,0,0,1-.1-.24.33.33,0,0,1,.11-.25.37.37,0,0,1,.49,0,.36.36,0,0,1,.1.25.34.34,0,0,1-.35.35Z"/><path class="cls-2" d="M52.5,33a.36.36,0,0,1-.25-.11.35.35,0,0,1-.1-.24.33.33,0,0,1,.11-.25.37.37,0,0,1,.49,0,.36.36,0,0,1,.1.25.34.34,0,0,1-.35.35Z"/><path class="cls-2" d="M47.25,34a.36.36,0,0,1-.25-.11.35.35,0,0,1-.1-.24.33.33,0,0,1,.11-.25.37.37,0,0,1,.49,0,.36.36,0,0,1,.1.25.34.34,0,0,1-.35.35Z"/><path class="cls-2" d="M44,39.47a.36.36,0,0,1-.25-.11.35.35,0,0,1-.1-.24.39.39,0,0,1,.1-.25.37.37,0,0,1,.5,0,.37.37,0,0,1,.1.25.33.33,0,0,1-.11.25A.35.35,0,0,1,44,39.47Z"/><path class="cls-2" d="M33.75,41.72a.35.35,0,0,1-.25-.6.37.37,0,0,1,.5,0,.35.35,0,0,1-.25.6Z"/><path class="cls-2" d="M40.5,48.22a.35.35,0,0,1-.25-.6.36.36,0,0,1,.49,0,.34.34,0,0,1,.11.25.34.34,0,0,1-.35.35Z"/><path class="cls-2" d="M45.5,52.47a.34.34,0,0,1-.35-.35.33.33,0,0,1,.11-.25.35.35,0,0,1,.59.25.34.34,0,0,1-.35.35Z"/><path class="cls-2" d="M46.25,57a.35.35,0,0,1-.25-.6.35.35,0,0,1,.49,0,.36.36,0,0,1,.11.25.34.34,0,0,1-.35.35Z"/><path class="cls-2" d="M41.75,59.72a.35.35,0,0,1-.24-.1.36.36,0,0,1-.11-.25.39.39,0,0,1,.1-.25.37.37,0,0,1,.5,0,.35.35,0,0,1-.25.6Z"/><path class="cls-2" d="M39.75,63a.35.35,0,0,1-.25-.6.37.37,0,0,1,.5,0,.36.36,0,0,1,0,.5A.37.37,0,0,1,39.75,63Z"/><path class="cls-2" d="M35.75,63a.34.34,0,0,1-.35-.35.33.33,0,0,1,.11-.25.35.35,0,0,1,.59.25.34.34,0,0,1-.35.35Z"/><path class="cls-2" d="M36.25,53a.39.39,0,0,1-.25-.1.35.35,0,0,1-.1-.25.39.39,0,0,1,.1-.25.36.36,0,0,1,.5,0,.31.31,0,0,1,.1.24.34.34,0,0,1-.35.35Z"/><path class="cls-2" d="M29.75,63.72a.35.35,0,0,1-.24-.1.36.36,0,0,1-.11-.25.33.33,0,0,1,.11-.25.37.37,0,0,1,.49,0,.36.36,0,0,1,.1.25.34.34,0,0,1-.35.35Z"/><path class="cls-2" d="M31.25,68.72a.35.35,0,0,1-.25-.6.37.37,0,0,1,.5,0,.35.35,0,0,1-.25.6Z"/><path class="cls-2" d="M36.75,71.22a.39.39,0,0,1-.25-.1.37.37,0,0,1-.1-.25.33.33,0,0,1,.11-.25.37.37,0,0,1,.49,0,.36.36,0,0,1,.1.25.37.37,0,0,1-.1.25A.39.39,0,0,1,36.75,71.22Z"/><path class="cls-2" d="M62.75,57.22a.34.34,0,0,1-.35-.35.33.33,0,0,1,.11-.25.37.37,0,0,1,.49,0,.36.36,0,0,1,.1.25.34.34,0,0,1-.35.35Z"/><path class="cls-2" d="M59.75,51a.33.33,0,0,1-.25-.11.35.35,0,0,1-.1-.24.35.35,0,0,1,.59-.25.36.36,0,0,1,.11.25.39.39,0,0,1-.1.25A.37.37,0,0,1,59.75,51Z"/><path class="cls-2" d="M54.25,50.72a.39.39,0,0,1-.25-.1.37.37,0,0,1-.1-.25.35.35,0,0,1,.7,0,.35.35,0,0,1-.1.24A.34.34,0,0,1,54.25,50.72Z"/><path class="cls-2" d="M54.5,42a.36.36,0,0,1-.25-.11.33.33,0,0,1-.1-.24.39.39,0,0,1,.1-.25.37.37,0,0,1,.5,0,.39.39,0,0,1,.1.25.34.34,0,0,1-.11.25A.35.35,0,0,1,54.5,42Z"/><path class="cls-2" d="M62.25,42.47a.35.35,0,0,1-.25-.6.37.37,0,0,1,.5,0,.35.35,0,0,1-.25.6Z"/><path class="cls-2" d="M66.75,47.72a.35.35,0,0,1-.24-.1.36.36,0,0,1-.11-.25.39.39,0,0,1,.1-.25.36.36,0,0,1,.49,0,.32.32,0,0,1,.11.25.34.34,0,0,1-.35.35Z"/><path class="cls-2" d="M69.25,54.47a.35.35,0,0,1-.24-.1.36.36,0,0,1-.11-.25.39.39,0,0,1,.1-.25.36.36,0,0,1,.6.25.34.34,0,0,1-.35.35Z"/><path class="cls-2" d="M63.25,62a.35.35,0,0,1-.24-.1.36.36,0,0,1-.11-.25.39.39,0,0,1,.1-.25.36.36,0,0,1,.49,0,.32.32,0,0,1,.11.25.34.34,0,0,1-.35.35Z"/><path class="cls-2" d="M70,61.22a.34.34,0,0,1-.35-.35.33.33,0,0,1,.11-.25.37.37,0,0,1,.49,0,.36.36,0,0,1,.1.25.34.34,0,0,1-.35.35Z"/><path class="cls-2" d="M64.5,65.72a.35.35,0,0,1-.25-.6.36.36,0,0,1,.5,0,.35.35,0,0,1,.1.24.34.34,0,0,1-.35.35Z"/><path class="cls-2" d="M65.5,68.47a.35.35,0,0,1-.25-.6.37.37,0,0,1,.5,0,.35.35,0,0,1-.25.6Z"/><path class="cls-2" d="M62.25,70.47a.34.34,0,0,1-.35-.35.34.34,0,0,1,.11-.25.36.36,0,0,1,.49,0,.31.31,0,0,1,.1.24.34.34,0,0,1-.35.35Z"/><path class="cls-2" d="M52.5,70a.36.36,0,0,1-.25-.1.36.36,0,0,1,0-.5.36.36,0,0,1,.6.25.39.39,0,0,1-.1.25A.37.37,0,0,1,52.5,70Z"/><path class="cls-2" d="M44.5,66.72a.34.34,0,0,1-.25-.11.35.35,0,0,1-.1-.24.33.33,0,0,1,.11-.25.37.37,0,0,1,.49,0,.36.36,0,0,1,.1.25.34.34,0,0,1-.35.35Z"/><path class="cls-2" d="M28.25,71.47a.39.39,0,0,1-.25-.1.36.36,0,0,1-.1-.25.33.33,0,0,1,.11-.25.35.35,0,0,1,.59.25.33.33,0,0,1-.11.25A.35.35,0,0,1,28.25,71.47Z"/><path class="cls-2" d="M2.75,29.72a.39.39,0,0,1-.25-.1.36.36,0,0,1,0-.5.38.38,0,0,1,.5,0,.36.36,0,0,1,0,.5A.39.39,0,0,1,2.75,29.72Z"/><path class="cls-2" d="M13,5.22a.36.36,0,0,1-.25-.11.31.31,0,0,1-.1-.24.37.37,0,0,1,.1-.25.36.36,0,0,1,.6.25.33.33,0,0,1-.11.25A.35.35,0,0,1,13,5.22Z"/><path class="cls-2" d="M70,34.72a.34.34,0,0,1-.35-.35.33.33,0,0,1,.11-.25.37.37,0,0,1,.49,0,.36.36,0,0,1,.1.25.34.34,0,0,1-.35.35Z"/><path class="cls-2" d="M71,41.47a.35.35,0,0,1-.25-.6.37.37,0,0,1,.5,0,.35.35,0,0,1-.25.6Z"/><path class="cls-2" d="M.75,52a.39.39,0,0,1-.25-.1.39.39,0,0,1-.1-.25.33.33,0,0,1,.11-.25.37.37,0,0,1,.49,0,.36.36,0,0,1,.1.25.39.39,0,0,1-.1.25A.39.39,0,0,1,.75,52Z"/><path class="cls-2" d="M71.75,23.72a.35.35,0,0,1-.25-.6.38.38,0,0,1,.5,0,.35.35,0,0,1-.25.6Z"/><path class="cls-2" d="M68.75,26.72a.35.35,0,0,1-.25-.6.37.37,0,0,1,.5,0,.39.39,0,0,1,.1.25.35.35,0,0,1-.1.25A.39.39,0,0,1,68.75,26.72Z"/><path class="cls-2" d="M68.25,60.47a.34.34,0,0,1-.35-.35.37.37,0,0,1,.1-.25.38.38,0,0,1,.5,0,.35.35,0,0,1-.25.6Z"/><path class="cls-2" d="M71.25,68.47a.35.35,0,0,1-.25-.6.37.37,0,0,1,.5,0,.39.39,0,0,1,.1.25.35.35,0,0,1-.1.25A.39.39,0,0,1,71.25,68.47Z"/><path class="cls-2" d="M.25,58a.39.39,0,0,1-.25-.1.36.36,0,0,1,0-.5.38.38,0,0,1,.5,0,.36.36,0,0,1,0,.5A.39.39,0,0,1,.25,58Z"/><path class="cls-2" d="M2.5,71.47a.39.39,0,0,1-.25-.1.36.36,0,0,1,0-.5.36.36,0,0,1,.6.25.39.39,0,0,1-.1.25A.39.39,0,0,1,2.5,71.47Z"/><path class="cls-2" d="M70,24.22a.34.34,0,0,1-.35-.35.33.33,0,0,1,.11-.25.37.37,0,0,1,.49,0,.36.36,0,0,1,.1.25.34.34,0,0,1-.35.35Z"/><path class="cls-2" d="M1,17a.39.39,0,0,1-.25-.1.36.36,0,0,1,0-.5.38.38,0,0,1,.5,0,.36.36,0,0,1,0,.5A.39.39,0,0,1,1,17Z"/><path class="cls-2" d="M17.75,13.27a.65.65,0,0,1-.65-.65.66.66,0,0,1,.19-.46.68.68,0,0,1,.92,0,.65.65,0,0,1-.46,1.11Z"/><path class="cls-2" d="M29,11.27a.66.66,0,0,1-.46-.19.68.68,0,0,1-.19-.46.66.66,0,0,1,.19-.46.67.67,0,0,1,.92,0,.66.66,0,0,1,.19.46.65.65,0,0,1-.65.65Z"/><path class="cls-2" d="M29,3.77a.65.65,0,0,1-.65-.65.64.64,0,0,1,.19-.46.68.68,0,0,1,.92,0,.65.65,0,0,1,0,.92A.68.68,0,0,1,29,3.77Z"/><path class="cls-2" d="M40,10.77a.65.65,0,0,1-.65-.65.66.66,0,0,1,.19-.46.68.68,0,0,1,.92,0,.63.63,0,0,1,.19.46.68.68,0,0,1-.19.46A.66.66,0,0,1,40,10.77Z"/><path class="cls-2" d="M44.75,12.27a.61.61,0,0,1-.46-.2.64.64,0,0,1-.19-.45.66.66,0,0,1,.19-.46.68.68,0,0,1,.92,0,.63.63,0,0,1,.19.46.61.61,0,0,1-.2.46A.6.6,0,0,1,44.75,12.27Z"/><path class="cls-2" d="M47,23.27a.65.65,0,0,1-.46-1.11.68.68,0,0,1,.92,0A.65.65,0,0,1,47,23.27Z"/><path class="cls-2" d="M54.5,7.27A.64.64,0,0,1,54,7.08a.65.65,0,0,1,0-.92.68.68,0,0,1,.92,0,.64.64,0,0,1,.19.46.66.66,0,0,1-.19.46A.64.64,0,0,1,54.5,7.27Z"/><path class="cls-2" d="M63.75,7a.65.65,0,0,1-.46-1.11.68.68,0,0,1,.92,0A.65.65,0,0,1,63.75,7Z"/><path class="cls-2" d="M64.75,3a.66.66,0,0,1-.46-.19.68.68,0,0,1-.19-.46.66.66,0,0,1,.19-.46.68.68,0,0,1,.92,0,.68.68,0,0,1,.19.46.63.63,0,0,1-.18.45A.67.67,0,0,1,64.75,3Z"/><path class="cls-2" d="M69.25,18.52a.65.65,0,0,1-.46-1.11.67.67,0,0,1,.92,0,.65.65,0,0,1-.46,1.11Z"/><path class="cls-2" d="M7.75,47.52a.64.64,0,0,1-.46-.19.68.68,0,0,1-.19-.46.66.66,0,0,1,.19-.46.68.68,0,0,1,.92,0,.66.66,0,0,1,.19.46.68.68,0,0,1-.19.46A.64.64,0,0,1,7.75,47.52Z"/><path class="cls-2" d="M4.75,57.27a.64.64,0,0,1-.46-.19.65.65,0,0,1,0-.92.67.67,0,0,1,.92,0,.65.65,0,0,1,0,.92A.64.64,0,0,1,4.75,57.27Z"/><path class="cls-2" d="M2,67.52a.66.66,0,0,1-.46-.19.68.68,0,0,1-.19-.46.66.66,0,0,1,.19-.46.68.68,0,0,1,.92,0,.66.66,0,0,1,.19.46.68.68,0,0,1-.19.46A.66.66,0,0,1,2,67.52Z"/><path class="cls-2" d="M17.5,70.27a.66.66,0,0,1-.46-.19.68.68,0,0,1-.19-.46.66.66,0,0,1,.19-.46.68.68,0,0,1,.92,0,.66.66,0,0,1,.19.46.68.68,0,0,1-.19.46A.66.66,0,0,1,17.5,70.27Z"/><path class="cls-2" d="M19,62.77a.65.65,0,0,1-.65-.65.64.64,0,0,1,.19-.46.67.67,0,0,1,.92,0,.66.66,0,0,1,.19.46.68.68,0,0,1-.19.46A.66.66,0,0,1,19,62.77Z"/><path class="cls-2" d="M20.75,45.77a.65.65,0,0,1-.65-.65.64.64,0,0,1,.19-.46.67.67,0,0,1,.92,0,.66.66,0,0,1,.19.46.68.68,0,0,1-.19.46A.64.64,0,0,1,20.75,45.77Z"/><path class="cls-2" d="M28.25,51.52a.65.65,0,0,1-.46-1.11.67.67,0,0,1,.92,0,.66.66,0,0,1,.19.46.68.68,0,0,1-.19.46A.64.64,0,0,1,28.25,51.52Z"/><path class="cls-2" d="M33.75,60.77a.65.65,0,0,1-.65-.65.64.64,0,0,1,.19-.46.68.68,0,0,1,.92,0,.63.63,0,0,1,.19.46.64.64,0,0,1-.19.46A.66.66,0,0,1,33.75,60.77Z"/><path class="cls-2" d="M34,67.27a.64.64,0,0,1-.46-.19.65.65,0,0,1,0-.92.67.67,0,0,1,.92,0,.65.65,0,0,1,0,.92A.66.66,0,0,1,34,67.27Z"/><path class="cls-2" d="M41.5,55.52A.65.65,0,0,1,41,54.41a.68.68,0,0,1,.92,0,.65.65,0,0,1-.46,1.11Z"/><path class="cls-2" d="M52,60.27a.65.65,0,0,1-.46-1.11.68.68,0,0,1,.92,0A.65.65,0,0,1,52,60.27Z"/><path class="cls-2" d="M54.75,65.77a.66.66,0,0,1-.46-.19.68.68,0,0,1-.19-.46.64.64,0,0,1,.19-.46.68.68,0,0,1,.92,0,.64.64,0,0,1,.19.46.68.68,0,0,1-.19.46A.66.66,0,0,1,54.75,65.77Z"/><path class="cls-2" d="M25,25a.66.66,0,0,1-.46-.19.68.68,0,0,1-.19-.46.66.66,0,0,1,.19-.46.68.68,0,0,1,.92,0,.66.66,0,0,1,.19.46.68.68,0,0,1-.19.46A.66.66,0,0,1,25,25Z"/><path class="cls-2" d="M35,23.77a.64.64,0,0,1-.46-.19.65.65,0,0,1,0-.92.68.68,0,0,1,.92,0A.65.65,0,0,1,35,23.77Z"/><path class="cls-2" d="M44.75,30a.65.65,0,0,1-.46-1.11.68.68,0,0,1,.92,0,.63.63,0,0,1,.19.46.61.61,0,0,1-.2.46A.62.62,0,0,1,44.75,30Z"/><path class="cls-2" d="M51.75,43.52a.65.65,0,0,1-.46-1.11.67.67,0,0,1,.92,0,.64.64,0,0,1,.19.46.65.65,0,0,1-.65.65Z"/><path class="cls-2" d="M66.75,52.27a.65.65,0,0,1-.65-.65.61.61,0,0,1,.2-.46.68.68,0,0,1,.91,0,.65.65,0,0,1-.46,1.11Z"/><path class="cls-2" d="M47,48.27a.65.65,0,0,1-.46-1.11.68.68,0,0,1,.92,0A.65.65,0,0,1,47,48.27Z"/><path class="cls-2" d="M36.75,45a.66.66,0,0,1-.46-.19.68.68,0,0,1-.19-.46.66.66,0,0,1,.19-.46.68.68,0,0,1,.92,0,.66.66,0,0,1,.19.46.68.68,0,0,1-.19.46A.66.66,0,0,1,36.75,45Z"/><path class="cls-2" d="M16.75,29a.65.65,0,0,1-.46-1.11.68.68,0,0,1,.92,0,.65.65,0,0,1,0,.92A.64.64,0,0,1,16.75,29Z"/><path class="cls-2" d="M11,37.27a.65.65,0,0,1-.65-.65.64.64,0,0,1,.19-.46.67.67,0,0,1,.92,0A.65.65,0,0,1,11,37.27Z"/><path class="cls-2" d="M67.25,31.27a.66.66,0,0,1-.46-.19.68.68,0,0,1-.19-.46.66.66,0,0,1,.19-.46.68.68,0,0,1,.92,0,.64.64,0,0,1,.19.46.65.65,0,0,1-.65.65Z"/><path class="cls-2" d="M7,16.27a.61.61,0,0,1-.46-.2.62.62,0,0,1-.19-.45.66.66,0,0,1,.19-.46.67.67,0,0,1,.92,0,.65.65,0,0,1,0,.92A.64.64,0,0,1,7,16.27Z"/><path class="cls-2" d="M8.25,5.77a.68.68,0,0,1-.46-.19.66.66,0,0,1-.19-.46.64.64,0,0,1,.19-.46.67.67,0,0,1,.92,0,.64.64,0,0,1,.19.46.65.65,0,0,1-.65.65Z"/><path class="cls-2" d="M3.25,3a.66.66,0,0,1-.46-.19.68.68,0,0,1-.19-.46.66.66,0,0,1,.19-.46.68.68,0,0,1,.92,0,.66.66,0,0,1,.19.46.68.68,0,0,1-.19.46A.66.66,0,0,1,3.25,3Z"/><path class="cls-2" d="M66.25,37.77a.65.65,0,0,1-.46-1.11.68.68,0,0,1,.92,0,.64.64,0,0,1,.19.46.66.66,0,0,1-.19.46A.64.64,0,0,1,66.25,37.77Z"/><path class="cls-2" d="M43.75,63.52a.66.66,0,0,1-.46-.19.68.68,0,0,1-.19-.46.66.66,0,0,1,.19-.46.67.67,0,0,1,.92,0,.66.66,0,0,1,.19.46.68.68,0,0,1-.19.46A.66.66,0,0,1,43.75,63.52Z"/><path class="cls-2" d="M25.5,70.52a.66.66,0,0,1-.46-.19.68.68,0,0,1-.19-.46.66.66,0,0,1,.19-.46.67.67,0,0,1,.92,0,.66.66,0,0,1,.19.46.68.68,0,0,1-.19.46A.66.66,0,0,1,25.5,70.52Z"/><path class="cls-2" d="M21.75,42.27a.66.66,0,0,1-.46-.19.65.65,0,0,1,0-.92.68.68,0,0,1,.92,0,.65.65,0,0,1-.46,1.11Z"/><path class="cls-2" d="M23.75,29.52a.66.66,0,0,1-.46-.19.68.68,0,0,1-.19-.46.66.66,0,0,1,.19-.46.67.67,0,0,1,.92,0,.64.64,0,0,1,.19.46.65.65,0,0,1-.65.65Z"/><path class="cls-2" d="M41.25,35a.65.65,0,0,1-.46-1.11.68.68,0,0,1,.92,0,.66.66,0,0,1,.19.46.68.68,0,0,1-.19.46A.66.66,0,0,1,41.25,35Z"/><path class="cls-2" d="M67.25,44.27a.66.66,0,0,1-.46-.19.68.68,0,0,1-.19-.46.66.66,0,0,1,.19-.46.68.68,0,0,1,.92,0,.64.64,0,0,1,.19.46.65.65,0,0,1-.65.65Z"/><path class="cls-2" d="M53,15.52a.65.65,0,0,1-.46-1.11.68.68,0,0,1,.92,0,.66.66,0,0,1,.19.46.68.68,0,0,1-.19.46A.66.66,0,0,1,53,15.52Z"/><path class="cls-2" d="M33.75,16.52a.66.66,0,0,1-.46-.19.68.68,0,0,1-.19-.46.64.64,0,0,1,.19-.46.68.68,0,0,1,.92,0,.64.64,0,0,1,.19.46.65.65,0,0,1-.65.65Z"/><path class="cls-2" d="M12.5,19.77A.65.65,0,0,1,12,18.66a.67.67,0,0,1,.92,0,.65.65,0,0,1-.46,1.11Z"/><path class="cls-2" d="M49.25,5a.65.65,0,0,1-.46-1.11.68.68,0,0,1,.92,0A.65.65,0,0,1,49.25,5Z"/><path class="cls-2" d="M58.75,21.27a.65.65,0,0,1-.46-1.11.68.68,0,0,1,.92,0,.64.64,0,0,1,.19.46.65.65,0,0,1-.65.65Z"/><path class="cls-2" d="M67.25,57.77a.66.66,0,0,1-.46-.19.68.68,0,0,1-.19-.46.66.66,0,0,1,.19-.46.68.68,0,0,1,.92,0,.64.64,0,0,1,.19.46.65.65,0,0,1-.65.65Z"/><path class="cls-2" d="M5,70.27a.64.64,0,0,1-.46-.19.65.65,0,0,1,0-.92.67.67,0,0,1,.92,0,.65.65,0,0,1,0,.92A.64.64,0,0,1,5,70.27Z"/><path class="cls-2" d="M2.5,13.77a.61.61,0,0,1-.46-.2.62.62,0,0,1-.19-.45A.66.66,0,0,1,2,12.66a.67.67,0,0,1,.92,0,.65.65,0,0,1,0,.92A.64.64,0,0,1,2.5,13.77Z"/><path class="cls-2" d="M16.25,3.77a.65.65,0,0,1-.46-1.11.68.68,0,0,1,.92,0,.65.65,0,0,1-.46,1.11Z"/><path class="cls-2" d="M40.25,5a.65.65,0,0,1-.46-1.11.68.68,0,0,1,.92,0,.64.64,0,0,1,.19.46.65.65,0,0,1-.65.65Z"/><path class="cls-2" d="M2.5,32.52A.64.64,0,0,1,2,32.33a.65.65,0,0,1,0-.92.68.68,0,0,1,.92,0,.65.65,0,0,1-.46,1.11Z"/><path class="cls-2" d="M7.25,25.52a.64.64,0,0,1-.46-.19.65.65,0,0,1,0-.92.68.68,0,0,1,.92,0,.64.64,0,0,1,.19.46.66.66,0,0,1-.19.46A.64.64,0,0,1,7.25,25.52Z"/><path class="cls-2" d="M3.75,47.27a.66.66,0,0,1-.46-.19.68.68,0,0,1-.19-.46.66.66,0,0,1,.19-.46.67.67,0,0,1,.92,0,.66.66,0,0,1,.19.46.68.68,0,0,1-.19.46A.64.64,0,0,1,3.75,47.27Z"/><path class="cls-2" d="M10.75,51a.66.66,0,0,1-.46-.19.68.68,0,0,1-.19-.46.64.64,0,0,1,.19-.46.68.68,0,0,1,.92,0,.66.66,0,0,1,.19.46.68.68,0,0,1-.19.46A.66.66,0,0,1,10.75,51Z"/><path class="cls-2" d="M9.75,60.27a.64.64,0,0,1-.46-.19.65.65,0,0,1,0-.92.68.68,0,0,1,.92,0,.65.65,0,0,1,0,.92A.64.64,0,0,1,9.75,60.27Z"/><path class="cls-2" d="M13.25,66.27a.66.66,0,0,1-.46-.19.68.68,0,0,1-.19-.46.64.64,0,0,1,.19-.46.67.67,0,0,1,.92,0,.66.66,0,0,1,.19.46.68.68,0,0,1-.19.46A.66.66,0,0,1,13.25,66.27Z"/><path class="cls-2" d="M21.75,53.77a.66.66,0,0,1-.46-.19.64.64,0,0,1-.19-.46.6.6,0,0,1,.2-.46.65.65,0,0,1,1.1.46.68.68,0,0,1-.19.46A.66.66,0,0,1,21.75,53.77Z"/><path class="cls-2" d="M31,38a.66.66,0,0,1-.46-.19.68.68,0,0,1-.19-.46.66.66,0,0,1,.19-.46.68.68,0,0,1,.92,0,.66.66,0,0,1,.19.46.68.68,0,0,1-.19.46A.66.66,0,0,1,31,38Z"/><path class="cls-2" d="M25.75,34.52a.65.65,0,0,1-.46-1.11.67.67,0,0,1,.92,0,.65.65,0,0,1-.46,1.11Z"/><path class="cls-2" d="M37,29a.66.66,0,0,1-.46-.19.68.68,0,0,1-.19-.46.66.66,0,0,1,.19-.46.68.68,0,0,1,.92,0,.66.66,0,0,1,.19.46.68.68,0,0,1-.19.46A.66.66,0,0,1,37,29Z"/><path class="cls-2" d="M61.5,17a.66.66,0,0,1-.46-.19.68.68,0,0,1-.19-.46.66.66,0,0,1,.19-.46.68.68,0,0,1,.92,0,.64.64,0,0,1,.19.46.65.65,0,0,1-.65.65Z"/><path class="cls-2" d="M61,27.52a.64.64,0,0,1-.46-.19.68.68,0,0,1-.19-.46.66.66,0,0,1,.19-.46.68.68,0,0,1,.92,0,.65.65,0,0,1,0,.92A.64.64,0,0,1,61,27.52Z"/><path class="cls-2" d="M58.5,57.52a.66.66,0,0,1-.46-.19.68.68,0,0,1-.19-.46.66.66,0,0,1,.19-.46.68.68,0,0,1,.92,0,.66.66,0,0,1,.19.46.68.68,0,0,1-.19.46A.66.66,0,0,1,58.5,57.52Z"/><path class="cls-2" d="M59,44.77a.64.64,0,0,1-.46-.19.65.65,0,0,1,0-.92.68.68,0,0,1,.92,0,.65.65,0,0,1,0,.92A.64.64,0,0,1,59,44.77Z"/><path class="cls-2" d="M55.5,36a.66.66,0,0,1-.46-.19.68.68,0,0,1-.19-.46.66.66,0,0,1,.19-.46.68.68,0,0,1,.92,0,.66.66,0,0,1,.19.46.68.68,0,0,1-.19.46A.66.66,0,0,1,55.5,36Z"/><path class="cls-2" d="M69,71a.68.68,0,0,1-.46-.19.65.65,0,0,1,0-.92.69.69,0,0,1,.92,0A.65.65,0,0,1,69,71Z"/><path class="cls-2" d="M60.5,66.27A.65.65,0,0,1,60,65.16a.67.67,0,0,1,.92,0,.64.64,0,0,1,.19.46.65.65,0,0,1-.65.65Z"/><path class="cls-2" d="M44.25,71.77a.65.65,0,0,1-.46-1.11.68.68,0,0,1,.92,0,.65.65,0,0,1-.46,1.11Z"/><path class="cls-2" d="M24.25,1.52A.65.65,0,0,1,23.6.87a.64.64,0,0,1,.19-.46.67.67,0,0,1,.92,0,.66.66,0,0,1,.19.46.68.68,0,0,1-.19.46A.64.64,0,0,1,24.25,1.52Z"/><path class="cls-2" d="M-.25,23.72a.39.39,0,0,1-.25-.1.39.39,0,0,1-.1-.25.39.39,0,0,1,.1-.25.38.38,0,0,1,.5,0,.39.39,0,0,1,.1.25.39.39,0,0,1-.1.25A.39.39,0,0,1-.25,23.72Z"/></pattern><pattern id="USGS_22_Gravel_Beach_4-3" data-name="USGS 22 Gravel Beach 4" width="72" height="72" patternTransform="translate(-44.67 70.81) scale(0.88)" patternUnits="userSpaceOnUse" viewBox="0 0 72 72"><rect class="cls-1" width="72" height="72"/><path class="cls-2" d="M72.25,58a.35.35,0,0,1-.25-.6.38.38,0,0,1,.5,0,.35.35,0,0,1-.25.6Z"/><path class="cls-2" d="M20.75,3.22a.39.39,0,0,1-.25-.1.36.36,0,0,1,0-.5.36.36,0,0,1,.6.25.39.39,0,0,1-.1.25A.39.39,0,0,1,20.75,3.22Z"/><path class="cls-2" d="M19.75,8.47a.34.34,0,0,1-.35-.35.33.33,0,0,1,.11-.25.37.37,0,0,1,.49,0,.36.36,0,0,1,.1.25.39.39,0,0,1-.1.25A.37.37,0,0,1,19.75,8.47Z"/><path class="cls-2" d="M20,10.72a.35.35,0,0,1-.25-.6.37.37,0,0,1,.5,0,.35.35,0,0,1-.25.6Z"/><path class="cls-2" d="M15,10.72a.34.34,0,0,1-.35-.35.37.37,0,0,1,.1-.25.38.38,0,0,1,.5,0,.35.35,0,0,1-.25.6Z"/><path class="cls-2" d="M22.5,20.22a.35.35,0,0,1-.25-.6.36.36,0,0,1,.6.25.34.34,0,0,1-.35.35Z"/><path class="cls-2" d="M15,23.22a.34.34,0,0,1-.35-.35.33.33,0,0,1,.11-.25.37.37,0,0,1,.49,0,.36.36,0,0,1,.1.25.34.34,0,0,1-.35.35Z"/><path class="cls-2" d="M13.75,24.22a.35.35,0,0,1-.25-.6.36.36,0,0,1,.6.25.39.39,0,0,1-.1.25A.37.37,0,0,1,13.75,24.22Z"/><path class="cls-2" d="M23.75,27.22a.34.34,0,0,1-.35-.35.33.33,0,0,1,.11-.25.37.37,0,0,1,.49,0,.39.39,0,0,1,.1.25.35.35,0,0,1-.1.24A.36.36,0,0,1,23.75,27.22Z"/><path class="cls-2" d="M30.5,26a.35.35,0,0,1-.25-.6.36.36,0,0,1,.6.25.34.34,0,0,1-.35.35Z"/><path class="cls-2" d="M31,23.47a.34.34,0,0,1-.35-.35.33.33,0,0,1,.11-.25.35.35,0,0,1,.59.25.39.39,0,0,1-.1.25A.37.37,0,0,1,31,23.47Z"/><path class="cls-2" d="M29,18.47a.35.35,0,0,1-.25-.6.36.36,0,0,1,.6.25.34.34,0,0,1-.35.35Z"/><path class="cls-2" d="M33.75,20a.35.35,0,0,1-.25-.6.36.36,0,0,1,.6.25.34.34,0,0,1-.35.35Z"/><path class="cls-2" d="M31.25,15a.35.35,0,0,1-.25-.6.36.36,0,0,1,.6.25.34.34,0,0,1-.35.35Z"/><path class="cls-2" d="M31.5,12a.35.35,0,0,1-.25-.6.37.37,0,0,1,.5,0,.35.35,0,0,1-.25.6Z"/><path class="cls-2" d="M32,7.22a.35.35,0,0,1-.25-.6.36.36,0,0,1,.6.25.34.34,0,0,1-.35.35Z"/><path class="cls-2" d="M31.75,3.22a.39.39,0,0,1-.25-.1.39.39,0,0,1-.1-.25.33.33,0,0,1,.11-.25.35.35,0,0,1,.59.25.39.39,0,0,1-.1.25A.39.39,0,0,1,31.75,3.22Z"/><path class="cls-2" d="M33.75,1.47a.36.36,0,0,1-.25-.11.33.33,0,0,1-.1-.24.33.33,0,0,1,.11-.25.36.36,0,0,1,.49,0,.36.36,0,0,1,.1.25.34.34,0,0,1-.11.25A.35.35,0,0,1,33.75,1.47Z"/><path class="cls-2" d="M41.25,7.22a.39.39,0,0,1-.25-.1.35.35,0,0,1-.1-.25.39.39,0,0,1,.1-.25.35.35,0,0,1,.49,0,.36.36,0,0,1,.11.25.34.34,0,0,1-.35.35Z"/><path class="cls-2" d="M45.25,7a.39.39,0,0,1-.25-.1.36.36,0,0,1,0-.5.36.36,0,0,1,.6.25.34.34,0,0,1-.35.35Z"/><path class="cls-2" d="M42.25,13.72a.34.34,0,0,1-.35-.35.33.33,0,0,1,.11-.25.35.35,0,0,1,.59.25.34.34,0,0,1-.35.35Z"/><path class="cls-2" d="M46.75,14.47a.34.34,0,0,1-.35-.35.33.33,0,0,1,.11-.25.36.36,0,0,1,.49,0,.39.39,0,0,1,.1.25.33.33,0,0,1-.1.24A.36.36,0,0,1,46.75,14.47Z"/><path class="cls-2" d="M46.75,16.47a.34.34,0,0,1-.35-.35.33.33,0,0,1,.11-.25.36.36,0,0,1,.49,0,.39.39,0,0,1,.1.25.37.37,0,0,1-.1.24A.36.36,0,0,1,46.75,16.47Z"/><path class="cls-2" d="M38.75,21a.35.35,0,0,1-.25-.6.36.36,0,0,1,.49,0,.34.34,0,0,1,.11.25.34.34,0,0,1-.35.35Z"/><path class="cls-2" d="M50,13.72a.39.39,0,0,1-.25-.1.36.36,0,0,1,0-.5.37.37,0,0,1,.5,0,.35.35,0,0,1-.25.6Z"/><path class="cls-2" d="M52,12.22a.36.36,0,0,1-.25-.11.35.35,0,0,1-.1-.24.33.33,0,0,1,.11-.25.37.37,0,0,1,.49,0,.36.36,0,0,1,.1.25.34.34,0,0,1-.35.35Z"/><path class="cls-2" d="M54.5,11.22a.36.36,0,0,1-.25-.11.35.35,0,0,1-.1-.24.33.33,0,0,1,.11-.25.35.35,0,0,1,.59.25.34.34,0,0,1-.35.35Z"/><path class="cls-2" d="M56.25,1A.39.39,0,0,1,56,.87a.39.39,0,0,1-.1-.25A.39.39,0,0,1,56,.37a.36.36,0,0,1,.5,0,.35.35,0,0,1,.1.24.39.39,0,0,1-.1.25A.39.39,0,0,1,56.25,1Z"/><path class="cls-2" d="M67.75,3.22a.39.39,0,0,1-.25-.1.39.39,0,0,1-.1-.25.33.33,0,0,1,.11-.25.37.37,0,0,1,.49,0,.36.36,0,0,1,.1.25.39.39,0,0,1-.1.25A.37.37,0,0,1,67.75,3.22Z"/><path class="cls-2" d="M67.75,10.47a.36.36,0,0,1-.25-.11.35.35,0,0,1-.1-.24.39.39,0,0,1,.1-.25.37.37,0,0,1,.5,0,.39.39,0,0,1,.1.25.34.34,0,0,1-.11.25A.35.35,0,0,1,67.75,10.47Z"/><path class="cls-2" d="M64,12.47a.35.35,0,0,1-.25-.6.36.36,0,0,1,.6.25.34.34,0,0,1-.35.35Z"/><path class="cls-2" d="M65,16a.34.34,0,0,1-.35-.35.37.37,0,0,1,.1-.25.38.38,0,0,1,.5,0A.35.35,0,0,1,65,16Z"/><path class="cls-2" d="M63.75,20a.36.36,0,0,1-.25-.11.35.35,0,0,1-.1-.24.39.39,0,0,1,.1-.25.37.37,0,0,1,.5,0,.39.39,0,0,1,.1.25.34.34,0,0,1-.11.25A.35.35,0,0,1,63.75,20Z"/><path class="cls-2" d="M66,20a.34.34,0,0,1-.35-.35.33.33,0,0,1,.11-.25.37.37,0,0,1,.49,0,.36.36,0,0,1,.1.25A.34.34,0,0,1,66,20Z"/><path class="cls-2" d="M67.75,21.47a.35.35,0,0,1-.25-.6.37.37,0,0,1,.5,0,.35.35,0,0,1-.25.6Z"/><path class="cls-2" d="M6.75,52.47a.35.35,0,0,1-.25-.6.38.38,0,0,1,.5,0,.35.35,0,0,1-.25.6Z"/><path class="cls-2" d="M7,54.72a.35.35,0,0,1-.25-.6.37.37,0,0,1,.5,0,.35.35,0,0,1-.25.6Z"/><path class="cls-2" d="M2,54.72a.39.39,0,0,1-.25-.1.36.36,0,0,1,0-.5.38.38,0,0,1,.5,0,.36.36,0,0,1,0,.5A.39.39,0,0,1,2,54.72Z"/><path class="cls-2" d="M9.5,64.22a.35.35,0,0,1-.25-.6.36.36,0,0,1,.6.25.34.34,0,0,1-.35.35Z"/><path class="cls-2" d="M.75,68.22a.39.39,0,0,1-.25-.1.36.36,0,0,1,0-.5.38.38,0,0,1,.5,0,.36.36,0,0,1,0,.5A.39.39,0,0,1,.75,68.22Z"/><path class="cls-2" d="M10.75,71.22a.35.35,0,0,1-.25-.6.38.38,0,0,1,.5,0,.35.35,0,0,1-.25.6Z"/><path class="cls-2" d="M18,67.47a.34.34,0,0,1-.35-.35.37.37,0,0,1,.1-.25.37.37,0,0,1,.49,0,.36.36,0,0,1,.11.25.34.34,0,0,1-.35.35Z"/><path class="cls-2" d="M16,62.47a.35.35,0,0,1-.25-.6.37.37,0,0,1,.5,0,.35.35,0,0,1-.25.6Z"/><path class="cls-2" d="M19.25,58a.34.34,0,0,1-.35-.35.33.33,0,0,1,.11-.25.37.37,0,0,1,.49,0,.36.36,0,0,1,.1.25.34.34,0,0,1-.35.35Z"/><path class="cls-2" d="M18.5,56a.34.34,0,0,1-.35-.35.33.33,0,0,1,.11-.25.37.37,0,0,1,.49,0,.36.36,0,0,1,.1.25.34.34,0,0,1-.35.35Z"/><path class="cls-2" d="M16,55a.34.34,0,0,1-.35-.35.33.33,0,0,1,.11-.25.37.37,0,0,1,.49,0,.36.36,0,0,1,.1.25A.34.34,0,0,1,16,55Z"/><path class="cls-2" d="M19,51.22a.34.34,0,0,1-.35-.35.33.33,0,0,1,.11-.25.37.37,0,0,1,.49,0,.36.36,0,0,1,.1.25.34.34,0,0,1-.35.35Z"/><path class="cls-2" d="M18.75,47.22a.35.35,0,0,1-.25-.6.38.38,0,0,1,.5,0,.35.35,0,0,1-.25.6Z"/><path class="cls-2" d="M16,47.47a.35.35,0,0,1-.25-.6.37.37,0,0,1,.5,0,.35.35,0,0,1-.25.6Z"/><path class="cls-2" d="M32.25,51a.34.34,0,0,1-.35-.35.33.33,0,0,1,.11-.25.35.35,0,0,1,.59.25.34.34,0,0,1-.35.35Z"/><path class="cls-2" d="M27,54.47a.35.35,0,0,1-.25-.6.37.37,0,0,1,.5,0,.35.35,0,0,1-.25.6Z"/><path class="cls-2" d="M31.75,56a.35.35,0,0,1-.25-.6.37.37,0,0,1,.5,0,.35.35,0,0,1-.25.6Z"/><path class="cls-2" d="M31.75,57.72a.35.35,0,0,1-.24-.1.35.35,0,0,1,0-.5.37.37,0,0,1,.5,0,.36.36,0,0,1,.1.25.34.34,0,0,1-.35.35Z"/><path class="cls-2" d="M33.75,58.47a.35.35,0,0,1-.25-.6.37.37,0,0,1,.5,0,.35.35,0,0,1-.25.6Z"/><path class="cls-2" d="M25.75,65a.35.35,0,0,1-.25-.6.36.36,0,0,1,.6.25.34.34,0,0,1-.35.35Z"/><path class="cls-2" d="M35.75,56.47a.35.35,0,0,1-.25-.6.36.36,0,0,1,.6.25.34.34,0,0,1-.35.35Z"/><path class="cls-2" d="M39,56.22a.35.35,0,0,1-.24-.1.36.36,0,0,1-.11-.25.39.39,0,0,1,.1-.25.37.37,0,0,1,.5,0,.35.35,0,0,1-.25.6Z"/><path class="cls-2" d="M41.5,51a.35.35,0,0,1-.25-.6.37.37,0,0,1,.5,0,.35.35,0,0,1-.25.6Z"/><path class="cls-2" d="M43.25,45a.36.36,0,0,1-.25-.11.35.35,0,0,1-.1-.24.39.39,0,0,1,.1-.25.37.37,0,0,1,.5,0,.35.35,0,0,1-.25.6Z"/><path class="cls-2" d="M50.75,50.72a.39.39,0,0,1-.25-.1.36.36,0,0,1-.1-.25.39.39,0,0,1,.1-.25.36.36,0,0,1,.5,0,.35.35,0,0,1-.25.6Z"/><path class="cls-2" d="M51.75,46.72a.36.36,0,0,1-.25-.11.35.35,0,0,1-.1-.24.33.33,0,0,1,.11-.25.37.37,0,0,1,.49,0,.36.36,0,0,1,.1.25.34.34,0,0,1-.35.35Z"/><path class="cls-2" d="M54.75,47.22a.33.33,0,0,1-.25-.11.35.35,0,0,1-.1-.24.37.37,0,0,1,.1-.25.36.36,0,0,1,.49,0,.34.34,0,0,1,.11.25.34.34,0,0,1-.35.35Z"/><path class="cls-2" d="M54.75,54.47a.33.33,0,0,1-.25-.11.35.35,0,0,1-.1-.24.33.33,0,0,1,.11-.25.37.37,0,0,1,.49,0,.36.36,0,0,1,.1.25.34.34,0,0,1-.35.35Z"/><path class="cls-2" d="M51,56.47a.35.35,0,0,1-.25-.6.37.37,0,0,1,.5,0,.35.35,0,0,1,.1.25.39.39,0,0,1-.1.25A.37.37,0,0,1,51,56.47Z"/><path class="cls-2" d="M50.75,64a.34.34,0,0,1-.35-.35.31.31,0,0,1,.1-.24.34.34,0,0,1,.49,0,.36.36,0,0,1,.11.25.39.39,0,0,1-.1.25A.37.37,0,0,1,50.75,64Z"/><path class="cls-2" d="M53,64a.34.34,0,0,1-.35-.35.33.33,0,0,1,.11-.25.36.36,0,0,1,.49,0,.31.31,0,0,1,.1.24A.34.34,0,0,1,53,64Z"/><path class="cls-2" d="M55.75,63.22a.35.35,0,0,1-.25-.6.36.36,0,0,1,.6.25.34.34,0,0,1-.35.35Z"/><path class="cls-2" d="M58,61.72a.36.36,0,0,1-.25-.11.35.35,0,0,1-.1-.24.39.39,0,0,1,.1-.25.37.37,0,0,1,.5,0,.37.37,0,0,1,.1.25.34.34,0,0,1-.35.35Z"/><path class="cls-2" d="M20.75,27.22a.35.35,0,0,1-.25-.6.36.36,0,0,1,.6.25.34.34,0,0,1-.35.35Z"/><path class="cls-2" d="M22.5,24.22a.35.35,0,0,1-.25-.6.37.37,0,0,1,.5,0,.35.35,0,0,1-.25.6Z"/><path class="cls-2" d="M38.75,25a.35.35,0,0,1-.25-.6.37.37,0,0,1,.5,0,.35.35,0,0,1-.25.6Z"/><path class="cls-2" d="M46,29.22a.39.39,0,0,1-.25-.1.35.35,0,0,1,0-.49.34.34,0,0,1,.49,0,.36.36,0,0,1,.11.25.34.34,0,0,1-.35.35Z"/><path class="cls-2" d="M55,28.22a.35.35,0,0,1-.25-.6.37.37,0,0,1,.5,0,.35.35,0,0,1-.25.6Z"/><path class="cls-2" d="M51,25.47a.35.35,0,0,1-.25-.6.37.37,0,0,1,.5,0,.35.35,0,0,1,.1.25.34.34,0,0,1-.35.35Z"/><path class="cls-2" d="M51.75,29.72a.37.37,0,0,1-.25-.1.36.36,0,0,1,0-.5.36.36,0,0,1,.6.25.34.34,0,0,1-.35.35Z"/><path class="cls-2" d="M62.25,35.72a.34.34,0,0,1-.35-.35.33.33,0,0,1,.11-.25.36.36,0,0,1,.49,0,.31.31,0,0,1,.1.24.34.34,0,0,1-.35.35Z"/><path class="cls-2" d="M56.5,39.22a.35.35,0,0,1-.25-.6.36.36,0,0,1,.6.25.34.34,0,0,1-.35.35Z"/><path class="cls-2" d="M48,37.47a.35.35,0,0,1-.24-.1.36.36,0,0,1-.11-.25.39.39,0,0,1,.1-.25.36.36,0,0,1,.5,0,.33.33,0,0,1,.1.24.34.34,0,0,1-.35.35Z"/><path class="cls-2" d="M47.75,41.47a.33.33,0,0,1-.25-.11.35.35,0,0,1-.1-.24.39.39,0,0,1,.1-.25.38.38,0,0,1,.5,0,.35.35,0,0,1-.25.6Z"/><path class="cls-2" d="M53.25,45.22a.34.34,0,0,1-.25-.11.31.31,0,0,1-.1-.24.34.34,0,0,1,.11-.25.37.37,0,0,1,.49,0,.35.35,0,0,1-.25.6Z"/><path class="cls-2" d="M62,48.22a.34.34,0,0,1-.35-.35.33.33,0,0,1,.11-.25.36.36,0,0,1,.49,0,.31.31,0,0,1,.1.24.34.34,0,0,1-.35.35Z"/><path class="cls-2" d="M64.75,52a.34.34,0,0,1-.35-.35.33.33,0,0,1,.11-.25.37.37,0,0,1,.49,0,.36.36,0,0,1,.1.25.34.34,0,0,1-.35.35Z"/><path class="cls-2" d="M69.25,45.22a.35.35,0,0,1-.25-.6.37.37,0,0,1,.5,0,.35.35,0,0,1-.25.6Z"/><path class="cls-2" d="M59.75,39.22a.33.33,0,0,1-.25-.11.35.35,0,0,1-.1-.24.34.34,0,0,1,.11-.25.36.36,0,0,1,.49,0,.36.36,0,0,1,0,.5A.37.37,0,0,1,59.75,39.22Z"/><path class="cls-2" d="M32.25,47.22a.35.35,0,0,1-.25-.6.36.36,0,0,1,.6.25.34.34,0,0,1-.35.35Z"/><path class="cls-2" d="M26,38a.35.35,0,0,1-.25-.6.36.36,0,0,1,.6.25A.34.34,0,0,1,26,38Z"/><path class="cls-2" d="M29.5,35.72a.35.35,0,0,1-.24-.1.36.36,0,0,1-.11-.25.33.33,0,0,1,.11-.25.37.37,0,0,1,.49,0,.36.36,0,0,1,.1.25.34.34,0,0,1-.35.35Z"/><path class="cls-2" d="M10.25,29.72a.35.35,0,0,1-.25-.6.37.37,0,0,1,.49,0,.33.33,0,0,1,.11.25.34.34,0,0,1-.35.35Z"/><path class="cls-2" d="M5.75,31.72a.35.35,0,0,1-.25-.6.36.36,0,0,1,.49,0,.33.33,0,0,1,.11.25.37.37,0,0,1-.1.25A.39.39,0,0,1,5.75,31.72Z"/><path class="cls-2" d="M2.25,35.47a.39.39,0,0,1-.25-.1.36.36,0,0,1,0-.5.37.37,0,0,1,.5,0,.35.35,0,0,1,.1.25.33.33,0,0,1-.1.24A.36.36,0,0,1,2.25,35.47Z"/><path class="cls-2" d="M16.75,42.22a.34.34,0,0,1-.35-.35.33.33,0,0,1,.11-.25.35.35,0,0,1,.59.25.39.39,0,0,1-.1.25A.37.37,0,0,1,16.75,42.22Z"/><path class="cls-2" d="M12.5,36.22a.34.34,0,0,1-.35-.35.33.33,0,0,1,.11-.25.37.37,0,0,1,.49,0,.36.36,0,0,1,.1.25.39.39,0,0,1-.1.25A.37.37,0,0,1,12.5,36.22Z"/><path class="cls-2" d="M26.25,30.47a.35.35,0,0,1-.25-.6.37.37,0,0,1,.5,0,.35.35,0,0,1-.25.6Z"/><path class="cls-2" d="M39,31a.35.35,0,0,1-.25-.6.37.37,0,0,1,.5,0,.36.36,0,0,1,0,.5A.37.37,0,0,1,39,31Z"/><path class="cls-2" d="M38,33a.35.35,0,0,1-.25-.6.37.37,0,0,1,.5,0A.35.35,0,0,1,38,33Z"/><path class="cls-2" d="M27.75,42.22a.35.35,0,0,1-.25-.6.37.37,0,0,1,.5,0,.35.35,0,0,1-.25.6Z"/><path class="cls-2" d="M6.25,20.72a.35.35,0,0,1-.25-.6.37.37,0,0,1,.5,0,.35.35,0,0,1-.25.6Z"/><path class="cls-2" d="M9.5,19a.35.35,0,0,1-.25-.6.36.36,0,0,1,.6.25A.34.34,0,0,1,9.5,19Z"/><path class="cls-2" d="M11.5,23.72a.34.34,0,0,1-.35-.35.33.33,0,0,1,.11-.25.37.37,0,0,1,.49,0,.36.36,0,0,1,.1.25.39.39,0,0,1-.1.25A.37.37,0,0,1,11.5,23.72Z"/><path class="cls-2" d="M2.75,26a.39.39,0,0,1-.25-.1.36.36,0,0,1,0-.5.38.38,0,0,1,.5,0,.36.36,0,0,1,0,.5A.39.39,0,0,1,2.75,26Z"/><path class="cls-2" d="M64,29.72a.35.35,0,0,1-.24-.1.36.36,0,0,1-.11-.25.39.39,0,0,1,.1-.25.36.36,0,0,1,.6.25.34.34,0,0,1-.35.35Z"/><path class="cls-2" d="M69.25,30a.34.34,0,0,1-.35-.35.34.34,0,0,1,.11-.25.37.37,0,0,1,.49,0,.36.36,0,0,1,.1.25.39.39,0,0,1-.1.25A.37.37,0,0,1,69.25,30Z"/><path class="cls-2" d="M1.25,9.22A.39.39,0,0,1,1,9.12a.36.36,0,0,1,0-.5.38.38,0,0,1,.5,0,.36.36,0,0,1,0,.5A.39.39,0,0,1,1.25,9.22Z"/><path class="cls-2" d="M16.25,6.22a.34.34,0,0,1-.35-.35.37.37,0,0,1,.1-.25.38.38,0,0,1,.5,0,.35.35,0,0,1-.25.6Z"/><path class="cls-2" d="M3.5,6.22a.35.35,0,0,1-.25-.6.36.36,0,0,1,.6.25.34.34,0,0,1-.35.35Z"/><path class="cls-2" d="M12.5,14.47a.35.35,0,0,1-.25-.6.36.36,0,0,1,.6.25.34.34,0,0,1-.35.35Z"/><path class="cls-2" d="M18.25,19.47a.34.34,0,0,1-.35-.35.37.37,0,0,1,.1-.25.36.36,0,0,1,.6.25.34.34,0,0,1-.35.35Z"/><path class="cls-2" d="M21,37.22a.34.34,0,0,1-.35-.35.37.37,0,0,1,.1-.25.37.37,0,0,1,.49,0,.36.36,0,0,1,.11.25.34.34,0,0,1-.35.35Z"/><path class="cls-2" d="M.5,44.47a.39.39,0,0,1-.25-.1.39.39,0,0,1-.1-.25.33.33,0,0,1,.11-.25.37.37,0,0,1,.49,0,.36.36,0,0,1,.1.25.39.39,0,0,1-.1.25A.39.39,0,0,1,.5,44.47Z"/><path class="cls-2" d="M67.75,66.22a.34.34,0,0,1-.35-.35.33.33,0,0,1,.11-.25.37.37,0,0,1,.49,0,.36.36,0,0,1,.1.25.34.34,0,0,1-.35.35Z"/><path class="cls-2" d="M59.5,70a.39.39,0,0,1-.25-.1.35.35,0,0,1-.1-.25.39.39,0,0,1,.1-.25.37.37,0,0,1,.5,0,.36.36,0,0,1,.1.25.37.37,0,0,1-.1.25A.39.39,0,0,1,59.5,70Z"/><path class="cls-2" d="M40.25,68.22a.35.35,0,0,1-.25-.6.37.37,0,0,1,.5,0,.36.36,0,0,1,0,.5A.37.37,0,0,1,40.25,68.22Z"/><path class="cls-2" d="M4.25,60.22a.35.35,0,0,1-.25-.6.36.36,0,0,1,.6.25.34.34,0,0,1-.35.35Z"/><path class="cls-2" d="M26.25,59.72a.35.35,0,0,1-.25-.6.36.36,0,0,1,.6.25.34.34,0,0,1-.35.35Z"/><path class="cls-2" d="M37,48.72a.34.34,0,0,1-.35-.35.37.37,0,0,1,.1-.25.37.37,0,0,1,.5,0,.36.36,0,0,1,0,.5A.37.37,0,0,1,37,48.72Z"/><path class="cls-2" d="M8.5,40.47a.35.35,0,0,1-.25-.6.36.36,0,0,1,.6.25.34.34,0,0,1-.35.35Z"/><path class="cls-2" d="M52,38.22a.36.36,0,0,1-.25-.11.35.35,0,0,1-.1-.24.33.33,0,0,1,.11-.25.37.37,0,0,1,.49,0,.36.36,0,0,1,.1.25.34.34,0,0,1-.35.35Z"/><path class="cls-2" d="M60.5,46.22a.34.34,0,0,1-.35-.35.33.33,0,0,1,.11-.25.37.37,0,0,1,.49,0,.36.36,0,0,1,.1.25.34.34,0,0,1-.35.35Z"/><path class="cls-2" d="M51,66.47a.35.35,0,0,1-.25-.6.37.37,0,0,1,.5,0,.39.39,0,0,1,.1.25.35.35,0,0,1-.1.25A.39.39,0,0,1,51,66.47Z"/><path class="cls-2" d="M39.75,38a.35.35,0,0,1-.25-.6.36.36,0,0,1,.6.25.34.34,0,0,1-.35.35Z"/><path class="cls-2" d="M27.25,13.72a.35.35,0,0,1-.25-.6.36.36,0,0,1,.6.25.34.34,0,0,1-.35.35Z"/><path class="cls-2" d="M19.5,26.72a.34.34,0,0,1-.35-.35.37.37,0,0,1,.1-.25.37.37,0,0,1,.49,0,.36.36,0,0,1,.11.25.34.34,0,0,1-.35.35Z"/><path class="cls-2" d="M11.5,2a.39.39,0,0,1-.25-.1.39.39,0,0,1-.1-.25.39.39,0,0,1,.1-.25.38.38,0,0,1,.5,0,.39.39,0,0,1,.1.25.39.39,0,0,1-.1.25A.39.39,0,0,1,11.5,2Z"/><path class="cls-2" d="M55,4a.34.34,0,0,1-.35-.35.33.33,0,0,1,.11-.25.37.37,0,0,1,.49,0,.36.36,0,0,1,.1.25A.34.34,0,0,1,55,4Z"/><path class="cls-2" d="M47,70a.39.39,0,0,1-.25-.1.37.37,0,0,1-.1-.25.39.39,0,0,1,.1-.25.36.36,0,0,1,.6.25A.34.34,0,0,1,47,70Z"/><path class="cls-2" d="M4.5,40.47a.34.34,0,0,1-.35-.35.33.33,0,0,1,.11-.25.37.37,0,0,1,.49,0,.36.36,0,0,1,.1.25.34.34,0,0,1-.35.35Z"/><path class="cls-2" d="M68.5,13.47a.35.35,0,0,1-.25-.6.37.37,0,0,1,.5,0,.36.36,0,0,1,0,.5A.39.39,0,0,1,68.5,13.47Z"/><path class="cls-2" d="M23,14.22a.35.35,0,0,1-.25-.6.36.36,0,0,1,.6.25.34.34,0,0,1-.35.35Z"/><path class="cls-2" d="M20.25,17.47a.35.35,0,0,1-.25-.6.37.37,0,0,1,.5,0,.35.35,0,0,1-.25.6Z"/><path class="cls-2" d="M14.5,17.47a.34.34,0,0,1-.35-.35.33.33,0,0,1,.11-.25.37.37,0,0,1,.49,0,.36.36,0,0,1,.1.25.34.34,0,0,1-.35.35Z"/><path class="cls-2" d="M5.75,12a.35.35,0,0,1-.25-.6.36.36,0,0,1,.49,0,.33.33,0,0,1,.11.25.34.34,0,0,1-.35.35Z"/><path class="cls-2" d="M6.75,3a.37.37,0,0,1-.24-.1.36.36,0,0,1-.11-.25.39.39,0,0,1,.1-.25.36.36,0,0,1,.6.25.39.39,0,0,1-.1.25A.39.39,0,0,1,6.75,3Z"/><path class="cls-2" d="M9.75,8.47a.35.35,0,0,1-.25-.6.36.36,0,0,1,.6.25.34.34,0,0,1-.35.35Z"/><path class="cls-2" d="M14,8.47a.34.34,0,0,1-.35-.35.33.33,0,0,1,.11-.25.37.37,0,0,1,.49,0,.36.36,0,0,1,.1.25.34.34,0,0,1-.35.35Z"/><path class="cls-2" d="M25.5,7.22a.35.35,0,0,1-.25-.6.36.36,0,0,1,.6.25.34.34,0,0,1-.35.35Z"/><path class="cls-2" d="M36.75,7.72a.35.35,0,0,1-.25-.6.37.37,0,0,1,.5,0,.35.35,0,0,1-.25.6Z"/><path class="cls-2" d="M37.25,4.47a.34.34,0,0,1-.35-.35A.33.33,0,0,1,37,3.87a.35.35,0,0,1,.59.25.34.34,0,0,1-.35.35Z"/><path class="cls-2" d="M43,2.47a.39.39,0,0,1-.25-.1.39.39,0,0,1-.1-.25.39.39,0,0,1,.1-.25.37.37,0,0,1,.5,0,.39.39,0,0,1,.1.25.39.39,0,0,1-.1.25A.42.42,0,0,1,43,2.47Z"/><path class="cls-2" d="M49.25,8.47a.39.39,0,0,1-.25-.1.36.36,0,0,1,0-.5.37.37,0,0,1,.5,0,.35.35,0,0,1-.25.6Z"/><path class="cls-2" d="M45.75,9.47a.35.35,0,0,1-.25-.6.37.37,0,0,1,.5,0,.36.36,0,0,1,0,.5A.37.37,0,0,1,45.75,9.47Z"/><path class="cls-2" d="M35.5,11.22a.34.34,0,0,1-.35-.35.37.37,0,0,1,.1-.25.36.36,0,0,1,.6.25.34.34,0,0,1-.35.35Z"/><path class="cls-2" d="M39,15.22a.35.35,0,0,1-.25-.6.36.36,0,0,1,.6.25.34.34,0,0,1-.35.35Z"/><path class="cls-2" d="M24.5,18.22a.35.35,0,0,1-.25-.6.36.36,0,0,1,.6.25.34.34,0,0,1-.35.35Z"/><path class="cls-2" d="M8,27.47a.35.35,0,0,1-.25-.6.36.36,0,0,1,.6.25.34.34,0,0,1-.35.35Z"/><path class="cls-2" d="M15.75,32a.35.35,0,0,1-.25-.6.38.38,0,0,1,.5,0,.35.35,0,0,1-.25.6Z"/><path class="cls-2" d="M10.25,33.72a.34.34,0,0,1-.35-.35.33.33,0,0,1,.11-.25.37.37,0,0,1,.49,0,.36.36,0,0,1,.1.25.37.37,0,0,1-.1.25A.39.39,0,0,1,10.25,33.72Z"/><path class="cls-2" d="M5,37.22a.35.35,0,0,1-.25-.6.38.38,0,0,1,.5,0,.37.37,0,0,1,.1.25.34.34,0,0,1-.35.35Z"/><path class="cls-2" d="M3,20.72a.39.39,0,0,1-.25-.1.36.36,0,0,1,0-.5.38.38,0,0,1,.5,0,.36.36,0,0,1,0,.5A.39.39,0,0,1,3,20.72Z"/><path class="cls-2" d="M20.25,31a.34.34,0,0,1-.35-.35.33.33,0,0,1,.11-.25.35.35,0,0,1,.59.25.34.34,0,0,1-.35.35Z"/><path class="cls-2" d="M17.25,35.72a.35.35,0,0,1-.25-.6.37.37,0,0,1,.5,0,.35.35,0,0,1-.25.6Z"/><path class="cls-2" d="M15.75,39.22a.34.34,0,0,1-.35-.35.33.33,0,0,1,.11-.25.37.37,0,0,1,.49,0,.36.36,0,0,1,.1.25.39.39,0,0,1-.1.25A.37.37,0,0,1,15.75,39.22Z"/><path class="cls-2" d="M12.5,41.47a.34.34,0,0,1-.35-.35.33.33,0,0,1,.11-.25.37.37,0,0,1,.49,0,.36.36,0,0,1,.1.25.34.34,0,0,1-.35.35Z"/><path class="cls-2" d="M12.5,46.72a.34.34,0,0,1-.35-.35.33.33,0,0,1,.11-.25.37.37,0,0,1,.49,0,.36.36,0,0,1,.1.25.34.34,0,0,1-.35.35Z"/><path class="cls-2" d="M5.5,48.72a.35.35,0,0,1-.25-.6.38.38,0,0,1,.5,0,.35.35,0,0,1-.25.6Z"/><path class="cls-2" d="M10.75,54.72a.35.35,0,0,1-.25-.6.38.38,0,0,1,.5,0,.35.35,0,0,1-.25.6Z"/><path class="cls-2" d="M15.25,58.72a.35.35,0,0,1-.25-.6.37.37,0,0,1,.5,0,.35.35,0,0,1-.25.6Z"/><path class="cls-2" d="M5.75,63.72a.35.35,0,0,1-.25-.6.38.38,0,0,1,.5,0,.36.36,0,0,1,.1.25.34.34,0,0,1-.35.35Z"/><path class="cls-2" d="M2,62.22a.39.39,0,0,1-.25-.1.36.36,0,0,1,0-.5.37.37,0,0,1,.49,0,.34.34,0,0,1,.11.25.39.39,0,0,1-.1.25A.39.39,0,0,1,2,62.22Z"/><path class="cls-2" d="M8.75,68.22a.35.35,0,0,1-.25-.6.36.36,0,0,1,.6.25.39.39,0,0,1-.1.25A.37.37,0,0,1,8.75,68.22Z"/><path class="cls-2" d="M13.25,69.72a.35.35,0,0,1-.25-.6.38.38,0,0,1,.5,0,.35.35,0,0,1-.25.6Z"/><path class="cls-2" d="M21.25,68.72a.34.34,0,0,1-.35-.35.33.33,0,0,1,.11-.25.35.35,0,0,1,.59.25.34.34,0,0,1-.35.35Z"/><path class="cls-2" d="M22.75,66a.35.35,0,0,1-.25-.6.37.37,0,0,1,.5,0,.36.36,0,0,1,0,.5A.37.37,0,0,1,22.75,66Z"/><path class="cls-2" d="M22,60.22a.35.35,0,0,1-.25-.6.38.38,0,0,1,.5,0,.36.36,0,0,1,0,.5A.37.37,0,0,1,22,60.22Z"/><path class="cls-2" d="M24,57.72a.34.34,0,0,1-.35-.35.37.37,0,0,1,.1-.25.38.38,0,0,1,.5,0,.37.37,0,0,1,.1.25.39.39,0,0,1-.1.25A.37.37,0,0,1,24,57.72Z"/><path class="cls-2" d="M26,48a.35.35,0,0,1-.25-.6.37.37,0,0,1,.5,0A.35.35,0,0,1,26,48Z"/><path class="cls-2" d="M25.5,43.72a.35.35,0,0,1-.25-.6.37.37,0,0,1,.5,0,.35.35,0,0,1-.25.6Z"/><path class="cls-2" d="M32,31.22a.34.34,0,0,1-.35-.35.33.33,0,0,1,.11-.25.35.35,0,0,1,.59.25.34.34,0,0,1-.35.35Z"/><path class="cls-2" d="M34,28a.34.34,0,0,1-.35-.35.35.35,0,0,1,.1-.25.37.37,0,0,1,.5,0,.36.36,0,0,1,0,.5A.37.37,0,0,1,34,28Z"/><path class="cls-2" d="M41.5,26a.35.35,0,0,1-.25-.6.37.37,0,0,1,.5,0,.35.35,0,0,1-.25.6Z"/><path class="cls-2" d="M42.75,21a.36.36,0,0,1-.25-.11.33.33,0,0,1-.1-.24.39.39,0,0,1,.1-.25.37.37,0,0,1,.5,0,.39.39,0,0,1,.1.25.34.34,0,0,1-.11.25A.35.35,0,0,1,42.75,21Z"/><path class="cls-2" d="M36.25,19.47a.39.39,0,0,1-.25-.1.36.36,0,0,1-.1-.25.31.31,0,0,1,.1-.24.35.35,0,0,1,.5,0,.35.35,0,0,1-.25.6Z"/><path class="cls-2" d="M27.5,22.47a.35.35,0,0,1-.25-.6.37.37,0,0,1,.5,0,.35.35,0,0,1-.25.6Z"/><path class="cls-2" d="M51.75,22.22a.33.33,0,0,1-.25-.11.35.35,0,0,1-.1-.24.39.39,0,0,1,.1-.25.36.36,0,0,1,.6.25.39.39,0,0,1-.1.25A.37.37,0,0,1,51.75,22.22Z"/><path class="cls-2" d="M43,18a.37.37,0,0,1-.25-.1.36.36,0,0,1,0-.5.38.38,0,0,1,.5,0A.35.35,0,0,1,43,18Z"/><path class="cls-2" d="M50.25,18.22a.37.37,0,0,1-.25-.1.36.36,0,0,1,0-.5.36.36,0,0,1,.6.25.34.34,0,0,1-.35.35Z"/><path class="cls-2" d="M59.25,17.47a.34.34,0,0,1-.35-.35.33.33,0,0,1,.11-.25.37.37,0,0,1,.49,0,.36.36,0,0,1,.1.25.34.34,0,0,1-.35.35Z"/><path class="cls-2" d="M58,14.22a.37.37,0,0,1-.25-.1.36.36,0,0,1,0-.5.36.36,0,0,1,.6.25.34.34,0,0,1-.35.35Z"/><path class="cls-2" d="M61.25,11.22a.34.34,0,0,1-.35-.35.33.33,0,0,1,.11-.25.36.36,0,0,1,.49,0,.31.31,0,0,1,.1.24.34.34,0,0,1-.35.35Z"/><path class="cls-2" d="M58.5,7.72a.39.39,0,0,1-.25-.1.35.35,0,0,1-.1-.25.31.31,0,0,1,.1-.24.35.35,0,0,1,.6.24.34.34,0,0,1-.35.35Z"/><path class="cls-2" d="M59.75,5a.34.34,0,0,1-.25-.11.35.35,0,0,1-.1-.24.33.33,0,0,1,.11-.25.37.37,0,0,1,.49,0,.36.36,0,0,1,.1.25.34.34,0,0,1-.35.35Z"/><path class="cls-2" d="M67.25,6.22a.39.39,0,0,1-.25-.1.36.36,0,0,1-.1-.25.37.37,0,0,1,.1-.25.38.38,0,0,1,.5,0,.35.35,0,0,1-.25.6Z"/><path class="cls-2" d="M70.5,8.72a.39.39,0,0,1-.25-.1.36.36,0,0,1-.1-.25.37.37,0,0,1,.1-.25.37.37,0,0,1,.49,0,.36.36,0,0,1,.11.25.34.34,0,0,1-.35.35Z"/><path class="cls-2" d="M65.5,10a.34.34,0,0,1-.35-.35.37.37,0,0,1,.1-.25.38.38,0,0,1,.5,0,.35.35,0,0,1-.25.6Z"/><path class="cls-2" d="M60,24a.35.35,0,0,1-.25-.6.37.37,0,0,1,.5,0A.35.35,0,0,1,60,24Z"/><path class="cls-2" d="M55.25,24a.35.35,0,0,1-.25-.6.38.38,0,0,1,.5,0,.35.35,0,0,1-.25.6Z"/><path class="cls-2" d="M55.25,19a.34.34,0,0,1-.25-.11.35.35,0,0,1-.1-.24.33.33,0,0,1,.11-.25.37.37,0,0,1,.49,0,.36.36,0,0,1,.1.25.34.34,0,0,1-.35.35Z"/><path class="cls-2" d="M64.75,26a.34.34,0,0,1-.35-.35.33.33,0,0,1,.11-.25.37.37,0,0,1,.49,0,.36.36,0,0,1,.1.25.34.34,0,0,1-.35.35Z"/><path class="cls-2" d="M57.5,31a.33.33,0,0,1-.25-.11.35.35,0,0,1-.1-.24.33.33,0,0,1,.11-.25.37.37,0,0,1,.49,0,.36.36,0,0,1,.1.25.34.34,0,0,1-.35.35Z"/><path class="cls-2" d="M52.5,33a.36.36,0,0,1-.25-.11.35.35,0,0,1-.1-.24.33.33,0,0,1,.11-.25.37.37,0,0,1,.49,0,.36.36,0,0,1,.1.25.34.34,0,0,1-.35.35Z"/><path class="cls-2" d="M47.25,34a.36.36,0,0,1-.25-.11.35.35,0,0,1-.1-.24.33.33,0,0,1,.11-.25.37.37,0,0,1,.49,0,.36.36,0,0,1,.1.25.34.34,0,0,1-.35.35Z"/><path class="cls-2" d="M44,39.47a.36.36,0,0,1-.25-.11.35.35,0,0,1-.1-.24.39.39,0,0,1,.1-.25.37.37,0,0,1,.5,0,.37.37,0,0,1,.1.25.33.33,0,0,1-.11.25A.35.35,0,0,1,44,39.47Z"/><path class="cls-2" d="M33.75,41.72a.35.35,0,0,1-.25-.6.37.37,0,0,1,.5,0,.35.35,0,0,1-.25.6Z"/><path class="cls-2" d="M40.5,48.22a.35.35,0,0,1-.25-.6.36.36,0,0,1,.49,0,.34.34,0,0,1,.11.25.34.34,0,0,1-.35.35Z"/><path class="cls-2" d="M45.5,52.47a.34.34,0,0,1-.35-.35.33.33,0,0,1,.11-.25.35.35,0,0,1,.59.25.34.34,0,0,1-.35.35Z"/><path class="cls-2" d="M46.25,57a.35.35,0,0,1-.25-.6.35.35,0,0,1,.49,0,.36.36,0,0,1,.11.25.34.34,0,0,1-.35.35Z"/><path class="cls-2" d="M41.75,59.72a.35.35,0,0,1-.24-.1.36.36,0,0,1-.11-.25.39.39,0,0,1,.1-.25.37.37,0,0,1,.5,0,.35.35,0,0,1-.25.6Z"/><path class="cls-2" d="M39.75,63a.35.35,0,0,1-.25-.6.37.37,0,0,1,.5,0,.36.36,0,0,1,0,.5A.37.37,0,0,1,39.75,63Z"/><path class="cls-2" d="M35.75,63a.34.34,0,0,1-.35-.35.33.33,0,0,1,.11-.25.35.35,0,0,1,.59.25.34.34,0,0,1-.35.35Z"/><path class="cls-2" d="M36.25,53a.39.39,0,0,1-.25-.1.35.35,0,0,1-.1-.25.39.39,0,0,1,.1-.25.36.36,0,0,1,.5,0,.31.31,0,0,1,.1.24.34.34,0,0,1-.35.35Z"/><path class="cls-2" d="M29.75,63.72a.35.35,0,0,1-.24-.1.36.36,0,0,1-.11-.25.33.33,0,0,1,.11-.25.37.37,0,0,1,.49,0,.36.36,0,0,1,.1.25.34.34,0,0,1-.35.35Z"/><path class="cls-2" d="M31.25,68.72a.35.35,0,0,1-.25-.6.37.37,0,0,1,.5,0,.35.35,0,0,1-.25.6Z"/><path class="cls-2" d="M36.75,71.22a.39.39,0,0,1-.25-.1.37.37,0,0,1-.1-.25.33.33,0,0,1,.11-.25.37.37,0,0,1,.49,0,.36.36,0,0,1,.1.25.37.37,0,0,1-.1.25A.39.39,0,0,1,36.75,71.22Z"/><path class="cls-2" d="M62.75,57.22a.34.34,0,0,1-.35-.35.33.33,0,0,1,.11-.25.37.37,0,0,1,.49,0,.36.36,0,0,1,.1.25.34.34,0,0,1-.35.35Z"/><path class="cls-2" d="M59.75,51a.33.33,0,0,1-.25-.11.35.35,0,0,1-.1-.24.35.35,0,0,1,.59-.25.36.36,0,0,1,.11.25.39.39,0,0,1-.1.25A.37.37,0,0,1,59.75,51Z"/><path class="cls-2" d="M54.25,50.72a.39.39,0,0,1-.25-.1.37.37,0,0,1-.1-.25.35.35,0,0,1,.7,0,.35.35,0,0,1-.1.24A.34.34,0,0,1,54.25,50.72Z"/><path class="cls-2" d="M54.5,42a.36.36,0,0,1-.25-.11.33.33,0,0,1-.1-.24.39.39,0,0,1,.1-.25.37.37,0,0,1,.5,0,.39.39,0,0,1,.1.25.34.34,0,0,1-.11.25A.35.35,0,0,1,54.5,42Z"/><path class="cls-2" d="M62.25,42.47a.35.35,0,0,1-.25-.6.37.37,0,0,1,.5,0,.35.35,0,0,1-.25.6Z"/><path class="cls-2" d="M66.75,47.72a.35.35,0,0,1-.24-.1.36.36,0,0,1-.11-.25.39.39,0,0,1,.1-.25.36.36,0,0,1,.49,0,.32.32,0,0,1,.11.25.34.34,0,0,1-.35.35Z"/><path class="cls-2" d="M69.25,54.47a.35.35,0,0,1-.24-.1.36.36,0,0,1-.11-.25.39.39,0,0,1,.1-.25.36.36,0,0,1,.6.25.34.34,0,0,1-.35.35Z"/><path class="cls-2" d="M63.25,62a.35.35,0,0,1-.24-.1.36.36,0,0,1-.11-.25.39.39,0,0,1,.1-.25.36.36,0,0,1,.49,0,.32.32,0,0,1,.11.25.34.34,0,0,1-.35.35Z"/><path class="cls-2" d="M70,61.22a.34.34,0,0,1-.35-.35.33.33,0,0,1,.11-.25.37.37,0,0,1,.49,0,.36.36,0,0,1,.1.25.34.34,0,0,1-.35.35Z"/><path class="cls-2" d="M64.5,65.72a.35.35,0,0,1-.25-.6.36.36,0,0,1,.5,0,.35.35,0,0,1,.1.24.34.34,0,0,1-.35.35Z"/><path class="cls-2" d="M65.5,68.47a.35.35,0,0,1-.25-.6.37.37,0,0,1,.5,0,.35.35,0,0,1-.25.6Z"/><path class="cls-2" d="M62.25,70.47a.34.34,0,0,1-.35-.35.34.34,0,0,1,.11-.25.36.36,0,0,1,.49,0,.31.31,0,0,1,.1.24.34.34,0,0,1-.35.35Z"/><path class="cls-2" d="M52.5,70a.36.36,0,0,1-.25-.1.36.36,0,0,1,0-.5.36.36,0,0,1,.6.25.39.39,0,0,1-.1.25A.37.37,0,0,1,52.5,70Z"/><path class="cls-2" d="M44.5,66.72a.34.34,0,0,1-.25-.11.35.35,0,0,1-.1-.24.33.33,0,0,1,.11-.25.37.37,0,0,1,.49,0,.36.36,0,0,1,.1.25.34.34,0,0,1-.35.35Z"/><path class="cls-2" d="M28.25,71.47a.39.39,0,0,1-.25-.1.36.36,0,0,1-.1-.25.33.33,0,0,1,.11-.25.35.35,0,0,1,.59.25.33.33,0,0,1-.11.25A.35.35,0,0,1,28.25,71.47Z"/><path class="cls-2" d="M2.75,29.72a.39.39,0,0,1-.25-.1.36.36,0,0,1,0-.5.38.38,0,0,1,.5,0,.36.36,0,0,1,0,.5A.39.39,0,0,1,2.75,29.72Z"/><path class="cls-2" d="M13,5.22a.36.36,0,0,1-.25-.11.31.31,0,0,1-.1-.24.37.37,0,0,1,.1-.25.36.36,0,0,1,.6.25.33.33,0,0,1-.11.25A.35.35,0,0,1,13,5.22Z"/><path class="cls-2" d="M70,34.72a.34.34,0,0,1-.35-.35.33.33,0,0,1,.11-.25.37.37,0,0,1,.49,0,.36.36,0,0,1,.1.25.34.34,0,0,1-.35.35Z"/><path class="cls-2" d="M71,41.47a.35.35,0,0,1-.25-.6.37.37,0,0,1,.5,0,.35.35,0,0,1-.25.6Z"/><path class="cls-2" d="M.75,52a.39.39,0,0,1-.25-.1.39.39,0,0,1-.1-.25.33.33,0,0,1,.11-.25.37.37,0,0,1,.49,0,.36.36,0,0,1,.1.25.39.39,0,0,1-.1.25A.39.39,0,0,1,.75,52Z"/><path class="cls-2" d="M71.75,23.72a.35.35,0,0,1-.25-.6.38.38,0,0,1,.5,0,.35.35,0,0,1-.25.6Z"/><path class="cls-2" d="M68.75,26.72a.35.35,0,0,1-.25-.6.37.37,0,0,1,.5,0,.39.39,0,0,1,.1.25.35.35,0,0,1-.1.25A.39.39,0,0,1,68.75,26.72Z"/><path class="cls-2" d="M68.25,60.47a.34.34,0,0,1-.35-.35.37.37,0,0,1,.1-.25.38.38,0,0,1,.5,0,.35.35,0,0,1-.25.6Z"/><path class="cls-2" d="M71.25,68.47a.35.35,0,0,1-.25-.6.37.37,0,0,1,.5,0,.39.39,0,0,1,.1.25.35.35,0,0,1-.1.25A.39.39,0,0,1,71.25,68.47Z"/><path class="cls-2" d="M.25,58a.39.39,0,0,1-.25-.1.36.36,0,0,1,0-.5.38.38,0,0,1,.5,0,.36.36,0,0,1,0,.5A.39.39,0,0,1,.25,58Z"/><path class="cls-2" d="M2.5,71.47a.39.39,0,0,1-.25-.1.36.36,0,0,1,0-.5.36.36,0,0,1,.6.25.39.39,0,0,1-.1.25A.39.39,0,0,1,2.5,71.47Z"/><path class="cls-2" d="M70,24.22a.34.34,0,0,1-.35-.35.33.33,0,0,1,.11-.25.37.37,0,0,1,.49,0,.36.36,0,0,1,.1.25.34.34,0,0,1-.35.35Z"/><path class="cls-2" d="M1,17a.39.39,0,0,1-.25-.1.36.36,0,0,1,0-.5.38.38,0,0,1,.5,0,.36.36,0,0,1,0,.5A.39.39,0,0,1,1,17Z"/><path class="cls-2" d="M17.75,13.27a.65.65,0,0,1-.65-.65.66.66,0,0,1,.19-.46.68.68,0,0,1,.92,0,.65.65,0,0,1-.46,1.11Z"/><path class="cls-2" d="M29,11.27a.66.66,0,0,1-.46-.19.68.68,0,0,1-.19-.46.66.66,0,0,1,.19-.46.67.67,0,0,1,.92,0,.66.66,0,0,1,.19.46.65.65,0,0,1-.65.65Z"/><path class="cls-2" d="M29,3.77a.65.65,0,0,1-.65-.65.64.64,0,0,1,.19-.46.68.68,0,0,1,.92,0,.65.65,0,0,1,0,.92A.68.68,0,0,1,29,3.77Z"/><path class="cls-2" d="M40,10.77a.65.65,0,0,1-.65-.65.66.66,0,0,1,.19-.46.68.68,0,0,1,.92,0,.63.63,0,0,1,.19.46.68.68,0,0,1-.19.46A.66.66,0,0,1,40,10.77Z"/><path class="cls-2" d="M44.75,12.27a.61.61,0,0,1-.46-.2.64.64,0,0,1-.19-.45.66.66,0,0,1,.19-.46.68.68,0,0,1,.92,0,.63.63,0,0,1,.19.46.61.61,0,0,1-.2.46A.6.6,0,0,1,44.75,12.27Z"/><path class="cls-2" d="M47,23.27a.65.65,0,0,1-.46-1.11.68.68,0,0,1,.92,0A.65.65,0,0,1,47,23.27Z"/><path class="cls-2" d="M54.5,7.27A.64.64,0,0,1,54,7.08a.65.65,0,0,1,0-.92.68.68,0,0,1,.92,0,.64.64,0,0,1,.19.46.66.66,0,0,1-.19.46A.64.64,0,0,1,54.5,7.27Z"/><path class="cls-2" d="M63.75,7a.65.65,0,0,1-.46-1.11.68.68,0,0,1,.92,0A.65.65,0,0,1,63.75,7Z"/><path class="cls-2" d="M64.75,3a.66.66,0,0,1-.46-.19.68.68,0,0,1-.19-.46.66.66,0,0,1,.19-.46.68.68,0,0,1,.92,0,.68.68,0,0,1,.19.46.63.63,0,0,1-.18.45A.67.67,0,0,1,64.75,3Z"/><path class="cls-2" d="M69.25,18.52a.65.65,0,0,1-.46-1.11.67.67,0,0,1,.92,0,.65.65,0,0,1-.46,1.11Z"/><path class="cls-2" d="M7.75,47.52a.64.64,0,0,1-.46-.19.68.68,0,0,1-.19-.46.66.66,0,0,1,.19-.46.68.68,0,0,1,.92,0,.66.66,0,0,1,.19.46.68.68,0,0,1-.19.46A.64.64,0,0,1,7.75,47.52Z"/><path class="cls-2" d="M4.75,57.27a.64.64,0,0,1-.46-.19.65.65,0,0,1,0-.92.67.67,0,0,1,.92,0,.65.65,0,0,1,0,.92A.64.64,0,0,1,4.75,57.27Z"/><path class="cls-2" d="M2,67.52a.66.66,0,0,1-.46-.19.68.68,0,0,1-.19-.46.66.66,0,0,1,.19-.46.68.68,0,0,1,.92,0,.66.66,0,0,1,.19.46.68.68,0,0,1-.19.46A.66.66,0,0,1,2,67.52Z"/><path class="cls-2" d="M17.5,70.27a.66.66,0,0,1-.46-.19.68.68,0,0,1-.19-.46.66.66,0,0,1,.19-.46.68.68,0,0,1,.92,0,.66.66,0,0,1,.19.46.68.68,0,0,1-.19.46A.66.66,0,0,1,17.5,70.27Z"/><path class="cls-2" d="M19,62.77a.65.65,0,0,1-.65-.65.64.64,0,0,1,.19-.46.67.67,0,0,1,.92,0,.66.66,0,0,1,.19.46.68.68,0,0,1-.19.46A.66.66,0,0,1,19,62.77Z"/><path class="cls-2" d="M20.75,45.77a.65.65,0,0,1-.65-.65.64.64,0,0,1,.19-.46.67.67,0,0,1,.92,0,.66.66,0,0,1,.19.46.68.68,0,0,1-.19.46A.64.64,0,0,1,20.75,45.77Z"/><path class="cls-2" d="M28.25,51.52a.65.65,0,0,1-.46-1.11.67.67,0,0,1,.92,0,.66.66,0,0,1,.19.46.68.68,0,0,1-.19.46A.64.64,0,0,1,28.25,51.52Z"/><path class="cls-2" d="M33.75,60.77a.65.65,0,0,1-.65-.65.64.64,0,0,1,.19-.46.68.68,0,0,1,.92,0,.63.63,0,0,1,.19.46.64.64,0,0,1-.19.46A.66.66,0,0,1,33.75,60.77Z"/><path class="cls-2" d="M34,67.27a.64.64,0,0,1-.46-.19.65.65,0,0,1,0-.92.67.67,0,0,1,.92,0,.65.65,0,0,1,0,.92A.66.66,0,0,1,34,67.27Z"/><path class="cls-2" d="M41.5,55.52A.65.65,0,0,1,41,54.41a.68.68,0,0,1,.92,0,.65.65,0,0,1-.46,1.11Z"/><path class="cls-2" d="M52,60.27a.65.65,0,0,1-.46-1.11.68.68,0,0,1,.92,0A.65.65,0,0,1,52,60.27Z"/><path class="cls-2" d="M54.75,65.77a.66.66,0,0,1-.46-.19.68.68,0,0,1-.19-.46.64.64,0,0,1,.19-.46.68.68,0,0,1,.92,0,.64.64,0,0,1,.19.46.68.68,0,0,1-.19.46A.66.66,0,0,1,54.75,65.77Z"/><path class="cls-2" d="M25,25a.66.66,0,0,1-.46-.19.68.68,0,0,1-.19-.46.66.66,0,0,1,.19-.46.68.68,0,0,1,.92,0,.66.66,0,0,1,.19.46.68.68,0,0,1-.19.46A.66.66,0,0,1,25,25Z"/><path class="cls-2" d="M35,23.77a.64.64,0,0,1-.46-.19.65.65,0,0,1,0-.92.68.68,0,0,1,.92,0A.65.65,0,0,1,35,23.77Z"/><path class="cls-2" d="M44.75,30a.65.65,0,0,1-.46-1.11.68.68,0,0,1,.92,0,.63.63,0,0,1,.19.46.61.61,0,0,1-.2.46A.62.62,0,0,1,44.75,30Z"/><path class="cls-2" d="M51.75,43.52a.65.65,0,0,1-.46-1.11.67.67,0,0,1,.92,0,.64.64,0,0,1,.19.46.65.65,0,0,1-.65.65Z"/><path class="cls-2" d="M66.75,52.27a.65.65,0,0,1-.65-.65.61.61,0,0,1,.2-.46.68.68,0,0,1,.91,0,.65.65,0,0,1-.46,1.11Z"/><path class="cls-2" d="M47,48.27a.65.65,0,0,1-.46-1.11.68.68,0,0,1,.92,0A.65.65,0,0,1,47,48.27Z"/><path class="cls-2" d="M36.75,45a.66.66,0,0,1-.46-.19.68.68,0,0,1-.19-.46.66.66,0,0,1,.19-.46.68.68,0,0,1,.92,0,.66.66,0,0,1,.19.46.68.68,0,0,1-.19.46A.66.66,0,0,1,36.75,45Z"/><path class="cls-2" d="M16.75,29a.65.65,0,0,1-.46-1.11.68.68,0,0,1,.92,0,.65.65,0,0,1,0,.92A.64.64,0,0,1,16.75,29Z"/><path class="cls-2" d="M11,37.27a.65.65,0,0,1-.65-.65.64.64,0,0,1,.19-.46.67.67,0,0,1,.92,0A.65.65,0,0,1,11,37.27Z"/><path class="cls-2" d="M67.25,31.27a.66.66,0,0,1-.46-.19.68.68,0,0,1-.19-.46.66.66,0,0,1,.19-.46.68.68,0,0,1,.92,0,.64.64,0,0,1,.19.46.65.65,0,0,1-.65.65Z"/><path class="cls-2" d="M7,16.27a.61.61,0,0,1-.46-.2.62.62,0,0,1-.19-.45.66.66,0,0,1,.19-.46.67.67,0,0,1,.92,0,.65.65,0,0,1,0,.92A.64.64,0,0,1,7,16.27Z"/><path class="cls-2" d="M8.25,5.77a.68.68,0,0,1-.46-.19.66.66,0,0,1-.19-.46.64.64,0,0,1,.19-.46.67.67,0,0,1,.92,0,.64.64,0,0,1,.19.46.65.65,0,0,1-.65.65Z"/><path class="cls-2" d="M3.25,3a.66.66,0,0,1-.46-.19.68.68,0,0,1-.19-.46.66.66,0,0,1,.19-.46.68.68,0,0,1,.92,0,.66.66,0,0,1,.19.46.68.68,0,0,1-.19.46A.66.66,0,0,1,3.25,3Z"/><path class="cls-2" d="M66.25,37.77a.65.65,0,0,1-.46-1.11.68.68,0,0,1,.92,0,.64.64,0,0,1,.19.46.66.66,0,0,1-.19.46A.64.64,0,0,1,66.25,37.77Z"/><path class="cls-2" d="M43.75,63.52a.66.66,0,0,1-.46-.19.68.68,0,0,1-.19-.46.66.66,0,0,1,.19-.46.67.67,0,0,1,.92,0,.66.66,0,0,1,.19.46.68.68,0,0,1-.19.46A.66.66,0,0,1,43.75,63.52Z"/><path class="cls-2" d="M25.5,70.52a.66.66,0,0,1-.46-.19.68.68,0,0,1-.19-.46.66.66,0,0,1,.19-.46.67.67,0,0,1,.92,0,.66.66,0,0,1,.19.46.68.68,0,0,1-.19.46A.66.66,0,0,1,25.5,70.52Z"/><path class="cls-2" d="M21.75,42.27a.66.66,0,0,1-.46-.19.65.65,0,0,1,0-.92.68.68,0,0,1,.92,0,.65.65,0,0,1-.46,1.11Z"/><path class="cls-2" d="M23.75,29.52a.66.66,0,0,1-.46-.19.68.68,0,0,1-.19-.46.66.66,0,0,1,.19-.46.67.67,0,0,1,.92,0,.64.64,0,0,1,.19.46.65.65,0,0,1-.65.65Z"/><path class="cls-2" d="M41.25,35a.65.65,0,0,1-.46-1.11.68.68,0,0,1,.92,0,.66.66,0,0,1,.19.46.68.68,0,0,1-.19.46A.66.66,0,0,1,41.25,35Z"/><path class="cls-2" d="M67.25,44.27a.66.66,0,0,1-.46-.19.68.68,0,0,1-.19-.46.66.66,0,0,1,.19-.46.68.68,0,0,1,.92,0,.64.64,0,0,1,.19.46.65.65,0,0,1-.65.65Z"/><path class="cls-2" d="M53,15.52a.65.65,0,0,1-.46-1.11.68.68,0,0,1,.92,0,.66.66,0,0,1,.19.46.68.68,0,0,1-.19.46A.66.66,0,0,1,53,15.52Z"/><path class="cls-2" d="M33.75,16.52a.66.66,0,0,1-.46-.19.68.68,0,0,1-.19-.46.64.64,0,0,1,.19-.46.68.68,0,0,1,.92,0,.64.64,0,0,1,.19.46.65.65,0,0,1-.65.65Z"/><path class="cls-2" d="M12.5,19.77A.65.65,0,0,1,12,18.66a.67.67,0,0,1,.92,0,.65.65,0,0,1-.46,1.11Z"/><path class="cls-2" d="M49.25,5a.65.65,0,0,1-.46-1.11.68.68,0,0,1,.92,0A.65.65,0,0,1,49.25,5Z"/><path class="cls-2" d="M58.75,21.27a.65.65,0,0,1-.46-1.11.68.68,0,0,1,.92,0,.64.64,0,0,1,.19.46.65.65,0,0,1-.65.65Z"/><path class="cls-2" d="M67.25,57.77a.66.66,0,0,1-.46-.19.68.68,0,0,1-.19-.46.66.66,0,0,1,.19-.46.68.68,0,0,1,.92,0,.64.64,0,0,1,.19.46.65.65,0,0,1-.65.65Z"/><path class="cls-2" d="M5,70.27a.64.64,0,0,1-.46-.19.65.65,0,0,1,0-.92.67.67,0,0,1,.92,0,.65.65,0,0,1,0,.92A.64.64,0,0,1,5,70.27Z"/><path class="cls-2" d="M2.5,13.77a.61.61,0,0,1-.46-.2.62.62,0,0,1-.19-.45A.66.66,0,0,1,2,12.66a.67.67,0,0,1,.92,0,.65.65,0,0,1,0,.92A.64.64,0,0,1,2.5,13.77Z"/><path class="cls-2" d="M16.25,3.77a.65.65,0,0,1-.46-1.11.68.68,0,0,1,.92,0,.65.65,0,0,1-.46,1.11Z"/><path class="cls-2" d="M40.25,5a.65.65,0,0,1-.46-1.11.68.68,0,0,1,.92,0,.64.64,0,0,1,.19.46.65.65,0,0,1-.65.65Z"/><path class="cls-2" d="M2.5,32.52A.64.64,0,0,1,2,32.33a.65.65,0,0,1,0-.92.68.68,0,0,1,.92,0,.65.65,0,0,1-.46,1.11Z"/><path class="cls-2" d="M7.25,25.52a.64.64,0,0,1-.46-.19.65.65,0,0,1,0-.92.68.68,0,0,1,.92,0,.64.64,0,0,1,.19.46.66.66,0,0,1-.19.46A.64.64,0,0,1,7.25,25.52Z"/><path class="cls-2" d="M3.75,47.27a.66.66,0,0,1-.46-.19.68.68,0,0,1-.19-.46.66.66,0,0,1,.19-.46.67.67,0,0,1,.92,0,.66.66,0,0,1,.19.46.68.68,0,0,1-.19.46A.64.64,0,0,1,3.75,47.27Z"/><path class="cls-2" d="M10.75,51a.66.66,0,0,1-.46-.19.68.68,0,0,1-.19-.46.64.64,0,0,1,.19-.46.68.68,0,0,1,.92,0,.66.66,0,0,1,.19.46.68.68,0,0,1-.19.46A.66.66,0,0,1,10.75,51Z"/><path class="cls-2" d="M9.75,60.27a.64.64,0,0,1-.46-.19.65.65,0,0,1,0-.92.68.68,0,0,1,.92,0,.65.65,0,0,1,0,.92A.64.64,0,0,1,9.75,60.27Z"/><path class="cls-2" d="M13.25,66.27a.66.66,0,0,1-.46-.19.68.68,0,0,1-.19-.46.64.64,0,0,1,.19-.46.67.67,0,0,1,.92,0,.66.66,0,0,1,.19.46.68.68,0,0,1-.19.46A.66.66,0,0,1,13.25,66.27Z"/><path class="cls-2" d="M21.75,53.77a.66.66,0,0,1-.46-.19.64.64,0,0,1-.19-.46.6.6,0,0,1,.2-.46.65.65,0,0,1,1.1.46.68.68,0,0,1-.19.46A.66.66,0,0,1,21.75,53.77Z"/><path class="cls-2" d="M31,38a.66.66,0,0,1-.46-.19.68.68,0,0,1-.19-.46.66.66,0,0,1,.19-.46.68.68,0,0,1,.92,0,.66.66,0,0,1,.19.46.68.68,0,0,1-.19.46A.66.66,0,0,1,31,38Z"/><path class="cls-2" d="M25.75,34.52a.65.65,0,0,1-.46-1.11.67.67,0,0,1,.92,0,.65.65,0,0,1-.46,1.11Z"/><path class="cls-2" d="M37,29a.66.66,0,0,1-.46-.19.68.68,0,0,1-.19-.46.66.66,0,0,1,.19-.46.68.68,0,0,1,.92,0,.66.66,0,0,1,.19.46.68.68,0,0,1-.19.46A.66.66,0,0,1,37,29Z"/><path class="cls-2" d="M61.5,17a.66.66,0,0,1-.46-.19.68.68,0,0,1-.19-.46.66.66,0,0,1,.19-.46.68.68,0,0,1,.92,0,.64.64,0,0,1,.19.46.65.65,0,0,1-.65.65Z"/><path class="cls-2" d="M61,27.52a.64.64,0,0,1-.46-.19.68.68,0,0,1-.19-.46.66.66,0,0,1,.19-.46.68.68,0,0,1,.92,0,.65.65,0,0,1,0,.92A.64.64,0,0,1,61,27.52Z"/><path class="cls-2" d="M58.5,57.52a.66.66,0,0,1-.46-.19.68.68,0,0,1-.19-.46.66.66,0,0,1,.19-.46.68.68,0,0,1,.92,0,.66.66,0,0,1,.19.46.68.68,0,0,1-.19.46A.66.66,0,0,1,58.5,57.52Z"/><path class="cls-2" d="M59,44.77a.64.64,0,0,1-.46-.19.65.65,0,0,1,0-.92.68.68,0,0,1,.92,0,.65.65,0,0,1,0,.92A.64.64,0,0,1,59,44.77Z"/><path class="cls-2" d="M55.5,36a.66.66,0,0,1-.46-.19.68.68,0,0,1-.19-.46.66.66,0,0,1,.19-.46.68.68,0,0,1,.92,0,.66.66,0,0,1,.19.46.68.68,0,0,1-.19.46A.66.66,0,0,1,55.5,36Z"/><path class="cls-2" d="M69,71a.68.68,0,0,1-.46-.19.65.65,0,0,1,0-.92.69.69,0,0,1,.92,0A.65.65,0,0,1,69,71Z"/><path class="cls-2" d="M60.5,66.27A.65.65,0,0,1,60,65.16a.67.67,0,0,1,.92,0,.64.64,0,0,1,.19.46.65.65,0,0,1-.65.65Z"/><path class="cls-2" d="M44.25,71.77a.65.65,0,0,1-.46-1.11.68.68,0,0,1,.92,0,.65.65,0,0,1-.46,1.11Z"/><path class="cls-2" d="M24.25,1.52A.65.65,0,0,1,23.6.87a.64.64,0,0,1,.19-.46.67.67,0,0,1,.92,0,.66.66,0,0,1,.19.46.68.68,0,0,1-.19.46A.64.64,0,0,1,24.25,1.52Z"/><path class="cls-2" d="M-.25,23.72a.39.39,0,0,1-.25-.1.39.39,0,0,1-.1-.25.39.39,0,0,1,.1-.25.38.38,0,0,1,.5,0,.39.39,0,0,1,.1.25.39.39,0,0,1-.1.25A.39.39,0,0,1-.25,23.72Z"/></pattern></defs><g id="Layer_2" data-name="Layer 2"><g id="Layer_1-2" data-name="Layer 1"><path class="cls-3" d="M349.38.59V59.72a4.67,4.67,0,0,1-4.67,4.66H286.4a4.67,4.67,0,0,1-4.67-4.66V.59"/><line class="cls-3" x1="267.91" y1="64.38" x2="365.88" y2="64.38"/><path class="cls-3" d="M284.23.59v59a2.66,2.66,0,0,0,2.66,2.66h57.33a2.66,2.66,0,0,0,2.66-2.66V.59"/><line class="cls-3" x1="281.73" y1="0.59" x2="349.38" y2="0.59"/><path class="cls-4" d="M284.23,19.81V59.57a2.66,2.66,0,0,0,2.66,2.66h57.33a2.66,2.66,0,0,0,2.66-2.66V19.81Z"/><path class="cls-3" d="M349.38,123.58v59.13a4.67,4.67,0,0,1-4.67,4.67H286.4a4.67,4.67,0,0,1-4.67-4.67V123.58"/><line class="cls-3" x1="267.91" y1="187.38" x2="365.88" y2="187.38"/><path class="cls-3" d="M284.23,123.58v59a2.66,2.66,0,0,0,2.66,2.66h57.33a2.66,2.66,0,0,0,2.66-2.66v-59"/><line class="cls-3" x1="318.91" y1="123.58" x2="349.38" y2="123.58"/><line class="cls-3" x1="281.73" y1="123.58" x2="316.3" y2="123.58"/><path class="cls-5" d="M284.23,142.8v39.76a2.66,2.66,0,0,0,2.66,2.66h23.25L290.59,142.8h49.88l-19.64,42.42h23.39a2.66,2.66,0,0,0,2.66-2.66V142.8Z"/><line class="cls-3" x1="284.23" y1="142.8" x2="346.88" y2="142.8"/><path class="cls-3" d="M294.65,145.93c.46.83,2.33,2.26,6.13,3.71a61.48,61.48,0,0,0,11.41,2.93c25.94,4.42,33.07-2,15.4-3.21-22.42-1.6-39.91,5.55-25.91,10.92a49.26,49.26,0,0,0,8,2.16c27.38,5.41,27.3-2.4,14.65-2.94a37.22,37.22,0,0,0-5.16.17c-13.73,1.36-23.09,7.69-12.07,12a39,39,0,0,0,6,1.69c16.28,3.38,19.87-4.11,7.82-2.51-14.42,1.91-17.49,7.82-9.49,11.46"/><path class="cls-3" d="M327.45,109.78c-3.67.21-7.69.33-11.9.33-17.3,0-31.32-2-31.32-4.47,0-1.23,3.51-2.35,9.17-3.16"/><polygon class="cls-2" points="323.41 105.07 322.64 105.95 326.99 109.75 322.89 113.82 323.71 114.65 328.71 109.7 323.41 105.07"/><path class="cls-3" d="M321.87,101.27c14.27.41,25,2.21,25,4.37,0,1.22-3.39,2.32-8.9,3.12"/><path class="cls-3" d="M305.56,101.41c3.14-.15,6.5-.23,10-.23l3.55,0"/><polygon class="cls-2" points="309.57 106.13 310.35 105.25 306.01 101.43 310.14 97.38 309.32 96.55 304.29 101.47 309.57 106.13"/><polyline class="cls-3" points="316.53 142.66 323.4 87.7 320.83 87.37 313.89 142.8"/><path class="cls-3" d="M349.38,230.44v59.13a4.67,4.67,0,0,1-4.67,4.67H286.4a4.67,4.67,0,0,1-4.67-4.67V230.44"/><line class="cls-3" x1="267.91" y1="294.24" x2="365.88" y2="294.24"/><path class="cls-3" d="M284.23,230.44v59a2.66,2.66,0,0,0,2.66,2.66h57.33a2.66,2.66,0,0,0,2.66-2.66v-59"/><line class="cls-3" x1="281.73" y1="230.44" x2="349.38" y2="230.44"/><path class="cls-3" d="M284.23,249.66v39.76a2.66,2.66,0,0,0,2.66,2.66h57.33a2.66,2.66,0,0,0,2.66-2.66V249.66Z"/><path class="cls-4" d="M292.54,292.08s7.33-7.55,10.87-5.89,4.26-5.68,7.21-5.13,4.86-5.55,8.44-1.38,7.51.75,7.9,3.84,4.33,4.47,6.49,4.47,4.92,2.75,5.11,4.09"/><path class="cls-3" d="M281.38,13.81l-11.3-2.87h0a2.21,2.21,0,0,1,.52-4.35h10.78"/><path class="cls-3" d="M349.72,13.81,361,10.94h0a2.21,2.21,0,0,0-.52-4.35H349.72"/><path class="cls-3" d="M281.38,136.8l-11.3-2.87h0a2.21,2.21,0,0,1,.52-4.35h10.78"/><path class="cls-3" d="M349.72,136.8,361,133.93h0a2.21,2.21,0,0,0-.52-4.35H349.72"/><path class="cls-3" d="M281.38,243.66l-11.3-2.87h0a2.21,2.21,0,0,1,.52-4.35h10.78"/><path class="cls-3" d="M349.72,243.66,361,240.79h0a2.21,2.21,0,0,0-.52-4.35H349.72"/><rect class="cls-6" x="284.23" y="0.59" width="62.65" height="19.23"/><polyline class="cls-6" points="313.89 142.91 284.23 142.91 284.23 123.69 316.3 123.69"/><polyline class="cls-6" points="318.92 123.69 346.88 123.69 346.88 142.91 316.53 142.66"/><rect class="cls-6" x="284.66" y="230.44" width="62.65" height="19.23"/><path class="cls-7" d="M202.19,157.72c0-20,0-35.33,0-35.33"/><path class="cls-7" d="M202.19,164.8c0,35.08,0,79.79,0,83.81-.14,12.46-16.51,17.95-16.51,17.95h0c-13.95,5.69-40.64,9.54-71.27,9.54s-57.33-3.85-71.27-9.54"/><path class="cls-7" d="M26.57,157.72c0-23,0-35.31,0-35.31"/><path class="cls-7" d="M43.12,266.56s-16.37-5.49-16.51-17.95c-.08-6.51-.07-50.26-.05-83.81"/><path class="cls-7" d="M150.12,104.1c-10.92-1.1-23-1.72-35.73-1.72-48.48,0-87.78,9-87.78,20s39.3,20,87.78,20c7.3,0,14.4-.2,21.19-.59q4-.23,7.89-.54c34.19-2.73,58.71-10.16,58.71-18.89,0-7.49-18-14-44.7-17.43"/><path class="cls-7" d="M135.58,141.82l14.54-37.72L186,11a2,2,0,0,1,2.62-1.16l2.9,1.11a2,2,0,0,1,1.17,2.63L157.48,105l-14,36.32"/><path class="cls-7" d="M72.93,66.1c-18.05-2.95-29.81-7.77-29.81-13.22,0-9,31.91-16.25,71.27-16.25,4.75,0,9.39.11,13.88.31"/><polygon class="cls-2" points="66.97 55.25 65.09 56.66 72.05 65.88 62.34 72.15 63.61 74.12 75.44 66.49 66.97 55.25"/><path class="cls-7" d="M180,46.53c3.63,1.95,5.64,4.1,5.64,6.35,0,9-31.9,16.25-71.26,16.25-4.92,0-9.73-.12-14.37-.33"/><path class="cls-7" d="M151.89,39.06a124.07,124.07,0,0,1,21.51,4.71"/><polygon class="cls-2" points="158.1 49.76 159.94 48.31 152.77 39.25 162.33 32.76 161.01 30.82 149.37 38.72 158.1 49.76"/><path class="cls-7" d="M26.58,136.51h-9c-9,0-16.37,4.15-16.37,13.19v1.91c0,9,7.33,13.19,16.37,13.19H33a3.54,3.54,0,1,0,0-7.08H17.54c-5.12,0-9.28-1-9.28-6.1V149.7c0-5.12,4.16-6.1,9.28-6.1h9"/><path class="cls-7" d="M202.18,136.51h9c9,0,16.36,4.15,16.36,13.19v1.91c0,9-7.33,13.19-16.36,13.19H195.77a3.54,3.54,0,1,1,0-7.08h15.46c5.11,0,9.27-1,9.27-6.1V149.7c0-5.12-4.16-6.1-9.27-6.1h-9"/><path class="cls-6" d="M150.12,104.1l-14.54,37.72c-6.79.39-13.89.59-21.19.59-48.48,0-87.78-9-87.78-20s39.3-20,87.78-20C127.12,102.38,139.2,103,150.12,104.1Z"/><path class="cls-6" d="M202.18,122.39c0,8.73-24.52,16.16-58.71,18.89l14-36.32C184.15,108.39,202.18,114.9,202.18,122.39Z"/></g></g></svg>