<svg xmlns="http://www.w3.org/2000/svg" viewBox="0 0 285.2 245.65"><defs><style>.cls-1,.cls-2,.cls-3{fill:none;stroke:#17306d;stroke-linecap:round;stroke-linejoin:round;}.cls-1{stroke-width:1.25px;}.cls-2{stroke-width:1.88px;}.cls-3{stroke-width:0.94px;}.cls-4,.cls-5{fill:#17306d;}.cls-4{opacity:0.5;}.cls-5{font-size:20.4px;font-family:FilsonPro-RegularItalic, Filson Pro;font-style:italic;text-decoration:underline;}</style></defs><g id="Layer_2" data-name="Layer 2"><g id="Layer_1-2" data-name="Layer 1"><path class="cls-1" d="M135,24c-.52,1,3.09,3.9,8.07,6.45s9.43,3.78,10,2.77"/><path class="cls-1" d="M149.92,33.21A42,42,0,0,0,137,26.62"/><line class="cls-2" x1="122.66" y1="120.25" x2="124.05" y2="117.53"/><line class="cls-2" x1="115.4" y1="134.45" x2="117.66" y2="130.04"/><line class="cls-2" x1="106.84" y1="151.21" x2="110.88" y2="143.31"/><path class="cls-2" d="M75.78,111.41l-18,35.13c-1,2-1.52,8.29-1.52,8.29-1,2.06,6.26,7.89,16.32,13s19.08,7.65,20.13,5.59c0,0,4.81-4.1,5.82-6.09l4.37-8.53"/><path class="cls-2" d="M131.4,103.14l2.54-5a17.91,17.91,0,0,0,2-8.41l-.53-17.91c-.15-3.8,10.42-28.46,12.15-31.84l2.41-1.82a12.3,12.3,0,0,0,2-2.88l1.07-2.1c.52-1-3.09-3.91-8.07-6.45S135.54,23,135,24L134,26.1a12.16,12.16,0,0,0-1.14,3.33l-.07,3c-1.72,3.38-15.89,26.21-19.05,28.31L98.86,70.83a18,18,0,0,0-5.67,6.51L82.76,97.75"/><path class="cls-1" d="M143.64,38.88c-.9-.4-1.86-.84-2.83-1.34s-1.89-1-2.74-1.51"/><path class="cls-1" d="M90.8,170.46s-5.24-.61-14.58-5.14"/><path class="cls-1" d="M71.77,163.08c-2-1.09-3.74-2.14-5.17-3.07"/><path class="cls-1" d="M166.72,23c.53,1-3,4-8,6.58A40.94,40.94,0,0,1,153.4,32"/><path class="cls-2" d="M212.87,82.93l-3.79-7.12a18.06,18.06,0,0,0-5.77-6.42l-15-9.81c-3.2-2-17.38-24.82-19.17-28.18l-.12-3a12.5,12.5,0,0,0-1.19-3.31L166.72,23c-.54-1-5,.31-9.91,2.94a40,40,0,0,0-5.51,3.48"/><path class="cls-2" d="M191.51,140.18l13.71,25.74c1.05,2,5.92,6,5.92,6,1.09,2,10.06-.62,20-5.93s17.18-11.28,16.1-13.31c0,0-.62-6.29-1.67-8.26l-22.14-41.58"/><line class="cls-2" x1="186.05" y1="129.93" x2="187.77" y2="133.15"/><line class="cls-2" x1="178.75" y1="116.22" x2="180.15" y2="118.85"/><path class="cls-2" d="M152,37.43l2.44,1.78c1.79,3.35,12.41,28,12.33,31.82L166.58,89c0,.36,0,.71,0,1.06"/><path class="cls-1" d="M166,33.94c-.84.52-1.76,1.05-2.72,1.56s-1.91,1-2.81,1.39"/><path class="cls-1" d="M164.6,25.59A38,38,0,0,0,158,28.43a42.72,42.72,0,0,0-4.85,3"/><path class="cls-1" d="M240.75,155.4s-3.76,3.7-13.15,8.13"/><path class="cls-1" d="M218.55,167.28c-2.17.72-4.13,1.25-5.79,1.65"/><path class="cls-1" d="M172.75,20.91c2.63,2.31,1,4.08,1.67,5.91A2.21,2.21,0,0,0,177.68,28a2.51,2.51,0,0,0,.65-3.42,8.45,8.45,0,0,0-5.58-3.64"/><path class="cls-1" d="M158.56,19.63c1.29-7,6.31-9.06,9.26-7.78s.49,5.52-2.17,4.53-4.19,1-5,2.83S158.41,20.48,158.56,19.63Z"/><path class="cls-1" d="M153.41,18.48c-1-2.67,0-9.12,1.74-12.49,2.68-5.24,7.22-4.81,4.75-2.3C154.27,9.42,154.46,21.38,153.41,18.48Z"/><path class="cls-1" d="M166.77,3.42c2.9-1.7,7,1.38,3.22,1.88-2.55.34-5,2.54-4.81.26A3.49,3.49,0,0,1,166.77,3.42Z"/><path class="cls-1" d="M139.66,20c-2.54-5.82-3.45-8.66-7.24-5.66-4.48,3.55-6.61-5.84,1.93-4.74S140.72,22.41,139.66,20Z"/><path class="cls-1" d="M147.31,5.41c-2,1.32-.09,2.5-.06,5a18,18,0,0,1-2.41,9.15c-1.73,2.64,1.59-9.55-4.13-16.1-3.61-4.15-1.11-3,1.36-1.34a15.51,15.51,0,0,1,2.77,2.63s.84-2,2.22-2.47c2.53-.82,4.43,3.24,1.87,4.5-.74.36-2.2.69-1.84,2.4"/><path class="cls-2" d="M245.17,118.85c-3.52-6.49-8.11-22.44-11.93-24.67-4.36-2.56-14.15-9.62-15.58-10.63-4.25-3-8.91,2.37-16.32,2.75-8.8.45-5.17,7-.39,8.58,2.41.79,7.59,1.09,13.77.26,5.85-.78,8.75,7.69,8.75,7.69"/><line class="cls-2" x1="274.24" y1="125.58" x2="284.26" y2="129.58"/><line class="cls-2" x1="242.54" y1="112.8" x2="270.66" y2="124.03"/><path class="cls-2" d="M178.94,119.74c-2.47-7.81,6.74-5,14.69-10.76,6.49-4.67,4.42-8.55-1-7.62s-18.75,2.35-21.6,5.55-7.2,11.35-5.9,14.3c1,2.33,4.66,4.3,7.54,5.55"/><path class="cls-2" d="M186.05,129.93a40,40,0,0,1,3.66-2.63l8.86-5.11a3.9,3.9,0,0,0,1.66-4.85h0a3.9,3.9,0,0,0-4.34-2.37l-11.48,2.17a11.84,11.84,0,0,0-6.73,3.84l-6,6.83a3.82,3.82,0,0,0,.69,5.65s4.13,3.08,7.46,5.38"/><path class="cls-2" d="M165.81,112.8s-4.73-4.31-4.73-6.6,2.44-12.74,4.73-15.41,11.73-7.2,13.49-7.84c3.83-1.38,4.95,6.3.25,10.17-9.16,7.54-6.19,6.54-6.33,12.32"/><path class="cls-2" d="M191.63,140.12c8-.76,7.33-11.05,3-9.39s-7.46,2.26-10.88,4.39c-4.62,2.87-5.07,6-3.66,7.73s7.07,4.51,14.52,4.18"/><path class="cls-2" d="M75,169c-7.66-.25-12.77-.77-17.18.24-5.18,1.18-30.24,19.12-30.24,19.12"/><path class="cls-2" d="M103.39,159.14c-3.84-2.41-4.64-4.43-5.12-7.64s1-4.16,2.09-4.16,7.11,4.26,9,5.75c2.24,1.73,5,2.82,3.11,7.64-2.19,5.51-3,5.31-10,7.47a44.63,44.63,0,0,1-5.63,1.39"/><path class="cls-2" d="M113.41,143.57c-4.16-.16-8.57-1.67-11-4.79s-2.77-6.37-2.39-7.14c.67-1.32,1-2.72,8,0s11.32,4.26,13.21,5.22c1.66.84,1.58,3.78.79,7.62-2.16,10.58-2.65,8.69-9.28,11.68"/><path class="cls-3" d="M112.65,149.33a5.65,5.65,0,0,1-1.77-6"/><path class="cls-2" d="M120.43,131.79c-6-3.49-9.09-7-10.12-12.16-.63-3.19.16-5.67,1.86-5.78s7.7,5.12,13.48,8.11c2.39,1.24,3.13,2.05,3.57,6.66,1.1,11.67-3.59,11.73-7,15"/><path class="cls-2" d="M124.05,117.53s-4.31-3.54-1.29-12.31c2.09-6.07,4.69-6.82,6.32-6.42s2.26,1.72,2.4,5.67c.27,8.33,4.71,15-2.42,19.22"/><path class="cls-2" d="M72.87,111.33c11.63.76,15.8-4.15,18.47-7s6.7-11.6.84-9.77-14.65,5.13-22.71,7.33-9.64,6.59-12,9.16S45.18,125,44,128.79s-3.39,9.08-3.39,9.08C39.27,140.4.94,158.05.94,158.05"/><line class="cls-2" x1="247.39" y1="151.51" x2="274.34" y2="166.06"/><path class="cls-4" d="M172.75,20.91c2.63,2.31,1,4.08,1.67,5.91A2.21,2.21,0,0,0,177.68,28a2.51,2.51,0,0,0,.65-3.42,8.45,8.45,0,0,0-5.58-3.64"/><path class="cls-4" d="M158.56,19.63c1.29-7,6.31-9.06,9.26-7.78s.49,5.52-2.17,4.53-4.19,1-5,2.83S158.41,20.48,158.56,19.63Z"/><path class="cls-4" d="M153.41,18.48c-1-2.67,0-9.12,1.74-12.49,2.68-5.24,7.22-4.81,4.75-2.3C154.27,9.42,154.46,21.38,153.41,18.48Z"/><path class="cls-4" d="M166.77,3.42c2.9-1.7,7,1.38,3.22,1.88-2.55.34-5,2.54-4.81.26A3.49,3.49,0,0,1,166.77,3.42Z"/><path class="cls-4" d="M139.66,20c-2.54-5.82-3.45-8.66-7.24-5.66-4.48,3.55-6.61-5.84,1.93-4.74S140.72,22.41,139.66,20Z"/><path class="cls-4" d="M147.25,10.41a18,18,0,0,1-2.41,9.15c-1.73,2.64,1.59-9.55-4.13-16.1-3.61-4.15-1.11-3,1.36-1.34a15.51,15.51,0,0,1,2.77,2.63s.84-2,2.22-2.47c2.53-.82,4.43,3.24,1.87,4.5-.74.36-2.2.69-1.84,2.4"/><path class="cls-4" d="M74.79,129.32l9.41-19.54s6.64-2.75,9.48-8.93c3.88-8.46-1.28-6.65-1.28-6.65l4.06-7.42a202.29,202.29,0,0,0,20.09,9.37c8.8,3.3,10.41,3,10.41,3s-5.08,1.94-5.5,9.39,2.53,8.88,2.53,8.88l-1.26,2.88s-9.08-6-10.37-6.44-2.76,1.68-2.07,4.94.59,4.55,3.06,7.42A15.41,15.41,0,0,0,117.7,130l-2.27,4.05s-11.08-4.25-12.86-4.25-3.36,2.27-2.07,5,2.17,4.85,4.15,6a41.54,41.54,0,0,0,6.23,2.58l-1,2.07s-5-.21-14.07-4.4A194.77,194.77,0,0,1,74.79,129.32Z"/><path class="cls-4" d="M201,94.88l6.62.67L227.24,134a162,162,0,0,1-30.79,14.75l-4.67-8.66c7.86-.89,7.14-11,2.86-9.37-2.52,1-4.63,1.58-6.64,2.33l-1.77-3.27a39.18,39.18,0,0,1,3.48-2.5l8.86-5.1a3.9,3.9,0,0,0-2-7.28,3.5,3.5,0,0,0-.72.06l-11.48,2.17a11.8,11.8,0,0,0-4.11,1.61L178.83,116c1.47-3.29,8.54-2.54,14.8-7,6.49-4.68,4.42-8.56-1-7.62-4.58.78-14.59,1.89-19.43,4.12l-.07-.13L173,101c.79-.17,1.8-.42,3-.79,6.25-2,14.72-6.32,20.38-9.36"/><text class="cls-5" transform="translate(117.28 191.59)">Cheers!</text></g></g></svg>